<?xml version="1.0" encoding="utf-8"?>
<!-- Generator: Adobe Illustrator 16.0.0, SVG Export Plug-In . SVG Version: 6.00 Build 0)  -->
<!DOCTYPE svg PUBLIC "-//W3C//DTD SVG 1.1//EN" "http://www.w3.org/Graphics/SVG/1.1/DTD/svg11.dtd">
<svg version="1.1" id="Layer_1" xmlns="http://www.w3.org/2000/svg" xmlns:xlink="http://www.w3.org/1999/xlink" x="0px" y="0px"
	 width="550px" height="250px" viewBox="0 0 550 250" enable-background="new 0 0 550 250" xml:space="preserve">
<g>
	<path fill="none" d="M1015.618,64.154"/>
</g>
<g>
	<path fill="none" d="M682.326-135.823"/>
</g>
<g>
	<path fill="none" d="M1015.619-135.823"/>
</g>
<g>
	<path fill="none" d="M515.834,106.439"/>
</g>
<path stroke="#4368B1" stroke-width="5" stroke-linecap="square" stroke-miterlimit="10" d="M242.167,212.951"/>
<g>
	<g>
		
			<line fill="none" stroke="#4368B1" stroke-width="5" stroke-linecap="square" stroke-miterlimit="10" x1="305.821" y1="188.9" x2="305.821" y2="194.9"/>
		
			<line fill="none" stroke="#4368B1" stroke-width="5" stroke-linecap="square" stroke-miterlimit="10" x1="305.821" y1="198.617" x2="305.821" y2="204.617"/>
	</g>
</g>
<g>
	<g>
		
			<line fill="none" stroke="#4368B1" stroke-width="5" stroke-linecap="square" stroke-miterlimit="10" x1="305.821" y1="204.617" x2="299.821" y2="204.617"/>
		
			<line fill="none" stroke="#4368B1" stroke-width="5" stroke-linecap="square" stroke-miterlimit="10" stroke-dasharray="11.522,11.522" x1="288.299" y1="204.617" x2="224.928" y2="204.617"/>
		
			<line fill="none" stroke="#4368B1" stroke-width="5" stroke-linecap="square" stroke-miterlimit="10" x1="219.167" y1="204.617" x2="213.167" y2="204.617"/>
	</g>
</g>
<g>
	<g>
		
			<line fill="none" stroke="#4368B1" stroke-width="5" stroke-linecap="square" stroke-miterlimit="10" x1="213.167" y1="204.617" x2="213.167" y2="198.617"/>
		
			<line fill="none" stroke="#4368B1" stroke-width="5" stroke-linecap="square" stroke-miterlimit="10" stroke-dasharray="12.8957,12.8957" x1="213.167" y1="185.722" x2="213.167" y2="140.587"/>
		
			<line fill="none" stroke="#4368B1" stroke-width="5" stroke-linecap="square" stroke-miterlimit="10" x1="213.167" y1="134.139" x2="213.167" y2="128.139"/>
	</g>
</g>
<g>
	<g>
		
			<line fill="none" stroke="#4368B1" stroke-width="5" stroke-linecap="square" stroke-miterlimit="10" x1="213.167" y1="128.139" x2="207.167" y2="128.139"/>
		
			<line fill="none" stroke="#4368B1" stroke-width="5" stroke-linecap="square" stroke-miterlimit="10" stroke-dasharray="13.7148,13.7148" x1="193.452" y1="128.139" x2="172.88" y2="128.139"/>
		
			<line fill="none" stroke="#4368B1" stroke-width="5" stroke-linecap="square" stroke-miterlimit="10" x1="166.022" y1="128.139" x2="160.022" y2="128.139"/>
	</g>
</g>
<rect x="296.949" y="161.562" fill="#4368B1" stroke="#1D304B" stroke-width="3" stroke-miterlimit="10" width="17.744" height="25.348"/>
<line fill="none" stroke="#DEDB24" stroke-width="5" stroke-miterlimit="10" x1="398.512" y1="148.559" x2="378.512" y2="148.559"/>
<rect x="359.236" y="141.846" fill="#DEDB24" stroke="#7E7B31" stroke-width="3" stroke-miterlimit="10" width="19.182" height="13.428"/>
<rect x="359.236" y="117.293" fill="#16A94A" stroke="#116735" stroke-width="3" stroke-miterlimit="10" width="19.182" height="13.428"/>
<g>
	
		<rect x="253.525" y="84.544" fill="none" stroke="#A51E29" stroke-width="5.0128" stroke-miterlimit="10" width="104.616" height="76.926"/>
	
		<line fill="none" stroke="#EC2227" stroke-width="5.0128" stroke-miterlimit="10" x1="250.834" y1="165.315" x2="250.834" y2="80.698"/>
	
		<line fill="none" stroke="#EC2227" stroke-width="5.0128" stroke-miterlimit="10" x1="360.834" y1="165.315" x2="360.834" y2="80.698"/>
	<g>
		<path fill="none" d="M312.946,98.371"/>
	</g>
	<g>
		<path fill="none" d="M284.104,146.442"/>
	</g>
	<g>
		<path fill="none" d="M312.946,146.442"/>
	</g>
	<g>
		<path fill="none" d="M284.104,98.371"/>
	</g>
	<polygon points="320.258,99.209 334.68,123.006 320.258,146.805 291.41,146.805 276.986,123.006 291.41,99.209 	"/>
	<g>
		<polygon fill="#EC2227" points="305.834,123.006 295.736,139.664 285.642,123.006 295.736,106.348 		"/>
		<polygon fill="#DEDB24" points="305.834,123.006 315.93,123.006 326.026,123.006 320.978,131.336 315.93,139.664 310.882,131.336 
					"/>
		<polygon fill="#4368B1" points="305.834,123.006 315.93,123.006 326.026,123.006 320.978,114.678 315.93,106.348 310.882,114.678 
					"/>
		<polygon fill="#16A94A" points="295.736,139.664 300.786,131.336 305.834,123.006 310.882,131.336 315.93,139.664 
			305.834,139.664 		"/>
		<polygon fill="#6E1A45" points="295.725,106.348 300.774,114.678 305.821,123.006 310.869,114.678 315.917,106.348 
			305.821,106.348 		"/>
	</g>
</g>
<g>
	<g>
		<path fill="none" stroke="#16A94A" stroke-width="2" stroke-miterlimit="10" d="M388.588,114.613c5.19,5.192,5.19,13.595,0,18.786
			"/>
		<path fill="none" stroke="#16A94A" stroke-width="2" stroke-miterlimit="10" d="M386.131,117.07
			c3.832,3.834,3.832,10.038,0,13.874"/>
		<path fill="none" stroke="#16A94A" stroke-width="2" stroke-miterlimit="10" d="M383.483,119.947c2.245,2.242,2.245,5.877,0,8.121
			"/>
	</g>
</g>
<g>
	<rect x="-147.173" y="7.024" stroke="#171617" stroke-width="8" stroke-miterlimit="10" width="308.195" height="215.738"/>
	
		<line fill="none" stroke="#171617" stroke-width="8" stroke-miterlimit="10" x1="-168.575" y1="243.309" x2="182.425" y2="243.309"/>
	<line fill="none" stroke="#171617" stroke-width="8" stroke-miterlimit="10" x1="6.925" y1="222.762" x2="6.925" y2="243.309"/>
</g>
<line fill="none" stroke="#DEDB24" stroke-width="5" stroke-linecap="square" stroke-miterlimit="10" x1="398.511" y1="204.617" x2="398.511" y2="148.559"/>
<rect x="15.508" y="31.666" fill="#4368B1" width="100" height="15"/>
<rect x="15.508" y="54.166" fill="#FFFFFF" width="100" height="50"/>
<g>
	<g>
		<g>
			<g>
				<path fill="none" stroke="#16A94A" stroke-width="5" stroke-miterlimit="10" d="M491.265,11.937
					c1.42,1.421,2.809,2.862,4.163,4.322"/>
				<path fill="none" stroke="#16A94A" stroke-width="5" stroke-miterlimit="10" stroke-dasharray="12.4717,12.4717" d="
					M503.551,25.725c46.83,59.094,45.507,143.721-3.969,201.355"/>
				<path fill="none" stroke="#16A94A" stroke-width="5" stroke-miterlimit="10" d="M495.429,231.732
					c-1.355,1.46-2.743,2.9-4.164,4.321"/>
			</g>
		</g>
		<g>
			<g>
				<path fill="none" stroke="#16A94A" stroke-width="5" stroke-miterlimit="10" d="M461.95,41.25
					c1.423,1.423,2.801,2.874,4.135,4.35"/>
				<path fill="none" stroke="#16A94A" stroke-width="5" stroke-miterlimit="10" stroke-dasharray="11.4569,11.4569" d="
					M473.346,54.463c31.663,42.742,30.487,102.08-3.525,143.606"/>
				<path fill="none" stroke="#16A94A" stroke-width="5" stroke-miterlimit="10" d="M466.084,202.411
					c-1.333,1.477-2.711,2.927-4.134,4.351"/>
			</g>
		</g>
		<g>
			<g>
				<path fill="none" stroke="#16A94A" stroke-width="5" stroke-miterlimit="10" d="M430.369,75.581
					c1.43,1.428,2.783,2.903,4.061,4.421"/>
				<path fill="none" stroke="#16A94A" stroke-width="5" stroke-miterlimit="10" stroke-dasharray="10.6249,10.6249" d="
					M440.617,88.633c14.034,23.201,13.053,52.921-2.943,75.224"/>
				<path fill="none" stroke="#16A94A" stroke-width="5" stroke-miterlimit="10" d="M434.428,168.031
					c-1.276,1.519-2.629,2.994-4.059,4.423"/>
			</g>
		</g>
	</g>
</g>
</svg>
