<?xml version="1.0" encoding="utf-8"?>
<!-- Generator: Adobe Illustrator 16.0.0, SVG Export Plug-In . SVG Version: 6.00 Build 0)  -->
<!DOCTYPE svg PUBLIC "-//W3C//DTD SVG 1.1//EN" "http://www.w3.org/Graphics/SVG/1.1/DTD/svg11.dtd">
<svg version="1.1" id="Layer_1" xmlns="http://www.w3.org/2000/svg" xmlns:xlink="http://www.w3.org/1999/xlink" x="0px" y="0px"
	 width="1007.971px" height="346.545px" viewBox="-247.083 53.455 1007.971 346.545"
	 enable-background="new -247.083 53.455 1007.971 346.545" xml:space="preserve">
<g>
	<path fill="none" d="M1014.617,138.988"/>
</g>
<g>
	<path fill="none" d="M681.325-60.989"/>
</g>
<g>
	<path fill="none" d="M1014.618-60.989"/>
</g>
<line fill="none" stroke="#DEDB24" stroke-width="5" stroke-miterlimit="10" x1="286.303" y1="400" x2="286.303" y2="274.814"/>
<g>
	<line fill="none" stroke="#4368B1" stroke-width="5" stroke-miterlimit="10" x1="82.514" y1="199.372" x2="236.288" y2="199.372"/>
	
		<rect x="236.288" y="191.128" fill="#4368B1" stroke="#1D304B" stroke-width="3" stroke-miterlimit="10" width="25.349" height="17.744"/>
</g>
<rect x="279.589" y="254.859" fill="#DEDB24" stroke="#7E7B31" stroke-width="3" stroke-miterlimit="10" width="13.429" height="19.182"/>
<rect x="304.143" y="254.859" fill="#16A94A" stroke="#116735" stroke-width="3" stroke-miterlimit="10" width="13.428" height="19.182"/>
<g>
	
		<rect x="261.538" y="147.691" fill="none" stroke="#A51E29" stroke-width="5.0128" stroke-miterlimit="10" width="76.926" height="104.616"/>
	<line fill="none" stroke="#EC2227" stroke-width="5.0128" stroke-miterlimit="10" x1="257.693" y1="145" x2="342.308" y2="145"/>
	<line fill="none" stroke="#EC2227" stroke-width="5.0128" stroke-miterlimit="10" x1="257.693" y1="255" x2="342.308" y2="255"/>
	<g>
		<path fill="none" d="M324.635,207.113"/>
	</g>
	<g>
		<path fill="none" d="M276.565,178.271"/>
	</g>
	<g>
		<path fill="none" d="M276.565,207.113"/>
	</g>
	<g>
		<path fill="none" d="M324.635,178.271"/>
	</g>
	<polygon points="323.797,214.424 300.001,228.846 276.202,214.424 276.202,185.575 300.001,171.153 323.797,185.575 	"/>
	<g>
		<polygon fill="#EC2227" points="300.001,200 283.343,189.903 300.001,179.807 316.658,189.903 		"/>
		<polygon fill="#DEDB24" points="300.001,200 300.001,210.095 300.001,220.192 291.671,215.144 283.343,210.095 291.671,205.048 		
			"/>
		<polygon fill="#4368B1" points="300.002,200 300.002,210.095 300.001,220.192 308.328,215.144 316.658,210.095 308.328,205.048 		
			"/>
		<polygon fill="#16A94A" points="283.343,189.903 291.671,194.952 300.001,200 291.671,205.048 283.343,210.095 283.343,200 		"/>
		<polygon fill="#6E1A45" points="316.658,189.891 308.328,194.94 300.001,199.986 308.328,205.034 316.658,210.083 
			316.658,199.986 		"/>
	</g>
</g>
<g>
	<g>
		<path fill="none" stroke="#16A94A" stroke-width="2" stroke-miterlimit="10" d="M320.412,284.374
			c-5.282,5.28-13.831,5.28-19.113,0"/>
		<path fill="none" stroke="#16A94A" stroke-width="2" stroke-miterlimit="10" d="M317.913,281.874
			c-3.901,3.899-10.214,3.899-14.115,0"/>
		<path fill="none" stroke="#16A94A" stroke-width="2" stroke-miterlimit="10" d="M314.987,279.182
			c-2.282,2.283-5.979,2.283-8.263,0"/>
	</g>
</g>
<g>
	<rect x="-225.681" y="81.858" stroke="#171617" stroke-width="8" stroke-miterlimit="10" width="308.195" height="215.736"/>
	
		<line fill="none" stroke="#171617" stroke-width="8" stroke-miterlimit="10" x1="-247.083" y1="318.142" x2="103.916" y2="318.142"/>
	
		<line fill="none" stroke="#171617" stroke-width="8" stroke-miterlimit="10" x1="-71.583" y1="297.597" x2="-71.583" y2="318.142"/>
</g>
<rect x="-208" y="148.786" fill="#4368B1" width="50" height="50"/>
<rect x="-148" y="148.786" fill="#4368B1" width="50" height="50"/>
<rect x="-148" y="208.786" fill="#4368B1" width="50" height="50"/>
<rect x="-208" y="208.786" fill="#4368B1" width="50" height="50"/>
<rect x="-207" y="101.942" fill="none" width="95" height="19.688"/>
<rect x="-79" y="148.786" fill="#4368B1" width="100" height="15"/>
<rect x="-79" y="171.286" fill="#FFFFFF" width="100" height="50"/>
<g>
	<g>
		<path fill="none" d="M681.325,200"/>
	</g>
	<g>
		<rect x="628.163" y="142.563" stroke="#171617" stroke-width="5" stroke-miterlimit="10" width="106.324" height="76.895"/>
		<polygon stroke="#171617" stroke-width="5" stroke-miterlimit="10" points="643.825,257.391 606.325,257.391 628.163,223.235 
			734.488,223.235 756.325,257.391 718.825,257.437 		"/>
	</g>
	<g>
		<rect x="659.909" y="162" fill="#16A94A" width="19.091" height="19.091"/>
		<rect x="637" y="162" fill="#4368B1" width="19.091" height="19.091"/>
		<rect x="659.909" y="184.909" fill="#6E1A45" width="19.091" height="19.091"/>
		<rect x="637" y="184.909" fill="#EC2227" width="19.091" height="19.091"/>
		<rect x="686.255" y="162" fill="#DEDB24" width="38.182" height="5.728"/>
		<rect x="686.255" y="170.591" fill="#FFFFFF" width="38.182" height="19.091"/>
		<rect x="637.255" y="152" fill="#FFFFFF" width="38.182" height="5.728"/>
	</g>
</g>
<rect x="406.131" y="55.955" stroke="#171617" stroke-width="5" stroke-miterlimit="10" width="125" height="75.322"/>
<rect x="409.964" y="114.45" fill="#FFFFFF" width="117.333" height="12.846"/>
<path id="rect3330_3_" fill="#6E1A44" d="M424.602,79.814H421.1c-3.174,0-5.748-2.574-5.748-5.75v-3.501
	c0-3.176,2.574-5.75,5.748-5.75h3.502c3.175,0,5.75,2.574,5.75,5.75v3.501C430.352,77.24,427.777,79.814,424.602,79.814z"/>
<path id="rect3330_1_" fill="#EC2227" d="M444.602,79.814H441.1c-3.174,0-5.748-2.574-5.748-5.75v-3.501
	c0-3.176,2.574-5.75,5.748-5.75h3.502c3.175,0,5.75,2.574,5.75,5.75v3.501C450.352,77.24,447.777,79.814,444.602,79.814z"/>
<path id="rect3330_2_" fill="#16A94A" d="M464.602,79.814H461.1c-3.174,0-5.748-2.574-5.748-5.75v-3.501
	c0-3.176,2.574-5.75,5.748-5.75h3.502c3.175,0,5.75,2.574,5.75,5.75v3.501C470.352,77.24,467.777,79.814,464.602,79.814z"/>
<path id="rect3330_4_" fill="#4368B1" d="M484.602,79.814H481.1c-3.174,0-5.748-2.574-5.748-5.75v-3.501
	c0-3.176,2.574-5.75,5.748-5.75h3.502c3.175,0,5.75,2.574,5.75,5.75v3.501C490.352,77.24,487.777,79.814,484.602,79.814z"/>
<path id="rect3330_5_" fill="#DEDB24" d="M504.602,79.814H501.1c-3.174,0-5.748-2.574-5.748-5.75v-3.501
	c0-3.176,2.574-5.75,5.748-5.75h3.502c3.175,0,5.75,2.574,5.75,5.75v3.501C510.352,77.24,507.777,79.814,504.602,79.814z"/>
<path id="rect3330_7_" fill="#116735" d="M484.602,99.814H481.1c-3.174,0-5.748-2.574-5.748-5.75v-3.501
	c0-3.176,2.574-5.75,5.748-5.75h3.502c3.175,0,5.75,2.574,5.75,5.75v3.501C490.352,97.24,487.777,99.814,484.602,99.814z"/>
<path id="rect3330_8_" fill="#1D304B" d="M464.602,99.814H461.1c-3.174,0-5.748-2.574-5.748-5.75v-3.501
	c0-3.176,2.574-5.75,5.748-5.75h3.502c3.175,0,5.75,2.574,5.75,5.75v3.501C470.352,97.24,467.777,99.814,464.602,99.814z"/>
<path id="rect3330_9_" fill="#171617" d="M444.602,99.814H441.1c-3.174,0-5.748-2.574-5.748-5.75v-3.501
	c0-3.176,2.574-5.75,5.748-5.75h3.502c3.175,0,5.75,2.574,5.75,5.75v3.501C450.352,97.24,447.777,99.814,444.602,99.814z"/>
<path id="rect3330_10_" fill="#FFFFFF" d="M424.602,99.814H421.1c-3.174,0-5.748-2.574-5.748-5.75v-3.501
	c0-3.176,2.574-5.75,5.748-5.75h3.502c3.175,0,5.75,2.574,5.75,5.75v3.501C430.352,97.24,427.777,99.814,424.602,99.814z"/>
<g>
	<polygon stroke="#171617" stroke-width="5" stroke-linecap="round" stroke-linejoin="round" stroke-miterlimit="10" points="
		503.046,273.337 522.772,334.045 471.13,311.325 419.489,334.045 439.214,273.337 	"/>
	<path id="rect3330_19_" fill="#16A94A" d="M485.602,295.457l-1.401,1.4c-1.27,1.271-3.328,1.271-4.599,0l-1.401-1.4
		c-1.27-1.271-1.271-3.33,0-4.6l1.401-1.401c1.27-1.27,3.329-1.271,4.601,0l1.399,1.399
		C486.873,292.128,486.871,294.187,485.602,295.457z"/>
	<path id="rect3330_18_" fill="#4368B1" d="M493.603,287.457l-1.4,1.399c-1.271,1.27-3.329,1.271-4.6-0.001l-1.4-1.4
		c-1.271-1.27-1.271-3.329-0.001-4.599l1.4-1.401c1.271-1.27,3.33-1.271,4.601,0l1.4,1.401
		C494.873,284.126,494.872,286.187,493.603,287.457z"/>
	<path id="rect3330_14_" fill="#EC2227" d="M501.603,295.457l-1.4,1.4c-1.27,1.271-3.329,1.271-4.6,0l-1.4-1.4
		c-1.27-1.271-1.27-3.33,0-4.6l1.4-1.4c1.271-1.271,3.33-1.271,4.601,0l1.4,1.399C502.873,292.127,502.873,294.188,501.603,295.457z
		"/>
	<path id="rect3330_6_" fill="#DEDB24" d="M493.603,303.457l-1.4,1.401c-1.271,1.27-3.329,1.27-4.6,0l-1.4-1.401
		c-1.271-1.27-1.271-3.329-0.001-4.599l1.401-1.401c1.27-1.27,3.329-1.27,4.6,0l1.4,1.401
		C494.873,300.128,494.873,302.188,493.603,303.457z"/>
	
		<line fill="none" stroke="#FFFFFF" stroke-width="5" stroke-linecap="round" stroke-miterlimit="10" x1="451.38" y1="284.354" x2="451.38" y2="300.483"/>
	
		<line fill="none" stroke="#FFFFFF" stroke-width="5" stroke-linecap="round" stroke-miterlimit="10" x1="459.444" y1="292.419" x2="443.316" y2="292.419"/>
</g>
<g>
	<g>
		<g>
			<rect x="448.74" y="166.987" stroke="#171617" stroke-width="5" stroke-miterlimit="10" width="39.783" height="66.025"/>
		</g>
		<path id="rect3330_17_" fill="#EC2227" d="M466.641,209.519v2.786c0,2.525-2.047,4.574-4.574,4.574h-2.785
			c-2.527,0-4.575-2.049-4.575-4.574v-2.786c0-2.526,2.048-4.575,4.575-4.575h2.785
			C464.594,204.943,466.641,206.992,466.641,209.519z"/>
		<path id="rect3330_16_" fill="#16A94A" d="M466.641,193.605v2.786c0,2.525-2.047,4.573-4.574,4.573h-2.785
			c-2.527,0-4.575-2.048-4.575-4.573v-2.786c0-2.526,2.048-4.576,4.575-4.576h2.785C464.594,189.03,466.641,191.079,466.641,193.605
			z"/>
		<path id="rect3330_15_" fill="#4368B1" d="M466.641,177.691v2.787c0,2.525-2.047,4.574-4.574,4.574h-2.785
			c-2.527,0-4.575-2.048-4.575-4.574v-2.787c0-2.526,2.048-4.575,4.575-4.575h2.785
			C464.594,173.117,466.641,175.166,466.641,177.691z"/>
		<path id="rect3330_13_" fill="#6E1A44" d="M482.555,177.691v2.787c0,2.525-2.048,4.574-4.574,4.574h-2.786
			c-2.526,0-4.575-2.048-4.575-4.574v-2.787c0-2.526,2.049-4.575,4.575-4.575h2.786
			C480.507,173.117,482.555,175.166,482.555,177.691z"/>
		<path id="rect3330_12_" fill="#DEDB24" d="M482.555,193.605v2.786c0,2.525-2.048,4.573-4.574,4.573h-2.786
			c-2.526,0-4.575-2.048-4.575-4.573v-2.786c0-2.526,2.049-4.576,4.575-4.576h2.786C480.507,189.03,482.555,191.079,482.555,193.605
			z"/>
		<path id="rect3330_11_" fill="#FFFFFF" d="M482.555,209.519v2.786c0,2.525-2.048,4.574-4.574,4.574h-2.786
			c-2.526,0-4.575-2.049-4.575-4.574v-2.786c0-2.526,2.049-4.575,4.575-4.575h2.786
			C480.507,204.943,482.555,206.992,482.555,209.519z"/>
	</g>
	<rect x="450.922" y="220.523" fill="#FFFFFF" width="35.418" height="10.221"/>
</g>
<rect x="-208" y="106.95" fill="#FFFFFF" width="100" height="15"/>
</svg>
