<?xml version="1.0" encoding="utf-8"?>
<!-- Generator: Adobe Illustrator 16.0.0, SVG Export Plug-In . SVG Version: 6.00 Build 0)  -->
<!DOCTYPE svg PUBLIC "-//W3C//DTD SVG 1.1//EN" "http://www.w3.org/Graphics/SVG/1.1/DTD/svg11.dtd">
<svg version="1.1" id="Layer_1" xmlns="http://www.w3.org/2000/svg" xmlns:xlink="http://www.w3.org/1999/xlink" x="0px" y="0px"
	 width="550px" height="250px" viewBox="0 0 550 250" enable-background="new 0 0 550 250" xml:space="preserve">
<path id="rect3330_1_" fill="#EB272A" d="M284.392,236.717h-14.263c-12.926,0-23.408-10.48-23.408-23.414v-14.259
	c0-12.934,10.482-23.416,23.408-23.416h14.263c12.93,0,23.418,10.482,23.418,23.416v14.259
	C307.81,226.236,297.321,236.717,284.392,236.717z"/>
<g>
	<path id="rect3330" fill="#16A94A" d="M187.54,175.629h14.26c12.932,0,23.414,10.482,23.414,23.414v14.261
		c0,12.931-10.482,23.414-23.414,23.414h-14.26c-12.933,0-23.414-10.483-23.414-23.414v-14.261
		C164.126,186.111,174.607,175.629,187.54,175.629z"/>
	<g>
		<defs>
			<path id="SVGID_1_" d="M187.54,175.629h14.26c12.932,0,23.414,10.482,23.414,23.414v14.261c0,12.931-10.482,23.414-23.414,23.414
				h-14.26c-12.933,0-23.414-10.483-23.414-23.414v-14.261C164.126,186.111,174.607,175.629,187.54,175.629z"/>
		</defs>
		<clipPath id="SVGID_2_">
			<use xlink:href="#SVGID_1_"  overflow="visible"/>
		</clipPath>
		<path id="path3305" clip-path="url(#SVGID_2_)" fill="none" stroke="#9FD2A2" stroke-width="4.9294" d="M195.242,192.574
			c-19.947-2.11-37.023,29.482-6.998,47.4"/>
	</g>
	<g>
		<defs>
			<path id="SVGID_3_" d="M187.54,175.629h14.26c12.932,0,23.414,10.482,23.414,23.414v14.261c0,12.931-10.482,23.414-23.414,23.414
				h-14.26c-12.933,0-23.414-10.483-23.414-23.414v-14.261C164.126,186.111,174.607,175.629,187.54,175.629z"/>
		</defs>
		<clipPath id="SVGID_4_">
			<use xlink:href="#SVGID_3_"  overflow="visible"/>
		</clipPath>
		<path id="path3307" clip-path="url(#SVGID_4_)" fill="none" stroke="#CFE8D0" stroke-width="4.9294" d="M204.44,200.628
			c-14.575-7.273-27.62,3.858-26.355,16.227c1.302,12.73,13.07,23.123,39.58,18.36"/>
	</g>
	<g>
		<defs>
			<path id="SVGID_5_" d="M187.54,175.629h14.26c12.932,0,23.414,10.482,23.414,23.414v14.261c0,12.931-10.482,23.414-23.414,23.414
				h-14.26c-12.933,0-23.414-10.483-23.414-23.414v-14.261C164.126,186.111,174.607,175.629,187.54,175.629z"/>
		</defs>
		<clipPath id="SVGID_6_">
			<use xlink:href="#SVGID_5_"  overflow="visible"/>
		</clipPath>
		<path id="path3309" clip-path="url(#SVGID_6_)" fill="none" stroke="#FFFFFF" stroke-width="4.9294" d="M206.149,210.485
			c-4.839-8.715-16.147-7.479-20.194-1.055c-3.173,5.032-3.719,17.291,13.732,20.245c8.038,1.157,20.304-0.146,29.753-1.233"/>
	</g>
</g>
<path id="rect3330_8_" fill="#1E314B" d="M441.49,236.718h-14.263c-12.924,0-23.408-10.483-23.408-23.419v-14.256
	c0-12.934,10.484-23.414,23.408-23.414h14.263c12.929,0,23.417,10.48,23.417,23.414v14.256
	C464.907,226.234,454.419,236.718,441.49,236.718z"/>
<g>
	<path id="rect3330_12_" fill="#4368B1" d="M108.507,175.629h14.259c12.933,0,23.414,10.482,23.414,23.414v14.261
		c0,12.929-10.481,23.414-23.414,23.414h-14.259c-12.932,0-23.415-10.485-23.415-23.414v-14.261
		C85.092,186.111,95.575,175.629,108.507,175.629z"/>
	<g>
		<path fill-rule="evenodd" clip-rule="evenodd" fill="#4368B1" d="M117.594,182.165c0.523,0.2,1.083,0.172,1.626,0.255
			c10.105,1.552,18.164,9.209,19.985,19.27c1.452,8.016-0.617,15.139-6.239,21.062c-5.059,5.331-11.391,7.753-18.716,7.395
			c-11.063-0.539-20.341-8.826-22.27-19.779c-0.105-0.6-0.175-1.205-0.263-1.807c-0.014-0.086,0.027-0.195-0.099-0.231
			c0-1.344,0-2.688,0-4.033c0.111-0.052,0.073-0.159,0.081-0.245c0.28-3.274,1.164-6.384,2.767-9.25
			c3.745-6.698,9.39-10.821,16.95-12.268c0.802-0.152,1.616-0.246,2.425-0.367C115.093,182.165,116.342,182.165,117.594,182.165z
			 M132.007,203.224c-0.677-0.689-1.346-1.387-2.031-2.071c-0.498-0.496-1.144-0.522-1.587-0.091
			c-0.433,0.425-0.426,1.105,0.054,1.59c1.383,1.4,2.779,2.789,4.174,4.178c0.35,0.349,0.763,0.492,1.236,0.284
			c0.47-0.205,0.64-0.58,0.64-1.088c0-3.24-0.805-6.271-2.389-9.082c-3.812-6.761-11.174-10.5-18.903-9.498
			c-4.407,0.57-8.173,2.482-11.254,5.699c-2.201,2.295-3.718,4.987-4.552,8.058c-0.215,0.795,0.296,1.456,1.073,1.418
			c0.542-0.026,0.827-0.313,1.035-1.031c2.296-7.973,9.981-13.053,18.204-12.034c6.907,0.854,12.612,5.961,14.209,12.729
			c0.072,0.306,0.23,0.616,0.091,0.945V203.224z M99.18,209.067c0.753,0.76,1.416,1.437,2.09,2.101
			c0.492,0.484,1.15,0.494,1.584,0.045c0.428-0.441,0.41-1.066-0.063-1.541c-1.388-1.396-2.781-2.787-4.176-4.177
			c-0.385-0.384-0.797-0.467-1.235-0.267c-0.446,0.207-0.631,0.565-0.626,1.052c0.01,1.081,0.11,2.15,0.292,3.215
			c1.569,9.14,9.803,15.845,19.064,15.544c4.789-0.155,8.941-1.845,12.44-5.1c2.585-2.405,4.351-5.326,5.294-8.733
			c0.171-0.616-0.02-1.124-0.498-1.365c-0.669-0.336-1.347,0.031-1.581,0.866c-2.154,7.682-9.725,13.228-18.216,12.054
			c-6.885-0.952-11.47-4.888-13.841-11.404C99.455,210.664,99.259,209.943,99.18,209.067z"/>
		<path fill-rule="evenodd" clip-rule="evenodd" fill="#FFFFFF" d="M132.007,203.229c0.14-0.329-0.019-0.64-0.091-0.945
			c-1.597-6.768-7.302-11.874-14.209-12.729c-8.223-1.019-15.908,4.062-18.204,12.034c-0.208,0.719-0.493,1.005-1.035,1.031
			c-0.777,0.038-1.288-0.623-1.073-1.418c0.834-3.07,2.351-5.763,4.552-8.058c3.081-3.217,6.847-5.129,11.254-5.699
			c7.729-1.002,15.092,2.737,18.903,9.498c1.584,2.811,2.389,5.842,2.389,9.082c0,0.508-0.17,0.883-0.64,1.088
			c-0.474,0.208-0.887,0.064-1.236-0.284c-1.395-1.389-2.791-2.777-4.174-4.178c-0.479-0.484-0.486-1.165-0.054-1.59
			c0.443-0.432,1.089-0.405,1.587,0.091c0.686,0.685,1.354,1.382,2.031,2.071c0.003-0.035,0.108,0.015,0.053-0.066
			C132.041,203.184,132.023,203.205,132.007,203.229z"/>
		<path fill-rule="evenodd" clip-rule="evenodd" fill="#FFFFFF" d="M99.18,209.067c0.079,0.876,0.275,1.597,0.528,2.289
			c2.371,6.517,6.956,10.452,13.841,11.404c8.491,1.174,16.062-4.372,18.216-12.054c0.234-0.835,0.912-1.202,1.581-0.866
			c0.479,0.241,0.669,0.749,0.498,1.365c-0.943,3.407-2.709,6.328-5.294,8.733c-3.499,3.255-7.651,4.944-12.44,5.1
			c-9.262,0.301-17.495-6.404-19.064-15.544c-0.182-1.064-0.282-2.134-0.292-3.215c-0.005-0.486,0.18-0.845,0.626-1.052
			c0.438-0.2,0.851-0.117,1.235,0.267c1.395,1.39,2.788,2.78,4.176,4.177c0.474,0.475,0.491,1.1,0.063,1.541
			c-0.434,0.449-1.092,0.439-1.584-0.045C100.596,210.504,99.933,209.827,99.18,209.067z"/>
	</g>
</g>
<path id="rect3330_4_" fill="#4569B2" d="M362.817,236.718h-14.263c-12.926,0-23.409-10.48-23.409-23.417v-14.258
	c0-12.934,10.483-23.414,23.409-23.414h14.263c12.93,0,23.417,10.48,23.417,23.414v14.258
	C386.234,226.237,375.747,236.718,362.817,236.718z"/>
<path id="rect3330_9_" fill="#181718" d="M201.796,155.545h-14.262c-12.926,0-23.408-10.483-23.408-23.419V117.87
	c0-12.932,10.482-23.414,23.408-23.414h14.262c12.931,0,23.418,10.482,23.418,23.414v14.256
	C225.214,145.062,214.727,155.545,201.796,155.545z"/>
<path id="rect3330_7_" fill="#156836" d="M362.817,155.545h-14.263c-12.925,0-23.407-10.483-23.407-23.419V117.87
	c0-12.932,10.482-23.414,23.407-23.414h14.263c12.93,0,23.416,10.482,23.416,23.414v14.256
	C386.233,145.062,375.747,155.545,362.817,155.545z"/>
<g>
	<path id="rect3330_6_" fill="#6E1A45" d="M427.234,94.456h14.26c12.931,0,23.414,10.483,23.414,23.416v14.259
		c0,12.932-10.483,23.415-23.414,23.415h-14.26c-12.933,0-23.415-10.483-23.415-23.415v-14.259
		C403.819,104.938,414.302,94.456,427.234,94.456z"/>
	<g>
		<g>
			<path fill="none" stroke="#FFFFFF" stroke-width="2.9576" d="M416.491,119.698c9.878-9.877,25.866-9.877,35.744,0"/>
			<path fill="none" stroke="#FFFFFF" stroke-width="2.9576" d="M421.166,124.372c7.295-7.292,19.101-7.292,26.396,0"/>
			<path fill="none" stroke="#FFFFFF" stroke-width="2.9576" d="M426.64,129.409c4.269-4.271,11.181-4.271,15.449,0"/>
		</g>
		<circle fill="#FFFFFF" cx="434.365" cy="134.444" r="3.266"/>
	</g>
</g>
<path id="rect3330_10_" fill="#CFCECE" d="M122.763,155.545h-14.262c-12.925,0-23.408-10.483-23.408-23.419V117.87
	c0-12.932,10.483-23.414,23.408-23.414h14.262c12.93,0,23.417,10.482,23.417,23.414v14.256
	C146.18,145.062,135.692,155.545,122.763,155.545z"/>
<path id="rect3330_2_" fill="#1AA94A" d="M284.393,74.371H270.13c-12.926,0-23.409-10.481-23.409-23.416V36.698
	c0-12.934,10.483-23.416,23.409-23.416h14.263c12.929,0,23.417,10.482,23.417,23.416v14.258
	C307.81,63.89,297.321,74.371,284.393,74.371z"/>
<g>
	<path id="rect3330_11_" fill="#EC2227" d="M348.561,13.282h14.259c12.933,0,23.415,10.483,23.415,23.414v14.261
		c0,12.93-10.482,23.414-23.415,23.414h-14.259c-12.933,0-23.415-10.484-23.415-23.414V36.696
		C325.146,23.765,335.628,13.282,348.561,13.282z"/>
	<path fill-rule="evenodd" clip-rule="evenodd" fill="#020302" d="M354.825,22.581c0.641,0,1.28,0,1.921,0
		c1.098,0.413,1.897,1.295,2.912,1.856c0.724,0.4,0.727,1.291,0.736,2.049c0.025,2.011,1.143,3.667,3.018,4.382
		c0.598,0.228,1.222,0.455,1.855,0.445c2.053-0.034,3.464,1.249,4.715,2.529c1.063,1.087,1.195,2.769,1.399,4.254
		c0.122,0.885,0.391,1.68,0.64,2.513c0.272,0.914,0.233,1.893,0.201,2.853c0,1.344,0,2.687,0,4.029
		c0.001,4.066-0.33,8.125-0.256,12.194c0.027,1.454-0.426,1.808-1.893,2.068c-1.994,0.354-3.779-0.233-5.521-1.074
		c-0.68-0.328-0.659-0.94-0.472-1.554c0.293-0.957,0.699-1.869,1.152-2.759c0.683-1.341,0.997-2.742,0.992-4.263
		c-0.006-2.274-0.135-4.545-0.12-6.818c0-0.335,0-0.672,0-1.007c0-0.308,0-0.617,0-0.925c0.003-0.156-0.001-0.313,0.005-0.354
		c-0.024,0.183,0.001,0.482-0.007,0.781c0,0.3,0,0.599,0,0.898c0,0.25,0,0.499,0,0.748c0.068,1.778-0.251,3.505-0.735,5.202
		c-0.331,1.162-0.784,2.277-1.78,3.057c-0.447,0.35-0.528,0.763-0.33,1.273c0.203,0.522,0.367,1.058,0.462,1.611
		c0.186,1.093,0.083,2.084-1.014,2.693c0.176,0.418,0.811,0.613,0.553,1.131c-0.254,0.512-0.814,0.407-1.281,0.448
		c-0.199,0.018-0.399,0.007-0.6,0.007c-3.774,0.013-5.023-1.315-4.629-5.044c0.1-0.943-0.224-1.208-1.096-1.207
		c-0.865,0-1.224,0.281-1.141,1.206c0.352,3.91-1.03,5.311-4.9,5.034c-0.478-0.034-1.048-0.013-1.229-0.554
		c-0.207-0.62,0.438-0.75,0.779-1.043c-0.984-0.317-1.104-1.118-1.166-1.993c-0.076-1.075,0.727-2.081,0.523-3.016
		c-0.19-0.875-1.309-1.422-1.625-2.422c-0.633-1.998-1.008-4.027-0.95-6.128c0-0.252,0-0.504,0-0.756c0-0.307,0-0.615,0-0.921
		c0.005-0.439-0.034-0.884,0.156-1.298c-0.198,0.492-0.149,1.012-0.157,1.527c0,0.316,0,0.631,0,0.947c0,0.271,0,0.541,0,0.812
		c0.099,2.033-0.124,4.059-0.124,6.091c-0.001,1.519,0.303,2.921,0.982,4.264c0.433,0.854,0.867,1.714,1.075,2.656
		c0.24,1.088-0.063,1.424-1.03,1.939c-1.668,0.888-3.39,1.008-5.212,0.775c-1.037-0.132-1.468-0.72-1.543-1.654
		c-0.072-0.914-0.027-1.834-0.023-2.751c0.01-2.702-0.063-5.401-0.364-8.089c0-2.48,0-4.96,0-7.44
		c0.577-2.09,0.949-4.231,1.556-6.313c0.574-1.973,2.857-3.898,4.935-4.094c1.847-0.174,3.378-0.835,4.409-2.462
		c0.397-0.627,0.661-1.25,0.564-2.015c-0.164-1.288,0.132-2.299,1.446-2.959C353.372,23.557,353.973,22.853,354.825,22.581z"/>
	<path fill-rule="evenodd" clip-rule="evenodd" fill="#FFFFFF" d="M356.855,42.091c1.92,0,3.84-0.001,5.76,0
		c1.433,0.001,1.973,0.521,2.075,1.979c0.148,2.112-0.445,4.106-0.967,6.112c-0.165,0.633-0.735,0.706-1.214,0.811
		c-3.105,0.68-6.25,0.76-9.406,0.509c-1.309-0.104-2.628-0.164-3.896-0.577c-0.481-0.157-0.85-0.355-0.983-0.902
		c-0.482-1.976-0.999-3.945-0.889-6.007c0.082-1.555,0.344-1.814,1.85-1.817c2.557-0.004,5.114-0.001,7.671-0.001
		C356.855,42.163,356.855,42.127,356.855,42.091z"/>
	<path fill-rule="evenodd" clip-rule="evenodd" fill="#FFFFFF" d="M360.175,41.301c-0.799,0-1.607-0.072-2.396,0.018
		c-1.078,0.123-1.46-0.22-1.352-1.337c0.118-1.229,0.105-2.478,0.04-3.712c-0.041-0.768,0.271-1.09,0.957-1.199
		c1.787-0.284,3.576-0.294,5.361,0.007c0.851,0.144,1.33,0.663,1.406,1.533c0.109,1.234,0.098,2.468,0.002,3.703
		c-0.055,0.703-0.356,1.058-1.141,1.004C362.098,41.25,361.135,41.301,360.175,41.301z"/>
	<path fill-rule="evenodd" clip-rule="evenodd" fill="#FFFFFF" d="M351.764,41.301c-0.918,0-1.842-0.062-2.753,0.019
		c-0.784,0.07-1.127-0.251-1.14-0.967c-0.022-1.275-0.044-2.554,0.012-3.827c0.035-0.812,0.562-1.305,1.355-1.441
		c1.821-0.313,3.648-0.32,5.468,0.021c0.54,0.102,0.908,0.3,0.877,1.007c-0.065,1.474-0.058,2.955-0.003,4.43
		c0.025,0.674-0.236,0.793-0.823,0.77C353.761,41.272,352.762,41.301,351.764,41.301z"/>
	<path fill-rule="evenodd" clip-rule="evenodd" fill="#171616" d="M358.166,30.254c0.404,0.721,0.479,1.437-0.039,2.141
		c-0.193-0.231-0.103-0.737-0.755-0.423c-1.02,0.491-2.155,0.444-3.227,0.067c-0.509-0.179-1.092-0.424-0.746-1.19
		c0.36-0.414,0.93-0.29,1.357-0.531c0.545-0.236,1.122-0.168,1.69-0.174c0.298,0.122,0.44-0.159,0.654-0.256
		C357.536,29.782,357.834,30.067,358.166,30.254z"/>
	<path fill-rule="evenodd" clip-rule="evenodd" fill="#F3F3F3" d="M353.651,30.752c-0.551,0.572,0,0.792,0.369,0.916
		c1.438,0.485,2.851,0.548,4.127-0.512c0.203,0.408,0.09,0.824-0.021,1.24c-1.069,0.627-2.189,0.858-3.412,0.508
		c-1.663-0.477-1.859-0.846-1.329-2.643c0.104-0.078,0.204-0.076,0.304,0.006C353.778,30.437,353.776,30.599,353.651,30.752z"/>
	<path fill-rule="evenodd" clip-rule="evenodd" fill="#151313" d="M353.877,28.127c0.012-0.344-0.123-0.722,0.229-0.986
		c0.944,0.051,1.892-0.278,2.834,0.02c0.927,0.901,0.126,1.239-0.528,1.626c-0.362,0.114-0.732,0.122-1.105,0.077
		C354.747,28.782,354.354,28.374,353.877,28.127z"/>
	<path fill-rule="evenodd" clip-rule="evenodd" fill="#DEDDDD" d="M354.81,25.057c-0.27-0.143-0.539-0.285-0.974-0.515
		c1.349-0.306,2.535-0.355,3.866,0.029c-0.598,0.274-1.199,0.316-1.435,0.898C355.604,25.956,355.182,25.594,354.81,25.057z"/>
	<path fill-rule="evenodd" clip-rule="evenodd" fill="#F7F6F6" d="M353.578,30.25c-0.063,0.002-0.128,0.006-0.192,0.011
		c-0.093-0.916,0.689-0.789,1.189-1c0.807-0.477,1.614-0.443,2.421,0c0.519,0.18,1.111,0.273,1.17,0.994
		c-0.45,0.152-0.748-0.326-1.173-0.282c-0.221,0.076-0.453,0.05-0.68,0.07c-0.626,0.078-1.277-0.042-1.875,0.249
		C354.148,30.354,353.855,30.459,353.578,30.25z"/>
	<path fill-rule="evenodd" clip-rule="evenodd" fill="#3E3C3B" d="M354.81,25.057c0.429,0.34,0.895,0.549,1.458,0.413l-0.01-0.023
		c0.334,0.373,0.457,0.81,0.393,1.304c-0.044,0.139-0.131,0.24-0.26,0.308c-0.541,0.061-1.101,0.266-1.574-0.203
		c-0.005-0.063-0.002-0.126,0.011-0.188c-0.005-0.459,0.032-0.919-0.016-1.378C354.775,25.211,354.774,25.134,354.81,25.057z"/>
	<path fill-rule="evenodd" clip-rule="evenodd" fill="#3A3837" d="M356.996,29.26c-0.807,0-1.614,0-2.421,0
		c-0.199-0.345-0.835,0.063-0.896-0.519c0.444-0.336,0.967-0.029,1.434-0.174c0.404,0.013,0.81,0.025,1.214,0.038
		c0.547-0.048,1.104-0.186,1.602,0.186C357.811,29.331,357.207,28.905,356.996,29.26z"/>
	<path fill-rule="evenodd" clip-rule="evenodd" fill="#DFDDDD" d="M354.816,26.855c0.565-0.009,1.13-0.017,1.695-0.026
		c0.25-0.125,0.433-0.047,0.564,0.187c0.023,0.117-0.006,0.22-0.086,0.308c-0.966,0.01-1.945,0.244-2.884-0.182
		C354.343,27.045,354.58,26.95,354.816,26.855z"/>
	<path fill-rule="evenodd" clip-rule="evenodd" fill="#EBEAEA" d="M356.99,27.323c0.014-0.067,0.014-0.134,0-0.201
		c0.072-0.085,0.156-0.098,0.251-0.038c0.229,0.569,0.458,1.138,0.687,1.708c-0.558,0.149-1.094,0.106-1.602-0.186
		C356.507,28.157,357.647,28.206,356.99,27.323z"/>
	<path fill-rule="evenodd" clip-rule="evenodd" fill="#E9CFC4" d="M354.812,25.288c0.633,0.452,0.712,0.911,0.016,1.378
		c-0.22-0.085-0.425-0.184-0.428-0.467c-0.057-0.205-0.264-0.301-0.349-0.485c-0.036-0.102-0.02-0.195,0.049-0.278
		C354.271,25.067,354.566,25.298,354.812,25.288z"/>
	<path fill-rule="evenodd" clip-rule="evenodd" fill="#E0D8D4" d="M354.1,25.436c-0.001,0.076-0.003,0.152-0.007,0.229
		c0.006,0.044,0.01,0.087,0.016,0.131c0.02,0.086,0.026,0.174,0.02,0.262c-0.005,0.044-0.01,0.088-0.015,0.131
		c0.035,0.33-0.025,0.603-0.432,0.39c-0.315-0.166-0.575-0.407-0.378-0.851C353.479,25.335,353.792,25.417,354.1,25.436z"/>
	<path fill-rule="evenodd" clip-rule="evenodd" fill="#F0EFEF" d="M355.112,28.567c-0.43,0.454-0.931,0.321-1.434,0.174
		c0.066-0.205,0.132-0.409,0.198-0.614C354.467,27.774,354.707,28.403,355.112,28.567z"/>
	<path fill-rule="evenodd" clip-rule="evenodd" fill="#3A3837" d="M345.726,44.199c-0.061-0.589-0.01-1.156,0.448-1.903
		c0,0.708,0,1.185,0,1.661C346.051,44.087,345.976,44.305,345.726,44.199z"/>
	<path fill-rule="evenodd" clip-rule="evenodd" fill="#EDD3C7" d="M356.512,26.646c-0.354-0.343-0.322-0.768-0.254-1.2
		c0.158-0.009,0.316-0.018,0.475-0.027c0.093,0.061,0.161,0.143,0.21,0.242c0.095,0.257,0.152,0.522,0.164,0.798
		c-0.013,0.113-0.063,0.208-0.145,0.288C356.798,26.776,356.634,26.809,356.512,26.646z"/>
	<path fill-rule="evenodd" clip-rule="evenodd" fill="#F1EDEB" d="M357.761,25.426c0.645,0.225,0.671,0.569,0.195,1.011
		c-0.2,0.101-0.315-0.017-0.421-0.162c-0.113-0.207-0.183-0.425-0.159-0.666C357.448,25.433,357.55,25.314,357.761,25.426z"/>
	<path fill-rule="evenodd" clip-rule="evenodd" fill="#383635" d="M365.888,43.721c0.035-0.431-0.198-0.918,0.26-1.285
		c0.343,0.237,0.137,0.557,0.166,0.83C366.15,43.397,366.299,43.821,365.888,43.721z"/>
	<path fill-rule="evenodd" clip-rule="evenodd" fill="#686565" d="M365.888,43.721c0.143-0.152,0.284-0.304,0.426-0.455
		c0,0.316-0.001,0.632-0.001,0.948c-0.162,0.134-0.004,0.555-0.417,0.466C365.894,44.36,365.891,44.04,365.888,43.721z"/>
	<path fill-rule="evenodd" clip-rule="evenodd" fill="#6B6868" d="M345.726,44.199c0.149-0.081,0.299-0.161,0.448-0.242
		c-0.005,0.322-0.01,0.644-0.015,0.965c-0.11,0.135-0.185,0.335-0.425,0.233C345.731,44.837,345.729,44.518,345.726,44.199z"/>
	<path fill-rule="evenodd" clip-rule="evenodd" fill="#D8CBC5" d="M357.761,25.426c-0.099,0.088-0.197,0.177-0.296,0.265
		c-0.23,0.215-0.463,0.202-0.697,0.006c-0.012-0.093-0.023-0.186-0.035-0.278C357.077,25.076,357.42,25.122,357.761,25.426z"/>
	<path fill-rule="evenodd" clip-rule="evenodd" fill="#E8CFC4" d="M357.646,26.138c0.104,0.1,0.207,0.199,0.311,0.299
		c-0.083,0.086-0.167,0.172-0.25,0.258c-0.253,0.091-0.505,0.178-0.722-0.076c-0.003-0.075-0.005-0.15-0.006-0.225
		C357.049,25.911,357.333,25.988,357.646,26.138z"/>
	<path fill-rule="evenodd" clip-rule="evenodd" fill="#AFACAC" d="M365.896,44.679c0.139-0.155,0.278-0.311,0.417-0.466
		c0.002,0.314,0.005,0.628,0.008,0.942c-0.141,0.079-0.281,0.158-0.422,0.237C365.897,45.155,365.896,44.917,365.896,44.679z"/>
	<path fill-rule="evenodd" clip-rule="evenodd" fill="#272626" d="M356.984,26.619c0.241,0.025,0.481,0.051,0.722,0.076
		c-0.155,0.13-0.311,0.259-0.465,0.389c-0.084,0.013-0.167,0.025-0.251,0.038c-0.052-0.273-0.319-0.196-0.479-0.293
		c0.014-0.061,0.015-0.122,0-0.183C356.67,26.637,356.827,26.628,356.984,26.619z"/>
	<path fill-rule="evenodd" clip-rule="evenodd" fill="#A7A5A4" d="M345.734,45.156c0.142-0.078,0.283-0.155,0.425-0.233
		c-0.006,0.241-0.012,0.483-0.018,0.725c-0.13,0.078-0.26,0.154-0.39,0.232C345.746,45.638,345.74,45.397,345.734,45.156z"/>
	<path fill-rule="evenodd" clip-rule="evenodd" fill="#69291C" d="M354.093,25.665c0.172,0.036,0.392-0.035,0.478,0.196
		c0.062,0.166,0.002,0.284-0.171,0.338c-0.096-0.003-0.19-0.007-0.286-0.01c-0.048,0.016-0.08-0.001-0.095-0.049
		c-0.027-0.142-0.04-0.281,0.06-0.403L354.093,25.665z"/>
	<path fill-rule="evenodd" clip-rule="evenodd" fill="#312F2F" d="M354.359,30.07c0.662-0.516,1.418-0.251,2.141-0.254
		c0.146,0.171,0.126,0.327-0.046,0.467c-0.476,0.46-1.087-0.01-1.595,0.234C354.604,30.467,354.313,30.457,354.359,30.07z"/>
	<path fill-rule="evenodd" clip-rule="evenodd" fill="#494646" d="M354.359,30.07c0.166,0.149,0.333,0.298,0.5,0.447
		c-0.366,0.266-0.752,0.429-1.208,0.235c-0.024-0.167-0.049-0.335-0.073-0.502C353.828,30.142,354.049,29.912,354.359,30.07z"/>
	<path fill-rule="evenodd" clip-rule="evenodd" fill="#4B4948" d="M356.454,30.282c0.016-0.156,0.03-0.312,0.046-0.467
		c0.191-0.033,0.381-0.058,0.493,0.157c-0.101,0.226,0.303,0.519-0.03,0.665C356.761,30.726,356.595,30.452,356.454,30.282z"/>
	<path fill-rule="evenodd" clip-rule="evenodd" fill="#C52E26" d="M354.078,25.737c-0.02,0.134-0.039,0.269-0.06,0.403
		C353.79,25.968,353.78,25.829,354.078,25.737z"/>
	<path fill-rule="evenodd" clip-rule="evenodd" fill="#7B3324" d="M357.646,26.138c-0.222,0.086-0.531-0.054-0.667,0.256
		c-0.401-0.131-0.179-0.453-0.211-0.697c0.232-0.002,0.465-0.004,0.697-0.006C357.525,25.84,357.585,25.989,357.646,26.138z"/>
</g>
<path id="rect3330_5_" fill="#DFDB25" d="M441.49,74.371h-14.263c-12.926,0-23.408-10.481-23.408-23.416V36.698
	c0-12.934,10.482-23.416,23.408-23.416h14.263c12.929,0,23.417,10.482,23.417,23.416v14.258
	C464.907,63.89,454.419,74.371,441.49,74.371z"/>
<path id="rect3330_3_" fill="#6F1B45" d="M122.762,74.371h-14.261c-12.926,0-23.409-10.481-23.409-23.416V36.698
	c0-12.934,10.483-23.416,23.409-23.416h14.261c12.931,0,23.418,10.482,23.418,23.416v14.258
	C146.18,63.89,135.692,74.371,122.762,74.371z"/>
<g>
	<g>
		<path id="rect3330_13_" fill="#6BCAF3" d="M187.54,13.282h14.259c12.932,0,23.414,10.483,23.414,23.414v14.261
			c0,12.93-10.482,23.414-23.414,23.414H187.54c-12.933,0-23.414-10.484-23.414-23.414V36.696
			C164.126,23.765,174.607,13.282,187.54,13.282z"/>
	</g>
	<g>
		<rect x="178.661" y="46.685" fill="#FFFFFF" width="32.016" height="11.546"/>
		<circle fill="#FFFFFF" cx="178.66" cy="50.336" r="7.892"/>
		<circle fill="#FFFFFF" cx="210.677" cy="50.336" r="7.891"/>
		<circle fill="#FFFFFF" cx="184.928" cy="40.598" r="7.892"/>
		<circle fill="#FFFFFF" cx="204.229" cy="40.598" r="7.891"/>
		<circle fill="#FFFFFF" cx="194.669" cy="35.864" r="7.892"/>
		<rect x="178.661" y="43.078" fill="#FFFFFF" width="32.016" height="7.937"/>
	</g>
</g>
<g id="text3006">
	<path id="path3011" fill="#010101" d="M256.637,124.653c0.058,5.921,2.729,8.91,8.016,8.968c4.159,0,7.64-2.932,10.441-8.794
		c-2.513-5.604-6.109-8.463-10.788-8.578C259.251,116.334,256.694,119.136,256.637,124.653 M289.694,116.249
		c-4.68,0.115-8.275,2.975-10.789,8.578c2.802,5.863,6.283,8.794,10.442,8.794c5.285-0.059,7.957-3.047,8.015-8.968
		C297.305,119.136,294.748,116.334,289.694,116.249 M276.956,128.031v1.213h-0.13c-3.408,5.461-7.683,8.189-12.824,8.189h-0.606
		c-4.044-0.434-6.946-1.979-8.708-4.635c-1.763-2.688-2.644-5.186-2.643-7.496c-0.001-0.203,0.014-0.42,0.043-0.65
		c0-0.115,0-0.246,0-0.391c0-3.35,1.111-6.122,3.336-8.317c2.253-2.224,5.329-3.351,9.229-3.379c4.534,0,8.636,2.454,12.304,7.365
		c3.697-4.911,7.828-7.365,12.392-7.365c3.898,0.028,6.96,1.155,9.185,3.379c2.253,2.195,3.379,4.968,3.379,8.317
		c0,0.145,0,0.275,0,0.391c0.029,0.23,0.044,0.447,0.044,0.65c0,2.31-0.881,4.808-2.644,7.496c-1.762,2.656-4.664,4.201-8.708,4.635
		h-0.606c-5.142,0-9.431-2.729-12.867-8.189h-0.087L276.956,128.031"/>
</g>
</svg>
