<?xml version="1.0" encoding="utf-8"?>
<!-- Generator: Adobe Illustrator 16.0.0, SVG Export Plug-In . SVG Version: 6.00 Build 0)  -->
<!DOCTYPE svg PUBLIC "-//W3C//DTD SVG 1.1//EN" "http://www.w3.org/Graphics/SVG/1.1/DTD/svg11.dtd">
<svg version="1.1" id="Layer_1" xmlns="http://www.w3.org/2000/svg" xmlns:xlink="http://www.w3.org/1999/xlink" x="0px" y="0px"
	 width="600px" height="400px" viewBox="0 0 600 400" enable-background="new 0 0 600 400" xml:space="preserve">
<g>
	<path fill="none" d="M163.9,179.002"/>
</g>
<g>
	<path fill="none" d="M21.95,207.771"/>
</g>
<g>
	<line fill="none" stroke="#466AB3" stroke-width="5" stroke-miterlimit="10" x1="-120" y1="198.837" x2="116.371" y2="198.837"/>
	
		<rect x="116.371" y="190.593" fill="#466AB3" stroke="#1F324B" stroke-width="3" stroke-miterlimit="10" width="25.348" height="17.744"/>
	<g>
		<g>
			
				<rect x="171.616" y="123.009" fill="#181718" stroke="#010101" stroke-width="3" stroke-miterlimit="10" width="34" height="22.667"/>
			<g>
				
					<rect x="189.902" y="254.85" fill="#1BA84A" stroke="#186937" stroke-width="3" stroke-miterlimit="10" width="13.429" height="19.182"/>
				<g>
					<g>
						<path fill="none" stroke="#1BA84A" stroke-width="2" stroke-miterlimit="10" d="M206.173,284.363
							c-5.282,5.281-13.831,5.281-19.112,0"/>
						<path fill="none" stroke="#1BA84A" stroke-width="2" stroke-miterlimit="10" d="M203.674,281.863
							c-3.9,3.899-10.214,3.899-14.115,0"/>
						<path fill="none" stroke="#1BA84A" stroke-width="2" stroke-miterlimit="10" d="M200.747,279.172
							c-2.282,2.283-5.979,2.283-8.263,0"/>
					</g>
				</g>
			</g>
			<line fill="none" stroke="#6E1C46" stroke-width="5" stroke-miterlimit="10" x1="156.387" y1="125.721" x2="156.387" y2="0"/>
			
				<rect x="149.672" y="126.494" fill="#6E1C46" stroke="#541639" stroke-width="3" stroke-miterlimit="10" width="13.43" height="19.182"/>
			<line fill="none" stroke="#EA2A2D" stroke-width="5" stroke-miterlimit="10" x1="163.387" y1="400" x2="163.387" y2="274.279"/>
			
				<rect x="156.672" y="254.324" fill="#EA2A2D" stroke="#A61E2C" stroke-width="3" stroke-miterlimit="10" width="13.43" height="19.182"/>
			
				<rect x="141.637" y="148.501" fill="none" stroke="#541538" stroke-width="5" stroke-miterlimit="10" width="76.729" height="104.349"/>
			
				<line fill="none" stroke="#6E1C45" stroke-width="5" stroke-miterlimit="10" x1="137.801" y1="145.817" x2="222.2" y2="145.817"/>
			
				<line fill="none" stroke="#6E1C45" stroke-width="5" stroke-miterlimit="10" x1="137.801" y1="255.535" x2="222.2" y2="255.535"/>
		</g>
		<polygon fill="#010101" points="203.902,214.386 180,228.772 156.097,214.386 156.097,185.614 180,171.228 203.902,185.614 		"/>
		<g>
			<g id="layer1_9_" transform="translate(-256.6798,-531.7963)">
				<path id="text5540_9_" fill="#6E1944" stroke="#6E1944" stroke-width="0.7193" stroke-miterlimit="10" d="M427.105,746.517
					h-2.615c0.38-1.785,0.57-3.401,0.57-4.849v-17.256c0-1.796,0.159-3.132,0.476-4.01c0.328-0.876,0.956-1.647,1.886-2.313
					c0.94-0.677,2.113-1.015,3.518-1.015c1.669,0,3.069,0.443,4.199,1.331c1.141,0.877,1.711,2.129,1.711,3.756
					c0,1.901-0.903,3.459-2.709,4.674c2.694,1.268,4.041,3.259,4.041,5.975c0,1.479-0.359,2.805-1.078,3.977
					c-0.708,1.162-1.532,1.992-2.472,2.488c-0.929,0.496-2.044,0.744-3.343,0.744c-1.479,0-2.683-0.554-3.613-1.663v2.947
					C427.675,743.332,427.484,745.07,427.105,746.517 M427.675,736.93c0.824,1.363,1.976,2.045,3.454,2.045
					c1.426,0,2.472-0.518,3.138-1.554c0.666-1.046,0.998-2.313,0.998-3.803c0-1.141-0.222-2.303-0.666-3.486
					c-0.433-1.193-0.993-2.102-1.679-2.726c-0.634,0.159-1.205,0.238-1.711,0.238c-1.067,0-1.601-0.28-1.601-0.84
					c0-0.507,0.449-0.761,1.347-0.761c0.56,0,1.257,0.127,2.091,0.38c0.75-1.268,1.125-2.646,1.125-4.136
					c0-1.331-0.296-2.35-0.887-3.058c-0.581-0.708-1.342-1.062-2.282-1.062c-0.75,0-1.395,0.211-1.933,0.634
					c-0.528,0.422-0.893,0.93-1.093,1.521c-0.201,0.58-0.301,1.536-0.301,2.867V736.93"/>
			</g>
			<g id="layer1_8_" transform="translate(-256.6798,-531.7963)">
				<path id="text5540_8_" fill="#8D2964" stroke="#8D2964" stroke-width="0.7193" stroke-miterlimit="10" d="M429.776,746.517
					h-2.614c0.38-1.785,0.57-3.401,0.57-4.849v-17.256c0-1.796,0.158-3.132,0.476-4.01c0.328-0.876,0.956-1.647,1.885-2.313
					c0.94-0.677,2.113-1.015,3.518-1.015c1.669,0,3.069,0.443,4.199,1.331c1.141,0.877,1.711,2.129,1.711,3.756
					c0,1.901-0.903,3.459-2.709,4.674c2.694,1.268,4.041,3.259,4.041,5.975c0,1.479-0.358,2.805-1.077,3.977
					c-0.708,1.162-1.531,1.992-2.472,2.488c-0.93,0.496-2.044,0.744-3.343,0.744c-1.479,0-2.683-0.554-3.613-1.663v2.947
					C430.347,743.332,430.157,745.07,429.776,746.517 M430.347,736.93c0.824,1.363,1.975,2.045,3.454,2.045
					c1.426,0,2.472-0.518,3.138-1.554c0.665-1.046,0.999-2.313,0.999-3.803c0-1.141-0.223-2.303-0.666-3.486
					c-0.433-1.193-0.993-2.102-1.68-2.726c-0.634,0.159-1.204,0.238-1.711,0.238c-1.067,0-1.601-0.28-1.601-0.84
					c0-0.507,0.449-0.761,1.347-0.761c0.56,0,1.257,0.127,2.092,0.38c0.75-1.268,1.125-2.646,1.125-4.136
					c0-1.331-0.296-2.35-0.887-3.058c-0.581-0.708-1.342-1.062-2.282-1.062c-0.75,0-1.395,0.211-1.934,0.634
					c-0.528,0.422-0.892,0.93-1.093,1.521c-0.201,0.58-0.301,1.536-0.301,2.867V736.93"/>
			</g>
			<g id="layer1_7_" transform="translate(-256.6798,-531.7963)">
				<path id="text5540_7_" fill="#C05F94" stroke="#C05F94" stroke-width="0.7193" stroke-miterlimit="10" d="M432.449,746.517
					h-2.614c0.38-1.785,0.57-3.401,0.57-4.849v-17.256c0-1.796,0.158-3.132,0.476-4.01c0.327-0.876,0.956-1.647,1.885-2.313
					c0.94-0.677,2.113-1.015,3.518-1.015c1.668,0,3.068,0.443,4.199,1.331c1.141,0.877,1.711,2.129,1.711,3.756
					c0,1.901-0.902,3.459-2.709,4.674c2.693,1.268,4.041,3.259,4.041,5.975c0,1.479-0.359,2.805-1.078,3.977
					c-0.707,1.162-1.531,1.992-2.472,2.488c-0.93,0.496-2.044,0.744-3.344,0.744c-1.479,0-2.683-0.554-3.613-1.663v2.947
					C433.019,743.332,432.829,745.07,432.449,746.517 M433.019,736.93c0.824,1.363,1.976,2.045,3.455,2.045
					c1.426,0,2.472-0.518,3.138-1.554c0.666-1.046,0.998-2.313,0.998-3.803c0-1.141-0.223-2.303-0.666-3.486
					c-0.433-1.193-0.992-2.102-1.68-2.726c-0.633,0.159-1.204,0.238-1.711,0.238c-1.067,0-1.601-0.28-1.601-0.84
					c0-0.507,0.449-0.761,1.347-0.761c0.56,0,1.257,0.127,2.091,0.38c0.75-1.268,1.125-2.646,1.125-4.136
					c0-1.331-0.295-2.35-0.887-3.058c-0.581-0.708-1.342-1.062-2.282-1.062c-0.75,0-1.395,0.211-1.933,0.634
					c-0.528,0.422-0.893,0.93-1.093,1.521c-0.201,0.58-0.301,1.536-0.301,2.867V736.93"/>
			</g>
			<g id="layer1_6_" transform="translate(-256.6798,-531.7963)">
				<path id="text5540_6_" fill="#D381B2" stroke="#D381B2" stroke-width="0.7193" stroke-miterlimit="10" d="M434.998,746.517
					h-2.614c0.38-1.785,0.57-3.401,0.57-4.849v-17.256c0-1.796,0.158-3.132,0.475-4.01c0.328-0.876,0.957-1.647,1.886-2.313
					c0.94-0.677,2.113-1.015,3.518-1.015c1.67,0,3.069,0.443,4.199,1.331c1.141,0.877,1.711,2.129,1.711,3.756
					c0,1.901-0.902,3.459-2.709,4.674c2.693,1.268,4.041,3.259,4.041,5.975c0,1.479-0.359,2.805-1.078,3.977
					c-0.707,1.162-1.531,1.992-2.472,2.488c-0.93,0.496-2.044,0.744-3.344,0.744c-1.479,0-2.683-0.554-3.612-1.663v2.947
					C435.568,743.332,435.378,745.07,434.998,746.517 M435.568,736.93c0.824,1.363,1.975,2.045,3.454,2.045
					c1.427,0,2.472-0.518,3.138-1.554c0.665-1.046,0.998-2.313,0.998-3.803c0-1.141-0.222-2.303-0.666-3.486
					c-0.433-1.193-0.992-2.102-1.68-2.726c-0.633,0.159-1.203,0.238-1.711,0.238c-1.066,0-1.6-0.28-1.6-0.84
					c0-0.507,0.449-0.761,1.346-0.761c0.561,0,1.258,0.127,2.092,0.38c0.75-1.268,1.125-2.646,1.125-4.136
					c0-1.331-0.295-2.35-0.887-3.058c-0.582-0.708-1.342-1.062-2.282-1.062c-0.75,0-1.394,0.211-1.933,0.634
					c-0.528,0.422-0.892,0.93-1.093,1.521c-0.201,0.58-0.301,1.536-0.301,2.867V736.93"/>
			</g>
			<g id="layer1_5_" transform="translate(-256.6798,-531.7963)">
				<path id="text5540_5_" fill="#FFFFFF" stroke="#FFFFFF" stroke-width="0.7193" stroke-miterlimit="10" d="M437.793,746.517
					h-2.614c0.38-1.785,0.57-3.401,0.57-4.849v-17.256c0-1.796,0.159-3.132,0.476-4.01c0.327-0.876,0.956-1.647,1.886-2.313
					c0.94-0.677,2.112-1.015,3.518-1.015c1.669,0,3.069,0.443,4.199,1.331c1.141,0.877,1.712,2.129,1.712,3.756
					c0,1.901-0.904,3.459-2.711,4.674c2.694,1.268,4.041,3.259,4.041,5.975c0,1.479-0.359,2.805-1.077,3.977
					c-0.708,1.162-1.532,1.992-2.472,2.488c-0.93,0.496-2.045,0.744-3.344,0.744c-1.479,0-2.684-0.554-3.613-1.663v2.947
					C438.363,743.332,438.174,745.07,437.793,746.517 M438.363,736.93c0.824,1.363,1.977,2.045,3.455,2.045
					c1.426,0,2.472-0.518,3.137-1.554c0.666-1.046,0.998-2.313,0.998-3.803c0-1.141-0.221-2.303-0.665-3.486
					c-0.433-1.193-0.993-2.102-1.679-2.726c-0.635,0.159-1.205,0.238-1.712,0.238c-1.067,0-1.601-0.28-1.601-0.84
					c0-0.507,0.449-0.761,1.348-0.761c0.559,0,1.256,0.127,2.091,0.38c0.75-1.268,1.125-2.646,1.125-4.136
					c0-1.331-0.296-2.35-0.888-3.058c-0.58-0.708-1.342-1.062-2.281-1.062c-0.75,0-1.395,0.211-1.934,0.634
					c-0.527,0.422-0.893,0.93-1.093,1.521c-0.201,0.58-0.302,1.536-0.302,2.867V736.93"/>
			</g>
		</g>
	</g>
</g>
<g>
	<g>
		
			<rect x="291.616" y="123.009" fill="#181718" stroke="#010101" stroke-width="3" stroke-miterlimit="10" width="34" height="22.667"/>
		<g>
			
				<rect x="309.902" y="254.85" fill="#1BA84A" stroke="#186937" stroke-width="3" stroke-miterlimit="10" width="13.428" height="19.182"/>
			<g>
				<g>
					<path fill="none" stroke="#1BA84A" stroke-width="2" stroke-miterlimit="10" d="M326.172,284.363
						c-5.281,5.281-13.83,5.281-19.111,0"/>
					<path fill="none" stroke="#1BA84A" stroke-width="2" stroke-miterlimit="10" d="M323.674,281.863
						c-3.9,3.899-10.215,3.899-14.115,0"/>
					<path fill="none" stroke="#1BA84A" stroke-width="2" stroke-miterlimit="10" d="M320.746,279.172
						c-2.281,2.283-5.979,2.283-8.262,0"/>
				</g>
			</g>
		</g>
		<line fill="none" stroke="#6E1C46" stroke-width="5" stroke-miterlimit="10" x1="276.386" y1="125.721" x2="276.386" y2="0"/>
		
			<rect x="269.671" y="126.494" fill="#6E1C46" stroke="#541639" stroke-width="3" stroke-miterlimit="10" width="13.43" height="19.182"/>
		<line fill="none" stroke="#EA2A2D" stroke-width="5" stroke-miterlimit="10" x1="283.386" y1="400" x2="283.386" y2="274.279"/>
		
			<rect x="276.671" y="254.324" fill="#EA2A2D" stroke="#A61E2C" stroke-width="3" stroke-miterlimit="10" width="13.43" height="19.182"/>
		
			<rect x="261.636" y="148.501" fill="none" stroke="#541538" stroke-width="5" stroke-miterlimit="10" width="76.729" height="104.349"/>
		<line fill="none" stroke="#6E1C45" stroke-width="5" stroke-miterlimit="10" x1="257.8" y1="145.817" x2="342.199" y2="145.817"/>
		<line fill="none" stroke="#6E1C45" stroke-width="5" stroke-miterlimit="10" x1="257.8" y1="255.535" x2="342.199" y2="255.535"/>
	</g>
	<polygon fill="#010101" points="323.902,214.386 300,228.772 276.097,214.386 276.097,185.614 300,171.228 323.902,185.614 	"/>
	<g>
		<g id="layer1_10_" transform="translate(-256.6798,-531.7963)">
			<path id="text5540_10_" fill="#6E1944" stroke="#6E1944" stroke-width="0.7193" stroke-miterlimit="10" d="M547.104,746.517
				h-2.614c0.38-1.785,0.57-3.401,0.57-4.849v-17.256c0-1.796,0.158-3.132,0.475-4.01c0.328-0.876,0.957-1.647,1.887-2.313
				c0.939-0.677,2.112-1.015,3.518-1.015c1.669,0,3.068,0.443,4.199,1.331c1.141,0.877,1.711,2.129,1.711,3.756
				c0,1.901-0.903,3.459-2.71,4.674c2.694,1.268,4.041,3.259,4.041,5.975c0,1.479-0.359,2.805-1.077,3.977
				c-0.709,1.162-1.532,1.992-2.473,2.488c-0.93,0.496-2.044,0.744-3.344,0.744c-1.479,0-2.683-0.554-3.612-1.663v2.947
				C547.674,743.332,547.484,745.07,547.104,746.517 M547.674,736.93c0.824,1.363,1.976,2.045,3.454,2.045
				c1.426,0,2.473-0.518,3.138-1.554c0.665-1.046,0.998-2.313,0.998-3.803c0-1.141-0.222-2.303-0.665-3.486
				c-0.434-1.193-0.993-2.102-1.68-2.726c-0.634,0.159-1.205,0.238-1.711,0.238c-1.067,0-1.602-0.28-1.602-0.84
				c0-0.507,0.449-0.761,1.348-0.761c0.56,0,1.257,0.127,2.092,0.38c0.75-1.268,1.125-2.646,1.125-4.136
				c0-1.331-0.297-2.35-0.888-3.058c-0.581-0.708-1.342-1.062-2.282-1.062c-0.75,0-1.395,0.211-1.933,0.634
				c-0.528,0.422-0.893,0.93-1.093,1.521c-0.201,0.58-0.302,1.536-0.302,2.867V736.93"/>
		</g>
		<g id="layer1_4_" transform="translate(-256.6798,-531.7963)">
			<path id="text5540_4_" fill="#8D2964" stroke="#8D2964" stroke-width="0.7193" stroke-miterlimit="10" d="M549.776,746.517
				h-2.614c0.381-1.785,0.57-3.401,0.57-4.849v-17.256c0-1.796,0.158-3.132,0.476-4.01c0.327-0.876,0.956-1.647,1.886-2.313
				c0.939-0.677,2.113-1.015,3.518-1.015c1.669,0,3.068,0.443,4.2,1.331c1.141,0.877,1.711,2.129,1.711,3.756
				c0,1.901-0.904,3.459-2.709,4.674c2.694,1.268,4.04,3.259,4.04,5.975c0,1.479-0.357,2.805-1.076,3.977
				c-0.709,1.162-1.531,1.992-2.473,2.488c-0.93,0.496-2.043,0.744-3.343,0.744c-1.479,0-2.683-0.554-3.612-1.663v2.947
				C550.347,743.332,550.156,745.07,549.776,746.517 M550.347,736.93c0.823,1.363,1.975,2.045,3.453,2.045
				c1.427,0,2.473-0.518,3.139-1.554c0.664-1.046,0.999-2.313,0.999-3.803c0-1.141-0.223-2.303-0.667-3.486
				c-0.434-1.193-0.992-2.102-1.68-2.726c-0.634,0.159-1.204,0.238-1.711,0.238c-1.066,0-1.601-0.28-1.601-0.84
				c0-0.507,0.449-0.761,1.347-0.761c0.561,0,1.258,0.127,2.092,0.38c0.75-1.268,1.125-2.646,1.125-4.136
				c0-1.331-0.296-2.35-0.887-3.058c-0.582-0.708-1.342-1.062-2.282-1.062c-0.75,0-1.395,0.211-1.934,0.634
				c-0.528,0.422-0.892,0.93-1.093,1.521c-0.201,0.58-0.301,1.536-0.301,2.867V736.93"/>
		</g>
		<g id="layer1_3_" transform="translate(-256.6798,-531.7963)">
			<path id="text5540_3_" fill="#C05F94" stroke="#C05F94" stroke-width="0.7193" stroke-miterlimit="10" d="M552.449,746.517
				h-2.615c0.381-1.785,0.57-3.401,0.57-4.849v-17.256c0-1.796,0.158-3.132,0.477-4.01c0.326-0.876,0.955-1.647,1.885-2.313
				c0.94-0.677,2.113-1.015,3.518-1.015c1.668,0,3.069,0.443,4.2,1.331c1.141,0.877,1.711,2.129,1.711,3.756
				c0,1.901-0.902,3.459-2.709,4.674c2.693,1.268,4.041,3.259,4.041,5.975c0,1.479-0.359,2.805-1.078,3.977
				c-0.707,1.162-1.531,1.992-2.473,2.488c-0.93,0.496-2.043,0.744-3.343,0.744c-1.479,0-2.683-0.554-3.612-1.663v2.947
				C553.019,743.332,552.829,745.07,552.449,746.517 M553.019,736.93c0.824,1.363,1.975,2.045,3.454,2.045
				c1.425,0,2.472-0.518,3.138-1.554c0.666-1.046,0.998-2.313,0.998-3.803c0-1.141-0.223-2.303-0.666-3.486
				c-0.434-1.193-0.992-2.102-1.68-2.726c-0.633,0.159-1.204,0.238-1.711,0.238c-1.066,0-1.601-0.28-1.601-0.84
				c0-0.507,0.449-0.761,1.347-0.761c0.561,0,1.258,0.127,2.092,0.38c0.75-1.268,1.125-2.646,1.125-4.136
				c0-1.331-0.295-2.35-0.887-3.058c-0.582-0.708-1.342-1.062-2.283-1.062c-0.749,0-1.395,0.211-1.933,0.634
				c-0.528,0.422-0.893,0.93-1.094,1.521c-0.201,0.58-0.301,1.536-0.301,2.867V736.93"/>
		</g>
		<g id="layer1_2_" transform="translate(-256.6798,-531.7963)">
			<path id="text5540_2_" fill="#D381B2" stroke="#D381B2" stroke-width="0.7193" stroke-miterlimit="10" d="M554.998,746.517
				h-2.615c0.381-1.785,0.57-3.401,0.57-4.849v-17.256c0-1.796,0.158-3.132,0.476-4.01c0.327-0.876,0.956-1.647,1.886-2.313
				c0.94-0.677,2.113-1.015,3.518-1.015c1.67,0,3.068,0.443,4.199,1.331c1.141,0.877,1.711,2.129,1.711,3.756
				c0,1.901-0.902,3.459-2.709,4.674c2.693,1.268,4.041,3.259,4.041,5.975c0,1.479-0.359,2.805-1.078,3.977
				c-0.707,1.162-1.531,1.992-2.473,2.488c-0.93,0.496-2.043,0.744-3.344,0.744c-1.479,0-2.682-0.554-3.612-1.663v2.947
				C555.568,743.332,555.378,745.07,554.998,746.517 M555.568,736.93c0.824,1.363,1.975,2.045,3.454,2.045
				c1.428,0,2.473-0.518,3.139-1.554c0.664-1.046,0.998-2.313,0.998-3.803c0-1.141-0.223-2.303-0.666-3.486
				c-0.434-1.193-0.992-2.102-1.68-2.726c-0.633,0.159-1.203,0.238-1.711,0.238c-1.066,0-1.6-0.28-1.6-0.84
				c0-0.507,0.448-0.761,1.346-0.761c0.561,0,1.258,0.127,2.092,0.38c0.75-1.268,1.125-2.646,1.125-4.136
				c0-1.331-0.295-2.35-0.887-3.058c-0.582-0.708-1.342-1.062-2.283-1.062c-0.75,0-1.393,0.211-1.932,0.634
				c-0.528,0.422-0.893,0.93-1.094,1.521c-0.201,0.58-0.301,1.536-0.301,2.867V736.93"/>
		</g>
		<g id="layer1_1_" transform="translate(-256.6798,-531.7963)">
			<path id="text5540_1_" fill="#FFFFFF" stroke="#FFFFFF" stroke-width="0.7193" stroke-miterlimit="10" d="M557.793,746.517
				h-2.615c0.38-1.785,0.57-3.401,0.57-4.849v-17.256c0-1.796,0.159-3.132,0.476-4.01c0.327-0.876,0.956-1.647,1.885-2.313
				c0.941-0.677,2.113-1.015,3.518-1.015c1.67,0,3.07,0.443,4.199,1.331c1.141,0.877,1.713,2.129,1.713,3.756
				c0,1.901-0.904,3.459-2.711,4.674c2.693,1.268,4.041,3.259,4.041,5.975c0,1.479-0.359,2.805-1.078,3.977
				c-0.707,1.162-1.531,1.992-2.471,2.488c-0.93,0.496-2.045,0.744-3.344,0.744c-1.479,0-2.684-0.554-3.613-1.663v2.947
				C558.363,743.332,558.174,745.07,557.793,746.517 M558.363,736.93c0.824,1.363,1.977,2.045,3.455,2.045
				c1.426,0,2.471-0.518,3.137-1.554c0.666-1.046,0.998-2.313,0.998-3.803c0-1.141-0.221-2.303-0.666-3.486
				c-0.432-1.193-0.992-2.102-1.678-2.726c-0.635,0.159-1.205,0.238-1.713,0.238c-1.066,0-1.6-0.28-1.6-0.84
				c0-0.507,0.449-0.761,1.348-0.761c0.559,0,1.256,0.127,2.09,0.38c0.75-1.268,1.125-2.646,1.125-4.136
				c0-1.331-0.295-2.35-0.887-3.058c-0.58-0.708-1.342-1.062-2.281-1.062c-0.75,0-1.395,0.211-1.934,0.634
				c-0.527,0.422-0.893,0.93-1.094,1.521c-0.201,0.58-0.301,1.536-0.301,2.867V736.93"/>
		</g>
	</g>
</g>
<g>
	<line fill="none" stroke="#E0DB26" stroke-width="5" stroke-miterlimit="10" x1="474.948" y1="184.533" x2="717" y2="184.533"/>
	
		<rect x="454.993" y="177.82" fill="#E0DB26" stroke="#7F7D31" stroke-width="3" stroke-miterlimit="10" width="19.182" height="13.429"/>
	<line fill="none" stroke="#181718" stroke-width="5" stroke-miterlimit="10" x1="474.948" y1="214.533" x2="717" y2="214.533"/>
	
		<rect x="454.993" y="207.82" fill="#181718" stroke="#010101" stroke-width="3" stroke-miterlimit="10" width="19.182" height="13.428"/>
	<g>
		<g>
			
				<rect x="408.616" y="123.009" fill="#181718" stroke="#010101" stroke-width="3" stroke-miterlimit="10" width="34" height="22.667"/>
			<g>
				
					<rect x="426.902" y="254.85" fill="#1BA84A" stroke="#186937" stroke-width="3" stroke-miterlimit="10" width="13.429" height="19.182"/>
				<g>
					<g>
						<path fill="none" stroke="#1BA84A" stroke-width="2" stroke-miterlimit="10" d="M443.173,284.363
							c-5.282,5.281-13.831,5.281-19.112,0"/>
						<path fill="none" stroke="#1BA84A" stroke-width="2" stroke-miterlimit="10" d="M440.674,281.863
							c-3.9,3.899-10.214,3.899-14.115,0"/>
						<path fill="none" stroke="#1BA84A" stroke-width="2" stroke-miterlimit="10" d="M437.747,279.172
							c-2.282,2.283-5.979,2.283-8.263,0"/>
					</g>
				</g>
			</g>
			<line fill="none" stroke="#6E1C46" stroke-width="5" stroke-miterlimit="10" x1="393.387" y1="125.721" x2="393.387" y2="0"/>
			
				<rect x="386.672" y="126.494" fill="#6E1C46" stroke="#541639" stroke-width="3" stroke-miterlimit="10" width="13.43" height="19.182"/>
			<line fill="none" stroke="#EA2A2D" stroke-width="5" stroke-miterlimit="10" x1="400.387" y1="400" x2="400.387" y2="274.279"/>
			
				<rect x="393.672" y="254.324" fill="#EA2A2D" stroke="#A61E2C" stroke-width="3" stroke-miterlimit="10" width="13.43" height="19.182"/>
			
				<rect x="378.637" y="148.501" fill="none" stroke="#541538" stroke-width="5" stroke-miterlimit="10" width="76.729" height="104.349"/>
			
				<line fill="none" stroke="#6E1C45" stroke-width="5" stroke-miterlimit="10" x1="374.801" y1="145.817" x2="459.2" y2="145.817"/>
			
				<line fill="none" stroke="#6E1C45" stroke-width="5" stroke-miterlimit="10" x1="374.801" y1="255.535" x2="459.2" y2="255.535"/>
		</g>
		<polygon fill="#010101" points="440.902,214.386 417,228.772 393.098,214.386 393.098,185.614 417,171.228 440.902,185.614 		"/>
		<g>
			<g id="layer1_15_" transform="translate(-256.6798,-531.7963)">
				<path id="text5540_15_" fill="#6E1944" stroke="#6E1944" stroke-width="0.7193" stroke-miterlimit="10" d="M664.105,746.517
					h-2.614c0.38-1.785,0.57-3.401,0.57-4.849v-17.256c0-1.796,0.158-3.132,0.475-4.01c0.328-0.876,0.957-1.647,1.887-2.313
					c0.939-0.677,2.112-1.015,3.518-1.015c1.669,0,3.068,0.443,4.199,1.331c1.141,0.877,1.711,2.129,1.711,3.756
					c0,1.901-0.903,3.459-2.71,4.674c2.694,1.268,4.041,3.259,4.041,5.975c0,1.479-0.359,2.805-1.077,3.977
					c-0.709,1.162-1.532,1.992-2.473,2.488c-0.93,0.496-2.044,0.744-3.344,0.744c-1.479,0-2.683-0.554-3.612-1.663v2.947
					C664.675,743.332,664.484,745.07,664.105,746.517 M664.675,736.93c0.824,1.363,1.976,2.045,3.454,2.045
					c1.426,0,2.473-0.518,3.138-1.554c0.665-1.046,0.998-2.313,0.998-3.803c0-1.141-0.222-2.303-0.665-3.486
					c-0.434-1.193-0.993-2.102-1.68-2.726c-0.634,0.159-1.205,0.238-1.711,0.238c-1.067,0-1.602-0.28-1.602-0.84
					c0-0.507,0.449-0.761,1.348-0.761c0.56,0,1.257,0.127,2.092,0.38c0.75-1.268,1.125-2.646,1.125-4.136
					c0-1.331-0.297-2.35-0.888-3.058c-0.581-0.708-1.342-1.062-2.282-1.062c-0.75,0-1.395,0.211-1.933,0.634
					c-0.528,0.422-0.893,0.93-1.093,1.521c-0.201,0.58-0.302,1.536-0.302,2.867V736.93"/>
			</g>
			<g id="layer1_14_" transform="translate(-256.6798,-531.7963)">
				<path id="text5540_14_" fill="#8D2964" stroke="#8D2964" stroke-width="0.7193" stroke-miterlimit="10" d="M666.776,746.517
					h-2.614c0.381-1.785,0.57-3.401,0.57-4.849v-17.256c0-1.796,0.158-3.132,0.476-4.01c0.327-0.876,0.956-1.647,1.886-2.313
					c0.939-0.677,2.113-1.015,3.518-1.015c1.669,0,3.068,0.443,4.199,1.331c1.141,0.877,1.711,2.129,1.711,3.756
					c0,1.901-0.903,3.459-2.709,4.674c2.693,1.268,4.04,3.259,4.04,5.975c0,1.479-0.358,2.805-1.077,3.977
					c-0.708,1.162-1.531,1.992-2.473,2.488c-0.93,0.496-2.043,0.744-3.343,0.744c-1.479,0-2.683-0.554-3.612-1.663v2.947
					C667.348,743.332,667.156,745.07,666.776,746.517 M667.348,736.93c0.823,1.363,1.975,2.045,3.453,2.045
					c1.427,0,2.473-0.518,3.139-1.554c0.664-1.046,0.998-2.313,0.998-3.803c0-1.141-0.223-2.303-0.666-3.486
					c-0.434-1.193-0.992-2.102-1.68-2.726c-0.634,0.159-1.204,0.238-1.711,0.238c-1.066,0-1.601-0.28-1.601-0.84
					c0-0.507,0.449-0.761,1.347-0.761c0.561,0,1.258,0.127,2.092,0.38c0.75-1.268,1.125-2.646,1.125-4.136
					c0-1.331-0.296-2.35-0.887-3.058c-0.582-0.708-1.342-1.062-2.282-1.062c-0.75,0-1.395,0.211-1.934,0.634
					c-0.528,0.422-0.892,0.93-1.093,1.521c-0.201,0.58-0.301,1.536-0.301,2.867V736.93"/>
			</g>
			<g id="layer1_13_" transform="translate(-256.6798,-531.7963)">
				<path id="text5540_13_" fill="#C05F94" stroke="#C05F94" stroke-width="0.7193" stroke-miterlimit="10" d="M669.449,746.517
					h-2.615c0.381-1.785,0.57-3.401,0.57-4.849v-17.256c0-1.796,0.158-3.132,0.477-4.01c0.326-0.876,0.955-1.647,1.885-2.313
					c0.94-0.677,2.113-1.015,3.518-1.015c1.669,0,3.068,0.443,4.199,1.331c1.141,0.877,1.711,2.129,1.711,3.756
					c0,1.901-0.902,3.459-2.709,4.674c2.693,1.268,4.041,3.259,4.041,5.975c0,1.479-0.359,2.805-1.078,3.977
					c-0.707,1.162-1.531,1.992-2.472,2.488c-0.93,0.496-2.044,0.744-3.344,0.744c-1.479,0-2.683-0.554-3.612-1.663v2.947
					C670.02,743.332,669.829,745.07,669.449,746.517 M670.02,736.93c0.824,1.363,1.975,2.045,3.454,2.045
					c1.426,0,2.472-0.518,3.138-1.554c0.666-1.046,0.998-2.313,0.998-3.803c0-1.141-0.223-2.303-0.666-3.486
					c-0.433-1.193-0.992-2.102-1.68-2.726c-0.633,0.159-1.203,0.238-1.711,0.238c-1.066,0-1.601-0.28-1.601-0.84
					c0-0.507,0.449-0.761,1.347-0.761c0.561,0,1.258,0.127,2.092,0.38c0.75-1.268,1.125-2.646,1.125-4.136
					c0-1.331-0.295-2.35-0.887-3.058c-0.581-0.708-1.342-1.062-2.282-1.062c-0.749,0-1.395,0.211-1.933,0.634
					c-0.528,0.422-0.893,0.93-1.094,1.521c-0.201,0.58-0.301,1.536-0.301,2.867V736.93"/>
			</g>
			<g id="layer1_12_" transform="translate(-256.6798,-531.7963)">
				<path id="text5540_12_" fill="#D381B2" stroke="#D381B2" stroke-width="0.7193" stroke-miterlimit="10" d="M671.998,746.517
					h-2.615c0.381-1.785,0.57-3.401,0.57-4.849v-17.256c0-1.796,0.158-3.132,0.476-4.01c0.327-0.876,0.956-1.647,1.886-2.313
					c0.94-0.677,2.113-1.015,3.518-1.015c1.67,0,3.069,0.443,4.199,1.331c1.141,0.877,1.711,2.129,1.711,3.756
					c0,1.901-0.902,3.459-2.709,4.674c2.693,1.268,4.041,3.259,4.041,5.975c0,1.479-0.359,2.805-1.078,3.977
					c-0.707,1.162-1.531,1.992-2.472,2.488c-0.93,0.496-2.044,0.744-3.344,0.744c-1.479,0-2.683-0.554-3.612-1.663v2.947
					C672.568,743.332,672.378,745.07,671.998,746.517 M672.568,736.93c0.824,1.363,1.975,2.045,3.454,2.045
					c1.427,0,2.472-0.518,3.138-1.554c0.665-1.046,0.998-2.313,0.998-3.803c0-1.141-0.222-2.303-0.666-3.486
					c-0.433-1.193-0.992-2.102-1.68-2.726c-0.633,0.159-1.203,0.238-1.711,0.238c-1.066,0-1.6-0.28-1.6-0.84
					c0-0.507,0.448-0.761,1.346-0.761c0.561,0,1.258,0.127,2.092,0.38c0.75-1.268,1.125-2.646,1.125-4.136
					c0-1.331-0.295-2.35-0.887-3.058c-0.582-0.708-1.342-1.062-2.282-1.062c-0.75,0-1.394,0.211-1.933,0.634
					c-0.528,0.422-0.893,0.93-1.094,1.521c-0.201,0.58-0.301,1.536-0.301,2.867V736.93"/>
			</g>
			<g id="layer1_11_" transform="translate(-256.6798,-531.7963)">
				<path id="text5540_11_" fill="#FFFFFF" stroke="#FFFFFF" stroke-width="0.7193" stroke-miterlimit="10" d="M674.793,746.517
					h-2.614c0.38-1.785,0.57-3.401,0.57-4.849v-17.256c0-1.796,0.159-3.132,0.476-4.01c0.327-0.876,0.956-1.647,1.886-2.313
					c0.94-0.677,2.112-1.015,3.518-1.015c1.669,0,3.069,0.443,4.199,1.331c1.141,0.877,1.712,2.129,1.712,3.756
					c0,1.901-0.904,3.459-2.711,4.674c2.694,1.268,4.041,3.259,4.041,5.975c0,1.479-0.359,2.805-1.077,3.977
					c-0.708,1.162-1.532,1.992-2.472,2.488c-0.93,0.496-2.045,0.744-3.344,0.744c-1.479,0-2.684-0.554-3.613-1.663v2.947
					C675.363,743.332,675.174,745.07,674.793,746.517 M675.363,736.93c0.824,1.363,1.977,2.045,3.455,2.045
					c1.426,0,2.472-0.518,3.137-1.554c0.666-1.046,0.998-2.313,0.998-3.803c0-1.141-0.221-2.303-0.665-3.486
					c-0.433-1.193-0.993-2.102-1.679-2.726c-0.635,0.159-1.205,0.238-1.712,0.238c-1.067,0-1.601-0.28-1.601-0.84
					c0-0.507,0.449-0.761,1.348-0.761c0.559,0,1.256,0.127,2.091,0.38c0.75-1.268,1.125-2.646,1.125-4.136
					c0-1.331-0.296-2.35-0.888-3.058c-0.58-0.708-1.342-1.062-2.281-1.062c-0.75,0-1.395,0.211-1.934,0.634
					c-0.527,0.422-0.893,0.93-1.093,1.521c-0.201,0.58-0.302,1.536-0.302,2.867V736.93"/>
			</g>
		</g>
	</g>
</g>
</svg>
