<?xml version="1.0" encoding="utf-8"?>
<!-- Generator: Adobe Illustrator 16.0.0, SVG Export Plug-In . SVG Version: 6.00 Build 0)  -->
<!DOCTYPE svg PUBLIC "-//W3C//DTD SVG 1.1//EN" "http://www.w3.org/Graphics/SVG/1.1/DTD/svg11.dtd">
<svg version="1.1" id="Layer_1" xmlns="http://www.w3.org/2000/svg" xmlns:xlink="http://www.w3.org/1999/xlink" x="0px" y="0px"
	 width="600px" height="400px" viewBox="0 0 600 400" enable-background="new 0 0 600 400" xml:space="preserve">
<g>
	<g>
		<rect x="238.288" y="134.833" fill="none" width="319" height="129"/>
		<path d="M256.72,139.633c6.613,0,11.69,1.163,15.232,3.488c3.541,2.326,5.312,6.134,5.312,11.424
			c0,5.334-1.792,9.184-5.376,11.552c-3.584,2.368-8.704,3.552-15.36,3.552h-3.136v14.848h-9.984v-43.712
			c2.176-0.426,4.48-0.725,6.912-0.896C252.752,139.719,254.885,139.633,256.72,139.633z M257.36,148.144
			c-0.726,0-1.44,0.022-2.144,0.064c-0.704,0.043-1.312,0.086-1.824,0.128v12.8h3.136c3.456,0,6.058-0.469,7.808-1.408
			c1.749-0.938,2.624-2.688,2.624-5.248c0-1.237-0.224-2.261-0.672-3.072c-0.448-0.81-1.088-1.461-1.92-1.952
			c-0.832-0.49-1.846-0.832-3.04-1.024C260.133,148.24,258.81,148.144,257.36,148.144z"/>
		<path d="M304.271,159.281c-0.854-0.213-1.855-0.437-3.008-0.672c-1.152-0.234-2.39-0.352-3.712-0.352
			c-0.598,0-1.312,0.054-2.144,0.16c-0.832,0.107-1.462,0.224-1.888,0.352v25.728h-9.536v-31.872
			c1.706-0.597,3.722-1.162,6.048-1.696c2.325-0.533,4.917-0.8,7.776-0.8c0.512,0,1.13,0.032,1.856,0.096
			c0.725,0.064,1.449,0.15,2.176,0.256c0.725,0.107,1.45,0.235,2.176,0.384c0.725,0.15,1.344,0.331,1.856,0.544L304.271,159.281z"/>
		<path d="M341.84,167.6c0,2.646-0.384,5.067-1.151,7.264c-0.769,2.198-1.878,4.075-3.328,5.632
			c-1.451,1.558-3.19,2.763-5.216,3.616c-2.027,0.853-4.3,1.28-6.816,1.28c-2.475,0-4.726-0.427-6.752-1.28
			c-2.027-0.853-3.766-2.058-5.217-3.616c-1.45-1.557-2.582-3.434-3.391-5.632c-0.812-2.197-1.217-4.618-1.217-7.264
			c0-2.645,0.416-5.056,1.248-7.232c0.832-2.176,1.984-4.032,3.456-5.568c1.472-1.536,3.221-2.73,5.248-3.584
			c2.026-0.853,4.234-1.28,6.624-1.28c2.432,0,4.661,0.427,6.688,1.28c2.026,0.854,3.766,2.048,5.217,3.584
			c1.449,1.536,2.581,3.392,3.392,5.568C341.434,162.544,341.84,164.955,341.84,167.6z M332.112,167.6
			c0-2.944-0.587-5.258-1.76-6.944c-1.175-1.685-2.849-2.528-5.024-2.528s-3.862,0.843-5.056,2.528
			c-1.195,1.686-1.792,4-1.792,6.944s0.597,5.28,1.792,7.008c1.193,1.728,2.88,2.592,5.056,2.592s3.85-0.864,5.024-2.592
			C331.525,172.88,332.112,170.544,332.112,167.6z"/>
		<path d="M378.256,180.272c0,5.504-1.398,9.589-4.192,12.256c-2.795,2.666-7.115,4-12.96,4c-2.048,0-4.096-0.182-6.144-0.544
			c-2.048-0.363-3.947-0.843-5.696-1.44l1.664-8c1.493,0.597,3.061,1.066,4.704,1.408c1.642,0.341,3.509,0.512,5.6,0.512
			c2.73,0,4.661-0.598,5.792-1.792c1.13-1.195,1.696-2.73,1.696-4.608v-1.216c-1.024,0.47-2.08,0.822-3.168,1.056
			c-1.088,0.235-2.272,0.352-3.552,0.352c-4.651,0-8.214-1.376-10.688-4.128s-3.712-6.602-3.712-11.552
			c0-2.474,0.384-4.725,1.152-6.752c0.768-2.026,1.888-3.765,3.359-5.216c1.473-1.45,3.274-2.57,5.408-3.36
			c2.133-0.789,4.544-1.184,7.232-1.184c1.151,0,2.336,0.054,3.552,0.16c1.216,0.107,2.421,0.246,3.616,0.416
			c1.193,0.171,2.336,0.374,3.424,0.608c1.088,0.235,2.058,0.48,2.912,0.736V180.272z M357.328,166.576c0,5.334,2.153,8,6.464,8
			c0.98,0,1.897-0.128,2.752-0.384c0.853-0.256,1.578-0.554,2.176-0.896v-15.232c-0.47-0.085-1.024-0.16-1.664-0.224
			c-0.64-0.064-1.387-0.096-2.24-0.096c-2.518,0-4.395,0.832-5.632,2.496C357.945,161.905,357.328,164.016,357.328,166.576z"/>
		<path d="M407.503,159.281c-0.854-0.213-1.855-0.437-3.008-0.672c-1.151-0.234-2.39-0.352-3.712-0.352
			c-0.598,0-1.312,0.054-2.144,0.16c-0.832,0.107-1.462,0.224-1.889,0.352v25.728h-9.535v-31.872
			c1.705-0.597,3.722-1.162,6.048-1.696c2.324-0.533,4.917-0.8,7.775-0.8c0.513,0,1.13,0.032,1.856,0.096
			c0.725,0.064,1.45,0.15,2.176,0.256c0.725,0.107,1.45,0.235,2.176,0.384c0.726,0.15,1.345,0.331,1.856,0.544L407.503,159.281z"/>
		<path d="M425.68,149.936c2.815,0,5.162,0.32,7.04,0.96c1.877,0.64,3.381,1.558,4.512,2.752c1.13,1.195,1.93,2.646,2.4,4.352
			c0.469,1.707,0.704,3.606,0.704,5.696v19.84c-1.366,0.299-3.265,0.651-5.696,1.056c-2.433,0.405-5.376,0.608-8.832,0.608
			c-2.176,0-4.15-0.192-5.92-0.576c-1.771-0.384-3.296-1.013-4.576-1.888c-1.28-0.874-2.262-2.016-2.944-3.424
			c-0.683-1.408-1.023-3.136-1.023-5.184c0-1.962,0.394-3.626,1.184-4.992c0.789-1.365,1.845-2.453,3.168-3.264
			c1.322-0.81,2.837-1.397,4.544-1.76c1.706-0.362,3.478-0.544,5.313-0.544c1.236,0,2.336,0.054,3.296,0.16
			c0.96,0.107,1.738,0.246,2.336,0.416v-0.896c0-1.621-0.491-2.922-1.472-3.904c-0.982-0.981-2.688-1.472-5.12-1.472
			c-1.622,0-3.223,0.118-4.8,0.352c-1.579,0.235-2.944,0.566-4.097,0.992l-1.216-7.68c0.554-0.17,1.248-0.352,2.08-0.544
			s1.738-0.362,2.72-0.512c0.981-0.149,2.017-0.277,3.104-0.384C423.472,149.99,424.569,149.936,425.68,149.936z M426.447,177.841
			c0.938,0,1.834-0.021,2.688-0.064c0.853-0.042,1.536-0.106,2.048-0.192v-7.232c-0.384-0.085-0.96-0.17-1.729-0.256
			c-0.768-0.085-1.472-0.128-2.111-0.128c-0.896,0-1.739,0.054-2.528,0.16c-0.79,0.107-1.483,0.31-2.08,0.608
			c-0.598,0.299-1.066,0.704-1.408,1.216c-0.342,0.512-0.512,1.152-0.512,1.92c0,1.494,0.501,2.528,1.504,3.104
			C423.321,177.552,424.697,177.841,426.447,177.841z"/>
		<path d="M467.471,166.64c0-3.072-0.395-5.248-1.184-6.528c-0.79-1.28-2.144-1.92-4.064-1.92c-0.598,0-1.216,0.032-1.855,0.096
			s-1.259,0.139-1.856,0.224v25.984h-9.535v-32.512c0.81-0.213,1.76-0.437,2.848-0.672c1.088-0.234,2.24-0.448,3.456-0.64
			c1.216-0.192,2.464-0.341,3.744-0.448c1.279-0.106,2.538-0.16,3.775-0.16c2.433,0,4.405,0.31,5.92,0.928
			c1.515,0.619,2.763,1.355,3.744,2.208c1.365-0.981,2.934-1.749,4.704-2.304c1.771-0.554,3.402-0.832,4.896-0.832
			c2.688,0,4.896,0.374,6.624,1.12c1.728,0.747,3.104,1.803,4.128,3.168c1.023,1.366,1.728,2.987,2.111,4.864
			c0.385,1.878,0.576,3.968,0.576,6.272v19.008h-9.536V166.64c0-3.072-0.395-5.248-1.184-6.528c-0.79-1.28-2.145-1.92-4.064-1.92
			c-0.512,0-1.227,0.128-2.144,0.384c-0.918,0.256-1.675,0.576-2.272,0.96c0.299,0.982,0.49,2.016,0.576,3.104
			c0.085,1.088,0.128,2.251,0.128,3.488v18.368h-9.536V166.64z"/>
		<path d="M516.239,149.936c2.815,0,5.162,0.32,7.04,0.96c1.877,0.64,3.381,1.558,4.512,2.752c1.13,1.195,1.93,2.646,2.4,4.352
			c0.469,1.707,0.704,3.606,0.704,5.696v19.84c-1.366,0.299-3.265,0.651-5.696,1.056c-2.433,0.405-5.376,0.608-8.832,0.608
			c-2.176,0-4.15-0.192-5.92-0.576c-1.771-0.384-3.296-1.013-4.576-1.888c-1.28-0.874-2.262-2.016-2.944-3.424
			c-0.683-1.408-1.023-3.136-1.023-5.184c0-1.962,0.394-3.626,1.184-4.992c0.789-1.365,1.845-2.453,3.168-3.264
			c1.322-0.81,2.837-1.397,4.544-1.76c1.706-0.362,3.478-0.544,5.313-0.544c1.236,0,2.336,0.054,3.296,0.16
			c0.96,0.107,1.738,0.246,2.336,0.416v-0.896c0-1.621-0.491-2.922-1.472-3.904c-0.982-0.981-2.688-1.472-5.12-1.472
			c-1.622,0-3.223,0.118-4.8,0.352c-1.579,0.235-2.944,0.566-4.097,0.992l-1.216-7.68c0.554-0.17,1.248-0.352,2.08-0.544
			s1.738-0.362,2.72-0.512c0.981-0.149,2.017-0.277,3.104-0.384C514.031,149.99,515.129,149.936,516.239,149.936z M517.007,177.841
			c0.938,0,1.834-0.021,2.688-0.064c0.853-0.042,1.536-0.106,2.048-0.192v-7.232c-0.384-0.085-0.96-0.17-1.729-0.256
			c-0.768-0.085-1.472-0.128-2.111-0.128c-0.896,0-1.739,0.054-2.528,0.16c-0.79,0.107-1.483,0.31-2.08,0.608
			c-0.598,0.299-1.066,0.704-1.408,1.216c-0.342,0.512-0.512,1.152-0.512,1.92c0,1.494,0.501,2.528,1.504,3.104
			C513.881,177.552,515.257,177.841,517.007,177.841z"/>
		<path d="M270.16,216.944h9.984v44.353h-9.984v-18.815h-16.768v18.815h-9.984v-44.353h9.984v16.961h16.768V216.944z"/>
		<path d="M307.728,262.192c-3.114,0-5.803-0.438-8.064-1.312c-2.262-0.874-4.128-2.09-5.6-3.647
			c-1.472-1.558-2.56-3.414-3.264-5.568s-1.056-4.533-1.056-7.137v-27.584h9.984v26.752c0,1.793,0.202,3.318,0.608,4.576
			c0.405,1.26,0.96,2.283,1.665,3.072c0.703,0.79,1.557,1.355,2.56,1.696c1.002,0.342,2.101,0.512,3.296,0.512
			c2.432,0,4.405-0.746,5.92-2.239c1.515-1.494,2.272-4.033,2.272-7.617v-26.752h9.983v27.584c0,2.604-0.362,4.992-1.088,7.168
			c-0.726,2.177-1.835,4.043-3.328,5.601s-3.392,2.763-5.696,3.616C313.615,261.766,310.885,262.192,307.728,262.192z"/>
		<path d="M350.415,261.872c-2.433,0-4.854-0.075-7.265-0.224c-2.411-0.15-4.918-0.502-7.52-1.057v-43.008
			c2.048-0.385,4.288-0.672,6.72-0.864c2.433-0.192,4.693-0.288,6.784-0.288c2.816,0,5.408,0.203,7.776,0.608
			c2.367,0.405,4.404,1.099,6.111,2.08c1.706,0.981,3.04,2.272,4,3.872s1.44,3.574,1.44,5.92c0,3.542-1.707,6.336-5.12,8.384
			c2.816,1.067,4.736,2.519,5.76,4.353c1.024,1.834,1.536,3.903,1.536,6.207c0,4.651-1.696,8.15-5.088,10.496
			C362.159,260.699,357.112,261.872,350.415,261.872z M345.358,234.352h4.864c3.072,0,5.27-0.394,6.592-1.184
			c1.322-0.789,1.984-2.059,1.984-3.809c0-1.791-0.683-3.049-2.048-3.775c-1.366-0.725-3.371-1.088-6.017-1.088
			c-0.854,0-1.771,0.011-2.752,0.031c-0.981,0.022-1.855,0.076-2.624,0.16V234.352z M345.358,241.968v11.456
			c0.726,0.086,1.515,0.15,2.368,0.191c0.854,0.043,1.792,0.064,2.816,0.064c2.985,0,5.396-0.426,7.231-1.279
			c1.834-0.854,2.752-2.433,2.752-4.736c0-2.049-0.768-3.51-2.304-4.385c-1.536-0.873-3.734-1.312-6.592-1.312H345.358z"/>
		<path d="M408.782,261.872c-2.433,0-4.854-0.075-7.265-0.224c-2.411-0.15-4.918-0.502-7.52-1.057v-43.008
			c2.048-0.385,4.288-0.672,6.72-0.864c2.433-0.192,4.693-0.288,6.784-0.288c2.816,0,5.408,0.203,7.776,0.608
			c2.367,0.405,4.404,1.099,6.111,2.08c1.706,0.981,3.04,2.272,4,3.872s1.44,3.574,1.44,5.92c0,3.542-1.707,6.336-5.12,8.384
			c2.816,1.067,4.736,2.519,5.76,4.353c1.024,1.834,1.536,3.903,1.536,6.207c0,4.651-1.696,8.15-5.088,10.496
			C420.526,260.699,415.479,261.872,408.782,261.872z M403.726,234.352h4.864c3.072,0,5.27-0.394,6.592-1.184
			c1.322-0.789,1.984-2.059,1.984-3.809c0-1.791-0.683-3.049-2.048-3.775c-1.366-0.725-3.371-1.088-6.017-1.088
			c-0.854,0-1.771,0.011-2.752,0.031c-0.981,0.022-1.855,0.076-2.624,0.16V234.352z M403.726,241.968v11.456
			c0.726,0.086,1.515,0.15,2.368,0.191c0.854,0.043,1.792,0.064,2.816,0.064c2.985,0,5.396-0.426,7.231-1.279
			c1.834-0.854,2.752-2.433,2.752-4.736c0-2.049-0.768-3.51-2.304-4.385c-1.536-0.873-3.734-1.312-6.592-1.312H403.726z"/>
		<path d="M437.006,261.296v-44.353h29.952v8.385h-19.969v8.703h17.729v8.193h-17.729v10.688h21.44v8.384H437.006z"/>
		<path d="M508.685,216.944v8.513h-13.376v35.84h-9.983v-35.84h-13.376v-8.513H508.685z"/>
		<path d="M539.593,261.296c-0.494-1.541-1.024-3.124-1.592-4.748c-0.568-1.624-1.134-3.242-1.697-4.853h-17.322
			c-0.56,1.619-1.122,3.24-1.684,4.865c-0.563,1.627-1.087,3.205-1.572,4.735h-10.368c1.669-4.778,3.252-9.194,4.75-13.248
			c1.498-4.053,2.963-7.872,4.397-11.456c1.434-3.584,2.846-6.986,4.237-10.208c1.391-3.221,2.836-6.368,4.334-9.44h9.464
			c1.457,3.072,2.893,6.22,4.308,9.44c1.414,3.222,2.84,6.624,4.276,10.208c1.436,3.584,2.903,7.403,4.403,11.456
			c1.5,4.054,3.087,8.47,4.759,13.248H539.593z M527.598,226.992c-0.223,0.644-0.549,1.521-0.978,2.629
			c-0.43,1.109-0.917,2.39-1.466,3.843c-0.548,1.453-1.16,3.054-1.838,4.8c-0.677,1.747-1.364,3.579-2.063,5.496h12.683
			c-0.679-1.923-1.336-3.761-1.972-5.513s-1.241-3.354-1.813-4.81c-0.572-1.453-1.074-2.732-1.507-3.841
			C528.212,228.49,527.862,227.622,527.598,226.992z"/>
	</g>
	<polygon points="208.865,249.333 125.788,299.333 42.712,249.333 42.712,149.334 125.788,99.334 208.865,149.334 	"/>
	<g>
		<g id="layer1_9_" transform="translate(-256.6798,-531.7963)">
			<path id="text5540_9_" fill="#6D1943" stroke="#6D1943" stroke-width="2.5" stroke-miterlimit="10" d="M349.189,782.293h-9.087
				c1.321-6.206,1.982-11.823,1.982-16.853v-59.974c0-6.242,0.551-10.886,1.652-13.934c1.138-3.046,3.322-5.727,6.554-8.04
				c3.268-2.35,7.343-3.525,12.226-3.525c5.802,0,10.666,1.542,14.595,4.626c3.965,3.047,5.947,7.399,5.947,13.052
				c0,6.609-3.139,12.025-9.417,16.247c9.362,4.406,14.044,11.326,14.044,20.763c0,5.14-1.249,9.747-3.745,13.822
				c-2.46,4.039-5.323,6.922-8.592,8.646c-3.23,1.726-7.104,2.588-11.62,2.588c-5.14,0-9.325-1.926-12.557-5.782v10.243
				C351.171,771.223,350.51,777.262,349.189,782.293 M351.171,748.973c2.864,4.736,6.866,7.104,12.006,7.104
				c4.957,0,8.592-1.799,10.904-5.397c2.313-3.635,3.47-8.04,3.47-13.217c0-3.966-0.771-8.004-2.313-12.116
				c-1.505-4.149-3.45-7.306-5.837-9.473c-2.203,0.551-4.186,0.826-5.948,0.826c-3.708,0-5.563-0.973-5.563-2.919
				c0-1.762,1.561-2.644,4.682-2.644c1.945,0,4.369,0.441,7.27,1.322c2.606-4.406,3.91-9.197,3.91-14.375
				c0-4.626-1.028-8.169-3.084-10.628c-2.02-2.46-4.663-3.69-7.931-3.69c-2.606,0-4.847,0.734-6.719,2.203
				c-1.836,1.469-3.103,3.231-3.8,5.288c-0.698,2.019-1.047,5.342-1.047,9.968V748.973"/>
		</g>
		<g id="layer1_8_" transform="translate(-256.6798,-531.7963)">
			<path id="text5540_8_" fill="#8C2863" stroke="#8C2863" stroke-width="2.5" stroke-miterlimit="10" d="M358.476,782.293h-9.087
				c1.322-6.206,1.982-11.823,1.982-16.853v-59.974c0-6.242,0.551-10.886,1.652-13.934c1.139-3.046,3.323-5.727,6.554-8.04
				c3.268-2.35,7.344-3.525,12.227-3.525c5.801,0,10.666,1.542,14.594,4.626c3.966,3.047,5.948,7.399,5.948,13.052
				c0,6.609-3.14,12.025-9.418,16.247c9.362,4.406,14.044,11.326,14.044,20.763c0,5.14-1.248,9.747-3.745,13.822
				c-2.46,4.039-5.323,6.922-8.591,8.646c-3.231,1.726-7.104,2.588-11.62,2.588c-5.141,0-9.326-1.926-12.557-5.782v10.243
				C360.459,771.223,359.798,777.262,358.476,782.293 M360.459,748.973c2.863,4.736,6.865,7.104,12.006,7.104
				c4.956,0,8.591-1.799,10.904-5.397c2.313-3.635,3.469-8.04,3.469-13.217c0-3.966-0.771-8.004-2.313-12.116
				c-1.505-4.149-3.451-7.306-5.838-9.473c-2.203,0.551-4.186,0.826-5.947,0.826c-3.708,0-5.563-0.973-5.563-2.919
				c0-1.762,1.561-2.644,4.681-2.644c1.946,0,4.369,0.441,7.27,1.322c2.607-4.406,3.91-9.197,3.91-14.375
				c0-4.626-1.027-8.169-3.084-10.628c-2.019-2.46-4.662-3.69-7.93-3.69c-2.607,0-4.847,0.734-6.72,2.203
				c-1.835,1.469-3.102,3.231-3.8,5.288c-0.697,2.019-1.046,5.342-1.046,9.968V748.973"/>
		</g>
		<g id="layer1_7_" transform="translate(-256.6798,-531.7963)">
			<path id="text5540_7_" fill="#BF5E93" stroke="#BF5E93" stroke-width="2.5" stroke-miterlimit="10" d="M367.764,782.293h-9.087
				c1.321-6.206,1.982-11.823,1.982-16.853v-59.974c0-6.242,0.551-10.886,1.652-13.934c1.138-3.046,3.322-5.727,6.554-8.04
				c3.268-2.35,7.343-3.525,12.227-3.525c5.8,0,10.665,1.542,14.594,4.626c3.965,3.047,5.947,7.399,5.947,13.052
				c0,6.609-3.139,12.025-9.417,16.247c9.362,4.406,14.044,11.326,14.044,20.763c0,5.14-1.249,9.747-3.745,13.822
				c-2.46,4.039-5.324,6.922-8.592,8.646c-3.23,1.726-7.104,2.588-11.62,2.588c-5.14,0-9.325-1.926-12.557-5.782v10.243
				C369.746,771.223,369.085,777.262,367.764,782.293 M369.746,748.973c2.864,4.736,6.866,7.104,12.006,7.104
				c4.956,0,8.592-1.799,10.904-5.397c2.313-3.635,3.47-8.04,3.47-13.217c0-3.966-0.771-8.004-2.313-12.116
				c-1.505-4.149-3.451-7.306-5.838-9.473c-2.202,0.551-4.185,0.826-5.947,0.826c-3.708,0-5.563-0.973-5.563-2.919
				c0-1.762,1.561-2.644,4.682-2.644c1.945,0,4.369,0.441,7.27,1.322c2.606-4.406,3.91-9.197,3.91-14.375
				c0-4.626-1.028-8.169-3.084-10.628c-2.02-2.46-4.663-3.69-7.931-3.69c-2.606,0-4.847,0.734-6.719,2.203
				c-1.836,1.469-3.103,3.231-3.8,5.288c-0.698,2.019-1.047,5.342-1.047,9.968V748.973"/>
		</g>
		<g id="layer1_6_" transform="translate(-256.6798,-531.7963)">
			<path id="text5540_6_" fill="#D381B2" stroke="#D381B2" stroke-width="2.5" stroke-miterlimit="10" d="M376.622,782.293h-9.087
				c1.322-6.206,1.983-11.823,1.983-16.853v-59.974c0-6.242,0.55-10.886,1.651-13.934c1.139-3.046,3.323-5.727,6.554-8.04
				c3.268-2.35,7.343-3.525,12.227-3.525c5.801,0,10.666,1.542,14.594,4.626c3.966,3.047,5.948,7.399,5.948,13.052
				c0,6.609-3.14,12.025-9.417,16.247c9.362,4.406,14.043,11.326,14.043,20.763c0,5.14-1.248,9.747-3.745,13.822
				c-2.46,4.039-5.323,6.922-8.591,8.646c-3.231,1.726-7.104,2.588-11.621,2.588c-5.14,0-9.325-1.926-12.556-5.782v10.243
				C378.606,771.223,377.944,777.262,376.622,782.293 M378.606,748.973c2.863,4.736,6.865,7.104,12.005,7.104
				c4.957,0,8.592-1.799,10.905-5.397c2.313-3.635,3.47-8.04,3.47-13.217c0-3.966-0.771-8.004-2.313-12.116
				c-1.505-4.149-3.451-7.306-5.838-9.473c-2.203,0.551-4.186,0.826-5.947,0.826c-3.709,0-5.563-0.973-5.563-2.919
				c0-1.762,1.56-2.644,4.681-2.644c1.946,0,4.369,0.441,7.27,1.322c2.607-4.406,3.91-9.197,3.91-14.375
				c0-4.626-1.027-8.169-3.084-10.628c-2.02-2.46-4.663-3.69-7.931-3.69c-2.606,0-4.846,0.734-6.719,2.203
				c-1.835,1.469-3.102,3.231-3.8,5.288c-0.697,2.019-1.046,5.342-1.046,9.968V748.973"/>
		</g>
		<g id="layer1_5_" transform="translate(-256.6798,-531.7963)">
			<path id="text5540_5_" fill="#FFFFFF" stroke="#FFFFFF" stroke-width="2.5" stroke-miterlimit="10" d="M386.339,782.293h-9.087
				c1.321-6.206,1.982-11.823,1.982-16.853v-59.974c0-6.242,0.551-10.886,1.652-13.934c1.138-3.046,3.322-5.727,6.554-8.04
				c3.268-2.35,7.343-3.525,12.226-3.525c5.802,0,10.666,1.542,14.595,4.626c3.965,3.047,5.948,7.399,5.948,13.052
				c0,6.609-3.14,12.025-9.418,16.247c9.362,4.406,14.044,11.326,14.044,20.763c0,5.14-1.248,9.747-3.745,13.822
				c-2.46,4.039-5.323,6.922-8.592,8.646c-3.23,1.726-7.104,2.588-11.62,2.588c-5.14,0-9.325-1.926-12.557-5.782v10.243
				C388.321,771.223,387.66,777.262,386.339,782.293 M388.321,748.973c2.864,4.736,6.866,7.104,12.006,7.104
				c4.957,0,8.592-1.799,10.904-5.397c2.313-3.635,3.47-8.04,3.47-13.217c0-3.966-0.771-8.004-2.313-12.116
				c-1.505-4.149-3.45-7.306-5.837-9.473c-2.203,0.551-4.186,0.826-5.948,0.826c-3.708,0-5.563-0.973-5.563-2.919
				c0-1.762,1.561-2.644,4.682-2.644c1.945,0,4.369,0.441,7.27,1.322c2.606-4.406,3.91-9.197,3.91-14.375
				c0-4.626-1.028-8.169-3.084-10.628c-2.02-2.46-4.663-3.69-7.931-3.69c-2.606,0-4.847,0.734-6.719,2.203
				c-1.836,1.469-3.103,3.231-3.8,5.288c-0.698,2.019-1.047,5.342-1.047,9.968V748.973"/>
		</g>
	</g>
</g>
</svg>
