<?xml version="1.0" encoding="utf-8"?>
<!-- Generator: Adobe Illustrator 16.0.0, SVG Export Plug-In . SVG Version: 6.00 Build 0)  -->
<!DOCTYPE svg PUBLIC "-//W3C//DTD SVG 1.1//EN" "http://www.w3.org/Graphics/SVG/1.1/DTD/svg11.dtd">
<svg version="1.1" id="Layer_1" xmlns="http://www.w3.org/2000/svg" xmlns:xlink="http://www.w3.org/1999/xlink" x="0px" y="0px"
	 width="550px" height="250px" viewBox="0 0 550 250" enable-background="new 0 0 550 250" xml:space="preserve">
<g>
	<line fill="none" stroke="#6E1A45" stroke-width="5" stroke-dasharray="4" x1="314.821" y1="165.127" x2="397.093" y2="165.127"/>
	<line fill="none" stroke="#6E1A45" stroke-width="5" stroke-dasharray="4" x1="154.822" y1="165.127" x2="237.092" y2="165.127"/>
	<g>
		<g>
			
				<rect x="237.092" y="112.965" fill="none" stroke="#A61E2A" stroke-width="5" stroke-miterlimit="10" width="76.729" height="104.349"/>
			
				<line fill="none" stroke="#EB272A" stroke-width="5" stroke-miterlimit="10" x1="233.256" y1="110.28" x2="317.655" y2="110.28"/>
			
				<line fill="none" stroke="#EB272A" stroke-width="5" stroke-miterlimit="10" x1="233.256" y1="219.999" x2="317.655" y2="219.999"/>
			<g>
				<path fill="none" d="M300.028,172.234"/>
			</g>
			<g>
				<path fill="none" d="M252.081,143.466"/>
			</g>
			<g>
				<path fill="none" d="M252.081,172.234"/>
			</g>
			<g>
				<path fill="none" d="M300.028,143.466"/>
			</g>
			<polygon fill="#010101" points="299.192,179.526 275.458,193.911 251.719,179.526 251.719,150.752 275.458,136.366 
				299.192,150.752 			"/>
			<g>
				<polygon fill="#EB272A" points="275.458,165.14 258.841,155.068 275.458,144.998 292.071,155.068 				"/>
				<polygon fill="#DFDB25" points="275.458,165.14 275.458,175.209 275.458,185.28 267.148,180.244 258.841,175.209 
					267.148,170.175 				"/>
				<polygon fill="#4569B2" points="275.458,165.14 275.458,175.209 275.458,185.28 283.763,180.244 292.071,175.209 
					283.763,170.175 				"/>
				<polygon fill="#1AA94A" points="258.841,155.068 267.148,160.104 275.458,165.14 267.148,170.175 258.841,175.209 
					258.841,165.14 				"/>
				<polygon fill="#6E1B45" points="292.071,155.057 283.763,160.093 275.458,165.126 283.763,170.161 292.071,175.197 
					292.071,165.126 				"/>
			</g>
		</g>
		<g>
			
				<rect x="396.093" y="112.965" fill="none" stroke="#A61E2A" stroke-width="5" stroke-miterlimit="10" width="76.729" height="104.349"/>
			
				<line fill="none" stroke="#EB272A" stroke-width="5" stroke-miterlimit="10" x1="392.257" y1="110.28" x2="476.655" y2="110.28"/>
			
				<line fill="none" stroke="#EB272A" stroke-width="5" stroke-miterlimit="10" x1="392.257" y1="219.999" x2="476.655" y2="219.999"/>
			<g>
				<path fill="none" d="M459.028,172.234"/>
			</g>
			<g>
				<path fill="none" d="M411.081,143.466"/>
			</g>
			<g>
				<path fill="none" d="M411.081,172.234"/>
			</g>
			<g>
				<path fill="none" d="M459.028,143.466"/>
			</g>
			<polygon fill="#010101" points="458.192,179.526 434.458,193.911 410.72,179.526 410.72,150.752 434.458,136.366 
				458.192,150.752 			"/>
			<g>
				<polygon fill="#EB272A" points="434.458,165.14 417.843,155.068 434.458,144.998 451.071,155.068 				"/>
				<polygon fill="#DFDB25" points="434.458,165.14 434.458,175.209 434.458,185.28 426.149,180.244 417.843,175.209 
					426.149,170.175 				"/>
				<polygon fill="#4569B2" points="434.458,165.14 434.458,175.209 434.458,185.28 442.763,180.244 451.071,175.209 
					442.763,170.175 				"/>
				<polygon fill="#1AA94A" points="417.843,155.068 426.149,160.104 434.458,165.14 426.149,170.175 417.843,175.209 
					417.843,165.14 				"/>
				<polygon fill="#6E1B45" points="451.071,155.057 442.763,160.093 434.458,165.126 442.763,170.161 451.071,175.197 
					451.071,165.126 				"/>
			</g>
		</g>
		<g>
			
				<rect x="78.092" y="112.965" fill="none" stroke="#A61E2A" stroke-width="5" stroke-miterlimit="10" width="76.729" height="104.349"/>
			<line fill="none" stroke="#EB272A" stroke-width="5" stroke-miterlimit="10" x1="74.256" y1="110.28" x2="158.656" y2="110.28"/>
			
				<line fill="none" stroke="#EB272A" stroke-width="5" stroke-miterlimit="10" x1="74.256" y1="219.999" x2="158.656" y2="219.999"/>
			<g>
				<path fill="none" d="M141.029,172.234"/>
			</g>
			<g>
				<path fill="none" d="M93.081,143.466"/>
			</g>
			<g>
				<path fill="none" d="M93.081,172.234"/>
			</g>
			<g>
				<path fill="none" d="M141.029,143.466"/>
			</g>
			<polygon fill="#010101" points="140.193,179.526 116.458,193.911 92.719,179.526 92.719,150.752 116.458,136.366 
				140.193,150.752 			"/>
			<g>
				<polygon fill="#EB272A" points="116.458,165.14 99.842,155.068 116.458,144.998 133.072,155.068 				"/>
				<polygon fill="#DFDB25" points="116.458,165.14 116.458,175.209 116.458,185.28 108.149,180.244 99.842,175.209 
					108.149,170.175 				"/>
				<polygon fill="#4569B2" points="116.458,165.14 116.458,175.209 116.458,185.28 124.763,180.244 133.072,175.209 
					124.763,170.175 				"/>
				<polygon fill="#1AA94A" points="99.842,155.068 108.149,160.104 116.458,165.14 108.149,170.175 99.842,175.209 99.842,165.14 
									"/>
				<polygon fill="#6E1B45" points="133.072,155.057 124.763,160.093 116.458,165.126 124.763,170.161 133.072,175.197 
					133.072,165.126 				"/>
			</g>
		</g>
	</g>
	<line fill="none" x1="313.821" y1="165.127" x2="396.093" y2="165.127"/>
	<g>
		<line fill="none" stroke="#6E1A45" stroke-width="5.0886" x1="185.31" y1="127.043" x2="185.31" y2="148.755"/>
		<line fill="none" stroke="#6E1A45" stroke-width="5.0886" x1="205.664" y1="127.043" x2="205.664" y2="148.755"/>
		<line fill="none" stroke="#6E1A45" stroke-width="5.725" x1="184.007" y1="128.928" x2="206.905" y2="128.928"/>
		<rect x="185.31" y="148.755" fill="none" stroke="#6E1A45" stroke-width="5.0886" stroke-linecap="square" width="0" height="0"/>
		<circle fill="#6E1A45" stroke="#6E1A45" stroke-width="4.6583" stroke-linecap="square" cx="183.548" cy="149.499" r="2.544"/>
		<circle fill="#6E1A45" stroke="#6E1A45" stroke-width="4.6583" stroke-linecap="square" cx="203.902" cy="149.499" r="2.544"/>
	</g>
	<g>
		
			<rect x="343.296" y="128.043" fill="none" stroke="#6E1A45" stroke-width="3.3591" stroke-linecap="square" width="19.82" height="25.001"/>
		
			<line fill="none" stroke="#6E1A45" stroke-width="3.3594" stroke-dasharray="3.75" x1="346.487" y1="128.043" x2="346.487" y2="153.044"/>
		
			<line fill="none" stroke="#6E1A45" stroke-width="3.3594" stroke-dasharray="3.75" x1="360.237" y1="128.043" x2="360.237" y2="153.044"/>
	</g>
	<g>
		<g>
			<path fill="none" stroke="#16A94A" stroke-width="7" stroke-miterlimit="10" d="M57.519,54.446
				c32.607-32.594,85.367-32.594,117.963,0"/>
			<path fill="none" stroke="#16A94A" stroke-width="7" stroke-miterlimit="10" d="M72.948,69.876
				c24.074-24.066,63.03-24.066,87.115,0"/>
			<path fill="none" stroke="#16A94A" stroke-width="7" stroke-miterlimit="10" d="M91.018,86.498
				c14.079-14.097,36.897-14.097,50.988,0"/>
		</g>
	</g>
	<g>
		<g>
			<path fill="none" stroke="#16A94A" stroke-width="7" stroke-miterlimit="10" d="M216.519,54.446
				c32.607-32.594,85.367-32.594,117.963,0"/>
			<path fill="none" stroke="#16A94A" stroke-width="7" stroke-miterlimit="10" d="M231.948,69.876
				c24.074-24.066,63.03-24.066,87.116,0"/>
			<path fill="none" stroke="#16A94A" stroke-width="7" stroke-miterlimit="10" d="M250.018,86.498
				c14.079-14.097,36.897-14.097,50.988,0"/>
		</g>
	</g>
	<g>
		<g>
			<path fill="none" stroke="#16A94A" stroke-width="7" stroke-miterlimit="10" d="M374.519,54.446
				c32.607-32.594,85.367-32.594,117.963,0"/>
			<path fill="none" stroke="#16A94A" stroke-width="7" stroke-miterlimit="10" d="M389.948,69.876
				c24.073-24.066,63.029-24.066,87.115,0"/>
			<path fill="none" stroke="#16A94A" stroke-width="7" stroke-miterlimit="10" d="M408.018,86.498
				c14.079-14.097,36.897-14.097,50.988,0"/>
		</g>
	</g>
</g>
</svg>
