<?xml version="1.0" encoding="utf-8"?>
<!-- Generator: Adobe Illustrator 16.0.0, SVG Export Plug-In . SVG Version: 6.00 Build 0)  -->
<!DOCTYPE svg PUBLIC "-//W3C//DTD SVG 1.1//EN" "http://www.w3.org/Graphics/SVG/1.1/DTD/svg11.dtd">
<svg version="1.1" id="Layer_1" xmlns="http://www.w3.org/2000/svg" xmlns:xlink="http://www.w3.org/1999/xlink" x="0px" y="0px"
	 width="600px" height="400px" viewBox="-196.853 -51.076 600 400" enable-background="new -196.853 -51.076 600 400"
	 xml:space="preserve">
<g>
	<g>
		<path fill="#FCD900" d="M163.873,90.599c-1.563-2.18-14.008-16.735-15.398-18.014l-1.456-1.336l-3.586,1.771
			c-1.976,0.971-3.656,1.694-3.747,1.604c-0.38-0.396-0.366-68.936,0.014-70.391c2.553-9.668,12.403-17.171,22.62-17.233
			c10.835-0.084,20.757,6.117,23.372,14.597c1.061,3.432,1.104,4.964,1.104,40.514v36.93l-3.586-1.604
			c-1.977-0.885-3.924-1.608-4.33-1.608c-0.832,0-3.319,2.834-9.086,10.3c-2.18,2.82-4.226,5.217-4.557,5.323
			C164.906,91.555,164.287,91.177,163.873,90.599L163.873,90.599z M166.311,45.965c0.183-1.097,0.33-2.785,0.33-3.762l0.015-1.766
			h-3.613c-3.459,0-3.586,0.042-3.264,1.225c0.184,0.675,0.323,2.376,0.331,3.769c0.007,2.376,0.104,2.566,1.505,2.729
			C164.968,48.545,165.958,48.089,166.311,45.965L166.311,45.965z M157.107,43.405c-0.322-3.825-0.238-4.81,0.458-5.584
			c0.767-0.843,0.61-1.953-1.794-12.359c-2.243-9.725-2.523-11.545-1.885-12.206c0.619-0.647,1.013-0.661,2.244-0.1
			c2.672,1.225,8.274,1.372,12.156,0.338c5.787-1.548,5.947-1.568,6.308-0.612c0.19,0.485-0.949,5.597-2.539,11.354
			c-2.722,9.922-2.882,10.843-2.918,17.144c-0.021,4.669,0.147,6.68,0.584,6.68c0.915,0,1.28-1.35,1.28-4.627
			c0-4.316,1.588-8.627,5.406-14.681c1.885-2.981,4-6.539,4.703-7.89c4.557-8.746,3.586-19.673-2.222-25.017
			c-7.622-7.031-19.899-8.051-28.084-2.334c-5.778,4.036-8.872,9.829-8.907,16.706c-0.021,3.207,0.268,4.423,1.766,7.58
			c0.977,2.068,2.664,4.993,3.739,6.498c1.091,1.504,3.031,4.95,4.331,7.671c1.87,3.916,2.482,5.935,2.953,9.83
			c0.725,5.977,0.816,6.265,1.92,6.265C157.388,48.06,157.445,47.491,157.107,43.405L157.107,43.405z M165.39,37.036
			c0.507-0.773,6.063-20.729,5.857-21.002c-0.078-0.093-1.633,0.126-3.467,0.484c-1.83,0.365-5.035,0.534-7.131,0.379
			c-2.095-0.146-3.797-0.084-3.797,0.126c0,0.731,4.43,19.828,4.695,20.265C161.972,37.977,164.914,37.78,165.39,37.036
			L165.39,37.036z"/>
		<path fill="#2EAB4A" d="M110.833,212.394c-0.506-2.911-1.117-6.243-1.355-7.396c-0.408-1.94-0.338-2.122,1.012-2.616
			c0.795-0.295,6.471-2.543,12.607-4.99c13.857-5.527,13.479-4.486,5.49-15.483l-5.625-7.747l5.711-6.146
			c11.299-12.107,12.459-13.486,12.289-14.737c-0.127-0.872-1.939-2.166-7.248-5.104c-3.889-2.166-7.319-4.022-7.603-4.121
			c-0.491-0.168,9.451-11.84,10.041-11.798c0.154,0.015,3.487,4.725,7.404,10.477c3.916,5.751,7.517,10.547,7.993,10.632
			c0.486,0.084,4.727-1.448,9.438-3.417c4.696-1.97,8.662-3.459,8.811-3.305c0.146,0.142,1.062,5.513,2.046,11.926
			c0.979,6.428,1.927,12.15,2.108,12.74c0.416,1.294,2.631,1.744,8.621,1.758h4.219v21.657c0,16.144-0.162,21.839-0.646,22.33
			c-0.499,0.507-9.576,0.647-37.52,0.647h-36.864L110.833,212.394z"/>
		<path fill="#4374B8" d="M69.301,217.174l-29.567-0.279l8.122-8.748c4.473-4.809,8.396-9.252,8.74-9.885
			c0.668-1.253,0.457-1.603-7.08-12.095l-3.69-5.133l11.523-4.515c6.342-2.489,11.897-4.908,12.361-5.357
			c0.73-0.731,0.646-1.813-0.752-10.083c-0.865-5.091-1.456-9.379-1.301-9.521c0.141-0.14,5.977,0.142,12.951,0.633
			c11.411,0.83,12.756,0.845,13.304,0.084c0.338-0.464,1.688-4.738,2.995-9.491c1.321-4.754,2.461-8.733,2.545-8.832
			c0.086-0.112,5.625,2.98,12.307,6.862c6.691,3.867,14.777,8.452,17.971,10.183l5.82,3.164l-8.676,9.309
			c-5.42,5.836-8.67,9.746-8.67,10.449c-0.006,0.633,2.441,4.541,5.437,8.688c3.728,5.178,5.231,7.681,4.769,7.919
			c-0.381,0.196-5.584,2.264-11.566,4.584c-5.99,2.319-11.243,4.558-11.68,4.95c-0.668,0.633-0.604,1.687,0.449,7.959
			c0.676,3.979,1.364,7.79,1.526,8.45c0.288,1.21,0.202,1.225-3.987,1.099C100.8,217.512,85.564,217.33,69.301,217.174
			L69.301,217.174z"/>
		<path fill="#EB2227" d="M5.844,215.937c-0.183-0.673-0.33-4.836-0.33-9.267L5.5,198.655l9.394-4.683
			c9.619-4.81,11.292-5.865,11.292-7.088c0-0.365-2.932-4.08-6.524-8.212c-3.586-4.135-6.525-7.679-6.525-7.848
			c-0.006-0.198,3.551-4.951,7.904-10.618c6.066-7.875,7.882-10.604,7.762-11.645c-0.141-1.194-1.23-1.829-9.141-5.302
			c-4.95-2.165-9.147-4.007-9.345-4.078c-0.189-0.084,0.894-6.075,2.411-13.316c3.298-15.708,3.433-15.033-2.967-14.766L5.5,111.27
			V96.703l2.588,0.323c1.42,0.184,5.808,0.491,9.73,0.696c8.298,0.415,7.524,0.914,9.457-6.054c0.668-2.404,1.378-4.668,1.582-5.034
			c0.239-0.45,3.896,3.051,10.393,9.929c5.526,5.842,10.223,10.617,10.463,10.617c0.239,0,0.436-3.811,0.436-8.495
			c0-7.875,0.07-8.465,0.949-8.085c3.157,1.351,3.439,1.181,9.373-5.555c3.122-3.543,5.766-6.568,5.892-6.715
			c0.437-0.541,7.032,7.361,11.292,13.535c4.121,5.977,4.474,6.328,6.201,6.328c1.61-0.014,2.35,0.549,5.949,4.486
			c2.265,2.475,4.311,4.5,4.535,4.5c0.231,0,0.485-2.98,0.569-6.631l0.146-6.637l2.995-1.217c2.734-1.104,3.029-1.139,3.367-0.303
			c0.197,0.499,1.021,5.441,1.809,10.977c1.244,8.747,2.199,13.99,2.607,14.23c0.057,0.042,4.535,0.353,9.941,0.675l9.83,0.619
			l-3.171,10.309c-1.743,5.667-3.241,10.377-3.326,10.476c-0.098,0.07-4.626-2.418-10.082-5.555
			c-5.464-3.136-10.379-5.695-10.927-5.695c-0.549,0-1.251,0.309-1.548,0.674c-0.295,0.367-1.729,4.938-3.178,10.14l-2.615,9.465
			l-3.572-0.338c-9.737-0.872-22.822-1.59-23.625-1.279c-1.223,0.478-1.152,1.884,0.696,12.361c0.865,4.936,1.54,9,1.484,9.042
			c-0.042,0.043-5.514,2.18-12.15,4.796c-6.637,2.601-12.36,5.075-12.726,5.511c-0.359,0.437-0.534,1.238-0.395,1.771
			c0.141,0.534,2.763,4.458,5.822,8.704l5.583,7.721l-1.547,1.843c-0.858,1.013-4.979,5.542-9.169,10.067l-7.622,8.229H19.857
			l-13.683,0.027L5.844,215.937z"/>
		<path fill="#505050" d="M14.485,93.216c-1.194-0.099-3.712-0.324-5.583-0.493L5.5,92.398V77.739
			c0-13.718,0.07-14.653,0.978-14.653c1.132,0,18.626,18.204,18.626,19.386c0,0.421-0.661,3.094-1.463,5.934l-1.462,5.176
			l-2.756-0.099C17.902,93.433,15.681,93.313,14.485,93.216L14.485,93.216z"/>
		<path fill="#9C9C9C" d="M51.372,85.579c-1.209-0.829-1.224-1.068-1.224-11.671c0-10.322,0.042-10.822,1.041-10.822
			c1.006,0,11.749,10.934,11.749,11.961c0,0.59-9.484,11.46-9.977,11.418C52.764,86.451,52.046,86.056,51.372,85.579L51.372,85.579z
			"/>
		<path fill="#593594" d="M175.921,156.312c-1.969-13.388-2.276-14.695-3.584-15.188c-0.473-0.184-4.985,1.405-10.154,3.558
			c-5.119,2.138-9.357,3.839-9.421,3.755c-0.058-0.084-3.375-4.922-7.354-10.771c-3.979-5.836-7.51-10.787-7.832-10.997
			c-1.414-0.957-2.589-0.112-7.369,5.314c-2.785,3.15-5.195,5.611-5.358,5.442c-0.153-0.155,1.14-4.95,2.897-10.66
			c2.896-9.436,3.102-10.434,2.319-11.208c-0.646-0.654-2.715-0.983-8.409-1.322c-4.148-0.26-8.662-0.472-10.027-0.492l-2.475-0.028
			l-1.8-12.107c-2.215-14.977-2.116-14.541-3.528-15.188c-0.908-0.408-1.998-0.169-4.882,1.125
			c-2.045,0.928-3.811,1.673-3.937,1.673c-0.119,0-0.226-5.877-0.226-13.064c0-12.444,0.057-13.07,1.026-13.07
			c0.646,0,8.816,8.185,21.874,21.916c11.468,12.052,21.044,21.995,21.298,22.093c0.246,0.099,0.449-5.948,0.449-13.443V80.01
			l3.46-1.927c1.892-1.063,3.67-1.928,3.937-1.913c0.275,0,4.17,4.529,8.664,10.035c4.492,5.519,8.493,10.167,8.889,10.328
			c1.385,0.576,2.791-0.844,8.338-8.409c3.072-4.191,5.9-7.623,6.285-7.623c0.379,0,2.293,0.795,4.248,1.751l3.543,1.75v84.699
			h-9.057L175.921,156.312z"/>
		<path fill="#E13F96" d="M5.5,167.563c0-22.528,0.112-26.115,0.773-25.581c0.421,0.354,4.296,2.166,8.606,4.022
			c4.316,1.87,7.889,3.614,7.959,3.909c0.063,0.31-3.144,4.781-7.115,9.958c-3.966,5.188-7.39,9.885-7.607,10.461
			c-0.437,1.195-0.281,1.406,7.383,10.224c2.672,3.08,4.76,5.696,4.641,5.794c-0.113,0.111-3.459,1.813-7.425,3.796L5.5,193.761
			V167.563z"/>
		<path fill="#E13F96" d="M5.675,126.781l0.092-11.165l2.32-0.162c1.271-0.092,2.32-0.035,2.32,0.111
			c0,0.472-4.401,21.255-4.626,21.833C5.668,137.694,5.62,132.927,5.675,126.781L5.675,126.781z"/>
	</g>
	<g>
		<rect x="-170.853" y="254.847" fill="none" width="548" height="56"/>
		<path d="M-138.459,285.59h-12.07v16.472h-14.2v-44.375h29.11l-1.775,11.36h-13.135v5.964h12.07V285.59z"/>
		<path d="M-114.533,265.496c11.36,0,17.04,3.905,17.04,11.716v24.85h-7.1l-4.047-4.047c-1.374,1.609-3.243,2.864-5.609,3.763
			c-2.368,0.898-4.604,1.35-6.709,1.35c-2.107,0-3.799-0.167-5.077-0.497c-1.278-0.332-2.533-0.899-3.763-1.704
			c-2.698-1.704-4.047-4.875-4.047-9.515c0-8.52,6.437-12.779,19.312-12.779h2.84v-2.557c-1.515-0.094-2.769-0.142-3.763-0.142
			c-5.35,0-9.94,0.639-13.774,1.917l-1.704-10.153C-126.202,266.231-120.734,265.496-114.533,265.496z M-107.504,261.308
			l-12.354,2.485l-2.911-4.048l13.419-9.868c0.284-0.189,0.591-0.284,0.923-0.284c0.331,0,0.71,0.261,1.136,0.78l4.473,5.255
			c0.426,0.474,0.639,0.864,0.639,1.171c0,0.309-0.06,0.545-0.177,0.71c-0.119,0.167-1.219,1.148-3.302,2.946
			C-106.132,260.882-106.748,261.165-107.504,261.308z M-119.503,289.85v2.911h2.911c2.083,0,3.419-0.236,4.012-0.71
			c0.591-0.473,0.887-1.089,0.887-1.847v-3.337h-2.911c-1.704,0-2.947,0.178-3.728,0.533
			C-119.113,287.755-119.503,288.572-119.503,289.85z"/>
		<path d="M-91.104,300.286v-44.375l14.2-1.064v11.786c1.798-0.757,4.153-1.137,7.064-1.137s5.407,0.545,7.491,1.634
			c2.082,1.089,3.667,2.58,4.757,4.473c2.035,3.55,3.053,7.787,3.053,12.709c0,6.674-1.539,11.479-4.615,14.413
			c-3.078,2.936-7.739,4.402-13.987,4.402S-85.378,302.179-91.104,300.286z M-76.904,278.49v14.271h2.201
			c1.704,0,2.946-0.178,3.728-0.533c0.781-0.354,1.171-1.171,1.171-2.449v-13.916h-2.201c-1.042,0-1.87,0.048-2.485,0.143
			c-0.616,0.095-1.161,0.344-1.633,0.745C-76.597,277.153-76.858,277.734-76.904,278.49z"/>
		<path d="M-48.86,266.562h7.1l3.905,3.976c2.792-2.556,6.294-4.235,10.508-5.041l0.852,13.419
			c-1.136,0.048-2.616,0.332-4.438,0.853c-1.823,0.521-3.065,1.184-3.728,1.988v20.306h-14.2V266.562z"/>
		<path d="M-21.418,264.289c-1.065-0.804-1.598-2.271-1.598-4.401s0.532-3.621,1.598-4.474c1.065-0.852,3.17-1.277,6.319-1.277
			c3.147,0,5.254,0.426,6.319,1.277c1.065,0.853,1.598,2.344,1.598,4.474s-0.533,3.598-1.598,4.401
			c-1.065,0.806-3.171,1.207-6.319,1.207C-18.248,265.496-20.354,265.095-21.418,264.289z M-22.235,302.062v-33.725l14.2-1.775v35.5
			H-22.235z"/>
		<path d="M25.121,291.411l0.852,10.225c-2.462,0.994-5.633,1.491-9.514,1.491c-6.627,0-11.42-1.55-14.377-4.651
			c-2.958-3.1-4.438-7.82-4.438-14.164c0-6.343,1.479-11.063,4.438-14.164c2.958-3.1,7.75-4.651,14.377-4.651
			c4.118,0,7.289,0.497,9.514,1.491l-1.704,9.656c-2.509-0.521-4.497-0.781-5.964-0.781c-3.598,0-5.396,1.255-5.396,3.764v12.709
			c1.372,0.283,3.135,0.426,5.29,0.426C20.352,292.761,22.66,292.312,25.121,291.411z"/>
		<path d="M48.48,265.496c11.36,0,17.04,3.905,17.04,11.716v24.85h-7.1l-4.047-4.047c-1.374,1.609-3.243,2.864-5.609,3.763
			c-2.368,0.898-4.604,1.35-6.709,1.35c-2.107,0-3.799-0.167-5.077-0.497c-1.278-0.332-2.533-0.899-3.763-1.704
			c-2.698-1.704-4.047-4.875-4.047-9.515c0-8.52,6.437-12.779,19.312-12.779h2.84v-2.557c-1.515-0.094-2.769-0.142-3.763-0.142
			c-5.35,0-9.94,0.639-13.774,1.917l-1.704-10.153C36.812,266.231,42.279,265.496,48.48,265.496z M43.51,289.85v2.911h2.911
			c2.083,0,3.419-0.236,4.012-0.71c0.591-0.473,0.887-1.089,0.887-1.847v-3.337h-2.911c-1.704,0-2.947,0.178-3.728,0.533
			C43.9,287.755,43.51,288.572,43.51,289.85z"/>
		<path d="M117.704,302.062h-7.101l-3.053-2.982c-2.083,2.698-5.799,4.048-11.147,4.048c-2.888,0-5.372-0.545-7.454-1.634
			c-2.084-1.088-3.669-2.579-4.757-4.473c-2.036-3.55-3.054-7.785-3.054-12.709c0-6.011,1.325-10.555,3.977-13.632
			c0.993-1.183,2.366-2.166,4.117-2.946c1.751-0.781,3.787-1.172,6.106-1.172h8.165v-10.65l14.2-1.064V302.062z M96.403,278.845
			v13.916h2.201c1.609,0,2.805-0.153,3.586-0.462c0.781-0.307,1.218-1.005,1.313-2.095v-14.342h-2.201
			c-1.704,0-2.946,0.178-3.728,0.533C96.793,276.75,96.403,277.567,96.403,278.845z"/>
		<path d="M138.647,289.991v2.485c1.421,0.142,2.841,0.213,4.261,0.213c4.401,0,8.851-0.71,13.348-2.13l1.704,10.437
			c-5.302,1.421-10.556,2.131-15.762,2.131c-6.628,0-11.42-1.55-14.378-4.651c-2.959-3.1-4.438-7.82-4.438-14.164
			c0-6.343,1.479-11.063,4.438-14.164c2.958-3.1,7.739-4.651,14.342-4.651c6.604,0,11.158,0.9,13.668,2.698
			c2.508,1.8,3.763,5.16,3.763,10.082c0,4.166-1.503,7.16-4.509,8.981C152.078,289.081,146.599,289.991,138.647,289.991z
			 M138.647,278.845v2.911h2.911c1.704,0,2.947-0.178,3.728-0.533c0.781-0.354,1.172-1.171,1.172-2.449v-2.911h-2.911
			c-1.704,0-2.946,0.178-3.728,0.533C139.038,276.75,138.647,277.567,138.647,278.845z"/>
		<path d="M175.566,302.062v-44.375h14.2v44.375H175.566z"/>
		<path d="M232.01,302.062h-7.101l-3.053-2.982c-2.083,2.698-5.799,4.048-11.147,4.048c-2.888,0-5.372-0.545-7.454-1.634
			c-2.084-1.088-3.669-2.579-4.758-4.473c-2.035-3.55-3.053-7.785-3.053-12.709c0-6.011,1.325-10.555,3.977-13.632
			c0.993-1.183,2.366-2.166,4.117-2.946c1.751-0.781,3.787-1.172,6.106-1.172h8.165v-10.65l14.2-1.064V302.062z M210.709,278.845
			v13.916h2.201c1.609,0,2.805-0.153,3.586-0.462c0.781-0.307,1.218-1.005,1.313-2.095v-14.342h-2.201
			c-1.704,0-2.946,0.178-3.728,0.533C211.1,276.75,210.709,277.567,210.709,278.845z"/>
		<path d="M252.954,289.991v2.485c1.421,0.142,2.841,0.213,4.261,0.213c4.401,0,8.851-0.71,13.348-2.13l1.704,10.437
			c-5.302,1.421-10.556,2.131-15.762,2.131c-6.628,0-11.42-1.55-14.378-4.651c-2.959-3.1-4.438-7.82-4.438-14.164
			c0-6.343,1.479-11.063,4.438-14.164c2.958-3.1,7.739-4.651,14.342-4.651c6.604,0,11.158,0.9,13.668,2.698
			c2.508,1.8,3.763,5.16,3.763,10.082c0,4.166-1.503,7.16-4.509,8.981C266.384,289.081,260.906,289.991,252.954,289.991z
			 M252.954,278.845v2.911h2.911c1.704,0,2.947-0.178,3.728-0.533c0.781-0.354,1.172-1.171,1.172-2.449v-2.911h-2.911
			c-1.704,0-2.946,0.178-3.728,0.533C253.344,276.75,252.954,277.567,252.954,278.845z"/>
		<path d="M280.04,264.289c-1.064-0.804-1.598-2.271-1.598-4.401s0.533-3.621,1.598-4.474c1.065-0.852,3.171-1.277,6.319-1.277
			c3.147,0,5.254,0.426,6.319,1.277c1.064,0.853,1.597,2.344,1.597,4.474s-0.532,3.598-1.597,4.401
			c-1.065,0.806-3.172,1.207-6.319,1.207C283.21,265.496,281.105,265.095,280.04,264.289z M279.223,302.062v-33.725l14.2-1.775v35.5
			H279.223z"/>
		<path d="M317.349,265.496c11.36,0,17.04,3.905,17.04,11.716v24.85h-7.1l-4.048-4.047c-1.373,1.609-3.242,2.864-5.608,3.763
			c-2.367,0.898-4.604,1.35-6.71,1.35c-2.106,0-3.798-0.167-5.076-0.497c-1.278-0.332-2.532-0.899-3.763-1.704
			c-2.698-1.704-4.047-4.875-4.047-9.515c0-8.52,6.437-12.779,19.312-12.779h2.84v-2.557c-1.516-0.094-2.769-0.142-3.763-0.142
			c-5.35,0-9.94,0.639-13.774,1.917l-1.704-10.153C305.681,266.231,311.148,265.496,317.349,265.496z M312.379,289.85v2.911h2.911
			c2.082,0,3.419-0.236,4.011-0.71c0.592-0.473,0.888-1.089,0.888-1.847v-3.337h-2.911c-1.704,0-2.946,0.178-3.728,0.533
			C312.77,287.755,312.379,288.572,312.379,289.85z"/>
		<path d="M344.151,267.982c3.053-1.656,7.229-2.485,12.531-2.485c5.301,0,10.176,0.734,14.626,2.201l-1.633,9.656
			c-3.692-1.041-7.384-1.562-11.076-1.562c-1.136,0-2.746,0.095-4.828,0.283v2.272c7.668,0,12.874,1.136,15.62,3.408
			c1.372,1.136,2.343,2.378,2.911,3.728c0.567,1.349,0.852,2.981,0.852,4.898s-0.225,3.634-0.674,5.147
			c-0.451,1.516-1.137,2.723-2.06,3.621c-0.923,0.899-1.882,1.633-2.875,2.201c-0.994,0.568-2.297,0.97-3.905,1.207
			c-2.51,0.378-5.421,0.568-8.733,0.568c-5.869,0-11.171-0.688-15.903-2.06l1.774-10.082c3.977,1.231,8.283,1.846,12.922,1.846
			c2.13,0,4.07-0.094,5.822-0.283v-2.272c-7.573,0-12.792-0.994-15.655-2.981c-2.864-1.988-4.296-5.29-4.296-9.905
			C339.571,272.775,341.097,269.639,344.151,267.982z"/>
	</g>
</g>
</svg>
