<?xml version="1.0" encoding="utf-8"?>
<!-- Generator: Adobe Illustrator 16.0.0, SVG Export Plug-In . SVG Version: 6.00 Build 0)  -->
<!DOCTYPE svg PUBLIC "-//W3C//DTD SVG 1.1//EN" "http://www.w3.org/Graphics/SVG/1.1/DTD/svg11.dtd">
<svg version="1.1" id="Layer_1" xmlns="http://www.w3.org/2000/svg" xmlns:xlink="http://www.w3.org/1999/xlink" x="0px" y="0px"
	 width="600px" height="400px" viewBox="0 0 600 400" enable-background="new 0 0 600 400" xml:space="preserve">
<g>
	<g>
		<path id="rect3330_3_" d="M130.678,300H83.993c-42.339,0-76.659-34.32-76.659-76.658v-46.683C7.333,134.32,41.654,100,83.993,100
			h46.686c42.339,0,76.658,34.32,76.658,76.659v46.683C207.336,265.68,173.017,300,130.678,300z"/>
		<g>
			<g>
				<rect x="64.542" y="172.568" fill="#498ECC" width="86.516" height="31.196"/>
				<circle fill="#498ECC" cx="64.542" cy="182.438" r="21.324"/>
				<circle fill="#498ECC" cx="151.058" cy="182.438" r="21.325"/>
				<circle fill="#498ECC" cx="81.48" cy="156.119" r="21.324"/>
				<circle fill="#498ECC" cx="133.633" cy="156.119" r="21.324"/>
				<circle fill="#498ECC" cx="107.8" cy="143.324" r="21.324"/>
				<rect x="64.542" y="162.82" fill="#498ECC" width="86.516" height="21.446"/>
			</g>
			<g>
				<rect x="64.542" y="192.065" fill="#50AEE2" width="86.516" height="31.194"/>
				<circle fill="#50AEE2" cx="64.542" cy="201.937" r="21.324"/>
				<circle fill="#50AEE2" cx="151.058" cy="201.937" r="21.325"/>
				<circle fill="#50AEE2" cx="81.48" cy="175.615" r="21.324"/>
				<circle fill="#50AEE2" cx="133.633" cy="175.615" r="21.324"/>
				<circle fill="#50AEE2" cx="107.8" cy="162.82" r="21.324"/>
				<rect x="64.542" y="182.316" fill="#50AEE2" width="86.516" height="21.448"/>
			</g>
			<g>
				<rect x="64.542" y="216.436" fill="#6BCAF3" width="86.516" height="31.194"/>
				<circle fill="#6BCAF3" cx="64.542" cy="226.307" r="21.324"/>
				<circle fill="#6BCAF3" cx="151.058" cy="226.307" r="21.325"/>
				<circle fill="#6BCAF3" cx="81.48" cy="199.985" r="21.324"/>
				<circle fill="#6BCAF3" cx="133.633" cy="199.985" r="21.324"/>
				<circle fill="#6BCAF3" cx="107.8" cy="187.191" r="21.324"/>
				<rect x="64.542" y="206.688" fill="#6BCAF3" width="86.516" height="21.447"/>
			</g>
			<g>
				<rect x="64.542" y="240.807" fill="#FFFFFF" width="86.516" height="31.193"/>
				<circle fill="#FFFFFF" cx="64.542" cy="250.677" r="21.324"/>
				<circle fill="#FFFFFF" cx="151.058" cy="250.677" r="21.325"/>
				<circle fill="#FFFFFF" cx="81.48" cy="224.356" r="21.324"/>
				<circle fill="#FFFFFF" cx="133.633" cy="224.356" r="21.324"/>
				<circle fill="#FFFFFF" cx="107.8" cy="211.563" r="21.324"/>
				<rect x="64.542" y="231.058" fill="#FFFFFF" width="86.516" height="21.447"/>
			</g>
		</g>
	</g>
	<g>
		<rect x="225.333" y="137.232" fill="none" width="367.333" height="125.536"/>
		<path d="M256.708,142.46h9.828v43.659h-9.828v-18.522h-16.506v18.522h-9.828V142.46h9.828v16.695h16.506V142.46z"/>
		<path d="M293.688,187.001c-3.066,0-5.713-0.431-7.938-1.292c-2.227-0.86-4.063-2.057-5.513-3.591
			c-1.448-1.533-2.52-3.36-3.213-5.481c-0.692-2.121-1.039-4.462-1.039-7.024V142.46h9.828v26.334c0,1.764,0.198,3.266,0.599,4.505
			c0.398,1.239,0.944,2.247,1.638,3.024c0.693,0.777,1.532,1.333,2.52,1.669c0.986,0.336,2.068,0.504,3.245,0.504
			c2.394,0,4.336-0.734,5.827-2.205c1.49-1.47,2.236-3.969,2.236-7.497V142.46h9.828v27.153c0,2.562-0.357,4.914-1.071,7.056
			c-0.714,2.142-1.806,3.98-3.275,5.513c-1.471,1.534-3.339,2.72-5.607,3.56C299.484,186.581,296.796,187.001,293.688,187.001z"/>
		<path d="M335.708,186.686c-2.394,0-4.778-0.074-7.15-0.22c-2.373-0.148-4.841-0.493-7.402-1.04V143.09
			c2.016-0.378,4.221-0.662,6.615-0.851c2.394-0.189,4.619-0.284,6.678-0.284c2.772,0,5.323,0.2,7.654,0.599
			c2.331,0.399,4.336,1.082,6.017,2.047c1.68,0.967,2.992,2.237,3.938,3.812c0.945,1.575,1.418,3.518,1.418,5.828
			c0,3.487-1.681,6.237-5.04,8.253c2.771,1.05,4.662,2.479,5.67,4.284c1.008,1.806,1.512,3.843,1.512,6.111
			c0,4.578-1.67,8.022-5.009,10.332C347.269,185.531,342.302,186.686,335.708,186.686z M330.731,159.596h4.788
			c3.023,0,5.187-0.388,6.488-1.166c1.302-0.777,1.953-2.026,1.953-3.749c0-1.764-0.672-3.002-2.016-3.717
			c-1.345-0.714-3.318-1.071-5.922-1.071c-0.841,0-1.743,0.011-2.709,0.032c-0.967,0.021-1.827,0.074-2.583,0.157V159.596z
			 M330.731,167.093v11.277c0.714,0.084,1.49,0.147,2.331,0.189c0.84,0.042,1.764,0.063,2.771,0.063c2.939,0,5.313-0.419,7.119-1.26
			c1.806-0.84,2.709-2.394,2.709-4.662c0-2.016-0.756-3.454-2.268-4.315c-1.513-0.86-3.676-1.292-6.489-1.292H330.731z"/>
		<path d="M398.519,187.001c-7.099,0-12.506-1.974-16.223-5.922c-3.717-3.947-5.575-9.554-5.575-16.821
			c0-3.612,0.566-6.835,1.7-9.671c1.135-2.835,2.688-5.229,4.662-7.182c1.974-1.953,4.325-3.434,7.057-4.441
			c2.729-1.008,5.69-1.512,8.883-1.512c1.848,0,3.528,0.137,5.04,0.41c1.512,0.273,2.835,0.588,3.969,0.945
			c1.134,0.357,2.079,0.725,2.835,1.103s1.302,0.672,1.638,0.882l-2.835,7.938c-1.345-0.713-2.908-1.323-4.693-1.827
			c-1.785-0.504-3.812-0.756-6.079-0.756c-1.512,0-2.992,0.252-4.441,0.756c-1.449,0.504-2.73,1.313-3.844,2.425
			c-1.113,1.113-2.006,2.551-2.677,4.315c-0.673,1.764-1.008,3.906-1.008,6.426c0,2.016,0.22,3.896,0.661,5.638
			c0.441,1.744,1.154,3.245,2.142,4.504c0.986,1.26,2.278,2.258,3.875,2.993c1.596,0.735,3.527,1.103,5.796,1.103
			c1.428,0,2.709-0.083,3.843-0.252c1.134-0.167,2.143-0.367,3.024-0.599c0.882-0.23,1.658-0.493,2.331-0.788
			c0.671-0.293,1.28-0.567,1.827-0.819l2.709,7.875c-1.387,0.841-3.34,1.597-5.859,2.268
			C404.755,186.665,401.836,187.001,398.519,187.001z"/>
		<path d="M448.603,177.677v8.442h-29.169V142.46h9.828v35.217H448.603z"/>
		<path d="M495.223,164.258c0,3.738-0.558,7.024-1.67,9.859c-1.113,2.835-2.636,5.208-4.567,7.119
			c-1.933,1.912-4.231,3.35-6.898,4.315c-2.668,0.965-5.534,1.449-8.6,1.449c-2.982,0-5.796-0.483-8.441-1.449
			c-2.646-0.966-4.957-2.404-6.931-4.315c-1.975-1.911-3.527-4.284-4.662-7.119c-1.134-2.835-1.7-6.121-1.7-9.859
			c0-3.738,0.587-7.025,1.764-9.86c1.175-2.835,2.761-5.218,4.757-7.15c1.994-1.931,4.305-3.38,6.93-4.347
			c2.624-0.966,5.387-1.449,8.284-1.449c2.981,0,5.796,0.483,8.442,1.449c2.646,0.966,4.955,2.416,6.93,4.347
			c1.974,1.933,3.528,4.315,4.662,7.15S495.223,160.521,495.223,164.258z M461.896,164.258c0,2.142,0.262,4.074,0.787,5.796
			c0.525,1.723,1.281,3.203,2.269,4.441c0.986,1.239,2.194,2.195,3.622,2.867c1.428,0.672,3.065,1.008,4.914,1.008
			c1.806,0,3.434-0.335,4.883-1.008c1.449-0.671,2.667-1.627,3.654-2.867c0.986-1.238,1.742-2.719,2.268-4.441
			c0.524-1.722,0.787-3.654,0.787-5.796c0-2.142-0.263-4.084-0.787-5.828c-0.525-1.742-1.281-3.234-2.268-4.473
			c-0.987-1.238-2.205-2.194-3.654-2.866c-1.449-0.671-3.077-1.008-4.883-1.008c-1.849,0-3.486,0.347-4.914,1.04
			s-2.636,1.66-3.622,2.898c-0.987,1.239-1.743,2.731-2.269,4.473C462.157,160.237,461.896,162.159,461.896,164.258z"/>
		<path d="M520.485,187.001c-3.066,0-5.713-0.431-7.938-1.292c-2.227-0.86-4.063-2.057-5.513-3.591
			c-1.448-1.533-2.52-3.36-3.213-5.481c-0.692-2.121-1.039-4.462-1.039-7.024V142.46h9.828v26.334c0,1.764,0.198,3.266,0.599,4.505
			c0.398,1.239,0.944,2.247,1.638,3.024c0.693,0.777,1.532,1.333,2.52,1.669c0.986,0.336,2.068,0.504,3.245,0.504
			c2.394,0,4.336-0.734,5.827-2.205c1.49-1.47,2.236-3.969,2.236-7.497V142.46h9.828v27.153c0,2.562-0.357,4.914-1.071,7.056
			c-0.714,2.142-1.806,3.98-3.275,5.513c-1.471,1.534-3.339,2.72-5.607,3.56C526.281,186.581,523.593,187.001,520.485,187.001z"/>
		<path d="M586.193,164.258c0,3.78-0.589,7.078-1.765,9.891c-1.176,2.814-2.846,5.146-5.008,6.993
			c-2.164,1.849-4.799,3.235-7.907,4.158s-6.594,1.386-10.458,1.386c-1.764,0-3.822-0.074-6.174-0.22
			c-2.353-0.148-4.662-0.451-6.93-0.914v-42.525c2.268-0.419,4.631-0.703,7.088-0.851c2.457-0.147,4.567-0.221,6.331-0.221
			c3.737,0,7.129,0.42,10.175,1.26c3.044,0.84,5.659,2.164,7.843,3.969c2.184,1.807,3.864,4.117,5.04,6.93
			C585.604,156.93,586.193,160.311,586.193,164.258z M557.78,178.118c0.462,0.042,0.997,0.074,1.606,0.094
			c0.608,0.022,1.333,0.032,2.174,0.032c4.913,0,8.557-1.238,10.93-3.717c2.373-2.478,3.56-5.9,3.56-10.269
			c0-4.578-1.134-8.042-3.401-10.395c-2.269-2.352-5.859-3.528-10.773-3.528c-0.672,0-1.365,0.011-2.079,0.032
			c-0.715,0.021-1.386,0.074-2.016,0.157V178.118z"/>
		<path d="M242.28,254.222c1.386,0,2.53-0.115,3.434-0.347c0.903-0.23,1.627-0.545,2.174-0.945c0.545-0.398,0.923-0.871,1.134-1.417
			c0.209-0.546,0.315-1.155,0.315-1.827c0-1.428-0.672-2.614-2.016-3.559c-1.344-0.945-3.654-1.963-6.93-3.057
			c-1.428-0.504-2.857-1.08-4.284-1.732c-1.428-0.65-2.709-1.469-3.843-2.457c-1.134-0.986-2.059-2.184-2.772-3.591
			c-0.715-1.406-1.071-3.118-1.071-5.134c0-2.017,0.378-3.832,1.134-5.45c0.756-1.616,1.827-2.992,3.213-4.126
			c1.386-1.135,3.065-2.006,5.04-2.615c1.974-0.607,4.199-0.913,6.678-0.913c2.939,0,5.481,0.315,7.623,0.944
			c2.142,0.631,3.906,1.324,5.292,2.08l-2.835,7.748c-1.219-0.629-2.573-1.186-4.063-1.669c-1.491-0.482-3.287-0.725-5.386-0.725
			c-2.353,0-4.043,0.325-5.072,0.977c-1.03,0.651-1.543,1.649-1.543,2.993c0,0.798,0.189,1.471,0.567,2.016
			c0.378,0.546,0.914,1.039,1.606,1.48c0.693,0.441,1.491,0.84,2.394,1.197c0.903,0.357,1.9,0.725,2.993,1.102
			c2.268,0.842,4.242,1.67,5.922,2.488c1.679,0.82,3.076,1.775,4.189,2.867c1.112,1.093,1.942,2.373,2.489,3.843
			c0.545,1.471,0.819,3.255,0.819,5.354c0,4.075-1.428,7.236-4.284,9.482c-2.856,2.247-7.161,3.37-12.915,3.37
			c-1.932,0-3.675-0.116-5.229-0.347c-1.554-0.231-2.929-0.515-4.126-0.851c-1.197-0.335-2.227-0.692-3.087-1.07
			c-0.861-0.378-1.586-0.734-2.173-1.071l2.772-7.813c1.301,0.715,2.908,1.355,4.819,1.922
			C237.167,253.938,239.508,254.222,242.28,254.222z"/>
		<path d="M264.833,245.402c0-2.939,0.451-5.514,1.354-7.719c0.903-2.204,2.089-4.041,3.56-5.512c1.47-1.47,3.16-2.583,5.072-3.34
			c1.91-0.756,3.875-1.133,5.891-1.133c4.703,0,8.42,1.438,11.15,4.314c2.73,2.878,4.096,7.109,4.096,12.695
			c0,0.546-0.021,1.145-0.064,1.795c-0.041,0.652-0.084,1.229-0.125,1.732h-21.295c0.211,1.933,1.113,3.465,2.709,4.6
			c1.596,1.134,3.738,1.701,6.428,1.701c1.721,0,3.41-0.158,5.07-0.473c1.658-0.315,3.014-0.703,4.064-1.166l1.26,7.623
			c-0.504,0.252-1.176,0.504-2.016,0.756c-0.842,0.252-1.775,0.473-2.805,0.662c-1.029,0.188-2.131,0.347-3.307,0.473
			c-1.178,0.126-2.354,0.188-3.529,0.188c-2.982,0-5.574-0.44-7.779-1.323c-2.205-0.882-4.032-2.089-5.481-3.622
			c-1.449-1.532-2.52-3.349-3.213-5.45C265.18,250.105,264.833,247.838,264.833,245.402z M286.884,241.811
			c-0.043-0.797-0.18-1.574-0.41-2.33c-0.23-0.757-0.588-1.428-1.07-2.017c-0.484-0.588-1.094-1.071-1.828-1.449
			s-1.648-0.567-2.74-0.567c-1.049,0-1.953,0.18-2.709,0.536c-0.756,0.357-1.385,0.829-1.889,1.417
			c-0.504,0.589-0.895,1.271-1.166,2.048c-0.273,0.778-0.473,1.565-0.6,2.362H286.884z"/>
		<path d="M323.171,236.896c-0.841-0.209-1.827-0.43-2.961-0.661c-1.134-0.23-2.353-0.347-3.654-0.347
			c-0.588,0-1.291,0.053-2.11,0.158c-0.818,0.104-1.438,0.22-1.858,0.346v25.326H303.2v-31.374c1.679-0.588,3.664-1.144,5.953-1.669
			s4.841-0.788,7.654-0.788c0.505,0,1.112,0.032,1.827,0.095c0.714,0.063,1.428,0.147,2.143,0.252
			c0.713,0.105,1.427,0.231,2.142,0.378c0.714,0.147,1.323,0.325,1.827,0.536L323.171,236.896z"/>
		<path d="M340.794,261.719c-2.149-4.199-4.332-9.113-6.545-14.742c-2.213-5.627-4.311-11.76-6.291-18.396h9.954
			c0.421,1.639,0.917,3.414,1.487,5.324c0.569,1.912,1.16,3.843,1.772,5.796c0.61,1.953,1.222,3.854,1.834,5.702
			s1.214,3.527,1.805,5.039c0.548-1.512,1.138-3.191,1.77-5.039c0.633-1.848,1.255-3.749,1.866-5.702s1.201-3.884,1.771-5.796
			c0.569-1.91,1.065-3.686,1.486-5.324h9.708c-1.98,6.637-4.076,12.77-6.287,18.396c-2.211,5.629-4.392,10.543-6.539,14.742H340.794
			z"/>
		<path d="M376.656,219.005c0,1.723-0.557,3.077-1.669,4.063c-1.113,0.987-2.426,1.48-3.938,1.48c-1.513,0-2.825-0.493-3.938-1.48
			c-1.113-0.986-1.67-2.341-1.67-4.063c0-1.722,0.557-3.076,1.67-4.063c1.112-0.986,2.425-1.48,3.938-1.48
			c1.512,0,2.824,0.494,3.938,1.48C376.1,215.929,376.656,217.283,376.656,219.005z M375.774,261.719h-9.387V228.58h9.387V261.719z"
			/>
		<path d="M383.019,245.15c0-2.395,0.388-4.652,1.166-6.773c0.776-2.12,1.899-3.969,3.37-5.544c1.47-1.575,3.254-2.823,5.354-3.748
			c2.1-0.923,4.494-1.386,7.183-1.386c1.764,0,3.38,0.157,4.851,0.473c1.47,0.314,2.898,0.766,4.284,1.354l-1.953,7.498
			c-0.882-0.336-1.849-0.631-2.897-0.883c-1.051-0.252-2.227-0.378-3.528-0.378c-2.772,0-4.841,0.861-6.205,2.583
			c-1.366,1.723-2.048,3.99-2.048,6.805c0,2.982,0.64,5.291,1.921,6.93c1.281,1.638,3.518,2.457,6.71,2.457
			c1.134,0,2.352-0.104,3.654-0.315c1.301-0.21,2.498-0.546,3.591-1.008l1.323,7.686c-1.093,0.463-2.457,0.86-4.096,1.197
			c-1.638,0.336-3.444,0.504-5.418,0.504c-3.023,0-5.628-0.452-7.812-1.354c-2.185-0.902-3.98-2.131-5.387-3.686
			c-1.407-1.553-2.437-3.391-3.087-5.512C383.344,249.928,383.019,247.629,383.019,245.15z"/>
		<path d="M412.944,245.402c0-2.939,0.451-5.514,1.354-7.719c0.902-2.204,2.089-4.041,3.56-5.512c1.47-1.47,3.16-2.583,5.071-3.34
			c1.911-0.756,3.875-1.133,5.891-1.133c4.703,0,8.42,1.438,11.151,4.314c2.729,2.878,4.095,7.109,4.095,12.695
			c0,0.546-0.021,1.145-0.063,1.795c-0.042,0.652-0.084,1.229-0.126,1.732h-21.294c0.21,1.933,1.112,3.465,2.709,4.6
			c1.596,1.134,3.738,1.701,6.427,1.701c1.722,0,3.411-0.158,5.071-0.473c1.658-0.315,3.013-0.703,4.063-1.166l1.26,7.623
			c-0.504,0.252-1.176,0.504-2.016,0.756c-0.841,0.252-1.775,0.473-2.804,0.662c-1.029,0.188-2.132,0.347-3.308,0.473
			c-1.177,0.126-2.353,0.188-3.528,0.188c-2.982,0-5.575-0.44-7.78-1.323c-2.205-0.882-4.032-2.089-5.48-3.622
			c-1.449-1.532-2.521-3.349-3.214-5.45C413.291,250.105,412.944,247.838,412.944,245.402z M434.994,241.811
			c-0.042-0.797-0.179-1.574-0.409-2.33c-0.231-0.757-0.589-1.428-1.071-2.017c-0.483-0.588-1.093-1.071-1.827-1.449
			c-0.735-0.378-1.648-0.567-2.74-0.567c-1.05,0-1.953,0.18-2.709,0.536c-0.756,0.357-1.386,0.829-1.89,1.417
			c-0.504,0.589-0.894,1.271-1.166,2.048c-0.273,0.778-0.473,1.565-0.599,2.362H434.994z"/>
	</g>
</g>
</svg>
