<?xml version="1.0" encoding="utf-8"?>
<!-- Generator: Adobe Illustrator 16.0.0, SVG Export Plug-In . SVG Version: 6.00 Build 0)  -->
<!DOCTYPE svg PUBLIC "-//W3C//DTD SVG 1.1//EN" "http://www.w3.org/Graphics/SVG/1.1/DTD/svg11.dtd">
<svg version="1.1" id="Layer_1" xmlns="http://www.w3.org/2000/svg" xmlns:xlink="http://www.w3.org/1999/xlink" x="0px" y="0px"
	 width="960px" height="400px" viewBox="0 0 960 400" enable-background="new 0 0 960 400" xml:space="preserve">
<rect x="-0.055" y="0.045" fill="#0DA84B" width="480" height="399.909"/>
<rect x="480" y="0.045" fill="#6C1842" width="480" height="399.909"/>
<polygon fill="#010101" points="646.08,299.966 479.945,399.954 313.81,299.966 313.811,99.988 479.945,0 646.08,99.988 "/>
<polygon fill="#ED1C24" stroke="#ED1F24" stroke-miterlimit="10" points="479.945,67.07 479.945,199.977 369.189,133.522 "/>
<polygon fill="#6E1944" points="479.945,199.977 590.701,266.432 590.701,133.522 "/>
<polygon fill="#0EA94B" points="479.945,199.977 369.188,266.432 369.188,133.522 "/>
<polygon fill="#DDDC20" points="479.945,199.977 479.945,332.885 369.189,266.432 "/>
<polygon fill="#ED1C24" stroke="#ED1F24" stroke-miterlimit="10" points="479.946,67.07 479.946,199.977 590.701,133.522 "/>
<polygon fill="#4167B1" points="479.946,199.977 479.946,332.885 590.701,266.432 "/>
<g>
	<path fill="none" d="M646.592,299.966"/>
</g>
<g>
	<path fill="none" d="M313.298,99.988"/>
</g>
<g>
	<path fill="none" d="M313.299,299.966"/>
</g>
<g>
	<path fill="none" d="M646.593,99.988"/>
</g>
</svg>
