<?xml version="1.0" encoding="utf-8"?>
<!-- Generator: Adobe Illustrator 16.0.0, SVG Export Plug-In . SVG Version: 6.00 Build 0)  -->
<!DOCTYPE svg PUBLIC "-//W3C//DTD SVG 1.1//EN" "http://www.w3.org/Graphics/SVG/1.1/DTD/svg11.dtd">
<svg version="1.1" id="Layer_1" xmlns="http://www.w3.org/2000/svg" xmlns:xlink="http://www.w3.org/1999/xlink" x="0px" y="0px"
	 width="600px" height="400px" viewBox="0 0 600 400" enable-background="new 0 0 600 400" xml:space="preserve">
<line fill="none" stroke="#476BB3" stroke-width="5" stroke-miterlimit="10" stroke-dasharray="4.5597" x1="331.637" y1="200" x2="268.985" y2="200"/>
<line fill="none" stroke="#19A94B" stroke-width="5" stroke-miterlimit="10" stroke-dasharray="5" x1="229.911" y1="145" x2="229.911" y2="0"/>
<line fill="none" stroke="#19A94B" stroke-width="5" stroke-miterlimit="10" stroke-dasharray="5.7481" x1="408.366" y1="199.576" x2="600" y2="199.576"/>
<g>
	<g>
		<rect x="20" y="145" fill="none" stroke="#6E1B45" stroke-width="5" stroke-linecap="square" width="39.639" height="50"/>
	</g>
	<line fill="none" stroke="#6E1B45" stroke-width="5" stroke-linecap="square" x1="30.488" y1="154.681" x2="49.153" y2="154.681"/>
	<line fill="none" stroke="#6E1B45" stroke-width="5" stroke-linecap="square" x1="30.488" y1="164.681" x2="49.153" y2="164.681"/>
	<line fill="none" stroke="#6E1B45" stroke-width="5" stroke-linecap="square" x1="30.488" y1="174.681" x2="49.153" y2="174.681"/>
	<g>
		<rect x="70" y="145" fill="none" stroke="#6E1B45" stroke-width="5" stroke-linecap="square" width="39.639" height="50"/>
	</g>
	<line fill="none" stroke="#6E1B45" stroke-width="5" stroke-linecap="square" x1="80.488" y1="154.681" x2="99.153" y2="154.681"/>
	<line fill="none" stroke="#6E1B45" stroke-width="5" stroke-linecap="square" x1="80.488" y1="164.681" x2="99.153" y2="164.681"/>
	<line fill="none" stroke="#6E1B45" stroke-width="5" stroke-linecap="square" x1="80.488" y1="174.681" x2="99.153" y2="174.681"/>
	<g>
		<rect x="70" y="205" fill="none" stroke="#6E1B45" stroke-width="5" stroke-linecap="square" width="39.639" height="50"/>
	</g>
	<line fill="none" stroke="#6E1B45" stroke-width="5" stroke-linecap="square" x1="80.488" y1="214.682" x2="99.153" y2="214.682"/>
	<line fill="none" stroke="#6E1B45" stroke-width="5" stroke-linecap="square" x1="80.488" y1="224.681" x2="99.153" y2="224.681"/>
	<line fill="none" stroke="#6E1B45" stroke-width="5" stroke-linecap="square" x1="80.488" y1="234.681" x2="99.153" y2="234.681"/>
	<g>
		<rect x="20" y="205" fill="none" stroke="#6E1B45" stroke-width="5" stroke-linecap="square" width="39.639" height="50"/>
	</g>
	<line fill="none" stroke="#6E1B45" stroke-width="5" stroke-linecap="square" x1="30.488" y1="214.682" x2="49.153" y2="214.682"/>
	<line fill="none" stroke="#6E1B45" stroke-width="5" stroke-linecap="square" x1="30.488" y1="224.681" x2="49.153" y2="224.681"/>
	<line fill="none" stroke="#6E1B45" stroke-width="5" stroke-linecap="square" x1="30.488" y1="234.681" x2="49.153" y2="234.681"/>
</g>
<line fill="none" stroke="#EA2A2D" stroke-width="5" stroke-miterlimit="10" stroke-dasharray="5" x1="370.897" y1="73.666" x2="370.897" y2="149"/>
<line fill="none" stroke="#6E1B45" stroke-width="5" stroke-miterlimit="10" stroke-dasharray="5" x1="194.319" y1="200" x2="118.985" y2="200"/>
<g>
	<rect x="305.563" y="28.999" fill="none" width="130.667" height="37.667"/>
	<path fill="#EA2A2D" d="M330.12,36.063c0.359,1.23,0.756,2.618,1.19,4.163c0.435,1.545,0.898,3.143,1.393,4.792
		c0.494,1.65,0.996,3.3,1.505,4.95c0.509,1.65,1.004,3.181,1.483,4.59c0.392-1.53,0.791-3.195,1.197-4.995
		c0.407-1.8,0.791-3.66,1.153-5.58c0.361-1.919,0.715-3.832,1.062-5.737c0.347-1.905,0.671-3.742,0.973-5.513h7.292
		c-1.056,5.22-2.271,10.515-3.644,15.885c-1.374,5.37-2.86,10.47-4.459,15.3h-6.421c-1.049-2.88-2.066-5.902-3.055-9.067
		s-1.961-6.337-2.919-9.518c-0.961,3.18-1.923,6.353-2.884,9.518s-1.967,6.188-3.019,9.067h-6.416
		c-1.598-4.83-3.081-9.93-4.451-15.3c-1.371-5.37-2.583-10.665-3.638-15.885h7.604c0.301,1.771,0.633,3.608,0.995,5.513
		c0.361,1.905,0.738,3.818,1.131,5.737c0.392,1.92,0.791,3.78,1.198,5.58c0.406,1.8,0.821,3.464,1.243,4.995
		c0.541-1.47,1.066-3.029,1.578-4.68c0.511-1.649,1.007-3.3,1.487-4.95c0.481-1.649,0.925-3.24,1.33-4.77
		c0.405-1.53,0.774-2.895,1.104-4.095H330.12z"/>
	<path fill="#EA2A2D" d="M373.995,36.063c0.359,1.23,0.756,2.618,1.19,4.163c0.435,1.545,0.898,3.143,1.393,4.792
		c0.494,1.65,0.996,3.3,1.505,4.95c0.509,1.65,1.004,3.181,1.483,4.59c0.392-1.53,0.791-3.195,1.197-4.995
		c0.407-1.8,0.791-3.66,1.153-5.58c0.361-1.919,0.715-3.832,1.062-5.737c0.347-1.905,0.671-3.742,0.973-5.513h7.292
		c-1.056,5.22-2.271,10.515-3.644,15.885c-1.374,5.37-2.86,10.47-4.459,15.3h-6.421c-1.049-2.88-2.066-5.902-3.055-9.067
		s-1.961-6.337-2.919-9.518c-0.961,3.18-1.923,6.353-2.884,9.518s-1.967,6.188-3.019,9.067h-6.416
		c-1.598-4.83-3.081-9.93-4.451-15.3c-1.371-5.37-2.583-10.665-3.638-15.885h7.604c0.301,1.771,0.633,3.608,0.995,5.513
		c0.361,1.905,0.738,3.818,1.131,5.737c0.392,1.92,0.791,3.78,1.198,5.58c0.406,1.8,0.821,3.464,1.243,4.995
		c0.541-1.47,1.066-3.029,1.578-4.68c0.511-1.649,1.007-3.3,1.487-4.95c0.481-1.649,0.925-3.24,1.33-4.77
		c0.405-1.53,0.774-2.895,1.104-4.095H373.995z"/>
	<path fill="#EA2A2D" d="M417.87,36.063c0.359,1.23,0.756,2.618,1.19,4.163c0.435,1.545,0.898,3.143,1.393,4.792
		c0.494,1.65,0.996,3.3,1.505,4.95c0.509,1.65,1.004,3.181,1.483,4.59c0.392-1.53,0.791-3.195,1.197-4.995
		c0.407-1.8,0.791-3.66,1.153-5.58c0.361-1.919,0.715-3.832,1.062-5.737c0.347-1.905,0.671-3.742,0.973-5.513h7.292
		c-1.056,5.22-2.271,10.515-3.644,15.885c-1.374,5.37-2.86,10.47-4.459,15.3h-6.421c-1.049-2.88-2.066-5.902-3.055-9.067
		s-1.961-6.337-2.919-9.518c-0.961,3.18-1.923,6.353-2.884,9.518s-1.967,6.188-3.019,9.067h-6.416
		c-1.598-4.83-3.081-9.93-4.451-15.3c-1.371-5.37-2.583-10.665-3.638-15.885h7.604c0.301,1.771,0.633,3.608,0.995,5.513
		c0.361,1.905,0.738,3.818,1.131,5.737c0.392,1.92,0.791,3.78,1.198,5.58c0.406,1.8,0.821,3.464,1.243,4.995
		c0.541-1.47,1.066-3.029,1.578-4.68c0.511-1.649,1.007-3.3,1.487-4.95c0.481-1.649,0.925-3.24,1.33-4.77
		c0.405-1.53,0.774-2.895,1.104-4.095H417.87z"/>
</g>
<g>
	<line fill="none" stroke="#E0DB26" stroke-width="5" stroke-miterlimit="10" x1="229.912" y1="400" x2="229.912" y2="274.815"/>
	
		<rect x="223.195" y="254.86" fill="#E0DB26" stroke="#7F7D31" stroke-width="3" stroke-miterlimit="10" width="13.432" height="19.183"/>
</g>
<g>
	<line fill="none" stroke="#E0DB26" stroke-width="5" stroke-miterlimit="10" x1="369.912" y1="400" x2="369.912" y2="274.815"/>
	
		<rect x="363.196" y="254.86" fill="#E0DB26" stroke="#7F7D31" stroke-width="3" stroke-miterlimit="10" width="13.431" height="19.183"/>
</g>
<g>
	<g>
		
			<rect x="191.637" y="147.827" fill="none" stroke="#31517F" stroke-width="5" stroke-miterlimit="10" width="76.729" height="104.349"/>
		
			<line fill="none" stroke="#476BB3" stroke-width="5" stroke-miterlimit="10" x1="187.801" y1="145.143" x2="272.199" y2="145.143"/>
		<line fill="none" stroke="#476BB3" stroke-width="5" stroke-miterlimit="10" x1="187.801" y1="254.86" x2="272.199" y2="254.86"/>
	</g>
	<g>
		<path fill="none" d="M255.572,207.098"/>
	</g>
	<g>
		<path fill="none" d="M207.625,178.328"/>
	</g>
	<g>
		<path fill="none" d="M207.625,207.098"/>
	</g>
	<g>
		<path fill="none" d="M255.572,178.328"/>
	</g>
	<g>
		<polygon fill="#020202" points="253.902,214.388 230,228.773 206.098,214.388 206.098,185.615 230,171.229 253.902,185.615 		"/>
		<g>
			<g>
				<rect x="220.452" y="193.154" fill="#498ECC" width="18.919" height="6.821"/>
				<circle fill="#498ECC" cx="220.453" cy="195.313" r="4.663"/>
				<circle fill="#498ECC" cx="239.37" cy="195.313" r="4.663"/>
				<circle fill="#498ECC" cx="224.156" cy="189.558" r="4.663"/>
				<circle fill="#498ECC" cx="235.561" cy="189.558" r="4.663"/>
				<circle fill="#498ECC" cx="229.912" cy="186.76" r="4.663"/>
				<rect x="220.452" y="191.022" fill="#498ECC" width="18.919" height="4.689"/>
			</g>
			<g>
				<rect x="220.452" y="197.418" fill="#51AEE2" width="18.919" height="6.82"/>
				<circle fill="#51AEE2" cx="220.453" cy="199.576" r="4.663"/>
				<circle fill="#51AEE2" cx="239.37" cy="199.576" r="4.663"/>
				<circle fill="#51AEE2" cx="224.156" cy="193.82" r="4.663"/>
				<circle fill="#51AEE2" cx="235.561" cy="193.82" r="4.663"/>
				<circle fill="#51AEE2" cx="229.912" cy="191.022" r="4.663"/>
				<rect x="220.452" y="195.286" fill="#51AEE2" width="18.919" height="4.688"/>
			</g>
			<g>
				<rect x="220.452" y="202.747" fill="#6DCAF3" width="18.919" height="6.82"/>
				<circle fill="#6DCAF3" cx="220.453" cy="204.904" r="4.663"/>
				<circle fill="#6DCAF3" cx="239.37" cy="204.904" r="4.663"/>
				<circle fill="#6DCAF3" cx="224.156" cy="199.149" r="4.663"/>
				<circle fill="#6DCAF3" cx="235.561" cy="199.149" r="4.663"/>
				<circle fill="#6DCAF3" cx="229.912" cy="196.352" r="4.663"/>
				<rect x="220.452" y="200.614" fill="#6DCAF3" width="18.919" height="4.689"/>
			</g>
			<g>
				<rect x="220.452" y="208.076" fill="#FFFFFF" width="18.919" height="6.819"/>
				<circle fill="#FFFFFF" cx="220.453" cy="210.233" r="4.663"/>
				<circle fill="#FFFFFF" cx="239.37" cy="210.233" r="4.663"/>
				<circle fill="#FFFFFF" cx="224.156" cy="204.479" r="4.663"/>
				<circle fill="#FFFFFF" cx="235.561" cy="204.479" r="4.663"/>
				<circle fill="#FFFFFF" cx="229.912" cy="201.681" r="4.663"/>
				<rect x="220.452" y="205.943" fill="#FFFFFF" width="18.919" height="4.689"/>
			</g>
		</g>
	</g>
</g>
<g>
	<g>
		
			<rect x="331.637" y="147.827" fill="none" stroke="#31517F" stroke-width="5" stroke-miterlimit="10" width="76.729" height="104.349"/>
		
			<line fill="none" stroke="#476BB3" stroke-width="5" stroke-miterlimit="10" x1="327.801" y1="145.143" x2="412.199" y2="145.143"/>
		<line fill="none" stroke="#476BB3" stroke-width="5" stroke-miterlimit="10" x1="327.801" y1="254.86" x2="412.199" y2="254.86"/>
	</g>
	<g>
		<path fill="none" d="M395.572,207.098"/>
	</g>
	<g>
		<path fill="none" d="M347.625,178.328"/>
	</g>
	<g>
		<path fill="none" d="M347.625,207.098"/>
	</g>
	<g>
		<path fill="none" d="M395.572,178.328"/>
	</g>
	<g>
		<polygon fill="#020202" points="393.903,214.388 370,228.773 346.097,214.388 346.098,185.615 370,171.229 393.903,185.615 		"/>
		<g>
			<g>
				<rect x="360.452" y="193.154" fill="#498ECC" width="18.919" height="6.821"/>
				<circle fill="#498ECC" cx="360.453" cy="195.313" r="4.663"/>
				<circle fill="#498ECC" cx="379.37" cy="195.313" r="4.663"/>
				<circle fill="#498ECC" cx="364.156" cy="189.558" r="4.663"/>
				<circle fill="#498ECC" cx="375.56" cy="189.558" r="4.663"/>
				<circle fill="#498ECC" cx="369.912" cy="186.76" r="4.663"/>
				<rect x="360.452" y="191.022" fill="#498ECC" width="18.919" height="4.689"/>
			</g>
			<g>
				<rect x="360.452" y="197.418" fill="#51AEE2" width="18.919" height="6.82"/>
				<circle fill="#51AEE2" cx="360.453" cy="199.576" r="4.663"/>
				<circle fill="#51AEE2" cx="379.37" cy="199.576" r="4.663"/>
				<circle fill="#51AEE2" cx="364.156" cy="193.82" r="4.663"/>
				<circle fill="#51AEE2" cx="375.56" cy="193.82" r="4.663"/>
				<circle fill="#51AEE2" cx="369.912" cy="191.022" r="4.663"/>
				<rect x="360.452" y="195.286" fill="#51AEE2" width="18.919" height="4.688"/>
			</g>
			<g>
				<rect x="360.452" y="202.747" fill="#6DCAF3" width="18.919" height="6.82"/>
				<circle fill="#6DCAF3" cx="360.453" cy="204.904" r="4.663"/>
				<circle fill="#6DCAF3" cx="379.37" cy="204.904" r="4.663"/>
				<circle fill="#6DCAF3" cx="364.156" cy="199.149" r="4.663"/>
				<circle fill="#6DCAF3" cx="375.56" cy="199.149" r="4.663"/>
				<circle fill="#6DCAF3" cx="369.912" cy="196.352" r="4.663"/>
				<rect x="360.452" y="200.614" fill="#6DCAF3" width="18.919" height="4.689"/>
			</g>
			<g>
				<rect x="360.452" y="208.076" fill="#FFFFFF" width="18.919" height="6.819"/>
				<circle fill="#FFFFFF" cx="360.453" cy="210.233" r="4.663"/>
				<circle fill="#FFFFFF" cx="379.37" cy="210.233" r="4.663"/>
				<circle fill="#FFFFFF" cx="364.156" cy="204.479" r="4.663"/>
				<circle fill="#FFFFFF" cx="375.56" cy="204.479" r="4.663"/>
				<circle fill="#FFFFFF" cx="369.912" cy="201.681" r="4.663"/>
				<rect x="360.452" y="205.943" fill="#FFFFFF" width="18.919" height="4.689"/>
			</g>
		</g>
	</g>
</g>
</svg>
