<?xml version="1.0" encoding="utf-8"?>
<!-- Generator: Adobe Illustrator 16.0.0, SVG Export Plug-In . SVG Version: 6.00 Build 0)  -->
<!DOCTYPE svg PUBLIC "-//W3C//DTD SVG 1.1//EN" "http://www.w3.org/Graphics/SVG/1.1/DTD/svg11.dtd">
<svg version="1.1" id="Layer_1" xmlns="http://www.w3.org/2000/svg" xmlns:xlink="http://www.w3.org/1999/xlink" x="0px" y="0px"
	 width="400px" height="400px" viewBox="0 0 400 400" enable-background="new 0 0 400 400" xml:space="preserve">
<polygon fill="#020202" stroke="#000000" stroke-miterlimit="10" points="365.999,299.002 201,399 36.001,299.002 36.001,98.999 
	201,-1 365.999,98.999 "/>
<polygon fill="#EC2127" stroke="#EC2127" stroke-miterlimit="10" points="316.856,269.001 201.001,339 85.144,269.001 
	85.145,129.001 201.001,59 316.856,129.001 "/>
<path fill-rule="evenodd" clip-rule="evenodd" fill="#020302" d="M196.54,81.24c1.6,0,3.2,0,4.8,0
	c0.843,0.216,1.744,0.133,2.559,0.48c1.136,0.484,2.091,1.194,2.618,2.347c0.249,0.546,0.574,0.934,1.191,1.058
	c2.676,0.537,4.419,2.274,5.76,4.517c0.308,0.515,0.658,1.009,0.894,1.561c0.383,0.9,0.797,1.484,2.018,1.343
	c1.215-0.14,1.92,0.856,2.337,1.911c0.49,1.237,0.659,2.551,0.712,3.875c0.033,0.838,0.066,1.684-0.004,2.518
	c-0.191,2.256,0.344,4.319,1.287,6.369c2.453,5.324,5.433,10.244,10.067,13.982c4.488,3.62,9.687,5.521,15.351,6.249
	c2.298,0.295,4.613,0.403,6.927,0.493c0.947,0.037,1.795,0.339,2.633,0.737c2.984,1.417,5.573,3.446,8.237,5.349
	c2.44,1.743,4.854,3.524,7.243,5.336c0.722,0.546,1.317,1.166,1.572,2.055c1.837,6.418,3.896,12.775,5.255,19.324
	c0.195,0.941,0.341,1.892,0.426,2.845c0.199,2.229-0.919,3.706-2.806,3.801c-0.194-0.021-0.386-0.063-0.571-0.141
	c0.008,0.212,0.156,0.041,0.234,0.076c0.256,0.113,0.545,0.07,0.825,0.085c1.955,0.343,3.117,1.674,4.067,3.261
	c1.599,2.669,2.125,5.667,2.652,8.667c0.647,3.678,0.595,7.402,0.692,11.111c0.095,3.638,0.052,7.28,0.014,10.919
	c-0.081,7.749-0.294,15.489-0.871,23.226c-0.576,7.729-1.217,15.453-1.94,23.17c-0.052,0.559-0.038,1.119-0.038,1.679
	c-0.001,8.319-0.051,16.64,0.028,24.958c0.025,2.59-1.072,4.233-3.338,5.285c-2.323,1.079-4.769,1.596-7.308,1.709
	c-3.032,0.137-6.067,0.165-9.091-0.13c-2.161-0.21-4.255-0.713-6.188-1.769c-1.038-0.567-1.963-1.248-2.508-2.329
	c-0.328-0.65-0.831-0.905-1.545-0.911c-1.238-0.009-2.461-0.285-3.706-0.263c-0.562,0.011-1.109-0.142-1.646-0.304
	c-1.61-0.485-2.391-1.489-2.404-3.164c-0.015-1.795,0.559-3.467,1.189-5.111c1.751-4.559,3.798-8.99,5.967-13.36
	c2.349-4.729,4.214-9.592,4.693-14.898c0.159-1.75,0.391-3.493,0.382-5.259c-0.027-5.037,0.111-10.078-0.267-15.105
	c-0.355-4.74-0.7-9.481-1.096-14.22c-0.392-4.697-0.759-9.397-1.08-14.101c-0.141-2.071-0.363-4.157-0.352-6.216
	c0.015-2.235-0.181-4.468-0.07-6.701c0-0.614,0-1.229,0-1.844c0.051-0.327-0.114-0.679-0.006-0.833
	c-0.005,0.146,0.002,0.461,0,0.777c0,0.596,0,1.191,0,1.787c-0.014,2.713,0.117,5.423,0.022,8.141
	c-0.177,5.034-0.57,10.051-1.054,15.06c-0.7,7.252-1.796,14.443-3.644,21.504c-1.067,4.078-2.464,8.033-4.536,11.716
	c-1.527,2.715-3.393,5.144-6.301,6.554c-0.838,0.406-1.701,0.752-2.633,0.747c-0.99-0.006-0.931,0.372-0.569,1.076
	c1.425,2.778,2.692,5.627,3.701,8.586c0.827,2.43,1.474,4.896,1.739,7.461c0.181,1.745,0.02,3.443-0.551,5.087
	c-0.77,2.214-2.321,3.701-4.509,4.509c-1.703,0.628-3.475,0.914-5.566,0.942c1.723,0.829,3.269,1.416,4.793,2.053
	c1.293,0.541,2.578,1.103,3.709,1.945c0.504,0.376,1.116,0.774,0.969,1.526c-0.14,0.714-0.799,0.943-1.405,1.171
	c-0.225,0.084-0.458,0.155-0.696,0.179c-3.137,0.301-6.261,0.679-9.436,0.398c-2.109-0.186-4.228-0.249-6.314-0.645
	c-2.973-0.563-5.8-1.481-8.347-3.183c-3.889-2.599-5.665-6.351-6.175-10.874c-0.487-4.325,0.376-8.516,1.098-12.727
	c0.202-1.183,0.404-2.362,0.342-3.574c-0.043-0.834-0.426-1.243-1.268-1.245c-4.479-0.012-8.959-0.04-13.438,0.018
	c-1.292,0.017-1.875,0.877-1.738,2.458c0.131,1.514,0.347,3.018,0.623,4.514c0.602,3.269,0.999,6.548,0.964,9.891
	c-0.072,6.979-3.846,12.058-10.589,13.979c-2.737,0.78-5.533,1.149-8.385,1.349c-3.016,0.211-5.981,0.017-8.959-0.29
	c-0.479-0.049-0.948-0.156-1.391-0.353c-1.194-0.527-1.415-1.553-0.491-2.473c0.686-0.683,1.544-1.135,2.4-1.571
	c1.7-0.868,3.404-1.727,5.282-2.541c-2.502-0.181-4.774-0.559-6.608-2.218c-1.572-1.421-2.313-3.249-2.447-5.312
	c-0.175-2.688,0.04-5.351,0.731-7.97c0.972-3.683,2.285-7.242,3.789-10.736c0.54-1.254,0.519-1.248-0.813-1.438
	c-2.435-0.348-4.135-1.827-5.5-3.727c-2.658-3.698-4.133-7.921-5.283-12.273c-1.833-6.941-2.819-14.024-3.543-21.155
	c-0.861-8.478-1.319-16.97-1.167-25.491c0.005-0.358-0.011-0.717-0.003-0.839c0.006,0.149-0.005,0.534-0.002,0.922
	c-0.006,4.517,0.099,9.035-0.231,13.543c-0.362,4.938-0.685,9.879-1.099,14.813c-0.387,4.616-0.753,9.234-1.076,13.856
	c-0.309,4.428-0.586,8.854-0.434,13.289c0.18,5.219,0.863,10.361,2.976,15.208c1.246,2.858,2.568,5.683,3.855,8.522
	c1.468,3.242,2.928,6.487,4.138,9.837c0.449,1.243,0.838,2.509,0.971,3.828c0.296,2.942-0.917,4.38-3.87,4.5
	c-1.241,0.05-2.465,0.26-3.704,0.279c-0.562,0.01-1.011,0.193-1.286,0.713c-0.994,1.881-2.772,2.72-4.639,3.368
	c-2.048,0.713-4.181,0.992-6.356,1.07c-2.755,0.098-5.502,0.063-8.25-0.136c-2.102-0.151-4.076-0.771-5.996-1.595
	c-2.321-0.997-3.365-2.753-3.351-5.288c0.042-7.356-0.047-14.714,0.039-22.069c0.05-4.254-0.46-8.454-0.841-12.67
	c-0.509-5.649-1.076-11.294-1.602-16.942c-0.292-3.142-0.631-6.281-0.838-9.429c-0.215-3.265-0.332-6.538-0.321-9.813
	c0-0.491,0-0.982,0-1.474c0-0.481,0-0.964,0-1.445c-0.067-0.73,0.14-1.477-0.123-2.196c0-2.88,0-5.76,0-8.64
	c0.261-0.535,0.061-1.105,0.123-1.656c-0.063-0.486,0.136-0.994-0.123-1.464c0-0.24,0-0.48,0-0.72
	c0.308-2.317,0.185-4.671,0.64-6.979c0.596-3.025,1.253-6.03,3.168-8.549c1.119-1.472,2.383-2.811,4.417-2.952
	c0.388,0.003,0.765-0.058,1.123-0.209c0.148-0.067,0.016-0.082-0.022-0.036c-0.187,0.222-0.5,0.144-0.754,0.228
	c-1.785-0.178-2.571-1.014-2.667-2.747c-0.18-3.257,0.728-6.336,1.551-9.421c1.186-4.44,2.477-8.851,3.768-13.262
	c0.303-1.035,0.803-1.876,1.672-2.546c4.146-3.197,8.332-6.33,12.699-9.229c2.843-1.888,5.957-2.324,9.219-2.481
	c9.716-0.469,17.256-4.739,22.489-12.985c1.655-2.607,2.957-5.391,4.152-8.232c0.444-1.056,0.602-2.126,0.625-3.264
	c0.049-2.509-0.281-5.038,0.324-7.525c0.181-0.742,0.388-1.468,0.84-2.1c0.578-0.807,1.309-1.33,2.344-1.057
	c0.757,0.199,1.104-0.155,1.383-0.771c0.577-1.278,1.319-2.459,2.111-3.618c1.021-1.494,2.415-2.415,4.112-2.924
	c0.549-0.165,1.055-0.34,1.338-0.905c0.919-1.836,2.423-2.805,4.464-2.949C196.255,81.357,196.414,81.361,196.54,81.24z"/>
<path fill-rule="evenodd" clip-rule="evenodd" fill="#363434" d="M117.1,198.36c0.472,0.679,0.147,1.445,0.235,2.166
	c-0.081,0.106-0.16,0.104-0.235-0.006C117.1,199.8,117.1,199.08,117.1,198.36z"/>
<path fill-rule="evenodd" clip-rule="evenodd" fill="#383635" d="M117.322,188.019c-0.057,0.569,0.229,1.184-0.222,1.701
	c0-0.56,0-1.12,0-1.68C117.165,187.937,117.238,187.925,117.322,188.019z"/>
<path fill-rule="evenodd" clip-rule="evenodd" fill="#6B6867" d="M117.322,188.019c-0.073,0.015-0.147,0.022-0.222,0.021
	c0-0.48,0-0.96,0-1.44C117.576,187.01,117.248,187.546,117.322,188.019z"/>
<path fill-rule="evenodd" clip-rule="evenodd" fill="#656261" d="M117.1,200.52c0.079-0.015,0.157-0.013,0.235,0.006
	c-0.009,0.486-0.017,0.972-0.026,1.458c-0.08,0.086-0.15,0.078-0.209-0.023C117.1,201.479,117.1,201,117.1,200.52z"/>
<path fill-rule="evenodd" clip-rule="evenodd" fill="#AAA7A7" d="M117.1,201.96c0.069,0.012,0.139,0.02,0.209,0.023
	c0,0.478,0,0.955,0.001,1.433c-0.07-0.003-0.141-0.008-0.21-0.017C117.1,202.92,117.1,202.439,117.1,201.96z"/>
<path fill-rule="evenodd" clip-rule="evenodd" fill="#FFFFFF" d="M245.561,194.461c-0.024,6.586-1.333,12.99-2.81,19.362
	c-0.753,3.252-1.679,6.465-2.482,9.706c-0.227,0.91-0.837,1.439-1.561,1.864c-2.37,1.395-5.019,1.977-7.674,2.492
	c-6.046,1.173-12.169,1.645-18.31,1.986c-4.109,0.229-8.225,0.325-12.333,0.304c-9.263-0.05-18.522-0.368-27.695-1.825
	c-2.908-0.461-5.793-1.043-8.556-2.128c-1.847-0.726-3.034-1.798-3.552-3.906c-1.864-7.584-3.724-15.162-4.547-22.945
	c-0.441-4.175-0.656-8.366,0.416-12.497c0.605-2.331,1.755-4.246,4.061-5.312c0.499-0.231,0.962-0.305,1.476-0.305
	c25.713,0,51.426,0.003,77.14-0.01c0.714,0,1.173,0.293,1.764,0.693c3.809,2.58,4.488,6.465,4.659,10.601
	C245.584,193.181,245.561,193.821,245.561,194.461z"/>
<path fill-rule="evenodd" clip-rule="evenodd" fill="#FFFFFF" d="M221.795,177.257c-5.996,0-11.992-0.018-17.988,0.021
	c-0.836,0.005-1.051-0.194-1.048-1.04c0.033-9.274,0.039-18.548-0.003-27.822c-0.005-1.107,0.477-1.708,1.362-2.143
	c2.07-1.018,4.326-1.344,6.567-1.656c3.76-0.523,7.556-0.692,11.342-0.638c4.979,0.072,9.959,0.255,14.843,1.459
	c3.386,0.834,5.176,3.053,5.694,6.339c1.173,7.425,1.234,14.855-0.17,22.267c-0.03,0.156-0.065,0.311-0.108,0.464
	c-0.743,2.614-0.92,2.75-3.582,2.75C233.068,177.257,227.432,177.257,221.795,177.257z"/>
<path fill-rule="evenodd" clip-rule="evenodd" fill="#FFFFFF" d="M179.542,177.257c-5.958,0-11.917-0.02-17.875,0.02
	c-1.04,0.007-1.607-0.373-1.974-1.32c-1.04-2.683-1.305-5.505-1.468-8.326c-0.302-5.229-0.275-10.458,0.636-15.643
	c0.712-4.054,2.799-6.127,7.168-6.896c6.999-1.233,14.042-1.337,21.112-0.806c3.028,0.228,6.037,0.543,8.937,1.501
	c2.319,0.767,2.551,1.107,2.551,3.494c0,8.917-0.018,17.835,0.025,26.752c0.005,0.997-0.241,1.256-1.239,1.248
	C191.458,177.233,185.5,177.257,179.542,177.257z"/>
<path fill-rule="evenodd" clip-rule="evenodd" fill="#FFFFFF" d="M198.811,115.076c3.664-0.043,6.611,0.213,9.515,1.08
	c1.633,0.487,2.504,1.544,3.156,2.983c1.354,2.989,1.001,6.151,1.055,9.285c0.03,1.735-0.847,2.758-2.188,3.663
	c-4.894,3.3-10.168,3.858-15.758,2.329c-2.931-0.802-5.668-2.049-8.25-3.649c-0.348-0.216-0.627-0.386-0.632-0.892
	c-0.032-3.432,0.001-6.845,0.932-10.198c0.507-1.828,1.607-2.887,3.389-3.475C193.113,115.186,196.304,115.246,198.811,115.076z"/>
<path fill-rule="evenodd" clip-rule="evenodd" fill="#FFFFFF" d="M199.331,102.604c3.322-0.414,5.982,1.065,8.734,2.182
	c0.288,0.117,0.424,0.32,0.349,0.663c-0.493,2.228,0.422,4.12,1.393,6.021c0.36,0.707,1.15,1.508,0.6,2.283
	c-0.551,0.776-1.537,0.339-2.346,0.185c-3.408-0.651-6.816-1.216-10.319-1.001c-2.36,0.145-4.628,0.783-6.953,1.096
	c-0.394,0.053-0.8,0.126-1.188,0.08c-0.825-0.099-1.245-0.522-0.879-1.396c0.276-0.66,0.522-1.336,0.86-1.964
	c0.884-1.645,1.052-3.414,0.918-5.219c-0.06-0.813,0.154-1.207,0.983-1.43C194.125,103.393,196.677,102.254,199.331,102.604z"/>
<path fill-rule="evenodd" clip-rule="evenodd" fill="#FFFFFF" d="M198.996,96.663c-0.572,0.04-1.179-0.302-1.757-0.761
	c-0.998-0.793-1.986-1.604-3.032-2.329c-1.443-1.001-3.108-1.374-4.835-1.506c-0.319-0.024-0.709-0.015-0.768-0.4
	c-0.063-0.409,0.372-0.493,0.641-0.591c1.893-0.687,3.896-0.854,5.868-0.932c4.218-0.168,8.448-0.269,12.64,0.438
	c0.738,0.125,1.46,0.361,2.176,0.588c0.154,0.049,0.332,0.27,0.355,0.432c0.042,0.3-0.267,0.374-0.477,0.412
	c-0.625,0.113-1.256,0.208-1.889,0.258c-2.219,0.178-3.976,1.252-5.547,2.747C201.479,95.866,200.575,96.747,198.996,96.663z"/>
<path fill-rule="evenodd" clip-rule="evenodd" fill="#FEFDFD" d="M208.328,96.577c0.898,0.131,1.634,0.616,2.317,1.158
	c0.509,0.403,0.926,0.65,1.286-0.257c0.636,1.275,0.309,2.226-0.427,3.078c-1.287,1.492-3.587,2.007-5.404,1.26
	c-1.137-0.467-2.248-1.023-3.487-1.169c-1.008-0.118-1.46-1.641-1.238-2.519c0.025-0.1,0.186-0.262,0.191-0.258
	c1.381,0.938,1.756-0.883,2.742-0.994c0.236-0.027,0.478-0.386,0.722-0.014c0.06,0.391-0.211,0.675-0.324,1.01
	c-0.339,1-0.053,1.9,0.771,2.418c0.768,0.482,1.908,0.386,2.573-0.217c0.693-0.629,0.81-1.453,0.331-2.397
	c-0.144-0.284-0.363-0.531-0.405-0.863C208.017,96.62,208.091,96.477,208.328,96.577z"/>
<path fill-rule="evenodd" clip-rule="evenodd" fill="#FEFDFC" d="M193.458,96.559c0.664,0.052,1.205,0.414,1.717,0.773
	c0.445,0.312,0.76,0.664,1.259,0.052c0.321-0.394,0.455,0.095,0.547,0.279c0.629,1.258-0.082,2.764-1.434,3.152
	c-1.371,0.392-2.729,0.828-4.095,1.236c-2.417,0.722-5.128-1.445-4.921-4.067c0.692,0.667,1.167,0.278,1.722-0.198
	c0.719-0.618,1.464-1.284,2.538-1.185c0.077,0.534-0.438,0.716-0.648,1.081c-0.535,0.923-0.384,1.969,0.411,2.584
	c0.846,0.654,2.06,0.574,2.85-0.188c0.717-0.691,0.787-1.611,0.182-2.481c-0.18-0.259-0.439-0.471-0.487-0.811
	C193.144,96.593,193.232,96.466,193.458,96.559z"/>
<path fill-rule="evenodd" clip-rule="evenodd" fill="#EC2825" d="M193.204,96.774c1.265,1.111,1.492,2.238,0.668,3.32
	c-0.752,0.988-2.255,1.235-3.347,0.549c-1.496-0.939-1.378-2.721,0.268-4.042c0.419-0.143,0.827-0.344,1.292-0.246
	C192.433,96.559,192.926,96.377,193.204,96.774z"/>
<path fill-rule="evenodd" clip-rule="evenodd" fill="#EC2725" d="M208.059,96.818c1.161,1.214,1.287,2.509,0.339,3.468
	c-0.854,0.863-2.459,0.933-3.398,0.149c-1.089-0.909-1.078-2.181,0.031-3.572c0.167-0.087,0.334-0.175,0.501-0.262
	c0.53-0.216,1.086-0.08,1.628-0.118C207.503,96.478,207.853,96.455,208.059,96.818z"/>
<path fill-rule="evenodd" clip-rule="evenodd" fill="#373535" d="M149.084,176.022c0-0.932,0-1.863,0-2.795
	c0.031-0.001,0.063-0.003,0.094-0.004c0,0.933,0,1.864,0,2.797C149.146,176.02,149.115,176.021,149.084,176.022z"/>
<path fill-rule="evenodd" clip-rule="evenodd" fill="#A5A3A2" d="M252.423,177.5l-0.079,0.01l-0.08-0.007
	c-0.001-0.638-0.002-1.276-0.003-1.914c0.053-0.142,0.105-0.135,0.157,0C252.42,176.227,252.422,176.863,252.423,177.5z"/>
<path fill-rule="evenodd" clip-rule="evenodd" fill="#F47A5B" d="M207.361,96.584c-0.61,0.006-1.22,0.011-1.83,0.017
	c0.523-0.452,1.127-0.333,1.727-0.245C207.381,96.392,207.42,96.466,207.361,96.584z"/>
<path fill-rule="evenodd" clip-rule="evenodd" fill="#EBCCBE" d="M193.204,96.774c-0.374-0.139-0.747-0.279-1.12-0.418
	c0.471-0.017,0.963-0.176,1.375,0.204C193.374,96.631,193.289,96.703,193.204,96.774z"/>
<path fill-rule="evenodd" clip-rule="evenodd" fill="#686565" d="M125.45,167.594c0.051-0.169,0.358-0.171,0.278-0.425
	c0.257,0,0.515,0,1.058,0C126.187,167.455,125.875,167.684,125.45,167.594z"/>
<path fill-rule="evenodd" clip-rule="evenodd" fill="#615E5E" d="M275.544,167.192c0.085,0.133,0.169,0.266,0.253,0.399
	c-0.409,0.083-0.694-0.201-1.178-0.278C275.021,167.111,275.279,167.096,275.544,167.192z"/>
<path fill-rule="evenodd" clip-rule="evenodd" fill="#A5A2A2" d="M149.216,178.463l-0.077,0.004l-0.077-0.004
	c0-0.427,0-0.854,0-1.576C149.339,177.593,149.255,178.03,149.216,178.463z"/>
<path fill-rule="evenodd" clip-rule="evenodd" fill="#666362" d="M252.418,175.59l-0.078-0.002l-0.079,0.002
	c0-0.348,0-0.696,0-1.187C252.55,174.882,252.445,175.239,252.418,175.59z"/>
<path fill-rule="evenodd" clip-rule="evenodd" fill="#E0CEC6" d="M207.361,96.584c-0.034-0.076-0.068-0.152-0.104-0.228
	c0.375-0.015,0.766-0.107,1.07,0.22c-0.09,0.081-0.18,0.161-0.27,0.241C207.826,96.74,207.594,96.662,207.361,96.584z"/>
<path fill-rule="evenodd" clip-rule="evenodd" fill="#030303" d="M198.456,129.233c-2.693,0.144-5.697-0.302-8.517-1.677
	c-1.193-0.583-2.305-1.296-2.78-2.643c-0.562-1.592-0.067-3.114,1.405-4.205c1.675-1.241,3.629-1.773,5.65-2.091
	c4.344-0.683,8.644-0.599,12.855,0.812c0.911,0.305,1.752,0.748,2.519,1.337c2.063,1.585,2.121,4.189,0.098,5.817
	c-1.831,1.472-4.04,1.973-6.281,2.393C201.901,129.258,200.388,129.215,198.456,129.233z"/>
<path fill-rule="evenodd" clip-rule="evenodd" fill="#030303" d="M199.292,110.116c-1.023,3.019-1.553,3.149-3.896,1.29
	c-1.177-0.934-2.238-2.062-3.734-2.523c-0.438-0.135-0.379-0.457-0.348-0.767c0.144-1.447,1.314-2.561,2.808-2.574
	c0.87-0.007,1.75,0.086,2.61,0.229c2.276,0.378,4.524,0.132,6.777-0.19c1.953-0.279,3.279,0.685,3.386,2.428
	c0.019,0.306,0.129,0.635-0.291,0.799c-1.676,0.655-2.821,2.051-4.247,3.058c-1.8,1.272-2.589,0.951-2.923-1.234
	C199.417,110.517,199.374,110.407,199.292,110.116z"/>
<path fill-rule="evenodd" clip-rule="evenodd" fill="#160703" d="M192.034,100.033c-0.866-0.043-1.45-0.381-1.467-1.275
	c-0.017-0.883,0.564-1.331,1.357-1.354c0.806-0.022,1.414,0.459,1.44,1.292C193.392,99.54,192.818,99.962,192.034,100.033z"/>
<path fill-rule="evenodd" clip-rule="evenodd" fill="#150703" d="M206.489,100.023c-0.79-0.094-1.331-0.494-1.299-1.374
	c0.032-0.889,0.637-1.277,1.437-1.257c0.824,0.021,1.379,0.532,1.347,1.366C207.942,99.597,207.354,100,206.489,100.023z"/>
<path fill-rule="evenodd" clip-rule="evenodd" fill="#FDFDFD" d="M196.983,122.602c-1.599-0.013-1.744-0.153-1.723-1.65
	c0.02-1.495,0.391-1.661,2.994-1.652c0.751,0.002,0.707,0.375,0.7,0.871C198.927,122.302,198.676,122.617,196.983,122.602z"/>
<path fill-rule="evenodd" clip-rule="evenodd" fill="#FEFEFE" d="M201.824,122.602c-1.7-0.003-1.713-0.01-1.691-2.014
	c0.006-0.594-0.166-1.557,0.861-1.166c0.864,0.329,2.464-0.731,2.562,1.09C203.661,122.486,203.475,122.606,201.824,122.602z"/>
<path fill-rule="evenodd" clip-rule="evenodd" fill="#FDFDFD" d="M193.975,121.133c0.021,0.771,0.123,1.576-1.081,1.477
	c-0.724-0.06-1.463,0.04-1.442-1.068c0.021-1.102,0.464-1.517,1.966-1.648C193.93,119.849,193.93,119.849,193.975,121.133z"/>
<path fill-rule="evenodd" clip-rule="evenodd" fill="#FAF9F9" d="M190.264,121.013c0.205,1.273-0.202,2.362-0.201,3.478
	c0,0.237-0.084,0.472-0.414,0.473c-0.768,0.003-1.734-1.586-1.356-2.262C188.716,121.944,189.401,121.486,190.264,121.013z"/>
<path fill-rule="evenodd" clip-rule="evenodd" fill="#F7F6F6" d="M204.727,120.963c0.146-0.375-0.188-1.064,0.493-0.875
	c0.637,0.177,1.759-0.148,1.675,1.143c-0.043,0.658,0.072,1.355-0.98,1.396C204.479,122.68,205.007,121.561,204.727,120.963z"/>
<path fill-rule="evenodd" clip-rule="evenodd" fill="#F7F7F7" d="M208.247,125.066c0-1.36,0-2.502,0-3.753
	c0.85,0.392,1.609,0.991,1.618,1.761C209.874,123.836,209.183,124.514,208.247,125.066z"/>
<path fill="none" d="M272.05,167.068c7.642,0,7.642,0-0.229-26.753c-14.487-10.838-16.789-12.308-19.728-12.308
	c-21.554,0-28.813-12.643-33.35-24.189c0.223-3.039,0.455-9.869-1.846-11.013c-0.65-0.323-1.393-0.2-2.211,0.353
	c-2.033-4.714-4.356-7.971-8.482-7.971c0-5.583-14.616-5.583-14.616,0c-3.866,0-6.086,3.276-8.04,8.012
	c-0.869-0.625-1.652-0.778-2.334-0.439c-2.507,1.248-2.007,9.257-1.788,11.742c-4.324,11.356-11.198,23.506-30.493,23.506
	c-3.373,0-7.335,2.471-20.002,12.308c-7.826,26.753-7.826,26.753,0,26.753c-6.71,0-15.493,0.212-10.7,51.622
	c0.798,8.563,1.756,18.545,2.874,30.182c0,19.248,0,14.999,0,26.608c0,7.359,27.828,7.359,27.828,0c11.676,0,11.676,0,0-25.476
	c-7.521-16.411,0-37.708,0-82.937c0,64.735,10.869,75.27,17.625,73.253c-4.778,10.706-11.133,27.799,3.456,27.799
	c5.292,0-21.081,7.36,0,7.36c36.19,0,13.942-32.286,21.574-32.286c9.752,0,0,0,14.616,0c5.629,0-14.616,32.286,21.995,32.286
	c23.894,0-7.027-7.36,0-7.36c16.481,0,9.387-16.956,3.978-27.671c7.791,1.316,19.916-10.29,19.916-73.381
	c0,36.161,7.622,66.971,0.069,82.937c-12.05,25.476-12.05,25.476-0.069,25.476c0,7.359,27.828,7.359,27.828,0
	c0-16.412,0-7.36,0-26.608C287.792,167.068,279.691,167.068,272.05,167.068z M240.288,147.521c3.925,0,3.925,29.563,0,29.563
	c-19.346,0-17.222,0-37.808,0c0-15.291,0-15.384,0-29.563C202.48,142.41,240.288,142.41,240.288,147.521z M160.739,147.521
	c0-5.111,37.665-5.111,37.665,0c0,16.318,0,16.241,0,29.563c-18.184,0-23.116,0-37.665,0c-0.284,0-0.545-0.165-0.788-0.443h19.053
	h19.089V161.73v-14.912l-1.36-0.623c-5.964-2.736-28.363-2.733-33.905,0.005c-3.753,1.855-4.908,6.561-4.482,18.27
	c0.157,4.358,0.576,8.881,0.929,10.049l0.622,2.052C156.784,172.702,157.063,147.521,160.739,147.521z M240.113,223.082
	c0,9.207-79.504,9.207-79.504,0c-11.676-43.131,0-40.803,0-42.136c33.585,0,45.482,0,79.504,0
	C240.113,183.335,252.094,180.616,240.113,223.082z M202.722,161.795l-0.15,14.86l19.208-0.147l19.207-0.15l0.838-2.265
	c0.605-1.635,0.85-4.779,0.881-11.322c0.049-9.825-0.552-13.244-2.698-15.407c-2.147-2.162-7.853-3.148-18.303-3.164
	c-9.16-0.015-14.39,0.591-17.326,2.009l-1.507,0.728L202.722,161.795z M240.045,181.17h-39.684c-44.451,0-41.337-0.301-43.356,4.18
	c-2.118,4.694-1.28,15.826,2.358,31.368c1.744,7.447,1.783,7.535,3.802,8.563c4.021,2.048,15.043,3.731,27.62,4.219
	c7.003,0.272,24.161-0.185,30.638-0.814c7.01-0.682,13.43-2.037,16.091-3.398c2.025-1.034,2.046-1.087,4.065-9.415
	c2.848-11.752,3.341-14.909,3.382-21.681c0.041-6.414-0.531-8.301-3.468-11.463L240.045,181.17z"/>
</svg>
