<?xml version="1.0" encoding="utf-8"?>
<!-- Generator: Adobe Illustrator 16.0.0, SVG Export Plug-In . SVG Version: 6.00 Build 0)  -->
<!DOCTYPE svg PUBLIC "-//W3C//DTD SVG 1.1//EN" "http://www.w3.org/Graphics/SVG/1.1/DTD/svg11.dtd">
<svg version="1.1" id="Layer_1" xmlns="http://www.w3.org/2000/svg" xmlns:xlink="http://www.w3.org/1999/xlink" x="0px" y="0px"
	 width="600px" height="400px" viewBox="0 0 600 400" enable-background="new 0 0 600 400" xml:space="preserve">
<g>
	
		<line fill="none" stroke="#DEDB24" stroke-width="2.8274" stroke-linecap="square" stroke-miterlimit="10" x1="483.583" y1="307.803" x2="338.963" y2="307.803"/>
	<g>
		<path fill="none" d="M384.871,276.055"/>
	</g>
	
		<line fill="none" stroke="#DEDB24" stroke-width="3.5714" stroke-linecap="square" stroke-miterlimit="10" x1="483.583" y1="307.803" x2="483.583" y2="243.916"/>
	
		<rect x="476.868" y="223.961" fill="#DEDB24" stroke="#7E7B31" stroke-width="3" stroke-miterlimit="10" width="13.43" height="19.182"/>
	
		<rect x="501.423" y="223.961" fill="#16A94A" stroke="#116735" stroke-width="3" stroke-miterlimit="10" width="13.428" height="19.182"/>
	<g>
		
			<rect x="458.817" y="116.793" fill="none" stroke="#A51E29" stroke-width="5.0128" stroke-miterlimit="10" width="76.928" height="104.615"/>
		
			<line fill="none" stroke="#EC2227" stroke-width="5.0128" stroke-miterlimit="10" x1="454.971" y1="114.102" x2="539.588" y2="114.102"/>
		
			<line fill="none" stroke="#EC2227" stroke-width="5.0128" stroke-miterlimit="10" x1="454.971" y1="224.102" x2="539.588" y2="224.102"/>
		<g>
			<path fill="none" d="M521.915,176.215"/>
		</g>
		<g>
			<path fill="none" d="M473.844,147.372"/>
		</g>
		<g>
			<path fill="none" d="M473.844,176.215"/>
		</g>
		<g>
			<path fill="none" d="M521.915,147.372"/>
		</g>
		<polygon points="521.077,183.525 497.28,197.947 473.482,183.525 473.482,154.677 497.28,140.254 521.077,154.677 		"/>
		<g>
			<polygon fill="#EC2227" points="497.28,169.102 480.622,159.004 497.28,148.907 513.939,159.004 			"/>
			<polygon fill="#DEDB24" points="497.28,169.102 497.28,179.195 497.28,189.293 488.949,184.244 480.622,179.195 488.949,174.148 
							"/>
			<polygon fill="#4368B1" points="497.281,169.102 497.281,179.195 497.28,189.293 505.608,184.244 513.939,179.195 
				505.608,174.148 			"/>
			<polygon fill="#16A94A" points="480.622,159.004 488.949,164.054 497.28,169.102 488.949,174.148 480.622,179.195 
				480.622,169.102 			"/>
			<polygon fill="#6E1A45" points="513.939,158.993 505.608,164.042 497.28,169.088 505.608,174.135 513.939,179.184 
				513.939,169.088 			"/>
		</g>
	</g>
	<g>
		<g>
			<path fill="none" stroke="#16A94A" stroke-width="2" stroke-miterlimit="10" d="M517.692,253.475
				c-5.282,5.281-13.831,5.281-19.112,0"/>
			<path fill="none" stroke="#16A94A" stroke-width="2" stroke-miterlimit="10" d="M515.193,250.975c-3.9,3.9-10.215,3.9-14.114,0"
				/>
			<path fill="none" stroke="#16A94A" stroke-width="2" stroke-miterlimit="10" d="M512.266,248.283
				c-2.281,2.283-5.979,2.283-8.263,0"/>
		</g>
	</g>
	<rect x="96.496" y="145.055" stroke="#171617" stroke-width="6.7694" stroke-miterlimit="10" width="15" height="151.033"/>
	<rect x="304.104" y="145.055" stroke="#171617" stroke-width="6.7691" stroke-miterlimit="10" width="15" height="151.033"/>
	<g>
		<path fill="none" d="M155.688,299.101"/>
	</g>
	<rect x="69.674" y="294.088" stroke="#171617" stroke-width="4.6397" stroke-miterlimit="10" width="271.689" height="25.912"/>
	<rect x="93.899" y="302.389" fill="#16A94A" width="20.061" height="10.031"/>
	<rect x="138.656" y="302.389" fill="#DEDB24" width="133.724" height="10.031"/>
	<g>
		<g>
			<path fill="none" stroke="#4368B1" stroke-width="6.6869" stroke-miterlimit="10" d="M268.019,98.064
				c24.092-24.086,63.08-24.086,87.167,0"/>
			<path fill="none" stroke="#4368B1" stroke-width="6.6869" stroke-miterlimit="10" d="M279.417,109.466
				c17.788-17.788,46.587-17.788,64.37,0"/>
			<path fill="none" stroke="#4368B1" stroke-width="6.6869" stroke-miterlimit="10" d="M292.765,121.741
				c10.404-10.413,27.266-10.413,37.683,0"/>
		</g>
	</g>
	<g>
		<g>
			<path fill="none" stroke="#4368B1" stroke-width="6.6869" stroke-miterlimit="10" d="M60.412,98.064
				c24.091-24.086,63.079-24.086,87.166,0"/>
			<path fill="none" stroke="#4368B1" stroke-width="6.6869" stroke-miterlimit="10" d="M71.811,109.466
				c17.788-17.788,46.586-17.788,64.369,0"/>
			<path fill="none" stroke="#4368B1" stroke-width="6.6869" stroke-miterlimit="10" d="M85.158,121.741
				c10.404-10.413,27.265-10.413,37.682,0"/>
		</g>
	</g>
</g>
</svg>
