<?xml version="1.0" encoding="utf-8"?>
<!-- Generator: Adobe Illustrator 16.0.0, SVG Export Plug-In . SVG Version: 6.00 Build 0)  -->
<!DOCTYPE svg PUBLIC "-//W3C//DTD SVG 1.1//EN" "http://www.w3.org/Graphics/SVG/1.1/DTD/svg11.dtd">
<svg version="1.1" id="Layer_1" xmlns="http://www.w3.org/2000/svg" xmlns:xlink="http://www.w3.org/1999/xlink" x="0px" y="0px"
	 width="400px" height="400px" viewBox="0 0 400 400" enable-background="new 0 0 400 400" xml:space="preserve">
<polygon fill="#020202" stroke="#000000" stroke-miterlimit="10" points="364.999,300.002 200,400 35.001,300.002 35.001,99.999 
	200,0 364.999,99.999 "/>
<polygon fill="#4368B1" stroke="#4368B1" stroke-miterlimit="10" points="315.856,270.001 200.001,340 84.144,270.001 
	84.145,130.001 200.001,60 315.856,130.001 "/>
<g>
	<path fill-rule="evenodd" clip-rule="evenodd" fill="#4368B1" d="M208.148,100.041c2.18,0.833,4.509,0.715,6.771,1.061
		c42.075,6.461,75.629,38.343,83.212,80.232c6.046,33.374-2.57,63.032-25.979,87.692c-21.063,22.197-47.427,32.28-77.925,30.789
		c-46.061-2.244-84.692-36.749-92.723-82.354c-0.439-2.496-0.729-5.018-1.094-7.522c-0.058-0.357,0.113-0.813-0.41-0.964
		c0-5.595,0-11.189,0-16.793c0.463-0.215,0.304-0.663,0.337-1.021c1.167-13.633,4.847-26.58,11.519-38.514
		c15.594-27.889,39.096-45.056,70.575-51.078c3.338-0.634,6.729-1.025,10.096-1.529
		C197.736,100.041,202.936,100.041,208.148,100.041z M268.16,187.722c-2.818-2.871-5.604-5.774-8.458-8.624
		c-2.073-2.065-4.762-2.176-6.607-0.379c-1.801,1.77-1.772,4.604,0.224,6.62c5.758,5.831,11.572,11.612,17.379,17.394
		c1.455,1.452,3.175,2.05,5.146,1.184c1.956-0.853,2.664-2.415,2.664-4.529c0-13.491-3.351-26.112-9.945-37.814
		c-15.87-28.149-46.524-43.719-78.708-39.547c-18.35,2.375-34.028,10.336-46.856,23.729c-9.165,9.556-15.479,20.766-18.952,33.549
		c-0.895,3.31,1.232,6.063,4.469,5.904c2.257-0.109,3.443-1.302,4.31-4.294c9.56-33.195,41.56-54.347,75.795-50.106
		c28.76,3.557,52.514,24.819,59.161,52.997c0.301,1.272,0.96,2.565,0.379,3.937V187.722z M131.479,212.053
		c3.135,3.164,5.896,5.98,8.701,8.746c2.05,2.018,4.79,2.058,6.596,0.187c1.781-1.838,1.708-4.439-0.264-6.416
		c-5.778-5.814-11.581-11.604-17.388-17.39c-1.602-1.599-3.317-1.943-5.144-1.11c-1.857,0.862-2.626,2.354-2.605,4.379
		c0.04,4.502,0.459,8.954,1.216,13.385c6.533,38.055,40.814,65.974,79.376,64.72c19.94-0.646,37.229-7.68,51.798-21.233
		c10.763-10.014,18.114-22.176,22.042-36.362c0.712-2.565-0.081-4.68-2.073-5.685c-2.785-1.398-5.607,0.131-6.583,3.606
		c-8.97,31.984-40.49,55.075-75.844,50.188c-28.666-3.965-47.756-20.351-57.628-47.483C132.625,218.7,131.808,215.7,131.479,212.053
		z"/>
	<path fill-rule="evenodd" clip-rule="evenodd" fill="#FFFFFF" d="M268.16,187.742c0.581-1.371-0.078-2.664-0.379-3.937
		c-6.647-28.178-30.401-49.439-59.161-52.997c-34.236-4.241-66.236,16.911-75.795,50.106c-0.866,2.992-2.053,4.185-4.31,4.294
		c-3.236,0.158-5.363-2.595-4.469-5.904c3.473-12.784,9.787-23.994,18.952-33.549c12.828-13.394,28.507-21.355,46.856-23.729
		c32.183-4.172,62.837,11.397,78.708,39.547c6.595,11.702,9.945,24.323,9.945,37.814c0,2.114-0.708,3.677-2.664,4.529
		c-1.972,0.866-3.691,0.269-5.146-1.184c-5.807-5.781-11.621-11.563-17.379-17.394c-1.996-2.017-2.024-4.851-0.224-6.62
		c1.846-1.797,4.534-1.687,6.607,0.379c2.854,2.85,5.64,5.753,8.458,8.624c0.012-0.146,0.451,0.061,0.219-0.276
		C268.302,187.555,268.229,187.644,268.16,187.742z"/>
	<path fill-rule="evenodd" clip-rule="evenodd" fill="#FFFFFF" d="M131.479,212.053c0.329,3.647,1.146,6.647,2.2,9.531
		c9.872,27.133,28.962,43.519,57.628,47.483c35.354,4.887,66.875-18.204,75.844-50.188c0.976-3.476,3.798-5.005,6.583-3.606
		c1.992,1.005,2.785,3.119,2.073,5.685c-3.928,14.187-11.279,26.349-22.042,36.362c-14.568,13.554-31.857,20.588-51.798,21.233
		c-38.562,1.254-72.843-26.665-79.376-64.72c-0.757-4.431-1.176-8.883-1.216-13.385c-0.021-2.024,0.748-3.517,2.605-4.379
		c1.826-0.833,3.542-0.488,5.144,1.11c5.807,5.785,11.609,11.575,17.388,17.39c1.972,1.977,2.045,4.578,0.264,6.416
		c-1.806,1.871-4.546,1.831-6.596-0.187C137.375,218.033,134.614,215.217,131.479,212.053z"/>
</g>
</svg>
