<?xml version="1.0" encoding="utf-8"?>
<!-- Generator: Adobe Illustrator 16.0.0, SVG Export Plug-In . SVG Version: 6.00 Build 0)  -->
<!DOCTYPE svg PUBLIC "-//W3C//DTD SVG 1.1//EN" "http://www.w3.org/Graphics/SVG/1.1/DTD/svg11.dtd">
<svg version="1.1" id="Layer_1" xmlns="http://www.w3.org/2000/svg" xmlns:xlink="http://www.w3.org/1999/xlink" x="0px" y="0px"
	 width="600px" height="400px" viewBox="0 0 600 400" enable-background="new 0 0 600 400" xml:space="preserve">
<g>
	<g>
		<path fill="none" d="M404.143,267.286"/>
	</g>
	<g>
		
			<rect x="530.696" y="153.192" fill="#16A94A" stroke="#116735" stroke-width="3" stroke-miterlimit="10" width="13.428" height="19.182"/>
		<g>
			
				<rect x="488.088" y="46.024" fill="none" stroke="#A51E29" stroke-width="5.0128" stroke-miterlimit="10" width="76.928" height="104.616"/>
			
				<line fill="none" stroke="#EC2227" stroke-width="5.0128" stroke-miterlimit="10" x1="484.244" y1="43.333" x2="568.86" y2="43.333"/>
			
				<line fill="none" stroke="#EC2227" stroke-width="5.0128" stroke-miterlimit="10" x1="484.244" y1="153.333" x2="568.86" y2="153.333"/>
			<g>
				<path fill="none" d="M551.188,105.446"/>
			</g>
			<g>
				<path fill="none" d="M503.117,76.603"/>
			</g>
			<g>
				<path fill="none" d="M503.117,105.446"/>
			</g>
			<g>
				<path fill="none" d="M551.188,76.603"/>
			</g>
			<polygon points="550.35,112.757 526.551,127.179 502.754,112.757 502.754,83.908 526.551,69.485 550.35,83.908 			"/>
			<g>
				<polygon fill="#EC2227" points="526.551,98.333 509.895,88.235 526.551,78.139 543.211,88.235 				"/>
				<polygon fill="#DEDB24" points="526.551,98.333 526.551,108.427 526.551,118.524 518.221,113.476 509.895,108.427 
					518.221,103.38 				"/>
				<polygon fill="#4368B1" points="526.553,98.333 526.553,108.427 526.551,118.524 534.879,113.476 543.211,108.427 
					534.879,103.38 				"/>
				<polygon fill="#16A94A" points="509.895,88.235 518.221,93.285 526.551,98.333 518.221,103.38 509.895,108.427 509.895,98.333 
									"/>
				<polygon fill="#6E1A45" points="543.211,88.224 534.879,93.273 526.551,98.319 534.879,103.366 543.211,108.415 543.211,98.319 
									"/>
			</g>
		</g>
		<g>
			<g>
				<path fill="none" stroke="#16A94A" stroke-width="2" stroke-miterlimit="10" d="M546.963,182.706
					c-5.281,5.281-13.83,5.281-19.111,0"/>
				<path fill="none" stroke="#16A94A" stroke-width="2" stroke-miterlimit="10" d="M544.465,180.206c-3.9,3.9-10.215,3.9-14.115,0"
					/>
				<path fill="none" stroke="#16A94A" stroke-width="2" stroke-miterlimit="10" d="M541.539,177.515
					c-2.283,2.283-5.979,2.283-8.264,0"/>
			</g>
		</g>
	</g>
	<g>
		
			<rect x="530.696" y="323.192" fill="#16A94A" stroke="#116735" stroke-width="3" stroke-miterlimit="10" width="13.428" height="19.182"/>
		<g>
			
				<rect x="488.088" y="216.024" fill="none" stroke="#A51E29" stroke-width="5.0128" stroke-miterlimit="10" width="76.928" height="104.614"/>
			
				<line fill="none" stroke="#EC2227" stroke-width="5.0128" stroke-miterlimit="10" x1="484.244" y1="213.333" x2="568.86" y2="213.333"/>
			
				<line fill="none" stroke="#EC2227" stroke-width="5.0128" stroke-miterlimit="10" x1="484.244" y1="323.333" x2="568.86" y2="323.333"/>
			<g>
				<path fill="none" d="M551.188,275.446"/>
			</g>
			<g>
				<path fill="none" d="M503.117,246.603"/>
			</g>
			<g>
				<path fill="none" d="M503.117,275.446"/>
			</g>
			<g>
				<path fill="none" d="M551.188,246.603"/>
			</g>
			<polygon points="550.35,282.757 526.551,297.179 502.754,282.757 502.754,253.907 526.551,239.485 550.35,253.907 			"/>
			<g>
				<polygon fill="#EC2227" points="526.551,268.333 509.895,258.235 526.551,248.14 543.211,258.235 				"/>
				<polygon fill="#DEDB24" points="526.551,268.333 526.551,278.427 526.551,288.524 518.221,283.476 509.895,278.427 
					518.221,273.38 				"/>
				<polygon fill="#4368B1" points="526.553,268.333 526.553,278.427 526.551,288.524 534.879,283.476 543.211,278.427 
					534.879,273.38 				"/>
				<polygon fill="#16A94A" points="509.895,258.235 518.221,263.284 526.551,268.333 518.221,273.38 509.895,278.427 
					509.895,268.333 				"/>
				<polygon fill="#6E1A45" points="543.211,258.224 534.879,263.272 526.551,268.319 534.879,273.366 543.211,278.415 
					543.211,268.319 				"/>
			</g>
		</g>
		<g>
			<g>
				<path fill="none" stroke="#16A94A" stroke-width="2" stroke-miterlimit="10" d="M546.963,352.706
					c-5.281,5.281-13.83,5.281-19.111,0"/>
				<path fill="none" stroke="#16A94A" stroke-width="2" stroke-miterlimit="10" d="M544.465,350.206c-3.9,3.9-10.215,3.9-14.115,0"
					/>
				<path fill="none" stroke="#16A94A" stroke-width="2" stroke-miterlimit="10" d="M541.539,347.515
					c-2.283,2.283-5.979,2.283-8.264,0"/>
			</g>
		</g>
	</g>
	<g>
		<g>
			<g>
				<path fill="none" stroke="#16A94A" stroke-width="7.625" stroke-miterlimit="10" d="M266.719,338.937
					c-20.139,20.135-52.731,20.135-72.869,0"/>
				<path fill="none" stroke="#16A94A" stroke-width="7.625" stroke-miterlimit="10" d="M257.192,329.405
					c-14.874,14.869-38.94,14.869-53.814,0"/>
				<path fill="none" stroke="#16A94A" stroke-width="7.625" stroke-miterlimit="10" d="M246.033,319.146
					c-8.701,8.703-22.797,8.703-31.501,0"/>
			</g>
		</g>
		<g>
			<rect x="31.14" y="45.993" stroke="#171617" stroke-width="15.9315" stroke-miterlimit="10" width="398.29" height="240"/>
			<rect x="43.354" y="232.375" fill="#FFFFFF" width="373.859" height="40.931"/>
			<path id="rect3330_3_" fill="#6E1A44" d="M89.993,122.015H78.835c-10.111,0-18.314-8.201-18.314-18.32V92.54
				c0-10.119,8.203-18.32,18.314-18.32h11.158c10.116,0,18.321,8.201,18.321,18.32v11.155
				C108.315,113.815,100.109,122.015,89.993,122.015z"/>
			<path id="rect3330_1_" fill="#EC2227" d="M153.72,122.015h-11.159c-10.112,0-18.314-8.201-18.314-18.32V92.54
				c0-10.119,8.202-18.32,18.314-18.32h11.159c10.115,0,18.32,8.201,18.32,18.32v11.155
				C172.041,113.815,163.836,122.015,153.72,122.015z"/>
			<path id="rect3330_2_" fill="#16A94A" d="M217.445,122.015h-11.158c-10.111,0-18.313-8.201-18.313-18.32V92.54
				c0-10.119,8.202-18.32,18.313-18.32h11.158c10.116,0,18.321,8.201,18.321,18.32v11.155
				C235.767,113.815,227.562,122.015,217.445,122.015z"/>
			<path id="rect3330_4_" fill="#4368B1" d="M281.173,122.015h-11.158c-10.113,0-18.315-8.201-18.315-18.32V92.54
				c0-10.119,8.202-18.32,18.315-18.32h11.158c10.115,0,18.32,8.201,18.32,18.32v11.155
				C299.493,113.815,291.288,122.015,281.173,122.015z"/>
			<path id="rect3330_5_" fill="#DEDB24" d="M344.899,122.015H333.74c-10.113,0-18.314-8.201-18.314-18.32V92.54
				c0-10.119,8.201-18.32,18.314-18.32h11.158c10.113,0,18.318,8.201,18.318,18.32v11.155
				C363.217,113.815,355.012,122.015,344.899,122.015z"/>
			<path id="rect3330_7_" fill="#116735" d="M281.173,185.741h-11.158c-10.113,0-18.315-8.201-18.315-18.32v-11.155
				c0-10.119,8.202-18.32,18.315-18.32h11.158c10.115,0,18.32,8.201,18.32,18.32v11.155
				C299.493,177.54,291.288,185.741,281.173,185.741z"/>
			<path id="rect3330_8_" fill="#1D304B" d="M217.445,185.741h-11.158c-10.111,0-18.313-8.201-18.313-18.32v-11.155
				c0-10.119,8.202-18.32,18.313-18.32h11.158c10.116,0,18.321,8.201,18.321,18.32v11.155
				C235.767,177.54,227.562,185.741,217.445,185.741z"/>
			<path id="rect3330_9_" fill="#171617" d="M153.72,185.741h-11.159c-10.112,0-18.314-8.201-18.314-18.32v-11.155
				c0-10.119,8.202-18.32,18.314-18.32h11.159c10.115,0,18.32,8.201,18.32,18.32v11.155
				C172.041,177.54,163.836,185.741,153.72,185.741z"/>
			<path id="rect3330_10_" fill="#FFFFFF" d="M89.993,185.741H78.835c-10.111,0-18.314-8.201-18.314-18.32v-11.155
				c0-10.119,8.203-18.32,18.314-18.32h11.158c10.116,0,18.321,8.201,18.321,18.32v11.155
				C108.315,177.54,100.109,185.741,89.993,185.741z"/>
		</g>
	</g>
</g>
</svg>
