<?xml version="1.0" encoding="utf-8"?>
<!-- Generator: Adobe Illustrator 16.0.0, SVG Export Plug-In . SVG Version: 6.00 Build 0)  -->
<!DOCTYPE svg PUBLIC "-//W3C//DTD SVG 1.1//EN" "http://www.w3.org/Graphics/SVG/1.1/DTD/svg11.dtd">
<svg version="1.1" id="Layer_1" xmlns="http://www.w3.org/2000/svg" xmlns:xlink="http://www.w3.org/1999/xlink" x="0px" y="0px"
	 width="400px" height="400px" viewBox="0 0 400 400" enable-background="new 0 0 400 400" xml:space="preserve">
<polygon fill="#020202" stroke="#000000" stroke-miterlimit="10" points="364.999,300.002 200,400 35.001,300.002 35.001,99.999 
	200,0 364.999,99.999 "/>
<polygon fill="#16A94A" stroke="#15A84B" points="315.856,270.001 200.001,340 84.144,270.001 84.145,130.001 200.001,60 
	315.856,130.001 "/>
<g>
	<g>
		<defs>
			<path id="SVGID_1_" d="M176.657,71.998h46.687c42.337,0,76.656,34.319,76.656,76.657v46.689
				c0,42.335-34.319,76.657-76.656,76.657h-46.687c-42.341,0-76.657-34.322-76.657-76.657v-46.689
				C100,106.317,134.316,71.998,176.657,71.998z"/>
		</defs>
		<clipPath id="SVGID_2_">
			<use xlink:href="#SVGID_1_"  overflow="visible"/>
		</clipPath>
		<path id="path3305" clip-path="url(#SVGID_2_)" fill="none" stroke="#9FD2A2" stroke-width="16.1386" d="M201.873,127.477
			c-65.306-6.909-121.213,96.524-22.911,155.188"/>
	</g>
	<g>
		<defs>
			<path id="SVGID_3_" d="M176.657,71.998h46.687c42.337,0,76.656,34.319,76.656,76.657v46.689
				c0,42.335-34.319,76.657-76.656,76.657h-46.687c-42.341,0-76.657-34.322-76.657-76.657v-46.689
				C100,106.317,134.316,71.998,176.657,71.998z"/>
		</defs>
		<clipPath id="SVGID_4_">
			<use xlink:href="#SVGID_3_"  overflow="visible"/>
		</clipPath>
		<path id="path3307" clip-path="url(#SVGID_4_)" fill="none" stroke="#CFE8D0" stroke-width="16.1386" d="M231.988,153.845
			c-47.719-23.813-90.427,12.632-86.287,53.125c4.262,41.68,42.792,75.704,129.584,60.111"/>
	</g>
	<g>
		<defs>
			<path id="SVGID_5_" d="M176.657,71.998h46.687c42.337,0,76.656,34.319,76.656,76.657v46.689
				c0,42.335-34.319,76.657-76.656,76.657h-46.687c-42.341,0-76.657-34.322-76.657-76.657v-46.689
				C100,106.317,134.316,71.998,176.657,71.998z"/>
		</defs>
		<clipPath id="SVGID_6_">
			<use xlink:href="#SVGID_5_"  overflow="visible"/>
		</clipPath>
		<path id="path3309" clip-path="url(#SVGID_6_)" fill="none" stroke="#FFFFFF" stroke-width="16.1386" d="M237.584,186.117
			c-15.843-28.532-52.867-24.484-66.116-3.453c-10.388,16.476-12.175,56.61,44.96,66.282c26.316,3.789,66.474-0.477,97.41-4.038"/>
	</g>
</g>
</svg>
