<?xml version="1.0" encoding="utf-8"?>
<!-- Generator: Adobe Illustrator 16.0.0, SVG Export Plug-In . SVG Version: 6.00 Build 0)  -->
<!DOCTYPE svg PUBLIC "-//W3C//DTD SVG 1.1//EN" "http://www.w3.org/Graphics/SVG/1.1/DTD/svg11.dtd">
<svg version="1.1" id="Layer_1" xmlns="http://www.w3.org/2000/svg" xmlns:xlink="http://www.w3.org/1999/xlink" x="0px" y="0px"
	 width="600px" height="400px" viewBox="0 0 600 400" enable-background="new 0 0 600 400" xml:space="preserve">
<g>
	
		<line fill="none" stroke="#6E1B45" stroke-width="5" stroke-miterlimit="10" stroke-dasharray="5" x1="81.966" y1="120.891" x2="133.437" y2="120.891"/>
	
		<line fill="none" stroke="#6E1B45" stroke-width="5" stroke-miterlimit="10" stroke-dasharray="5" x1="211.966" y1="280.891" x2="263.437" y2="280.891"/>
	
		<line fill="none" stroke="#6E1B45" stroke-width="5" stroke-miterlimit="10" stroke-dasharray="5" x1="466.966" y1="280.891" x2="518.438" y2="280.891"/>
	
		<line fill="none" stroke="#17A94B" stroke-width="5" stroke-miterlimit="10" stroke-dasharray="5" x1="171.711" y1="174.744" x2="171.711" y2="222.572"/>
	
		<line fill="none" stroke="#17A94B" stroke-width="5" stroke-miterlimit="10" stroke-dasharray="5" x1="428.711" y1="174.744" x2="428.711" y2="222.572"/>
	
		<line fill="none" stroke="#E9292C" stroke-width="5" stroke-miterlimit="10" stroke-dasharray="5" x1="338.966" y1="280.891" x2="390.438" y2="280.891"/>
	
		<line fill="none" stroke="#476AB2" stroke-width="5" stroke-miterlimit="10" stroke-dasharray="4.5597" x1="81.966" y1="280.891" x2="133.438" y2="280.891"/>
	
		<line fill="none" stroke="#E9292C" stroke-width="5" stroke-miterlimit="10" stroke-dasharray="5" x1="211.966" y1="120.891" x2="263.437" y2="120.891"/>
	
		<line fill="none" stroke="#476AB2" stroke-width="5" stroke-miterlimit="10" stroke-dasharray="4.5597" x1="465.966" y1="120.891" x2="517.438" y2="120.891"/>
</g>
<g>
	<g>
		<g>
			
				<line fill="none" stroke="#DFDB25" stroke-width="5" stroke-miterlimit="10" x1="42.419" y1="477.429" x2="42.419" y2="352.244"/>
			
				<rect x="35.704" y="332.289" fill="#DFDB25" stroke="#7E7C31" stroke-width="3" stroke-miterlimit="10" width="13.431" height="19.183"/>
		</g>
		<g>
			<g>
				
					<rect x="5.237" y="225.256" fill="none" stroke="#31507E" stroke-width="5" stroke-miterlimit="10" width="76.729" height="104.349"/>
				<line fill="none" stroke="#466AB3" stroke-width="5" stroke-miterlimit="10" x1="1.4" y1="222.572" x2="85.799" y2="222.572"/>
				<line fill="none" stroke="#466AB3" stroke-width="5" stroke-miterlimit="10" x1="1.4" y1="332.289" x2="85.799" y2="332.289"/>
			</g>
			<g>
				<path fill="none" d="M69.171,284.527"/>
			</g>
			<g>
				<path fill="none" d="M21.225,255.757"/>
			</g>
			<g>
				<path fill="none" d="M21.225,284.527"/>
			</g>
			<g>
				<path fill="none" d="M69.171,255.757"/>
			</g>
			<g>
				<polygon fill="#010101" points="67.502,291.817 43.6,306.202 19.697,291.817 19.698,263.044 43.6,248.658 67.502,263.044 				
					"/>
				<g>
					<g>
						<rect x="34.052" y="270.583" fill="#498ECC" width="18.919" height="6.821"/>
						<circle fill="#498ECC" cx="34.053" cy="272.741" r="4.663"/>
						<circle fill="#498ECC" cx="52.97" cy="272.741" r="4.663"/>
						<circle fill="#498ECC" cx="37.755" cy="266.987" r="4.663"/>
						<circle fill="#498ECC" cx="49.16" cy="266.987" r="4.663"/>
						<circle fill="#498ECC" cx="43.512" cy="264.189" r="4.663"/>
						<rect x="34.052" y="268.451" fill="#498ECC" width="18.919" height="4.689"/>
					</g>
					<g>
						<rect x="34.052" y="274.847" fill="#50AEE2" width="18.919" height="6.82"/>
						<circle fill="#50AEE2" cx="34.053" cy="277.005" r="4.663"/>
						<circle fill="#50AEE2" cx="52.97" cy="277.005" r="4.663"/>
						<circle fill="#50AEE2" cx="37.755" cy="271.249" r="4.663"/>
						<circle fill="#50AEE2" cx="49.16" cy="271.249" r="4.663"/>
						<circle fill="#50AEE2" cx="43.512" cy="268.451" r="4.663"/>
						<rect x="34.052" y="272.715" fill="#50AEE2" width="18.919" height="4.688"/>
					</g>
					<g>
						<rect x="34.052" y="280.176" fill="#6BCAF3" width="18.919" height="6.82"/>
						<circle fill="#6BCAF3" cx="34.053" cy="282.333" r="4.663"/>
						<circle fill="#6BCAF3" cx="52.97" cy="282.333" r="4.663"/>
						<circle fill="#6BCAF3" cx="37.755" cy="276.578" r="4.663"/>
						<circle fill="#6BCAF3" cx="49.16" cy="276.578" r="4.663"/>
						<circle fill="#6BCAF3" cx="43.512" cy="273.781" r="4.663"/>
						<rect x="34.052" y="278.043" fill="#6BCAF3" width="18.919" height="4.689"/>
					</g>
					<g>
						<rect x="34.052" y="285.505" fill="#FFFFFF" width="18.919" height="6.819"/>
						<circle fill="#FFFFFF" cx="34.053" cy="287.662" r="4.663"/>
						<circle fill="#FFFFFF" cx="52.97" cy="287.662" r="4.663"/>
						<circle fill="#FFFFFF" cx="37.755" cy="281.907" r="4.663"/>
						<circle fill="#FFFFFF" cx="49.16" cy="281.907" r="4.663"/>
						<circle fill="#FFFFFF" cx="43.512" cy="279.11" r="4.663"/>
						<rect x="34.052" y="283.372" fill="#FFFFFF" width="18.919" height="4.689"/>
					</g>
				</g>
			</g>
		</g>
	</g>
	<g>
		<g>
			
				<line fill="none" stroke="#DFDB25" stroke-width="5" stroke-miterlimit="10" x1="171.712" y1="477.429" x2="171.712" y2="352.244"/>
			
				<rect x="164.996" y="332.289" fill="#DFDB25" stroke="#7E7C31" stroke-width="3" stroke-miterlimit="10" width="13.431" height="19.183"/>
		</g>
		<g>
			<g>
				
					<rect x="133.437" y="225.256" fill="none" stroke="#31507E" stroke-width="5" stroke-miterlimit="10" width="76.729" height="104.349"/>
				
					<line fill="none" stroke="#466AB3" stroke-width="5" stroke-miterlimit="10" x1="129.601" y1="222.572" x2="213.999" y2="222.572"/>
				
					<line fill="none" stroke="#466AB3" stroke-width="5" stroke-miterlimit="10" x1="129.601" y1="332.289" x2="213.999" y2="332.289"/>
			</g>
			<g>
				<path fill="none" d="M197.372,284.527"/>
			</g>
			<g>
				<path fill="none" d="M149.425,255.757"/>
			</g>
			<g>
				<path fill="none" d="M149.425,284.527"/>
			</g>
			<g>
				<path fill="none" d="M197.372,255.757"/>
			</g>
			<g>
				<polygon fill="#010101" points="195.703,291.817 171.8,306.202 147.897,291.817 147.898,263.044 171.8,248.658 195.703,263.044 
									"/>
				<g>
					<g>
						<rect x="162.252" y="270.583" fill="#498ECC" width="18.919" height="6.821"/>
						<circle fill="#498ECC" cx="162.253" cy="272.741" r="4.663"/>
						<circle fill="#498ECC" cx="181.17" cy="272.741" r="4.663"/>
						<circle fill="#498ECC" cx="165.956" cy="266.987" r="4.663"/>
						<circle fill="#498ECC" cx="177.36" cy="266.987" r="4.663"/>
						<circle fill="#498ECC" cx="171.712" cy="264.189" r="4.663"/>
						<rect x="162.252" y="268.451" fill="#498ECC" width="18.919" height="4.689"/>
					</g>
					<g>
						<rect x="162.252" y="274.847" fill="#50AEE2" width="18.919" height="6.82"/>
						<circle fill="#50AEE2" cx="162.253" cy="277.005" r="4.663"/>
						<circle fill="#50AEE2" cx="181.17" cy="277.005" r="4.663"/>
						<circle fill="#50AEE2" cx="165.956" cy="271.249" r="4.663"/>
						<circle fill="#50AEE2" cx="177.36" cy="271.249" r="4.663"/>
						<circle fill="#50AEE2" cx="171.712" cy="268.451" r="4.663"/>
						<rect x="162.252" y="272.715" fill="#50AEE2" width="18.919" height="4.688"/>
					</g>
					<g>
						<rect x="162.252" y="280.176" fill="#6BCAF3" width="18.919" height="6.82"/>
						<circle fill="#6BCAF3" cx="162.253" cy="282.333" r="4.663"/>
						<circle fill="#6BCAF3" cx="181.17" cy="282.333" r="4.663"/>
						<circle fill="#6BCAF3" cx="165.956" cy="276.578" r="4.663"/>
						<circle fill="#6BCAF3" cx="177.36" cy="276.578" r="4.663"/>
						<circle fill="#6BCAF3" cx="171.712" cy="273.781" r="4.663"/>
						<rect x="162.252" y="278.043" fill="#6BCAF3" width="18.919" height="4.689"/>
					</g>
					<g>
						<rect x="162.252" y="285.505" fill="#FFFFFF" width="18.919" height="6.819"/>
						<circle fill="#FFFFFF" cx="162.253" cy="287.662" r="4.663"/>
						<circle fill="#FFFFFF" cx="181.17" cy="287.662" r="4.663"/>
						<circle fill="#FFFFFF" cx="165.956" cy="281.907" r="4.663"/>
						<circle fill="#FFFFFF" cx="177.36" cy="281.907" r="4.663"/>
						<circle fill="#FFFFFF" cx="171.712" cy="279.11" r="4.663"/>
						<rect x="162.252" y="283.372" fill="#FFFFFF" width="18.919" height="4.689"/>
					</g>
				</g>
			</g>
		</g>
	</g>
	<g>
		<g>
			
				<line fill="none" stroke="#DFDB25" stroke-width="5" stroke-miterlimit="10" x1="299.912" y1="477.429" x2="299.912" y2="352.244"/>
			
				<rect x="293.195" y="332.289" fill="#DFDB25" stroke="#7E7C31" stroke-width="3" stroke-miterlimit="10" width="13.432" height="19.183"/>
		</g>
		<g>
			<g>
				
					<rect x="261.637" y="225.256" fill="none" stroke="#31507E" stroke-width="5" stroke-miterlimit="10" width="76.729" height="104.349"/>
				
					<line fill="none" stroke="#466AB3" stroke-width="5" stroke-miterlimit="10" x1="257.801" y1="222.572" x2="342.199" y2="222.572"/>
				
					<line fill="none" stroke="#466AB3" stroke-width="5" stroke-miterlimit="10" x1="257.801" y1="332.289" x2="342.199" y2="332.289"/>
			</g>
			<g>
				<path fill="none" d="M325.572,284.527"/>
			</g>
			<g>
				<path fill="none" d="M277.625,255.757"/>
			</g>
			<g>
				<path fill="none" d="M277.625,284.527"/>
			</g>
			<g>
				<path fill="none" d="M325.572,255.757"/>
			</g>
			<g>
				<polygon fill="#010101" points="323.902,291.817 300,306.202 276.098,291.817 276.098,263.044 300,248.658 323.902,263.044 				
					"/>
				<g>
					<g>
						<rect x="290.452" y="270.583" fill="#498ECC" width="18.919" height="6.821"/>
						<circle fill="#498ECC" cx="290.453" cy="272.741" r="4.663"/>
						<circle fill="#498ECC" cx="309.37" cy="272.741" r="4.663"/>
						<circle fill="#498ECC" cx="294.156" cy="266.987" r="4.663"/>
						<circle fill="#498ECC" cx="305.561" cy="266.987" r="4.663"/>
						<circle fill="#498ECC" cx="299.912" cy="264.189" r="4.663"/>
						<rect x="290.452" y="268.451" fill="#498ECC" width="18.919" height="4.689"/>
					</g>
					<g>
						<rect x="290.452" y="274.847" fill="#50AEE2" width="18.919" height="6.82"/>
						<circle fill="#50AEE2" cx="290.453" cy="277.005" r="4.663"/>
						<circle fill="#50AEE2" cx="309.37" cy="277.005" r="4.663"/>
						<circle fill="#50AEE2" cx="294.156" cy="271.249" r="4.663"/>
						<circle fill="#50AEE2" cx="305.561" cy="271.249" r="4.663"/>
						<circle fill="#50AEE2" cx="299.912" cy="268.451" r="4.663"/>
						<rect x="290.452" y="272.715" fill="#50AEE2" width="18.919" height="4.688"/>
					</g>
					<g>
						<rect x="290.452" y="280.176" fill="#6BCAF3" width="18.919" height="6.82"/>
						<circle fill="#6BCAF3" cx="290.453" cy="282.333" r="4.663"/>
						<circle fill="#6BCAF3" cx="309.37" cy="282.333" r="4.663"/>
						<circle fill="#6BCAF3" cx="294.156" cy="276.578" r="4.663"/>
						<circle fill="#6BCAF3" cx="305.561" cy="276.578" r="4.663"/>
						<circle fill="#6BCAF3" cx="299.912" cy="273.781" r="4.663"/>
						<rect x="290.452" y="278.043" fill="#6BCAF3" width="18.919" height="4.689"/>
					</g>
					<g>
						<rect x="290.452" y="285.505" fill="#FFFFFF" width="18.919" height="6.819"/>
						<circle fill="#FFFFFF" cx="290.453" cy="287.662" r="4.663"/>
						<circle fill="#FFFFFF" cx="309.37" cy="287.662" r="4.663"/>
						<circle fill="#FFFFFF" cx="294.156" cy="281.907" r="4.663"/>
						<circle fill="#FFFFFF" cx="305.561" cy="281.907" r="4.663"/>
						<circle fill="#FFFFFF" cx="299.912" cy="279.11" r="4.663"/>
						<rect x="290.452" y="283.372" fill="#FFFFFF" width="18.919" height="4.689"/>
					</g>
				</g>
			</g>
		</g>
	</g>
	<g>
		<g>
			
				<line fill="none" stroke="#DFDB25" stroke-width="5" stroke-miterlimit="10" x1="428.112" y1="477.429" x2="428.112" y2="352.244"/>
			
				<rect x="421.396" y="332.289" fill="#DFDB25" stroke="#7E7C31" stroke-width="3" stroke-miterlimit="10" width="13.431" height="19.183"/>
		</g>
		<g>
			<g>
				
					<rect x="389.837" y="225.256" fill="none" stroke="#31507E" stroke-width="5" stroke-miterlimit="10" width="76.729" height="104.349"/>
				
					<line fill="none" stroke="#466AB3" stroke-width="5" stroke-miterlimit="10" x1="386.001" y1="222.572" x2="470.399" y2="222.572"/>
				
					<line fill="none" stroke="#466AB3" stroke-width="5" stroke-miterlimit="10" x1="386.001" y1="332.289" x2="470.399" y2="332.289"/>
			</g>
			<g>
				<path fill="none" d="M453.772,284.527"/>
			</g>
			<g>
				<path fill="none" d="M405.825,255.757"/>
			</g>
			<g>
				<path fill="none" d="M405.825,284.527"/>
			</g>
			<g>
				<path fill="none" d="M453.772,255.757"/>
			</g>
			<g>
				<polygon fill="#010101" points="452.104,291.817 428.2,306.202 404.297,291.817 404.298,263.044 428.2,248.658 452.104,263.044 
									"/>
				<g>
					<g>
						<rect x="418.652" y="270.583" fill="#498ECC" width="18.919" height="6.821"/>
						<circle fill="#498ECC" cx="418.653" cy="272.741" r="4.663"/>
						<circle fill="#498ECC" cx="437.57" cy="272.741" r="4.663"/>
						<circle fill="#498ECC" cx="422.356" cy="266.987" r="4.663"/>
						<circle fill="#498ECC" cx="433.76" cy="266.987" r="4.663"/>
						<circle fill="#498ECC" cx="428.112" cy="264.189" r="4.663"/>
						<rect x="418.652" y="268.451" fill="#498ECC" width="18.919" height="4.689"/>
					</g>
					<g>
						<rect x="418.652" y="274.847" fill="#50AEE2" width="18.919" height="6.82"/>
						<circle fill="#50AEE2" cx="418.653" cy="277.005" r="4.663"/>
						<circle fill="#50AEE2" cx="437.57" cy="277.005" r="4.663"/>
						<circle fill="#50AEE2" cx="422.356" cy="271.249" r="4.663"/>
						<circle fill="#50AEE2" cx="433.76" cy="271.249" r="4.663"/>
						<circle fill="#50AEE2" cx="428.112" cy="268.451" r="4.663"/>
						<rect x="418.652" y="272.715" fill="#50AEE2" width="18.919" height="4.688"/>
					</g>
					<g>
						<rect x="418.652" y="280.176" fill="#6BCAF3" width="18.919" height="6.82"/>
						<circle fill="#6BCAF3" cx="418.653" cy="282.333" r="4.663"/>
						<circle fill="#6BCAF3" cx="437.57" cy="282.333" r="4.663"/>
						<circle fill="#6BCAF3" cx="422.356" cy="276.578" r="4.663"/>
						<circle fill="#6BCAF3" cx="433.76" cy="276.578" r="4.663"/>
						<circle fill="#6BCAF3" cx="428.112" cy="273.781" r="4.663"/>
						<rect x="418.652" y="278.043" fill="#6BCAF3" width="18.919" height="4.689"/>
					</g>
					<g>
						<rect x="418.652" y="285.505" fill="#FFFFFF" width="18.919" height="6.819"/>
						<circle fill="#FFFFFF" cx="418.653" cy="287.662" r="4.663"/>
						<circle fill="#FFFFFF" cx="437.57" cy="287.662" r="4.663"/>
						<circle fill="#FFFFFF" cx="422.356" cy="281.907" r="4.663"/>
						<circle fill="#FFFFFF" cx="433.76" cy="281.907" r="4.663"/>
						<circle fill="#FFFFFF" cx="428.112" cy="279.11" r="4.663"/>
						<rect x="418.652" y="283.372" fill="#FFFFFF" width="18.919" height="4.689"/>
					</g>
				</g>
			</g>
		</g>
	</g>
	<g>
		<g>
			
				<line fill="none" stroke="#DFDB25" stroke-width="5" stroke-miterlimit="10" x1="556.313" y1="477.429" x2="556.313" y2="352.244"/>
			
				<rect x="549.597" y="332.289" fill="#DFDB25" stroke="#7E7C31" stroke-width="3" stroke-miterlimit="10" width="13.431" height="19.183"/>
		</g>
		<g>
			<g>
				
					<rect x="518.037" y="225.256" fill="none" stroke="#31507E" stroke-width="5" stroke-miterlimit="10" width="76.729" height="104.349"/>
				
					<line fill="none" stroke="#466AB3" stroke-width="5" stroke-miterlimit="10" x1="514.201" y1="222.572" x2="598.6" y2="222.572"/>
				
					<line fill="none" stroke="#466AB3" stroke-width="5" stroke-miterlimit="10" x1="514.201" y1="332.289" x2="598.6" y2="332.289"/>
			</g>
			<g>
				<path fill="none" d="M581.973,284.527"/>
			</g>
			<g>
				<path fill="none" d="M534.025,255.757"/>
			</g>
			<g>
				<path fill="none" d="M534.025,284.527"/>
			</g>
			<g>
				<path fill="none" d="M581.973,255.757"/>
			</g>
			<g>
				<polygon fill="#010101" points="580.304,291.817 556.4,306.202 532.497,291.817 532.498,263.044 556.4,248.658 580.304,263.044 
									"/>
				<g>
					<g>
						<rect x="546.853" y="270.583" fill="#498ECC" width="18.919" height="6.821"/>
						<circle fill="#498ECC" cx="546.854" cy="272.741" r="4.663"/>
						<circle fill="#498ECC" cx="565.771" cy="272.741" r="4.663"/>
						<circle fill="#498ECC" cx="550.557" cy="266.987" r="4.663"/>
						<circle fill="#498ECC" cx="561.96" cy="266.987" r="4.663"/>
						<circle fill="#498ECC" cx="556.313" cy="264.189" r="4.663"/>
						<rect x="546.853" y="268.451" fill="#498ECC" width="18.919" height="4.689"/>
					</g>
					<g>
						<rect x="546.853" y="274.847" fill="#50AEE2" width="18.919" height="6.82"/>
						<circle fill="#50AEE2" cx="546.854" cy="277.005" r="4.663"/>
						<circle fill="#50AEE2" cx="565.771" cy="277.005" r="4.663"/>
						<circle fill="#50AEE2" cx="550.557" cy="271.249" r="4.663"/>
						<circle fill="#50AEE2" cx="561.96" cy="271.249" r="4.663"/>
						<circle fill="#50AEE2" cx="556.313" cy="268.451" r="4.663"/>
						<rect x="546.853" y="272.715" fill="#50AEE2" width="18.919" height="4.688"/>
					</g>
					<g>
						<rect x="546.853" y="280.176" fill="#6BCAF3" width="18.919" height="6.82"/>
						<circle fill="#6BCAF3" cx="546.854" cy="282.333" r="4.663"/>
						<circle fill="#6BCAF3" cx="565.771" cy="282.333" r="4.663"/>
						<circle fill="#6BCAF3" cx="550.557" cy="276.578" r="4.663"/>
						<circle fill="#6BCAF3" cx="561.96" cy="276.578" r="4.663"/>
						<circle fill="#6BCAF3" cx="556.313" cy="273.781" r="4.663"/>
						<rect x="546.853" y="278.043" fill="#6BCAF3" width="18.919" height="4.689"/>
					</g>
					<g>
						<rect x="546.853" y="285.505" fill="#FFFFFF" width="18.919" height="6.819"/>
						<circle fill="#FFFFFF" cx="546.854" cy="287.662" r="4.663"/>
						<circle fill="#FFFFFF" cx="565.771" cy="287.662" r="4.663"/>
						<circle fill="#FFFFFF" cx="550.557" cy="281.907" r="4.663"/>
						<circle fill="#FFFFFF" cx="561.96" cy="281.907" r="4.663"/>
						<circle fill="#FFFFFF" cx="556.313" cy="279.11" r="4.663"/>
						<rect x="546.853" y="283.372" fill="#FFFFFF" width="18.919" height="4.689"/>
					</g>
				</g>
			</g>
		</g>
	</g>
</g>
<line fill="none" stroke="#DFDB25" stroke-width="5" stroke-miterlimit="10" x1="42.419" y1="47.756" x2="42.419" y2="-77.428"/>
<rect x="35.704" y="48.529" fill="#DFDB25" stroke="#7E7C31" stroke-width="3" stroke-miterlimit="10" width="13.431" height="19.183"/>
<g>
	<g>
		
			<rect x="5.237" y="70.396" fill="none" stroke="#31507E" stroke-width="5" stroke-miterlimit="10" width="76.729" height="104.349"/>
		<line fill="none" stroke="#466AB3" stroke-width="5" stroke-miterlimit="10" x1="85.799" y1="177.429" x2="1.4" y2="177.429"/>
		<line fill="none" stroke="#466AB3" stroke-width="5" stroke-miterlimit="10" x1="85.799" y1="67.711" x2="1.4" y2="67.711"/>
	</g>
	<g>
		<path fill="none" d="M69.171,115.474"/>
	</g>
	<g>
		<path fill="none" d="M21.225,144.243"/>
	</g>
	<g>
		<path fill="none" d="M21.225,115.474"/>
	</g>
	<g>
		<path fill="none" d="M69.171,144.243"/>
	</g>
	<g>
		<polygon fill="#010101" points="67.502,136.956 43.6,151.342 19.698,136.956 19.697,108.184 43.6,93.798 67.502,108.184 		"/>
		<g>
			<g>
				<rect x="34.052" y="122.596" fill="#498ECC" width="18.919" height="6.821"/>
				<circle fill="#498ECC" cx="34.053" cy="127.259" r="4.663"/>
				<circle fill="#498ECC" cx="52.97" cy="127.259" r="4.663"/>
				<circle fill="#498ECC" cx="37.756" cy="133.014" r="4.663"/>
				<circle fill="#498ECC" cx="49.16" cy="133.014" r="4.663"/>
				<circle fill="#498ECC" cx="43.512" cy="135.812" r="4.663"/>
				<rect x="34.052" y="126.86" fill="#498ECC" width="18.919" height="4.689"/>
			</g>
			<g>
				<rect x="34.052" y="118.333" fill="#50AEE2" width="18.919" height="6.82"/>
				<circle fill="#50AEE2" cx="34.053" cy="122.995" r="4.663"/>
				<circle fill="#50AEE2" cx="52.97" cy="122.995" r="4.663"/>
				<circle fill="#50AEE2" cx="37.756" cy="128.751" r="4.663"/>
				<circle fill="#50AEE2" cx="49.16" cy="128.751" r="4.663"/>
				<circle fill="#50AEE2" cx="43.512" cy="131.549" r="4.663"/>
				<rect x="34.052" y="122.597" fill="#50AEE2" width="18.919" height="4.688"/>
			</g>
			<g>
				<rect x="34.052" y="113.004" fill="#6BCAF3" width="18.919" height="6.82"/>
				<circle fill="#6BCAF3" cx="34.053" cy="117.667" r="4.663"/>
				<circle fill="#6BCAF3" cx="52.97" cy="117.667" r="4.663"/>
				<circle fill="#6BCAF3" cx="37.756" cy="123.422" r="4.663"/>
				<circle fill="#6BCAF3" cx="49.16" cy="123.422" r="4.663"/>
				<circle fill="#6BCAF3" cx="43.512" cy="126.22" r="4.663"/>
				<rect x="34.052" y="117.268" fill="#6BCAF3" width="18.919" height="4.689"/>
			</g>
			<g>
				<rect x="34.052" y="107.676" fill="#FFFFFF" width="18.919" height="6.819"/>
				<circle fill="#FFFFFF" cx="34.053" cy="112.338" r="4.663"/>
				<circle fill="#FFFFFF" cx="52.97" cy="112.338" r="4.663"/>
				<circle fill="#FFFFFF" cx="37.756" cy="118.093" r="4.663"/>
				<circle fill="#FFFFFF" cx="49.16" cy="118.093" r="4.663"/>
				<circle fill="#FFFFFF" cx="43.512" cy="120.891" r="4.663"/>
				<rect x="34.052" y="111.939" fill="#FFFFFF" width="18.919" height="4.689"/>
			</g>
		</g>
	</g>
</g>
<g>
	<g>
		
			<line fill="none" stroke="#DFDB25" stroke-width="5" stroke-miterlimit="10" x1="171.712" y1="47.756" x2="171.712" y2="-77.428"/>
		
			<rect x="164.996" y="48.529" fill="#DFDB25" stroke="#7E7C31" stroke-width="3" stroke-miterlimit="10" width="13.431" height="19.183"/>
	</g>
	<g>
		<g>
			
				<rect x="133.437" y="70.396" fill="none" stroke="#31507E" stroke-width="5" stroke-miterlimit="10" width="76.729" height="104.349"/>
			
				<line fill="none" stroke="#466AB3" stroke-width="5" stroke-miterlimit="10" x1="213.999" y1="177.429" x2="129.601" y2="177.429"/>
			
				<line fill="none" stroke="#466AB3" stroke-width="5" stroke-miterlimit="10" x1="213.999" y1="67.711" x2="129.601" y2="67.711"/>
		</g>
		<g>
			<path fill="none" d="M197.372,115.474"/>
		</g>
		<g>
			<path fill="none" d="M149.425,144.243"/>
		</g>
		<g>
			<path fill="none" d="M149.425,115.474"/>
		</g>
		<g>
			<path fill="none" d="M197.372,144.243"/>
		</g>
		<g>
			<polygon fill="#010101" points="195.703,136.956 171.8,151.342 147.898,136.956 147.897,108.184 171.8,93.798 195.703,108.184 
							"/>
			<g>
				<g>
					<rect x="162.252" y="122.596" fill="#498ECC" width="18.919" height="6.821"/>
					<circle fill="#498ECC" cx="162.253" cy="127.259" r="4.663"/>
					<circle fill="#498ECC" cx="181.17" cy="127.259" r="4.663"/>
					<circle fill="#498ECC" cx="165.956" cy="133.014" r="4.663"/>
					<circle fill="#498ECC" cx="177.36" cy="133.014" r="4.663"/>
					<circle fill="#498ECC" cx="171.712" cy="135.812" r="4.663"/>
					<rect x="162.252" y="126.86" fill="#498ECC" width="18.919" height="4.689"/>
				</g>
				<g>
					<rect x="162.252" y="118.333" fill="#50AEE2" width="18.919" height="6.82"/>
					<circle fill="#50AEE2" cx="162.253" cy="122.995" r="4.663"/>
					<circle fill="#50AEE2" cx="181.17" cy="122.995" r="4.663"/>
					<circle fill="#50AEE2" cx="165.956" cy="128.751" r="4.663"/>
					<circle fill="#50AEE2" cx="177.36" cy="128.751" r="4.663"/>
					<circle fill="#50AEE2" cx="171.712" cy="131.549" r="4.663"/>
					<rect x="162.252" y="122.597" fill="#50AEE2" width="18.919" height="4.688"/>
				</g>
				<g>
					<rect x="162.252" y="113.004" fill="#6BCAF3" width="18.919" height="6.82"/>
					<circle fill="#6BCAF3" cx="162.253" cy="117.667" r="4.663"/>
					<circle fill="#6BCAF3" cx="181.17" cy="117.667" r="4.663"/>
					<circle fill="#6BCAF3" cx="165.956" cy="123.422" r="4.663"/>
					<circle fill="#6BCAF3" cx="177.36" cy="123.422" r="4.663"/>
					<circle fill="#6BCAF3" cx="171.712" cy="126.22" r="4.663"/>
					<rect x="162.252" y="117.268" fill="#6BCAF3" width="18.919" height="4.689"/>
				</g>
				<g>
					<rect x="162.252" y="107.676" fill="#FFFFFF" width="18.919" height="6.819"/>
					<circle fill="#FFFFFF" cx="162.253" cy="112.338" r="4.663"/>
					<circle fill="#FFFFFF" cx="181.17" cy="112.338" r="4.663"/>
					<circle fill="#FFFFFF" cx="165.956" cy="118.093" r="4.663"/>
					<circle fill="#FFFFFF" cx="177.36" cy="118.093" r="4.663"/>
					<circle fill="#FFFFFF" cx="171.712" cy="120.891" r="4.663"/>
					<rect x="162.252" y="111.939" fill="#FFFFFF" width="18.919" height="4.689"/>
				</g>
			</g>
		</g>
	</g>
</g>
<g>
	<g>
		
			<line fill="none" stroke="#DFDB25" stroke-width="5" stroke-miterlimit="10" x1="299.912" y1="47.756" x2="299.912" y2="-77.428"/>
		
			<rect x="293.195" y="48.529" fill="#DFDB25" stroke="#7E7C31" stroke-width="3" stroke-miterlimit="10" width="13.432" height="19.183"/>
	</g>
	<g>
		<g>
			
				<rect x="261.637" y="70.396" fill="none" stroke="#31507E" stroke-width="5" stroke-miterlimit="10" width="76.729" height="104.349"/>
			
				<line fill="none" stroke="#466AB3" stroke-width="5" stroke-miterlimit="10" x1="342.199" y1="177.429" x2="257.801" y2="177.429"/>
			
				<line fill="none" stroke="#466AB3" stroke-width="5" stroke-miterlimit="10" x1="342.199" y1="67.711" x2="257.801" y2="67.711"/>
		</g>
		<g>
			<path fill="none" d="M325.572,115.474"/>
		</g>
		<g>
			<path fill="none" d="M277.625,144.243"/>
		</g>
		<g>
			<path fill="none" d="M277.625,115.474"/>
		</g>
		<g>
			<path fill="none" d="M325.572,144.243"/>
		</g>
		<g>
			<polygon fill="#010101" points="323.902,136.956 300,151.342 276.098,136.956 276.098,108.184 300,93.798 323.902,108.184 			"/>
			<g>
				<g>
					<rect x="290.452" y="122.596" fill="#498ECC" width="18.919" height="6.821"/>
					<circle fill="#498ECC" cx="290.453" cy="127.259" r="4.663"/>
					<circle fill="#498ECC" cx="309.37" cy="127.259" r="4.663"/>
					<circle fill="#498ECC" cx="294.156" cy="133.014" r="4.663"/>
					<circle fill="#498ECC" cx="305.56" cy="133.014" r="4.663"/>
					<circle fill="#498ECC" cx="299.912" cy="135.812" r="4.663"/>
					<rect x="290.452" y="126.86" fill="#498ECC" width="18.919" height="4.689"/>
				</g>
				<g>
					<rect x="290.452" y="118.333" fill="#50AEE2" width="18.919" height="6.82"/>
					<circle fill="#50AEE2" cx="290.453" cy="122.995" r="4.663"/>
					<circle fill="#50AEE2" cx="309.37" cy="122.995" r="4.663"/>
					<circle fill="#50AEE2" cx="294.156" cy="128.751" r="4.663"/>
					<circle fill="#50AEE2" cx="305.56" cy="128.751" r="4.663"/>
					<circle fill="#50AEE2" cx="299.912" cy="131.549" r="4.663"/>
					<rect x="290.452" y="122.597" fill="#50AEE2" width="18.919" height="4.688"/>
				</g>
				<g>
					<rect x="290.452" y="113.004" fill="#6BCAF3" width="18.919" height="6.82"/>
					<circle fill="#6BCAF3" cx="290.453" cy="117.667" r="4.663"/>
					<circle fill="#6BCAF3" cx="309.37" cy="117.667" r="4.663"/>
					<circle fill="#6BCAF3" cx="294.156" cy="123.422" r="4.663"/>
					<circle fill="#6BCAF3" cx="305.56" cy="123.422" r="4.663"/>
					<circle fill="#6BCAF3" cx="299.912" cy="126.22" r="4.663"/>
					<rect x="290.452" y="117.268" fill="#6BCAF3" width="18.919" height="4.689"/>
				</g>
				<g>
					<rect x="290.452" y="107.676" fill="#FFFFFF" width="18.919" height="6.819"/>
					<circle fill="#FFFFFF" cx="290.453" cy="112.338" r="4.663"/>
					<circle fill="#FFFFFF" cx="309.37" cy="112.338" r="4.663"/>
					<circle fill="#FFFFFF" cx="294.156" cy="118.093" r="4.663"/>
					<circle fill="#FFFFFF" cx="305.56" cy="118.093" r="4.663"/>
					<circle fill="#FFFFFF" cx="299.912" cy="120.891" r="4.663"/>
					<rect x="290.452" y="111.939" fill="#FFFFFF" width="18.919" height="4.689"/>
				</g>
			</g>
		</g>
	</g>
</g>
<g>
	<g>
		
			<line fill="none" stroke="#DFDB25" stroke-width="5" stroke-miterlimit="10" x1="428.112" y1="47.756" x2="428.112" y2="-77.428"/>
		
			<rect x="421.396" y="48.529" fill="#DFDB25" stroke="#7E7C31" stroke-width="3" stroke-miterlimit="10" width="13.431" height="19.183"/>
	</g>
	<g>
		<g>
			
				<rect x="389.837" y="70.396" fill="none" stroke="#31507E" stroke-width="5" stroke-miterlimit="10" width="76.729" height="104.349"/>
			
				<line fill="none" stroke="#466AB3" stroke-width="5" stroke-miterlimit="10" x1="470.399" y1="177.429" x2="386.001" y2="177.429"/>
			
				<line fill="none" stroke="#466AB3" stroke-width="5" stroke-miterlimit="10" x1="470.399" y1="67.711" x2="386.001" y2="67.711"/>
		</g>
		<g>
			<path fill="none" d="M453.772,115.474"/>
		</g>
		<g>
			<path fill="none" d="M405.825,144.243"/>
		</g>
		<g>
			<path fill="none" d="M405.825,115.474"/>
		</g>
		<g>
			<path fill="none" d="M453.772,144.243"/>
		</g>
		<g>
			<polygon fill="#010101" points="452.104,136.956 428.2,151.342 404.298,136.956 404.297,108.184 428.2,93.798 452.104,108.184 
							"/>
			<g>
				<g>
					<rect x="418.652" y="122.596" fill="#498ECC" width="18.919" height="6.821"/>
					<circle fill="#498ECC" cx="418.653" cy="127.259" r="4.663"/>
					<circle fill="#498ECC" cx="437.57" cy="127.259" r="4.663"/>
					<circle fill="#498ECC" cx="422.356" cy="133.014" r="4.663"/>
					<circle fill="#498ECC" cx="433.76" cy="133.014" r="4.663"/>
					<circle fill="#498ECC" cx="428.112" cy="135.812" r="4.663"/>
					<rect x="418.652" y="126.86" fill="#498ECC" width="18.919" height="4.689"/>
				</g>
				<g>
					<rect x="418.652" y="118.333" fill="#50AEE2" width="18.919" height="6.82"/>
					<circle fill="#50AEE2" cx="418.653" cy="122.995" r="4.663"/>
					<circle fill="#50AEE2" cx="437.57" cy="122.995" r="4.663"/>
					<circle fill="#50AEE2" cx="422.356" cy="128.751" r="4.663"/>
					<circle fill="#50AEE2" cx="433.76" cy="128.751" r="4.663"/>
					<circle fill="#50AEE2" cx="428.112" cy="131.549" r="4.663"/>
					<rect x="418.652" y="122.597" fill="#50AEE2" width="18.919" height="4.688"/>
				</g>
				<g>
					<rect x="418.652" y="113.004" fill="#6BCAF3" width="18.919" height="6.82"/>
					<circle fill="#6BCAF3" cx="418.653" cy="117.667" r="4.663"/>
					<circle fill="#6BCAF3" cx="437.57" cy="117.667" r="4.663"/>
					<circle fill="#6BCAF3" cx="422.356" cy="123.422" r="4.663"/>
					<circle fill="#6BCAF3" cx="433.76" cy="123.422" r="4.663"/>
					<circle fill="#6BCAF3" cx="428.112" cy="126.22" r="4.663"/>
					<rect x="418.652" y="117.268" fill="#6BCAF3" width="18.919" height="4.689"/>
				</g>
				<g>
					<rect x="418.652" y="107.676" fill="#FFFFFF" width="18.919" height="6.819"/>
					<circle fill="#FFFFFF" cx="418.653" cy="112.338" r="4.663"/>
					<circle fill="#FFFFFF" cx="437.57" cy="112.338" r="4.663"/>
					<circle fill="#FFFFFF" cx="422.356" cy="118.093" r="4.663"/>
					<circle fill="#FFFFFF" cx="433.76" cy="118.093" r="4.663"/>
					<circle fill="#FFFFFF" cx="428.112" cy="120.891" r="4.663"/>
					<rect x="418.652" y="111.939" fill="#FFFFFF" width="18.919" height="4.689"/>
				</g>
			</g>
		</g>
	</g>
</g>
<g>
	<g>
		
			<line fill="none" stroke="#DFDB25" stroke-width="5" stroke-miterlimit="10" x1="556.313" y1="47.756" x2="556.313" y2="-77.428"/>
		
			<rect x="549.597" y="48.529" fill="#DFDB25" stroke="#7E7C31" stroke-width="3" stroke-miterlimit="10" width="13.431" height="19.183"/>
	</g>
	<g>
		<g>
			
				<rect x="518.037" y="70.396" fill="none" stroke="#31507E" stroke-width="5" stroke-miterlimit="10" width="76.729" height="104.349"/>
			
				<line fill="none" stroke="#466AB3" stroke-width="5" stroke-miterlimit="10" x1="598.6" y1="177.429" x2="514.201" y2="177.429"/>
			<line fill="none" stroke="#466AB3" stroke-width="5" stroke-miterlimit="10" x1="598.6" y1="67.711" x2="514.201" y2="67.711"/>
		</g>
		<g>
			<path fill="none" d="M581.973,115.474"/>
		</g>
		<g>
			<path fill="none" d="M534.025,144.243"/>
		</g>
		<g>
			<path fill="none" d="M534.025,115.474"/>
		</g>
		<g>
			<path fill="none" d="M581.973,144.243"/>
		</g>
		<g>
			<polygon fill="#010101" points="580.304,136.956 556.4,151.342 532.498,136.956 532.497,108.184 556.4,93.798 580.304,108.184 
							"/>
			<g>
				<g>
					<rect x="546.853" y="122.596" fill="#498ECC" width="18.919" height="6.821"/>
					<circle fill="#498ECC" cx="546.854" cy="127.259" r="4.663"/>
					<circle fill="#498ECC" cx="565.771" cy="127.259" r="4.663"/>
					<circle fill="#498ECC" cx="550.557" cy="133.014" r="4.663"/>
					<circle fill="#498ECC" cx="561.96" cy="133.014" r="4.663"/>
					<circle fill="#498ECC" cx="556.313" cy="135.812" r="4.663"/>
					<rect x="546.853" y="126.86" fill="#498ECC" width="18.919" height="4.689"/>
				</g>
				<g>
					<rect x="546.853" y="118.333" fill="#50AEE2" width="18.919" height="6.82"/>
					<circle fill="#50AEE2" cx="546.854" cy="122.995" r="4.663"/>
					<circle fill="#50AEE2" cx="565.771" cy="122.995" r="4.663"/>
					<circle fill="#50AEE2" cx="550.557" cy="128.751" r="4.663"/>
					<circle fill="#50AEE2" cx="561.96" cy="128.751" r="4.663"/>
					<circle fill="#50AEE2" cx="556.313" cy="131.549" r="4.663"/>
					<rect x="546.853" y="122.597" fill="#50AEE2" width="18.919" height="4.688"/>
				</g>
				<g>
					<rect x="546.853" y="113.004" fill="#6BCAF3" width="18.919" height="6.82"/>
					<circle fill="#6BCAF3" cx="546.854" cy="117.667" r="4.663"/>
					<circle fill="#6BCAF3" cx="565.771" cy="117.667" r="4.663"/>
					<circle fill="#6BCAF3" cx="550.557" cy="123.422" r="4.663"/>
					<circle fill="#6BCAF3" cx="561.96" cy="123.422" r="4.663"/>
					<circle fill="#6BCAF3" cx="556.313" cy="126.22" r="4.663"/>
					<rect x="546.853" y="117.268" fill="#6BCAF3" width="18.919" height="4.689"/>
				</g>
				<g>
					<rect x="546.853" y="107.676" fill="#FFFFFF" width="18.919" height="6.819"/>
					<circle fill="#FFFFFF" cx="546.854" cy="112.338" r="4.663"/>
					<circle fill="#FFFFFF" cx="565.771" cy="112.338" r="4.663"/>
					<circle fill="#FFFFFF" cx="550.557" cy="118.093" r="4.663"/>
					<circle fill="#FFFFFF" cx="561.96" cy="118.093" r="4.663"/>
					<circle fill="#FFFFFF" cx="556.313" cy="120.891" r="4.663"/>
					<rect x="546.853" y="111.939" fill="#FFFFFF" width="18.919" height="4.689"/>
				</g>
			</g>
		</g>
	</g>
</g>
</svg>
