<?xml version="1.0" encoding="utf-8"?>
<!-- Generator: Adobe Illustrator 16.0.0, SVG Export Plug-In . SVG Version: 6.00 Build 0)  -->
<!DOCTYPE svg PUBLIC "-//W3C//DTD SVG 1.1//EN" "http://www.w3.org/Graphics/SVG/1.1/DTD/svg11.dtd">
<svg version="1.1" id="Layer_1" xmlns="http://www.w3.org/2000/svg" xmlns:xlink="http://www.w3.org/1999/xlink" x="0px" y="0px"
	 width="600px" height="400px" viewBox="-774.5 400.5 600 400" enable-background="new -774.5 400.5 600 400" xml:space="preserve">
<polygon fill="none" stroke="#FFFFFF" stroke-width="56" stroke-miterlimit="10" points="-340.503,684.251 -474.498,768 
	-608.497,684.251 -608.493,516.749 -474.498,433 -340.503,516.749 "/>
<g>
	<polygon fill="#FFFFFF" stroke="#EC1C23" stroke-width="58" stroke-miterlimit="10" points="-385.169,656.345 -474.5,712.155 
		-563.831,656.345 -563.829,544.655 -474.5,488.845 -385.169,544.655 	"/>
	<polygon fill="#EC1C23" stroke="#FFFFFF" stroke-width="5" stroke-miterlimit="10" points="-406.506,642.982 -474.5,685.5 
		-542.494,642.982 -542.492,558.018 -474.5,515.5 -406.506,558.018 	"/>
	<g>
		<polygon fill="none" stroke="#FFFFFF" stroke-width="5" stroke-miterlimit="10" points="-474.5,600.499 -591.518,527.344 
			-474.5,454.222 -357.482,527.344 		"/>
		<polyline fill="none" stroke="#FFFFFF" stroke-width="5" stroke-miterlimit="10" points="-474.5,600.499 -474.5,673.656 
			-474.5,746.778 -533.017,710.196 -591.52,673.656 		"/>
		<polyline fill="none" stroke="#FFFFFF" stroke-width="5" stroke-miterlimit="10" points="-474.498,600.499 -474.498,673.656 
			-474.5,746.778 -415.983,710.196 -357.48,673.656 		"/>
		<polyline fill="none" stroke="#FFFFFF" stroke-width="5" stroke-miterlimit="10" points="-591.52,673.656 -591.52,600.5 
			-591.52,527.343 -533.017,563.922 -474.5,600.5 		"/>
		<polyline fill="none" stroke="#FFFFFF" stroke-width="5" stroke-miterlimit="10" points="-357.48,673.536 -357.48,600.414 
			-357.48,527.258 -415.983,563.836 -474.5,600.414 		"/>
	</g>
</g>
<g>
	<polygon fill="none" stroke="#FFFFFF" stroke-width="56" stroke-miterlimit="10" points="-40.503,684.251 -174.498,768 
		-308.497,684.251 -308.493,516.749 -174.498,433 -40.503,516.749 	"/>
</g>
<g>
	<polygon fill="none" stroke="#FFFFFF" stroke-width="56" stroke-miterlimit="10" points="-639.503,684.251 -773.498,768 
		-907.497,684.251 -907.493,516.749 -773.498,433 -639.503,516.749 	"/>
</g>
<g>
	<polygon fill="#FFFFFF" stroke="#EC1C23" stroke-width="58" stroke-miterlimit="10" points="-688.169,656.345 -777.5,712.155 
		-866.831,656.345 -866.829,544.655 -777.5,488.845 -688.169,544.655 	"/>
	<polygon fill="#EC1C23" stroke="#FFFFFF" stroke-width="5" stroke-miterlimit="10" points="-709.506,642.982 -777.5,685.5 
		-845.494,642.982 -845.492,558.018 -777.5,515.5 -709.506,558.018 	"/>
	<g>
		<polygon fill="none" stroke="#FFFFFF" stroke-width="5" stroke-miterlimit="10" points="-777.5,600.499 -894.518,527.344 
			-777.5,454.222 -660.482,527.344 		"/>
		<polyline fill="none" stroke="#FFFFFF" stroke-width="5" stroke-miterlimit="10" points="-777.5,600.499 -777.5,673.656 
			-777.5,746.778 -836.017,710.196 -894.52,673.656 		"/>
		<polyline fill="none" stroke="#FFFFFF" stroke-width="5" stroke-miterlimit="10" points="-777.498,600.499 -777.498,673.656 
			-777.5,746.778 -718.983,710.196 -660.48,673.656 		"/>
		<polyline fill="none" stroke="#FFFFFF" stroke-width="5" stroke-miterlimit="10" points="-894.52,673.656 -894.52,600.5 
			-894.52,527.343 -836.017,563.922 -777.5,600.5 		"/>
		<polyline fill="none" stroke="#FFFFFF" stroke-width="5" stroke-miterlimit="10" points="-660.48,673.536 -660.48,600.414 
			-660.48,527.258 -718.983,563.836 -777.5,600.414 		"/>
	</g>
</g>
<g>
	<polygon fill="#FFFFFF" stroke="#EC1C23" stroke-width="58" stroke-miterlimit="10" points="-82.169,656.345 -171.5,712.155 
		-260.831,656.345 -260.829,544.655 -171.5,488.845 -82.169,544.655 	"/>
	<polygon fill="#EC1C23" stroke="#FFFFFF" stroke-width="5" stroke-miterlimit="10" points="-103.506,642.982 -171.5,685.5 
		-239.494,642.982 -239.492,558.018 -171.5,515.5 -103.506,558.018 	"/>
	<g>
		<polygon fill="none" stroke="#FFFFFF" stroke-width="5" stroke-miterlimit="10" points="-171.5,600.499 -288.518,527.344 
			-171.5,454.222 -54.482,527.344 		"/>
		<polyline fill="none" stroke="#FFFFFF" stroke-width="5" stroke-miterlimit="10" points="-171.5,600.499 -171.5,673.656 
			-171.5,746.778 -230.017,710.196 -288.52,673.656 		"/>
		<polyline fill="none" stroke="#FFFFFF" stroke-width="5" stroke-miterlimit="10" points="-171.498,600.499 -171.498,673.656 
			-171.5,746.778 -112.983,710.196 -54.48,673.656 		"/>
		<polyline fill="none" stroke="#FFFFFF" stroke-width="5" stroke-miterlimit="10" points="-288.52,673.656 -288.52,600.5 
			-288.52,527.343 -230.017,563.922 -171.5,600.5 		"/>
		<polyline fill="none" stroke="#FFFFFF" stroke-width="5" stroke-miterlimit="10" points="-54.48,673.536 -54.48,600.414 
			-54.48,527.258 -112.983,563.836 -171.5,600.414 		"/>
	</g>
</g>
</svg>
