<?xml version="1.0" encoding="utf-8"?>
<!-- Generator: Adobe Illustrator 16.0.0, SVG Export Plug-In . SVG Version: 6.00 Build 0)  -->
<!DOCTYPE svg PUBLIC "-//W3C//DTD SVG 1.1//EN" "http://www.w3.org/Graphics/SVG/1.1/DTD/svg11.dtd">
<svg version="1.1" id="Layer_1" xmlns="http://www.w3.org/2000/svg" xmlns:xlink="http://www.w3.org/1999/xlink" x="0px" y="0px"
	 width="600px" height="400px" viewBox="-774.5 400.5 600 400" enable-background="new -774.5 400.5 600 400" xml:space="preserve">
<g>
	<g>
		<ellipse fill="#FFFFFF" stroke="#FFFFFF" stroke-miterlimit="10" cx="-475.269" cy="551.732" rx="45.838" ry="15.18"/>
		<rect x="-488.276" y="564.407" fill="#FFFFFF" width="26.018" height="68.409"/>
		<g>
			<path fill="#FFFFFF" d="M-401.379,660.596c-3.196,3.31-32.46-22.996-73.891-22.188c-41.43-0.81-70.693,25.492-73.892,22.188
				c-4.64-2.244,23.716-39.682,73.892-39.452C-425.097,620.914-396.739,658.349-401.379,660.596z"/>
		</g>
	</g>
	<polygon fill="none" stroke="#FFFFFF" stroke-width="56" stroke-miterlimit="10" points="-337.549,683.5 -474.5,766.5 
		-611.451,683.5 -611.45,517.5 -474.5,434.5 -337.549,517.5 	"/>
</g>
<g>
	<line fill="none" stroke="#FFFFFF" stroke-width="15" stroke-miterlimit="10" x1="-708.5" y1="502.5" x2="-708.5" y2="574.5"/>
	<line fill="none" stroke="#FFFFFF" stroke-width="15" stroke-miterlimit="10" x1="-744.5" y1="538.5" x2="-672.5" y2="538.5"/>
</g>
<g>
	<line fill="none" stroke="#FFFFFF" stroke-width="15" stroke-miterlimit="10" x1="-708.5" y1="622.5" x2="-708.5" y2="694.5"/>
	<line fill="none" stroke="#FFFFFF" stroke-width="15" stroke-miterlimit="10" x1="-744.5" y1="658.5" x2="-672.5" y2="658.5"/>
</g>
<g>
	<line fill="none" stroke="#FFFFFF" stroke-width="15" stroke-miterlimit="10" x1="-240.5" y1="502.5" x2="-240.5" y2="574.5"/>
	<line fill="none" stroke="#FFFFFF" stroke-width="15" stroke-miterlimit="10" x1="-276.5" y1="538.5" x2="-204.5" y2="538.5"/>
</g>
<g>
	<line fill="none" stroke="#FFFFFF" stroke-width="15" stroke-miterlimit="10" x1="-240.5" y1="622.5" x2="-240.5" y2="694.5"/>
	<line fill="none" stroke="#FFFFFF" stroke-width="15" stroke-miterlimit="10" x1="-276.5" y1="658.5" x2="-204.5" y2="658.5"/>
</g>
</svg>
