<?xml version="1.0" encoding="utf-8"?>
<!-- Generator: Adobe Illustrator 16.0.0, SVG Export Plug-In . SVG Version: 6.00 Build 0)  -->
<!DOCTYPE svg PUBLIC "-//W3C//DTD SVG 1.1//EN" "http://www.w3.org/Graphics/SVG/1.1/DTD/svg11.dtd">
<svg version="1.1" id="Layer_1" xmlns="http://www.w3.org/2000/svg" xmlns:xlink="http://www.w3.org/1999/xlink" x="0px" y="0px"
	 width="600px" height="400px" viewBox="-135 0 600 400" enable-background="new -135 0 600 400" xml:space="preserve">
<g>
	<path fill="none" d="M334.619,299.988"/>
</g>
<g>
	<path fill="none" d="M1.326,100.011"/>
</g>
<g>
	<path fill="none" d="M1.326,299.988"/>
</g>
<g>
	<path fill="none" d="M334.62,100.011"/>
</g>
<g>
	<polygon fill="#FFFDFD" stroke="#0EA84A" stroke-width="6" stroke-miterlimit="10" points="165,199.999 0.001,100 165,0 
		329.999,100 	"/>
	<polygon fill="#FFFDFD" stroke="#0EA84A" stroke-width="6" stroke-miterlimit="10" points="0.001,100 82.5,150 165,200 82.5,250 
		0.001,300 0.001,200 	"/>
	<polygon fill="#FFFDFD" stroke="#0EA84A" stroke-width="6" stroke-miterlimit="10" points="330,99.911 247.5,149.913 165,199.913 
		247.501,249.912 330,299.912 330,199.913 	"/>
	<polygon fill="#FFFDFD" stroke="#0EA84A" stroke-width="6" stroke-miterlimit="10" points="165,399.912 0.001,299.912 165,199.912 
		329.999,299.912 	"/>
</g>
<g>
	<rect x="38.167" y="174.5" fill="none" stroke="#0EA84A" stroke-width="5" stroke-miterlimit="10" width="31.333" height="52"/>
	<line fill="none" stroke="#0EA84A" stroke-width="5" stroke-miterlimit="10" x1="38.167" y1="218.333" x2="69.5" y2="218.333"/>
</g>
<rect x="244.833" y="184.832" fill="none" stroke="#0EA84A" stroke-width="5" stroke-miterlimit="10" width="52" height="31.334"/>
<g>
	<g>
		<rect x="137" y="66.011" fill="none" stroke="#0EA84A" stroke-width="5" stroke-miterlimit="10" width="56" height="40.5"/>
		<polygon fill="none" stroke="#0EA84A" stroke-width="5" stroke-miterlimit="10" points="145.249,126.489 125.498,126.489 
			137,108.5 193,108.5 204.502,126.489 184.751,126.514 		"/>
	</g>
	<g>
		
			<rect x="128.559" y="263.5" fill="none" stroke="#0EA84A" stroke-width="5" stroke-miterlimit="10" width="72.883" height="43.918"/>
		<line fill="none" stroke="#0EA84A" stroke-width="5" stroke-miterlimit="10" x1="120.149" y1="320.5" x2="209.851" y2="320.5"/>
		<line fill="none" stroke="#0EA84A" stroke-width="5" stroke-miterlimit="10" x1="165.001" y1="309.286" x2="165.001" y2="320.5"/>
	</g>
</g>
<g>
	<g>
		<path fill="#FFFFFF" d="M-17.295,141.661c0,0-0.425,0.378-1.222,1.087c-0.777,0.707-2.075,1.658-3.357,3.039
			c-0.33,0.328-0.677,0.674-1.041,1.037c-0.367,0.343-0.739,0.716-1.101,1.166c-0.722,0.881-1.558,1.732-2.354,2.729
			c-0.746,1.059-1.611,2.073-2.404,3.239c-0.731,1.229-1.634,2.364-2.353,3.731c-0.726,1.357-1.578,2.666-2.227,4.188
			c-0.337,0.749-0.732,1.467-1.077,2.232c-0.319,0.778-0.643,1.568-0.971,2.37c-0.162,0.398-0.325,0.798-0.49,1.202
			c-0.144,0.414-0.289,0.831-0.435,1.25c-0.294,0.831-0.591,1.672-0.892,2.523c-0.468,1.763-1.103,3.477-1.491,5.327
			c-0.968,3.619-1.578,7.468-2.104,11.364c-0.509,3.91-0.674,7.918-0.743,11.919c0.027,4.004,0.236,8.003,0.691,11.915
			c0.094,0.981,0.279,1.94,0.411,2.907c0.124,0.969,0.259,1.932,0.469,2.868c0.178,0.948,0.355,1.891,0.53,2.826
			c0.224,0.923,0.445,1.838,0.666,2.746c0.198,0.922,0.452,1.81,0.721,2.687c0.27,0.876,0.498,1.766,0.771,2.625
			c0.631,1.671,1.117,3.4,1.819,4.96c0.326,0.8,0.648,1.59,0.965,2.367c0.367,0.747,0.745,1.478,1.084,2.223
			c0.638,1.526,1.527,2.804,2.236,4.175c0.752,1.334,1.626,2.498,2.367,3.719c0.825,1.133,1.667,2.176,2.421,3.226
			c0.822,0.968,1.642,1.841,2.371,2.717c0.734,0.868,1.533,1.513,2.189,2.215c1.322,1.401,2.54,2.29,3.322,3.012
			c0.8,0.711,1.227,1.091,1.227,1.091s-0.557-0.105-1.602-0.305c-1.034-0.24-2.64-0.474-4.512-1.222
			c-0.945-0.354-2.047-0.692-3.148-1.234c-1.107-0.533-2.297-1.153-3.578-1.837c-1.209-0.765-2.49-1.62-3.842-2.549
			c-0.639-0.498-1.276-1.036-1.938-1.583c-0.643-0.562-1.381-1.086-1.995-1.731c-0.647-0.62-1.28-1.283-1.941-1.952
			c-0.324-0.339-0.673-0.67-0.987-1.027c-0.307-0.364-0.617-0.731-0.929-1.102c-0.632-0.739-1.244-1.519-1.88-2.305
			c-0.588-0.811-1.158-1.652-1.752-2.503c-0.602-0.848-1.188-1.725-1.693-2.651c-0.525-0.924-1.057-1.858-1.595-2.804
			c-0.507-0.96-0.954-1.957-1.428-2.959c-0.235-0.503-0.471-1.009-0.708-1.517c-0.229-0.511-0.41-1.037-0.618-1.561
			c-0.4-1.053-0.803-2.115-1.209-3.185c-0.333-1.091-0.669-2.189-1.007-3.295c-0.351-1.107-0.622-2.235-0.878-3.373
			c-0.244-1.141-0.539-2.282-0.739-3.441c-0.844-4.633-1.244-9.406-1.276-14.181c0.081-4.771,0.458-9.544,1.363-14.165
			c0.919-4.613,2.132-9.102,3.87-13.261c0.396-1.05,0.824-2.076,1.32-3.071c0.48-0.994,0.957-1.979,1.427-2.953
			c0.519-0.954,1.065-1.882,1.599-2.796c0.267-0.456,0.532-0.909,0.795-1.359c0.28-0.442,0.592-0.865,0.884-1.292
			c0.591-0.845,1.175-1.679,1.749-2.5c0.603-0.802,1.244-1.564,1.869-2.306c1.208-1.51,2.564-2.834,3.837-4.09
			c0.619-0.642,1.312-1.198,1.973-1.748c0.661-0.549,1.3-1.085,1.938-1.585c1.316-0.962,2.62-1.8,3.823-2.572
			c1.252-0.718,2.462-1.318,3.563-1.862c0.537-0.284,1.097-0.513,1.642-0.713c0.535-0.211,1.053-0.39,1.534-0.565
			c1.911-0.77,3.419-0.973,4.465-1.216C-17.854,141.769-17.295,141.661-17.295,141.661z"/>
	</g>
	<g>
		<path fill="#FFFFFF" d="M-47.295,127.077c0,0-0.541,0.454-1.578,1.257c-1.017,0.802-2.647,1.935-4.333,3.575
			c-0.432,0.392-0.886,0.804-1.362,1.237c-0.237,0.21-0.479,0.426-0.727,0.646c-0.241,0.232-0.473,0.5-0.717,0.755
			c-0.949,1.059-2.041,2.091-3.093,3.302c-0.989,1.288-2.125,2.534-3.182,3.966c-0.501,0.745-1.031,1.485-1.567,2.243
			c-0.537,0.757-1.1,1.51-1.568,2.371c-0.976,1.685-2.104,3.322-2.985,5.223c-0.458,0.935-0.981,1.838-1.445,2.799
			c-0.431,0.978-0.868,1.971-1.311,2.978c-0.219,0.501-0.44,1.005-0.663,1.513c-0.197,0.521-0.396,1.046-0.595,1.573
			c-0.397,1.051-0.798,2.114-1.204,3.188c-0.621,2.234-1.505,4.395-2.024,6.745c-0.292,1.161-0.615,2.316-0.89,3.498
			c-0.253,1.187-0.508,2.383-0.764,3.586c-0.292,1.191-0.427,2.431-0.629,3.657c-0.175,1.232-0.468,2.446-0.571,3.702
			c-0.144,1.247-0.288,2.499-0.432,3.755c-0.127,1.256-0.165,2.528-0.284,3.792l-0.149,1.901c-0.03,0.635-0.032,1.273-0.05,1.91
			c-0.022,1.274-0.072,2.549-0.078,3.824c-0.002,5.103,0.336,10.196,0.922,15.179c0.748,4.945,1.496,9.85,2.82,14.429
			c0.15,0.577,0.274,1.163,0.444,1.729c0.179,0.562,0.358,1.12,0.536,1.677c0.37,1.107,0.684,2.233,1.046,3.323
			c0.827,2.126,1.524,4.292,2.464,6.259c0.441,1.006,0.876,1.998,1.305,2.977c0.493,0.938,0.994,1.856,1.455,2.788
			c0.234,0.464,0.467,0.925,0.697,1.381c0.24,0.451,0.52,0.865,0.774,1.296c0.517,0.854,1.041,1.687,1.526,2.53
			c1.011,1.653,2.165,3.096,3.155,4.597c1.128,1.391,2.198,2.709,3.204,3.948c1.084,1.174,2.156,2.233,3.114,3.285
			c0.468,0.543,0.989,0.965,1.472,1.396c0.485,0.438,0.947,0.854,1.385,1.249c1.726,1.661,3.278,2.728,4.299,3.545
			c1.032,0.823,1.583,1.262,1.583,1.262s-0.679-0.146-1.954-0.483c-0.641-0.173-1.432-0.386-2.362-0.637
			c-0.961-0.211-1.974-0.641-3.13-1.109c-0.581-0.237-1.193-0.487-1.835-0.75c-0.639-0.274-1.33-0.535-1.981-0.916
			c-1.337-0.709-2.778-1.517-4.322-2.405c-1.454-0.991-3-2.084-4.625-3.271c-0.766-0.637-1.532-1.316-2.328-2.009
			c-0.397-0.349-0.8-0.701-1.207-1.057l-0.615-0.541l-0.572-0.587c-0.773-0.783-1.535-1.612-2.327-2.45
			c-0.389-0.425-0.807-0.838-1.183-1.286c-0.367-0.455-0.737-0.914-1.11-1.378c-0.754-0.924-1.488-1.892-2.25-2.869
			c-0.703-1.009-1.383-2.056-2.092-3.112c-0.35-0.532-0.702-1.067-1.057-1.606c-0.351-0.542-0.634-1.119-0.957-1.685
			c-0.628-1.143-1.264-2.3-1.906-3.469c-0.612-1.184-1.143-2.417-1.703-3.657c-0.278-0.621-0.557-1.246-0.837-1.873
			c-0.269-0.631-0.492-1.279-0.741-1.924c-0.481-1.294-0.987-2.597-1.45-3.925c-0.393-1.345-0.789-2.699-1.188-4.062
			c-0.191-0.685-0.412-1.366-0.58-2.06c-0.161-0.694-0.321-1.392-0.482-2.09c-0.286-1.405-0.634-2.811-0.866-4.237
			c-1.038-5.698-1.46-11.57-1.537-17.44c0.137-5.866,0.53-11.738,1.64-17.422c0.204-1.429,0.574-2.83,0.88-4.229
			c0.346-1.393,0.625-2.787,1.066-4.143c0.408-1.359,0.813-2.709,1.216-4.05c0.421-1.334,0.975-2.623,1.452-3.916
			c0.247-0.644,0.493-1.284,0.738-1.922c0.252-0.635,0.557-1.25,0.831-1.871c0.555-1.24,1.132-2.454,1.705-3.649
			c0.644-1.167,1.28-2.321,1.909-3.46c0.316-0.566,0.63-1.129,0.942-1.688c0.333-0.549,0.708-1.074,1.055-1.604
			c0.707-1.051,1.403-2.088,2.089-3.109c0.722-0.998,1.492-1.945,2.237-2.873c1.44-1.889,3.072-3.542,4.595-5.125
			c0.74-0.809,1.573-1.511,2.367-2.206c0.793-0.694,1.563-1.372,2.328-2.01c0.755-0.647,1.599-1.171,2.354-1.731
			c0.769-0.549,1.516-1.074,2.247-1.567c1.508-0.933,2.975-1.714,4.303-2.436c0.336-0.177,0.652-0.361,0.983-0.519
			c0.341-0.146,0.675-0.289,1.001-0.429c0.649-0.268,1.268-0.523,1.855-0.766c2.305-1.048,4.183-1.358,5.445-1.744
			C-47.984,127.23-47.295,127.077-47.295,127.077z"/>
	</g>
	<g>
		<path fill="#FFFFFF" d="M-77.295,110.549c0,0-0.701,0.489-2.014,1.406c-1.335,0.899-3.144,2.305-5.402,4.147
			c-2.218,1.886-4.817,4.231-7.499,7.153c-2.685,2.915-5.459,6.387-8.101,10.393c-2.648,4-5.191,8.516-7.412,13.504
			c-1.126,2.482-2.173,5.085-3.156,7.769c-0.923,2.712-1.884,5.467-2.661,8.339c-1.59,5.728-2.844,11.753-3.681,17.944
			c-0.827,6.189-1.288,12.535-1.278,18.881c-0.048,6.348,0.405,12.689,1.195,18.879c0.857,6.178,2.015,12.222,3.639,17.93
			c1.587,5.721,3.555,11.123,5.806,16.084c0.545,1.25,1.152,2.446,1.726,3.644c0.627,1.161,1.202,2.343,1.843,3.452
			c0.619,1.127,1.242,2.231,1.906,3.279c0.629,1.078,1.325,2.074,1.975,3.085c2.654,3.994,5.449,7.45,8.15,10.349
			c2.698,2.906,5.312,5.237,7.539,7.114c2.25,1.839,4.103,3.256,5.416,4.144c1.31,0.917,2.009,1.406,2.009,1.406
			s-0.828-0.197-2.38-0.628c-0.784-0.199-1.717-0.525-2.831-0.898c-1.13-0.343-2.371-0.864-3.778-1.447
			c-2.784-1.207-6.119-2.881-9.705-5.254c-3.584-2.368-7.399-5.448-11.139-9.269c-3.722-3.829-7.402-8.372-10.657-13.587
			c-3.257-5.21-6.184-11.033-8.516-17.31c-0.616-1.56-1.146-3.159-1.685-4.772c-0.479-1.627-1.012-3.258-1.436-4.924
			c-0.938-3.313-1.661-6.721-2.263-10.175c-0.605-3.454-1.074-6.958-1.366-10.492c-0.271-3.534-0.433-7.09-0.444-10.647
			c0.077-7.112,0.646-14.227,1.924-21.121c0.284-1.728,0.661-3.435,1.016-5.134c0.422-1.687,0.804-3.371,1.284-5.024
			c0.889-3.319,1.949-6.554,3.139-9.678c2.355-6.26,5.249-12.084,8.512-17.285c3.235-5.216,6.882-9.774,10.592-13.612
			c3.718-3.835,7.512-6.937,11.08-9.329c3.568-2.397,6.891-4.095,9.669-5.317c1.41-0.582,2.64-1.115,3.781-1.465
			c1.121-0.375,2.053-0.709,2.827-0.905C-78.121,110.768-77.295,110.549-77.295,110.549z"/>
	</g>
</g>
<g>
	<g>
		<path fill="#FFFFFF" d="M348,141.661c0,0,0.559,0.108,1.605,0.31c1.047,0.243,2.555,0.446,4.466,1.216
			c0.48,0.176,0.998,0.354,1.533,0.565c0.546,0.2,1.106,0.429,1.643,0.713c1.101,0.543,2.312,1.144,3.563,1.862
			c1.202,0.772,2.506,1.61,3.822,2.573c0.639,0.5,1.277,1.035,1.938,1.584c0.661,0.55,1.354,1.106,1.973,1.748
			c1.273,1.256,2.63,2.581,3.838,4.09c0.625,0.742,1.266,1.504,1.869,2.306c0.574,0.821,1.157,1.655,1.749,2.5
			c0.291,0.427,0.604,0.85,0.884,1.292c0.264,0.45,0.528,0.903,0.795,1.359c0.533,0.914,1.079,1.842,1.599,2.796
			c0.471,0.974,0.947,1.959,1.428,2.953c0.496,0.994,0.924,2.021,1.32,3.07c1.737,4.159,2.95,8.648,3.869,13.261
			c0.905,4.621,1.282,9.394,1.363,14.165c-0.032,4.774-0.432,9.548-1.275,14.181c-0.201,1.159-0.495,2.301-0.739,3.441
			c-0.257,1.138-0.528,2.266-0.879,3.373c-0.338,1.105-0.674,2.203-1.007,3.294c-0.406,1.07-0.81,2.132-1.209,3.186
			c-0.209,0.523-0.39,1.05-0.618,1.561c-0.237,0.508-0.473,1.013-0.708,1.516c-0.474,1.003-0.921,2-1.428,2.959
			c-0.538,0.945-1.069,1.881-1.595,2.805c-0.506,0.927-1.092,1.804-1.693,2.651c-0.595,0.851-1.164,1.692-1.753,2.503
			c-0.636,0.786-1.247,1.565-1.88,2.304c-0.312,0.371-0.622,0.738-0.929,1.103c-0.314,0.357-0.663,0.688-0.987,1.027
			c-0.661,0.669-1.294,1.332-1.941,1.952c-0.614,0.646-1.353,1.169-1.995,1.731c-0.663,0.547-1.299,1.085-1.938,1.583
			c-1.353,0.929-2.634,1.784-3.843,2.549c-1.28,0.684-2.471,1.304-3.578,1.837c-1.102,0.542-2.203,0.881-3.148,1.234
			c-1.871,0.748-3.478,0.981-4.512,1.222c-1.044,0.199-1.602,0.305-1.602,0.305s0.427-0.38,1.227-1.091
			c0.783-0.722,2-1.61,3.322-3.012c0.657-0.702,1.455-1.347,2.189-2.216c0.729-0.875,1.549-1.748,2.371-2.716
			c0.755-1.05,1.596-2.094,2.421-3.226c0.741-1.221,1.614-2.385,2.367-3.719c0.708-1.371,1.598-2.648,2.235-4.175
			c0.34-0.745,0.718-1.476,1.085-2.223c0.317-0.777,0.639-1.567,0.965-2.367c0.702-1.56,1.188-3.289,1.819-4.96
			c0.272-0.859,0.501-1.75,0.771-2.625c0.269-0.877,0.523-1.766,0.721-2.687c0.221-0.908,0.442-1.823,0.665-2.746
			c0.176-0.936,0.353-1.878,0.531-2.826c0.21-0.937,0.346-1.899,0.469-2.868c0.131-0.968,0.316-1.926,0.411-2.907
			c0.455-3.912,0.664-7.911,0.691-11.915c-0.069-4-0.235-8.009-0.744-11.919c-0.526-3.896-1.136-7.745-2.104-11.364
			c-0.387-1.85-1.021-3.564-1.49-5.327c-0.301-0.851-0.598-1.691-0.893-2.523c-0.146-0.419-0.29-0.836-0.435-1.25
			c-0.164-0.403-0.327-0.804-0.489-1.202c-0.329-0.801-0.652-1.591-0.972-2.37c-0.345-0.765-0.74-1.483-1.077-2.232
			c-0.648-1.521-1.5-2.83-2.227-4.188c-0.718-1.367-1.621-2.502-2.353-3.731c-0.793-1.166-1.658-2.181-2.403-3.239
			c-0.797-0.997-1.633-1.848-2.354-2.729c-0.361-0.45-0.733-0.823-1.1-1.166c-0.364-0.363-0.712-0.709-1.041-1.037
			c-1.282-1.38-2.58-2.332-3.356-3.039C348.425,142.039,348,141.661,348,141.661z"/>
	</g>
	<g>
		<path fill="#FFFFFF" d="M378,127.077c0,0,0.689,0.153,1.957,0.489c1.263,0.385,3.14,0.695,5.445,1.744
			c0.587,0.242,1.206,0.498,1.855,0.766c0.326,0.14,0.659,0.283,1.001,0.429c0.332,0.157,0.647,0.342,0.983,0.519
			c1.329,0.722,2.795,1.503,4.303,2.436c0.73,0.493,1.478,1.019,2.247,1.567c0.756,0.561,1.599,1.084,2.354,1.731
			c0.765,0.638,1.534,1.315,2.328,2.01c0.793,0.695,1.627,1.396,2.366,2.206c1.522,1.583,3.155,3.236,4.595,5.125
			c0.746,0.928,1.516,1.875,2.237,2.873c0.687,1.021,1.383,2.058,2.089,3.109c0.349,0.53,0.723,1.055,1.056,1.604
			c0.312,0.56,0.626,1.122,0.942,1.688c0.629,1.14,1.266,2.294,1.909,3.46c0.572,1.196,1.149,2.41,1.704,3.649
			c0.274,0.621,0.579,1.236,0.832,1.871c0.244,0.638,0.49,1.278,0.738,1.922c0.477,1.292,1.029,2.581,1.451,3.916
			c0.402,1.341,0.808,2.691,1.216,4.05c0.44,1.355,0.72,2.75,1.065,4.143c0.307,1.399,0.677,2.8,0.881,4.229
			c1.109,5.684,1.503,11.557,1.64,17.422c-0.077,5.87-0.499,11.742-1.537,17.44c-0.231,1.427-0.58,2.832-0.866,4.237
			c-0.161,0.698-0.322,1.396-0.482,2.09c-0.168,0.693-0.389,1.375-0.58,2.06c-0.398,1.362-0.795,2.717-1.188,4.062
			c-0.462,1.328-0.968,2.631-1.449,3.925c-0.249,0.645-0.472,1.293-0.74,1.924c-0.28,0.627-0.56,1.252-0.838,1.873
			c-0.56,1.24-1.09,2.474-1.703,3.657c-0.642,1.169-1.277,2.326-1.905,3.469c-0.323,0.565-0.605,1.143-0.957,1.685
			c-0.354,0.539-0.707,1.074-1.058,1.606c-0.708,1.057-1.389,2.104-2.092,3.112c-0.762,0.978-1.496,1.945-2.25,2.869
			c-0.373,0.464-0.743,0.923-1.11,1.378c-0.376,0.448-0.794,0.861-1.183,1.286c-0.792,0.838-1.554,1.667-2.327,2.45l-0.571,0.587
			l-0.614,0.541c-0.407,0.355-0.81,0.708-1.207,1.057c-0.796,0.692-1.562,1.372-2.328,2.009c-1.625,1.187-3.171,2.279-4.625,3.271
			c-1.544,0.889-2.985,1.696-4.322,2.405c-0.65,0.381-1.342,0.642-1.98,0.916c-0.642,0.263-1.254,0.513-1.835,0.75
			c-1.157,0.469-2.169,0.898-3.131,1.109c-0.93,0.251-1.721,0.464-2.362,0.637c-1.274,0.337-1.953,0.483-1.953,0.483
			s0.551-0.438,1.582-1.262c1.022-0.817,2.573-1.884,4.3-3.545c0.438-0.396,0.9-0.812,1.385-1.249
			c0.483-0.432,1.004-0.854,1.473-1.396c0.957-1.052,2.029-2.111,3.113-3.285c1.006-1.239,2.076-2.558,3.204-3.948
			c0.99-1.501,2.144-2.943,3.154-4.597c0.486-0.844,1.01-1.676,1.526-2.53c0.255-0.431,0.535-0.845,0.774-1.296
			c0.23-0.456,0.463-0.917,0.697-1.381c0.461-0.932,0.962-1.851,1.455-2.788c0.429-0.979,0.863-1.971,1.305-2.977
			c0.939-1.967,1.637-4.133,2.464-6.259c0.362-1.09,0.676-2.216,1.046-3.323c0.178-0.557,0.356-1.115,0.536-1.677
			c0.169-0.565,0.294-1.151,0.444-1.729c1.324-4.579,2.072-9.483,2.82-14.429c0.586-4.983,0.924-10.076,0.922-15.179
			c-0.006-1.274-0.056-2.549-0.078-3.824c-0.018-0.637-0.02-1.274-0.05-1.91l-0.149-1.901c-0.12-1.264-0.157-2.536-0.284-3.792
			c-0.145-1.256-0.289-2.508-0.433-3.755c-0.103-1.256-0.396-2.47-0.571-3.702c-0.202-1.226-0.337-2.466-0.628-3.657
			c-0.257-1.203-0.512-2.399-0.765-3.586c-0.274-1.182-0.599-2.337-0.89-3.498c-0.52-2.35-1.403-4.511-2.024-6.745
			c-0.406-1.075-0.808-2.138-1.204-3.188c-0.199-0.527-0.397-1.052-0.595-1.573c-0.223-0.507-0.443-1.012-0.663-1.513
			c-0.442-1.007-0.88-2-1.311-2.978c-0.464-0.96-0.988-1.864-1.445-2.799c-0.881-1.9-2.009-3.538-2.984-5.223
			c-0.469-0.861-1.032-1.614-1.568-2.371c-0.536-0.757-1.066-1.498-1.567-2.243c-1.058-1.432-2.193-2.679-3.183-3.966
			c-1.052-1.211-2.144-2.243-3.093-3.302c-0.243-0.255-0.476-0.523-0.717-0.755c-0.247-0.22-0.489-0.436-0.727-0.646
			c-0.477-0.433-0.931-0.846-1.362-1.237c-1.686-1.64-3.316-2.772-4.332-3.575C378.541,127.531,378,127.077,378,127.077z"/>
	</g>
	<g>
		<path fill="#FFFFFF" d="M408,110.549c0,0,0.826,0.219,2.375,0.628c0.773,0.195,1.705,0.53,2.826,0.905
			c1.141,0.35,2.371,0.883,3.78,1.465c2.778,1.223,6.102,2.92,9.67,5.317c3.567,2.392,7.362,5.493,11.08,9.329
			c3.71,3.838,7.356,8.396,10.592,13.612c3.263,5.201,6.157,11.025,8.512,17.285c1.19,3.124,2.251,6.359,3.14,9.678
			c0.479,1.653,0.861,3.337,1.283,5.024c0.355,1.699,0.732,3.406,1.017,5.134c1.278,6.894,1.848,14.009,1.924,21.121
			c-0.011,3.558-0.173,7.113-0.444,10.647c-0.291,3.534-0.76,7.038-1.365,10.492c-0.603,3.454-1.324,6.861-2.263,10.175
			c-0.425,1.666-0.957,3.297-1.437,4.924c-0.539,1.613-1.068,3.213-1.685,4.772c-2.332,6.277-5.259,12.1-8.516,17.31
			c-3.255,5.215-6.935,9.759-10.656,13.587c-3.739,3.82-7.555,6.9-11.14,9.269c-3.586,2.373-6.92,4.047-9.704,5.254
			c-1.407,0.583-2.647,1.104-3.777,1.447c-1.114,0.373-2.048,0.699-2.832,0.898c-1.553,0.431-2.38,0.628-2.38,0.628
			s0.699-0.489,2.009-1.406c1.312-0.888,3.165-2.305,5.415-4.144c2.227-1.877,4.841-4.208,7.539-7.114
			c2.702-2.898,5.496-6.354,8.15-10.349c0.649-1.011,1.346-2.007,1.975-3.084c0.664-1.049,1.287-2.153,1.906-3.279
			c0.642-1.11,1.216-2.292,1.843-3.453c0.575-1.197,1.182-2.393,1.727-3.644c2.252-4.961,4.22-10.363,5.807-16.084
			c1.624-5.708,2.781-11.752,3.638-17.93c0.791-6.189,1.243-12.53,1.195-18.879c0.01-6.346-0.451-12.691-1.278-18.881
			c-0.837-6.19-2.09-12.216-3.681-17.944c-0.776-2.873-1.737-5.627-2.66-8.339c-0.984-2.684-2.03-5.286-3.156-7.769
			c-2.221-4.988-4.764-9.504-7.412-13.504c-2.641-4.006-5.416-7.479-8.101-10.393c-2.682-2.921-5.28-5.267-7.499-7.153
			c-2.258-1.842-4.066-3.249-5.402-4.147C408.7,111.039,408,110.549,408,110.549z"/>
	</g>
</g>
</svg>
