<?xml version="1.0" encoding="utf-8"?>
<!-- Generator: Adobe Illustrator 19.1.0, SVG Export Plug-In . SVG Version: 6.00 Build 0)  -->
<svg version="1.1"
	 id="Layer_1" xmlns:sodipodi="http://sodipodi.sourceforge.net/DTD/sodipodi-0.dtd" xmlns:inkscape="http://www.inkscape.org/namespaces/inkscape" sodipodi:docname="anything.svg" inkscape:version="0.48.4 r9939" xmlns:svg="http://www.w3.org/2000/svg" xmlns:rdf="http://www.w3.org/1999/02/22-rdf-syntax-ns#" xmlns:cc="http://creativecommons.org/ns#" xmlns:dc="http://purl.org/dc/elements/1.1/"
	 xmlns="http://www.w3.org/2000/svg" xmlns:xlink="http://www.w3.org/1999/xlink" x="0px" y="0px" viewBox="-5 197 600 400"
	 style="enable-background:new -5 197 600 400;" xml:space="preserve">
<style type="text/css">
	.st0{clip-path:url(#SVGID_2_);}
	.st1{fill:none;stroke:#000000;stroke-width:1.0259;stroke-miterlimit:10;}
	.st2{fill:none;stroke:#000000;stroke-width:1.0259;stroke-miterlimit:10;stroke-dasharray:2.063,2.063;}
	.st3{fill:none;stroke:#000000;stroke-width:1.0259;stroke-miterlimit:10;stroke-dasharray:2.5062,2.5062;}
	.st4{clip-path:url(#SVGID_2_);fill:#171617;stroke:#000000;stroke-width:1.1789;stroke-miterlimit:10;}
	.st5{fill:#FFFFFF;}
	.st6{fill:none;stroke:#000000;stroke-width:1.0125;stroke-miterlimit:10;}
	.st7{fill:none;stroke:#000000;stroke-width:1.0125;stroke-miterlimit:10;stroke-dasharray:2.0335,2.0335;}
	.st8{fill:none;stroke:#000000;stroke-width:1.0125;stroke-miterlimit:10;stroke-dasharray:1.174,1.174;}
	.st9{fill:#171617;stroke:#000000;stroke-width:1.1388;stroke-miterlimit:10;}
	.st10{fill:none;stroke:#000000;stroke-width:1.1388;stroke-miterlimit:10;}
	.st11{fill:none;stroke:#000000;stroke-width:1.0125;stroke-miterlimit:10;stroke-dasharray:2.4066,2.4066;}
	.st12{fill:#FFCE09;stroke:#F89839;stroke-width:1.5509;stroke-miterlimit:10;}
	.st13{fill:#FFCE09;}
	.st14{fill:none;stroke:#F89839;stroke-width:1.5509;stroke-miterlimit:10;}
	.st15{clip-path:url(#SVGID_2_);fill:#FFFFFF;stroke:#000000;stroke-width:0.9126;stroke-miterlimit:10;}
	.st16{fill:none;stroke:#000000;stroke-width:1.0374;stroke-miterlimit:10;}
	.st17{fill:none;stroke:#000000;stroke-width:1.0374;stroke-miterlimit:10;stroke-dasharray:1.1336,1.1336;}
	.st18{fill:none;stroke:#000000;stroke-width:1.0374;stroke-miterlimit:10;stroke-dasharray:2.0369,2.0369;}
	.st19{fill:#171617;stroke:#000000;stroke-width:1.1242;stroke-miterlimit:10;}
	.st20{fill:none;stroke:#3399CC;stroke-width:1.1138;stroke-miterlimit:10;}
	.st21{fill:none;stroke:#3399CC;stroke-width:1.1138;stroke-miterlimit:10;stroke-dasharray:2.2253,2.2253;}
	.st22{fill:none;stroke:#3399CC;stroke-width:1.1138;stroke-miterlimit:10;stroke-dasharray:2.1467,2.1467;}
	.st23{fill:#3399CC;stroke:#1E314B;stroke-width:1.7807;stroke-miterlimit:10;}
	.st24{clip-path:url(#SVGID_2_);fill:#FFFFFF;stroke:#000000;stroke-width:0.8903;stroke-miterlimit:10;}
	.st25{fill:none;stroke:#000000;stroke-miterlimit:10;}
	.st26{fill:none;stroke:#000000;stroke-miterlimit:10;stroke-dasharray:0.8537,0.8537;}
	.st27{fill:none;stroke:#000000;stroke-miterlimit:10;stroke-dasharray:1.0298,1.0298;}
	.st28{fill:none;stroke:#000000;stroke-miterlimit:10;stroke-dasharray:1.0147,1.0147;}
	.st29{fill:none;stroke:#000000;stroke-miterlimit:10;stroke-dasharray:0.9642,0.9642;}
	.st30{fill:none;stroke:#000000;stroke-miterlimit:10;stroke-dasharray:1.024,1.024;}
	.st31{fill:none;stroke:#000000;stroke-miterlimit:10;stroke-dasharray:0.965,0.965;}
	.st32{fill:none;stroke:#000000;stroke-miterlimit:10;stroke-dasharray:0.9547,0.9547;}
	.st33{fill:#FFFFFF;stroke:#000000;stroke-width:0.9736;stroke-miterlimit:10;}
	.st34{fill:#010101;stroke:#FFFFFF;stroke-width:0.4013;stroke-miterlimit:10;}
	.st35{fill:#3399CC;}
	.st36{fill:#996699;}
	.st37{fill:#F89839;}
	.st38{fill:#EE3968;}
	.st39{fill:#6EC498;}
	.st40{fill:none;stroke:#FFFFFF;stroke-width:1.2037;stroke-miterlimit:10;}
	.st41{fill:none;stroke:#FFFFFF;stroke-width:1.2037;stroke-miterlimit:10;stroke-dasharray:2.7321,2.7321;}
	.st42{fill:none;stroke:#FFFFFF;stroke-width:1.2037;stroke-miterlimit:10;stroke-dasharray:2.9305,2.9305;}
</style>
<sodipodi:namedview  id="namedview249" fit-margin-bottom="0" fit-margin-right="0" inkscape:current-layer="Layer_1" inkscape:window-maximized="1" inkscape:window-y="24" inkscape:window-x="0" inkscape:pageopacity="0" inkscape:window-height="1026" inkscape:window-width="1680" inkscape:pageshadow="2" objecttolerance="10" borderopacity="1" pagecolor="#ffffff" bordercolor="#666666" showgrid="false" fit-margin-left="0" fit-margin-top="0" inkscape:cy="290.58832" inkscape:cx="219.77233" inkscape:zoom="1.2929953" gridtolerance="10" guidetolerance="10">
	</sodipodi:namedview>
<g>
	<defs>
		<rect id="SVGID_1_" x="-5" y="197" width="600" height="400"/>
	</defs>
	<clipPath id="SVGID_2_">
		<use xlink:href="#SVGID_1_"  style="overflow:visible;"/>
	</clipPath>
	<g class="st0">
		<g>
			<polyline class="st1" points="179.2,397.9 179.2,398.9 178.2,398.9 			"/>
			<line class="st2" x1="176.2" y1="398.9" x2="-12.6" y2="398.9"/>
			<polyline class="st1" points="-13.6,398.9 -14.7,398.9 -14.7,397.9 			"/>
			<line class="st3" x1="-14.7" y1="395.4" x2="-14.7" y2="391.6"/>
			<polyline class="st1" points="-14.7,390.4 -14.7,389.4 -13.6,389.4 			"/>
			<line class="st2" x1="-11.6" y1="389.4" x2="177.2" y2="389.4"/>
			<polyline class="st1" points="178.2,389.4 179.2,389.4 179.2,390.4 			"/>
			<line class="st3" x1="179.2" y1="392.9" x2="179.2" y2="396.6"/>
		</g>
	</g>
	<polygon class="st4" points="163.3,398.9 166.1,401.2 178.5,401.2 178.5,387.1 166.1,387.1 163.3,389.4 	"/>
	<polygon class="st4" points="227,411.1 191.8,411.1 178.5,407.3 178.5,381 191.7,377.2 227,377.2 	"/>
	<g class="st0">
		<path class="st5" d="M198.7,386.1v1.5H192v-1.5h2.8v-2.5H192v-1.5h6.6v1.5h-2.5v2.5H198.7z"/>
		<path class="st5" d="M195.4,394.9c-0.6,0-1.1-0.1-1.5-0.3c-0.4-0.2-0.8-0.4-1.1-0.8c-0.3-0.3-0.5-0.7-0.6-1.2
			c-0.1-0.5-0.2-1-0.2-1.6c0-0.3,0-0.6,0-0.9c0-0.4,0.1-0.7,0.1-1.1h6.5c0.1,0.3,0.1,0.7,0.1,1.1c0,0.4,0,0.7,0,1
			c0,0.6-0.1,1.1-0.2,1.5c-0.1,0.5-0.3,0.9-0.6,1.2c-0.3,0.3-0.6,0.6-1.1,0.8C196.5,394.8,196,394.9,195.4,394.9z M193.2,390.6
			c0,0.1,0,0.2,0,0.2c0,0.1,0,0.2,0,0.3c0,0.7,0.2,1.3,0.6,1.7c0.4,0.4,0.9,0.5,1.6,0.5c0.7,0,1.2-0.2,1.6-0.5
			c0.4-0.3,0.5-0.9,0.5-1.6c0-0.1,0-0.2,0-0.3c0-0.1,0-0.2,0-0.3L193.2,390.6L193.2,390.6z"/>
		<path class="st5" d="M198.7,397.9c-0.2,0.1-0.5,0.2-0.8,0.4c-0.3,0.2-0.6,0.3-1,0.5c-0.4,0.2-0.7,0.3-1.1,0.5
			c-0.4,0.2-0.7,0.3-1.1,0.5c0.3,0.1,0.7,0.3,1.1,0.4c0.4,0.2,0.7,0.3,1.1,0.5c0.4,0.2,0.7,0.3,1,0.5c0.3,0.1,0.6,0.3,0.8,0.4v1.4
			c-0.4,0.1-0.9,0.1-1.5,0.2c-0.5,0.1-1.1,0.1-1.7,0.1c-0.6,0-1.2,0.1-1.8,0.1c-0.6,0-1.2,0.1-1.7,0.1v-1.5c0.6,0,1.3,0,2.1-0.1
			c0.8,0,1.5-0.1,2.3-0.1c-0.3-0.1-0.6-0.2-0.9-0.4c-0.3-0.1-0.7-0.3-1-0.4c-0.3-0.1-0.6-0.3-0.9-0.4c-0.3-0.1-0.6-0.2-0.8-0.3v-1
			c0.2-0.1,0.5-0.2,0.8-0.3c0.3-0.1,0.6-0.3,0.9-0.4c0.3-0.1,0.7-0.3,1-0.4c0.3-0.1,0.6-0.3,0.9-0.4c-0.8-0.1-1.5-0.1-2.3-0.1
			c-0.8,0-1.5-0.1-2.1-0.1v-1.5c0.5,0,1.1,0.1,1.7,0.1c0.6,0,1.2,0.1,1.8,0.1c0.6,0,1.2,0.1,1.7,0.1s1,0.1,1.5,0.2V397.9z"/>
		<path class="st5" d="M198.7,404.7v1.5H192v-1.5H198.7z"/>
	</g>
	<line class="st4" x1="175.7" y1="387.1" x2="175.7" y2="401.2"/>
	<line class="st4" x1="172.8" y1="387.1" x2="172.8" y2="401.2"/>
	<line class="st4" x1="169.9" y1="387.1" x2="169.9" y2="401.2"/>
	<line class="st4" x1="167" y1="387.1" x2="167" y2="401.2"/>
	<g class="st0">
		<g>
			<polyline class="st6" points="600,427.9 600,428.9 599,428.9 			"/>
			<line class="st7" x1="597" y1="428.9" x2="398.7" y2="428.9"/>
			<polyline class="st6" points="397.7,428.9 396.7,428.9 396.7,427.9 			"/>
			<line class="st8" x1="396.7" y1="426.7" x2="396.7" y2="425"/>
			<polyline class="st6" points="396.7,424.4 396.7,423.4 397.7,423.4 			"/>
			<line class="st7" x1="399.7" y1="423.4" x2="598" y2="423.4"/>
			<polyline class="st6" points="599,423.4 600,423.4 600,424.4 			"/>
			<line class="st8" x1="600" y1="425.6" x2="600" y2="427.3"/>
		</g>
	</g>
	<g class="st0">
		<polygon class="st9" points="412.7,422.5 412.7,429.8 400.8,431.6 380.5,431.6 380.5,420.6 400.8,420.6 		"/>
		<line class="st10" x1="400.8" y1="420.6" x2="400.8" y2="431.6"/>
		<line class="st10" x1="403.3" y1="421" x2="403.3" y2="431.3"/>
		<line class="st10" x1="405.5" y1="421.4" x2="405.5" y2="430.9"/>
		<line class="st10" x1="407.6" y1="421.7" x2="407.7" y2="430.6"/>
		<line class="st10" x1="409.5" y1="422" x2="409.5" y2="430.3"/>
		<line class="st10" x1="411.2" y1="422.2" x2="411.2" y2="430.1"/>
	</g>
	<g class="st0">
		<g>
			<polyline class="st6" points="600,374.7 600,375.7 599,375.7 			"/>
			<line class="st7" x1="597" y1="375.7" x2="398.7" y2="375.7"/>
			<polyline class="st6" points="397.7,375.7 396.7,375.7 396.7,374.7 			"/>
			<line class="st11" x1="396.7" y1="372.3" x2="396.7" y2="368.7"/>
			<polyline class="st6" points="396.7,367.5 396.7,366.5 397.7,366.5 			"/>
			<line class="st7" x1="399.7" y1="366.5" x2="598" y2="366.5"/>
			<polyline class="st6" points="599,366.5 600,366.5 600,367.5 			"/>
			<line class="st11" x1="600" y1="369.9" x2="600" y2="373.5"/>
		</g>
	</g>
	<g class="st0">
		<polygon class="st12" points="395.2,364.2 395.2,378 387.4,379.8 376.4,379.8 376.4,362.4 387.5,362.4 		"/>
		<rect x="396" y="365" class="st13" width="17.3" height="12.2"/>
		<line class="st14" x1="397.5" y1="363.9" x2="397.5" y2="378.1"/>
		<line class="st14" x1="399.4" y1="363.9" x2="399.4" y2="378.1"/>
		<line class="st14" x1="401.2" y1="363.9" x2="401.2" y2="378.1"/>
		<line class="st14" x1="403.1" y1="363.9" x2="403.1" y2="378.1"/>
		<line class="st14" x1="404.9" y1="363.9" x2="404.9" y2="378.1"/>
		<line class="st14" x1="406.8" y1="363.9" x2="406.8" y2="378.1"/>
		<line class="st14" x1="408.6" y1="363.9" x2="408.6" y2="378.1"/>
		<line class="st14" x1="410.5" y1="363.9" x2="410.5" y2="378.1"/>
	</g>
	<rect x="278.8" y="234.3" class="st15" width="62.1" height="41.4"/>
	<g class="st0">
		<path d="M293,258.9v-11.4h7.7v2.2h-5.1v2.2h4.6v2.1h-4.6v2.7h5.5v2.2H293z"/>
		<path d="M306,247.5c0.2,0.4,0.4,0.8,0.7,1.3c0.3,0.5,0.5,1.1,0.8,1.7c0.3,0.6,0.6,1.3,0.8,1.9s0.5,1.3,0.8,1.8
			c0.2-0.6,0.5-1.2,0.8-1.8s0.6-1.3,0.8-1.9c0.3-0.6,0.5-1.2,0.8-1.7c0.3-0.5,0.5-1,0.7-1.3h2.3c0.1,0.8,0.2,1.6,0.3,2.5
			c0.1,0.9,0.2,1.9,0.2,2.9c0.1,1,0.1,2,0.2,3c0.1,1,0.1,2,0.2,2.9h-2.5c0-1.1-0.1-2.3-0.1-3.6c-0.1-1.3-0.1-2.6-0.2-3.9
			c-0.2,0.5-0.4,1-0.7,1.5c-0.2,0.6-0.5,1.1-0.7,1.7c-0.2,0.6-0.5,1.1-0.7,1.6c-0.2,0.5-0.4,0.9-0.6,1.3h-1.8
			c-0.2-0.4-0.3-0.8-0.6-1.3c-0.2-0.5-0.4-1-0.7-1.6c-0.2-0.6-0.5-1.1-0.7-1.7c-0.2-0.6-0.5-1.1-0.7-1.5c-0.1,1.3-0.2,2.6-0.2,3.9
			c-0.1,1.3-0.1,2.5-0.1,3.6h-2.5c0-0.9,0.1-1.9,0.2-2.9c0.1-1,0.1-2,0.2-3s0.2-2,0.2-2.9c0.1-0.9,0.2-1.8,0.3-2.5H306z"/>
		<path d="M322.9,259.1c-1.9,0-3.3-0.5-4.2-1.5c-1-1-1.5-2.5-1.5-4.4c0-0.9,0.1-1.8,0.4-2.5c0.3-0.7,0.7-1.4,1.2-1.9
			c0.5-0.5,1.1-0.9,1.8-1.2c0.7-0.3,1.5-0.4,2.3-0.4c0.5,0,0.9,0,1.3,0.1s0.7,0.2,1,0.2c0.3,0.1,0.5,0.2,0.7,0.3
			c0.2,0.1,0.3,0.2,0.4,0.2l-0.7,2.1c-0.4-0.2-0.8-0.3-1.2-0.5c-0.5-0.1-1-0.2-1.6-0.2c-0.4,0-0.8,0.1-1.2,0.2
			c-0.4,0.1-0.7,0.3-1,0.6c-0.3,0.3-0.5,0.7-0.7,1.1s-0.3,1-0.3,1.7c0,0.5,0.1,1,0.2,1.5c0.1,0.5,0.3,0.8,0.6,1.2
			c0.3,0.3,0.6,0.6,1,0.8s0.9,0.3,1.5,0.3c0.4,0,0.7,0,1-0.1c0.3,0,0.6-0.1,0.8-0.2c0.2-0.1,0.4-0.1,0.6-0.2
			c0.2-0.1,0.3-0.1,0.5-0.2l0.7,2.1c-0.4,0.2-0.9,0.4-1.5,0.6C324.5,259,323.7,259.1,322.9,259.1z"/>
	</g>
	<g class="st0">
		<g>
			<polyline class="st16" points="258,252.8 258,253.8 257,253.8 			"/>
			<line class="st17" x1="255.9" y1="253.8" x2="254.2" y2="253.8"/>
			<polyline class="st16" points="253.6,253.8 252.6,253.8 252.6,252.8 			"/>
			<line class="st18" x1="252.6" y1="250.7" x2="252.6" y2="194.7"/>
			<polyline class="st16" points="252.6,193.7 252.6,192.7 253.6,192.7 			"/>
			<line class="st17" x1="254.7" y1="192.7" x2="256.4" y2="192.7"/>
			<polyline class="st16" points="257,192.7 258,192.7 258,193.7 			"/>
			<line class="st18" x1="258" y1="195.7" x2="258" y2="251.8"/>
		</g>
	</g>
	<g class="st0">
		<polygon class="st19" points="252.5,236.7 250,251.3 260.6,251.3 258,236.7 		"/>
		<polygon class="st19" points="249.1,275.8 261.4,275.8 261.4,255 260.6,251.3 250,251.3 249.1,255 		"/>
		<path class="st19" d="M249.1,254.8"/>
		<line class="st19" x1="260.6" y1="248.6" x2="250" y2="248.6"/>
		<line class="st19" x1="260" y1="245.9" x2="250.6" y2="245.9"/>
		<line class="st19" x1="259.3" y1="243.1" x2="251.3" y2="243.1"/>
		<line class="st19" x1="258.9" y1="240.4" x2="251.7" y2="240.4"/>
		<rect x="252.2" y="231.9" class="st19" width="6.1" height="6.4"/>
	</g>
	<g class="st0">
		<g>
			<g>
				<polyline class="st20" points="269.1,607.6 269.1,608.7 268,608.7 				"/>
				<line class="st21" x1="265.7" y1="608.7" x2="262.4" y2="608.7"/>
				<polyline class="st20" points="261.3,608.7 260.2,608.7 260.2,607.6 				"/>
				<line class="st22" x1="260.2" y1="605.4" x2="260.2" y2="550.7"/>
				<polyline class="st20" points="260.2,549.6 260.2,548.5 261.3,548.5 				"/>
				<line class="st21" x1="263.5" y1="548.5" x2="266.8" y2="548.5"/>
				<polyline class="st20" points="268,548.5 269.1,548.5 269.1,549.6 				"/>
				<line class="st22" x1="269.1" y1="551.7" x2="269.1" y2="606.5"/>
			</g>
		</g>
	</g>
	<g class="st0">
		<polygon class="st23" points="258.8,560 253.5,545.8 275.7,545.8 270.4,560 		"/>
		<polygon class="st23" points="251.7,521.8 277.5,521.8 277.5,542.1 275.7,545.8 253.5,545.8 251.7,542.1 		"/>
		<path class="st23" d="M251.7,542.3"/>
		<line class="st23" x1="275.7" y1="548.4" x2="253.5" y2="548.4"/>
		<line class="st23" x1="274.4" y1="551" x2="254.8" y2="551"/>
		<line class="st23" x1="273.1" y1="553.7" x2="256.1" y2="553.7"/>
		<line class="st23" x1="272.2" y1="556.4" x2="257" y2="556.4"/>
		<rect x="258.1" y="558.5" class="st23" width="12.8" height="6.2"/>
	</g>
	<polygon class="st24" points="335.5,551.9 304.5,551.9 308,517.7 332,517.7 	"/>
	<g class="st0">
		<g>
			<g>
				<g>
					<g>
						<path class="st25" d="M302.1,572c-0.1-0.1-0.2-0.2-0.4-0.4l0.4-0.4"/>
						<line class="st26" x1="302.7" y1="570.7" x2="303.6" y2="569.8"/>
						<path class="st25" d="M303.9,569.5l0.4-0.4c0.1,0.1,0.2,0.2,0.4,0.3"/>
						<path class="st27" d="M305.4,570.2c8.5,7.4,21.3,7.3,29.7-0.3"/>
						<path class="st25" d="M335.4,569.5c0.1-0.1,0.2-0.2,0.4-0.3l0.4,0.4"/>
						<line class="st26" x1="336.7" y1="570.1" x2="337.6" y2="571"/>
						<path class="st25" d="M337.9,571.3l0.4,0.4c-0.1,0.1-0.2,0.2-0.4,0.4"/>
						<path class="st28" d="M337.2,572.7c-4.9,4.3-11,6.5-17.2,6.5c-6.3,0-12.6-2.3-17.5-6.9"/>
					</g>
				</g>
				<g>
					<g>
						<path class="st25" d="M306.5,567.6c-0.1-0.1-0.2-0.2-0.4-0.3l0.4-0.4"/>
						<line class="st26" x1="307.1" y1="566.3" x2="308" y2="565.4"/>
						<path class="st25" d="M308.3,565.1l0.4-0.4c0.1,0.1,0.2,0.2,0.4,0.3"/>
						<path class="st29" d="M309.8,565.7c6,5,14.9,4.9,20.8-0.3"/>
						<path class="st25" d="M331,565.1c0.1-0.1,0.2-0.2,0.4-0.3l0.4,0.4"/>
						<line class="st26" x1="332.3" y1="565.7" x2="333.2" y2="566.6"/>
						<path class="st25" d="M333.5,566.9l0.4,0.4c-0.1,0.1-0.2,0.2-0.4,0.3"/>
						<path class="st30" d="M332.7,568.3c-3.6,3.1-8.2,4.7-12.7,4.7c-4.7,0-9.4-1.7-13.1-5"/>
					</g>
				</g>
				<g>
					<g>
						<path class="st25" d="M311.7,562.8c-0.1-0.1-0.2-0.2-0.4-0.3l0.4-0.4"/>
						<line class="st26" x1="312.3" y1="561.5" x2="313.2" y2="560.6"/>
						<path class="st25" d="M313.6,560.3l0.4-0.4c0.1,0.1,0.2,0.2,0.4,0.3"/>
						<path class="st31" d="M315,560.9c1.4,1,3.2,1.6,5,1.6c2,0,3.8-0.7,5.4-1.9"/>
						<path class="st25" d="M325.7,560.3c0.1-0.1,0.2-0.2,0.4-0.3l0.4,0.4"/>
						<line class="st26" x1="327.1" y1="560.9" x2="328" y2="561.8"/>
						<path class="st25" d="M328.3,562.1l0.4,0.4c-0.1,0.1-0.2,0.2-0.4,0.3"/>
						<path class="st32" d="M327.5,563.4c-2.1,1.7-4.8,2.6-7.5,2.6c-2.9,0-5.7-1-7.9-2.9"/>
					</g>
				</g>
			</g>
		</g>
	</g>
	<g class="st0">
		<path d="M314.1,539.3c0.1,0.2,0.1,0.5,0.2,0.8c0.1,0.3,0.2,0.6,0.3,0.9s0.2,0.7,0.3,1c0.1,0.3,0.2,0.6,0.3,0.9
			c0.1-0.3,0.2-0.6,0.2-1c0.1-0.4,0.2-0.7,0.2-1.1c0.1-0.4,0.1-0.8,0.2-1.1c0.1-0.4,0.1-0.7,0.2-1.1h1.4c-0.2,1-0.4,2.1-0.7,3.1
			c-0.3,1.1-0.6,2.1-0.9,3h-1.3c-0.2-0.6-0.4-1.2-0.6-1.8c-0.2-0.6-0.4-1.3-0.6-1.9c-0.2,0.6-0.4,1.3-0.6,1.9
			c-0.2,0.6-0.4,1.2-0.6,1.8H311c-0.3-1-0.6-2-0.9-3c-0.3-1.1-0.5-2.1-0.7-3.1h1.5c0.1,0.3,0.1,0.7,0.2,1.1c0.1,0.4,0.1,0.8,0.2,1.1
			c0.1,0.4,0.2,0.7,0.2,1.1s0.2,0.7,0.2,1c0.1-0.3,0.2-0.6,0.3-0.9c0.1-0.3,0.2-0.7,0.3-1c0.1-0.3,0.2-0.6,0.3-0.9s0.2-0.6,0.2-0.8
			H314.1z"/>
		<path d="M319.8,538.8c0,0.2-0.1,0.4-0.2,0.6c-0.2,0.1-0.3,0.2-0.6,0.2c-0.2,0-0.4-0.1-0.6-0.2c-0.2-0.1-0.2-0.3-0.2-0.6
			s0.1-0.4,0.2-0.6c0.2-0.1,0.3-0.2,0.6-0.2c0.2,0,0.4,0.1,0.6,0.2C319.7,538.3,319.8,538.5,319.8,538.8z M319.7,544.8h-1.3v-4.7
			h1.3V544.8z"/>
		<path d="M320.5,541.6h2.6v1.2h-2.6V541.6z"/>
		<path d="M324,544.8v-6.2h4.1v1.2h-2.7v1.3h2.4v1.2h-2.4v2.5H324z"/>
		<path d="M330.5,538.8c0,0.2-0.1,0.4-0.2,0.6c-0.2,0.1-0.3,0.2-0.6,0.2c-0.2,0-0.4-0.1-0.6-0.2c-0.2-0.1-0.2-0.3-0.2-0.6
			s0.1-0.4,0.2-0.6c0.2-0.1,0.3-0.2,0.6-0.2c0.2,0,0.4,0.1,0.6,0.2C330.4,538.3,330.5,538.5,330.5,538.8z M330.4,544.8H329v-4.7h1.3
			V544.8z"/>
	</g>
	<g class="st0">
		<rect x="210" y="287.7" class="st33" width="170.4" height="218.3"/>
		<g>
			<g>
				<g>
					<path class="st34" d="M294.5,378.9"/>
				</g>
				<g>
					<path class="st34" d="M294.5,378.9"/>
				</g>
				<g>
					<path class="st34" d="M294.5,378.9"/>
				</g>
				<g>
					<path class="st34" d="M294.5,378.9"/>
				</g>
			</g>
			<polyline class="st35" points="344.7,407.7 319.6,422.7 294.5,437.8 294.5,407.7 294.5,377.6 			"/>
			<polyline class="st36" points="344.7,407.7 344.7,377.6 344.7,347.5 319.6,362.6 294.5,377.6 			"/>
			<polyline class="st37" points="294.6,317.4 269.5,332.5 244.4,347.5 269.5,362.6 294.6,377.6 			"/>
			<polyline class="st38" points="294.5,317.4 319.6,332.5 344.7,347.5 319.6,362.6 294.5,377.6 			"/>
			<polyline class="st13" points="244.4,407.7 269.5,422.7 294.6,437.8 294.6,407.7 294.6,377.6 			"/>
			<polyline class="st39" points="244.4,407.7 244.4,377.6 244.4,347.5 269.5,362.6 294.5,377.6 			"/>
			<g>
				<g>
					<g>
						<line class="st40" x1="294.6" y1="317.4" x2="294.6" y2="318.8"/>
						<line class="st41" x1="294.6" y1="321.6" x2="294.5" y2="374.8"/>
						<line class="st40" x1="294.5" y1="376.2" x2="294.5" y2="377.6"/>
					</g>
				</g>
				<g>
					<g>
						<line class="st40" x1="294.5" y1="377.6" x2="295.7" y2="378.3"/>
						<line class="st42" x1="298.3" y1="379.8" x2="342.2" y2="406.2"/>
						<line class="st40" x1="343.5" y1="407" x2="344.7" y2="407.7"/>
					</g>
				</g>
				<g>
					<g>
						<line class="st40" x1="294.5" y1="377.6" x2="293.3" y2="378.3"/>
						<line class="st42" x1="290.8" y1="379.8" x2="246.9" y2="406.2"/>
						<line class="st40" x1="245.6" y1="407" x2="244.4" y2="407.7"/>
					</g>
				</g>
			</g>
			<g>
				<line class="st40" x1="294.6" y1="437.8" x2="294.5" y2="377.6"/>
				<line class="st40" x1="294.5" y1="377.6" x2="344.7" y2="347.5"/>
				<line class="st40" x1="294.5" y1="377.6" x2="244.4" y2="347.5"/>
			</g>
		</g>
		<rect x="219.8" y="511.9" class="st33" width="150.2" height="12.2"/>
		<rect x="219.8" y="269.9" class="st33" width="150.2" height="12.2"/>
		<rect x="206.7" y="277.6" width="176.5" height="10.5"/>
		<rect x="206.7" y="505.7" width="176.5" height="10.5"/>
		<g>
			<path d="M280.6,450.2h3.9v17.3h-3.9v-7.4H274v7.4h-3.9v-17.3h3.9v6.6h6.6V450.2z"/>
			<path d="M295.3,467.9c-1.2,0-2.3-0.2-3.2-0.5c-0.9-0.3-1.6-0.8-2.2-1.4c-0.6-0.6-1-1.3-1.3-2.2c-0.3-0.8-0.4-1.8-0.4-2.8v-10.8
				h3.9v10.5c0,0.7,0.1,1.3,0.2,1.8c0.2,0.5,0.4,0.9,0.7,1.2c0.3,0.3,0.6,0.5,1,0.7c0.4,0.1,0.8,0.2,1.3,0.2c1,0,1.7-0.3,2.3-0.9
				c0.6-0.6,0.9-1.6,0.9-3v-10.5h3.9V461c0,1-0.1,2-0.4,2.8c-0.3,0.9-0.7,1.6-1.3,2.2c-0.6,0.6-1.3,1.1-2.2,1.4
				S296.5,467.9,295.3,467.9z"/>
			<path d="M312,467.8c-1,0-1.9,0-2.8-0.1c-0.9-0.1-1.9-0.2-2.9-0.4v-16.8c0.8-0.1,1.7-0.3,2.6-0.3c1-0.1,1.8-0.1,2.7-0.1
				c1.1,0,2.1,0.1,3,0.2c0.9,0.2,1.7,0.4,2.4,0.8c0.7,0.4,1.2,0.9,1.6,1.5s0.6,1.4,0.6,2.3c0,1.4-0.7,2.5-2,3.3
				c1.1,0.4,1.9,1,2.3,1.7c0.4,0.7,0.6,1.5,0.6,2.4c0,1.8-0.7,3.2-2,4.1C316.6,467.3,314.6,467.8,312,467.8z M310,457h1.9
				c1.2,0,2.1-0.2,2.6-0.5c0.5-0.3,0.8-0.8,0.8-1.5c0-0.7-0.3-1.2-0.8-1.5c-0.5-0.3-1.3-0.4-2.4-0.4c-0.3,0-0.7,0-1.1,0
				c-0.4,0-0.7,0-1,0.1C310,453.2,310,457,310,457z M310,460v4.5c0.3,0,0.6,0.1,0.9,0.1c0.3,0,0.7,0,1.1,0c1.2,0,2.1-0.2,2.8-0.5
				c0.7-0.3,1.1-1,1.1-1.9c0-0.8-0.3-1.4-0.9-1.7c-0.6-0.3-1.5-0.5-2.6-0.5H310z"/>
		</g>
		<rect x="215.2" y="377.6" width="6.3" height="33.5"/>
		<rect x="369.6" y="377.6" width="6.3" height="33.5"/>
	</g>
</g>
</svg>
