<?xml version="1.0" encoding="utf-8"?>
<!-- Generator: Adobe Illustrator 16.0.0, SVG Export Plug-In . SVG Version: 6.00 Build 0)  -->
<!DOCTYPE svg PUBLIC "-//W3C//DTD SVG 1.1//EN" "http://www.w3.org/Graphics/SVG/1.1/DTD/svg11.dtd">
<svg version="1.1" id="Layer_1" xmlns="http://www.w3.org/2000/svg" xmlns:xlink="http://www.w3.org/1999/xlink" x="0px" y="0px"
	 width="550px" height="250px" viewBox="0 0 550 250" enable-background="new 0 0 550 250" xml:space="preserve">
<g>
	<path fill="none" d="M515.834,107.416"/>
</g>
<path stroke="#4368B1" stroke-width="5" stroke-linecap="square" stroke-miterlimit="10" d="M242.167,213.928"/>
<g>
	<g>
		<g>
			
				<line fill="none" stroke="#3399CC" stroke-width="5" stroke-linecap="square" stroke-miterlimit="10" x1="305.821" y1="189.877" x2="305.821" y2="195.877"/>
			
				<line fill="none" stroke="#3399CC" stroke-width="5" stroke-linecap="square" stroke-miterlimit="10" x1="305.821" y1="199.594" x2="305.821" y2="205.594"/>
		</g>
	</g>
	<g>
		<g>
			
				<line fill="none" stroke="#3399CC" stroke-width="5" stroke-linecap="square" stroke-miterlimit="10" x1="305.821" y1="205.594" x2="299.821" y2="205.594"/>
			
				<line fill="none" stroke="#3399CC" stroke-width="5" stroke-linecap="square" stroke-miterlimit="10" stroke-dasharray="11.522,11.522" x1="288.299" y1="205.594" x2="224.928" y2="205.594"/>
			
				<line fill="none" stroke="#3399CC" stroke-width="5" stroke-linecap="square" stroke-miterlimit="10" x1="219.167" y1="205.594" x2="213.167" y2="205.594"/>
		</g>
	</g>
	<g>
		<g>
			
				<line fill="none" stroke="#3399CC" stroke-width="5" stroke-linecap="square" stroke-miterlimit="10" x1="213.167" y1="205.594" x2="213.167" y2="199.594"/>
			
				<line fill="none" stroke="#3399CC" stroke-width="5" stroke-linecap="square" stroke-miterlimit="10" stroke-dasharray="12.8957,12.8957" x1="213.167" y1="186.698" x2="213.167" y2="141.563"/>
			
				<line fill="none" stroke="#3399CC" stroke-width="5" stroke-linecap="square" stroke-miterlimit="10" x1="213.167" y1="135.115" x2="213.167" y2="129.115"/>
		</g>
	</g>
	<g>
		<g>
			
				<line fill="none" stroke="#3399CC" stroke-width="5" stroke-linecap="square" stroke-miterlimit="10" x1="213.167" y1="129.115" x2="207.167" y2="129.115"/>
			
				<line fill="none" stroke="#3399CC" stroke-width="5" stroke-linecap="square" stroke-miterlimit="10" stroke-dasharray="13.7148,13.7148" x1="193.452" y1="129.115" x2="172.88" y2="129.115"/>
			
				<line fill="none" stroke="#3399CC" stroke-width="5" stroke-linecap="square" stroke-miterlimit="10" x1="166.022" y1="129.115" x2="160.022" y2="129.115"/>
		</g>
	</g>
</g>
<rect x="296.949" y="162.538" fill="#3399CC" stroke="#1D304B" stroke-width="3" stroke-miterlimit="10" width="17.744" height="25.348"/>
<line fill="none" stroke="#FFCE09" stroke-width="5" stroke-miterlimit="10" x1="398.512" y1="149.535" x2="378.512" y2="149.535"/>
<rect x="359.236" y="142.822" fill="#FFCE09" stroke="#F89839" stroke-width="3" stroke-miterlimit="10" width="19.182" height="13.428"/>
<rect x="359.236" y="118.27" fill="#6EC498" stroke="#579975" stroke-width="3" stroke-miterlimit="10" width="19.182" height="13.428"/>
<g>
	<g>
		<path fill="none" stroke="#579975" stroke-width="2" stroke-miterlimit="10" d="M388.588,115.59c5.19,5.192,5.19,13.595,0,18.786"
			/>
		<path fill="none" stroke="#579975" stroke-width="2" stroke-miterlimit="10" d="M386.131,118.047
			c3.832,3.834,3.832,10.038,0,13.874"/>
		<path fill="none" stroke="#579975" stroke-width="2" stroke-miterlimit="10" d="M383.483,120.924c2.245,2.242,2.245,5.877,0,8.121
			"/>
	</g>
</g>
<g>
	
		<rect x="-147.173" y="8" fill="#FFFFFF" stroke="#CCCCCC" stroke-width="8" stroke-miterlimit="10" width="308.195" height="215.738"/>
	
		<line fill="none" stroke="#CCCCCC" stroke-width="8" stroke-miterlimit="10" x1="-168.575" y1="244.285" x2="182.425" y2="244.285"/>
	<line fill="none" stroke="#CCCCCC" stroke-width="8" stroke-miterlimit="10" x1="6.925" y1="223.738" x2="6.925" y2="244.285"/>
</g>
<line fill="none" stroke="#FFCE09" stroke-width="5" stroke-linecap="square" stroke-miterlimit="10" x1="398.511" y1="205.594" x2="398.511" y2="149.535"/>
<g>
	<g>
		
			<rect x="254" y="91.013" fill="#C0C0C0" stroke="#654566" stroke-width="5.0128" stroke-miterlimit="10" width="104.615" height="76.926"/>
		
			<line fill="none" stroke="#996699" stroke-width="5.0128" stroke-miterlimit="10" x1="251.309" y1="171.784" x2="251.309" y2="87.169"/>
		
			<line fill="none" stroke="#996699" stroke-width="5.0128" stroke-miterlimit="10" x1="361.309" y1="171.784" x2="361.309" y2="87.169"/>
	</g>
	<g>
		<polygon fill="#3399CC" points="306.309,129.476 313.52,117.454 320.73,105.438 327.943,117.458 335.154,129.476 320.73,129.476 
					"/>
		<polygon fill="#996699" points="291.885,105.438 299.096,117.444 306.309,129.476 313.52,117.458 320.73,105.438 306.309,105.438 
					"/>
		<polygon fill="#F89839" points="277.461,129.474 284.674,141.495 291.885,153.517 299.096,141.495 306.309,129.474 
			291.885,129.474 		"/>
		<polygon fill="#EE3968" points="277.461,129.476 284.674,117.458 291.885,105.438 299.096,117.458 306.309,129.476 
			291.885,129.476 		"/>
		<polygon fill="#FFCE09" points="306.309,129.474 313.52,141.495 320.73,153.517 327.943,141.495 335.154,129.474 320.73,129.474 
					"/>
		<polygon fill="#6EC498" points="291.885,153.514 299.096,141.495 306.309,129.476 313.52,141.495 320.73,153.514 306.309,153.514 
					"/>
	</g>
</g>
<rect x="15.508" y="32.643" fill="#3399CC" width="100" height="15"/>
<rect x="15.508" y="55.143" width="100" height="50"/>
<g>
	<g>
		<g>
			<g>
				<path fill="none" stroke="#579975" stroke-width="5" stroke-miterlimit="10" d="M491.265,12.914
					c1.42,1.421,2.809,2.862,4.163,4.322"/>
				<path fill="none" stroke="#579975" stroke-width="5" stroke-miterlimit="10" stroke-dasharray="12.4717,12.4717" d="
					M503.551,26.702c46.83,59.094,45.507,143.721-3.969,201.354"/>
				<path fill="none" stroke="#579975" stroke-width="5" stroke-miterlimit="10" d="M495.429,232.709
					c-1.355,1.46-2.743,2.9-4.164,4.321"/>
			</g>
		</g>
		<g>
			<g>
				<path fill="none" stroke="#579975" stroke-width="5" stroke-miterlimit="10" d="M461.95,42.227
					c1.423,1.423,2.801,2.874,4.135,4.35"/>
				<path fill="none" stroke="#579975" stroke-width="5" stroke-miterlimit="10" stroke-dasharray="11.4569,11.4569" d="
					M473.346,55.439c31.663,42.742,30.487,102.08-3.526,143.606"/>
				<path fill="none" stroke="#579975" stroke-width="5" stroke-miterlimit="10" d="M466.084,203.388
					c-1.334,1.477-2.712,2.927-4.134,4.351"/>
			</g>
		</g>
		<g>
			<g>
				<path fill="none" stroke="#579975" stroke-width="5" stroke-miterlimit="10" d="M430.369,76.558
					c1.43,1.428,2.783,2.903,4.061,4.421"/>
				<path fill="none" stroke="#579975" stroke-width="5" stroke-miterlimit="10" stroke-dasharray="10.6249,10.6249" d="
					M440.617,89.609c14.034,23.201,13.053,52.92-2.943,75.224"/>
				<path fill="none" stroke="#579975" stroke-width="5" stroke-miterlimit="10" d="M434.428,169.008
					c-1.276,1.519-2.629,2.994-4.059,4.423"/>
			</g>
		</g>
	</g>
</g>
</svg>
