<?xml version="1.0" encoding="utf-8"?>
<!-- Generator: Adobe Illustrator 16.0.0, SVG Export Plug-In . SVG Version: 6.00 Build 0)  -->
<!DOCTYPE svg PUBLIC "-//W3C//DTD SVG 1.1//EN" "http://www.w3.org/Graphics/SVG/1.1/DTD/svg11.dtd">
<svg version="1.1" id="Layer_1" xmlns="http://www.w3.org/2000/svg" xmlns:xlink="http://www.w3.org/1999/xlink" x="0px" y="0px"
	 width="1007.971px" height="346.545px" viewBox="-247.083 53.455 1007.971 346.545"
	 enable-background="new -247.083 53.455 1007.971 346.545" xml:space="preserve">
<line fill="none" stroke="#FFCE09" stroke-width="5" stroke-miterlimit="10" x1="286.301" y1="400" x2="286.301" y2="274.814"/>
<g>
	<line fill="none" stroke="#3399CC" stroke-width="5" stroke-miterlimit="10" x1="82.511" y1="199.372" x2="236.285" y2="199.372"/>
	
		<rect x="236.285" y="191.128" fill="#3399CC" stroke="#1D304B" stroke-width="3" stroke-miterlimit="10" width="25.349" height="17.744"/>
</g>
<rect x="279.587" y="254.859" fill="#FFCE09" stroke="#F89839" stroke-width="3" stroke-miterlimit="10" width="13.429" height="19.182"/>
<rect x="304.141" y="254.859" fill="#6EC498" stroke="#579975" stroke-width="3" stroke-miterlimit="10" width="13.428" height="19.182"/>
<g>
	<g>
		
			<rect x="261.535" y="147.692" fill="#FFFFFF" stroke="#9A2647" stroke-width="5.0128" stroke-miterlimit="10" width="76.928" height="104.614"/>
		<line fill="none" stroke="#EE3968" stroke-width="5.0128" stroke-miterlimit="10" x1="257.69" y1="145" x2="342.307" y2="145"/>
		
			<line fill="none" stroke="#EE3968" stroke-width="5.0128" stroke-miterlimit="10" x1="257.69" y1="254.999" x2="342.307" y2="254.999"/>
	</g>
	<g>
		<polygon fill="#3399CC" points="299.997,200 312.02,207.213 324.035,214.424 312.018,221.635 299.997,228.847 299.997,214.424 		
			"/>
		<polygon fill="#996699" points="324.035,185.578 312.03,192.789 299.997,200 312.018,207.213 324.035,214.424 324.035,200 		"/>
		<polygon fill="#F89839" points="299.999,171.154 287.978,178.366 275.958,185.578 287.979,192.789 299.999,200 299.999,185.578 		
			"/>
		<polygon fill="#EE3968" points="299.997,171.154 312.016,178.366 324.035,185.578 312.018,192.789 299.997,200 299.997,185.578 		
			"/>
		<polygon fill="#FFCE09" points="299.999,200 287.978,207.213 275.958,214.424 287.979,221.635 299.999,228.847 299.999,214.424 		
			"/>
		<polygon fill="#6EC498" points="275.96,185.578 287.978,192.789 299.997,200 287.98,207.213 275.96,214.424 275.96,200 		"/>
	</g>
</g>
<g>
	<g>
		<path fill="none" stroke="#579975" stroke-width="2" stroke-miterlimit="10" d="M320.41,284.374c-5.282,5.28-13.831,5.28-19.113,0
			"/>
		<path fill="none" stroke="#579975" stroke-width="2" stroke-miterlimit="10" d="M317.911,281.874
			c-3.901,3.899-10.214,3.899-14.115,0"/>
		<path fill="none" stroke="#579975" stroke-width="2" stroke-miterlimit="10" d="M314.985,279.182
			c-2.282,2.283-5.979,2.283-8.263,0"/>
	</g>
</g>
<g>
	<rect x="-225.684" y="81.858" stroke="#171617" stroke-width="8" stroke-miterlimit="10" width="308.195" height="215.736"/>
	
		<line fill="none" stroke="#171617" stroke-width="8" stroke-miterlimit="10" x1="-247.085" y1="318.142" x2="103.914" y2="318.142"/>
	
		<line fill="none" stroke="#171617" stroke-width="8" stroke-miterlimit="10" x1="-71.585" y1="297.597" x2="-71.585" y2="318.142"/>
</g>
<rect x="-208.002" y="148.786" fill="#3399CC" width="50" height="50"/>
<rect x="-148.002" y="148.786" fill="#3399CC" width="50" height="50"/>
<rect x="-148.002" y="208.786" fill="#3399CC" width="50" height="50"/>
<rect x="-208.002" y="208.786" fill="#3399CC" width="50" height="50"/>
<rect x="-207.002" y="101.942" fill="none" width="95" height="19.688"/>
<rect x="-79.002" y="148.786" fill="#3399CC" width="100" height="15"/>
<rect x="-79.002" y="171.286" fill="#FFFFFF" width="100" height="50"/>
<g>
	<g>
		<path fill="none" d="M681.323,200"/>
	</g>
	<g>
		<rect x="628.161" y="142.563" stroke="#171617" stroke-width="5" stroke-miterlimit="10" width="106.324" height="76.895"/>
		<polygon stroke="#171617" stroke-width="5" stroke-miterlimit="10" points="643.823,257.391 606.323,257.391 628.161,223.235 
			734.486,223.235 756.323,257.391 718.823,257.437 		"/>
	</g>
	<g>
		<rect x="659.907" y="162" fill="#6EC498" width="19.091" height="19.091"/>
		<rect x="636.998" y="162" fill="#3399CC" width="19.091" height="19.091"/>
		<rect x="659.907" y="184.909" fill="#996699" width="19.091" height="19.091"/>
		<rect x="636.998" y="184.909" fill="#EE3968" width="19.091" height="19.091"/>
		<rect x="686.253" y="162" fill="#FFCE09" width="38.182" height="5.728"/>
		<rect x="686.253" y="170.591" fill="#FFFFFF" width="38.182" height="19.091"/>
		<rect x="637.253" y="152" fill="#FFFFFF" width="38.182" height="5.728"/>
	</g>
</g>
<rect x="406.129" y="55.955" stroke="#171617" stroke-width="5" stroke-miterlimit="10" width="125" height="75.322"/>
<rect x="409.962" y="114.45" fill="#FFFFFF" width="117.333" height="12.846"/>
<path id="rect3330_3_" fill="#996699" d="M424.6,79.814h-3.502c-3.174,0-5.748-2.574-5.748-5.75v-3.501
	c0-3.176,2.574-5.75,5.748-5.75h3.502c3.175,0,5.75,2.574,5.75,5.75v3.501C430.35,77.24,427.775,79.814,424.6,79.814z"/>
<path id="rect3330_1_" fill="#EE3968" d="M444.6,79.814h-3.502c-3.174,0-5.748-2.574-5.748-5.75v-3.501
	c0-3.176,2.574-5.75,5.748-5.75h3.502c3.175,0,5.75,2.574,5.75,5.75v3.501C450.35,77.24,447.775,79.814,444.6,79.814z"/>
<path id="rect3330_2_" fill="#6EC498" d="M464.6,79.814h-3.502c-3.174,0-5.748-2.574-5.748-5.75v-3.501
	c0-3.176,2.574-5.75,5.748-5.75h3.502c3.175,0,5.75,2.574,5.75,5.75v3.501C470.35,77.24,467.775,79.814,464.6,79.814z"/>
<path id="rect3330_4_" fill="#3399CC" d="M484.6,79.814h-3.502c-3.174,0-5.748-2.574-5.748-5.75v-3.501
	c0-3.176,2.574-5.75,5.748-5.75h3.502c3.175,0,5.75,2.574,5.75,5.75v3.501C490.35,77.24,487.775,79.814,484.6,79.814z"/>
<path id="rect3330_5_" fill="#FFCE09" d="M504.6,79.814h-3.502c-3.174,0-5.748-2.574-5.748-5.75v-3.501
	c0-3.176,2.574-5.75,5.748-5.75h3.502c3.175,0,5.75,2.574,5.75,5.75v3.501C510.35,77.24,507.775,79.814,504.6,79.814z"/>
<path id="rect3330_7_" fill="#17B24B" d="M484.6,99.814h-3.502c-3.174,0-5.748-2.574-5.748-5.75v-3.501
	c0-3.176,2.574-5.75,5.748-5.75h3.502c3.175,0,5.75,2.574,5.75,5.75v3.501C490.35,97.24,487.775,99.814,484.6,99.814z"/>
<path id="rect3330_8_" fill="#F89839" d="M464.6,99.814h-3.502c-3.174,0-5.748-2.574-5.748-5.75v-3.501
	c0-3.176,2.574-5.75,5.748-5.75h3.502c3.175,0,5.75,2.574,5.75,5.75v3.501C470.35,97.24,467.775,99.814,464.6,99.814z"/>
<path id="rect3330_9_" fill="#171617" d="M444.6,99.814h-3.502c-3.174,0-5.748-2.574-5.748-5.75v-3.501
	c0-3.176,2.574-5.75,5.748-5.75h3.502c3.175,0,5.75,2.574,5.75,5.75v3.501C450.35,97.24,447.775,99.814,444.6,99.814z"/>
<path id="rect3330_10_" fill="#FFFFFF" d="M424.6,99.814h-3.502c-3.174,0-5.748-2.574-5.748-5.75v-3.501
	c0-3.176,2.574-5.75,5.748-5.75h3.502c3.175,0,5.75,2.574,5.75,5.75v3.501C430.35,97.24,427.775,99.814,424.6,99.814z"/>
<g>
	<polygon stroke="#171617" stroke-width="5" stroke-linecap="round" stroke-linejoin="round" stroke-miterlimit="10" points="
		503.044,273.337 522.77,334.045 471.128,311.325 419.487,334.045 439.212,273.337 	"/>
	<path id="rect3330_19_" fill="#6EC498" d="M485.6,295.457l-1.401,1.4c-1.27,1.271-3.328,1.271-4.599,0l-1.401-1.4
		c-1.27-1.271-1.271-3.33,0-4.6l1.401-1.401c1.27-1.27,3.329-1.271,4.601,0l1.399,1.399
		C486.871,292.128,486.869,294.187,485.6,295.457z"/>
	<path id="rect3330_18_" fill="#3399CC" d="M493.601,287.457l-1.4,1.399c-1.271,1.27-3.329,1.271-4.6-0.001l-1.4-1.4
		c-1.271-1.27-1.271-3.329-0.001-4.599l1.4-1.401c1.271-1.27,3.33-1.271,4.601,0l1.4,1.401
		C494.871,284.126,494.87,286.187,493.601,287.457z"/>
	<path id="rect3330_14_" fill="#EE3968" d="M501.601,295.457l-1.4,1.4c-1.27,1.271-3.329,1.271-4.6,0l-1.4-1.4
		c-1.27-1.271-1.27-3.33,0-4.6l1.4-1.4c1.271-1.271,3.33-1.271,4.601,0l1.4,1.399C502.871,292.127,502.871,294.188,501.601,295.457z
		"/>
	<path id="rect3330_6_" fill="#FFCE09" d="M493.601,303.457l-1.4,1.401c-1.271,1.27-3.329,1.27-4.6,0l-1.4-1.401
		c-1.271-1.27-1.271-3.329-0.001-4.599l1.401-1.401c1.27-1.27,3.329-1.27,4.6,0l1.4,1.401
		C494.871,300.128,494.871,302.188,493.601,303.457z"/>
	
		<line fill="none" stroke="#FFFFFF" stroke-width="5" stroke-linecap="round" stroke-miterlimit="10" x1="451.378" y1="284.354" x2="451.378" y2="300.483"/>
	
		<line fill="none" stroke="#FFFFFF" stroke-width="5" stroke-linecap="round" stroke-miterlimit="10" x1="459.442" y1="292.419" x2="443.314" y2="292.419"/>
</g>
<g>
	<g>
		<g>
			<rect x="448.738" y="166.987" stroke="#171617" stroke-width="5" stroke-miterlimit="10" width="39.783" height="66.025"/>
		</g>
		<path id="rect3330_17_" fill="#EE3968" d="M466.639,209.519v2.786c0,2.525-2.047,4.574-4.574,4.574h-2.785
			c-2.527,0-4.575-2.049-4.575-4.574v-2.786c0-2.526,2.048-4.575,4.575-4.575h2.785
			C464.592,204.943,466.639,206.992,466.639,209.519z"/>
		<path id="rect3330_16_" fill="#6EC498" d="M466.639,193.605v2.786c0,2.525-2.047,4.573-4.574,4.573h-2.785
			c-2.527,0-4.575-2.048-4.575-4.573v-2.786c0-2.526,2.048-4.576,4.575-4.576h2.785C464.592,189.03,466.639,191.079,466.639,193.605
			z"/>
		<path id="rect3330_15_" fill="#3399CC" d="M466.639,177.691v2.787c0,2.525-2.047,4.574-4.574,4.574h-2.785
			c-2.527,0-4.575-2.048-4.575-4.574v-2.787c0-2.526,2.048-4.575,4.575-4.575h2.785
			C464.592,173.117,466.639,175.166,466.639,177.691z"/>
		<path id="rect3330_13_" fill="#996699" d="M482.553,177.691v2.787c0,2.525-2.048,4.574-4.574,4.574h-2.786
			c-2.526,0-4.575-2.048-4.575-4.574v-2.787c0-2.526,2.049-4.575,4.575-4.575h2.786
			C480.505,173.117,482.553,175.166,482.553,177.691z"/>
		<path id="rect3330_12_" fill="#FFCE09" d="M482.553,193.605v2.786c0,2.525-2.048,4.573-4.574,4.573h-2.786
			c-2.526,0-4.575-2.048-4.575-4.573v-2.786c0-2.526,2.049-4.576,4.575-4.576h2.786C480.505,189.03,482.553,191.079,482.553,193.605
			z"/>
		<path id="rect3330_11_" fill="#FFFFFF" d="M482.553,209.519v2.786c0,2.525-2.048,4.574-4.574,4.574h-2.786
			c-2.526,0-4.575-2.049-4.575-4.574v-2.786c0-2.526,2.049-4.575,4.575-4.575h2.786
			C480.505,204.943,482.553,206.992,482.553,209.519z"/>
	</g>
	<rect x="450.92" y="220.523" fill="#FFFFFF" width="35.418" height="10.221"/>
</g>
<rect x="-208.002" y="106.95" fill="#FFFFFF" width="100" height="15"/>
</svg>
