<?xml version="1.0" encoding="utf-8"?>
<!-- Generator: Adobe Illustrator 16.0.0, SVG Export Plug-In . SVG Version: 6.00 Build 0)  -->
<!DOCTYPE svg PUBLIC "-//W3C//DTD SVG 1.1//EN" "http://www.w3.org/Graphics/SVG/1.1/DTD/svg11.dtd">
<svg version="1.1" id="Layer_1" xmlns="http://www.w3.org/2000/svg" xmlns:xlink="http://www.w3.org/1999/xlink" x="0px" y="0px"
	 width="1007.97px" height="346.545px" viewBox="-247.085 446.225 1007.97 346.545"
	 enable-background="new -247.085 446.225 1007.97 346.545" xml:space="preserve">
<g>
	<line fill="none" stroke="#FFCE09" stroke-width="5" stroke-miterlimit="10" x1="286.301" y1="792.77" x2="286.301" y2="667.584"/>
	<g>
		
			<line fill="none" stroke="#3399CC" stroke-width="5" stroke-miterlimit="10" x1="82.511" y1="592.142" x2="236.285" y2="592.142"/>
		
			<rect x="236.285" y="583.896" fill="#3399CC" stroke="#1D304B" stroke-width="3" stroke-miterlimit="10" width="25.349" height="17.743"/>
	</g>
	
		<rect x="279.587" y="647.629" fill="#FFCE09" stroke="#F89839" stroke-width="3" stroke-miterlimit="10" width="13.429" height="19.182"/>
	
		<rect x="304.141" y="647.629" fill="#6EC498" stroke="#579975" stroke-width="3" stroke-miterlimit="10" width="13.428" height="19.182"/>
	<g>
		<g>
			
				<rect x="261.536" y="540.46" fill="#BFBFBF" stroke="#664466" stroke-width="5.0128" stroke-miterlimit="10" width="76.925" height="104.615"/>
			
				<line fill="none" stroke="#996699" stroke-width="5.0128" stroke-miterlimit="10" x1="257.69" y1="537.769" x2="342.305" y2="537.769"/>
			
				<line fill="none" stroke="#996699" stroke-width="5.0128" stroke-miterlimit="10" x1="257.69" y1="647.769" x2="342.305" y2="647.769"/>
		</g>
		<g>
			<polygon fill="#3399CC" points="299.999,592.769 312.02,599.979 324.035,607.19 312.016,614.403 299.999,621.614 299.999,607.19 
							"/>
			<polygon fill="#996699" points="324.035,578.345 312.03,585.556 299.999,592.769 312.016,599.979 324.035,607.19 
				324.035,592.769 			"/>
			<polygon fill="#F89839" points="300.001,563.921 287.979,571.134 275.958,578.345 287.979,585.556 300.001,592.769 
				300.001,578.345 			"/>
			<polygon fill="#EE3968" points="299.999,563.921 312.016,571.134 324.035,578.345 312.016,585.556 299.999,592.769 
				299.999,578.345 			"/>
			<polygon fill="#FFCE09" points="300.001,592.769 287.979,599.979 275.958,607.19 287.979,614.403 300.001,621.614 
				300.001,607.19 			"/>
			<polygon fill="#6EC498" points="275.961,578.345 287.979,585.556 299.999,592.769 287.979,599.979 275.961,607.19 
				275.961,592.769 			"/>
		</g>
	</g>
	<g>
		<g>
			<path fill="none" stroke="#579975" stroke-width="2" stroke-miterlimit="10" d="M320.41,677.144
				c-5.282,5.28-13.831,5.28-19.113,0"/>
			<path fill="none" stroke="#579975" stroke-width="2" stroke-miterlimit="10" d="M317.911,674.644
				c-3.901,3.899-10.214,3.899-14.115,0"/>
			<path fill="none" stroke="#579975" stroke-width="2" stroke-miterlimit="10" d="M314.985,671.951
				c-2.282,2.283-5.979,2.283-8.263,0"/>
		</g>
	</g>
	<g>
		
			<rect x="-225.684" y="474.628" fill="#FFFFFF" stroke="#CCCCCB" stroke-width="8" stroke-miterlimit="10" width="308.195" height="215.736"/>
		
			<line fill="none" stroke="#CCCCCB" stroke-width="8" stroke-miterlimit="10" x1="-247.085" y1="710.911" x2="103.914" y2="710.911"/>
		
			<line fill="none" stroke="#CCCCCB" stroke-width="8" stroke-miterlimit="10" x1="-71.585" y1="690.366" x2="-71.585" y2="710.911"/>
	</g>
	<rect x="-208.002" y="541.556" width="50" height="50"/>
	<rect x="-148.002" y="541.556" width="50" height="50"/>
	<rect x="-148.002" y="601.556" width="50" height="50"/>
	<rect x="-208.002" y="601.556" width="50" height="50"/>
	<rect x="-207.002" y="494.712" fill="none" width="95" height="19.688"/>
	<rect x="-79.002" y="541.556" width="100" height="15"/>
	<rect x="-79.002" y="564.056" fill="#3399CC" width="100" height="50"/>
	<g>
		<g>
			<path fill="none" d="M681.323,592.77"/>
		</g>
		<g>
			
				<rect x="628.161" y="535.333" fill="#FFFFFF" stroke="#CCCCCB" stroke-width="5" stroke-miterlimit="10" width="106.324" height="76.896"/>
			<polygon fill="#FFFFFF" stroke="#CCCCCB" stroke-width="5" stroke-miterlimit="10" points="643.823,650.16 606.323,650.16 
				628.161,616.005 734.487,616.005 756.323,650.16 718.823,650.206 			"/>
		</g>
		<g>
			<rect x="659.907" y="554.77" fill="#6EC498" width="19.092" height="19.093"/>
			<rect x="636.999" y="554.77" fill="#3399CC" width="19.09" height="19.093"/>
			<rect x="659.907" y="577.679" fill="#996699" width="19.092" height="19.091"/>
			<rect x="636.999" y="577.679" fill="#EE3968" width="19.09" height="19.091"/>
			<rect x="686.252" y="554.77" fill="#FFCE09" width="38.182" height="5.729"/>
			<rect x="686.252" y="563.36" width="38.182" height="19.091"/>
			<rect x="637.252" y="544.77" width="38.182" height="5.729"/>
		</g>
	</g>
	
		<rect x="406.129" y="448.725" fill="#FFFFFF" stroke="#CCCCCB" stroke-width="5" stroke-miterlimit="10" width="125" height="75.322"/>
	<rect x="409.962" y="507.219" width="117.333" height="12.848"/>
	<path id="rect3330_38_" fill="#996699" d="M424.6,472.584h-3.502c-3.174,0-5.748-2.574-5.748-5.75v-3.501
		c0-3.176,2.574-5.749,5.748-5.749h3.502c3.177,0,5.75,2.573,5.75,5.749v3.501C430.35,470.01,427.775,472.584,424.6,472.584z"/>
	<path id="rect3330_37_" fill="#EE3968" d="M444.6,472.584h-3.502c-3.174,0-5.748-2.574-5.748-5.75v-3.501
		c0-3.176,2.574-5.749,5.748-5.749h3.502c3.177,0,5.75,2.573,5.75,5.749v3.501C450.35,470.01,447.775,472.584,444.6,472.584z"/>
	<path id="rect3330_36_" fill="#6EC498" d="M464.6,472.584h-3.502c-3.174,0-5.748-2.574-5.748-5.75v-3.501
		c0-3.176,2.574-5.749,5.748-5.749h3.502c3.177,0,5.75,2.573,5.75,5.749v3.501C470.35,470.01,467.775,472.584,464.6,472.584z"/>
	<path id="rect3330_35_" fill="#3399CC" d="M484.6,472.584h-3.502c-3.174,0-5.748-2.574-5.748-5.75v-3.501
		c0-3.176,2.574-5.749,5.748-5.749h3.502c3.177,0,5.75,2.573,5.75,5.749v3.501C490.35,470.01,487.775,472.584,484.6,472.584z"/>
	<path id="rect3330_34_" fill="#FFCE09" d="M504.6,472.584h-3.502c-3.174,0-5.748-2.574-5.748-5.75v-3.501
		c0-3.176,2.574-5.749,5.748-5.749h3.502c3.177,0,5.75,2.573,5.75,5.749v3.501C510.35,470.01,507.776,472.584,504.6,472.584z"/>
	<path id="rect3330_33_" fill="#17B24B" d="M484.6,492.584h-3.502c-3.174,0-5.748-2.574-5.748-5.75v-3.501
		c0-3.176,2.574-5.749,5.748-5.749h3.502c3.177,0,5.75,2.573,5.75,5.749v3.501C490.35,490.01,487.775,492.584,484.6,492.584z"/>
	<path id="rect3330_32_" fill="#F89839" d="M464.6,492.584h-3.502c-3.174,0-5.748-2.574-5.748-5.75v-3.501
		c0-3.176,2.574-5.749,5.748-5.749h3.502c3.177,0,5.75,2.573,5.75,5.749v3.501C470.35,490.01,467.775,492.584,464.6,492.584z"/>
	<path id="rect3330_31_" fill="#171617" d="M444.6,492.584h-3.502c-3.174,0-5.748-2.574-5.748-5.75v-3.501
		c0-3.176,2.574-5.749,5.748-5.749h3.502c3.177,0,5.75,2.573,5.75,5.749v3.501C450.35,490.01,447.775,492.584,444.6,492.584z"/>
	<path id="rect3330_30_" fill="#FFFFFF" d="M424.6,492.584h-3.502c-3.174,0-5.748-2.574-5.748-5.75v-3.501
		c0-3.176,2.574-5.749,5.748-5.749h3.502c3.177,0,5.75,2.573,5.75,5.749v3.501C430.35,490.01,427.775,492.584,424.6,492.584z"/>
	<g>
		
			<polygon fill="#FFFFFF" stroke="#CCCCCB" stroke-width="5" stroke-linecap="round" stroke-linejoin="round" stroke-miterlimit="10" points="
			503.044,666.106 522.771,726.814 471.128,704.095 419.487,726.814 439.212,666.106 		"/>
		<path id="rect3330_29_" fill="#6EC498" d="M485.6,688.227l-1.399,1.4c-1.271,1.271-3.328,1.271-4.601,0l-1.399-1.4
			c-1.271-1.271-1.271-3.33,0-4.6l1.399-1.401c1.271-1.27,3.329-1.271,4.603,0l1.397,1.399
			C486.871,684.896,486.869,686.956,485.6,688.227z"/>
		<path id="rect3330_28_" fill="#3399CC" d="M493.601,680.227l-1.398,1.399c-1.271,1.271-3.329,1.271-4.602-0.001l-1.398-1.4
			c-1.271-1.27-1.271-3.328-0.001-4.599l1.398-1.401c1.271-1.27,3.33-1.271,4.603,0l1.398,1.401
			C494.871,676.896,494.87,678.956,493.601,680.227z"/>
		<path id="rect3330_27_" fill="#EE3968" d="M501.601,688.227l-1.398,1.4c-1.271,1.271-3.329,1.271-4.602,0l-1.398-1.4
			c-1.271-1.271-1.271-3.33,0-4.6l1.398-1.4c1.271-1.271,3.33-1.271,4.603,0l1.398,1.399
			C502.871,684.896,502.871,686.957,501.601,688.227z"/>
		<path id="rect3330_26_" fill="#FFCE09" d="M493.601,696.227l-1.398,1.401c-1.271,1.271-3.329,1.271-4.602,0l-1.398-1.401
			c-1.271-1.27-1.271-3.327-0.001-4.599l1.399-1.401c1.271-1.27,3.329-1.27,4.602,0l1.398,1.401
			C494.871,692.896,494.871,694.957,493.601,696.227z"/>
		
			<line fill="none" stroke="#000000" stroke-width="5" stroke-linecap="round" stroke-miterlimit="10" x1="451.378" y1="677.124" x2="451.378" y2="693.253"/>
		
			<line fill="none" stroke="#000000" stroke-width="5" stroke-linecap="round" stroke-miterlimit="10" x1="459.442" y1="685.188" x2="443.313" y2="685.188"/>
	</g>
	<g>
		<g>
			<g>
				
					<rect x="448.738" y="559.757" fill="#FFFFFF" stroke="#CCCCCB" stroke-width="5" stroke-miterlimit="10" width="39.782" height="66.025"/>
			</g>
			<path id="rect3330_25_" fill="#EE3968" d="M466.639,602.288v2.786c0,2.523-2.047,4.574-4.572,4.574h-2.785
				c-2.527,0-4.575-2.051-4.575-4.574v-2.786c0-2.526,2.048-4.575,4.575-4.575h2.785
				C464.592,597.713,466.639,599.762,466.639,602.288z"/>
			<path id="rect3330_24_" fill="#6EC498" d="M466.639,586.375v2.786c0,2.523-2.047,4.573-4.572,4.573h-2.785
				c-2.527,0-4.575-2.05-4.575-4.573v-2.786c0-2.526,2.048-4.576,4.575-4.576h2.785
				C464.592,581.799,466.639,583.849,466.639,586.375z"/>
			<path id="rect3330_23_" fill="#3399CC" d="M466.639,570.461v2.787c0,2.525-2.047,4.573-4.572,4.573h-2.785
				c-2.527,0-4.575-2.048-4.575-4.573v-2.787c0-2.525,2.048-4.574,4.575-4.574h2.785
				C464.592,565.887,466.639,567.936,466.639,570.461z"/>
			<path id="rect3330_22_" fill="#996699" d="M482.553,570.461v2.787c0,2.525-2.048,4.573-4.573,4.573h-2.785
				c-2.526,0-4.575-2.048-4.575-4.573v-2.787c0-2.525,2.049-4.574,4.575-4.574h2.785
				C480.505,565.887,482.553,567.936,482.553,570.461z"/>
			<path id="rect3330_21_" fill="#FFCE09" d="M482.553,586.375v2.786c0,2.523-2.048,4.573-4.573,4.573h-2.785
				c-2.526,0-4.575-2.05-4.575-4.573v-2.786c0-2.526,2.049-4.576,4.575-4.576h2.785
				C480.505,581.799,482.553,583.849,482.553,586.375z"/>
			<path id="rect3330_20_" fill="#FFFFFF" d="M482.553,602.288v2.786c0,2.523-2.048,4.574-4.573,4.574h-2.785
				c-2.526,0-4.575-2.051-4.575-4.574v-2.786c0-2.526,2.049-4.575,4.575-4.575h2.785
				C480.505,597.713,482.553,599.762,482.553,602.288z"/>
		</g>
		<rect x="450.92" y="613.293" width="35.418" height="10.221"/>
	</g>
	<rect x="-208.002" y="499.719" fill="#3399CC" width="100" height="15"/>
</g>
</svg>
