<?xml version="1.0" encoding="utf-8"?>
<!-- Generator: Adobe Illustrator 16.0.0, SVG Export Plug-In . SVG Version: 6.00 Build 0)  -->
<!DOCTYPE svg PUBLIC "-//W3C//DTD SVG 1.1//EN" "http://www.w3.org/Graphics/SVG/1.1/DTD/svg11.dtd">
<svg version="1.1" id="Layer_1" xmlns="http://www.w3.org/2000/svg" xmlns:xlink="http://www.w3.org/1999/xlink" x="0px" y="0px"
	 width="400px" height="250px" viewBox="0 0 400 250" enable-background="new 0 0 400 250" xml:space="preserve">
<polygon fill="#996699" points="68.676,60.835 40.329,77.841 11.982,60.835 11.982,26.82 40.329,9.812 68.676,26.82 "/>
<polygon fill="#F89839" points="68.676,140.836 40.329,157.841 11.982,140.836 11.982,106.82 40.329,89.812 68.676,106.82 "/>
<polygon fill="#3399CC" points="68.676,220.836 40.329,237.841 11.982,220.836 11.982,186.82 40.329,169.813 68.676,186.82 "/>
<polygon fill="#6EC498" points="148.676,220.836 120.329,237.841 91.982,220.836 91.982,186.82 120.329,169.813 148.676,186.82 "/>
<polygon fill="#EE3968" points="228.676,220.836 200.329,237.841 171.982,220.836 171.982,186.82 200.329,169.813 228.676,186.82 
	"/>
<polygon fill="#3399CC" points="308.676,220.836 280.329,237.841 251.982,220.836 251.982,186.82 280.329,169.813 308.676,186.82 
	"/>
<polygon fill="#EE3968" points="388.676,220.836 360.329,237.841 331.982,220.836 331.982,186.82 360.329,169.813 388.676,186.82 
	"/>
<polygon fill="#996699" points="388.676,140.836 360.329,157.841 331.982,140.836 331.982,106.82 360.329,89.813 388.676,106.82 "/>
<polygon fill="#FFCE09" points="388.676,60.836 360.329,77.841 331.982,60.836 331.982,26.82 360.329,9.813 388.676,26.82 "/>
<polygon fill="#6EC498" points="228.676,60.836 200.329,77.841 171.982,60.836 171.982,26.82 200.329,9.813 228.676,26.82 "/>
<polygon fill="#3399CC" points="148.676,60.836 120.329,77.841 91.982,60.836 91.982,26.82 120.329,9.813 148.676,26.82 "/>
<polygon points="148.676,140.836 120.329,157.841 91.982,140.836 91.982,106.82 120.329,89.813 148.676,106.82 "/>
<polygon fill="#6EC498" points="308.676,140.836 280.329,157.841 251.982,140.836 251.982,106.82 280.329,89.813 308.676,106.82 "/>
<g>
	<g>
		<path id="path3305" fill="none" stroke="#9FD2A2" stroke-width="3.1133" d="M117.257,189.201
			c-12.598-1.333-23.383,18.62-4.42,29.937"/>
	</g>
	<g>
		<path id="path3307" fill="none" stroke="#CFE8D0" stroke-width="3.1133" d="M123.067,194.287
			c-9.206-4.594-17.444,2.438-16.646,10.248c0.822,8.041,8.255,14.604,24.998,11.597"/>
	</g>
	<g>
		<path id="path3309" fill="none" stroke="#FFFFFF" stroke-width="3.1133" d="M124.146,200.513
			c-3.056-5.504-10.198-4.723-12.754-0.666c-2.004,3.179-2.349,10.921,8.673,12.787c5.077,0.73,12.823-0.093,18.791-0.78"/>
	</g>
</g>
<g>
	<g>
		<path fill-rule="evenodd" clip-rule="evenodd" fill="#3399CC" d="M42.063,186.673c0.382,0.146,0.79,0.125,1.186,0.187
			c7.366,1.131,13.239,6.713,14.567,14.044c1.059,5.845-0.45,11.036-4.548,15.354c-3.687,3.884-8.302,5.649-13.642,5.391
			c-8.064-0.395-14.827-6.435-16.233-14.419c-0.077-0.438-0.127-0.879-0.191-1.317c-0.01-0.063,0.02-0.143-0.072-0.168
			c0-0.98,0-1.96,0-2.94c0.082-0.039,0.054-0.115,0.06-0.179c0.204-2.387,0.848-4.653,2.017-6.743
			c2.73-4.882,6.844-7.888,12.355-8.94c0.584-0.112,1.178-0.181,1.768-0.269C40.241,186.673,41.15,186.673,42.063,186.673z
			 M52.57,202.022c-0.494-0.502-0.981-1.01-1.481-1.509c-0.363-0.362-0.833-0.383-1.157-0.066c-0.315,0.309-0.311,0.806,0.039,1.158
			c1.008,1.021,2.026,2.032,3.043,3.046c0.254,0.253,0.556,0.358,0.901,0.207c0.342-0.15,0.466-0.424,0.466-0.792
			c0-2.364-0.586-4.573-1.741-6.62c-2.778-4.93-8.145-7.654-13.78-6.925c-3.212,0.416-5.957,1.81-8.203,4.153
			c-1.604,1.675-2.71,3.637-3.318,5.875c-0.157,0.579,0.216,1.061,0.783,1.033c0.395-0.02,0.602-0.228,0.754-0.752
			c1.674-5.812,7.275-9.514,13.27-8.771c5.035,0.623,9.193,4.345,10.357,9.277c0.052,0.224,0.167,0.45,0.066,0.689V202.022z
			 M28.641,206.282c0.549,0.555,1.032,1.047,1.523,1.532c0.359,0.354,0.838,0.359,1.155,0.032c0.311-0.322,0.298-0.778-0.047-1.123
			c-1.011-1.02-2.027-2.033-3.043-3.045c-0.28-0.28-0.581-0.34-0.9-0.193c-0.326,0.15-0.46,0.41-0.457,0.766
			c0.007,0.788,0.081,1.566,0.213,2.342c1.144,6.663,7.146,11.551,13.897,11.332c3.49-0.113,6.517-1.345,9.067-3.717
			c1.884-1.754,3.171-3.883,3.859-6.366c0.124-0.449-0.014-0.82-0.363-0.995c-0.488-0.245-0.982,0.022-1.153,0.631
			c-1.57,5.6-7.088,9.643-13.278,8.786c-5.018-0.693-8.361-3.563-10.089-8.313C28.842,207.445,28.699,206.921,28.641,206.282z"/>
		<path fill-rule="evenodd" clip-rule="evenodd" fill="#FFFFFF" d="M52.57,202.026c0.101-0.239-0.014-0.466-0.066-0.689
			c-1.164-4.933-5.322-8.654-10.357-9.277c-5.994-0.742-11.596,2.96-13.27,8.771c-0.152,0.524-0.359,0.732-0.754,0.752
			c-0.567,0.027-0.94-0.454-0.783-1.033c0.608-2.238,1.714-4.2,3.318-5.875c2.246-2.344,4.99-3.737,8.203-4.153
			c5.635-0.729,11.001,1.995,13.78,6.925c1.155,2.047,1.741,4.256,1.741,6.62c0,0.368-0.124,0.642-0.466,0.792
			c-0.345,0.151-0.647,0.046-0.901-0.207c-1.018-1.014-2.035-2.025-3.043-3.046c-0.35-0.353-0.354-0.85-0.039-1.158
			c0.323-0.316,0.794-0.296,1.157,0.066c0.5,0.499,0.987,1.007,1.481,1.509c0.002-0.025,0.079,0.011,0.038-0.048
			C52.595,201.993,52.582,202.009,52.57,202.026z"/>
		<path fill-rule="evenodd" clip-rule="evenodd" fill="#FFFFFF" d="M28.641,206.282c0.058,0.639,0.201,1.163,0.385,1.669
			c1.728,4.75,5.071,7.619,10.089,8.313c6.189,0.856,11.708-3.187,13.278-8.786c0.171-0.608,0.665-0.876,1.153-0.631
			c0.349,0.175,0.487,0.546,0.363,0.995c-0.688,2.483-1.975,4.612-3.859,6.366c-2.55,2.372-5.577,3.604-9.067,3.717
			c-6.752,0.219-12.753-4.669-13.897-11.332c-0.132-0.775-0.206-1.554-0.213-2.342c-0.003-0.355,0.131-0.615,0.457-0.766
			c0.319-0.146,0.62-0.087,0.9,0.193c1.017,1.012,2.033,2.025,3.043,3.045c0.346,0.345,0.358,0.801,0.047,1.123
			c-0.317,0.327-0.796,0.321-1.155-0.032C29.673,207.329,29.19,206.837,28.641,206.282z"/>
	</g>
</g>
<g>
	<g>
		<g>
			<g>
				<path fill="none" stroke="#FFFFFF" stroke-width="2.327" d="M345.302,120.828c7.771-7.771,20.352-7.771,28.123,0"/>
				<path fill="none" stroke="#FFFFFF" stroke-width="2.327" d="M348.979,124.506c5.74-5.737,15.028-5.737,20.769,0"/>
				<path fill="none" stroke="#FFFFFF" stroke-width="2.327" d="M353.286,128.469c3.358-3.36,8.797-3.36,12.155,0"/>
			</g>
			<circle fill="#FFFFFF" cx="359.365" cy="132.431" r="2.569"/>
		</g>
	</g>
</g>
<g>
	<g>
		<rect x="106.443" y="46.062" fill="#FFFFFF" width="26.452" height="9.54"/>
		<circle fill="#FFFFFF" cx="106.442" cy="49.079" r="6.52"/>
		<circle fill="#FFFFFF" cx="132.895" cy="49.079" r="6.52"/>
		<circle fill="#FFFFFF" cx="111.621" cy="41.033" r="6.521"/>
		<circle fill="#FFFFFF" cx="127.567" cy="41.033" r="6.519"/>
		<circle fill="#FFFFFF" cx="119.669" cy="37.122" r="6.52"/>
		<rect x="106.443" y="43.082" fill="#FFFFFF" width="26.452" height="6.558"/>
	</g>
</g>
<g id="text3006">
	<path id="path3011" fill="#010101" d="M181.637,124.653c0.058,5.921,2.729,8.91,8.016,8.968c4.159,0,7.64-2.932,10.441-8.794
		c-2.513-5.604-6.109-8.463-10.788-8.578C184.251,116.334,181.694,119.136,181.637,124.653 M214.694,116.249
		c-4.68,0.115-8.275,2.975-10.789,8.578c2.802,5.863,6.283,8.794,10.442,8.794c5.285-0.059,7.957-3.047,8.015-8.968
		C222.305,119.136,219.748,116.334,214.694,116.249 M201.956,128.031v1.213h-0.13c-3.408,5.461-7.683,8.189-12.824,8.189h-0.606
		c-4.044-0.434-6.946-1.979-8.708-4.635c-1.763-2.688-2.644-5.186-2.643-7.496c-0.001-0.203,0.014-0.42,0.043-0.65
		c0-0.115,0-0.246,0-0.391c0-3.35,1.111-6.122,3.336-8.317c2.253-2.224,5.329-3.351,9.229-3.379c4.534,0,8.636,2.454,12.304,7.365
		c3.697-4.911,7.828-7.365,12.392-7.365c3.898,0.028,6.96,1.155,9.185,3.379c2.253,2.195,3.379,4.968,3.379,8.317
		c0,0.145,0,0.275,0,0.391c0.029,0.23,0.044,0.447,0.044,0.65c0,2.31-0.881,4.808-2.644,7.496c-1.762,2.656-4.664,4.201-8.708,4.635
		h-0.606c-5.142,0-9.431-2.729-12.867-8.189h-0.087L201.956,128.031"/>
</g>
<g>
	<polygon fill="#EE3968" points="308.676,60.837 280.329,77.841 251.982,60.837 251.982,26.821 280.329,9.813 308.676,26.821 	"/>
	<g>
		<g>
			<path fill="#FFFFFF" d="M284.726,40.592c-0.802,0.712-1.88,1.978-2.943,1.86c0,0,1.136,0.369,1.493,1.063
				c-0.076-0.172-0.248-0.62-0.109-0.924c0,0,0.594,0.463,1.739,0.1c1.145-0.364,1.015-1.855,1.015-1.855s0.23-0.123,0.325,0.67
				c0,0,0.279-0.852,0.083-1.402C286.131,39.553,285.525,39.879,284.726,40.592z"/>
			<path fill="#FFFFFF" d="M283.616,41.837c0.969,0.405,1.07-0.582,1.07-0.582l0.229-0.302c0.089,1.687-1.376,1.204-1.376,1.204
				L283.616,41.837z"/>
			<path fill="#FFFFFF" d="M285.307,42.067c-0.504,0.848-1.919,0.521-2.097,0.308l0.119-0.109c0,0,0.654,0.495,1.419-0.022
				c0.766-0.518,0.391-1.409,0.391-1.409l0.219-0.094C285.357,40.74,285.763,41.212,285.307,42.067z"/>
		</g>
		<path fill="#FFFFFF" d="M283.275,43.516c0.02,0.045,0.033,0.071,0.033,0.071C283.299,43.564,283.287,43.54,283.275,43.516z"/>
		<path fill="#FFFFFF" d="M281.826,42.011c1.244,0.033,2.005-1.263,2.005-1.263c-0.564,0.396-1.244,0.688-1.89,0.493
			c-0.646-0.196-0.919-0.622-0.919-0.622v0.023C281.022,40.643,280.583,41.978,281.826,42.011z"/>
		<path fill="#FFFFFF" d="M281.367,43.638c0.301,0.004,0.478,0.22,1.048,0.707c0.569,0.488,1.631,0.46,1.631,0.46
			c-0.886-0.163-1.239-0.847-1.723-1.081C281.841,43.49,281.367,43.638,281.367,43.638z"/>
		<path fill="#FFFFFF" d="M283.698,48.15c0.144-0.783-0.284-1.125-1.071-0.754c-0.787,0.37-1.864,1.329-1.864,1.329
			c0.428,0.701,0.158,1.227,0.158,1.227c0.297-0.07,0.449-0.401,0.449-0.401c1.536,0.357,1.491-1.787,1.628-1.75
			c0.615,0.235-0.062,1.788-0.062,1.788S283.554,48.933,283.698,48.15z"/>
		<path fill="#FFFFFF" d="M281.263,46.775c0,0,2.117-0.88,2.743,0.957c0.625,1.836-0.677,2.551-0.677,2.551s1.353-0.459,1.875-1.671
			c0.523-1.212,1.838-1.313,1.161-2.628c0,0-0.816,2.042-3.61-0.677C282.755,45.307,281.67,45.486,281.263,46.775z"/>
		<path fill="#FFFFFF" d="M280.327,43.997c0.273-0.746,0.494-0.968,1.24-1.24c-0.746-0.273-0.967-0.495-1.24-1.24
			c-0.271,0.746-0.494,0.967-1.24,1.24C279.833,43.029,280.056,43.25,280.327,43.997z"/>
		<path fill="#FFFFFF" d="M282.51,44.734c0,0-1.071-1.098-1.556,0.995C280.954,45.729,281.249,44.695,282.51,44.734z"/>
		<g>
			<path fill="#FFFFFF" d="M292.979,44.112c0.43,0,0.732,0.354,0.732,0.354c-0.218-1.049-0.704-2.052-1.188-2.855
				c0.624-0.327,0.929-1.446,0.688-2.676c-0.249-1.272-0.996-2.215-1.722-2.222c0.009-0.694-0.011-1.171-0.011-1.171
				c0.306-0.051,0.58,0.16,0.58,0.16c-0.689-3.503-4.632-5.684-4.632-5.684c0.192-0.135,0.384-0.105,0.384-0.105
				c-2.249-2.048-4.708-1.822-4.708-1.822c0.034-0.326,0.612-0.637,0.612-0.637c-2.118,0.202-2.969,0.634-3.26,0.833
				c-0.076-0.067-0.121-0.107-0.121-0.107s-0.047,0.041-0.129,0.111c-0.283-0.196-1.133-0.634-3.264-0.837
				c0,0,0.578,0.311,0.611,0.637c0,0-2.459-0.226-4.707,1.822c0,0,0.191-0.029,0.383,0.105c0,0-3.943,2.182-4.631,5.684
				c0,0,0.273-0.211,0.58-0.16c0,0-0.021,0.477-0.012,1.171c-0.727,0.007-1.473,0.949-1.721,2.222
				c-0.242,1.23,0.063,2.349,0.688,2.676c-0.482,0.804-0.969,1.807-1.188,2.855c0,0,0.303-0.354,0.732-0.354
				c0,0-1.607,2.114-1.014,5.156c0,0,0.191-0.545,0.508-0.611c0,0,0.152,2.938,1.846,4.104c0,0-0.076-0.322-0.02-0.571
				c0,0,3.293,2.443,3.408,3.324c0,0,0.152-0.396,0.051-0.83c0,0,2.193,2.769,2.027,3.713c0,0,0.336-0.216,0.451-0.661
				c0,0,0.604,0.886,1.627,1.412c0,0,0.078-0.311-0.014-0.574c0,0,1.037,0.98,1.918,1.144c0,0-0.014-0.32-0.176-0.488
				c0,0,1.928,0.604,2.037,0.973c0.109-0.369,2.038-0.973,2.038-0.973c-0.163,0.168-0.177,0.488-0.177,0.488
				c0.88-0.163,1.919-1.144,1.919-1.144c-0.092,0.263-0.016,0.574-0.016,0.574c1.024-0.526,1.627-1.412,1.627-1.412
				c0.115,0.445,0.452,0.661,0.452,0.661c-0.166-0.944,2.027-3.713,2.027-3.713c-0.102,0.434,0.052,0.83,0.052,0.83
				c0.114-0.881,3.406-3.324,3.406-3.324c0.058,0.249-0.019,0.571-0.019,0.571c1.693-1.167,1.846-4.104,1.846-4.104
				c0.315,0.066,0.508,0.611,0.508,0.611C294.585,46.226,292.979,44.112,292.979,44.112z"/>
			<path fill="#FFFFFF" d="M291.361,39.031c-0.003,0.001-0.005,0.001-0.008,0.002c0.072-0.611,0.109-1.234,0.126-1.782
				c0.544,0.279,1.016,0.979,1.188,1.86c0.169,0.86,0.008,1.669-0.371,2.138c-0.56-0.868-1.061-1.427-1.061-1.427
				s0.192-0.609,0.727-0.504C291.963,39.318,291.715,38.963,291.361,39.031z"/>
			<path fill="#FFFFFF" d="M280.052,29.133c0.182,0.072,0.277,0.125,0.277,0.125s0.1-0.055,0.285-0.128
				c0.564,0.686,1.903,1.661,3.68,2.476c2.255,1.035,3.201,2.215,3.201,2.215c-2.797-1.301-5.367-0.954-5.367-0.954
				c3.33,0.268,5.02,2.579,5.02,2.579c-1.608-1.366-4.545-0.833-4.545-0.833c1.767,0.173,2.104,1.172,2.104,1.172
				c-2.796,0.113-4.371,2.568-4.371,2.568s-1.576-2.454-4.373-2.568c0,0,0.336-0.999,2.104-1.172c0,0-2.938-0.533-4.545,0.833
				c0,0,1.689-2.312,5.02-2.579c0,0-2.57-0.347-5.367,0.954c0,0,0.945-1.18,3.201-2.215
				C278.147,30.792,279.485,29.819,280.052,29.133z"/>
			<path fill="#FFFFFF" d="M286.567,41.92c0,0-0.249,0.756-0.947,0.995c0,0,1.229,0.057,1.811-0.769
				c0.037,0.728-0.088,1.246-0.156,1.469c-1.625,1.504-3.515,0.531-3.515,0.531c0.936,0.973,2.1,1.189,3.151,0.529
				c0.499-0.313,0.76-0.751,0.896-1.126c0.008,0.392-0.142,0.629-0.142,0.629c1.131,0.922,1.001,2.57-0.143,4.12
				c-1.145,1.55-2.47,1.279-2.47,1.279c0.351,1.144,0.108,1.841,0.108,1.841c-0.238,0.556-0.53,0.997-0.854,1.349
				c-0.039,0.035-0.083,0.075-0.135,0.119c0.004-0.003,0.008-0.005,0.011-0.008c-0.005,0.005-0.012,0.01-0.019,0.015
				c0.003-0.002,0.006-0.004,0.008-0.007c-0.524,0.354-1.652,0.708-3.855,0.708c-2.139,0-3.266-0.332-3.809-0.676
				c-0.385-0.373-0.729-0.861-1.002-1.5c0,0-0.242-0.697,0.109-1.841c0,0-1.328,0.271-2.471-1.279
				c-1.145-1.55-1.273-3.198-0.143-4.12c0,0-0.143-0.226-0.143-0.6c0.141,0.367,0.4,0.792,0.885,1.097
				c1.053,0.66,2.217,0.443,3.152-0.529c0,0-1.877,0.966-3.498-0.518c-0.068-0.213-0.197-0.732-0.162-1.468
				c0.586,0.81,1.799,0.754,1.799,0.754c-0.697-0.239-0.945-0.995-0.945-0.995c-0.059,0.183,0.047,0.345,0.047,0.345
				c-0.527-0.237-0.742-0.551-0.813-0.836c0.08-0.438,0.223-0.922,0.457-1.444c0.988-2.201,2.826-2.283,6.553,0.471
				c3.337-2.726,5.563-2.672,6.552-0.471c0.229,0.512,0.371,0.988,0.452,1.417c-0.064,0.293-0.275,0.618-0.819,0.863
				C286.519,42.264,286.625,42.102,286.567,41.92z"/>
			<path fill="#FFFFFF" d="M267.989,39.111c0.172-0.881,0.645-1.581,1.189-1.86c0.016,0.548,0.053,1.171,0.125,1.782
				c-0.002-0.001-0.004-0.001-0.008-0.002c-0.354-0.067-0.604,0.287-0.604,0.287c0.537-0.105,0.729,0.504,0.729,0.504
				s-0.5,0.559-1.061,1.427C267.981,40.78,267.821,39.971,267.989,39.111z"/>
			<path fill="#FFFFFF" d="M273.644,52.311c-0.982-1.008-0.754-3.112-0.754-3.112c-0.637,0.842-0.459,2.462-0.459,2.462
				c-1.861-2.016-1.684-4.248-1.684-4.248c-0.854,1.519-0.395,3.598-0.395,3.598c-1.557-2.232-0.865-4.813-0.865-4.813
				c-0.967,1.062-1.053,3.205-1.053,3.205c-0.516-1.033-0.096-2.086-0.096-2.086c-0.486,0.259-0.582,1.129-0.582,1.129
				c-1.227-2.87,1.645-6.009,1.645-6.009l-1.359,0.816c0.715-1.684,1.914-2.864,1.914-2.864l0.557,0.843
				c-1.131-5.225-0.203-6.554-0.203-6.554c-0.324-0.029-0.641,0.22-0.641,0.22c1.283-3.617,6-5.081,6-5.081
				c-0.498-0.287-1.336-0.188-1.336-0.188c2.256-1.108,4.074-0.952,5.096-0.694c-0.494,0.394-1.117,0.856-1.664,1.169
				c-1.127,0.641-5.033,2.354-5.875,4.876c0,0,0.621-0.689,1.559-0.695c0,0-0.879,0.868-0.803,2.452c0,0,1.109-1.137,2.652-1.274
				c0,0-0.549,0.542-0.541,1.01c0,0,2.357-0.57,4.561,1.666c-1.133-0.564-3.039-1.228-4.781-0.49c0,0,0.559-0.062,0.729,0.087
				c0,0-2.297,0.844-2.66,4.223c0,0-0.26-0.263-0.244-0.771c0,0-0.588,1.624-0.207,2.477c0,0-0.988,1.689-0.711,3.313
				c0,0,0.121-0.377,0.33-0.45c0,0-0.061,1.729,1.316,2.805c0,0-0.172-0.337-0.104-0.55c0,0,0.295,0.686,1.1,1.284
				C273.554,50.966,273.644,52.311,273.644,52.311z"/>
			<path fill="#FFFFFF" d="M275.595,56.152c0.498-0.651,0.014-1.429,0.014-1.429c-0.383,0.854-1.213,0.624-1.213,0.624
				c0.613-0.331,0.555-1.313,0.555-1.313c-0.834-0.049-0.797-3.035-0.768-3.9c0.207,0.145,0.445,0.281,0.719,0.4
				c0,0-0.369,2.002,2.068,4.512C276.815,55.941,275.595,56.152,275.595,56.152z"/>
			<path fill="#FFFFFF" d="M280.335,55.847c-1.385,0-3.26-0.361-4.387-3.198c0,0,1.031,1.911,4.387,1.911
				c3.354,0,4.385-1.911,4.385-1.911C283.593,55.486,281.718,55.847,280.335,55.847z"/>
			<path fill="#FFFFFF" d="M286.261,55.347c0,0-0.829,0.23-1.211-0.624c0,0-0.485,0.777,0.013,1.429c0,0-1.212-0.208-1.374-1.097
				c2.449-2.514,2.079-4.521,2.079-4.521c0.269-0.117,0.503-0.251,0.707-0.393c0.028,0.875,0.063,3.844-0.769,3.893
				C285.706,54.034,285.649,55.016,286.261,55.347z"/>
			<path fill="#FFFFFF" d="M292.901,48.446c0,0-0.095-0.87-0.584-1.129c0,0,0.421,1.053-0.096,2.086c0,0-0.086-2.144-1.053-3.205
				c0,0,0.693,2.58-0.864,4.813c0,0,0.46-2.079-0.396-3.598c0,0,0.179,2.232-1.684,4.248c0,0,0.179-1.62-0.459-2.463
				c0,0,0.229,2.105-0.753,3.113c0,0,0.09-1.339-0.438-2.241c0.812-0.6,1.107-1.291,1.107-1.291c0.069,0.214-0.103,0.55-0.103,0.55
				c1.377-1.074,1.315-2.805,1.315-2.805c0.209,0.074,0.33,0.451,0.33,0.451c0.277-1.624-0.711-3.313-0.711-3.313
				c0.381-0.852-0.207-2.476-0.207-2.476c0.017,0.508-0.243,0.771-0.243,0.771c-0.364-3.378-2.66-4.223-2.66-4.223
				c0.169-0.148,0.728-0.087,0.728-0.087c-1.693-0.716-3.539-0.11-4.684,0.442c2.178-2.18,4.463-1.617,4.463-1.617
				c0.008-0.469-0.542-1.011-0.542-1.011c1.544,0.138,2.653,1.274,2.653,1.274c0.076-1.584-0.803-2.451-0.803-2.451
				c0.938,0.005,1.558,0.694,1.558,0.694c-0.84-2.521-4.748-4.235-5.874-4.876c-0.548-0.313-1.172-0.776-1.666-1.171
				c1.021-0.256,2.837-0.408,5.088,0.696c0,0-0.84-0.099-1.337,0.188c0,0,4.718,1.464,5.999,5.08c0,0-0.315-0.248-0.641-0.22
				c0,0,0.928,1.33-0.201,6.554l0.555-0.842c0,0,1.2,1.18,1.914,2.864l-1.358-0.816C291.256,42.437,294.126,45.576,292.901,48.446z"
				/>
		</g>
		<path fill="#FFFFFF" d="M277.382,43.516c-0.012,0.023-0.023,0.048-0.033,0.071C277.349,43.587,277.362,43.561,277.382,43.516z"/>
		<g>
			<path fill="#FFFFFF" d="M277.382,43.516c0.357-0.694,1.492-1.063,1.492-1.063c-1.063,0.117-2.143-1.148-2.941-1.86
				c-0.801-0.713-1.406-1.038-1.604-0.488c-0.197,0.551,0.082,1.402,0.082,1.402c0.096-0.793,0.326-0.67,0.326-0.67
				s-0.131,1.491,1.014,1.855c1.146,0.364,1.74-0.099,1.74-0.099C277.628,42.896,277.458,43.344,277.382,43.516z"/>
			<path fill="#FFFFFF" d="M275.743,40.954l0.227,0.302c0,0,0.104,0.987,1.07,0.582l0.078,0.32
				C277.118,42.158,275.653,42.64,275.743,40.954z"/>
			<path fill="#FFFFFF" d="M275.351,42.067c-0.457-0.854-0.051-1.327-0.051-1.327l0.219,0.094c0,0-0.375,0.891,0.391,1.409
				c0.766,0.517,1.418,0.022,1.418,0.022l0.119,0.109C277.269,42.587,275.854,42.915,275.351,42.067z"/>
		</g>
		<path fill="#FFFFFF" d="M278.831,42.011c1.244-0.033,0.803-1.367,0.803-1.367V40.62c0,0-0.271,0.426-0.918,0.622
			c-0.645,0.195-1.324-0.096-1.889-0.493C276.827,40.749,277.587,42.044,278.831,42.011z"/>
		<path fill="#FFFFFF" d="M278.243,44.345c0.568-0.487,0.746-0.703,1.047-0.707c0,0-0.475-0.148-0.957,0.086
			s-0.838,0.918-1.723,1.081C276.61,44.805,277.673,44.833,278.243,44.345z"/>
		<path fill="#FFFFFF" d="M278.03,47.396c-0.787-0.371-1.215-0.029-1.07,0.754s0.76,1.438,0.76,1.438s-0.678-1.553-0.061-1.788
			c0.137-0.037,0.092,2.107,1.627,1.75c0,0,0.152,0.331,0.449,0.401c0,0-0.268-0.525,0.16-1.227
			C279.896,48.725,278.817,47.766,278.03,47.396z"/>
		<path fill="#FFFFFF" d="M276.651,47.732c0.625-1.837,2.744-0.957,2.744-0.957c-0.408-1.289-1.492-1.468-1.492-1.468
			c-2.795,2.719-3.611,0.677-3.611,0.677c-0.676,1.314,0.637,1.416,1.16,2.628s1.875,1.671,1.875,1.671
			S276.026,49.568,276.651,47.732z"/>
		<path fill="#FFFFFF" d="M280.323,46.45c-0.193,0.364-0.352,0.473-0.881,0.605c0.529,0.134,0.688,0.242,0.881,0.605
			c0.193-0.363,0.35-0.472,0.881-0.605C280.673,46.922,280.517,46.814,280.323,46.45z"/>
		<path fill="#FFFFFF" d="M278.147,44.734c1.262-0.039,1.557,0.995,1.557,0.995C279.218,43.636,278.147,44.734,278.147,44.734z"/>
		<path fill="#FFFFFF" d="M284.726,40.592c-0.802,0.712-1.88,1.978-2.943,1.86c0,0,1.136,0.369,1.493,1.063
			c-0.076-0.172-0.248-0.62-0.109-0.924c0,0,0.594,0.463,1.739,0.1c1.145-0.364,1.015-1.855,1.015-1.855s0.23-0.123,0.325,0.67
			c0,0,0.279-0.852,0.083-1.402C286.131,39.553,285.525,39.879,284.726,40.592z M283.616,41.837c0.969,0.405,1.07-0.582,1.07-0.582
			l0.229-0.302c0.089,1.687-1.376,1.204-1.376,1.204L283.616,41.837z M285.307,42.067c-0.504,0.848-1.919,0.521-2.097,0.308
			l0.119-0.109c0,0,0.654,0.495,1.419-0.022c0.766-0.518,0.391-1.409,0.391-1.409l0.219-0.094
			C285.357,40.74,285.763,41.212,285.307,42.067z M283.275,43.516c0.02,0.045,0.033,0.071,0.033,0.071
			C283.299,43.564,283.287,43.54,283.275,43.516z M281.826,42.011c1.244,0.033,2.005-1.263,2.005-1.263
			c-0.564,0.396-1.244,0.688-1.89,0.493c-0.646-0.196-0.919-0.622-0.919-0.622v0.023C281.022,40.643,280.583,41.978,281.826,42.011z
			 M281.367,43.638c0.301,0.004,0.478,0.22,1.048,0.707c0.569,0.488,1.631,0.46,1.631,0.46c-0.886-0.163-1.239-0.847-1.723-1.081
			C281.841,43.49,281.367,43.638,281.367,43.638z M283.698,48.15c0.144-0.783-0.284-1.125-1.071-0.754
			c-0.787,0.37-1.864,1.329-1.864,1.329c0.428,0.701,0.158,1.227,0.158,1.227c0.297-0.07,0.449-0.401,0.449-0.401
			c1.536,0.357,1.491-1.787,1.628-1.75c0.615,0.235-0.062,1.788-0.062,1.788S283.554,48.933,283.698,48.15z M281.263,46.775
			c0,0,2.117-0.88,2.743,0.957c0.625,1.836-0.677,2.551-0.677,2.551s1.353-0.459,1.875-1.671c0.523-1.212,1.838-1.313,1.161-2.628
			c0,0-0.816,2.042-3.61-0.677C282.755,45.307,281.67,45.486,281.263,46.775z M280.327,43.997c0.273-0.746,0.494-0.968,1.24-1.24
			c-0.746-0.273-0.967-0.495-1.24-1.24c-0.271,0.746-0.494,0.967-1.24,1.24C279.833,43.029,280.056,43.25,280.327,43.997z
			 M282.51,44.734c0,0-1.071-1.098-1.556,0.995C280.954,45.729,281.249,44.695,282.51,44.734z M292.979,44.112
			c0.43,0,0.732,0.354,0.732,0.354c-0.218-1.049-0.704-2.052-1.188-2.855c0.624-0.327,0.929-1.446,0.688-2.676
			c-0.249-1.272-0.996-2.215-1.722-2.222c0.009-0.694-0.011-1.171-0.011-1.171c0.306-0.051,0.58,0.16,0.58,0.16
			c-0.689-3.503-4.632-5.684-4.632-5.684c0.192-0.135,0.384-0.105,0.384-0.105c-2.249-2.048-4.708-1.822-4.708-1.822
			c0.034-0.326,0.612-0.637,0.612-0.637c-2.118,0.202-2.969,0.634-3.26,0.833c-0.076-0.067-0.121-0.107-0.121-0.107
			s-0.047,0.041-0.129,0.111c-0.283-0.196-1.133-0.634-3.264-0.837c0,0,0.578,0.311,0.611,0.637c0,0-2.459-0.226-4.707,1.822
			c0,0,0.191-0.029,0.383,0.105c0,0-3.943,2.182-4.631,5.684c0,0,0.273-0.211,0.58-0.16c0,0-0.021,0.477-0.012,1.171
			c-0.727,0.007-1.473,0.949-1.721,2.222c-0.242,1.23,0.063,2.349,0.688,2.676c-0.482,0.804-0.969,1.807-1.188,2.855
			c0,0,0.303-0.354,0.732-0.354c0,0-1.607,2.114-1.014,5.156c0,0,0.191-0.545,0.508-0.611c0,0,0.152,2.938,1.846,4.104
			c0,0-0.076-0.322-0.02-0.571c0,0,3.293,2.443,3.408,3.324c0,0,0.152-0.396,0.051-0.83c0,0,2.193,2.769,2.027,3.713
			c0,0,0.336-0.216,0.451-0.661c0,0,0.604,0.886,1.627,1.412c0,0,0.078-0.311-0.014-0.574c0,0,1.037,0.98,1.918,1.144
			c0,0-0.014-0.32-0.176-0.488c0,0,1.928,0.604,2.037,0.973c0.109-0.369,2.038-0.973,2.038-0.973
			c-0.163,0.168-0.177,0.488-0.177,0.488c0.88-0.163,1.919-1.144,1.919-1.144c-0.092,0.263-0.016,0.574-0.016,0.574
			c1.024-0.526,1.627-1.412,1.627-1.412c0.115,0.445,0.452,0.661,0.452,0.661c-0.166-0.944,2.027-3.713,2.027-3.713
			c-0.102,0.434,0.052,0.83,0.052,0.83c0.114-0.881,3.406-3.324,3.406-3.324c0.058,0.249-0.019,0.571-0.019,0.571
			c1.693-1.167,1.846-4.104,1.846-4.104c0.315,0.066,0.508,0.611,0.508,0.611C294.585,46.226,292.979,44.112,292.979,44.112z
			 M291.361,39.031c-0.003,0.001-0.005,0.001-0.008,0.002c0.072-0.611,0.109-1.234,0.126-1.782c0.544,0.279,1.016,0.979,1.188,1.86
			c0.169,0.86,0.008,1.669-0.371,2.138c-0.56-0.868-1.061-1.427-1.061-1.427s0.192-0.609,0.727-0.504
			C291.963,39.318,291.715,38.963,291.361,39.031z M280.052,29.133c0.182,0.072,0.277,0.125,0.277,0.125s0.1-0.055,0.285-0.128
			c0.564,0.686,1.903,1.661,3.68,2.476c2.255,1.035,3.201,2.215,3.201,2.215c-2.797-1.301-5.367-0.954-5.367-0.954
			c3.33,0.268,5.02,2.579,5.02,2.579c-1.608-1.366-4.545-0.833-4.545-0.833c1.767,0.173,2.104,1.172,2.104,1.172
			c-2.796,0.113-4.371,2.568-4.371,2.568s-1.576-2.454-4.373-2.568c0,0,0.336-0.999,2.104-1.172c0,0-2.938-0.533-4.545,0.833
			c0,0,1.689-2.312,5.02-2.579c0,0-2.57-0.347-5.367,0.954c0,0,0.945-1.18,3.201-2.215
			C278.147,30.792,279.485,29.819,280.052,29.133z M286.567,41.92c0,0-0.249,0.756-0.947,0.995c0,0,1.229,0.057,1.811-0.769
			c0.037,0.728-0.088,1.246-0.156,1.469c-1.625,1.504-3.515,0.531-3.515,0.531c0.936,0.973,2.1,1.189,3.151,0.529
			c0.499-0.313,0.76-0.751,0.896-1.126c0.008,0.392-0.142,0.629-0.142,0.629c1.131,0.922,1.001,2.57-0.143,4.12
			c-1.145,1.55-2.47,1.279-2.47,1.279c0.351,1.144,0.108,1.841,0.108,1.841c-0.238,0.556-0.53,0.997-0.854,1.349
			c-0.039,0.035-0.083,0.075-0.135,0.119c0.004-0.003,0.008-0.005,0.011-0.008c-0.005,0.005-0.012,0.01-0.019,0.015
			c0.003-0.002,0.006-0.004,0.008-0.007c-0.524,0.354-1.652,0.708-3.855,0.708c-2.139,0-3.266-0.332-3.809-0.676
			c-0.385-0.373-0.729-0.861-1.002-1.5c0,0-0.242-0.697,0.109-1.841c0,0-1.328,0.271-2.471-1.279
			c-1.145-1.55-1.273-3.198-0.143-4.12c0,0-0.143-0.226-0.143-0.6c0.141,0.367,0.4,0.792,0.885,1.097
			c1.053,0.66,2.217,0.443,3.152-0.529c0,0-1.877,0.966-3.498-0.518c-0.068-0.213-0.197-0.732-0.162-1.468
			c0.586,0.81,1.799,0.754,1.799,0.754c-0.697-0.239-0.945-0.995-0.945-0.995c-0.059,0.183,0.047,0.345,0.047,0.345
			c-0.527-0.237-0.742-0.551-0.813-0.836c0.08-0.438,0.223-0.922,0.457-1.444c0.988-2.201,2.826-2.283,6.553,0.471
			c3.337-2.726,5.563-2.672,6.552-0.471c0.229,0.512,0.371,0.988,0.452,1.417c-0.064,0.293-0.275,0.618-0.819,0.863
			C286.519,42.264,286.625,42.102,286.567,41.92z M267.989,39.111c0.172-0.881,0.645-1.581,1.189-1.86
			c0.016,0.548,0.053,1.171,0.125,1.782c-0.002-0.001-0.004-0.001-0.008-0.002c-0.354-0.067-0.604,0.287-0.604,0.287
			c0.537-0.105,0.729,0.504,0.729,0.504s-0.5,0.559-1.061,1.427C267.981,40.78,267.821,39.971,267.989,39.111z M273.644,52.311
			c-0.982-1.008-0.754-3.112-0.754-3.112c-0.637,0.842-0.459,2.462-0.459,2.462c-1.861-2.016-1.684-4.248-1.684-4.248
			c-0.854,1.519-0.395,3.598-0.395,3.598c-1.557-2.232-0.865-4.813-0.865-4.813c-0.967,1.062-1.053,3.205-1.053,3.205
			c-0.516-1.033-0.096-2.086-0.096-2.086c-0.486,0.259-0.582,1.129-0.582,1.129c-1.227-2.87,1.645-6.009,1.645-6.009l-1.359,0.816
			c0.715-1.684,1.914-2.864,1.914-2.864l0.557,0.843c-1.131-5.225-0.203-6.554-0.203-6.554c-0.324-0.029-0.641,0.22-0.641,0.22
			c1.283-3.617,6-5.081,6-5.081c-0.498-0.287-1.336-0.188-1.336-0.188c2.256-1.108,4.074-0.952,5.096-0.694
			c-0.494,0.394-1.117,0.856-1.664,1.169c-1.127,0.641-5.033,2.354-5.875,4.876c0,0,0.621-0.689,1.559-0.695
			c0,0-0.879,0.868-0.803,2.452c0,0,1.109-1.137,2.652-1.274c0,0-0.549,0.542-0.541,1.01c0,0,2.357-0.57,4.561,1.666
			c-1.133-0.564-3.039-1.228-4.781-0.49c0,0,0.559-0.062,0.729,0.087c0,0-2.297,0.844-2.66,4.223c0,0-0.26-0.263-0.244-0.771
			c0,0-0.588,1.624-0.207,2.477c0,0-0.988,1.689-0.711,3.313c0,0,0.121-0.377,0.33-0.45c0,0-0.061,1.729,1.316,2.805
			c0,0-0.172-0.337-0.104-0.55c0,0,0.295,0.686,1.1,1.284C273.554,50.966,273.644,52.311,273.644,52.311z M275.595,56.152
			c0.498-0.651,0.014-1.429,0.014-1.429c-0.383,0.854-1.213,0.624-1.213,0.624c0.613-0.331,0.555-1.313,0.555-1.313
			c-0.834-0.049-0.797-3.035-0.768-3.9c0.207,0.145,0.445,0.281,0.719,0.4c0,0-0.369,2.002,2.068,4.512
			C276.815,55.941,275.595,56.152,275.595,56.152z M280.335,55.847c-1.385,0-3.26-0.361-4.387-3.198c0,0,1.031,1.911,4.387,1.911
			c3.354,0,4.385-1.911,4.385-1.911C283.593,55.486,281.718,55.847,280.335,55.847z M286.261,55.347c0,0-0.829,0.23-1.211-0.624
			c0,0-0.485,0.777,0.013,1.429c0,0-1.212-0.208-1.374-1.097c2.449-2.514,2.079-4.521,2.079-4.521
			c0.269-0.117,0.503-0.251,0.707-0.393c0.028,0.875,0.063,3.844-0.769,3.893C285.706,54.034,285.649,55.016,286.261,55.347z
			 M292.901,48.446c0,0-0.095-0.87-0.584-1.129c0,0,0.421,1.053-0.096,2.086c0,0-0.086-2.144-1.053-3.205
			c0,0,0.693,2.58-0.864,4.813c0,0,0.46-2.079-0.396-3.598c0,0,0.179,2.232-1.684,4.248c0,0,0.179-1.62-0.459-2.463
			c0,0,0.229,2.105-0.753,3.113c0,0,0.09-1.339-0.438-2.241c0.812-0.6,1.107-1.291,1.107-1.291c0.069,0.214-0.103,0.55-0.103,0.55
			c1.377-1.074,1.315-2.805,1.315-2.805c0.209,0.074,0.33,0.451,0.33,0.451c0.277-1.624-0.711-3.313-0.711-3.313
			c0.381-0.852-0.207-2.476-0.207-2.476c0.017,0.508-0.243,0.771-0.243,0.771c-0.364-3.378-2.66-4.223-2.66-4.223
			c0.169-0.148,0.728-0.087,0.728-0.087c-1.693-0.716-3.539-0.11-4.684,0.442c2.178-2.18,4.463-1.617,4.463-1.617
			c0.008-0.469-0.542-1.011-0.542-1.011c1.544,0.138,2.653,1.274,2.653,1.274c0.076-1.584-0.803-2.451-0.803-2.451
			c0.938,0.005,1.558,0.694,1.558,0.694c-0.84-2.521-4.748-4.235-5.874-4.876c-0.548-0.313-1.172-0.776-1.666-1.171
			c1.021-0.256,2.837-0.408,5.088,0.696c0,0-0.84-0.099-1.337,0.188c0,0,4.718,1.464,5.999,5.08c0,0-0.315-0.248-0.641-0.22
			c0,0,0.928,1.33-0.201,6.554l0.555-0.842c0,0,1.2,1.18,1.914,2.864l-1.358-0.816C291.256,42.437,294.126,45.576,292.901,48.446z
			 M277.382,43.516c-0.012,0.023-0.023,0.048-0.033,0.071C277.349,43.587,277.362,43.561,277.382,43.516z M277.382,43.516
			c0.357-0.694,1.492-1.063,1.492-1.063c-1.063,0.117-2.143-1.148-2.941-1.86c-0.801-0.713-1.406-1.038-1.604-0.488
			c-0.197,0.551,0.082,1.402,0.082,1.402c0.096-0.793,0.326-0.67,0.326-0.67s-0.131,1.491,1.014,1.855
			c1.146,0.364,1.74-0.099,1.74-0.099C277.628,42.896,277.458,43.344,277.382,43.516z M275.743,40.954l0.227,0.302
			c0,0,0.104,0.987,1.07,0.582l0.078,0.32C277.118,42.158,275.653,42.64,275.743,40.954z M275.351,42.067
			c-0.457-0.854-0.051-1.327-0.051-1.327l0.219,0.094c0,0-0.375,0.891,0.391,1.409c0.766,0.517,1.418,0.022,1.418,0.022l0.119,0.109
			C277.269,42.587,275.854,42.915,275.351,42.067z M278.831,42.011c1.244-0.033,0.803-1.367,0.803-1.367V40.62
			c0,0-0.271,0.426-0.918,0.622c-0.645,0.195-1.324-0.096-1.889-0.493C276.827,40.749,277.587,42.044,278.831,42.011z
			 M278.243,44.345c0.568-0.487,0.746-0.703,1.047-0.707c0,0-0.475-0.148-0.957,0.086s-0.838,0.918-1.723,1.081
			C276.61,44.805,277.673,44.833,278.243,44.345z M278.03,47.396c-0.787-0.371-1.215-0.029-1.07,0.754s0.76,1.438,0.76,1.438
			s-0.678-1.553-0.061-1.788c0.137-0.037,0.092,2.107,1.627,1.75c0,0,0.152,0.331,0.449,0.401c0,0-0.268-0.525,0.16-1.227
			C279.896,48.725,278.817,47.766,278.03,47.396z M276.651,47.732c0.625-1.837,2.744-0.957,2.744-0.957
			c-0.408-1.289-1.492-1.468-1.492-1.468c-2.795,2.719-3.611,0.677-3.611,0.677c-0.676,1.314,0.637,1.416,1.16,2.628
			s1.875,1.671,1.875,1.671S276.026,49.568,276.651,47.732z M280.323,46.45c-0.193,0.364-0.352,0.473-0.881,0.605
			c0.529,0.134,0.688,0.242,0.881,0.605c0.193-0.363,0.35-0.472,0.881-0.605C280.673,46.922,280.517,46.814,280.323,46.45z
			 M278.147,44.734c1.262-0.039,1.557,0.995,1.557,0.995C279.218,43.636,278.147,44.734,278.147,44.734z"/>
	</g>
</g>
</svg>
