<?xml version="1.0" encoding="utf-8"?>
<!-- Generator: Adobe Illustrator 16.0.0, SVG Export Plug-In . SVG Version: 6.00 Build 0)  -->
<!DOCTYPE svg PUBLIC "-//W3C//DTD SVG 1.1//EN" "http://www.w3.org/Graphics/SVG/1.1/DTD/svg11.dtd">
<svg version="1.1" id="Layer_1" xmlns="http://www.w3.org/2000/svg" xmlns:xlink="http://www.w3.org/1999/xlink" x="0px" y="0px"
	 width="175.748px" height="29.771px" viewBox="0 0 175.748 29.771" enable-background="new 0 0 175.748 29.771"
	 xml:space="preserve">
<polygon fill="#FFF200" points="0,0 175.748,0 175.748,29.771 0,29.771 0,0 0,0 "/>
<path fill-rule="evenodd" clip-rule="evenodd" fill="#0060A9" d="M8.187,22.948l2.326-1.55l2.326,1.55L8.187,26.05V22.948
	L8.187,22.948L8.187,22.948z M30.517,6.823l-2.326,1.55l-2.326-1.55l4.652-3.101V6.823L30.517,6.823L30.517,6.823z M30.517,18.606
	L19.352,26.05L8.187,18.606l13.259-8.838l2.326,1.551l-10.7,7.133l6.513,4.342l3.023-2.017l-2.326-1.55l5.583-3.722L30.517,18.606
	L30.517,18.606L30.517,18.606z M8.187,11.165l11.166-7.443l11.165,7.443l-13.259,8.838l-2.326-1.551l10.7-7.133l-6.513-4.342
	l-3.024,2.016l2.326,1.551l-5.583,3.722L8.187,11.165L8.187,11.165L8.187,11.165z"/>
<path fill-rule="evenodd" clip-rule="evenodd" fill="#0060A9" d="M34.982,17.471v4.853h6.088c1.459,0,5.085-0.165,5.085-3.937
	c0-0.321-0.016-0.628-0.053-0.918l-3.78,0.002c0.019,0.146,0.027,0.301,0.027,0.463c0,2.081-1.724,2.103-2.49,2.103h-1.13v-2.565
	H34.982L34.982,17.471L34.982,17.471z M47.725,17.471l-1.487,4.852h3.061l0.765-2.699h3.286l0.746,2.699h3.248l-1.458-4.852h-3.091
	l0.069,0.28h-2.352l0.063-0.28H47.725L47.725,17.471L47.725,17.471z M58.063,17.471v4.852h2.628v-4.852H58.063L58.063,17.471
	L58.063,17.471z M62.056,17.471l2.024,4.852h3.653v-4.852h-2.631v0.547l-0.229-0.547H62.056L62.056,17.471L62.056,17.471z
	 M68.988,17.471c0.034,3.042,0.421,5.209,4.626,5.209c2.689,0,4.262-1.066,4.262-4.388h-3.061c-0.038,0.981-0.055,2.53-1.201,2.53
	c-1.15,0-1.433-0.613-1.483-3.354L68.988,17.471L68.988,17.471L68.988,17.471z M78.794,17.471c0.065,2.786,0.583,5.209,4.731,5.209
	s4.667-2.423,4.731-5.208l-3.176-0.001c-0.06,2.326-0.357,3.352-1.555,3.352c-1.197,0-1.496-1.025-1.554-3.354L78.794,17.471
	L78.794,17.471L78.794,17.471z M91.634,17.471v4.852h4.627c3.908,0,4.463-2.785,4.531-4.852h-3.143
	c-0.09,2.146-0.487,2.994-1.753,2.994H94.72v-2.994H91.634L91.634,17.471L91.634,17.471z M101.956,17.471
	c0.063,2.78,0.571,5.209,4.734,5.209c4.162,0,4.672-2.429,4.734-5.211l-3.179,0.002c-0.058,2.332-0.354,3.359-1.556,3.359
	c-1.202,0-1.498-1.027-1.556-3.36L101.956,17.471L101.956,17.471L101.956,17.471z M114.638,17.471v4.854h6.088
	c1.46,0,5.085-0.164,5.085-3.936c0-0.322-0.016-0.629-0.052-0.918h-3.727c0.018,0.154,0.025,0.315,0.025,0.485
	c0,2.081-1.405,2.102-2.028,2.102h-1.638v-2.587H114.638L114.638,17.471L114.638,17.471z M126.836,17.471v4.851h3.176v-4.851
	H126.836L126.836,17.471L126.836,17.471z M131.312,17.471l2.109,4.851h5.079l0.766-2.699h3.285l0.747,2.699l7.378,0.001
	c2.039,0,4.104-0.271,4.104-3.426c0-0.562-0.126-1.027-0.338-1.423l-4.598-0.003c0.944,0.445,1.676,0.901,1.676,1.622
	c0,0.826-0.443,1.383-1.348,1.383h-4.185l-0.902-3.005h-3.092l0.071,0.287h-2.353l0.064-0.287h-2.874l-1.163,3.756l-1.699-3.756
	H131.312L131.312,17.471L131.312,17.471z M155.93,17.471v4.852h3.099v-4.852H155.93L155.93,17.471L155.93,17.471z M160.847,17.471
	v4.852h6.715V20.48h-3.616v-3.01H160.847L160.847,17.471L160.847,17.471z M38.73,17.471v-1.637l0.748-0.023h0.478
	c1.596,0,2.234,0.618,2.367,1.66h3.78c-0.194-1.545-0.97-2.595-3.026-2.855c1.87-0.371,2.805-1.607,2.805-3.318
	c0-3.174-2.166-3.854-4.788-3.854h-6.112v10.027H38.73L38.73,17.471L38.73,17.471z M50.576,17.471l1.056-4.703l1.163,4.703h3.091
	l-2.201-7.328h-3.714l-2.246,7.328H50.576L50.576,17.471L50.576,17.471z M60.69,17.471v-3.271l1.365,3.271h2.817l-3.068-7.328
	h-3.742v7.328H60.69L60.69,17.471L60.69,17.471z M67.733,17.471v-7.328h-2.631v7.328H67.733L67.733,17.471L67.733,17.471z
	 M72.131,17.471c-0.006-0.365-0.009-0.766-0.009-1.209c0-3.902,0.298-4.559,1.433-4.559c0.817,0,1.184,0.619,1.184,2.271h3.042
	c0.114-2.667-1.367-4.13-4.299-4.13c-4.368,0-4.495,2.775-4.495,6.417c0,0.415-0.001,0.817,0.002,1.206L72.131,17.471L72.131,17.471
	L72.131,17.471z M81.971,17.471c-0.01-0.371-0.013-0.772-0.013-1.209c0-3.183,0.18-4.559,1.567-4.559
	c1.388,0,1.567,1.376,1.567,4.559c0,0.437-0.003,0.838-0.013,1.207l3.176,0.002c0.01-0.396,0.01-0.802,0.01-1.209
	c0-3.286,0-6.417-4.741-6.417c-4.74,0-4.74,3.131-4.74,6.417c0,0.407,0,0.813,0.009,1.21L81.971,17.471L81.971,17.471L81.971,17.471
	z M94.72,17.471v-5.467h1.258c1.694,0,1.694,1.98,1.694,4.23c0,0.452-0.007,0.862-0.022,1.234l3.143,0.002
	c0.016-0.5,0.004-0.958,0.004-1.325c0-3.807-0.696-6.041-4.421-6.041h-4.741v7.366H94.72L94.72,17.471L94.72,17.471z
	 M105.135,17.471c-0.009-0.362-0.012-0.755-0.012-1.181c0-3.17,0.18-4.541,1.567-4.541s1.568,1.371,1.568,4.541
	c0,0.426-0.003,0.818-0.013,1.18l3.179,0.001c0.009-0.391,0.009-0.785,0.009-1.181c0-3.272,0-6.391-4.743-6.391
	s-4.743,3.118-4.743,6.391c0,0.396,0,0.79,0.009,1.179L105.135,17.471L105.135,17.471L105.135,17.471z M118.392,17.471v-1.614
	l0.944-0.023h0.771c1.291,0,1.813,0.61,1.925,1.639l3.727-0.001c-0.193-1.544-0.971-2.594-3.026-2.854
	c1.87-0.371,2.805-1.608,2.805-3.318c0-3.173-2.166-3.854-4.788-3.854h-6.111v10.026H118.392L118.392,17.471L118.392,17.471z
	 M130.012,17.471v-5.457h1.053c0.896,0,1.674,0.653,1.674,1.851c0,1.015-0.508,1.848-1.324,1.796l-0.885,0.013l0.782,1.797h2.729
	l-0.455-1.009c1.58-0.294,2.207-1.296,2.212-3.132c0.005-2.075-1.231-3.188-3.154-3.188h-5.808v7.329H130.012L130.012,17.471
	L130.012,17.471z M139.777,17.471l1.056-4.696l1.161,4.696h3.092l-2.199-7.329h-3.715l-2.269,7.329H139.777L139.777,17.471
	L139.777,17.471z M154.442,17.471c-1.164-2.167-4.941-2.209-4.941-4.164c0-0.843,0.515-1.299,1.384-1.299l2.825,0v-1.875h-3.97
	c-3.263,0-4.069,1.472-4.069,3.378c0,2.345,2.444,3.138,4.174,3.957L154.442,17.471L154.442,17.471L154.442,17.471z M159.028,17.471
	v-7.328h-3.099v7.328H159.028L159.028,17.471L159.028,17.471z M163.945,17.471v-7.328h-3.099v7.328H163.945L163.945,17.471
	L163.945,17.471z M38.73,13.535V9.731h1.346c1.221,0,2.083,0.804,2.083,1.896c0,1.442-1.102,1.896-1.892,1.896h-1.261L38.73,13.535
	L38.73,13.535L38.73,13.535z M118.392,13.558V9.753h1.813c0.995,0,1.696,0.804,1.696,1.896c0,1.442-0.896,1.896-1.541,1.896h-1.025
	L118.392,13.558L118.392,13.558L118.392,13.558z"/>
</svg>
