<?xml version="1.0" encoding="UTF-8" standalone="no"?>
<!-- Generator: Adobe Illustrator 16.0.0, SVG Export Plug-In . SVG Version: 6.00 Build 0)  -->

<svg
   xmlns:dc="http://purl.org/dc/elements/1.1/"
   xmlns:cc="http://creativecommons.org/ns#"
   xmlns:rdf="http://www.w3.org/1999/02/22-rdf-syntax-ns#"
   xmlns:svg="http://www.w3.org/2000/svg"
   xmlns="http://www.w3.org/2000/svg"
   xmlns:sodipodi="http://sodipodi.sourceforge.net/DTD/sodipodi-0.dtd"
   xmlns:inkscape="http://www.inkscape.org/namespaces/inkscape"
   version="1.1"
   id="Layer_1"
   x="0px"
   y="0px"
   width="640"
   height="400"
   viewBox="0 0 640 400"
   enable-background="new 0 0 330 400"
   xml:space="preserve"
   inkscape:version="0.48.4 r9939"
   sodipodi:docname="beta.svg"><metadata
     id="metadata3817"><rdf:RDF><cc:Work
         rdf:about=""><dc:format>image/svg+xml</dc:format><dc:type
           rdf:resource="http://purl.org/dc/dcmitype/StillImage" /></cc:Work></rdf:RDF></metadata><defs
     id="defs3815" /><sodipodi:namedview
     pagecolor="#ffffff"
     bordercolor="#666666"
     borderopacity="1"
     objecttolerance="10"
     gridtolerance="10"
     guidetolerance="10"
     inkscape:pageopacity="0"
     inkscape:pageshadow="2"
     inkscape:window-width="1680"
     inkscape:window-height="1026"
     id="namedview3813"
     showgrid="false"
     inkscape:zoom="0.59"
     inkscape:cx="86.271186"
     inkscape:cy="200"
     inkscape:window-x="0"
     inkscape:window-y="24"
     inkscape:window-maximized="1"
     inkscape:current-layer="Layer_1" /><title
     id="title3799">Layer 1</title><g
     id="g3819"
     transform="translate(155,0)"><polygon
       id="polygon3797"
       points="165,0 331.154,100 331.154,300 165,400 -1.154,300 -1.153,100 " /><g
       id="g3801"><g
         transform="translate(-256.6798,-531.7963)"
         id="layer1_1_"><path
           style="fill:#6d1943;stroke:#6d1943;stroke-width:5;stroke-miterlimit:10"
           inkscape:connector-curvature="0"
           d="m 355.12,834.122 h -18.174 c 2.644,-12.411 3.965,-23.646 3.965,-33.705 V 680.468 c 0,-12.484 1.102,-21.771 3.305,-27.868 2.276,-6.093 6.645,-11.454 13.107,-16.08 6.536,-4.7 14.686,-7.05 24.453,-7.05 11.602,0 21.332,3.083 29.188,9.252 7.931,6.095 11.896,14.798 11.896,26.104 0,13.218 -6.278,24.05 -18.835,32.494 18.725,8.812 28.087,22.652 28.087,41.525 0,10.28 -2.497,19.495 -7.49,27.646 -4.919,8.076 -10.647,13.842 -17.183,17.293 -6.461,3.45 -14.208,5.176 -23.24,5.176 -10.28,0 -18.651,-3.854 -25.113,-11.565 v 20.487 c 0,14.101 -1.323,26.18 -3.966,36.24 m 3.966,-66.639 c 5.728,9.473 13.731,14.21 24.012,14.21 9.913,0 17.183,-3.598 21.809,-10.795 4.626,-7.269 6.939,-16.08 6.939,-26.435 0,-7.931 -1.542,-16.009 -4.626,-24.232 -3.01,-8.299 -6.902,-14.612 -11.675,-18.945 -4.406,1.102 -8.371,1.652 -11.896,1.652 -7.416,0 -11.125,-1.946 -11.125,-5.838 0,-3.524 3.121,-5.288 9.363,-5.288 3.892,0 8.738,0.883 14.539,2.645 5.213,-8.812 7.82,-18.395 7.82,-28.749 0,-9.252 -2.056,-16.338 -6.168,-21.257 -4.039,-4.92 -9.326,-7.38 -15.861,-7.38 -5.213,0 -9.693,1.469 -13.438,4.405 -3.671,2.938 -6.205,6.463 -7.6,10.575 -1.396,4.038 -2.093,10.684 -2.093,19.936 v 95.496"
           stroke-miterlimit="10"
           id="text5540_1_" /></g><g
         transform="translate(-256.6798,-531.7963)"
         id="layer1_4_"><path
           style="fill:#8c2863;stroke:#8c2863;stroke-width:5;stroke-miterlimit:10"
           inkscape:connector-curvature="0"
           d="m 373.695,834.122 h -18.174 c 2.643,-12.411 3.965,-23.646 3.965,-33.705 V 680.468 c 0,-12.484 1.102,-21.771 3.305,-27.868 2.276,-6.093 6.645,-11.454 13.107,-16.08 6.536,-4.7 14.687,-7.05 24.453,-7.05 11.602,0 21.332,3.083 29.188,9.252 7.931,6.095 11.896,14.798 11.896,26.104 0,13.218 -6.278,24.05 -18.835,32.494 18.725,8.812 28.087,22.652 28.087,41.525 0,10.28 -2.497,19.495 -7.49,27.646 -4.919,8.076 -10.647,13.842 -17.183,17.293 -6.462,3.45 -14.209,5.176 -23.241,5.176 -10.28,0 -18.651,-3.854 -25.113,-11.565 v 20.487 c 10e-4,14.101 -1.321,26.18 -3.965,36.24 m 3.966,-66.639 c 5.728,9.473 13.732,14.21 24.012,14.21 9.913,0 17.183,-3.598 21.809,-10.795 4.626,-7.269 6.939,-16.08 6.939,-26.435 0,-7.931 -1.542,-16.009 -4.626,-24.232 -3.01,-8.299 -6.902,-14.612 -11.676,-18.945 -4.406,1.102 -8.371,1.652 -11.896,1.652 -7.416,0 -11.125,-1.946 -11.125,-5.838 0,-3.524 3.121,-5.288 9.362,-5.288 3.892,0 8.738,0.883 14.539,2.645 5.213,-8.812 7.82,-18.395 7.82,-28.749 0,-9.252 -2.056,-16.338 -6.168,-21.257 -4.039,-4.92 -9.326,-7.38 -15.861,-7.38 -5.213,0 -9.693,1.469 -13.438,4.405 -3.671,2.938 -6.205,6.463 -7.6,10.575 -1.395,4.038 -2.093,10.684 -2.093,19.936 v 95.496"
           stroke-miterlimit="10"
           id="text5540_4_" /></g><g
         transform="translate(-256.6798,-531.7963)"
         id="layer1_2_"><path
           style="fill:#bf5e93;stroke:#bf5e93;stroke-width:5;stroke-miterlimit:10"
           inkscape:connector-curvature="0"
           d="m 392.271,834.122 h -18.174 c 2.644,-12.411 3.965,-23.646 3.965,-33.705 V 680.468 c 0,-12.484 1.101,-21.771 3.304,-27.868 2.276,-6.093 6.645,-11.454 13.107,-16.08 6.535,-4.7 14.686,-7.05 24.453,-7.05 11.602,0 21.332,3.083 29.188,9.252 7.93,6.095 11.896,14.798 11.896,26.104 0,13.218 -6.278,24.05 -18.834,32.494 18.725,8.812 28.087,22.652 28.087,41.525 0,10.28 -2.497,19.495 -7.49,27.646 -4.92,8.076 -10.647,13.842 -17.183,17.293 -6.462,3.45 -14.209,5.176 -23.241,5.176 -10.28,0 -18.651,-3.854 -25.113,-11.565 v 20.487 c 0,14.101 -1.322,26.18 -3.965,36.24 m 3.965,-66.639 c 5.728,9.473 13.732,14.21 24.012,14.21 9.913,0 17.183,-3.598 21.809,-10.795 4.626,-7.269 6.939,-16.08 6.939,-26.435 0,-7.931 -1.542,-16.009 -4.626,-24.232 -3.01,-8.299 -6.902,-14.612 -11.676,-18.945 -4.406,1.102 -8.371,1.652 -11.895,1.652 -7.417,0 -11.125,-1.946 -11.125,-5.838 0,-3.524 3.121,-5.288 9.362,-5.288 3.892,0 8.738,0.883 14.54,2.645 5.213,-8.812 7.82,-18.395 7.82,-28.749 0,-9.252 -2.056,-16.338 -6.168,-21.257 -4.039,-4.92 -9.326,-7.38 -15.861,-7.38 -5.213,0 -9.693,1.469 -13.438,4.405 -3.671,2.938 -6.205,6.463 -7.6,10.575 -1.395,4.038 -2.093,10.684 -2.093,19.936 v 95.496"
           stroke-miterlimit="10"
           id="text5540_2_" /></g><g
         transform="translate(-256.6798,-531.7963)"
         id="layer1_3_"><path
           style="fill:#d381b2;stroke:#d381b2;stroke-width:5;stroke-miterlimit:10"
           inkscape:connector-curvature="0"
           d="m 409.988,834.122 h -18.174 c 2.644,-12.411 3.965,-23.646 3.965,-33.705 V 680.468 c 0,-12.484 1.101,-21.771 3.304,-27.868 2.276,-6.093 6.646,-11.454 13.107,-16.08 6.535,-4.7 14.686,-7.05 24.453,-7.05 11.602,0 21.332,3.083 29.188,9.252 7.93,6.095 11.896,14.798 11.896,26.104 0,13.218 -6.278,24.05 -18.834,32.494 18.725,8.812 28.087,22.652 28.087,41.525 0,10.28 -2.496,19.495 -7.49,27.646 -4.92,8.076 -10.647,13.842 -17.183,17.293 -6.461,3.45 -14.209,5.176 -23.241,5.176 -10.28,0 -18.651,-3.854 -25.113,-11.565 v 20.487 c 0.001,14.101 -1.321,26.18 -3.965,36.24 m 3.966,-66.639 c 5.728,9.473 13.732,14.21 24.012,14.21 9.913,0 17.183,-3.598 21.809,-10.795 4.626,-7.269 6.939,-16.08 6.939,-26.435 0,-7.931 -1.542,-16.009 -4.626,-24.232 -3.01,-8.299 -6.902,-14.612 -11.676,-18.945 -4.405,1.102 -8.371,1.652 -11.895,1.652 -7.417,0 -11.125,-1.946 -11.125,-5.838 0,-3.524 3.121,-5.288 9.362,-5.288 3.892,0 8.738,0.883 14.54,2.645 5.213,-8.812 7.82,-18.395 7.82,-28.749 0,-9.252 -2.056,-16.338 -6.168,-21.257 -4.039,-4.92 -9.326,-7.38 -15.861,-7.38 -5.213,0 -9.693,1.469 -13.438,4.405 -3.671,2.938 -6.205,6.463 -7.6,10.575 -1.395,4.038 -2.093,10.684 -2.093,19.936 v 95.496"
           stroke-miterlimit="10"
           id="text5540_3_" /></g><g
         transform="translate(-256.6798,-531.7963)"
         id="layer1"><path
           style="fill:#ffffff;stroke:#ffffff;stroke-width:5;stroke-miterlimit:10"
           inkscape:connector-curvature="0"
           d="m 429.422,834.122 h -18.174 c 2.644,-12.411 3.965,-23.646 3.965,-33.705 V 680.468 c 0,-12.484 1.102,-21.771 3.305,-27.868 2.276,-6.093 6.645,-11.454 13.107,-16.08 6.536,-4.7 14.686,-7.05 24.453,-7.05 11.602,0 21.332,3.083 29.188,9.252 7.931,6.095 11.896,14.798 11.896,26.104 0,13.218 -6.278,24.05 -18.835,32.494 18.725,8.812 28.087,22.652 28.087,41.525 0,10.28 -2.497,19.495 -7.49,27.646 -4.919,8.076 -10.647,13.842 -17.183,17.293 -6.461,3.45 -14.208,5.176 -23.24,5.176 -10.28,0 -18.651,-3.854 -25.113,-11.565 v 20.487 c -10e-4,14.101 -1.323,26.18 -3.966,36.24 m 3.965,-66.639 c 5.728,9.473 13.732,14.21 24.012,14.21 9.913,0 17.183,-3.598 21.809,-10.795 4.626,-7.269 6.939,-16.08 6.939,-26.435 0,-7.931 -1.542,-16.009 -4.626,-24.232 -3.01,-8.299 -6.902,-14.612 -11.675,-18.945 -4.406,1.102 -8.371,1.652 -11.896,1.652 -7.416,0 -11.125,-1.946 -11.125,-5.838 0,-3.524 3.121,-5.288 9.362,-5.288 3.892,0 8.738,0.883 14.539,2.645 5.213,-8.812 7.82,-18.395 7.82,-28.749 0,-9.252 -2.056,-16.338 -6.168,-21.257 -4.039,-4.92 -9.326,-7.38 -15.861,-7.38 -5.214,0 -9.693,1.469 -13.438,4.405 -3.671,2.938 -6.205,6.463 -7.6,10.575 -1.396,4.038 -2.093,10.684 -2.093,19.936 v 95.496"
           stroke-miterlimit="10"
           id="text5540" /></g></g></g></svg>