<?xml version="1.0" encoding="utf-8"?>
<!-- Generator: Adobe Illustrator 16.0.0, SVG Export Plug-In . SVG Version: 6.00 Build 0)  -->
<!DOCTYPE svg PUBLIC "-//W3C//DTD SVG 1.1//EN" "http://www.w3.org/Graphics/SVG/1.1/DTD/svg11.dtd">
<svg version="1.1" id="Layer_1" xmlns="http://www.w3.org/2000/svg" xmlns:xlink="http://www.w3.org/1999/xlink" x="0px" y="0px"
	 width="600px" height="237px" viewBox="0 78.5 600 237" enable-background="new 0 78.5 600 237" xml:space="preserve">
<g>
	<g>
		<rect x="238.288" y="132.5" fill="none" width="319" height="129"/>
		<path d="M256.72,137.299c6.613,0,11.69,1.163,15.232,3.488c3.541,2.326,5.312,6.134,5.312,11.424
			c0,5.334-1.792,9.184-5.376,11.552c-3.584,2.368-8.704,3.552-15.36,3.552h-3.136v14.848h-9.984v-43.712
			c2.176-0.426,4.48-0.725,6.912-0.896C252.752,137.385,254.885,137.299,256.72,137.299z M257.36,145.811
			c-0.726,0-1.44,0.022-2.144,0.064c-0.704,0.043-1.312,0.086-1.824,0.128v12.8h3.136c3.456,0,6.058-0.469,7.808-1.408
			c1.749-0.938,2.624-2.688,2.624-5.248c0-1.237-0.224-2.261-0.672-3.072c-0.448-0.81-1.088-1.461-1.92-1.952
			c-0.832-0.49-1.846-0.832-3.04-1.024C260.133,145.907,258.81,145.811,257.36,145.811z"/>
		<path d="M304.271,156.948c-0.854-0.213-1.855-0.438-3.008-0.672c-1.153-0.234-2.391-0.352-3.713-0.352
			c-0.598,0-1.312,0.054-2.144,0.16c-0.832,0.107-1.462,0.224-1.888,0.352v25.728h-9.536v-31.872
			c1.706-0.597,3.722-1.162,6.048-1.696c2.325-0.533,4.917-0.8,7.776-0.8c0.512,0,1.13,0.032,1.856,0.096
			c0.725,0.064,1.448,0.15,2.176,0.256c0.726,0.107,1.45,0.235,2.177,0.384c0.725,0.15,1.344,0.331,1.855,0.544L304.271,156.948z"/>
		<path d="M341.84,165.267c0,2.646-0.384,5.067-1.15,7.264c-0.77,2.198-1.879,4.075-3.328,5.632
			c-1.451,1.558-3.19,2.763-5.217,3.616s-4.299,1.28-6.815,1.28c-2.476,0-4.726-0.427-6.752-1.28
			c-2.027-0.853-3.767-2.058-5.218-3.616c-1.449-1.557-2.582-3.434-3.391-5.632c-0.813-2.197-1.217-4.618-1.217-7.264
			c0-2.645,0.416-5.056,1.248-7.232c0.832-2.176,1.984-4.032,3.456-5.568c1.472-1.536,3.221-2.73,5.248-3.584
			c2.026-0.853,4.233-1.28,6.624-1.28c2.432,0,4.66,0.427,6.688,1.28c2.026,0.854,3.766,2.048,5.217,3.584
			c1.449,1.536,2.582,3.392,3.393,5.568C341.434,160.21,341.84,162.622,341.84,165.267z M332.111,165.267
			c0-2.944-0.586-5.258-1.76-6.944c-1.175-1.685-2.849-2.528-5.023-2.528c-2.176,0-3.862,0.843-5.057,2.528
			c-1.194,1.686-1.791,4-1.791,6.944s0.597,5.28,1.791,7.008c1.193,1.728,2.881,2.592,5.057,2.592s3.85-0.864,5.023-2.592
			S332.111,168.21,332.111,165.267z"/>
		<path d="M378.256,177.938c0,5.504-1.398,9.589-4.191,12.256c-2.795,2.666-7.115,4-12.961,4c-2.047,0-4.096-0.182-6.144-0.544
			c-2.048-0.363-3.946-0.843-5.696-1.44l1.664-8c1.493,0.597,3.062,1.066,4.704,1.408c1.642,0.341,3.509,0.512,5.601,0.512
			c2.729,0,4.66-0.598,5.791-1.792c1.131-1.195,1.697-2.73,1.697-4.608v-1.216c-1.024,0.47-2.08,0.822-3.168,1.056
			c-1.089,0.235-2.272,0.352-3.553,0.352c-4.65,0-8.214-1.376-10.688-4.128c-2.475-2.752-3.713-6.602-3.713-11.552
			c0-2.474,0.385-4.725,1.152-6.752c0.768-2.026,1.889-3.765,3.359-5.216c1.473-1.45,3.273-2.57,5.408-3.36
			c2.133-0.789,4.543-1.184,7.231-1.184c1.151,0,2.336,0.054,3.552,0.16c1.217,0.107,2.422,0.246,3.616,0.416
			c1.192,0.171,2.336,0.374,3.425,0.608c1.088,0.235,2.057,0.48,2.911,0.736L378.256,177.938L378.256,177.938z M357.328,164.243
			c0,5.334,2.152,8,6.464,8c0.979,0,1.897-0.128,2.752-0.384c0.853-0.256,1.578-0.554,2.177-0.896V155.73
			c-0.471-0.085-1.025-0.16-1.664-0.224c-0.641-0.064-1.388-0.096-2.24-0.096c-2.519,0-4.396,0.832-5.633,2.496
			C357.945,159.571,357.328,161.683,357.328,164.243z"/>
		<path d="M407.503,156.948c-0.854-0.213-1.854-0.438-3.008-0.672c-1.151-0.234-2.39-0.352-3.712-0.352
			c-0.598,0-1.313,0.054-2.145,0.16c-0.832,0.107-1.462,0.224-1.889,0.352v25.728h-9.535v-31.872
			c1.705-0.597,3.723-1.162,6.049-1.696c2.323-0.533,4.916-0.8,7.774-0.8c0.513,0,1.13,0.032,1.856,0.096
			c0.725,0.064,1.449,0.15,2.176,0.256c0.725,0.107,1.449,0.235,2.176,0.384c0.727,0.15,1.345,0.331,1.855,0.544L407.503,156.948z"
			/>
		<path d="M425.68,147.603c2.815,0,5.162,0.32,7.04,0.96c1.877,0.64,3.381,1.558,4.513,2.752c1.13,1.195,1.93,2.646,2.399,4.352
			c0.469,1.707,0.704,3.606,0.704,5.696v19.84c-1.366,0.299-3.265,0.651-5.696,1.056c-2.433,0.405-5.376,0.608-8.832,0.608
			c-2.176,0-4.149-0.192-5.919-0.576c-1.771-0.384-3.297-1.013-4.576-1.888c-1.28-0.874-2.263-2.016-2.944-3.424
			c-0.683-1.408-1.023-3.136-1.023-5.184c0-1.962,0.394-3.626,1.185-4.992c0.789-1.365,1.845-2.453,3.168-3.264
			c1.322-0.81,2.837-1.397,4.544-1.76c1.706-0.362,3.478-0.544,5.313-0.544c1.236,0,2.336,0.054,3.296,0.16
			c0.96,0.107,1.738,0.246,2.336,0.416v-0.896c0-1.621-0.49-2.922-1.472-3.904c-0.981-0.981-2.688-1.472-5.12-1.472
			c-1.622,0-3.223,0.118-4.8,0.352c-1.579,0.235-2.944,0.566-4.097,0.992l-1.217-7.68c0.555-0.17,1.248-0.352,2.08-0.544
			c0.832-0.192,1.738-0.362,2.721-0.512c0.98-0.149,2.017-0.277,3.104-0.384C423.472,147.657,424.569,147.603,425.68,147.603z
			 M426.447,175.507c0.938,0,1.834-0.021,2.688-0.064c0.854-0.042,1.536-0.106,2.048-0.192v-7.232
			c-0.384-0.085-0.96-0.17-1.729-0.256c-0.769-0.085-1.472-0.128-2.111-0.128c-0.896,0-1.739,0.054-2.527,0.16
			c-0.79,0.107-1.483,0.31-2.08,0.608c-0.599,0.299-1.066,0.704-1.408,1.216c-0.342,0.512-0.513,1.152-0.513,1.92
			c0,1.494,0.502,2.528,1.505,3.104C423.321,175.218,424.697,175.507,426.447,175.507z"/>
		<path d="M467.471,164.307c0-3.072-0.395-5.248-1.184-6.528c-0.79-1.28-2.145-1.92-4.064-1.92c-0.598,0-1.216,0.032-1.854,0.096
			s-1.259,0.139-1.856,0.224v25.984h-9.535V149.65c0.811-0.213,1.761-0.437,2.849-0.672c1.088-0.234,2.24-0.448,3.456-0.64
			s2.464-0.341,3.744-0.448c1.278-0.106,2.538-0.16,3.774-0.16c2.434,0,4.405,0.31,5.92,0.928c1.516,0.619,2.764,1.355,3.744,2.208
			c1.365-0.981,2.935-1.749,4.704-2.304c1.771-0.554,3.402-0.832,4.896-0.832c2.688,0,4.896,0.374,6.624,1.12
			c1.728,0.747,3.104,1.803,4.128,3.168c1.022,1.366,1.728,2.987,2.11,4.864c0.385,1.878,0.576,3.968,0.576,6.272v19.008h-9.536
			v-17.856c0-3.072-0.395-5.248-1.184-6.528c-0.79-1.28-2.146-1.92-4.064-1.92c-0.512,0-1.227,0.128-2.144,0.384
			c-0.918,0.256-1.675,0.576-2.272,0.96c0.299,0.982,0.49,2.016,0.576,3.104c0.085,1.088,0.128,2.251,0.128,3.488v18.368h-9.536
			V164.307L467.471,164.307z"/>
		<path d="M516.239,147.603c2.814,0,5.162,0.32,7.04,0.96c1.877,0.64,3.381,1.558,4.512,2.752c1.13,1.195,1.93,2.646,2.4,4.352
			c0.469,1.707,0.704,3.606,0.704,5.696v19.84c-1.366,0.299-3.266,0.651-5.696,1.056c-2.434,0.405-5.376,0.608-8.832,0.608
			c-2.176,0-4.15-0.192-5.92-0.576c-1.771-0.384-3.296-1.013-4.576-1.888c-1.28-0.874-2.262-2.016-2.944-3.424
			s-1.022-3.136-1.022-5.184c0-1.962,0.394-3.626,1.184-4.992c0.789-1.365,1.845-2.453,3.168-3.264
			c1.322-0.81,2.837-1.397,4.544-1.76c1.706-0.362,3.479-0.544,5.313-0.544c1.235,0,2.336,0.054,3.296,0.16
			c0.96,0.107,1.738,0.246,2.336,0.416v-0.896c0-1.621-0.491-2.922-1.472-3.904c-0.982-0.981-2.688-1.472-5.12-1.472
			c-1.622,0-3.224,0.118-4.8,0.352c-1.579,0.235-2.944,0.566-4.098,0.992l-1.216-7.68c0.554-0.17,1.248-0.352,2.08-0.544
			c0.832-0.192,1.738-0.362,2.72-0.512c0.981-0.149,2.018-0.277,3.104-0.384C514.031,147.657,515.129,147.603,516.239,147.603z
			 M517.007,175.507c0.938,0,1.834-0.021,2.688-0.064c0.853-0.042,1.536-0.106,2.048-0.192v-7.232
			c-0.384-0.085-0.96-0.17-1.729-0.256c-0.768-0.085-1.472-0.128-2.11-0.128c-0.896,0-1.739,0.054-2.528,0.16
			c-0.79,0.107-1.483,0.31-2.08,0.608c-0.598,0.299-1.066,0.704-1.408,1.216c-0.342,0.512-0.512,1.152-0.512,1.92
			c0,1.494,0.501,2.528,1.504,3.104C513.881,175.218,515.257,175.507,517.007,175.507z"/>
		<path d="M270.16,214.609h9.984v44.354h-9.984v-18.814h-16.768v18.814h-9.984v-44.354h9.984v16.961h16.768V214.609z"/>
		<path d="M307.729,259.857c-3.115,0-5.804-0.438-8.064-1.311c-2.262-0.875-4.128-2.09-5.6-3.648
			c-1.472-1.557-2.56-3.414-3.264-5.566c-0.704-2.154-1.056-4.533-1.056-7.139v-27.584h9.984v26.752
			c0,1.793,0.202,3.318,0.608,4.576c0.405,1.262,0.96,2.283,1.665,3.072c0.703,0.791,1.558,1.355,2.56,1.697
			s2.102,0.512,3.297,0.512c2.432,0,4.404-0.746,5.92-2.24c1.515-1.494,2.271-4.033,2.271-7.617v-26.752h9.983v27.584
			c0,2.605-0.362,4.992-1.089,7.168c-0.726,2.178-1.834,4.043-3.327,5.602s-3.392,2.764-5.696,3.617
			C313.615,259.432,310.885,259.857,307.729,259.857z"/>
		<path d="M350.415,259.539c-2.433,0-4.854-0.076-7.265-0.225c-2.412-0.15-4.918-0.502-7.521-1.057V215.25
			c2.048-0.385,4.288-0.672,6.72-0.865c2.434-0.191,4.693-0.287,6.784-0.287c2.816,0,5.408,0.203,7.776,0.607
			c2.367,0.404,4.404,1.1,6.111,2.08c1.705,0.98,3.039,2.271,4,3.873c0.959,1.6,1.439,3.572,1.439,5.92
			c0,3.541-1.707,6.336-5.12,8.383c2.816,1.066,4.736,2.52,5.761,4.354c1.023,1.834,1.535,3.902,1.535,6.207
			c0,4.65-1.695,8.15-5.088,10.496C362.159,258.365,357.111,259.539,350.415,259.539z M345.357,232.018h4.865
			c3.071,0,5.27-0.393,6.592-1.184c1.322-0.789,1.983-2.059,1.983-3.809c0-1.791-0.683-3.049-2.048-3.775
			c-1.366-0.725-3.371-1.088-6.018-1.088c-0.854,0-1.771,0.012-2.752,0.031c-0.98,0.021-1.854,0.076-2.623,0.16V232.018
			L345.357,232.018z M345.357,239.635v11.455c0.727,0.086,1.516,0.15,2.369,0.191c0.854,0.043,1.791,0.064,2.815,0.064
			c2.985,0,5.396-0.426,7.231-1.279c1.834-0.854,2.752-2.434,2.752-4.736c0-2.049-0.769-3.51-2.305-4.385
			c-1.535-0.873-3.734-1.313-6.592-1.313h-6.271V239.635z"/>
		<path d="M408.782,259.539c-2.433,0-4.854-0.076-7.265-0.225c-2.412-0.15-4.918-0.502-7.521-1.057V215.25
			c2.048-0.385,4.288-0.672,6.72-0.865c2.434-0.191,4.693-0.287,6.784-0.287c2.815,0,5.408,0.203,7.776,0.607
			c2.367,0.404,4.404,1.1,6.11,2.08s3.04,2.271,4,3.873c0.96,1.6,1.44,3.572,1.44,5.92c0,3.541-1.707,6.336-5.12,8.383
			c2.816,1.066,4.736,2.52,5.76,4.354c1.024,1.834,1.536,3.902,1.536,6.207c0,4.65-1.696,8.15-5.088,10.496
			C420.525,258.365,415.479,259.539,408.782,259.539z M403.727,232.018h4.863c3.072,0,5.27-0.393,6.592-1.184
			c1.322-0.789,1.984-2.059,1.984-3.809c0-1.791-0.684-3.049-2.048-3.775c-1.366-0.725-3.371-1.088-6.017-1.088
			c-0.854,0-1.771,0.012-2.752,0.031c-0.981,0.021-1.855,0.076-2.625,0.16v9.664H403.727z M403.727,239.635v11.455
			c0.726,0.086,1.515,0.15,2.367,0.191c0.854,0.043,1.793,0.064,2.816,0.064c2.984,0,5.396-0.426,7.23-1.279
			s2.752-2.434,2.752-4.736c0-2.049-0.768-3.51-2.304-4.385c-1.536-0.873-3.733-1.313-6.592-1.313h-6.271V239.635z"/>
		<path d="M437.006,258.963v-44.354h29.952v8.385h-19.969v8.703h17.729v8.193h-17.729v10.688h21.439v8.385H437.006z"/>
		<path d="M508.685,214.609v8.514h-13.376v35.84h-9.982v-35.84H471.95v-8.514H508.685z"/>
		<path d="M539.593,258.963c-0.494-1.541-1.023-3.125-1.592-4.748c-0.568-1.625-1.134-3.242-1.697-4.854h-17.321
			c-0.561,1.619-1.122,3.24-1.685,4.865c-0.563,1.627-1.087,3.205-1.572,4.734h-10.367c1.669-4.777,3.252-9.193,4.75-13.248
			c1.497-4.053,2.963-7.871,4.396-11.455s2.846-6.986,4.237-10.209c1.391-3.221,2.836-6.367,4.334-9.439h9.464
			c1.457,3.072,2.893,6.221,4.308,9.439c1.414,3.223,2.84,6.625,4.276,10.209c1.436,3.584,2.903,7.402,4.403,11.455
			c1.5,4.055,3.087,8.471,4.759,13.248h-10.693V258.963z M527.598,224.658c-0.223,0.645-0.549,1.521-0.978,2.629
			c-0.43,1.109-0.917,2.391-1.466,3.844c-0.548,1.453-1.16,3.053-1.838,4.799c-0.678,1.748-1.364,3.58-2.063,5.496h12.683
			c-0.679-1.922-1.336-3.76-1.972-5.512s-1.241-3.355-1.813-4.811c-0.572-1.453-1.074-2.732-1.508-3.842
			C528.212,226.156,527.862,225.289,527.598,224.658z"/>
	</g>
	<polygon points="208.865,247 125.788,297 42.712,247 42.712,147 125.788,97 208.865,147 	"/>
	<g>
		<g id="layer1_9_" transform="translate(-256.6798,-531.7963)">
			<path id="text5540_9_" fill="#6D1943" stroke="#6D1943" stroke-width="2.5" stroke-miterlimit="10" d="M349.189,779.958h-9.087
				c1.321-6.205,1.982-11.822,1.982-16.852v-59.975c0-6.242,0.551-10.886,1.652-13.934c1.138-3.046,3.322-5.727,6.554-8.04
				c3.268-2.35,7.343-3.525,12.226-3.525c5.802,0,10.666,1.542,14.595,4.626c3.965,3.047,5.947,7.399,5.947,13.052
				c0,6.609-3.139,12.025-9.417,16.247c9.362,4.406,14.044,11.326,14.044,20.763c0,5.139-1.249,9.746-3.745,13.822
				c-2.46,4.039-5.323,6.922-8.592,8.645c-3.23,1.727-7.104,2.588-11.62,2.588c-5.14,0-9.325-1.926-12.557-5.781v10.242
				C351.171,768.89,350.51,774.929,349.189,779.958 M351.171,746.64c2.864,4.734,6.866,7.104,12.006,7.104
				c4.957,0,8.592-1.799,10.904-5.396c2.313-3.637,3.47-8.041,3.47-13.219c0-3.964-0.771-8.003-2.313-12.115
				c-1.505-4.149-3.45-7.306-5.837-9.473c-2.203,0.551-4.186,0.826-5.948,0.826c-3.708,0-5.563-0.973-5.563-2.919
				c0-1.762,1.561-2.644,4.682-2.644c1.945,0,4.369,0.441,7.27,1.322c2.606-4.406,3.91-9.197,3.91-14.375
				c0-4.626-1.028-8.169-3.084-10.628c-2.02-2.46-4.663-3.69-7.931-3.69c-2.606,0-4.847,0.734-6.719,2.203
				c-1.836,1.469-3.103,3.231-3.8,5.288c-0.698,2.019-1.047,5.342-1.047,9.968V746.64"/>
		</g>
		<g id="layer1_8_" transform="translate(-256.6798,-531.7963)">
			<path id="text5540_8_" fill="#8C2863" stroke="#8C2863" stroke-width="2.5" stroke-miterlimit="10" d="M358.476,779.958h-9.087
				c1.322-6.205,1.982-11.822,1.982-16.852v-59.975c0-6.242,0.551-10.886,1.652-13.934c1.139-3.046,3.323-5.727,6.554-8.04
				c3.268-2.35,7.344-3.525,12.227-3.525c5.801,0,10.666,1.542,14.594,4.626c3.966,3.047,5.948,7.399,5.948,13.052
				c0,6.609-3.14,12.025-9.418,16.247c9.362,4.406,14.044,11.326,14.044,20.763c0,5.139-1.248,9.746-3.745,13.822
				c-2.46,4.039-5.323,6.922-8.591,8.645c-3.231,1.727-7.104,2.588-11.62,2.588c-5.141,0-9.326-1.926-12.557-5.781v10.242
				C360.459,768.89,359.798,774.929,358.476,779.958 M360.459,746.64c2.863,4.734,6.865,7.104,12.006,7.104
				c4.956,0,8.591-1.799,10.904-5.396c2.313-3.637,3.469-8.041,3.469-13.219c0-3.964-0.771-8.003-2.313-12.115
				c-1.505-4.149-3.451-7.306-5.838-9.473c-2.203,0.551-4.186,0.826-5.947,0.826c-3.708,0-5.563-0.973-5.563-2.919
				c0-1.762,1.561-2.644,4.681-2.644c1.946,0,4.369,0.441,7.27,1.322c2.607-4.406,3.91-9.197,3.91-14.375
				c0-4.626-1.027-8.169-3.084-10.628c-2.019-2.46-4.662-3.69-7.93-3.69c-2.607,0-4.847,0.734-6.72,2.203
				c-1.835,1.469-3.102,3.231-3.8,5.288c-0.697,2.019-1.046,5.342-1.046,9.968L360.459,746.64"/>
		</g>
		<g id="layer1_7_" transform="translate(-256.6798,-531.7963)">
			<path id="text5540_7_" fill="#BF5E93" stroke="#BF5E93" stroke-width="2.5" stroke-miterlimit="10" d="M367.764,779.958h-9.087
				c1.321-6.205,1.982-11.822,1.982-16.852v-59.975c0-6.242,0.551-10.886,1.652-13.934c1.138-3.046,3.322-5.727,6.554-8.04
				c3.268-2.35,7.343-3.525,12.227-3.525c5.8,0,10.665,1.542,14.594,4.626c3.965,3.047,5.947,7.399,5.947,13.052
				c0,6.609-3.139,12.025-9.417,16.247c9.362,4.406,14.044,11.326,14.044,20.763c0,5.139-1.249,9.746-3.745,13.822
				c-2.46,4.039-5.324,6.922-8.592,8.645c-3.23,1.727-7.104,2.588-11.62,2.588c-5.14,0-9.325-1.926-12.557-5.781v10.242
				C369.746,768.89,369.085,774.929,367.764,779.958 M369.746,746.64c2.864,4.734,6.866,7.104,12.006,7.104
				c4.956,0,8.592-1.799,10.904-5.396c2.313-3.637,3.47-8.041,3.47-13.219c0-3.964-0.771-8.003-2.313-12.115
				c-1.505-4.149-3.451-7.306-5.838-9.473c-2.202,0.551-4.185,0.826-5.947,0.826c-3.708,0-5.563-0.973-5.563-2.919
				c0-1.762,1.561-2.644,4.682-2.644c1.945,0,4.369,0.441,7.27,1.322c2.606-4.406,3.91-9.197,3.91-14.375
				c0-4.626-1.028-8.169-3.084-10.628c-2.02-2.46-4.663-3.69-7.931-3.69c-2.606,0-4.847,0.734-6.719,2.203
				c-1.836,1.469-3.103,3.231-3.8,5.288c-0.698,2.019-1.047,5.342-1.047,9.968V746.64"/>
		</g>
		<g id="layer1_6_" transform="translate(-256.6798,-531.7963)">
			<path id="text5540_6_" fill="#D381B2" stroke="#D381B2" stroke-width="2.5" stroke-miterlimit="10" d="M376.622,779.958h-9.087
				c1.322-6.205,1.983-11.822,1.983-16.852v-59.975c0-6.242,0.55-10.886,1.651-13.934c1.139-3.046,3.323-5.727,6.554-8.04
				c3.268-2.35,7.343-3.525,12.227-3.525c5.801,0,10.666,1.542,14.594,4.626c3.966,3.047,5.948,7.399,5.948,13.052
				c0,6.609-3.14,12.025-9.417,16.247c9.362,4.406,14.043,11.326,14.043,20.763c0,5.139-1.248,9.746-3.745,13.822
				c-2.46,4.039-5.323,6.922-8.591,8.645c-3.231,1.727-7.104,2.588-11.621,2.588c-5.14,0-9.325-1.926-12.556-5.781v10.242
				C378.606,768.89,377.944,774.929,376.622,779.958 M378.606,746.64c2.863,4.734,6.865,7.104,12.005,7.104
				c4.957,0,8.592-1.799,10.905-5.396c2.313-3.637,3.47-8.041,3.47-13.219c0-3.964-0.771-8.003-2.313-12.115
				c-1.505-4.149-3.451-7.306-5.838-9.473c-2.203,0.551-4.186,0.826-5.947,0.826c-3.709,0-5.563-0.973-5.563-2.919
				c0-1.762,1.56-2.644,4.681-2.644c1.946,0,4.369,0.441,7.27,1.322c2.607-4.406,3.91-9.197,3.91-14.375
				c0-4.626-1.027-8.169-3.084-10.628c-2.02-2.46-4.663-3.69-7.931-3.69c-2.606,0-4.846,0.734-6.719,2.203
				c-1.835,1.469-3.102,3.231-3.8,5.288c-0.697,2.019-1.046,5.342-1.046,9.968V746.64"/>
		</g>
		<g id="layer1_5_" transform="translate(-256.6798,-531.7963)">
			<path id="text5540_5_" fill="#FFFFFF" stroke="#FFFFFF" stroke-width="2.5" stroke-miterlimit="10" d="M386.339,779.958h-9.087
				c1.321-6.205,1.982-11.822,1.982-16.852v-59.975c0-6.242,0.551-10.886,1.652-13.934c1.138-3.046,3.322-5.727,6.554-8.04
				c3.268-2.35,7.343-3.525,12.226-3.525c5.802,0,10.666,1.542,14.595,4.626c3.965,3.047,5.948,7.399,5.948,13.052
				c0,6.609-3.14,12.025-9.418,16.247c9.362,4.406,14.044,11.326,14.044,20.763c0,5.139-1.248,9.746-3.745,13.822
				c-2.46,4.039-5.323,6.922-8.592,8.645c-3.23,1.727-7.104,2.588-11.62,2.588c-5.14,0-9.325-1.926-12.557-5.781v10.242
				C388.321,768.89,387.66,774.929,386.339,779.958 M388.321,746.64c2.864,4.734,6.866,7.104,12.006,7.104
				c4.957,0,8.592-1.799,10.904-5.396c2.313-3.637,3.47-8.041,3.47-13.219c0-3.964-0.771-8.003-2.313-12.115
				c-1.505-4.149-3.45-7.306-5.837-9.473c-2.203,0.551-4.186,0.826-5.948,0.826c-3.708,0-5.563-0.973-5.563-2.919
				c0-1.762,1.561-2.644,4.682-2.644c1.945,0,4.369,0.441,7.27,1.322c2.606-4.406,3.91-9.197,3.91-14.375
				c0-4.626-1.028-8.169-3.084-10.628c-2.02-2.46-4.663-3.69-7.931-3.69c-2.606,0-4.847,0.734-6.719,2.203
				c-1.836,1.469-3.103,3.231-3.8,5.288c-0.698,2.019-1.047,5.342-1.047,9.968V746.64"/>
		</g>
	</g>
</g>
</svg>
