<?xml version="1.0" encoding="utf-8"?>
<!-- Generator: Adobe Illustrator 16.0.0, SVG Export Plug-In . SVG Version: 6.00 Build 0)  -->
<!DOCTYPE svg PUBLIC "-//W3C//DTD SVG 1.1//EN" "http://www.w3.org/Graphics/SVG/1.1/DTD/svg11.dtd">
<svg version="1.1" id="Layer_1" xmlns="http://www.w3.org/2000/svg" xmlns:xlink="http://www.w3.org/1999/xlink" x="0px" y="0px"
	 width="600px" height="400px" viewBox="0 0 600 400" enable-background="new 0 0 600 400" xml:space="preserve">
<line fill="none" stroke="#6E1B45" stroke-width="5" stroke-dasharray="4" x1="128.366" y1="199.147" x2="191.637" y2="199.147"/>
<line fill="none" stroke="#6E1B45" stroke-width="5" stroke-dasharray="4" x1="268.366" y1="199.147" x2="331.637" y2="199.147"/>
<line fill="none" stroke="#6E1B45" stroke-width="5" stroke-dasharray="4" x1="408.366" y1="199.147" x2="471.637" y2="199.147"/>
<g>
	
		<line fill="none" stroke="#DFDB25" stroke-width="5" stroke-miterlimit="10" x1="229.912" y1="399.999" x2="229.912" y2="274.814"/>
	
		<rect x="223.196" y="254.859" fill="#DFDB25" stroke="#7E7C31" stroke-width="3" stroke-miterlimit="10" width="13.431" height="19.182"/>
</g>
<g>
	
		<line fill="none" stroke="#DFDB25" stroke-width="5" stroke-miterlimit="10" x1="369.912" y1="399.999" x2="369.912" y2="274.814"/>
	
		<rect x="363.196" y="254.859" fill="#DFDB25" stroke="#7E7C31" stroke-width="3" stroke-miterlimit="10" width="13.431" height="19.182"/>
</g>
<g>
	
		<line fill="none" stroke="#DFDB25" stroke-width="5" stroke-miterlimit="10" x1="509.912" y1="399.999" x2="509.912" y2="274.814"/>
	
		<rect x="503.196" y="254.859" fill="#DFDB25" stroke="#7E7C31" stroke-width="3" stroke-miterlimit="10" width="13.431" height="19.182"/>
</g>
<g>
	<line fill="none" stroke="#DFDB25" stroke-width="5" stroke-miterlimit="10" x1="88.82" y1="399.999" x2="88.82" y2="274.814"/>
	
		<rect x="82.104" y="254.859" fill="#DFDB25" stroke="#7E7C31" stroke-width="3" stroke-miterlimit="10" width="13.431" height="19.182"/>
</g>
<g>
	
		<rect x="149.924" y="163.826" fill="none" stroke="#6E1B45" stroke-width="3.3591" stroke-linecap="square" width="19.82" height="25.001"/>
</g>
<g>
	<g>
		<g>
			
				<rect x="51.637" y="147.825" fill="none" stroke="#31507E" stroke-width="5" stroke-miterlimit="10" width="76.729" height="104.349"/>
			
				<line fill="none" stroke="#466AB3" stroke-width="5" stroke-miterlimit="10" x1="47.801" y1="145.141" x2="132.199" y2="145.141"/>
			
				<line fill="none" stroke="#466AB3" stroke-width="5" stroke-miterlimit="10" x1="47.801" y1="254.859" x2="132.199" y2="254.859"/>
		</g>
		<g>
			<path fill="none" d="M115.572,207.096"/>
		</g>
		<g>
			<path fill="none" d="M67.625,178.326"/>
		</g>
		<g>
			<path fill="none" d="M67.625,207.096"/>
		</g>
		<g>
			<path fill="none" d="M115.572,178.326"/>
		</g>
		<g>
			<polygon fill="#010101" points="113.903,214.386 90,228.772 66.097,214.386 66.098,185.614 90,171.228 113.903,185.614 			"/>
			<g>
				<g>
					<rect x="80.452" y="193.153" fill="#498ECC" width="18.919" height="6.821"/>
					<circle fill="#498ECC" cx="80.453" cy="195.311" r="4.663"/>
					<circle fill="#498ECC" cx="99.37" cy="195.311" r="4.663"/>
					<circle fill="#498ECC" cx="84.156" cy="189.556" r="4.663"/>
					<circle fill="#498ECC" cx="95.56" cy="189.556" r="4.663"/>
					<circle fill="#498ECC" cx="89.912" cy="186.758" r="4.663"/>
					<rect x="80.452" y="191.021" fill="#498ECC" width="18.919" height="4.689"/>
				</g>
				<g>
					<rect x="80.452" y="197.416" fill="#50AEE2" width="18.919" height="6.821"/>
					<circle fill="#50AEE2" cx="80.453" cy="199.574" r="4.663"/>
					<circle fill="#50AEE2" cx="99.37" cy="199.574" r="4.663"/>
					<circle fill="#50AEE2" cx="84.156" cy="193.819" r="4.663"/>
					<circle fill="#50AEE2" cx="95.56" cy="193.819" r="4.663"/>
					<circle fill="#50AEE2" cx="89.912" cy="191.021" r="4.663"/>
					<rect x="80.452" y="195.284" fill="#50AEE2" width="18.919" height="4.689"/>
				</g>
				<g>
					<rect x="80.452" y="202.745" fill="#6BCAF3" width="18.919" height="6.821"/>
					<circle fill="#6BCAF3" cx="80.453" cy="204.903" r="4.663"/>
					<circle fill="#6BCAF3" cx="99.37" cy="204.903" r="4.663"/>
					<circle fill="#6BCAF3" cx="84.156" cy="199.148" r="4.663"/>
					<circle fill="#6BCAF3" cx="95.56" cy="199.148" r="4.663"/>
					<circle fill="#6BCAF3" cx="89.912" cy="196.35" r="4.663"/>
					<rect x="80.452" y="200.613" fill="#6BCAF3" width="18.919" height="4.689"/>
				</g>
				<g>
					<rect x="80.452" y="208.074" fill="#FFFFFF" width="18.919" height="6.82"/>
					<circle fill="#FFFFFF" cx="80.453" cy="210.232" r="4.663"/>
					<circle fill="#FFFFFF" cx="99.37" cy="210.232" r="4.663"/>
					<circle fill="#FFFFFF" cx="84.156" cy="204.477" r="4.663"/>
					<circle fill="#FFFFFF" cx="95.56" cy="204.477" r="4.663"/>
					<circle fill="#FFFFFF" cx="89.912" cy="201.679" r="4.663"/>
					<rect x="80.452" y="205.942" fill="#FFFFFF" width="18.919" height="4.689"/>
				</g>
			</g>
		</g>
	</g>
	<g>
		<g>
			
				<rect x="191.637" y="147.825" fill="none" stroke="#31507E" stroke-width="5" stroke-miterlimit="10" width="76.729" height="104.349"/>
			
				<line fill="none" stroke="#466AB3" stroke-width="5" stroke-miterlimit="10" x1="187.801" y1="145.141" x2="272.199" y2="145.141"/>
			
				<line fill="none" stroke="#466AB3" stroke-width="5" stroke-miterlimit="10" x1="187.801" y1="254.859" x2="272.199" y2="254.859"/>
		</g>
		<g>
			<path fill="none" d="M255.572,207.096"/>
		</g>
		<g>
			<path fill="none" d="M207.625,178.326"/>
		</g>
		<g>
			<path fill="none" d="M207.625,207.096"/>
		</g>
		<g>
			<path fill="none" d="M255.572,178.326"/>
		</g>
		<g>
			<polygon fill="#010101" points="253.903,214.386 230,228.772 206.097,214.386 206.098,185.614 230,171.228 253.903,185.614 			
				"/>
			<g>
				<g>
					<rect x="220.452" y="193.153" fill="#498ECC" width="18.919" height="6.821"/>
					<circle fill="#498ECC" cx="220.453" cy="195.311" r="4.663"/>
					<circle fill="#498ECC" cx="239.37" cy="195.311" r="4.663"/>
					<circle fill="#498ECC" cx="224.156" cy="189.556" r="4.663"/>
					<circle fill="#498ECC" cx="235.56" cy="189.556" r="4.663"/>
					<circle fill="#498ECC" cx="229.912" cy="186.758" r="4.663"/>
					<rect x="220.452" y="191.021" fill="#498ECC" width="18.919" height="4.689"/>
				</g>
				<g>
					<rect x="220.452" y="197.416" fill="#50AEE2" width="18.919" height="6.821"/>
					<circle fill="#50AEE2" cx="220.453" cy="199.574" r="4.663"/>
					<circle fill="#50AEE2" cx="239.37" cy="199.574" r="4.663"/>
					<circle fill="#50AEE2" cx="224.156" cy="193.819" r="4.663"/>
					<circle fill="#50AEE2" cx="235.56" cy="193.819" r="4.663"/>
					<circle fill="#50AEE2" cx="229.912" cy="191.021" r="4.663"/>
					<rect x="220.452" y="195.284" fill="#50AEE2" width="18.919" height="4.689"/>
				</g>
				<g>
					<rect x="220.452" y="202.745" fill="#6BCAF3" width="18.919" height="6.821"/>
					<circle fill="#6BCAF3" cx="220.453" cy="204.903" r="4.663"/>
					<circle fill="#6BCAF3" cx="239.37" cy="204.903" r="4.663"/>
					<circle fill="#6BCAF3" cx="224.156" cy="199.148" r="4.663"/>
					<circle fill="#6BCAF3" cx="235.56" cy="199.148" r="4.663"/>
					<circle fill="#6BCAF3" cx="229.912" cy="196.35" r="4.663"/>
					<rect x="220.452" y="200.613" fill="#6BCAF3" width="18.919" height="4.689"/>
				</g>
				<g>
					<rect x="220.452" y="208.074" fill="#FFFFFF" width="18.919" height="6.82"/>
					<circle fill="#FFFFFF" cx="220.453" cy="210.232" r="4.663"/>
					<circle fill="#FFFFFF" cx="239.37" cy="210.232" r="4.663"/>
					<circle fill="#FFFFFF" cx="224.156" cy="204.477" r="4.663"/>
					<circle fill="#FFFFFF" cx="235.56" cy="204.477" r="4.663"/>
					<circle fill="#FFFFFF" cx="229.912" cy="201.679" r="4.663"/>
					<rect x="220.452" y="205.942" fill="#FFFFFF" width="18.919" height="4.689"/>
				</g>
			</g>
		</g>
	</g>
	<g>
		<g>
			
				<rect x="331.637" y="147.825" fill="none" stroke="#31507E" stroke-width="5" stroke-miterlimit="10" width="76.729" height="104.349"/>
			
				<line fill="none" stroke="#466AB3" stroke-width="5" stroke-miterlimit="10" x1="327.801" y1="145.141" x2="412.199" y2="145.141"/>
			
				<line fill="none" stroke="#466AB3" stroke-width="5" stroke-miterlimit="10" x1="327.801" y1="254.859" x2="412.199" y2="254.859"/>
		</g>
		<g>
			<path fill="none" d="M395.572,207.096"/>
		</g>
		<g>
			<path fill="none" d="M347.625,178.326"/>
		</g>
		<g>
			<path fill="none" d="M347.625,207.096"/>
		</g>
		<g>
			<path fill="none" d="M395.572,178.326"/>
		</g>
		<g>
			<polygon fill="#010101" points="393.903,214.386 370,228.772 346.097,214.386 346.098,185.614 370,171.228 393.903,185.614 			
				"/>
			<g>
				<g>
					<rect x="360.452" y="193.153" fill="#498ECC" width="18.919" height="6.821"/>
					<circle fill="#498ECC" cx="360.453" cy="195.311" r="4.663"/>
					<circle fill="#498ECC" cx="379.37" cy="195.311" r="4.663"/>
					<circle fill="#498ECC" cx="364.156" cy="189.556" r="4.663"/>
					<circle fill="#498ECC" cx="375.56" cy="189.556" r="4.663"/>
					<circle fill="#498ECC" cx="369.912" cy="186.758" r="4.663"/>
					<rect x="360.452" y="191.021" fill="#498ECC" width="18.919" height="4.689"/>
				</g>
				<g>
					<rect x="360.452" y="197.416" fill="#50AEE2" width="18.919" height="6.821"/>
					<circle fill="#50AEE2" cx="360.453" cy="199.574" r="4.663"/>
					<circle fill="#50AEE2" cx="379.37" cy="199.574" r="4.663"/>
					<circle fill="#50AEE2" cx="364.156" cy="193.819" r="4.663"/>
					<circle fill="#50AEE2" cx="375.56" cy="193.819" r="4.663"/>
					<circle fill="#50AEE2" cx="369.912" cy="191.021" r="4.663"/>
					<rect x="360.452" y="195.284" fill="#50AEE2" width="18.919" height="4.689"/>
				</g>
				<g>
					<rect x="360.452" y="202.745" fill="#6BCAF3" width="18.919" height="6.821"/>
					<circle fill="#6BCAF3" cx="360.453" cy="204.903" r="4.663"/>
					<circle fill="#6BCAF3" cx="379.37" cy="204.903" r="4.663"/>
					<circle fill="#6BCAF3" cx="364.156" cy="199.148" r="4.663"/>
					<circle fill="#6BCAF3" cx="375.56" cy="199.148" r="4.663"/>
					<circle fill="#6BCAF3" cx="369.912" cy="196.35" r="4.663"/>
					<rect x="360.452" y="200.613" fill="#6BCAF3" width="18.919" height="4.689"/>
				</g>
				<g>
					<rect x="360.452" y="208.074" fill="#FFFFFF" width="18.919" height="6.82"/>
					<circle fill="#FFFFFF" cx="360.453" cy="210.232" r="4.663"/>
					<circle fill="#FFFFFF" cx="379.37" cy="210.232" r="4.663"/>
					<circle fill="#FFFFFF" cx="364.156" cy="204.477" r="4.663"/>
					<circle fill="#FFFFFF" cx="375.56" cy="204.477" r="4.663"/>
					<circle fill="#FFFFFF" cx="369.912" cy="201.679" r="4.663"/>
					<rect x="360.452" y="205.942" fill="#FFFFFF" width="18.919" height="4.689"/>
				</g>
			</g>
		</g>
	</g>
	<g>
		<g>
			
				<rect x="471.637" y="147.825" fill="none" stroke="#31507E" stroke-width="5" stroke-miterlimit="10" width="76.729" height="104.349"/>
			
				<line fill="none" stroke="#466AB3" stroke-width="5" stroke-miterlimit="10" x1="467.801" y1="145.141" x2="552.199" y2="145.141"/>
			
				<line fill="none" stroke="#466AB3" stroke-width="5" stroke-miterlimit="10" x1="467.801" y1="254.859" x2="552.199" y2="254.859"/>
		</g>
		<g>
			<path fill="none" d="M535.572,207.096"/>
		</g>
		<g>
			<path fill="none" d="M487.625,178.326"/>
		</g>
		<g>
			<path fill="none" d="M487.625,207.096"/>
		</g>
		<g>
			<path fill="none" d="M535.572,178.326"/>
		</g>
		<g>
			<polygon fill="#010101" points="533.903,214.386 510,228.772 486.097,214.386 486.098,185.614 510,171.228 533.903,185.614 			
				"/>
			<g>
				<g>
					<rect x="500.452" y="193.153" fill="#498ECC" width="18.919" height="6.821"/>
					<circle fill="#498ECC" cx="500.453" cy="195.311" r="4.663"/>
					<circle fill="#498ECC" cx="519.37" cy="195.311" r="4.663"/>
					<circle fill="#498ECC" cx="504.156" cy="189.556" r="4.663"/>
					<circle fill="#498ECC" cx="515.56" cy="189.556" r="4.663"/>
					<circle fill="#498ECC" cx="509.912" cy="186.758" r="4.663"/>
					<rect x="500.452" y="191.021" fill="#498ECC" width="18.919" height="4.689"/>
				</g>
				<g>
					<rect x="500.452" y="197.416" fill="#50AEE2" width="18.919" height="6.821"/>
					<circle fill="#50AEE2" cx="500.453" cy="199.574" r="4.663"/>
					<circle fill="#50AEE2" cx="519.37" cy="199.574" r="4.663"/>
					<circle fill="#50AEE2" cx="504.156" cy="193.819" r="4.663"/>
					<circle fill="#50AEE2" cx="515.56" cy="193.819" r="4.663"/>
					<circle fill="#50AEE2" cx="509.912" cy="191.021" r="4.663"/>
					<rect x="500.452" y="195.284" fill="#50AEE2" width="18.919" height="4.689"/>
				</g>
				<g>
					<rect x="500.452" y="202.745" fill="#6BCAF3" width="18.919" height="6.821"/>
					<circle fill="#6BCAF3" cx="500.453" cy="204.903" r="4.663"/>
					<circle fill="#6BCAF3" cx="519.37" cy="204.903" r="4.663"/>
					<circle fill="#6BCAF3" cx="504.156" cy="199.148" r="4.663"/>
					<circle fill="#6BCAF3" cx="515.56" cy="199.148" r="4.663"/>
					<circle fill="#6BCAF3" cx="509.912" cy="196.35" r="4.663"/>
					<rect x="500.452" y="200.613" fill="#6BCAF3" width="18.919" height="4.689"/>
				</g>
				<g>
					<rect x="500.452" y="208.074" fill="#FFFFFF" width="18.919" height="6.82"/>
					<circle fill="#FFFFFF" cx="500.453" cy="210.232" r="4.663"/>
					<circle fill="#FFFFFF" cx="519.37" cy="210.232" r="4.663"/>
					<circle fill="#FFFFFF" cx="504.156" cy="204.477" r="4.663"/>
					<circle fill="#FFFFFF" cx="515.56" cy="204.477" r="4.663"/>
					<circle fill="#FFFFFF" cx="509.912" cy="201.679" r="4.663"/>
					<rect x="500.452" y="205.942" fill="#FFFFFF" width="18.919" height="4.689"/>
				</g>
			</g>
		</g>
	</g>
</g>
<g>
	
		<rect x="289.092" y="163.826" fill="none" stroke="#6E1B45" stroke-width="3.3591" stroke-linecap="square" width="19.82" height="25.001"/>
</g>
<g>
	
		<rect x="429.092" y="163.826" fill="none" stroke="#6E1B45" stroke-width="3.3591" stroke-linecap="square" width="19.82" height="25.001"/>
</g>
<line fill="none" stroke="#6E1B45" stroke-width="3.3591" stroke-linecap="square" x1="155.168" y1="168.667" x2="164.501" y2="168.667"/>
<line fill="none" stroke="#6E1B45" stroke-width="3.3591" stroke-linecap="square" x1="155.168" y1="173.667" x2="164.501" y2="173.667"/>
<line fill="none" stroke="#6E1B45" stroke-width="3.3591" stroke-linecap="square" x1="155.168" y1="178.667" x2="164.501" y2="178.667"/>
<line fill="none" stroke="#6E1B45" stroke-width="3.3591" stroke-linecap="square" x1="294.168" y1="168.667" x2="303.501" y2="168.667"/>
<line fill="none" stroke="#6E1B45" stroke-width="3.3591" stroke-linecap="square" x1="294.168" y1="173.667" x2="303.501" y2="173.667"/>
<line fill="none" stroke="#6E1B45" stroke-width="3.3591" stroke-linecap="square" x1="294.168" y1="178.667" x2="303.501" y2="178.667"/>
<line fill="none" stroke="#6E1B45" stroke-width="3.3591" stroke-linecap="square" x1="434.168" y1="168.667" x2="443.501" y2="168.667"/>
<line fill="none" stroke="#6E1B45" stroke-width="3.3591" stroke-linecap="square" x1="434.168" y1="173.667" x2="443.501" y2="173.667"/>
<line fill="none" stroke="#6E1B45" stroke-width="3.3591" stroke-linecap="square" x1="434.168" y1="178.667" x2="443.501" y2="178.667"/>
</svg>
