<?xml version="1.0" encoding="UTF-8" standalone="no"?>
<!-- Generator: Adobe Illustrator 16.0.0, SVG Export Plug-In . SVG Version: 6.00 Build 0)  -->

<svg
   xmlns:dc="http://purl.org/dc/elements/1.1/"
   xmlns:cc="http://creativecommons.org/ns#"
   xmlns:rdf="http://www.w3.org/1999/02/22-rdf-syntax-ns#"
   xmlns:svg="http://www.w3.org/2000/svg"
   xmlns="http://www.w3.org/2000/svg"
   xmlns:sodipodi="http://sodipodi.sourceforge.net/DTD/sodipodi-0.dtd"
   xmlns:inkscape="http://www.inkscape.org/namespaces/inkscape"
   version="1.1"
   id="Layer_1"
   x="0px"
   y="0px"
   width="640"
   height="400"
   viewBox="0 0 640 400"
   enable-background="new 0 0 330 400"
   xml:space="preserve"
   inkscape:version="0.48.4 r9939"
   sodipodi:docname="cloud.svg"><metadata
     id="metadata77"><rdf:RDF><cc:Work
         rdf:about=""><dc:format>image/svg+xml</dc:format><dc:type
           rdf:resource="http://purl.org/dc/dcmitype/StillImage" /></cc:Work></rdf:RDF></metadata><defs
     id="defs75" /><sodipodi:namedview
     pagecolor="#ffffff"
     bordercolor="#666666"
     borderopacity="1"
     objecttolerance="10"
     gridtolerance="10"
     guidetolerance="10"
     inkscape:pageopacity="0"
     inkscape:pageshadow="2"
     inkscape:window-width="1680"
     inkscape:window-height="1026"
     id="namedview73"
     showgrid="false"
     inkscape:zoom="0.59"
     inkscape:cx="-70.59322"
     inkscape:cy="200"
     inkscape:window-x="0"
     inkscape:window-y="24"
     inkscape:window-maximized="1"
     inkscape:current-layer="Layer_1" /><title
     id="title5">Layer 1</title><g
     id="g6366"><polygon
       transform="translate(155,0)"
       id="polygon3"
       points="165,0 331.154,100 331.154,300 165,400 -1.154,300 -1.153,100 " /><g
       transform="translate(155,0)"
       id="g7"><g
         id="g9"><rect
           style="fill:#0098ff"
           id="rect11"
           height="47.416"
           width="131.50301"
           y="152.40199"
           x="98.633003" /><circle
           d="m 131.046,167.405 c 0,17.9012 -14.51179,32.413 -32.412997,32.413 -17.901204,0 -32.412998,-14.5118 -32.412998,-32.413 0,-17.90121 14.511794,-32.413 32.412998,-32.413 17.901207,0 32.412997,14.51179 32.412997,32.413 z"
           style="fill:#0098ff"
           sodipodi:ry="32.412998"
           sodipodi:rx="32.412998"
           sodipodi:cy="167.405"
           sodipodi:cx="98.633003"
           id="circle13"
           r="32.412998"
           cy="167.405"
           cx="98.633003" /><circle
           d="m 262.549,167.405 c 0,17.9012 -14.51179,32.413 -32.413,32.413 -17.9012,0 -32.413,-14.5118 -32.413,-32.413 0,-17.90121 14.5118,-32.413 32.413,-32.413 17.90121,0 32.413,14.51179 32.413,32.413 z"
           style="fill:#0098ff"
           sodipodi:ry="32.412998"
           sodipodi:rx="32.412998"
           sodipodi:cy="167.405"
           sodipodi:cx="230.136"
           id="circle15"
           r="32.412998"
           cy="167.405"
           cx="230.136" /><circle
           d="m 156.791,127.399 c 0,17.90121 -14.5118,32.413 -32.413,32.413 -17.90121,0 -32.413,-14.51179 -32.413,-32.413 0,-17.9012 14.51179,-32.412996 32.413,-32.412996 17.9012,0 32.413,14.511796 32.413,32.412996 z"
           style="fill:#0098ff"
           sodipodi:ry="32.412998"
           sodipodi:rx="32.412998"
           sodipodi:cy="127.399"
           sodipodi:cx="124.378"
           id="circle17"
           r="32.412998"
           cy="127.399"
           cx="124.378" /><circle
           d="m 236.06299,127.399 c 0,17.90121 -14.51179,32.413 -32.413,32.413 -17.9012,0 -32.41299,-14.51179 -32.41299,-32.413 0,-17.9012 14.51179,-32.412996 32.41299,-32.412996 17.90121,0 32.413,14.511796 32.413,32.412996 z"
           style="fill:#0098ff"
           sodipodi:ry="32.412998"
           sodipodi:rx="32.412998"
           sodipodi:cy="127.399"
           sodipodi:cx="203.64999"
           id="circle19"
           r="32.412998"
           cy="127.399"
           cx="203.64999" /><circle
           d="m 196.79799,107.951 c 0,17.9012 -14.51179,32.41299 -32.413,32.41299 -17.9012,0 -32.41299,-14.51179 -32.41299,-32.41299 0,-17.901208 14.51179,-32.413002 32.41299,-32.413002 17.90121,0 32.413,14.511794 32.413,32.413002 z"
           style="fill:#0098ff"
           sodipodi:ry="32.412998"
           sodipodi:rx="32.412998"
           sodipodi:cy="107.951"
           sodipodi:cx="164.38499"
           id="circle21"
           r="32.412998"
           cy="107.951"
           cx="164.38499" /><rect
           style="fill:#0098ff"
           id="rect23"
           height="32.598999"
           width="131.50301"
           y="137.58501"
           x="98.633003" /></g><g
         id="g25"><rect
           style="fill:#29b3ff"
           id="rect27"
           height="47.415001"
           width="131.50301"
           y="182.037"
           x="98.633003" /><circle
           d="m 131.046,197.03999 c 0,17.90121 -14.51179,32.413 -32.412997,32.413 -17.901204,0 -32.412998,-14.51179 -32.412998,-32.413 0,-17.9012 14.511794,-32.41299 32.412998,-32.41299 17.901207,0 32.412997,14.51179 32.412997,32.41299 z"
           style="fill:#29b3ff"
           sodipodi:ry="32.412998"
           sodipodi:rx="32.412998"
           sodipodi:cy="197.03999"
           sodipodi:cx="98.633003"
           id="circle29"
           r="32.412998"
           cy="197.03999"
           cx="98.633003" /><circle
           d="m 262.549,197.03999 c 0,17.90121 -14.51179,32.413 -32.413,32.413 -17.9012,0 -32.413,-14.51179 -32.413,-32.413 0,-17.9012 14.5118,-32.41299 32.413,-32.41299 17.90121,0 32.413,14.51179 32.413,32.41299 z"
           style="fill:#29b3ff"
           sodipodi:ry="32.412998"
           sodipodi:rx="32.412998"
           sodipodi:cy="197.03999"
           sodipodi:cx="230.136"
           id="circle31"
           r="32.412998"
           cy="197.03999"
           cx="230.136" /><circle
           d="m 156.791,157.033 c 0,17.90121 -14.5118,32.413 -32.413,32.413 -17.90121,0 -32.413,-14.51179 -32.413,-32.413 0,-17.9012 14.51179,-32.41299 32.413,-32.41299 17.9012,0 32.413,14.51179 32.413,32.41299 z"
           style="fill:#29b3ff"
           sodipodi:ry="32.412998"
           sodipodi:rx="32.412998"
           sodipodi:cy="157.033"
           sodipodi:cx="124.378"
           id="circle33"
           r="32.412998"
           cy="157.033"
           cx="124.378" /><circle
           d="m 236.06299,157.033 c 0,17.90121 -14.51179,32.413 -32.413,32.413 -17.9012,0 -32.41299,-14.51179 -32.41299,-32.413 0,-17.9012 14.51179,-32.41299 32.41299,-32.41299 17.90121,0 32.413,14.51179 32.413,32.41299 z"
           style="fill:#29b3ff"
           sodipodi:ry="32.412998"
           sodipodi:rx="32.412998"
           sodipodi:cy="157.033"
           sodipodi:cx="203.64999"
           id="circle35"
           r="32.412998"
           cy="157.033"
           cx="203.64999" /><circle
           d="m 196.79799,137.58501 c 0,17.9012 -14.51179,32.41299 -32.413,32.41299 -17.9012,0 -32.41299,-14.51179 -32.41299,-32.41299 0,-17.90121 14.51179,-32.413 32.41299,-32.413 17.90121,0 32.413,14.51179 32.413,32.413 z"
           style="fill:#29b3ff"
           sodipodi:ry="32.412998"
           sodipodi:rx="32.412998"
           sodipodi:cy="137.58501"
           sodipodi:cx="164.38499"
           id="circle37"
           r="32.412998"
           cy="137.58501"
           cx="164.38499" /><rect
           style="fill:#29b3ff"
           id="rect39"
           height="32.598999"
           width="131.50301"
           y="167.22"
           x="98.633003" /></g><g
         id="g41"><rect
           style="fill:#5fceff"
           id="rect43"
           height="47.415001"
           width="131.50301"
           y="219.08"
           x="98.633003" /><circle
           d="m 131.046,234.08299 c 0,17.90121 -14.51179,32.413 -32.412997,32.413 -17.901204,0 -32.412998,-14.51179 -32.412998,-32.413 0,-17.9012 14.511794,-32.413 32.412998,-32.413 17.901207,0 32.412997,14.5118 32.412997,32.413 z"
           style="fill:#5fceff"
           sodipodi:ry="32.412998"
           sodipodi:rx="32.412998"
           sodipodi:cy="234.08299"
           sodipodi:cx="98.633003"
           id="circle45"
           r="32.412998"
           cy="234.08299"
           cx="98.633003" /><circle
           d="m 262.549,234.08299 c 0,17.90121 -14.51179,32.413 -32.413,32.413 -17.9012,0 -32.413,-14.51179 -32.413,-32.413 0,-17.9012 14.5118,-32.413 32.413,-32.413 17.90121,0 32.413,14.5118 32.413,32.413 z"
           style="fill:#5fceff"
           sodipodi:ry="32.412998"
           sodipodi:rx="32.412998"
           sodipodi:cy="234.08299"
           sodipodi:cx="230.136"
           id="circle47"
           r="32.412998"
           cy="234.08299"
           cx="230.136" /><circle
           d="m 156.791,194.076 c 0,17.90121 -14.5118,32.413 -32.413,32.413 -17.90121,0 -32.413,-14.51179 -32.413,-32.413 0,-17.9012 14.51179,-32.41299 32.413,-32.41299 17.9012,0 32.413,14.51179 32.413,32.41299 z"
           style="fill:#5fceff"
           sodipodi:ry="32.412998"
           sodipodi:rx="32.412998"
           sodipodi:cy="194.076"
           sodipodi:cx="124.378"
           id="circle49"
           r="32.412998"
           cy="194.076"
           cx="124.378" /><circle
           d="m 236.06299,194.076 c 0,17.90121 -14.51179,32.413 -32.413,32.413 -17.9012,0 -32.41299,-14.51179 -32.41299,-32.413 0,-17.9012 14.51179,-32.41299 32.41299,-32.41299 17.90121,0 32.413,14.51179 32.413,32.41299 z"
           style="fill:#5fceff"
           sodipodi:ry="32.412998"
           sodipodi:rx="32.412998"
           sodipodi:cy="194.076"
           sodipodi:cx="203.64999"
           id="circle51"
           r="32.412998"
           cy="194.076"
           cx="203.64999" /><circle
           d="m 196.79799,174.629 c 0,17.9012 -14.51179,32.413 -32.413,32.413 -17.9012,0 -32.41299,-14.5118 -32.41299,-32.413 0,-17.90121 14.51179,-32.413 32.41299,-32.413 17.90121,0 32.413,14.51179 32.413,32.413 z"
           style="fill:#5fceff"
           sodipodi:ry="32.412998"
           sodipodi:rx="32.412998"
           sodipodi:cy="174.629"
           sodipodi:cx="164.38499"
           id="circle53"
           r="32.412998"
           cy="174.629"
           cx="164.38499" /><rect
           style="fill:#5fceff"
           id="rect55"
           height="32.598"
           width="131.50301"
           y="204.26401"
           x="98.633003" /></g><g
         id="g57"><rect
           style="fill:#ffffff"
           id="rect59"
           height="47.415001"
           width="131.50301"
           y="256.12299"
           x="98.633003" /><circle
           d="m 131.046,271.12601 c 0,17.9012 -14.51179,32.413 -32.412997,32.413 -17.901204,0 -32.412998,-14.5118 -32.412998,-32.413 0,-17.90121 14.511794,-32.413 32.412998,-32.413 17.901207,0 32.412997,14.51179 32.412997,32.413 z"
           style="fill:#ffffff"
           sodipodi:ry="32.412998"
           sodipodi:rx="32.412998"
           sodipodi:cy="271.12601"
           sodipodi:cx="98.633003"
           id="circle61"
           r="32.412998"
           cy="271.12601"
           cx="98.633003" /><circle
           d="m 262.549,271.12601 c 0,17.9012 -14.51179,32.413 -32.413,32.413 -17.9012,0 -32.413,-14.5118 -32.413,-32.413 0,-17.90121 14.5118,-32.413 32.413,-32.413 17.90121,0 32.413,14.51179 32.413,32.413 z"
           style="fill:#ffffff"
           sodipodi:ry="32.412998"
           sodipodi:rx="32.412998"
           sodipodi:cy="271.12601"
           sodipodi:cx="230.136"
           id="circle63"
           r="32.412998"
           cy="271.12601"
           cx="230.136" /><circle
           d="m 156.791,231.119 c 0,17.90121 -14.5118,32.413 -32.413,32.413 -17.90121,0 -32.413,-14.51179 -32.413,-32.413 0,-17.9012 14.51179,-32.41299 32.413,-32.41299 17.9012,0 32.413,14.51179 32.413,32.41299 z"
           style="fill:#ffffff"
           sodipodi:ry="32.412998"
           sodipodi:rx="32.412998"
           sodipodi:cy="231.119"
           sodipodi:cx="124.378"
           id="circle65"
           r="32.412998"
           cy="231.119"
           cx="124.378" /><circle
           d="m 236.06299,231.119 c 0,17.90121 -14.51179,32.413 -32.413,32.413 -17.9012,0 -32.41299,-14.51179 -32.41299,-32.413 0,-17.9012 14.51179,-32.41299 32.41299,-32.41299 17.90121,0 32.413,14.51179 32.413,32.41299 z"
           style="fill:#ffffff"
           sodipodi:ry="32.412998"
           sodipodi:rx="32.412998"
           sodipodi:cy="231.119"
           sodipodi:cx="203.64999"
           id="circle67"
           r="32.412998"
           cy="231.119"
           cx="203.64999" /><circle
           d="m 196.79799,211.672 c 0,17.9012 -14.51179,32.413 -32.413,32.413 -17.9012,0 -32.41299,-14.5118 -32.41299,-32.413 0,-17.90121 14.51179,-32.413 32.41299,-32.413 17.90121,0 32.413,14.51179 32.413,32.413 z"
           style="fill:#ffffff"
           sodipodi:ry="32.412998"
           sodipodi:rx="32.412998"
           sodipodi:cy="211.672"
           sodipodi:cx="164.38499"
           id="circle69"
           r="32.412998"
           cy="211.672"
           cx="164.38499" /><rect
           style="fill:#ffffff"
           id="rect71"
           height="32.598999"
           width="131.50301"
           y="241.306"
           x="98.633003" /></g></g></g></svg>