<?xml version="1.0" encoding="utf-8"?>
<!-- Generator: Adobe Illustrator 16.0.0, SVG Export Plug-In . SVG Version: 6.00 Build 0)  -->
<!DOCTYPE svg PUBLIC "-//W3C//DTD SVG 1.1//EN" "http://www.w3.org/Graphics/SVG/1.1/DTD/svg11.dtd">
<svg version="1.1" id="Layer_1" xmlns="http://www.w3.org/2000/svg" xmlns:xlink="http://www.w3.org/1999/xlink" x="0px" y="0px"
	 width="550px" height="250px" viewBox="0 0 550 250" enable-background="new 0 0 550 250" xml:space="preserve">
<g>
	
		<rect x="125.903" y="179.174" fill="#6EC498" stroke="#579975" stroke-width="3" stroke-miterlimit="10" width="13.428" height="19.182"/>
	<g>
		<g>
			<path fill="none" stroke="#579975" stroke-width="2" stroke-miterlimit="10" d="M142.173,208.688
				c-5.282,5.28-13.831,5.28-19.113,0"/>
			<path fill="none" stroke="#579975" stroke-width="2" stroke-miterlimit="10" d="M139.674,206.188
				c-3.901,3.899-10.214,3.899-14.115,0"/>
			<path fill="none" stroke="#579975" stroke-width="2" stroke-miterlimit="10" d="M136.747,203.496
				c-2.282,2.283-5.979,2.283-8.263,0"/>
		</g>
	</g>
</g>
<line fill="none" stroke="#3399CC" stroke-width="5" stroke-miterlimit="10" x1="417.386" y1="250" x2="417.386" y2="198.604"/>
<rect x="410.672" y="178.648" fill="#3399CC" stroke="#1E314B" stroke-width="3" stroke-miterlimit="10" width="13.429" height="19.182"/>
<g>
	
		<rect x="335.623" y="178.648" fill="#3399CC" stroke="#1E314B" stroke-width="3" stroke-miterlimit="10" width="17.986" height="38.018"/>
	<path id="path1334_3_" fill="#FFFFFF" d="M344.579,185.533l-1.733,3.002h1.236v15.346l-3.157-2.988
		c-0.203-0.254-0.347-0.587-0.354-0.93c0-1.384,0-2.206-0.001-2.509c0.585-0.205,1.007-0.757,1.007-1.411
		c0-0.829-0.673-1.502-1.502-1.502s-1.502,0.673-1.502,1.502c0,0.654,0.422,1.206,1.006,1.411v2.479
		c0,0.672,0.368,1.377,0.801,1.825c-0.013-0.013-0.026-0.025,0,0.001c0.011,0.009,3.35,3.17,3.35,3.17
		c0.203,0.254,0.346,0.586,0.354,0.928v1.736c-1.146,0.23-2.012,1.242-2.012,2.457c0,1.385,1.123,2.508,2.508,2.508
		s2.508-1.123,2.508-2.508c0-1.215-0.865-2.228-2.013-2.457v-1.706c0-0.004,0.001-0.009,0-0.013v-3.772
		c0.009-0.342,0.151-0.674,0.354-0.927c0,0,3.338-3.16,3.35-3.17c0.026-0.025,0.013-0.013,0,0c0.432-0.448,0.801-1.153,0.801-1.825
		l-0.001-2.39h1.007v-3.004h-3.003v3.004h1.005c0,0,0,0.629,0,2.419c-0.008,0.342-0.151,0.675-0.355,0.93l-3.157,2.988v-11.593
		h1.239L344.579,185.533z"/>
</g>
<g>
	
		<rect x="229.667" y="178.648" fill="#EE3968" stroke="#9A2747" stroke-width="3" stroke-miterlimit="10" width="17.986" height="38.018"/>
	<path id="path1334_2_" fill="#FFFFFF" d="M238.623,185.533l-1.733,3.002h1.236v15.346l-3.157-2.988
		c-0.203-0.254-0.347-0.587-0.354-0.93c0-1.384,0-2.206-0.001-2.509c0.585-0.205,1.007-0.757,1.007-1.411
		c0-0.829-0.673-1.502-1.502-1.502s-1.502,0.673-1.502,1.502c0,0.654,0.422,1.206,1.006,1.411v2.479
		c0,0.672,0.368,1.377,0.801,1.825c-0.013-0.013-0.026-0.025,0,0.001c0.011,0.009,3.35,3.17,3.35,3.17
		c0.203,0.254,0.346,0.586,0.354,0.928v1.736c-1.146,0.23-2.012,1.242-2.012,2.457c0,1.385,1.123,2.508,2.508,2.508
		s2.508-1.123,2.508-2.508c0-1.215-0.865-2.228-2.013-2.457v-1.706c0-0.004,0.001-0.009,0-0.013v-3.772
		c0.009-0.342,0.151-0.674,0.354-0.927c0,0,3.338-3.16,3.35-3.17c0.026-0.025,0.013-0.013,0,0c0.432-0.448,0.801-1.153,0.801-1.825
		l-0.001-2.39h1.007v-3.004h-3.003v3.004h1.005c0,0,0,0.629,0,2.419c-0.008,0.342-0.151,0.675-0.355,0.93l-3.157,2.988v-11.593
		h1.239L238.623,185.533z"/>
</g>
<rect x="424.309" y="47.333" fill="#171617" stroke="#000000" stroke-width="3" stroke-miterlimit="10" width="34" height="22.667"/>
<rect x="211.616" y="47.333" fill="#171617" stroke="#000000" stroke-width="3" stroke-miterlimit="10" width="34" height="22.667"/>
<line fill="none" stroke="#996699" stroke-width="5" stroke-miterlimit="10" x1="303.386" y1="50.045" x2="303.386" y2="-1.352"/>
<rect x="296.672" y="50.818" fill="#996699" stroke="#541538" stroke-width="3" stroke-miterlimit="10" width="13.429" height="19.182"/>
<line fill="none" stroke="#FFCE09" stroke-width="5" stroke-miterlimit="10" x1="491.948" y1="112.857" x2="550" y2="112.857"/>
<rect x="471.993" y="106.144" fill="#FFCE09" stroke="#F89839" stroke-width="3" stroke-miterlimit="10" width="19.182" height="13.429"/>
<line fill="none" stroke="#171617" stroke-width="5.3139" stroke-miterlimit="10" x1="491.948" y1="142.857" x2="550" y2="142.857"/>
<rect x="471.993" y="136.144" fill="#171617" stroke="#000000" stroke-width="3" stroke-miterlimit="10" width="19.182" height="13.429"/>
<line fill="none" stroke="#996699" stroke-width="5" stroke-miterlimit="10" x1="92.386" y1="50.045" x2="92.386" y2="-1.352"/>
<rect x="85.672" y="50.818" fill="#996699" stroke="#541538" stroke-width="3" stroke-miterlimit="10" width="13.429" height="19.182"/>
<line fill="none" stroke="#3399CC" stroke-width="5" stroke-miterlimit="10" x1="0" y1="123.161" x2="52.371" y2="123.161"/>
<rect x="52.371" y="114.917" fill="#3399CC" stroke="#1E314B" stroke-width="3" stroke-miterlimit="10" width="25.348" height="17.744"/>
<g>
	<line fill="none" stroke="#FFCE09" stroke-width="5" stroke-miterlimit="10" x1="99.386" y1="250" x2="99.386" y2="198.604"/>
	
		<rect x="92.672" y="178.648" fill="#FFCE09" stroke="#F89839" stroke-width="3" stroke-miterlimit="10" width="13.429" height="19.182"/>
</g>
<g>
	<g>
		<g>
			
				<rect x="77.54" y="72.692" fill="#C0BFBF" stroke="#9A2747" stroke-width="5.0128" stroke-miterlimit="10" width="76.926" height="104.614"/>
			
				<line fill="none" stroke="#EE3968" stroke-width="5.0128" stroke-miterlimit="10" x1="73.694" y1="70.001" x2="158.31" y2="70.001"/>
			<line fill="none" stroke="#EE3968" stroke-width="5.0128" stroke-miterlimit="10" x1="73.694" y1="180" x2="158.31" y2="180"/>
		</g>
		<g>
			<polygon fill="#3399CC" points="116.003,125 128.024,132.213 140.04,139.424 128.021,146.635 116.003,153.848 116.003,139.424 
							"/>
			<polygon fill="#996699" points="140.04,110.577 128.034,117.789 116.003,125 128.021,132.213 140.04,139.424 140.04,125 			"/>
			<polygon fill="#F89839" points="116.005,96.153 103.983,103.366 91.962,110.577 103.983,117.789 116.005,125 116.005,110.577 			
				"/>
			<polygon fill="#EE3968" points="116.003,96.153 128.021,103.366 140.04,110.577 128.021,117.789 116.003,125 116.003,110.577 			
				"/>
			<polygon fill="#FFCE09" points="116.005,125 103.983,132.213 91.962,139.424 103.983,146.635 116.005,153.848 116.005,139.424 
							"/>
			<polygon fill="#6EC498" points="91.965,110.577 103.983,117.789 116.003,125 103.983,132.213 91.965,139.424 91.965,125 			"/>
		</g>
	</g>
	<g>
		<g>
			
				<rect x="183.538" y="72.692" fill="#C0BFBF" stroke="#314F7D" stroke-width="5" stroke-miterlimit="10" width="76.926" height="104.614"/>
			
				<line fill="none" stroke="#3399CC" stroke-width="5.0128" stroke-miterlimit="10" x1="179.692" y1="70.001" x2="264.308" y2="70.001"/>
			<line fill="none" stroke="#3399CC" stroke-width="5.0128" stroke-miterlimit="10" x1="179.692" y1="180" x2="264.308" y2="180"/>
		</g>
		<g>
			<polygon fill="#3399CC" points="222.001,124.999 234.022,132.213 246.038,139.424 234.019,146.635 222.001,153.848 
				222.001,139.424 			"/>
			<polygon fill="#996699" points="246.038,110.577 234.032,117.788 222.001,124.999 234.019,132.213 246.038,139.424 
				246.038,124.999 			"/>
			<polygon fill="#F89839" points="222.003,96.153 209.981,103.366 197.96,110.577 209.981,117.788 222.003,124.999 
				222.003,110.577 			"/>
			<polygon fill="#EE3968" points="222.001,96.153 234.019,103.366 246.038,110.577 234.019,117.788 222.001,124.999 
				222.001,110.577 			"/>
			<polygon fill="#FFCE09" points="222.003,124.999 209.981,132.213 197.96,139.424 209.981,146.635 222.003,153.848 
				222.003,139.424 			"/>
			<polygon fill="#6EC498" points="197.963,110.577 209.981,117.788 222.001,124.999 209.981,132.213 197.963,139.424 
				197.963,124.999 			"/>
		</g>
	</g>
	<g>
		<g>
			
				<rect x="289.539" y="72.692" fill="#C0BFBF" stroke="#F89839" stroke-width="5.0128" stroke-miterlimit="10" width="76.926" height="104.614"/>
			
				<line fill="none" stroke="#FFCE09" stroke-width="5.0128" stroke-miterlimit="10" x1="285.693" y1="70.001" x2="370.309" y2="70.001"/>
			<line fill="none" stroke="#FFCE09" stroke-width="5.0128" stroke-miterlimit="10" x1="285.693" y1="180" x2="370.309" y2="180"/>
		</g>
		<g>
			<polygon fill="#3399CC" points="328.002,124.999 340.023,132.213 352.039,139.424 340.02,146.635 328.002,153.848 
				328.002,139.424 			"/>
			<polygon fill="#996699" points="352.039,110.577 340.033,117.788 328.002,124.999 340.02,132.213 352.039,139.424 
				352.039,124.999 			"/>
			<polygon fill="#F89839" points="328.004,96.153 315.982,103.366 303.961,110.577 315.982,117.788 328.004,124.999 
				328.004,110.577 			"/>
			<polygon fill="#EE3968" points="328.002,96.153 340.02,103.366 352.039,110.577 340.02,117.788 328.002,124.999 328.002,110.577 
							"/>
			<polygon fill="#FFCE09" points="328.004,124.999 315.982,132.213 303.961,139.424 315.982,146.635 328.004,153.848 
				328.004,139.424 			"/>
			<polygon fill="#6EC498" points="303.965,110.577 315.982,117.788 328.002,124.999 315.982,132.213 303.965,139.424 
				303.965,124.999 			"/>
		</g>
	</g>
	<g>
		<g>
			
				<rect x="395.538" y="72.692" fill="#C0BFBF" stroke="#579975" stroke-width="5.0128" stroke-miterlimit="10" width="76.926" height="104.614"/>
			
				<line fill="none" stroke="#6EC498" stroke-width="5.0128" stroke-miterlimit="10" x1="391.692" y1="70.001" x2="476.308" y2="70.001"/>
			<line fill="none" stroke="#6EC498" stroke-width="5.0128" stroke-miterlimit="10" x1="391.692" y1="180" x2="476.308" y2="180"/>
		</g>
		<g>
			<polygon fill="#3399CC" points="434.001,124.999 446.022,132.213 458.038,139.424 446.019,146.635 434.001,153.848 
				434.001,139.424 			"/>
			<polygon fill="#996699" points="458.038,110.577 446.032,117.788 434.001,124.999 446.019,132.213 458.038,139.424 
				458.038,124.999 			"/>
			<polygon fill="#F89839" points="434.003,96.153 421.981,103.366 409.96,110.577 421.981,117.788 434.003,124.999 
				434.003,110.577 			"/>
			<polygon fill="#EE3968" points="434.001,96.153 446.019,103.366 458.038,110.577 446.019,117.788 434.001,124.999 
				434.001,110.577 			"/>
			<polygon fill="#FFCE09" points="434.003,124.999 421.981,132.213 409.96,139.424 421.981,146.635 434.003,153.848 
				434.003,139.424 			"/>
			<polygon fill="#6EC498" points="409.964,110.577 421.981,117.788 434.001,124.999 421.981,132.213 409.964,139.424 
				409.964,124.999 			"/>
		</g>
	</g>
</g>
</svg>
