<?xml version="1.0" encoding="utf-8"?>
<!-- Generator: Adobe Illustrator 16.0.0, SVG Export Plug-In . SVG Version: 6.00 Build 0)  -->
<!DOCTYPE svg PUBLIC "-//W3C//DTD SVG 1.1//EN" "http://www.w3.org/Graphics/SVG/1.1/DTD/svg11.dtd">
<svg version="1.1" id="Layer_1" xmlns="http://www.w3.org/2000/svg" xmlns:xlink="http://www.w3.org/1999/xlink" x="0px" y="0px"
	 width="550px" height="250px" viewBox="0 0 550 250" enable-background="new 0 0 550 250" xml:space="preserve">
<line fill="none" stroke="#996699" stroke-width="5" stroke-dasharray="4" x1="314.821" y1="165.127" x2="397.093" y2="165.127"/>
<line fill="none" stroke="#996699" stroke-width="5" stroke-dasharray="4" x1="154.822" y1="165.127" x2="237.092" y2="165.127"/>
<g>
	<line fill="none" stroke="#996699" stroke-width="5.0886" x1="185.31" y1="127.043" x2="185.31" y2="148.755"/>
	<line fill="none" stroke="#996699" stroke-width="5.0886" x1="205.664" y1="127.043" x2="205.664" y2="148.755"/>
	<line fill="none" stroke="#996699" stroke-width="5.725" x1="184.007" y1="128.928" x2="206.905" y2="128.928"/>
	<rect x="185.31" y="148.755" fill="none" stroke="#996699" stroke-width="5.0886" stroke-linecap="square" width="0" height="0"/>
	<circle fill="#6E1A45" stroke="#996699" stroke-width="4.6583" stroke-linecap="square" cx="183.548" cy="149.499" r="2.544"/>
	<circle fill="#6E1A45" stroke="#996699" stroke-width="4.6583" stroke-linecap="square" cx="203.902" cy="149.499" r="2.544"/>
</g>
<g>
	
		<rect x="343.296" y="128.043" fill="none" stroke="#996699" stroke-width="3.3591" stroke-linecap="square" width="19.82" height="25.001"/>
	
		<line fill="none" stroke="#996699" stroke-width="3.3594" stroke-dasharray="3.75" x1="346.487" y1="128.043" x2="346.487" y2="153.044"/>
	
		<line fill="none" stroke="#996699" stroke-width="3.3594" stroke-dasharray="3.75" x1="360.237" y1="128.043" x2="360.237" y2="153.044"/>
</g>
<g>
	<g>
		<path fill="none" stroke="#6EC498" stroke-width="7" stroke-miterlimit="10" d="M57.519,54.446
			c32.607-32.594,85.367-32.594,117.963,0"/>
		<path fill="none" stroke="#6EC498" stroke-width="7" stroke-miterlimit="10" d="M72.948,69.876
			c24.074-24.066,63.03-24.066,87.115,0"/>
		<path fill="none" stroke="#6EC498" stroke-width="7" stroke-miterlimit="10" d="M91.018,86.498
			c14.079-14.097,36.897-14.097,50.988,0"/>
	</g>
</g>
<g>
	<g>
		<path fill="none" stroke="#6EC498" stroke-width="7" stroke-miterlimit="10" d="M216.519,54.446
			c32.607-32.594,85.367-32.594,117.963,0"/>
		<path fill="none" stroke="#6EC498" stroke-width="7" stroke-miterlimit="10" d="M231.948,69.876
			c24.074-24.066,63.03-24.066,87.116,0"/>
		<path fill="none" stroke="#6EC498" stroke-width="7" stroke-miterlimit="10" d="M250.018,86.498
			c14.079-14.097,36.897-14.097,50.988,0"/>
	</g>
</g>
<g>
	<g>
		
			<rect x="77.994" y="112.833" fill="#C0C0C0" stroke="#654566" stroke-width="5.0128" stroke-miterlimit="10" width="76.926" height="104.615"/>
		
			<line fill="none" stroke="#996699" stroke-width="5.0128" stroke-miterlimit="10" x1="74.148" y1="110.142" x2="158.764" y2="110.142"/>
		
			<line fill="none" stroke="#996699" stroke-width="5.0128" stroke-miterlimit="10" x1="74.148" y1="220.142" x2="158.764" y2="220.142"/>
	</g>
	<g>
		<polygon fill="#3399CC" points="116.457,165.142 128.479,172.353 140.494,179.563 128.475,186.776 116.457,193.987 
			116.457,179.563 		"/>
		<polygon fill="#996699" points="140.494,150.718 128.488,157.929 116.457,165.142 128.475,172.353 140.494,179.563 
			140.494,165.142 		"/>
		<polygon fill="#F89839" points="116.459,136.294 104.438,143.507 92.416,150.718 104.438,157.929 116.459,165.142 
			116.459,150.718 		"/>
		<polygon fill="#EE3968" points="116.457,136.294 128.475,143.507 140.494,150.718 128.475,157.929 116.457,165.142 
			116.457,150.718 		"/>
		<polygon fill="#FFCE09" points="116.459,165.142 104.438,172.353 92.416,179.563 104.438,186.776 116.459,193.987 
			116.459,179.563 		"/>
		<polygon fill="#6EC498" points="92.42,150.718 104.438,157.929 116.457,165.142 104.438,172.353 92.42,179.563 92.42,165.142 		
			"/>
	</g>
</g>
<g>
	<g>
		<path fill="none" stroke="#6EC498" stroke-width="7" stroke-miterlimit="10" d="M374.519,54.446
			c32.607-32.594,85.367-32.594,117.963,0"/>
		<path fill="none" stroke="#6EC498" stroke-width="7" stroke-miterlimit="10" d="M389.948,69.876
			c24.073-24.066,63.029-24.066,87.115,0"/>
		<path fill="none" stroke="#6EC498" stroke-width="7" stroke-miterlimit="10" d="M408.018,86.498
			c14.079-14.097,36.897-14.097,50.988,0"/>
	</g>
</g>
<g>
	<g>
		
			<rect x="237.052" y="112.818" fill="#C0C0C0" stroke="#654566" stroke-width="5.0128" stroke-miterlimit="10" width="76.926" height="104.615"/>
		
			<line fill="none" stroke="#996699" stroke-width="5.0128" stroke-miterlimit="10" x1="233.206" y1="110.127" x2="317.821" y2="110.127"/>
		
			<line fill="none" stroke="#996699" stroke-width="5.0128" stroke-miterlimit="10" x1="233.206" y1="220.127" x2="317.821" y2="220.127"/>
	</g>
	<g>
		<polygon fill="#3399CC" points="275.515,165.127 287.536,172.338 299.552,179.549 287.532,186.762 275.515,193.973 
			275.515,179.549 		"/>
		<polygon fill="#996699" points="299.552,150.703 287.546,157.914 275.515,165.127 287.532,172.338 299.552,179.549 
			299.552,165.127 		"/>
		<polygon fill="#F89839" points="275.517,136.279 263.495,143.492 251.474,150.703 263.495,157.914 275.517,165.127 
			275.517,150.703 		"/>
		<polygon fill="#EE3968" points="275.515,136.279 287.532,143.492 299.552,150.703 287.532,157.914 275.515,165.127 
			275.515,150.703 		"/>
		<polygon fill="#FFCE09" points="275.517,165.127 263.495,172.338 251.474,179.549 263.495,186.762 275.517,193.973 
			275.517,179.549 		"/>
		<polygon fill="#6EC498" points="251.478,150.703 263.495,157.914 275.515,165.127 263.495,172.338 251.478,179.549 
			251.478,165.127 		"/>
	</g>
</g>
<g>
	<g>
		
			<rect x="395.997" y="112.833" fill="#C0C0C0" stroke="#654566" stroke-width="5.0128" stroke-miterlimit="10" width="76.926" height="104.615"/>
		
			<line fill="none" stroke="#996699" stroke-width="5.0128" stroke-miterlimit="10" x1="392.151" y1="110.142" x2="476.767" y2="110.142"/>
		
			<line fill="none" stroke="#996699" stroke-width="5.0128" stroke-miterlimit="10" x1="392.151" y1="220.142" x2="476.767" y2="220.142"/>
	</g>
	<g>
		<polygon fill="#3399CC" points="434.46,165.142 446.481,172.353 458.497,179.563 446.478,186.776 434.46,193.987 434.46,179.563 
					"/>
		<polygon fill="#996699" points="458.497,150.718 446.491,157.929 434.46,165.142 446.478,172.353 458.497,179.563 
			458.497,165.142 		"/>
		<polygon fill="#F89839" points="434.462,136.294 422.44,143.507 410.419,150.718 422.44,157.929 434.462,165.142 434.462,150.718 
					"/>
		<polygon fill="#EE3968" points="434.46,136.294 446.478,143.507 458.497,150.718 446.478,157.929 434.46,165.142 434.46,150.718 
					"/>
		<polygon fill="#FFCE09" points="434.462,165.142 422.44,172.353 410.419,179.563 422.44,186.776 434.462,193.987 434.462,179.563 
					"/>
		<polygon fill="#6EC498" points="410.423,150.718 422.44,157.929 434.46,165.142 422.44,172.353 410.423,179.563 410.423,165.142 
					"/>
	</g>
</g>
</svg>
