<?xml version="1.0" encoding="utf-8"?>
<!-- Generator: Adobe Illustrator 19.1.0, SVG Export Plug-In . SVG Version: 6.00 Build 0)  -->
<svg version="1.1" id="Layer_1" xmlns="http://www.w3.org/2000/svg" xmlns:xlink="http://www.w3.org/1999/xlink" x="0px" y="0px"
	 viewBox="-30 272 550 250" style="enable-background:new -30 272 550 250;" xml:space="preserve">
<style type="text/css">
	.st0{fill:none;stroke:#000000;stroke-miterlimit:10;}
	.st1{fill:none;stroke:#000000;stroke-linecap:square;}
	.st2{fill:none;stroke:#000000;stroke-dasharray:3.75;}
	.st3{fill:#FFFFFF;stroke:#000000;stroke-width:0.5131;stroke-miterlimit:10;}
	.st4{fill:#010101;stroke:#FFFFFF;stroke-width:0.204;stroke-miterlimit:10;}
	.st5{fill:#3399CC;}
	.st6{fill:#996699;}
	.st7{fill:#F89839;}
	.st8{fill:#EE3968;}
	.st9{fill:#FFCE09;}
	.st10{fill:#6EC498;}
	.st11{fill:none;stroke:#FFFFFF;stroke-width:0.612;stroke-miterlimit:10;}
	.st12{fill:none;stroke:#FFFFFF;stroke-width:0.612;stroke-miterlimit:10;stroke-dasharray:1.389,1.389;}
	.st13{fill:none;stroke:#FFFFFF;stroke-width:0.612;stroke-miterlimit:10;stroke-dasharray:1.4899,1.4899;}
</style>
<path class="st0" d="M367.1,439.1h-2.3v-4h2.3V439.1z M360.8,439.1h-4v-4h4V439.1z M352.8,439.1h-4v-4h4V439.1z M344.8,439.1h-4v-4
	h4V439.1z M336.8,439.1h-4v-4h4V439.1z M328.8,439.1h-4v-4h4V439.1z M320.8,439.1h-4v-4h4V439.1z M312.8,439.1h-4v-4h4V439.1z
	 M304.8,439.1h-4v-4h4V439.1z M296.8,439.1h-4v-4h4V439.1z M288.8,439.1h-4v-4h4V439.1z"/>
<path class="st0" d="M207.1,439.1h-2.3v-4h2.3V439.1z M200.8,439.1h-4v-4h4V439.1z M192.8,439.1h-4v-4h4V439.1z M184.8,439.1h-4v-4
	h4V439.1z M176.8,439.1h-4v-4h4V439.1z M168.8,439.1h-4v-4h4V439.1z M160.8,439.1h-4v-4h4V439.1z M152.8,439.1h-4v-4h4V439.1z
	 M144.8,439.1h-4v-4h4V439.1z M136.8,439.1h-4v-4h4V439.1z M128.8,439.1h-4v-4h4V439.1z"/>
<g>
	<rect x="313.3" y="400" class="st1" width="19.8" height="25"/>
	<line class="st2" x1="316.5" y1="400" x2="316.5" y2="425"/>
	<line class="st2" x1="330.2" y1="400" x2="330.2" y2="425"/>
</g>
<g>
	<g>
		<path class="st0" d="M28.9,327.9l-2.8-2.8c33.3-33.3,87.5-33.3,120.8,0l-2.8,2.8C112.3,296.1,60.7,296.1,28.9,327.9z"/>
		<path class="st0" d="M128.6,343.3c-23.2-23.2-61.1-23.2-84.3,0l-2.8-2.8c24.8-24.8,65.1-24.8,89.9,0L128.6,343.3z"/>
		<path class="st0" d="M110.6,359.9c-6.4-6.4-15-10-24.1-10c-9.1,0-17.6,3.5-24.1,10l-2.8-2.8c7.2-7.2,16.7-11.2,26.9-11.2
			c10.2,0,19.7,4,26.9,11.2L110.6,359.9z"/>
	</g>
</g>
<g>
	<g>
		<path class="st0" d="M187.9,327.9l-2.8-2.8c33.3-33.3,87.5-33.3,120.8,0l-2.8,2.8C271.3,296.1,219.7,296.1,187.9,327.9z"/>
		<path class="st0" d="M287.7,343.3c-23.2-23.2-61.1-23.2-84.3,0l-2.8-2.8c24.8-24.8,65.1-24.8,89.9,0L287.7,343.3z"/>
		<path class="st0" d="M269.6,359.9c-6.4-6.4-15-10-24.1-10c-9.1,0-17.6,3.5-24.1,10l-2.8-2.8c7.2-7.2,16.7-11.2,26.9-11.2
			c10.2,0,19.7,4,26.9,11.2L269.6,359.9z"/>
	</g>
</g>
<g>
	<g>
		<path class="st0" d="M345.9,327.9l-2.8-2.8c33.3-33.3,87.5-33.3,120.8,0l-2.8,2.8C429.3,296.1,377.7,296.1,345.9,327.9z"/>
		<path class="st0" d="M445.6,343.3c-23.2-23.2-61.1-23.2-84.3,0l-2.8-2.8c24.8-24.8,65.1-24.8,89.9,0L445.6,343.3z"/>
		<path class="st0" d="M427.6,359.9c-6.4-6.4-15-10-24.1-10c-9.1,0-17.6,3.5-24.1,10l-2.8-2.8c7.2-7.2,16.7-11.2,26.9-11.2
			c10.2,0,19.7,4,26.9,11.2L427.6,359.9z"/>
	</g>
</g>
<rect x="41.4" y="384.1" class="st3" width="86.6" height="111"/>
<g>
	<g>
		<g>
			<path class="st4" d="M84.3,430.4"/>
		</g>
		<g>
			<path class="st4" d="M84.3,430.4"/>
		</g>
		<g>
			<path class="st4" d="M84.3,430.4"/>
		</g>
		<g>
			<path class="st4" d="M84.3,430.4"/>
		</g>
	</g>
	<polyline class="st5" points="109.8,445.1 97.1,452.7 84.3,460.4 84.3,445.1 84.3,429.8 	"/>
	<polyline class="st6" points="109.8,445.1 109.8,429.8 109.8,414.5 97.1,422.1 84.3,429.8 	"/>
	<polyline class="st7" points="84.3,399.2 71.6,406.8 58.8,414.5 71.6,422.1 84.3,429.8 	"/>
	<polyline class="st8" points="84.3,399.2 97.1,406.8 109.8,414.5 97.1,422.1 84.3,429.8 	"/>
	<polyline class="st9" points="58.8,445.1 71.6,452.7 84.3,460.4 84.3,445.1 84.3,429.8 	"/>
	<polyline class="st10" points="58.9,445.1 58.9,429.8 58.9,414.5 71.6,422.1 84.3,429.8 	"/>
	<g>
		<g>
			<g>
				<line class="st11" x1="84.4" y1="399.2" x2="84.4" y2="399.9"/>
				<line class="st12" x1="84.4" y1="401.3" x2="84.3" y2="428.4"/>
				<line class="st11" x1="84.3" y1="429.1" x2="84.3" y2="429.8"/>
			</g>
		</g>
		<g>
			<g>
				<line class="st11" x1="84.3" y1="429.8" x2="85" y2="430.2"/>
				<line class="st13" x1="86.2" y1="430.9" x2="108.6" y2="444.3"/>
				<line class="st11" x1="109.2" y1="444.7" x2="109.8" y2="445.1"/>
			</g>
		</g>
		<g>
			<g>
				<line class="st11" x1="84.3" y1="429.8" x2="83.7" y2="430.2"/>
				<line class="st13" x1="82.5" y1="430.9" x2="60.1" y2="444.3"/>
				<line class="st11" x1="59.5" y1="444.7" x2="58.8" y2="445.1"/>
			</g>
		</g>
	</g>
	<g>
		<line class="st11" x1="84.4" y1="460.4" x2="84.3" y2="429.8"/>
		<line class="st11" x1="84.3" y1="429.8" x2="109.8" y2="414.5"/>
		<line class="st11" x1="84.3" y1="429.8" x2="58.8" y2="414.5"/>
	</g>
</g>
<rect x="46.3" y="498.1" class="st3" width="76.4" height="6.2"/>
<rect x="46.3" y="375" class="st3" width="76.4" height="6.2"/>
<rect x="39.7" y="378.9" width="89.8" height="5.3"/>
<rect x="39.7" y="494.9" width="89.8" height="5.3"/>
<g>
	<path d="M77.2,466.7h2v8.8h-2v-3.7h-3.3v3.7h-2v-8.8h2v3.4h3.3V466.7z"/>
	<path d="M84.7,475.7c-0.6,0-1.2-0.1-1.6-0.3c-0.4-0.2-0.8-0.4-1.1-0.7c-0.3-0.3-0.5-0.7-0.6-1.1c-0.1-0.4-0.2-0.9-0.2-1.4v-5.5h2
		v5.3c0,0.4,0,0.7,0.1,0.9c0.1,0.3,0.2,0.5,0.3,0.6c0.1,0.2,0.3,0.3,0.5,0.3c0.2,0.1,0.4,0.1,0.7,0.1c0.5,0,0.9-0.1,1.2-0.4
		c0.3-0.3,0.5-0.8,0.5-1.5v-5.3h2v5.5c0,0.5-0.1,1-0.2,1.4s-0.4,0.8-0.7,1.1c-0.3,0.3-0.7,0.5-1.1,0.7S85.3,475.7,84.7,475.7z"/>
	<path d="M93.2,475.6c-0.5,0-1,0-1.4,0c-0.5,0-1-0.1-1.5-0.2v-8.6c0.4-0.1,0.9-0.1,1.3-0.2c0.5,0,0.9-0.1,1.3-0.1
		c0.6,0,1.1,0,1.5,0.1c0.5,0.1,0.9,0.2,1.2,0.4s0.6,0.5,0.8,0.8c0.2,0.3,0.3,0.7,0.3,1.2c0,0.7-0.3,1.3-1,1.7
		c0.6,0.2,0.9,0.5,1.1,0.9c0.2,0.4,0.3,0.8,0.3,1.2c0,0.9-0.3,1.6-1,2.1C95.5,475.4,94.5,475.6,93.2,475.6z M92.2,470.2h1
		c0.6,0,1-0.1,1.3-0.2c0.3-0.2,0.4-0.4,0.4-0.8c0-0.4-0.1-0.6-0.4-0.8c-0.3-0.1-0.7-0.2-1.2-0.2c-0.2,0-0.4,0-0.5,0
		c-0.2,0-0.4,0-0.5,0L92.2,470.2L92.2,470.2z M92.2,471.7v2.3c0.1,0,0.3,0,0.5,0s0.4,0,0.6,0c0.6,0,1.1-0.1,1.4-0.3
		c0.4-0.2,0.5-0.5,0.5-0.9c0-0.4-0.2-0.7-0.5-0.9c-0.3-0.2-0.7-0.3-1.3-0.3H92.2z"/>
</g>
<rect x="44" y="429.8" width="3.2" height="17"/>
<rect x="122.5" y="429.8" width="3.2" height="17"/>
<rect x="201.4" y="384.1" class="st3" width="86.6" height="111"/>
<g>
	<g>
		<g>
			<path class="st4" d="M244.3,430.4"/>
		</g>
		<g>
			<path class="st4" d="M244.3,430.4"/>
		</g>
		<g>
			<path class="st4" d="M244.3,430.4"/>
		</g>
		<g>
			<path class="st4" d="M244.3,430.4"/>
		</g>
	</g>
	<polyline class="st5" points="269.8,445.1 257.1,452.7 244.3,460.4 244.3,445.1 244.3,429.8 	"/>
	<polyline class="st6" points="269.8,445.1 269.8,429.8 269.8,414.5 257.1,422.1 244.3,429.8 	"/>
	<polyline class="st7" points="244.4,399.2 231.6,406.8 218.8,414.5 231.6,422.1 244.4,429.8 	"/>
	<polyline class="st8" points="244.3,399.2 257.1,406.8 269.8,414.5 257.1,422.1 244.3,429.8 	"/>
	<polyline class="st9" points="218.8,445.1 231.6,452.7 244.4,460.4 244.4,445.1 244.4,429.8 	"/>
	<polyline class="st10" points="218.9,445.1 218.9,429.8 218.9,414.5 231.6,422.1 244.3,429.8 	"/>
	<g>
		<g>
			<g>
				<line class="st11" x1="244.4" y1="399.2" x2="244.4" y2="399.9"/>
				<line class="st12" x1="244.4" y1="401.3" x2="244.3" y2="428.4"/>
				<line class="st11" x1="244.3" y1="429.1" x2="244.3" y2="429.8"/>
			</g>
		</g>
		<g>
			<g>
				<line class="st11" x1="244.3" y1="429.8" x2="245" y2="430.2"/>
				<line class="st13" x1="246.2" y1="430.9" x2="268.6" y2="444.3"/>
				<line class="st11" x1="269.2" y1="444.7" x2="269.8" y2="445.1"/>
			</g>
		</g>
		<g>
			<g>
				<line class="st11" x1="244.3" y1="429.8" x2="243.7" y2="430.2"/>
				<line class="st13" x1="242.5" y1="430.9" x2="220.1" y2="444.3"/>
				<line class="st11" x1="219.5" y1="444.7" x2="218.8" y2="445.1"/>
			</g>
		</g>
	</g>
	<g>
		<line class="st11" x1="244.4" y1="460.4" x2="244.3" y2="429.8"/>
		<line class="st11" x1="244.3" y1="429.8" x2="269.8" y2="414.5"/>
		<line class="st11" x1="244.3" y1="429.8" x2="218.8" y2="414.5"/>
	</g>
</g>
<rect x="206.3" y="498.1" class="st3" width="76.4" height="6.2"/>
<rect x="206.3" y="375" class="st3" width="76.4" height="6.2"/>
<rect x="199.7" y="378.9" width="89.8" height="5.3"/>
<rect x="199.7" y="494.9" width="89.8" height="5.3"/>
<g>
	<path d="M237.2,466.7h2v8.8h-2v-3.7h-3.3v3.7h-2v-8.8h2v3.4h3.3V466.7z"/>
	<path d="M244.7,475.7c-0.6,0-1.2-0.1-1.6-0.3c-0.4-0.2-0.8-0.4-1.1-0.7c-0.3-0.3-0.5-0.7-0.6-1.1c-0.1-0.4-0.2-0.9-0.2-1.4v-5.5h2
		v5.3c0,0.4,0,0.7,0.1,0.9c0.1,0.3,0.2,0.5,0.3,0.6c0.1,0.2,0.3,0.3,0.5,0.3c0.2,0.1,0.4,0.1,0.7,0.1c0.5,0,0.9-0.1,1.2-0.4
		c0.3-0.3,0.5-0.8,0.5-1.5v-5.3h2v5.5c0,0.5-0.1,1-0.2,1.4s-0.4,0.8-0.7,1.1c-0.3,0.3-0.7,0.5-1.1,0.7S245.3,475.7,244.7,475.7z"/>
	<path d="M253.2,475.6c-0.5,0-1,0-1.4,0c-0.5,0-1-0.1-1.5-0.2v-8.6c0.4-0.1,0.9-0.1,1.3-0.2c0.5,0,0.9-0.1,1.4-0.1
		c0.6,0,1.1,0,1.5,0.1c0.5,0.1,0.9,0.2,1.2,0.4s0.6,0.5,0.8,0.8c0.2,0.3,0.3,0.7,0.3,1.2c0,0.7-0.3,1.3-1,1.7
		c0.6,0.2,0.9,0.5,1.1,0.9c0.2,0.4,0.3,0.8,0.3,1.2c0,0.9-0.3,1.6-1,2.1C255.5,475.4,254.5,475.6,253.2,475.6z M252.2,470.2h1
		c0.6,0,1-0.1,1.3-0.2c0.3-0.2,0.4-0.4,0.4-0.8c0-0.4-0.1-0.6-0.4-0.8c-0.3-0.1-0.7-0.2-1.2-0.2c-0.2,0-0.4,0-0.5,0
		c-0.2,0-0.4,0-0.5,0L252.2,470.2L252.2,470.2z M252.2,471.7v2.3c0.1,0,0.3,0,0.5,0s0.4,0,0.6,0c0.6,0,1.1-0.1,1.4-0.3
		c0.4-0.2,0.5-0.5,0.5-0.9c0-0.4-0.2-0.7-0.5-0.9c-0.3-0.2-0.7-0.3-1.3-0.3H252.2z"/>
</g>
<rect x="204" y="429.8" width="3.2" height="17"/>
<rect x="282.5" y="429.8" width="3.2" height="17"/>
<rect x="361.4" y="384.1" class="st3" width="86.6" height="111"/>
<g>
	<g>
		<g>
			<path class="st4" d="M404.3,430.4"/>
		</g>
		<g>
			<path class="st4" d="M404.3,430.4"/>
		</g>
		<g>
			<path class="st4" d="M404.3,430.4"/>
		</g>
		<g>
			<path class="st4" d="M404.3,430.4"/>
		</g>
	</g>
	<polyline class="st5" points="429.8,445.1 417.1,452.7 404.3,460.4 404.3,445.1 404.3,429.8 	"/>
	<polyline class="st6" points="429.8,445.1 429.8,429.8 429.8,414.5 417.1,422.1 404.3,429.8 	"/>
	<polyline class="st7" points="404.4,399.2 391.6,406.8 378.8,414.5 391.6,422.1 404.4,429.8 	"/>
	<polyline class="st8" points="404.3,399.2 417.1,406.8 429.8,414.5 417.1,422.1 404.3,429.8 	"/>
	<polyline class="st9" points="378.8,445.1 391.6,452.7 404.4,460.4 404.4,445.1 404.4,429.8 	"/>
	<polyline class="st10" points="378.9,445.1 378.9,429.8 378.9,414.5 391.6,422.1 404.3,429.8 	"/>
	<g>
		<g>
			<g>
				<line class="st11" x1="404.4" y1="399.2" x2="404.4" y2="399.9"/>
				<line class="st12" x1="404.4" y1="401.3" x2="404.3" y2="428.4"/>
				<line class="st11" x1="404.3" y1="429.1" x2="404.3" y2="429.8"/>
			</g>
		</g>
		<g>
			<g>
				<line class="st11" x1="404.3" y1="429.8" x2="405" y2="430.2"/>
				<line class="st13" x1="406.2" y1="430.9" x2="428.6" y2="444.3"/>
				<line class="st11" x1="429.2" y1="444.7" x2="429.8" y2="445.1"/>
			</g>
		</g>
		<g>
			<g>
				<line class="st11" x1="404.3" y1="429.8" x2="403.7" y2="430.2"/>
				<line class="st13" x1="402.5" y1="430.9" x2="380.1" y2="444.3"/>
				<line class="st11" x1="379.5" y1="444.7" x2="378.8" y2="445.1"/>
			</g>
		</g>
	</g>
	<g>
		<line class="st11" x1="404.4" y1="460.4" x2="404.3" y2="429.8"/>
		<line class="st11" x1="404.3" y1="429.8" x2="429.8" y2="414.5"/>
		<line class="st11" x1="404.3" y1="429.8" x2="378.8" y2="414.5"/>
	</g>
</g>
<rect x="366.3" y="498.1" class="st3" width="76.4" height="6.2"/>
<rect x="366.3" y="375" class="st3" width="76.4" height="6.2"/>
<rect x="359.7" y="378.9" width="89.8" height="5.3"/>
<rect x="359.7" y="494.9" width="89.8" height="5.3"/>
<g>
	<path d="M397.2,466.7h2v8.8h-2v-3.7h-3.3v3.7h-2v-8.8h2v3.4h3.3V466.7z"/>
	<path d="M404.7,475.7c-0.6,0-1.2-0.1-1.6-0.3c-0.4-0.2-0.8-0.4-1.1-0.7c-0.3-0.3-0.5-0.7-0.6-1.1c-0.1-0.4-0.2-0.9-0.2-1.4v-5.5h2
		v5.3c0,0.4,0,0.7,0.1,0.9c0.1,0.3,0.2,0.5,0.3,0.6c0.1,0.2,0.3,0.3,0.5,0.3c0.2,0.1,0.4,0.1,0.7,0.1c0.5,0,0.9-0.1,1.2-0.4
		c0.3-0.3,0.5-0.8,0.5-1.5v-5.3h2v5.5c0,0.5-0.1,1-0.2,1.4s-0.4,0.8-0.7,1.1c-0.3,0.3-0.7,0.5-1.1,0.7S405.3,475.7,404.7,475.7z"/>
	<path d="M413.2,475.6c-0.5,0-1,0-1.4,0c-0.5,0-1-0.1-1.5-0.2v-8.6c0.4-0.1,0.9-0.1,1.3-0.2c0.5,0,0.9-0.1,1.4-0.1
		c0.6,0,1.1,0,1.5,0.1c0.5,0.1,0.9,0.2,1.2,0.4s0.6,0.5,0.8,0.8c0.2,0.3,0.3,0.7,0.3,1.2c0,0.7-0.3,1.3-1,1.7
		c0.6,0.2,0.9,0.5,1.1,0.9c0.2,0.4,0.3,0.8,0.3,1.2c0,0.9-0.3,1.6-1,2.1C415.5,475.4,414.5,475.6,413.2,475.6z M412.2,470.2h1
		c0.6,0,1-0.1,1.3-0.2c0.3-0.2,0.4-0.4,0.4-0.8c0-0.4-0.1-0.6-0.4-0.8c-0.3-0.1-0.7-0.2-1.2-0.2c-0.2,0-0.4,0-0.5,0
		c-0.2,0-0.4,0-0.5,0L412.2,470.2L412.2,470.2z M412.2,471.7v2.3c0.1,0,0.3,0,0.5,0s0.4,0,0.6,0c0.6,0,1.1-0.1,1.4-0.3
		c0.4-0.2,0.5-0.5,0.5-0.9c0-0.4-0.2-0.7-0.5-0.9c-0.3-0.2-0.7-0.3-1.3-0.3H412.2z"/>
</g>
<rect x="364" y="429.8" width="3.2" height="17"/>
<rect x="442.5" y="429.8" width="3.2" height="17"/>
<g>
	<polyline class="st1" points="157,422.2 157,403.3 175.4,403.3 175.4,422.2 	"/>
	<circle class="st1" cx="155" cy="423.1" r="2.2"/>
	<path class="st1" d="M173.4,420.9c1.2,0,2.2,1,2.2,2.2c0,1.2-1,2.2-2.2,2.2c-1.2,0-2.2-1-2.2-2.2
		C171.2,421.9,172.2,420.9,173.4,420.9z"/>
</g>
</svg>
