<?xml version="1.0" encoding="utf-8"?>
<!-- Generator: Adobe Illustrator 19.1.0, SVG Export Plug-In . SVG Version: 6.00 Build 0)  -->
<svg version="1.1" id="Camada_1" xmlns="http://www.w3.org/2000/svg" xmlns:xlink="http://www.w3.org/1999/xlink" x="0px" y="0px"
	 viewBox="0 0 640 360" style="enable-background:new 0 0 640 360;" xml:space="preserve">
<style type="text/css">
	.st0{fill:none;stroke:#000000;stroke-width:2;stroke-miterlimit:10;}
	.st1{fill:none;stroke:#000000;stroke-width:2;stroke-miterlimit:10;stroke-dasharray:12.611,12.611;}
	.st2{fill:none;stroke:#000000;stroke-width:2;stroke-miterlimit:10;stroke-dasharray:11.9372,11.9372;}
	.st3{fill:none;stroke:#000000;stroke-width:2;stroke-miterlimit:10;stroke-dasharray:12.2656,12.2656;}
</style>
<g>
	<g>
		<polyline class="st0" points="435.3,159.4 435.3,294 207.8,294 207.8,159.4 		"/>
		<rect x="207.8" y="44" class="st0" width="227.5" height="36.2"/>
		<rect x="234.9" y="192" class="st0" width="173.3" height="102"/>
		<g>
			<line class="st0" x1="424" y1="80" x2="424" y2="154"/>
			<line class="st0" x1="219" y1="154" x2="219" y2="80"/>
			<line class="st0" x1="207.8" y1="80.2" x2="193.5" y2="153.8"/>
			<line class="st0" x1="244" y1="80" x2="244" y2="154"/>
			<line class="st0" x1="271" y1="80" x2="271" y2="154"/>
			<line class="st0" x1="297" y1="80" x2="297" y2="154"/>
			<line class="st0" x1="322" y1="80" x2="322" y2="154"/>
			<line class="st0" x1="347" y1="80" x2="347" y2="154"/>
			<line class="st0" x1="374" y1="80" x2="374" y2="154"/>
			<line class="st0" x1="399" y1="80" x2="399" y2="154"/>
			<line class="st0" x1="435.3" y1="80.2" x2="449.7" y2="153.8"/>
			<line class="st0" x1="209" y1="80" x2="435" y2="80"/>
			<path class="st0" d="M219.1,153.8c0,0-5.7,5.7-12.8,5.7c-7.1,0-12.8-5.7-12.8-5.7"/>
			<path class="st0" d="M244.9,153.8c0,0-5.7,5.7-12.8,5.7c-7.1,0-12.8-5.7-12.8-5.7"/>
			<path class="st0" d="M269.8,153.8c0,0-5.7,5.7-12.8,5.7c-7.1,0-12.8-5.7-12.8-5.7"/>
			<path class="st0" d="M295.7,153.8c0,0-5.7,5.7-12.8,5.7s-12.8-5.7-12.8-5.7"/>
			<path class="st0" d="M321.6,153.8c0,0-5.7,5.7-12.8,5.7c-7.1,0-12.8-5.7-12.8-5.7"/>
			<path class="st0" d="M347.4,153.8c0,0-5.7,5.7-12.8,5.7c-7.1,0-12.8-5.7-12.8-5.7"/>
			<path class="st0" d="M373.3,153.8c0,0-5.7,5.7-12.8,5.7s-12.8-5.7-12.8-5.7"/>
			<path class="st0" d="M398.2,153.8c0,0-5.7,5.7-12.8,5.7s-12.8-5.7-12.8-5.7"/>
			<path class="st0" d="M449.7,153.8c0,0-5.7,5.7-12.8,5.7c-7.1,0-12.8-5.7-12.8-5.7"/>
			<path class="st0" d="M423.8,153.8c0,0-5.7,5.7-12.8,5.7s-12.8-5.7-12.8-5.7"/>
		</g>
		<line class="st0" x1="119" y1="316" x2="521" y2="316"/>
		<line class="st0" x1="207" y1="294.8" x2="186.5" y2="315.4"/>
		<line class="st0" x1="433.9" y1="294.8" x2="455" y2="316"/>
	</g>
	<rect x="193.5" y="233.5" class="st0" width="14.5" height="12.3"/>
	<rect x="193.5" y="211.2" class="st0" width="14.5" height="12.3"/>
	<line class="st0" x1="141" y1="218" x2="141" y2="316"/>
	<line class="st0" x1="193" y1="218" x2="141" y2="218"/>
	<line class="st0" x1="193" y1="240" x2="141" y2="240"/>
	<rect x="436" y="233.5" class="st0" width="14.5" height="12.3"/>
	<rect x="436" y="211.2" class="st0" width="14.5" height="12.3"/>
	<line class="st0" x1="503" y1="218" x2="503" y2="316"/>
	<line class="st0" x1="451" y1="218" x2="503" y2="218"/>
	<line class="st0" x1="451" y1="240" x2="503" y2="240"/>
</g>
</svg>
