<?xml version="1.0" encoding="utf-8"?>
<!-- Generator: Adobe Illustrator 16.0.0, SVG Export Plug-In . SVG Version: 6.00 Build 0)  -->
<!DOCTYPE svg PUBLIC "-//W3C//DTD SVG 1.1//EN" "http://www.w3.org/Graphics/SVG/1.1/DTD/svg11.dtd">
<svg version="1.1" id="Layer_1" xmlns="http://www.w3.org/2000/svg" xmlns:xlink="http://www.w3.org/1999/xlink" x="0px" y="0px"
	 width="550px" height="250px" viewBox="0 0 550 250" enable-background="new 0 0 550 250" xml:space="preserve">
<g>
	<g>
		<g>
			
				<rect x="20.526" y="29.894" fill="none" stroke="#A61E2A" stroke-width="9.1142" stroke-miterlimit="10" width="139.866" height="190.212"/>
			<line fill="none" stroke="#EB272A" stroke-width="9.1142" stroke-miterlimit="10" x1="13.534" y1="25" x2="167.379" y2="25"/>
			<line fill="none" stroke="#EB272A" stroke-width="9.1142" stroke-miterlimit="10" x1="13.534" y1="225" x2="167.379" y2="225"/>
		</g>
		<g>
			<path fill="none" d="M136.236,137.933"/>
		</g>
		<g>
			<path fill="none" d="M48.834,137.933"/>
		</g>
		<g>
			<g>
				<path fill="none" d="M72.458,98.072"/>
			</g>
			<g>
				<path fill="none" d="M108.459,98.072"/>
			</g>
			<path fill="#FFFFFF" stroke="#000000" stroke-width="4.5571" stroke-miterlimit="10" d="M74.924,98.072
				c0,3.146-2.552,5.696-5.696,5.696H39.687c-3.147,0-5.696-2.55-5.696-5.696l0,0c0-3.146,2.549-5.696,5.696-5.696h29.542
				C72.373,92.376,74.924,94.926,74.924,98.072L74.924,98.072z"/>
			<path fill="#FFFFFF" stroke="#000000" stroke-width="4.5571" stroke-miterlimit="10" d="M146.927,98.072
				c0,3.146-2.55,5.696-5.696,5.696h-29.54c-3.148,0-5.698-2.55-5.698-5.696l0,0c0-3.146,2.55-5.696,5.698-5.696h29.54
				C144.377,92.376,146.927,94.926,146.927,98.072L146.927,98.072z"/>
			<circle fill="#FFFFFF" stroke="#000000" stroke-width="4.0688" stroke-miterlimit="10" cx="90.458" cy="98.072" r="5.696"/>
		</g>
		<g>
			<circle fill="#FFFFFF" stroke="#000000" stroke-width="4.0688" stroke-miterlimit="10" cx="54.912" cy="125.415" r="5.696"/>
			<circle fill="#FFFFFF" stroke="#000000" stroke-width="4.0688" stroke-miterlimit="10" cx="126.002" cy="125.415" r="5.696"/>
			<circle fill="#FFFFFF" stroke="#000000" stroke-width="4.0688" stroke-miterlimit="10" cx="90.457" cy="125.415" r="5.696"/>
		</g>
		<g>
			<path fill="none" d="M72.457,152.759"/>
		</g>
		<g>
			<path fill="none" d="M108.458,152.759"/>
		</g>
		<path fill="#FFFFFF" stroke="#000000" stroke-width="4.5571" stroke-miterlimit="10" d="M74.922,152.759
			c0,3.144-2.551,5.695-5.696,5.695H39.685c-3.147,0-5.697-2.552-5.697-5.695l0,0c0-3.147,2.55-5.698,5.697-5.698h29.541
			C72.371,147.061,74.922,149.611,74.922,152.759L74.922,152.759z"/>
		<path fill="#FFFFFF" stroke="#000000" stroke-width="4.5571" stroke-miterlimit="10" d="M146.925,152.759
			c0,3.144-2.549,5.695-5.696,5.695h-29.54c-3.149,0-5.698-2.552-5.698-5.695l0,0c0-3.147,2.549-5.698,5.698-5.698h29.54
			C144.376,147.061,146.925,149.611,146.925,152.759L146.925,152.759z"/>
		<circle fill="#FFFFFF" stroke="#000000" stroke-width="4.0688" stroke-miterlimit="10" cx="90.457" cy="152.759" r="5.696"/>
	</g>
	<g>
		<path fill="#1EBFCE" stroke="#4468B1" stroke-width="5.9925" stroke-miterlimit="10" d="M234.682,167.319
			c-10.935,0-19.805-8.865-19.805-19.803V44.805c0-10.938,8.87-19.805,19.805-19.805l0,0c10.938,0,19.806,8.867,19.806,19.805
			v102.712C254.488,158.454,245.62,167.319,234.682,167.319L234.682,167.319z"/>
		<path fill="#1EBFCE" stroke="#4468B1" stroke-width="5.9925" stroke-miterlimit="10" d="M260.523,166.198
			c0,14.274-11.566,25.845-25.841,25.845c-14.271,0-25.841-11.57-25.841-25.845c0-14.275,11.569-25.844,25.841-25.844
			C248.958,140.354,260.523,151.923,260.523,166.198z"/>
		<g>
			<line fill="none" stroke="#4468B1" stroke-width="5.9925" stroke-miterlimit="10" x1="214.877" y1="125" x2="227.566" y2="125"/>
			
				<line fill="none" stroke="#4468B1" stroke-width="5.9925" stroke-miterlimit="10" x1="214.877" y1="110.02" x2="227.566" y2="110.02"/>
			
				<line fill="none" stroke="#4468B1" stroke-width="5.9925" stroke-miterlimit="10" x1="214.877" y1="95.038" x2="227.566" y2="95.038"/>
			
				<line fill="none" stroke="#4468B1" stroke-width="5.9925" stroke-miterlimit="10" x1="214.877" y1="80.056" x2="227.566" y2="80.056"/>
			
				<line fill="none" stroke="#4468B1" stroke-width="5.9925" stroke-miterlimit="10" x1="214.877" y1="65.073" x2="227.566" y2="65.073"/>
			
				<line fill="none" stroke="#4468B1" stroke-width="5.9925" stroke-miterlimit="10" x1="214.877" y1="50.094" x2="227.566" y2="50.094"/>
		</g>
		<rect x="217.858" y="136.61" fill="#1EBFCE" width="33.405" height="16.898"/>
		<g>
			<polygon fill="#4468B1" points="238.427,192.043 234.682,225 230.937,192.043 			"/>
		</g>
		<g>
			<polygon fill="#4468B1" points="257.91,182.795 254.488,204.277 251.065,182.795 			"/>
		</g>
		<g>
			<polygon fill="#4468B1" points="218.96,182.795 215.538,204.277 212.115,182.795 			"/>
		</g>
		<g>
			<polygon fill="#4468B1" points="228.244,189.956 224.499,213.265 220.753,189.956 			"/>
		</g>
		<g>
			<polygon fill="#4468B1" points="249.218,189.956 245.473,213.265 241.728,189.956 			"/>
		</g>
	</g>
	<g>
		<g>
			<path fill="#1C2C18" stroke="#63BC46" stroke-width="11.5207" d="M516.729,174.774c0,7.635-6.186,13.827-13.82,13.827h-99.549
				c-7.637,0-13.826-6.192-13.826-13.827V75.227c0-7.632,6.189-13.824,13.826-13.824h99.549c7.635,0,13.82,6.191,13.82,13.824
				V174.774z"/>
			<g>
				<g>
					<g>
						<path fill="#25441E" d="M453.283,125.073c58.479,30.912,56.861-7.486,55.342-10.231"/>
						<path fill="#63BC46" d="M454.741,122.201c0,0,0.991,0.56,2.726,1.541c0.863,0.475,1.928,1.119,3.12,1.734
							c1.195,0.624,2.545,1.328,4.018,2.096c1.508,0.71,3.139,1.507,4.883,2.295c1.762,0.723,3.603,1.577,5.563,2.247
							c1.943,0.752,3.99,1.367,6.081,1.957c1.051,0.241,2.11,0.537,3.181,0.744c1.072,0.162,2.153,0.416,3.235,0.51
							c1.081,0.093,2.172,0.249,3.246,0.219c0.538-0.001,1.082,0.031,1.615,0.003c0.532-0.043,1.063-0.086,1.591-0.129
							c2.093-0.254,4.142-0.726,5.942-1.61c1.797-0.879,3.355-2.088,4.584-3.487c1.233-1.396,2.143-2.959,2.797-4.487
							c1.265-3.088,1.613-5.947,1.64-7.913c0.025-0.99-0.052-1.767-0.133-2.291c-0.049-0.26-0.082-0.463-0.138-0.589
							c-0.044-0.13-0.067-0.198-0.067-0.198s0.029,0.065,0.085,0.191c0.067,0.124,0.118,0.322,0.191,0.581
							c0.128,0.52,0.275,1.297,0.338,2.298c0.07,1,0.095,2.225-0.045,3.623c-0.135,1.397-0.397,2.976-0.927,4.647
							c-0.545,1.662-1.359,3.42-2.575,5.072c-1.208,1.652-2.834,3.172-4.779,4.345c-1.949,1.181-4.198,1.919-6.508,2.407
							c-0.582,0.1-1.166,0.199-1.752,0.299c-0.588,0.083-1.178,0.104-1.771,0.157c-1.191,0.133-2.37,0.074-3.562,0.076
							c-1.19-0.002-2.354-0.164-3.535-0.241c-1.169-0.12-2.313-0.33-3.464-0.491c-2.268-0.426-4.499-0.891-6.601-1.494
							c-2.135-0.527-4.114-1.237-6.031-1.835c-1.887-0.658-3.648-1.333-5.288-1.936c-1.621-0.671-3.107-1.286-4.424-1.832
							c-1.325-0.545-2.382-1.065-3.303-1.471c-1.814-0.823-2.851-1.293-2.851-1.293L454.741,122.201z"/>
					</g>
					<g>
						<path fill="#25441E" d="M453.234,124.954c-31.859,57.956,6.559,56.969,9.332,55.492"/>
						<path fill="#63BC46" d="M456.082,126.458c0,0-0.576,0.982-1.585,2.7c-0.489,0.855-1.149,1.909-1.785,3.091
							c-0.644,1.186-1.369,2.523-2.161,3.982c-0.733,1.496-1.558,3.114-2.373,4.845c-0.753,1.75-1.636,3.576-2.338,5.526
							c-0.783,1.931-1.432,3.967-2.056,6.047c-0.259,1.047-0.571,2.101-0.796,3.169c-0.18,1.068-0.451,2.146-0.563,3.226
							c-0.11,1.079-0.284,2.168-0.271,3.242c-0.007,0.538-0.049,1.081-0.028,1.615c0.034,0.532,0.068,1.063,0.103,1.592
							c0.221,2.097,0.66,4.152,1.516,5.967c0.85,1.811,2.034,3.389,3.413,4.639c1.377,1.256,2.925,2.189,4.441,2.868
							c3.066,1.314,5.92,1.709,7.886,1.767c0.989,0.042,1.768-0.023,2.292-0.095c0.262-0.046,0.464-0.075,0.591-0.129
							c0.132-0.042,0.199-0.064,0.199-0.064s-0.065,0.028-0.192,0.082c-0.124,0.065-0.323,0.113-0.583,0.182
							c-0.521,0.12-1.302,0.255-2.303,0.301c-1.001,0.055-2.227,0.06-3.622-0.103c-1.395-0.158-2.969-0.444-4.632-1.002
							c-1.653-0.57-3.397-1.414-5.03-2.655c-1.633-1.234-3.126-2.884-4.268-4.848c-1.148-1.968-1.852-4.229-2.303-6.545
							c-0.09-0.584-0.18-1.17-0.271-1.758c-0.073-0.589-0.084-1.179-0.128-1.772c-0.114-1.192-0.037-2.371-0.019-3.562
							c0.021-1.19,0.202-2.352,0.298-3.53c0.139-1.168,0.367-2.308,0.548-3.456c0.462-2.26,0.963-4.483,1.602-6.574
							c0.562-2.127,1.304-4.094,1.934-6.001c0.688-1.876,1.391-3.625,2.021-5.256c0.697-1.609,1.337-3.085,1.904-4.393
							c0.566-1.316,1.104-2.364,1.524-3.278c0.853-1.8,1.34-2.829,1.34-2.829L456.082,126.458z"/>
					</g>
					<g>
						<path fill="#25441E" d="M452.979,124.152c-58.477-30.913-56.861,7.485-55.34,10.229"/>
						<path fill="#63BC46" d="M451.521,127.024c0,0-0.991-0.561-2.726-1.541c-0.863-0.475-1.928-1.119-3.119-1.734
							c-1.196-0.624-2.546-1.328-4.019-2.096c-1.508-0.709-3.139-1.507-4.883-2.294c-1.762-0.724-3.603-1.577-5.563-2.247
							c-1.943-0.752-3.989-1.367-6.08-1.958c-1.051-0.241-2.11-0.537-3.181-0.744c-1.072-0.162-2.153-0.416-3.235-0.51
							c-1.081-0.092-2.173-0.249-3.246-0.219c-0.538,0.002-1.082-0.031-1.615-0.003c-0.532,0.043-1.063,0.086-1.591,0.129
							c-2.093,0.254-4.142,0.726-5.942,1.61c-1.797,0.879-3.355,2.088-4.584,3.487c-1.233,1.396-2.143,2.959-2.797,4.487
							c-1.265,3.088-1.612,5.946-1.639,7.913c-0.026,0.989,0.052,1.767,0.132,2.291c0.05,0.26,0.083,0.462,0.138,0.588
							c0.045,0.131,0.068,0.198,0.068,0.198s-0.029-0.065-0.085-0.19c-0.067-0.124-0.118-0.322-0.191-0.581
							c-0.128-0.52-0.276-1.297-0.339-2.298c-0.07-0.999-0.095-2.225,0.045-3.623c0.135-1.396,0.397-2.976,0.928-4.647
							c0.544-1.663,1.358-3.42,2.574-5.072c1.208-1.653,2.834-3.172,4.779-4.345c1.949-1.18,4.199-1.918,6.508-2.407
							c0.582-0.099,1.166-0.199,1.752-0.298c0.588-0.083,1.178-0.103,1.771-0.157c1.19-0.134,2.37-0.075,3.562-0.077
							c1.19,0.001,2.354,0.164,3.534,0.241c1.17,0.121,2.313,0.33,3.465,0.492c2.268,0.425,4.499,0.89,6.6,1.494
							c2.136,0.527,4.115,1.237,6.032,1.835c1.887,0.658,3.647,1.332,5.288,1.935c1.621,0.671,3.106,1.287,4.424,1.832
							c1.324,0.545,2.382,1.065,3.302,1.471c1.814,0.823,2.851,1.294,2.851,1.294L451.521,127.024z"/>
					</g>
					<g>
						<path fill="#25441E" d="M453.377,124.979c31.188-58.323-7.219-56.894-9.973-55.386"/>
						<path fill="#63BC46" d="M450.512,123.507c0,0,0.565-0.988,1.554-2.718c0.479-0.861,1.128-1.922,1.749-3.112
							c0.63-1.193,1.341-2.539,2.115-4.008c0.717-1.504,1.521-3.132,2.317-4.872c0.731-1.758,1.595-3.595,2.273-5.553
							c0.761-1.94,1.386-3.983,1.985-6.071c0.247-1.049,0.548-2.107,0.759-3.177c0.168-1.071,0.427-2.151,0.526-3.232
							c0.097-1.081,0.258-2.171,0.233-3.246c0-0.538,0.036-1.082,0.01-1.615c-0.041-0.532-0.081-1.063-0.121-1.591
							c-0.244-2.094-0.708-4.145-1.584-5.949c-0.871-1.801-2.073-3.365-3.467-4.6c-1.391-1.24-2.949-2.156-4.474-2.817
							c-3.082-1.279-5.939-1.641-7.905-1.677c-0.989-0.031-1.768,0.043-2.292,0.121c-0.26,0.048-0.463,0.08-0.589,0.135
							c-0.131,0.044-0.198,0.067-0.198,0.067s0.065-0.029,0.191-0.084c0.124-0.066,0.322-0.117,0.581-0.188
							c0.521-0.125,1.299-0.27,2.3-0.327c1-0.066,2.225-0.084,3.623,0.062c1.396,0.142,2.974,0.411,4.643,0.949
							c1.659,0.552,3.413,1.375,5.061,2.598c1.646,1.215,3.159,2.848,4.323,4.799c1.17,1.954,1.9,4.207,2.378,6.518
							c0.096,0.583,0.192,1.167,0.29,1.754c0.081,0.588,0.098,1.178,0.148,1.771c0.128,1.191,0.064,2.371,0.061,3.561
							c-0.007,1.191-0.175,2.354-0.257,3.534c-0.126,1.169-0.342,2.312-0.509,3.462c-0.436,2.266-0.911,4.495-1.524,6.593
							c-0.538,2.133-1.257,4.109-1.864,6.023c-0.667,1.884-1.35,3.642-1.96,5.279c-0.679,1.618-1.302,3.101-1.853,4.415
							c-0.552,1.323-1.077,2.377-1.487,3.295c-0.831,1.81-1.307,2.844-1.307,2.844L450.512,123.507z"/>
					</g>
					<path fill="#25441E" stroke="#63BC46" stroke-width="4.0263" d="M451.076,137.6c-7.125-1.258-11.885-8.054-10.629-15.183
						c1.258-7.126,8.055-11.885,15.18-10.626c7.127,1.254,11.889,8.052,10.629,15.181
						C465.002,134.095,458.201,138.854,451.076,137.6z"/>
				</g>
				<g>
					<g>
						<path fill="#25441E" d="M453.291,124.946c63.205-19.491,34.91-45.501,31.896-46.367"/>
						<path fill="#63BC46" d="M452.291,121.884c0,0,1.097-0.305,3.017-0.837c0.946-0.275,2.154-0.572,3.433-0.98
							c1.287-0.404,2.739-0.861,4.323-1.358c1.567-0.565,3.284-1.155,5.074-1.831c1.758-0.734,3.663-1.433,5.523-2.345
							c1.905-0.843,3.788-1.854,5.683-2.916c0.914-0.572,1.872-1.112,2.775-1.723c0.873-0.643,1.817-1.228,2.648-1.926
							c0.829-0.7,1.712-1.36,2.45-2.142c0.379-0.381,0.787-0.743,1.144-1.14l1.033-1.215c1.301-1.66,2.415-3.443,3.063-5.341
							c0.649-1.892,0.896-3.85,0.775-5.707c-0.115-1.86-0.577-3.607-1.195-5.151c-1.288-3.077-3.063-5.346-4.436-6.755
							c-0.681-0.718-1.285-1.213-1.713-1.527c-0.219-0.149-0.385-0.269-0.514-0.319c-0.124-0.061-0.188-0.092-0.188-0.092
							s0.066,0.025,0.195,0.075c0.135,0.04,0.311,0.145,0.545,0.275c0.458,0.277,1.112,0.722,1.864,1.386
							c0.757,0.657,1.641,1.506,2.53,2.594c0.892,1.083,1.822,2.385,2.63,3.942c0.79,1.56,1.457,3.379,1.766,5.407
							c0.314,2.023,0.239,4.247-0.307,6.452c-0.544,2.212-1.611,4.326-2.898,6.303c-0.342,0.482-0.685,0.966-1.028,1.451
							c-0.356,0.474-0.76,0.906-1.141,1.363c-0.748,0.937-1.623,1.729-2.464,2.572c-0.843,0.841-1.781,1.549-2.67,2.33
							c-0.912,0.742-1.869,1.402-2.797,2.102c-1.904,1.303-3.811,2.552-5.724,3.611c-1.883,1.137-3.784,2.035-5.563,2.967
							c-1.799,0.869-3.521,1.638-5.107,2.371c-1.621,0.672-3.106,1.287-4.424,1.833c-1.322,0.551-2.437,0.931-3.375,1.295
							c-1.864,0.7-2.93,1.101-2.93,1.101L452.291,121.884z"/>
					</g>
					<g>
						<path fill="#25441E" d="M453.17,124.891c18.457,63.517,44.928,35.648,45.84,32.644"/>
						<path fill="#63BC46" d="M456.248,123.941c0,0,0.286,1.102,0.788,3.03c0.259,0.951,0.537,2.163,0.924,3.448
							c0.383,1.293,0.815,2.753,1.288,4.345c0.539,1.577,1.101,3.304,1.747,5.104c0.706,1.769,1.373,3.686,2.255,5.561
							c0.812,1.919,1.793,3.817,2.823,5.73c0.557,0.923,1.081,1.89,1.678,2.803c0.629,0.883,1.198,1.837,1.883,2.68
							c0.687,0.841,1.333,1.733,2.102,2.484c0.375,0.385,0.73,0.799,1.121,1.162l1.199,1.054c1.639,1.327,3.403,2.47,5.29,3.148
							c1.882,0.68,3.835,0.958,5.694,0.867c1.861-0.085,3.616-0.52,5.169-1.112c3.099-1.239,5.395-2.978,6.825-4.327
							c0.729-0.67,1.233-1.267,1.554-1.688c0.152-0.217,0.275-0.382,0.327-0.509c0.063-0.123,0.095-0.187,0.095-0.187
							s-0.026,0.066-0.078,0.193c-0.042,0.135-0.148,0.31-0.283,0.542c-0.284,0.453-0.74,1.101-1.415,1.842
							c-0.67,0.746-1.532,1.616-2.635,2.488c-1.098,0.875-2.413,1.785-3.983,2.566c-1.572,0.766-3.402,1.403-5.436,1.679
							c-2.027,0.282-4.25,0.172-6.446-0.41c-2.203-0.58-4.299-1.682-6.256-3.001c-0.476-0.349-0.954-0.7-1.434-1.052
							c-0.469-0.364-0.893-0.774-1.344-1.163c-0.924-0.762-1.702-1.65-2.532-2.505c-0.827-0.856-1.521-1.806-2.285-2.707
							c-0.728-0.925-1.372-1.893-2.057-2.832c-1.271-1.925-2.49-3.852-3.517-5.781c-1.106-1.901-1.973-3.817-2.877-5.61
							c-0.839-1.813-1.579-3.548-2.287-5.146c-0.646-1.631-1.236-3.127-1.761-4.452c-0.529-1.332-0.891-2.453-1.24-3.396
							c-0.67-1.876-1.053-2.948-1.053-2.948L456.248,123.941z"/>
					</g>
					<g>
						<path fill="#25441E" d="M452.426,124.508c-63.211,19.488-34.916,45.501-31.9,46.365"/>
						<path fill="#63BC46" d="M453.426,127.569c0,0-1.098,0.305-3.017,0.838c-0.947,0.274-2.154,0.572-3.433,0.979
							c-1.287,0.404-2.739,0.861-4.324,1.358c-1.567,0.564-3.284,1.154-5.075,1.831c-1.757,0.733-3.663,1.432-5.522,2.345
							c-1.906,0.842-3.789,1.854-5.685,2.915c-0.913,0.572-1.871,1.112-2.775,1.723c-0.872,0.644-1.816,1.229-2.648,1.927
							c-0.829,0.699-1.712,1.36-2.45,2.142c-0.379,0.381-0.787,0.743-1.145,1.14l-1.033,1.216c-1.301,1.659-2.416,3.442-3.063,5.341
							c-0.649,1.892-0.896,3.85-0.775,5.707c0.114,1.859,0.577,3.607,1.194,5.15c1.289,3.078,3.064,5.347,4.437,6.755
							c0.682,0.719,1.286,1.213,1.713,1.527c0.22,0.148,0.386,0.269,0.515,0.318c0.123,0.061,0.188,0.092,0.188,0.092
							s-0.066-0.025-0.195-0.075c-0.135-0.039-0.311-0.144-0.546-0.274c-0.457-0.277-1.111-0.723-1.863-1.386
							c-0.757-0.657-1.641-1.506-2.531-2.594c-0.892-1.084-1.822-2.385-2.63-3.942c-0.791-1.56-1.457-3.38-1.766-5.407
							c-0.314-2.023-0.239-4.247,0.307-6.452c0.544-2.213,1.612-4.326,2.9-6.304c0.341-0.481,0.684-0.965,1.027-1.45
							c0.357-0.475,0.76-0.905,1.142-1.363c0.747-0.936,1.623-1.729,2.464-2.571c0.844-0.842,1.781-1.55,2.67-2.33
							c0.912-0.741,1.87-1.402,2.798-2.102c1.904-1.303,3.811-2.552,5.724-3.61c1.883-1.137,3.785-2.034,5.563-2.967
							c1.8-0.869,3.521-1.638,5.107-2.371c1.621-0.671,3.107-1.287,4.424-1.833c1.322-0.551,2.438-0.931,3.376-1.295
							c1.864-0.7,2.93-1.101,2.93-1.101L453.426,127.569z"/>
					</g>
					<g>
						<path fill="#25441E" d="M453.289,124.81c-19.186-63.291-45.332-35.124-46.215-32.112"/>
						<path fill="#63BC46" d="M450.223,125.795c0,0-0.3-1.098-0.823-3.02c-0.271-0.948-0.562-2.157-0.964-3.438
							c-0.397-1.289-0.848-2.743-1.338-4.329c-0.557-1.571-1.139-3.291-1.806-5.083c-0.726-1.761-1.415-3.669-2.319-5.534
							c-0.833-1.91-1.836-3.796-2.889-5.697c-0.567-0.917-1.103-1.877-1.71-2.783c-0.639-0.875-1.219-1.823-1.914-2.657
							c-0.695-0.833-1.352-1.718-2.129-2.46c-0.38-0.38-0.739-0.791-1.135-1.149l-1.211-1.039c-1.654-1.308-3.432-2.43-5.326-3.087
							c-1.89-0.657-3.846-0.914-5.704-0.801c-1.859,0.107-3.609,0.562-5.155,1.171c-3.084,1.274-5.36,3.039-6.776,4.403
							c-0.722,0.678-1.219,1.28-1.535,1.706c-0.149,0.218-0.271,0.384-0.321,0.512c-0.062,0.124-0.093,0.188-0.093,0.188
							s0.025-0.066,0.076-0.194c0.04-0.135,0.146-0.311,0.277-0.544c0.279-0.457,0.729-1.108,1.396-1.857
							c0.661-0.753,1.514-1.633,2.605-2.518c1.088-0.887,2.394-1.812,3.954-2.611c1.564-0.784,3.387-1.441,5.415-1.741
							c2.024-0.305,4.248-0.22,6.45,0.336c2.21,0.554,4.318,1.631,6.29,2.928c0.48,0.344,0.962,0.688,1.446,1.035
							c0.473,0.358,0.901,0.764,1.357,1.147c0.933,0.752,1.722,1.631,2.561,2.476c0.838,0.847,1.541,1.789,2.316,2.681
							c0.738,0.916,1.394,1.876,2.089,2.807c1.294,1.91,2.534,3.822,3.583,5.74c1.129,1.888,2.017,3.794,2.941,5.576
							c0.86,1.804,1.62,3.529,2.347,5.119c0.663,1.624,1.272,3.112,1.812,4.432c0.545,1.325,0.919,2.442,1.279,3.381
							c0.691,1.868,1.086,2.935,1.086,2.935L450.223,125.795z"/>
					</g>
					<circle fill="#25441E" stroke="#63BC46" stroke-width="4.0263" cx="453.071" cy="124.627" r="13.103"/>
				</g>
			</g>
		</g>
		<g>
			<path fill="none" stroke="#EB272A" stroke-width="11.7334" stroke-miterlimit="10" d="M526.467,178.509
				c0,10.95-8.879,19.823-19.828,19.823H399.623c-10.945,0-19.822-8.873-19.822-19.823V71.5c0-10.956,8.877-19.834,19.822-19.834
				h107.016c10.949,0,19.828,8.878,19.828,19.834V178.509z"/>
			
				<line fill="none" stroke="#EB272A" stroke-width="11.7334" stroke-miterlimit="10" x1="379.801" y1="71.5" x2="526.467" y2="178.509"/>
			
				<line fill="none" stroke="#EB272A" stroke-width="11.7334" stroke-miterlimit="10" x1="526.467" y1="71.5" x2="379.801" y2="178.509"/>
		</g>
	</g>
	<g>
		<line fill="none" stroke="#000000" stroke-width="11.7334" stroke-miterlimit="10" x1="289.321" y1="125" x2="345.321" y2="125"/>
		
			<line fill="none" stroke="#000000" stroke-width="11.7334" stroke-miterlimit="10" x1="317.321" y1="152.999" x2="317.321" y2="97"/>
	</g>
</g>
</svg>
