<?xml version="1.0" encoding="utf-8"?>
<!-- Generator: Adobe Illustrator 16.0.0, SVG Export Plug-In . SVG Version: 6.00 Build 0)  -->
<!DOCTYPE svg PUBLIC "-//W3C//DTD SVG 1.1//EN" "http://www.w3.org/Graphics/SVG/1.1/DTD/svg11.dtd">
<svg version="1.1" id="Layer_1" xmlns="http://www.w3.org/2000/svg" xmlns:xlink="http://www.w3.org/1999/xlink" x="0px" y="0px"
	 width="550px" height="250px" viewBox="0 0 550 250" enable-background="new 0 0 550 250" xml:space="preserve">
<g>
	<g>
		
			<rect x="112.658" y="72.335" fill="#C0C0C0" stroke="#654566" stroke-width="5.0128" stroke-miterlimit="10" width="76.926" height="104.617"/>
		
			<line fill="none" stroke="#996699" stroke-width="5.0128" stroke-miterlimit="10" x1="108.813" y1="69.644" x2="193.428" y2="69.644"/>
		
			<line fill="none" stroke="#996699" stroke-width="5.0128" stroke-miterlimit="10" x1="108.813" y1="179.644" x2="193.428" y2="179.644"/>
	</g>
	<g>
		<path fill="none" d="M176.299,131.757"/>
	</g>
	<g>
		<path fill="none" d="M128.228,131.757"/>
	</g>
	<g>
		<path fill="none" d="M141.22,139.911"/>
	</g>
	<g>
		<path fill="none" d="M161.021,139.911"/>
	</g>
	<g>
		<g>
			<g>
				<path fill="none" stroke="#A09F9F" stroke-width="2.5" stroke-miterlimit="10" d="M141.221,109.833"/>
			</g>
			<g>
				<path fill="none" stroke="#A09F9F" stroke-width="2.5" stroke-miterlimit="10" d="M161.021,109.833"/>
			</g>
			<path fill="none" stroke="#A09F9F" stroke-width="2.5" stroke-miterlimit="10" d="M142.577,109.833
				c0,1.73-1.403,3.133-3.133,3.133h-16.248c-1.73,0-3.133-1.402-3.133-3.133l0,0c0-1.73,1.402-3.133,3.133-3.133h16.248
				C141.174,106.7,142.577,108.103,142.577,109.833L142.577,109.833z"/>
			<path fill="none" stroke="#A09F9F" stroke-width="2.5" stroke-miterlimit="10" d="M182.179,109.833
				c0,1.73-1.402,3.133-3.133,3.133h-16.247c-1.731,0-3.134-1.402-3.134-3.133l0,0c0-1.73,1.402-3.133,3.134-3.133h16.247
				C180.776,106.7,182.179,108.103,182.179,109.833L182.179,109.833z"/>
			<circle fill="none" stroke="#A09F9F" stroke-width="2.5" stroke-miterlimit="10" cx="151.121" cy="109.833" r="3.133"/>
		</g>
		<g>
			<circle fill="none" stroke="#A09F9F" stroke-width="2.5" stroke-miterlimit="10" cx="131.57" cy="124.872" r="3.133"/>
			<circle fill="none" stroke="#A09F9F" stroke-width="2.5" stroke-miterlimit="10" cx="170.67" cy="124.872" r="3.133"/>
			<circle fill="none" stroke="#A09F9F" stroke-width="2.5" stroke-miterlimit="10" cx="151.12" cy="124.872" r="3.133"/>
		</g>
		<path fill="none" stroke="#A09F9F" stroke-width="2.5" stroke-miterlimit="10" d="M142.576,139.911
			c0,1.729-1.403,3.133-3.133,3.133h-16.248c-1.73,0-3.133-1.404-3.133-3.133l0,0c0-1.73,1.402-3.133,3.133-3.133h16.248
			C141.173,136.778,142.576,138.181,142.576,139.911L142.576,139.911z"/>
		<path fill="none" stroke="#A09F9F" stroke-width="2.5" stroke-miterlimit="10" d="M182.178,139.911
			c0,1.729-1.402,3.133-3.133,3.133h-16.247c-1.731,0-3.134-1.404-3.134-3.133l0,0c0-1.73,1.402-3.133,3.134-3.133h16.247
			C180.775,136.778,182.178,138.181,182.178,139.911L182.178,139.911z"/>
		<circle fill="none" stroke="#A09F9F" stroke-width="2.5" stroke-miterlimit="10" cx="151.12" cy="139.911" r="3.133"/>
	</g>
</g>
<g>
	<path fill="#3399CC" stroke="#4468B1" stroke-width="4.0916" stroke-miterlimit="10" d="M249.331,153.895
		c-7.467,0-13.521-6.053-13.521-13.521V70.244c0-7.467,6.055-13.521,13.521-13.521l0,0c7.468,0,13.522,6.055,13.522,13.521v70.129
		C262.853,147.842,256.798,153.895,249.331,153.895L249.331,153.895z"/>
	<circle fill="#3399CC" stroke="#4468B1" stroke-width="4.0916" stroke-miterlimit="10" cx="249.331" cy="153.129" r="17.645"/>
	<g>
		<line fill="none" stroke="#4468B1" stroke-width="4.0916" stroke-miterlimit="10" x1="235.809" y1="125" x2="244.472" y2="125"/>
		
			<line fill="none" stroke="#4468B1" stroke-width="4.0916" stroke-miterlimit="10" x1="235.809" y1="114.771" x2="244.472" y2="114.771"/>
		
			<line fill="none" stroke="#4468B1" stroke-width="4.0916" stroke-miterlimit="10" x1="235.809" y1="104.542" x2="244.472" y2="104.542"/>
		
			<line fill="none" stroke="#4468B1" stroke-width="4.0916" stroke-miterlimit="10" x1="235.809" y1="94.313" x2="244.472" y2="94.313"/>
		
			<line fill="none" stroke="#4468B1" stroke-width="4.0916" stroke-miterlimit="10" x1="235.809" y1="84.084" x2="244.472" y2="84.084"/>
		
			<line fill="none" stroke="#4468B1" stroke-width="4.0916" stroke-miterlimit="10" x1="235.809" y1="73.855" x2="244.472" y2="73.855"/>
	</g>
	<rect x="237.842" y="132.928" fill="#3399CC" width="22.809" height="11.537"/>
	<g>
		<polygon fill="#4468B1" points="251.888,170.775 249.331,193.277 246.773,170.775 		"/>
	</g>
	<g>
		<polygon fill="#4468B1" points="265.19,164.461 262.853,179.129 260.516,164.461 		"/>
	</g>
	<g>
		<polygon fill="#4468B1" points="238.595,164.461 236.258,179.129 233.921,164.461 		"/>
	</g>
	<g>
		<polygon fill="#4468B1" points="244.934,169.35 242.376,185.266 239.819,169.35 		"/>
	</g>
	<g>
		<polygon fill="#4468B1" points="259.255,169.35 256.698,185.266 254.141,169.35 		"/>
	</g>
</g>
<g>
	<g>
		<path fill="#1C2C18" stroke="#6EC498" stroke-width="7.8661" d="M434.473,158.985c0,5.213-4.225,9.439-9.438,9.439h-67.969
			c-5.213,0-9.439-4.227-9.439-9.439v-67.97c0-5.211,4.227-9.438,9.439-9.438h67.969c5.213,0,9.438,4.228,9.438,9.438V158.985z"/>
		<g>
			<g>
				<g>
					<path fill="#25441E" d="M391.154,125.05c39.926,21.105,38.822-5.112,37.785-6.985"/>
					<path fill="#6EC498" d="M392.149,123.089c0,0,0.677,0.383,1.861,1.052c0.59,0.324,1.315,0.764,2.13,1.185
						c0.816,0.426,1.738,0.906,2.743,1.431c1.029,0.484,2.144,1.028,3.334,1.566c1.203,0.494,2.46,1.077,3.799,1.534
						c1.326,0.514,2.724,0.934,4.151,1.337c0.717,0.164,1.44,0.366,2.172,0.508c0.731,0.11,1.47,0.284,2.208,0.349
						c0.738,0.063,1.483,0.169,2.217,0.148c0.367-0.001,0.739,0.021,1.103,0.002l1.087-0.088c1.429-0.173,2.827-0.496,4.057-1.1
						c1.227-0.6,2.291-1.426,3.13-2.381c0.842-0.953,1.463-2.021,1.909-3.063c0.864-2.108,1.102-4.061,1.12-5.402
						c0.018-0.676-0.035-1.207-0.09-1.564c-0.054-0.359-0.141-0.537-0.141-0.537s0.103,0.169,0.188,0.526
						c0.087,0.355,0.188,0.886,0.23,1.569c0.1,1.36,0.044,3.355-0.664,5.646c-0.371,1.135-0.928,2.335-1.758,3.463
						c-0.825,1.129-1.935,2.166-3.263,2.967c-1.331,0.806-2.867,1.311-4.443,1.644l-1.196,0.204
						c-0.401,0.057-0.804,0.07-1.209,0.107c-0.813,0.091-1.618,0.051-2.431,0.052c-0.813-0.001-1.608-0.111-2.414-0.164
						c-0.799-0.082-1.579-0.226-2.365-0.336c-1.548-0.29-3.072-0.607-4.506-1.02c-1.459-0.36-2.81-0.846-4.118-1.254
						c-1.289-0.449-2.491-0.909-3.611-1.321c-1.106-0.458-2.121-0.878-3.021-1.25c-0.904-0.372-1.626-0.728-2.255-1.004
						c-1.238-0.563-1.945-0.884-1.945-0.884L392.149,123.089z"/>
				</g>
				<g>
					<path fill="#25441E" d="M391.121,124.969c-21.754,39.571,4.479,38.897,6.371,37.888"/>
					<path fill="#6EC498" d="M393.065,125.996c0,0-0.394,0.67-1.082,1.844c-0.334,0.584-0.785,1.303-1.219,2.11
						c-0.439,0.81-0.936,1.723-1.476,2.719c-0.501,1.021-1.063,2.126-1.621,3.308c-0.514,1.195-1.117,2.442-1.596,3.773
						c-0.535,1.318-0.978,2.708-1.404,4.129c-0.176,0.715-0.39,1.435-0.543,2.163c-0.122,0.729-0.309,1.465-0.384,2.202
						s-0.194,1.48-0.186,2.215c-0.005,0.366-0.033,0.738-0.02,1.102l0.07,1.088c0.15,1.432,0.45,2.835,1.034,4.073
						c0.58,1.236,1.389,2.314,2.33,3.168c0.94,0.857,1.997,1.494,3.033,1.958c2.094,0.897,4.042,1.166,5.384,1.206
						c0.676,0.028,1.207-0.017,1.565-0.065c0.36-0.048,0.539-0.132,0.539-0.132s-0.171,0.1-0.529,0.181
						c-0.356,0.081-0.889,0.174-1.572,0.205c-1.362,0.078-3.356-0.01-5.636-0.754c-1.129-0.39-2.319-0.965-3.435-1.813
						c-1.115-0.842-2.135-1.969-2.914-3.31c-0.783-1.344-1.264-2.887-1.571-4.469l-0.185-1.199
						c-0.051-0.402-0.058-0.806-0.088-1.211c-0.078-0.814-0.025-1.619-0.013-2.432c0.014-0.813,0.138-1.605,0.203-2.41
						c0.096-0.798,0.251-1.576,0.375-2.359c0.315-1.544,0.657-3.062,1.093-4.489c0.384-1.452,0.891-2.796,1.32-4.098
						c0.47-1.28,0.95-2.475,1.38-3.588c0.477-1.1,0.913-2.106,1.3-3c0.387-0.898,0.754-1.613,1.041-2.237
						c0.582-1.229,0.915-1.932,0.915-1.932L393.065,125.996z"/>
				</g>
				<g>
					<path fill="#25441E" d="M390.945,124.421c-39.926-21.106-38.824,5.112-37.783,6.985"/>
					<path fill="#6EC498" d="M389.949,126.382c0,0-0.676-0.383-1.86-1.052c-0.59-0.324-1.316-0.764-2.13-1.185
						c-0.816-0.426-1.738-0.906-2.743-1.431c-1.03-0.484-2.144-1.029-3.334-1.566c-1.203-0.494-2.46-1.077-3.799-1.535
						c-1.327-0.513-2.724-0.934-4.151-1.336c-0.718-0.165-1.44-0.366-2.172-0.508c-0.732-0.111-1.471-0.284-2.209-0.349
						c-0.738-0.063-1.483-0.17-2.217-0.149c-0.367,0.001-0.738-0.021-1.103-0.002l-1.086,0.088
						c-1.429,0.174-2.828,0.496-4.057,1.101c-1.228,0.6-2.292,1.425-3.13,2.381c-0.843,0.953-1.463,2.021-1.91,3.063
						c-0.863,2.108-1.101,4.061-1.118,5.403c-0.018,0.676,0.035,1.206,0.091,1.563c0.054,0.36,0.141,0.537,0.141,0.537
						s-0.103-0.169-0.189-0.526c-0.087-0.354-0.188-0.886-0.231-1.569c-0.1-1.36-0.044-3.355,0.663-5.646
						c0.372-1.135,0.928-2.335,1.758-3.463c0.825-1.129,1.936-2.167,3.264-2.968c1.33-0.805,2.866-1.31,4.442-1.644l1.197-0.203
						c0.4-0.057,0.804-0.07,1.208-0.107c0.813-0.091,1.619-0.051,2.432-0.053c0.813,0.001,1.608,0.112,2.414,0.165
						c0.798,0.082,1.579,0.226,2.365,0.336c1.548,0.29,3.071,0.607,4.506,1.02c1.458,0.36,2.81,0.845,4.118,1.253
						c1.289,0.449,2.491,0.91,3.611,1.321c1.106,0.459,2.121,0.879,3.021,1.251c0.904,0.372,1.626,0.728,2.255,1.004
						c1.238,0.563,1.946,0.884,1.946,0.884L389.949,126.382z"/>
				</g>
				<g>
					<path fill="#25441E" d="M391.217,124.985c21.295-39.821-4.928-38.845-6.809-37.816"/>
					<path fill="#6EC498" d="M389.261,123.98c0,0,0.386-0.675,1.061-1.855c0.327-0.588,0.771-1.313,1.194-2.125
						c0.43-0.814,0.915-1.733,1.444-2.736c0.489-1.027,1.039-2.138,1.582-3.326c0.5-1.2,1.089-2.455,1.553-3.791
						c0.52-1.324,0.946-2.72,1.355-4.146c0.169-0.717,0.374-1.438,0.519-2.169c0.114-0.731,0.291-1.469,0.358-2.207
						c0.066-0.738,0.177-1.482,0.16-2.216c0-0.367,0.024-0.739,0.007-1.103l-0.083-1.087c-0.167-1.43-0.483-2.83-1.081-4.062
						c-0.595-1.229-1.416-2.298-2.367-3.141c-0.949-0.847-2.014-1.472-3.055-1.924c-2.104-0.873-4.056-1.12-5.397-1.145
						c-0.676-0.021-1.207,0.029-1.564,0.082c-0.36,0.052-0.538,0.138-0.538,0.138s0.17-0.102,0.527-0.186
						c0.355-0.086,0.887-0.185,1.57-0.224c1.361-0.094,3.355-0.028,5.644,0.69c1.133,0.377,2.331,0.938,3.455,1.773
						c1.125,0.83,2.157,1.945,2.952,3.277c0.799,1.334,1.297,2.872,1.623,4.45l0.198,1.197c0.056,0.401,0.067,0.805,0.102,1.209
						c0.088,0.813,0.044,1.619,0.041,2.432c-0.004,0.813-0.119,1.607-0.176,2.413c-0.086,0.798-0.232,1.578-0.347,2.363
						c-0.298,1.547-0.622,3.069-1.041,4.502c-0.367,1.456-0.858,2.806-1.272,4.112c-0.456,1.286-0.922,2.486-1.339,3.604
						c-0.464,1.104-0.889,2.117-1.266,3.015c-0.376,0.902-0.734,1.622-1.015,2.25c-0.567,1.235-0.893,1.941-0.893,1.941
						L389.261,123.98z"/>
				</g>
				<circle fill="#25441E" stroke="#63BC46" stroke-width="2.7491" cx="391.201" cy="124.792" r="8.947"/>
			</g>
			<g>
				<g>
					<path fill="#25441E" d="M391.158,124.963c43.156-13.309,23.838-31.066,21.779-31.658"/>
					<path fill="#6EC498" d="M390.476,122.872c0,0,0.749-0.208,2.06-0.571c0.646-0.188,1.471-0.391,2.344-0.669
						c0.879-0.276,1.87-0.588,2.951-0.929c1.071-0.385,2.243-0.788,3.466-1.249c1.199-0.502,2.501-0.979,3.771-1.602
						c1.302-0.575,2.587-1.267,3.881-1.99c0.624-0.392,1.277-0.76,1.895-1.177c0.596-0.439,1.24-0.839,1.809-1.315
						c0.566-0.478,1.169-0.929,1.673-1.462c0.259-0.261,0.537-0.508,0.781-0.778l0.706-0.83c0.888-1.134,1.648-2.351,2.091-3.646
						c0.443-1.292,0.612-2.629,0.529-3.896c-0.078-1.271-0.395-2.464-0.815-3.518c-0.881-2.101-2.093-3.649-3.029-4.611
						c-0.465-0.491-0.878-0.828-1.17-1.043c-0.292-0.216-0.479-0.28-0.479-0.28s0.192,0.048,0.506,0.239
						c0.313,0.189,0.759,0.493,1.272,0.946c1.033,0.892,2.404,2.342,3.523,4.462c0.54,1.065,0.995,2.308,1.206,3.692
						c0.214,1.381,0.163,2.899-0.21,4.405c-0.371,1.511-1.101,2.953-1.979,4.304l-0.702,0.99c-0.243,0.324-0.519,0.618-0.779,0.931
						c-0.51,0.639-1.107,1.181-1.682,1.756c-0.576,0.574-1.217,1.058-1.823,1.591c-0.623,0.506-1.276,0.957-1.91,1.435
						c-1.3,0.89-2.602,1.743-3.907,2.466c-1.286,0.776-2.584,1.389-3.799,2.025c-1.229,0.594-2.404,1.118-3.487,1.619
						c-1.106,0.459-2.121,0.879-3.02,1.252c-0.903,0.376-1.665,0.635-2.305,0.884c-1.273,0.479-2.001,0.752-2.001,0.752
						L390.476,122.872z"/>
				</g>
				<g>
					<path fill="#25441E" d="M391.076,124.926c12.602,43.367,30.676,24.339,31.297,22.287"/>
					<path fill="#6EC498" d="M393.178,124.277c0,0,0.195,0.752,0.538,2.068c0.177,0.649,0.366,1.478,0.631,2.354
						c0.262,0.883,0.557,1.88,0.879,2.967c0.368,1.076,0.752,2.255,1.193,3.484c0.481,1.208,0.938,2.517,1.54,3.797
						c0.554,1.311,1.224,2.606,1.927,3.912c0.381,0.631,0.738,1.29,1.146,1.914c0.43,0.603,0.818,1.254,1.286,1.829
						c0.468,0.574,0.909,1.185,1.435,1.697c0.256,0.263,0.498,0.545,0.766,0.793l0.818,0.719c1.118,0.906,2.323,1.688,3.612,2.15
						c1.284,0.464,2.618,0.654,3.888,0.592c1.271-0.058,2.469-0.354,3.529-0.76c2.115-0.846,3.683-2.033,4.659-2.954
						c0.498-0.457,0.843-0.865,1.061-1.153c0.222-0.289,0.288-0.475,0.288-0.475s-0.05,0.191-0.246,0.502
						c-0.194,0.31-0.506,0.752-0.967,1.258c-0.907,1.019-2.38,2.366-4.518,3.451c-1.074,0.523-2.323,0.958-3.711,1.146
						c-1.385,0.192-2.902,0.117-4.401-0.28c-1.505-0.396-2.936-1.147-4.271-2.049l-0.979-0.718c-0.32-0.249-0.61-0.528-0.918-0.794
						c-0.631-0.521-1.162-1.127-1.729-1.711c-0.565-0.585-1.038-1.232-1.561-1.848c-0.497-0.632-0.938-1.292-1.404-1.934
						c-0.868-1.314-1.7-2.63-2.401-3.947c-0.755-1.298-1.347-2.606-1.964-3.831c-0.573-1.238-1.078-2.422-1.562-3.514
						c-0.44-1.113-0.844-2.135-1.202-3.04c-0.361-0.908-0.608-1.674-0.847-2.318c-0.457-1.28-0.719-2.013-0.719-2.013
						L393.178,124.277z"/>
				</g>
				<g>
					<path fill="#25441E" d="M390.568,124.664c-43.158,13.307-23.84,31.066-21.781,31.657"/>
					<path fill="#6EC498" d="M391.251,126.755c0,0-0.749,0.208-2.06,0.571c-0.646,0.188-1.471,0.391-2.344,0.669
						c-0.879,0.276-1.87,0.588-2.952,0.928c-1.07,0.386-2.243,0.788-3.465,1.25c-1.2,0.501-2.501,0.978-3.771,1.601
						c-1.301,0.575-2.586,1.267-3.881,1.991c-0.624,0.391-1.277,0.759-1.895,1.176c-0.596,0.439-1.241,0.839-1.809,1.315
						c-0.566,0.478-1.169,0.929-1.673,1.462c-0.259,0.261-0.537,0.508-0.781,0.778l-0.706,0.83
						c-0.888,1.134-1.649,2.351-2.091,3.646c-0.443,1.292-0.612,2.628-0.53,3.896c0.078,1.271,0.395,2.464,0.815,3.518
						c0.88,2.101,2.093,3.649,3.029,4.611c0.465,0.491,0.878,0.829,1.169,1.043c0.293,0.216,0.479,0.28,0.479,0.28
						s-0.192-0.048-0.506-0.239c-0.313-0.188-0.759-0.493-1.272-0.946c-1.033-0.892-2.404-2.342-3.523-4.462
						c-0.54-1.065-0.995-2.308-1.205-3.692c-0.215-1.382-0.164-2.9,0.21-4.405c0.371-1.511,1.101-2.953,1.979-4.304l0.702-0.99
						c0.243-0.324,0.519-0.618,0.779-0.931c0.51-0.64,1.107-1.181,1.682-1.756c0.576-0.574,1.217-1.058,1.823-1.591
						c0.623-0.506,1.276-0.957,1.91-1.435c1.3-0.89,2.602-1.742,3.908-2.465c1.285-0.776,2.584-1.39,3.798-2.026
						c1.229-0.593,2.404-1.118,3.488-1.619c1.106-0.458,2.121-0.878,3.02-1.251c0.903-0.376,1.665-0.635,2.305-0.884
						c1.273-0.479,2.001-0.752,2.001-0.752L391.251,126.755z"/>
				</g>
				<g>
					<path fill="#25441E" d="M391.158,124.871c-13.1-43.215-30.951-23.982-31.555-21.926"/>
					<path fill="#6EC498" d="M389.064,125.544c0,0-0.204-0.75-0.563-2.063c-0.185-0.647-0.383-1.473-0.657-2.347
						c-0.272-0.88-0.579-1.873-0.914-2.956c-0.38-1.072-0.777-2.247-1.232-3.471c-0.496-1.202-0.967-2.506-1.584-3.778
						c-0.568-1.305-1.254-2.593-1.972-3.89c-0.388-0.626-0.754-1.282-1.168-1.901c-0.437-0.598-0.832-1.244-1.307-1.813
						s-0.924-1.174-1.454-1.68c-0.259-0.26-0.505-0.54-0.774-0.785l-0.827-0.709c-1.129-0.894-2.343-1.659-3.637-2.107
						c-1.29-0.449-2.626-0.624-3.895-0.548c-1.27,0.073-2.465,0.384-3.521,0.801c-2.104,0.87-3.659,2.074-4.626,3.007
						c-0.492,0.462-0.832,0.873-1.048,1.164c-0.218,0.291-0.283,0.478-0.283,0.478s0.049-0.191,0.241-0.505
						c0.191-0.312,0.497-0.756,0.953-1.268c0.896-1.028,2.354-2.393,4.479-3.502c1.068-0.535,2.313-0.984,3.697-1.188
						c1.383-0.209,2.9-0.15,4.404,0.229c1.509,0.379,2.948,1.114,4.295,1.999l0.987,0.707c0.322,0.245,0.615,0.521,0.927,0.783
						c0.637,0.514,1.176,1.113,1.748,1.69c0.572,0.578,1.053,1.221,1.582,1.83c0.504,0.625,0.951,1.281,1.426,1.917
						c0.884,1.304,1.73,2.609,2.447,3.919c0.77,1.289,1.377,2.591,2.008,3.808c0.587,1.231,1.106,2.41,1.603,3.495
						c0.453,1.109,0.868,2.125,1.236,3.026c0.372,0.904,0.628,1.667,0.873,2.309c0.473,1.275,0.742,2.004,0.742,2.004
						L389.064,125.544z"/>
				</g>
				<path fill="#25441E" stroke="#63BC46" stroke-width="2.7491" d="M396.141,132.074c-4.047,2.834-9.627,1.851-12.461-2.195
					c-2.834-4.051-1.85-9.629,2.197-12.463s9.627-1.85,12.461,2.197C401.172,123.661,400.188,129.24,396.141,132.074z"/>
			</g>
		</g>
	</g>
	<g>
		<path fill="none" stroke="#EE3968" stroke-width="8.0113" stroke-miterlimit="10" d="M441.121,161.534
			c0,7.477-6.063,13.536-13.537,13.536h-73.068c-7.473,0-13.535-6.06-13.535-13.536V88.472c0-7.479,6.063-13.542,13.535-13.542
			h73.068c7.475,0,13.537,6.063,13.537,13.542V161.534z"/>
		
			<line fill="none" stroke="#EE3968" stroke-width="8.0113" stroke-miterlimit="10" x1="340.98" y1="88.472" x2="441.121" y2="161.534"/>
		
			<line fill="none" stroke="#EE3968" stroke-width="8.0113" stroke-miterlimit="10" x1="441.121" y1="88.472" x2="340.98" y2="161.534"/>
	</g>
</g>
<g>
	<line fill="none" stroke="#FFFFFF" stroke-width="8.0113" stroke-miterlimit="10" x1="282.236" y1="125" x2="320.473" y2="125"/>
	
		<line fill="none" stroke="#FFFFFF" stroke-width="8.0113" stroke-miterlimit="10" x1="301.354" y1="144.117" x2="301.354" y2="105.883"/>
</g>
</svg>
