<?xml version="1.0" encoding="utf-8"?>
<!-- Generator: Adobe Illustrator 16.0.0, SVG Export Plug-In . SVG Version: 6.00 Build 0)  -->
<!DOCTYPE svg PUBLIC "-//W3C//DTD SVG 1.1//EN" "http://www.w3.org/Graphics/SVG/1.1/DTD/svg11.dtd">
<svg version="1.1" id="Layer_1" xmlns="http://www.w3.org/2000/svg" xmlns:xlink="http://www.w3.org/1999/xlink" x="0px" y="0px"
	 width="550px" height="250px" viewBox="0 0 550 250" enable-background="new 0 0 550 250" xml:space="preserve">
<g>
	<g>
		<g>
			
				<rect x="22.354" y="43.561" fill="#FFFFFF" stroke="#9A2747" stroke-width="7.8043" stroke-miterlimit="10" width="119.764" height="162.876"/>
			
				<line fill="none" stroke="#EE3968" stroke-width="7.8043" stroke-miterlimit="10" x1="16.369" y1="39.372" x2="148.104" y2="39.372"/>
			
				<line fill="none" stroke="#EE3968" stroke-width="7.8043" stroke-miterlimit="10" x1="16.369" y1="210.627" x2="148.104" y2="210.627"/>
		</g>
		<g>
			<path fill="none" d="M121.434,136.072"/>
		</g>
		<g>
			<path fill="none" d="M46.594,136.072"/>
		</g>
		<g>
			<path fill="none" d="M66.823,148.77"/>
		</g>
		<g>
			<path fill="none" d="M97.65,148.77"/>
		</g>
		<g>
			<g>
				<g>
					<path fill="none" stroke="#D1D1D0" stroke-width="3.8922" stroke-miterlimit="10" d="M66.825,101.941"/>
				</g>
				<g>
					<path fill="none" stroke="#D1D1D0" stroke-width="3.8922" stroke-miterlimit="10" d="M97.65,101.941"/>
				</g>
				<path fill="none" stroke="#D1D1D0" stroke-width="3.8922" stroke-miterlimit="10" d="M68.934,101.941
					c0,2.693-2.185,4.877-4.878,4.877H38.761c-2.694,0-4.878-2.182-4.878-4.877l0,0c0-2.693,2.182-4.878,4.878-4.878h25.295
					C66.75,97.063,68.934,99.247,68.934,101.941L68.934,101.941z"/>
				<path fill="none" stroke="#D1D1D0" stroke-width="3.8922" stroke-miterlimit="10" d="M130.592,101.941
					c0,2.693-2.185,4.877-4.88,4.877h-25.295c-2.694,0-4.879-2.182-4.879-4.877l0,0c0-2.693,2.184-4.878,4.879-4.878h25.295
					C128.406,97.063,130.592,99.247,130.592,101.941L130.592,101.941z"/>
				<circle fill="none" stroke="#D1D1D0" stroke-width="3.8922" stroke-miterlimit="10" cx="82.236" cy="101.941" r="4.877"/>
			</g>
			<g>
				<circle fill="none" stroke="#D1D1D0" stroke-width="3.8922" stroke-miterlimit="10" cx="51.799" cy="125.355" r="4.877"/>
				<circle fill="none" stroke="#D1D1D0" stroke-width="3.8922" stroke-miterlimit="10" cx="112.672" cy="125.355" r="4.877"/>
				<circle fill="none" stroke="#D1D1D0" stroke-width="3.8922" stroke-miterlimit="10" cx="82.235" cy="125.355" r="4.877"/>
			</g>
			<path fill="none" stroke="#D1D1D0" stroke-width="3.8922" stroke-miterlimit="10" d="M68.932,148.77
				c0,2.689-2.185,4.877-4.877,4.877H38.759c-2.693,0-4.876-2.188-4.876-4.877l0,0c0-2.693,2.181-4.879,4.876-4.879h25.297
				C66.748,143.891,68.932,146.074,68.932,148.77L68.932,148.77z"/>
			<path fill="none" stroke="#D1D1D0" stroke-width="3.8922" stroke-miterlimit="10" d="M130.589,148.77
				c0,2.689-2.183,4.877-4.878,4.877h-25.295c-2.694,0-4.88-2.188-4.88-4.877l0,0c0-2.693,2.184-4.879,4.88-4.879h25.295
				C128.404,143.891,130.589,146.074,130.589,148.77L130.589,148.77z"/>
			<circle fill="none" stroke="#D1D1D0" stroke-width="3.8922" stroke-miterlimit="10" cx="82.235" cy="148.769" r="4.878"/>
		</g>
	</g>
	<g>
		<path fill="#3399CC" stroke="#4468B1" stroke-width="6.3701" stroke-miterlimit="10" d="M235.036,169.984
			c-11.627,0-21.053-9.422-21.053-21.049V39.753c0-11.627,9.427-21.052,21.053-21.052l0,0c11.626,0,21.051,9.426,21.051,21.052
			v109.181C256.087,160.563,246.66,169.984,235.036,169.984L235.036,169.984z"/>
		<circle fill="#3399CC" stroke="#4468B1" stroke-width="6.3701" stroke-miterlimit="10" cx="235.036" cy="168.793" r="27.471"/>
		<g>
			<line fill="none" stroke="#4468B1" stroke-width="6.3701" stroke-miterlimit="10" x1="213.981" y1="125" x2="227.47" y2="125"/>
			
				<line fill="none" stroke="#4468B1" stroke-width="6.3701" stroke-miterlimit="10" x1="213.981" y1="109.074" x2="227.47" y2="109.074"/>
			
				<line fill="none" stroke="#4468B1" stroke-width="6.3701" stroke-miterlimit="10" x1="213.981" y1="93.149" x2="227.47" y2="93.149"/>
			
				<line fill="none" stroke="#4468B1" stroke-width="6.3701" stroke-miterlimit="10" x1="213.981" y1="77.223" x2="227.47" y2="77.223"/>
			
				<line fill="none" stroke="#4468B1" stroke-width="6.3701" stroke-miterlimit="10" x1="213.981" y1="61.296" x2="227.47" y2="61.296"/>
			
				<line fill="none" stroke="#4468B1" stroke-width="6.3701" stroke-miterlimit="10" x1="213.981" y1="45.374" x2="227.47" y2="45.374"/>
		</g>
		<rect x="217.147" y="137.342" fill="#3399CC" width="35.511" height="17.963"/>
		<g>
			<polygon fill="#4468B1" points="239.015,196.266 235.036,231.299 231.053,196.266 			"/>
		</g>
		<g>
			<polygon fill="#4468B1" points="259.725,186.436 256.087,209.271 252.448,186.436 			"/>
		</g>
		<g>
			<polygon fill="#4468B1" points="218.32,186.436 214.681,209.271 211.044,186.436 			"/>
		</g>
		<g>
			<polygon fill="#4468B1" points="228.189,194.047 224.208,218.826 220.224,194.047 			"/>
		</g>
		<g>
			<polygon fill="#4468B1" points="250.486,194.047 246.504,218.826 242.523,194.047 			"/>
		</g>
	</g>
	<g>
		<g>
			<path fill="#1C2C18" stroke="#6EC498" stroke-width="12.2465" d="M523.278,177.908c0,8.115-6.578,14.697-14.693,14.697H402.763
				c-8.113,0-14.694-6.582-14.694-14.697V72.09c0-8.113,6.582-14.695,14.694-14.695h105.822c8.116,0,14.693,6.582,14.693,14.695
				L523.278,177.908L523.278,177.908z"/>
			<g>
				<g>
					<g>
						<path fill="#25441E" d="M455.836,125.077c62.162,32.856,60.441-7.959,58.828-10.875"/>
						<path fill="#6EC498" d="M457.385,122.024c0,0,1.056,0.595,2.898,1.638c0.917,0.504,2.048,1.189,3.315,1.842
							c1.271,0.664,2.706,1.414,4.27,2.229c1.604,0.754,3.338,1.602,5.191,2.438c1.873,0.77,3.83,1.676,5.915,2.389
							c2.065,0.801,4.242,1.455,6.462,2.082c1.118,0.258,2.242,0.568,3.383,0.791c1.137,0.172,2.289,0.441,3.438,0.543
							c1.148,0.098,2.308,0.264,3.45,0.229c0.572,0,1.15,0.035,1.718,0.006l1.691-0.139c2.226-0.268,4.403-0.771,6.317-1.711
							c1.91-0.936,3.565-2.221,4.873-3.707c1.312-1.484,2.278-3.148,2.972-4.77c1.345-3.281,1.718-6.321,1.744-8.412
							c0.029-1.053-0.055-1.878-0.14-2.435c-0.084-0.562-0.22-0.836-0.22-0.836s0.16,0.262,0.292,0.819
							c0.137,0.552,0.295,1.379,0.358,2.444c0.156,2.118,0.069,5.223-1.033,8.79c-0.576,1.768-1.445,3.635-2.738,5.393
							c-1.283,1.758-3.012,3.371-5.081,4.617c-2.07,1.256-4.463,2.041-6.916,2.561l-1.86,0.316c-0.626,0.09-1.255,0.111-1.883,0.168
							c-1.266,0.141-2.52,0.08-3.787,0.08c-1.266,0-2.503-0.174-3.757-0.256c-1.244-0.127-2.46-0.352-3.685-0.521
							c-2.409-0.453-4.779-0.945-7.014-1.59c-2.271-0.561-4.375-1.316-6.412-1.951c-2.005-0.699-3.878-1.414-5.62-2.057
							c-1.724-0.715-3.304-1.367-4.706-1.945c-1.405-0.58-2.53-1.133-3.509-1.563c-1.93-0.879-3.028-1.377-3.028-1.377
							L457.385,122.024z"/>
					</g>
					<g>
						<path fill="#25441E" d="M455.784,124.95c-33.865,61.607,6.975,60.558,9.921,58.984"/>
						<path fill="#6EC498" d="M458.809,126.551c0,0-0.612,1.041-1.685,2.869c-0.519,0.908-1.222,2.027-1.897,3.283
							c-0.683,1.262-1.454,2.686-2.296,4.236c-0.78,1.588-1.656,3.309-2.525,5.148c-0.8,1.859-1.736,3.803-2.485,5.875
							c-0.831,2.053-1.521,4.217-2.182,6.428c-0.277,1.113-0.61,2.234-0.846,3.367c-0.192,1.137-0.483,2.281-0.602,3.432
							c-0.115,1.145-0.3,2.303-0.289,3.445c-0.005,0.572-0.051,1.15-0.032,1.717l0.109,1.691c0.234,2.23,0.702,4.416,1.613,6.344
							c0.902,1.924,2.161,3.602,3.627,4.932c1.462,1.334,3.108,2.326,4.724,3.047c3.258,1.398,6.291,1.816,8.381,1.879
							c1.052,0.045,1.879-0.025,2.435-0.104c0.562-0.07,0.84-0.203,0.84-0.203s-0.266,0.156-0.822,0.283
							c-0.556,0.123-1.385,0.27-2.448,0.316c-2.121,0.121-5.226-0.016-8.774-1.174c-1.757-0.605-3.612-1.502-5.349-2.82
							c-1.735-1.314-3.322-3.068-4.536-5.154c-1.22-2.094-1.969-4.496-2.447-6.959l-0.289-1.867
							c-0.079-0.625-0.09-1.254-0.137-1.885c-0.12-1.266-0.035-2.52-0.019-3.785c0.021-1.268,0.213-2.5,0.316-3.754
							c0.148-1.244,0.392-2.451,0.583-3.674c0.49-2.404,1.021-4.766,1.701-6.988c0.599-2.26,1.387-4.352,2.057-6.381
							c0.732-1.99,1.478-3.852,2.147-5.586c0.741-1.713,1.421-3.279,2.024-4.672c0.602-1.396,1.174-2.51,1.62-3.48
							c0.906-1.915,1.424-3.007,1.424-3.007L458.809,126.551z"/>
					</g>
					<g>
						<path fill="#25441E" d="M455.51,124.098c-62.16-32.86-60.441,7.959-58.823,10.875"/>
						<path fill="#6EC498" d="M453.96,127.15c0,0-1.053-0.594-2.896-1.637c-0.918-0.506-2.049-1.191-3.316-1.845
							c-1.271-0.663-2.706-1.412-4.271-2.229c-1.603-0.753-3.339-1.6-5.19-2.438c-1.873-0.769-3.829-1.677-5.915-2.388
							c-2.066-0.798-4.242-1.454-6.464-2.08c-1.115-0.257-2.242-0.571-3.38-0.791c-1.14-0.173-2.289-0.442-3.439-0.543
							c-1.147-0.098-2.308-0.263-3.452-0.232c-0.569,0.002-1.148-0.032-1.719-0.002l-1.689,0.137
							c-2.224,0.269-4.401,0.772-6.315,1.713c-1.911,0.935-3.565,2.22-4.873,3.707c-1.312,1.484-2.278,3.146-2.973,4.769
							c-1.343,3.281-1.717,6.322-1.741,8.412c-0.027,1.051,0.056,1.879,0.141,2.434c0.084,0.561,0.22,0.836,0.22,0.836
							s-0.161-0.264-0.294-0.818c-0.135-0.551-0.294-1.379-0.359-2.441c-0.155-2.119-0.069-5.227,1.033-8.792
							c0.576-1.767,1.446-3.635,2.738-5.391c1.281-1.757,3.012-3.372,5.079-4.62c2.072-1.253,4.462-2.04,6.916-2.56l1.863-0.317
							c0.624-0.089,1.25-0.111,1.881-0.167c1.268-0.141,2.52-0.079,3.787-0.081c1.264,0.002,2.503,0.174,3.759,0.257
							c1.242,0.128,2.455,0.35,3.681,0.523c2.41,0.452,4.782,0.945,7.015,1.588c2.271,0.561,4.375,1.315,6.411,1.951
							c2.007,0.7,3.878,1.417,5.623,2.057c1.721,0.713,3.302,1.367,4.701,1.946c1.408,0.581,2.532,1.133,3.513,1.563
							c1.926,0.875,3.027,1.375,3.027,1.375L453.96,127.15z"/>
					</g>
					<g>
						<path fill="#25441E" d="M455.934,124.976c33.152-61.997-7.673-60.477-10.603-58.875"/>
						<path fill="#6EC498" d="M452.887,123.411c0,0,0.602-1.05,1.651-2.887c0.51-0.916,1.201-2.044,1.859-3.309
							c0.669-1.269,1.425-2.7,2.249-4.261c0.761-1.6,1.618-3.329,2.463-5.179c0.778-1.869,1.695-3.822,2.417-5.904
							c0.81-2.062,1.475-4.233,2.11-6.453c0.264-1.115,0.581-2.241,0.808-3.377c0.178-1.137,0.453-2.287,0.559-3.436
							c0.102-1.149,0.275-2.307,0.247-3.45c0-0.572,0.039-1.151,0.013-1.718l-0.13-1.69c-0.259-2.226-0.752-4.406-1.683-6.324
							c-0.928-1.913-2.204-3.578-3.685-4.89c-1.479-1.318-3.137-2.292-4.757-2.994c-3.276-1.361-6.315-1.745-8.403-1.783
							c-1.051-0.032-1.88,0.045-2.435,0.129c-0.56,0.081-0.837,0.214-0.837,0.214s0.265-0.158,0.819-0.289
							c0.554-0.132,1.381-0.287,2.445-0.347c2.119-0.146,5.222-0.044,8.786,1.075c1.765,0.585,3.63,1.461,5.379,2.762
							c1.752,1.292,3.358,3.026,4.597,5.101c1.244,2.076,2.019,4.471,2.526,6.928l0.309,1.865c0.087,0.624,0.104,1.252,0.158,1.882
							c0.137,1.266,0.068,2.521,0.063,3.787c-0.006,1.266-0.185,2.501-0.273,3.757c-0.133,1.243-0.361,2.456-0.539,3.679
							c-0.464,2.408-0.969,4.778-1.622,7.008c-0.571,2.267-1.336,4.368-1.979,6.402c-0.711,2.003-1.437,3.871-2.085,5.611
							c-0.723,1.719-1.384,3.295-1.972,4.692c-0.585,1.406-1.143,2.527-1.581,3.503c-0.882,1.925-1.389,3.022-1.389,3.022
							L452.887,123.411z"/>
					</g>
					<circle fill="#25441E" stroke="#63BC46" stroke-width="4.28" cx="455.909" cy="124.675" r="13.929"/>
				</g>
				<g>
					<g>
						<path fill="#25441E" d="M455.842,124.941c67.188-20.719,37.113-48.368,33.907-49.287"/>
						<path fill="#6EC498" d="M454.779,121.687c0,0,1.166-0.325,3.209-0.892c1.004-0.292,2.289-0.608,3.647-1.041
							c1.369-0.43,2.912-0.916,4.596-1.445c1.666-0.601,3.49-1.227,5.396-1.946c1.866-0.78,3.893-1.522,5.871-2.492
							c2.025-0.896,4.026-1.972,6.04-3.101c0.972-0.608,1.99-1.182,2.952-1.833c0.928-0.683,1.931-1.304,2.814-2.046
							c0.882-0.745,1.82-1.448,2.607-2.276c0.403-0.406,0.835-0.79,1.215-1.212l1.099-1.292c1.381-1.764,2.565-3.661,3.254-5.676
							c0.69-2.012,0.953-4.092,0.824-6.066c-0.122-1.978-0.614-3.834-1.271-5.476c-1.37-3.272-3.258-5.683-4.713-7.181
							c-0.726-0.762-1.368-1.289-1.822-1.622c-0.455-0.337-0.746-0.436-0.746-0.436s0.299,0.073,0.788,0.372
							c0.487,0.293,1.182,0.768,1.98,1.474c1.608,1.386,3.744,3.646,5.485,6.946c0.839,1.658,1.547,3.593,1.876,5.748
							c0.336,2.151,0.254,4.516-0.328,6.859c-0.576,2.353-1.712,4.599-3.08,6.7l-1.09,1.544c-0.38,0.504-0.808,0.961-1.213,1.447
							c-0.796,0.997-1.725,1.839-2.621,2.733c-0.896,0.895-1.892,1.647-2.836,2.476c-0.971,0.79-1.986,1.492-2.975,2.234
							c-2.024,1.385-4.05,2.713-6.082,3.838c-2.001,1.208-4.025,2.163-5.915,3.154c-1.913,0.923-3.741,1.741-5.429,2.521
							c-1.722,0.712-3.301,1.369-4.701,1.946c-1.405,0.586-2.594,0.99-3.589,1.379c-1.983,0.744-3.115,1.17-3.115,1.17
							L454.779,121.687z"/>
					</g>
					<g>
						<path fill="#25441E" d="M455.716,124.882c19.619,67.517,47.758,37.894,48.727,34.698"/>
						<path fill="#6EC498" d="M458.987,123.874c0,0,0.304,1.17,0.837,3.22c0.275,1.012,0.57,2.299,0.981,3.666
							c0.408,1.377,0.867,2.926,1.369,4.619c0.573,1.678,1.171,3.512,1.858,5.426c0.748,1.879,1.459,3.918,2.397,5.912
							c0.862,2.039,1.904,4.055,3,6.09c0.594,0.98,1.148,2.008,1.783,2.982c0.671,0.938,1.274,1.951,2.001,2.844
							c0.731,0.895,1.417,1.846,2.236,2.641c0.397,0.412,0.774,0.85,1.19,1.236l1.274,1.119c1.741,1.41,3.618,2.627,5.623,3.348
							c2,0.725,4.075,1.018,6.054,0.922c1.978-0.092,3.845-0.551,5.493-1.184c3.292-1.316,5.736-3.164,7.256-4.6
							c0.774-0.711,1.311-1.344,1.652-1.795c0.344-0.451,0.448-0.74,0.448-0.74s-0.079,0.299-0.386,0.783
							c-0.301,0.482-0.785,1.172-1.504,1.959c-1.413,1.586-3.707,3.682-7.033,5.371c-1.674,0.816-3.618,1.492-5.781,1.787
							c-2.153,0.297-4.516,0.18-6.851-0.438c-2.342-0.615-4.568-1.787-6.649-3.189l-1.523-1.119c-0.496-0.387-0.948-0.82-1.43-1.236
							c-0.981-0.811-1.811-1.756-2.689-2.664c-0.882-0.908-1.618-1.92-2.434-2.877c-0.772-0.984-1.458-2.012-2.185-3.01
							c-1.351-2.047-2.646-4.096-3.737-6.146c-1.176-2.021-2.096-4.055-3.058-5.963c-0.892-1.928-1.679-3.771-2.433-5.473
							c-0.683-1.732-1.314-3.324-1.87-4.73c-0.563-1.418-0.947-2.609-1.318-3.609c-0.712-1.994-1.121-3.137-1.121-3.137
							L458.987,123.874z"/>
					</g>
					<g>
						<path fill="#25441E" d="M454.923,124.475c-67.188,20.716-37.113,48.367-33.907,49.289"/>
						<path fill="#6EC498" d="M455.987,127.73c0,0-1.165,0.322-3.208,0.891c-1.005,0.291-2.289,0.609-3.649,1.039
							c-1.367,0.432-2.911,0.918-4.596,1.447c-1.667,0.6-3.49,1.227-5.396,1.945c-1.868,0.781-3.894,1.521-5.869,2.492
							c-2.027,0.896-4.028,1.975-6.042,3.098c-0.972,0.609-1.989,1.182-2.952,1.834c-0.927,0.684-1.931,1.305-2.814,2.047
							c-0.881,0.744-1.821,1.447-2.607,2.277c-0.402,0.404-0.836,0.791-1.212,1.209l-1.101,1.293
							c-1.383,1.766-2.567,3.66-3.257,5.678c-0.688,2.01-0.952,4.092-0.823,6.063c0.122,1.98,0.615,3.838,1.268,5.479
							c1.37,3.27,3.261,5.682,4.717,7.18c0.725,0.764,1.367,1.289,1.82,1.623c0.456,0.336,0.747,0.436,0.747,0.436
							s-0.301-0.074-0.79-0.371c-0.486-0.295-1.181-0.77-1.979-1.473c-1.609-1.389-3.744-3.646-5.486-6.947
							c-0.841-1.658-1.55-3.594-1.878-5.748c-0.332-2.15-0.254-4.514,0.327-6.857c0.579-2.355,1.714-4.598,3.082-6.701l1.093-1.545
							c0.38-0.502,0.807-0.959,1.212-1.445c0.796-0.998,1.726-1.84,2.622-2.732c0.895-0.895,1.892-1.65,2.837-2.479
							c0.968-0.787,1.985-1.492,2.973-2.236c2.025-1.383,4.053-2.713,6.083-3.836c2.003-1.209,4.024-2.166,5.914-3.154
							c1.913-0.924,3.744-1.74,5.43-2.52c1.723-0.715,3.302-1.368,4.702-1.949c1.405-0.585,2.592-0.991,3.588-1.376
							c1.982-0.745,3.117-1.171,3.117-1.171L455.987,127.73z"/>
					</g>
					<g>
						<path fill="#25441E" d="M455.841,124.798c-20.394-67.279-48.186-37.336-49.127-34.135"/>
						<path fill="#6EC498" d="M452.581,125.844c0,0-0.317-1.167-0.876-3.211c-0.286-1.007-0.596-2.293-1.022-3.654
							c-0.425-1.37-0.9-2.916-1.423-4.602c-0.591-1.669-1.211-3.498-1.92-5.404c-0.771-1.872-1.503-3.9-2.464-5.882
							c-0.886-2.031-1.953-4.036-3.071-6.056c-0.604-0.974-1.172-1.996-1.818-2.958c-0.678-0.932-1.295-1.938-2.033-2.825
							c-0.741-0.886-1.438-1.826-2.265-2.615c-0.403-0.405-0.786-0.841-1.206-1.223l-1.288-1.104
							c-1.758-1.39-3.646-2.583-5.661-3.28c-2.008-0.699-4.088-0.972-6.063-0.852c-1.979,0.114-3.84,0.597-5.482,1.246
							c-3.275,1.354-5.698,3.23-7.203,4.681c-0.767,0.72-1.295,1.359-1.631,1.813c-0.34,0.455-0.441,0.745-0.441,0.745
							s0.076-0.299,0.376-0.785c0.299-0.486,0.773-1.178,1.482-1.975c1.396-1.6,3.666-3.726,6.973-5.452
							c1.664-0.832,3.603-1.532,5.757-1.85c2.153-0.324,4.516-0.234,6.856,0.357c2.351,0.588,4.589,1.732,6.688,3.112l1.536,1.101
							c0.502,0.381,0.956,0.811,1.444,1.22c0.99,0.799,1.83,1.731,2.72,2.63c0.891,0.9,1.641,1.901,2.463,2.85
							c0.786,0.973,1.481,1.994,2.221,2.984c1.376,2.029,2.692,4.063,3.811,6.101c1.2,2.008,2.144,4.034,3.126,5.929
							c0.916,1.917,1.722,3.751,2.495,5.441c0.705,1.727,1.352,3.308,1.924,4.712c0.58,1.408,0.979,2.595,1.359,3.594
							c0.736,1.985,1.155,3.12,1.155,3.12L452.581,125.844z"/>
					</g>
					<circle fill="#25441E" stroke="#63BC46" stroke-width="4.28" cx="455.61" cy="124.602" r="13.93"/>
				</g>
			</g>
		</g>
		<g>
			<path fill="none" stroke="#EE3968" stroke-width="12.4726" stroke-miterlimit="10" d="M533.631,181.879
				c0,11.641-9.441,21.074-21.078,21.074H398.795c-11.635,0-21.073-9.436-21.073-21.074V68.129c0-11.646,9.441-21.083,21.073-21.083
				h113.757c11.638,0,21.077,9.438,21.077,21.083v113.75H533.631z"/>
			
				<line fill="none" stroke="#EE3968" stroke-width="12.4726" stroke-miterlimit="10" x1="377.721" y1="68.129" x2="533.631" y2="181.879"/>
			
				<line fill="none" stroke="#EE3968" stroke-width="12.4726" stroke-miterlimit="10" x1="533.631" y1="68.129" x2="377.721" y2="181.879"/>
		</g>
	</g>
	<g>
		<line fill="none" stroke="#000000" stroke-width="12.4726" stroke-miterlimit="10" x1="286.263" y1="125" x2="345.792" y2="125"/>
		
			<line fill="none" stroke="#000000" stroke-width="12.4726" stroke-miterlimit="10" x1="316.026" y1="154.764" x2="316.026" y2="95.235"/>
	</g>
</g>
</svg>
