<?xml version="1.0" encoding="utf-8"?>
<!-- Generator: Adobe Illustrator 16.0.0, SVG Export Plug-In . SVG Version: 6.00 Build 0)  -->
<!DOCTYPE svg PUBLIC "-//W3C//DTD SVG 1.1//EN" "http://www.w3.org/Graphics/SVG/1.1/DTD/svg11.dtd">
<svg version="1.1" id="Layer_1" xmlns="http://www.w3.org/2000/svg" xmlns:xlink="http://www.w3.org/1999/xlink" x="0px" y="0px"
	 width="550px" height="250px" viewBox="0 0 550 250" enable-background="new 0 0 550 250" xml:space="preserve">
<g>
	<g>
		
			<rect x="112.658" y="72.355" fill="#FFFFFF" stroke="#9A2747" stroke-width="5.0128" stroke-miterlimit="10" width="76.926" height="104.617"/>
		
			<line fill="none" stroke="#EE3968" stroke-width="5.0128" stroke-miterlimit="10" x1="108.813" y1="69.664" x2="193.428" y2="69.664"/>
		
			<line fill="none" stroke="#EE3968" stroke-width="5.0128" stroke-miterlimit="10" x1="108.813" y1="179.663" x2="193.428" y2="179.663"/>
	</g>
	<g>
		<path fill="none" d="M176.299,131.776"/>
	</g>
	<g>
		<path fill="none" d="M128.228,131.776"/>
	</g>
	<g>
		<path fill="none" d="M141.22,139.931"/>
	</g>
	<g>
		<path fill="none" d="M161.021,139.931"/>
	</g>
	<g>
		<g>
			<g>
				<path fill="none" stroke="#D1D1D0" stroke-width="2.5" stroke-miterlimit="10" d="M141.221,109.853"/>
			</g>
			<g>
				<path fill="none" stroke="#D1D1D0" stroke-width="2.5" stroke-miterlimit="10" d="M161.021,109.853"/>
			</g>
			<path fill="none" stroke="#D1D1D0" stroke-width="2.5" stroke-miterlimit="10" d="M142.577,109.853
				c0,1.73-1.403,3.133-3.133,3.133h-16.248c-1.73,0-3.133-1.402-3.133-3.133l0,0c0-1.73,1.402-3.133,3.133-3.133h16.248
				C141.174,106.72,142.577,108.122,142.577,109.853L142.577,109.853z"/>
			<path fill="none" stroke="#D1D1D0" stroke-width="2.5" stroke-miterlimit="10" d="M182.179,109.853
				c0,1.73-1.402,3.133-3.133,3.133h-16.247c-1.731,0-3.134-1.402-3.134-3.133l0,0c0-1.73,1.402-3.133,3.134-3.133h16.247
				C180.776,106.72,182.179,108.122,182.179,109.853L182.179,109.853z"/>
			<circle fill="none" stroke="#D1D1D0" stroke-width="2.5" stroke-miterlimit="10" cx="151.121" cy="109.853" r="3.133"/>
		</g>
		<g>
			<circle fill="none" stroke="#D1D1D0" stroke-width="2.5" stroke-miterlimit="10" cx="131.57" cy="124.892" r="3.133"/>
			<circle fill="none" stroke="#D1D1D0" stroke-width="2.5" stroke-miterlimit="10" cx="170.67" cy="124.892" r="3.133"/>
			<circle fill="none" stroke="#D1D1D0" stroke-width="2.5" stroke-miterlimit="10" cx="151.12" cy="124.892" r="3.133"/>
		</g>
		<path fill="none" stroke="#D1D1D0" stroke-width="2.5" stroke-miterlimit="10" d="M142.576,139.931
			c0,1.729-1.403,3.133-3.133,3.133h-16.248c-1.73,0-3.133-1.404-3.133-3.133l0,0c0-1.73,1.402-3.133,3.133-3.133h16.248
			C141.173,136.798,142.576,138.2,142.576,139.931L142.576,139.931z"/>
		<path fill="none" stroke="#D1D1D0" stroke-width="2.5" stroke-miterlimit="10" d="M182.178,139.931
			c0,1.729-1.402,3.133-3.133,3.133h-16.247c-1.731,0-3.134-1.404-3.134-3.133l0,0c0-1.73,1.402-3.133,3.134-3.133h16.247
			C180.775,136.798,182.178,138.2,182.178,139.931L182.178,139.931z"/>
		<circle fill="none" stroke="#D1D1D0" stroke-width="2.5" stroke-miterlimit="10" cx="151.12" cy="139.931" r="3.133"/>
	</g>
</g>
<g>
	<path fill="#3399CC" stroke="#4468B1" stroke-width="4.0916" stroke-miterlimit="10" d="M249.265,153.895
		c-7.467,0-13.521-6.053-13.521-13.521V70.245c0-7.468,6.055-13.522,13.521-13.522l0,0c7.468,0,13.522,6.055,13.522,13.522v70.128
		C262.787,147.842,256.732,153.895,249.265,153.895L249.265,153.895z"/>
	<circle fill="#3399CC" stroke="#4468B1" stroke-width="4.0916" stroke-miterlimit="10" cx="249.265" cy="153.129" r="17.645"/>
	<g>
		<line fill="none" stroke="#4468B1" stroke-width="4.0916" stroke-miterlimit="10" x1="235.743" y1="125" x2="244.406" y2="125"/>
		
			<line fill="none" stroke="#4468B1" stroke-width="4.0916" stroke-miterlimit="10" x1="235.743" y1="114.771" x2="244.406" y2="114.771"/>
		
			<line fill="none" stroke="#4468B1" stroke-width="4.0916" stroke-miterlimit="10" x1="235.743" y1="104.542" x2="244.406" y2="104.542"/>
		
			<line fill="none" stroke="#4468B1" stroke-width="4.0916" stroke-miterlimit="10" x1="235.743" y1="94.313" x2="244.406" y2="94.313"/>
		
			<line fill="none" stroke="#4468B1" stroke-width="4.0916" stroke-miterlimit="10" x1="235.743" y1="84.083" x2="244.406" y2="84.083"/>
		
			<line fill="none" stroke="#4468B1" stroke-width="4.0916" stroke-miterlimit="10" x1="235.743" y1="73.856" x2="244.406" y2="73.856"/>
	</g>
	<rect x="237.776" y="132.928" fill="#3399CC" width="22.809" height="11.537"/>
	<g>
		<polygon fill="#4468B1" points="251.822,170.775 249.265,193.277 246.708,170.775 		"/>
	</g>
	<g>
		<polygon fill="#4468B1" points="265.124,164.461 262.787,179.129 260.45,164.461 		"/>
	</g>
	<g>
		<polygon fill="#4468B1" points="238.529,164.461 236.192,179.129 233.855,164.461 		"/>
	</g>
	<g>
		<polygon fill="#4468B1" points="244.868,169.35 242.311,185.266 239.753,169.35 		"/>
	</g>
	<g>
		<polygon fill="#4468B1" points="259.189,169.35 256.632,185.266 254.075,169.35 		"/>
	</g>
</g>
<g>
	<g>
		<path fill="#1C2C18" stroke="#6EC498" stroke-width="7.8661" d="M434.407,158.985c0,5.213-4.225,9.439-9.438,9.439H357
			c-5.212,0-9.439-4.227-9.439-9.439V91.016c0-5.211,4.228-9.439,9.439-9.439h67.97c5.213,0,9.438,4.228,9.438,9.439V158.985z"/>
		<g>
			<g>
				<g>
					<path fill="#25441E" d="M391.088,125.05c39.927,21.105,38.823-5.112,37.786-6.985"/>
					<path fill="#6EC498" d="M392.083,123.089c0,0,0.677,0.382,1.861,1.052c0.59,0.324,1.316,0.764,2.13,1.184
						c0.816,0.426,1.738,0.907,2.743,1.431c1.03,0.484,2.144,1.028,3.334,1.566c1.203,0.494,2.46,1.077,3.799,1.534
						c1.327,0.514,2.725,0.934,4.151,1.337c0.718,0.164,1.441,0.366,2.172,0.508c0.732,0.11,1.471,0.284,2.209,0.349
						c0.738,0.063,1.483,0.169,2.217,0.148c0.367-0.001,0.738,0.021,1.103,0.002l1.086-0.088c1.43-0.173,2.828-0.496,4.058-1.1
						c1.227-0.6,2.291-1.426,3.13-2.381c0.842-0.953,1.463-2.021,1.909-3.063c0.864-2.108,1.102-4.06,1.12-5.403
						c0.018-0.676-0.035-1.207-0.09-1.564c-0.054-0.36-0.141-0.537-0.141-0.537s0.103,0.169,0.188,0.527
						c0.087,0.354,0.188,0.885,0.23,1.569c0.1,1.361,0.044,3.355-0.664,5.646c-0.371,1.135-0.928,2.335-1.758,3.464
						c-0.825,1.128-1.935,2.165-3.264,2.966c-1.33,0.806-2.866,1.311-4.442,1.644l-1.196,0.204c-0.401,0.057-0.805,0.07-1.209,0.107
						c-0.813,0.091-1.618,0.051-2.432,0.052c-0.813-0.001-1.608-0.111-2.413-0.164c-0.799-0.082-1.58-0.226-2.366-0.336
						c-1.548-0.29-3.071-0.607-4.506-1.02c-1.458-0.36-2.81-0.846-4.118-1.254c-1.288-0.449-2.491-0.909-3.611-1.32
						c-1.106-0.459-2.121-0.879-3.021-1.251c-0.904-0.372-1.626-0.728-2.255-1.004c-1.238-0.563-1.945-0.884-1.945-0.884
						L392.083,123.089z"/>
				</g>
				<g>
					<path fill="#25441E" d="M391.055,124.968c-21.753,39.572,4.479,38.898,6.372,37.888"/>
					<path fill="#6EC498" d="M392.999,125.996c0,0-0.394,0.67-1.082,1.843c-0.334,0.584-0.785,1.304-1.219,2.11
						c-0.439,0.81-0.935,1.724-1.476,2.72c-0.501,1.021-1.063,2.126-1.621,3.308c-0.514,1.194-1.116,2.442-1.596,3.773
						c-0.535,1.318-0.978,2.708-1.403,4.129c-0.177,0.715-0.391,1.435-0.543,2.163c-0.123,0.729-0.309,1.465-0.385,2.203
						c-0.075,0.736-0.193,1.479-0.186,2.214c-0.004,0.366-0.033,0.738-0.02,1.102l0.07,1.088c0.15,1.432,0.451,2.835,1.035,4.074
						c0.58,1.235,1.389,2.313,2.33,3.167c0.94,0.857,1.997,1.494,3.033,1.958c2.094,0.897,4.042,1.166,5.384,1.206
						c0.676,0.028,1.207-0.017,1.565-0.065c0.36-0.048,0.539-0.132,0.539-0.132s-0.171,0.1-0.529,0.181
						c-0.356,0.081-0.889,0.174-1.572,0.205c-1.362,0.078-3.356-0.01-5.636-0.754c-1.129-0.39-2.32-0.965-3.435-1.813
						c-1.115-0.843-2.135-1.97-2.914-3.311c-0.784-1.343-1.265-2.887-1.572-4.469l-0.185-1.199
						c-0.051-0.402-0.058-0.806-0.088-1.211c-0.077-0.813-0.024-1.618-0.013-2.432c0.015-0.813,0.138-1.605,0.204-2.41
						c0.095-0.798,0.251-1.576,0.374-2.359c0.315-1.544,0.657-3.062,1.093-4.489c0.384-1.452,0.891-2.796,1.32-4.098
						c0.471-1.28,0.95-2.476,1.38-3.589c0.477-1.099,0.913-2.106,1.3-2.999c0.387-0.898,0.754-1.614,1.041-2.238
						c0.582-1.229,0.915-1.931,0.915-1.931L392.999,125.996z"/>
				</g>
				<g>
					<path fill="#25441E" d="M390.879,124.421c-39.926-21.106-38.823,5.112-37.783,6.985"/>
					<path fill="#6EC498" d="M389.884,126.382c0,0-0.677-0.382-1.861-1.052c-0.59-0.324-1.315-0.764-2.13-1.184
						c-0.816-0.426-1.738-0.907-2.743-1.432c-1.029-0.484-2.144-1.028-3.334-1.566c-1.203-0.494-2.46-1.077-3.799-1.534
						c-1.327-0.513-2.724-0.934-4.151-1.336c-0.718-0.165-1.44-0.367-2.172-0.508c-0.731-0.111-1.47-0.284-2.209-0.349
						c-0.737-0.063-1.482-0.169-2.217-0.149c-0.366,0.001-0.738-0.021-1.103-0.002l-1.086,0.088c-1.429,0.173-2.827,0.496-4.057,1.1
						c-1.227,0.6-2.291,1.426-3.13,2.381c-0.842,0.953-1.463,2.021-1.909,3.063c-0.863,2.108-1.102,4.061-1.119,5.403
						c-0.018,0.676,0.036,1.206,0.091,1.563c0.054,0.36,0.141,0.537,0.141,0.537s-0.103-0.169-0.189-0.526
						c-0.087-0.354-0.188-0.886-0.23-1.569c-0.101-1.36-0.045-3.355,0.663-5.646c0.371-1.135,0.928-2.335,1.758-3.463
						c0.824-1.128,1.935-2.166,3.263-2.967c1.331-0.805,2.866-1.31,4.443-1.644l1.196-0.204c0.401-0.057,0.804-0.071,1.209-0.107
						c0.813-0.091,1.618-0.051,2.431-0.052c0.813,0.001,1.608,0.112,2.414,0.165c0.799,0.082,1.579,0.225,2.365,0.336
						c1.548,0.29,3.072,0.607,4.506,1.02c1.458,0.36,2.81,0.845,4.118,1.253c1.289,0.449,2.491,0.91,3.611,1.321
						c1.106,0.458,2.121,0.878,3.021,1.25c0.904,0.373,1.626,0.728,2.255,1.004c1.238,0.562,1.945,0.883,1.945,0.883
						L389.884,126.382z"/>
				</g>
				<g>
					<path fill="#25441E" d="M391.151,124.985c21.295-39.821-4.928-38.845-6.809-37.816"/>
					<path fill="#6EC498" d="M389.195,123.98c0,0,0.386-0.675,1.061-1.855c0.327-0.588,0.771-1.313,1.194-2.125
						c0.43-0.815,0.915-1.734,1.444-2.737c0.489-1.027,1.039-2.138,1.582-3.326c0.5-1.2,1.089-2.455,1.553-3.792
						c0.52-1.324,0.946-2.719,1.355-4.145c0.169-0.716,0.374-1.439,0.519-2.169c0.114-0.731,0.291-1.469,0.358-2.207
						c0.066-0.738,0.177-1.482,0.16-2.216c0-0.367,0.024-0.739,0.007-1.103l-0.083-1.086c-0.167-1.43-0.483-2.83-1.081-4.062
						c-0.595-1.229-1.416-2.298-2.367-3.141c-0.949-0.847-2.014-1.472-3.055-1.923c-2.104-0.874-4.056-1.121-5.397-1.145
						c-0.676-0.021-1.207,0.029-1.564,0.083c-0.36,0.052-0.538,0.138-0.538,0.138s0.17-0.102,0.527-0.186
						c0.355-0.085,0.887-0.184,1.57-0.223c1.361-0.094,3.355-0.028,5.644,0.69c1.133,0.376,2.331,0.938,3.455,1.774
						c1.125,0.83,2.157,1.944,2.952,3.276c0.799,1.334,1.297,2.872,1.623,4.45l0.198,1.198c0.056,0.401,0.067,0.804,0.102,1.209
						c0.088,0.813,0.044,1.619,0.041,2.432c-0.004,0.813-0.119,1.607-0.176,2.413c-0.086,0.798-0.232,1.578-0.347,2.363
						c-0.298,1.547-0.622,3.069-1.041,4.502c-0.367,1.456-0.858,2.805-1.272,4.112c-0.456,1.286-0.922,2.486-1.339,3.604
						c-0.464,1.104-0.889,2.117-1.266,3.014c-0.376,0.903-0.734,1.623-1.015,2.25c-0.567,1.236-0.893,1.942-0.893,1.942
						L389.195,123.98z"/>
				</g>
				<circle fill="#25441E" stroke="#63BC46" stroke-width="2.7491" cx="391.135" cy="124.792" r="8.947"/>
			</g>
			<g>
				<g>
					<path fill="#25441E" d="M391.093,124.963c43.155-13.308,23.837-31.067,21.778-31.658"/>
					<path fill="#6EC498" d="M390.41,122.872c0,0,0.749-0.208,2.06-0.572c0.646-0.188,1.471-0.391,2.344-0.669
						c0.879-0.276,1.87-0.588,2.951-0.928c1.071-0.386,2.243-0.788,3.466-1.25c1.199-0.501,2.5-0.978,3.771-1.601
						c1.301-0.575,2.586-1.266,3.88-1.991c0.624-0.391,1.278-0.759,1.896-1.177c0.596-0.439,1.24-0.838,1.808-1.315
						c0.566-0.478,1.169-0.929,1.674-1.462c0.259-0.26,0.537-0.507,0.78-0.778l0.706-0.83c0.888-1.133,1.648-2.351,2.091-3.646
						c0.443-1.292,0.612-2.628,0.529-3.896c-0.078-1.27-0.395-2.463-0.815-3.517c-0.881-2.102-2.093-3.65-3.029-4.612
						c-0.465-0.49-0.878-0.828-1.17-1.042c-0.292-0.216-0.479-0.28-0.479-0.28s0.192,0.047,0.506,0.239
						c0.313,0.189,0.759,0.493,1.272,0.947c1.033,0.891,2.404,2.342,3.523,4.462c0.54,1.065,0.995,2.308,1.206,3.692
						c0.215,1.381,0.163,2.9-0.21,4.405c-0.371,1.511-1.101,2.954-1.979,4.304l-0.701,0.991c-0.244,0.324-0.519,0.618-0.779,0.93
						c-0.511,0.64-1.108,1.181-1.683,1.756c-0.575,0.575-1.216,1.058-1.822,1.59c-0.623,0.507-1.276,0.958-1.91,1.435
						c-1.3,0.89-2.602,1.743-3.907,2.465c-1.286,0.776-2.585,1.389-3.799,2.026c-1.229,0.593-2.404,1.118-3.487,1.619
						c-1.106,0.458-2.121,0.879-3.02,1.251c-0.903,0.376-1.665,0.635-2.305,0.884c-1.273,0.479-2.001,0.752-2.001,0.752
						L390.41,122.872z"/>
				</g>
				<g>
					<path fill="#25441E" d="M391.011,124.925c12.602,43.368,30.675,24.339,31.297,22.288"/>
					<path fill="#6EC498" d="M393.112,124.277c0,0,0.195,0.752,0.538,2.069c0.177,0.649,0.366,1.477,0.631,2.354
						c0.262,0.884,0.557,1.88,0.879,2.967c0.368,1.077,0.752,2.256,1.193,3.485c0.481,1.208,0.938,2.517,1.54,3.797
						c0.554,1.311,1.224,2.606,1.927,3.912c0.381,0.63,0.738,1.29,1.146,1.914c0.43,0.603,0.818,1.254,1.286,1.829
						c0.468,0.574,0.909,1.184,1.435,1.696c0.256,0.264,0.498,0.546,0.766,0.794l0.818,0.719c1.118,0.906,2.323,1.687,3.612,2.15
						c1.284,0.464,2.617,0.654,3.888,0.592c1.271-0.059,2.469-0.354,3.529-0.76c2.114-0.846,3.683-2.033,4.659-2.954
						c0.498-0.457,0.842-0.865,1.061-1.153c0.221-0.289,0.288-0.475,0.288-0.475s-0.05,0.191-0.247,0.502
						c-0.193,0.31-0.505,0.752-0.966,1.258c-0.908,1.019-2.38,2.366-4.518,3.451c-1.074,0.523-2.323,0.958-3.712,1.146
						c-1.384,0.192-2.901,0.117-4.401-0.28c-1.504-0.396-2.935-1.147-4.271-2.049l-0.979-0.718
						c-0.319-0.249-0.609-0.528-0.917-0.794c-0.631-0.521-1.163-1.127-1.729-1.711c-0.565-0.585-1.038-1.233-1.562-1.849
						c-0.496-0.631-0.937-1.292-1.403-1.933c-0.868-1.314-1.7-2.63-2.401-3.948c-0.755-1.298-1.347-2.605-1.964-3.83
						c-0.573-1.238-1.078-2.423-1.562-3.514c-0.44-1.114-0.845-2.135-1.202-3.04c-0.361-0.909-0.608-1.675-0.847-2.318
						c-0.457-1.281-0.719-2.013-0.719-2.013L393.112,124.277z"/>
				</g>
				<g>
					<path fill="#25441E" d="M390.502,124.664c-43.157,13.307-23.839,31.067-21.78,31.658"/>
					<path fill="#6EC498" d="M391.185,126.754c0,0-0.749,0.208-2.06,0.572c-0.646,0.188-1.471,0.391-2.344,0.669
						c-0.879,0.276-1.87,0.588-2.952,0.928c-1.07,0.386-2.242,0.788-3.465,1.25c-1.2,0.501-2.501,0.978-3.771,1.601
						c-1.301,0.575-2.586,1.267-3.88,1.99c-0.624,0.391-1.278,0.76-1.896,1.177c-0.596,0.439-1.24,0.839-1.808,1.315
						c-0.566,0.478-1.17,0.929-1.674,1.462c-0.259,0.261-0.537,0.508-0.78,0.778l-0.706,0.83c-0.888,1.134-1.649,2.351-2.092,3.646
						c-0.443,1.292-0.612,2.629-0.529,3.896c0.078,1.271,0.395,2.464,0.815,3.518c0.88,2.101,2.093,3.649,3.029,4.611
						c0.465,0.491,0.878,0.829,1.169,1.043c0.293,0.216,0.479,0.28,0.479,0.28s-0.192-0.048-0.506-0.239
						c-0.313-0.188-0.759-0.493-1.272-0.946c-1.033-0.892-2.404-2.342-3.523-4.462c-0.54-1.065-0.995-2.308-1.206-3.692
						c-0.214-1.381-0.163-2.899,0.21-4.405c0.372-1.511,1.101-2.953,1.979-4.304l0.702-0.99c0.244-0.324,0.519-0.618,0.779-0.931
						c0.511-0.64,1.108-1.181,1.683-1.756c0.575-0.574,1.216-1.059,1.822-1.591c0.623-0.506,1.276-0.957,1.91-1.435
						c1.301-0.89,2.603-1.743,3.908-2.466c1.286-0.776,2.584-1.389,3.798-2.025c1.229-0.594,2.405-1.118,3.488-1.619
						c1.106-0.458,2.121-0.878,3.02-1.251c0.903-0.376,1.665-0.636,2.305-0.884c1.273-0.479,2.001-0.752,2.001-0.752
						L391.185,126.754z"/>
				</g>
				<g>
					<path fill="#25441E" d="M391.092,124.871c-13.099-43.214-30.951-23.982-31.555-21.925"/>
					<path fill="#6EC498" d="M388.998,125.543c0,0-0.204-0.75-0.563-2.063c-0.184-0.647-0.383-1.473-0.657-2.347
						c-0.272-0.88-0.579-1.873-0.913-2.956c-0.381-1.072-0.778-2.247-1.233-3.471c-0.496-1.202-0.966-2.505-1.583-3.778
						c-0.569-1.304-1.254-2.592-1.973-3.89c-0.388-0.625-0.753-1.281-1.168-1.9c-0.436-0.598-0.832-1.244-1.307-1.814
						c-0.475-0.569-0.923-1.173-1.454-1.68c-0.259-0.26-0.505-0.54-0.774-0.785l-0.827-0.709c-1.129-0.893-2.343-1.659-3.637-2.107
						c-1.29-0.449-2.625-0.624-3.895-0.547c-1.27,0.073-2.465,0.383-3.521,0.8c-2.104,0.87-3.659,2.075-4.626,3.006
						c-0.492,0.463-0.832,0.874-1.048,1.165c-0.218,0.292-0.283,0.478-0.283,0.478s0.049-0.192,0.241-0.504
						c0.191-0.312,0.497-0.757,0.953-1.268c0.896-1.028,2.354-2.393,4.479-3.502c1.068-0.535,2.313-0.984,3.697-1.188
						c1.383-0.208,2.9-0.151,4.404,0.229c1.509,0.378,2.948,1.113,4.295,1.999l0.987,0.707c0.323,0.245,0.615,0.521,0.927,0.783
						c0.637,0.514,1.176,1.113,1.748,1.69c0.572,0.578,1.053,1.221,1.582,1.83c0.504,0.625,0.952,1.281,1.426,1.917
						c0.884,1.304,1.73,2.61,2.447,3.919c0.771,1.29,1.377,2.591,2.008,3.808c0.588,1.231,1.106,2.41,1.603,3.495
						c0.453,1.109,0.868,2.125,1.236,3.026c0.372,0.905,0.628,1.667,0.873,2.309c0.473,1.275,0.742,2.004,0.742,2.004
						L388.998,125.543z"/>
				</g>
				<circle fill="#25441E" stroke="#63BC46" stroke-width="2.7491" cx="390.943" cy="124.745" r="8.947"/>
			</g>
		</g>
	</g>
	<g>
		<path fill="none" stroke="#EE3968" stroke-width="8.0113" stroke-miterlimit="10" d="M441.056,161.534
			c0,7.477-6.063,13.536-13.538,13.536H354.45c-7.473,0-13.535-6.06-13.535-13.536V88.472c0-7.48,6.063-13.542,13.535-13.542h73.067
			c7.476,0,13.538,6.062,13.538,13.542V161.534z"/>
		
			<line fill="none" stroke="#EE3968" stroke-width="8.0113" stroke-miterlimit="10" x1="340.915" y1="88.472" x2="441.056" y2="161.534"/>
		
			<line fill="none" stroke="#EE3968" stroke-width="8.0113" stroke-miterlimit="10" x1="441.056" y1="88.472" x2="340.915" y2="161.534"/>
	</g>
</g>
<g>
	<line fill="none" stroke="#000000" stroke-width="8.0113" stroke-miterlimit="10" x1="282.171" y1="125" x2="320.406" y2="125"/>
	
		<line fill="none" stroke="#000000" stroke-width="8.0113" stroke-miterlimit="10" x1="301.287" y1="144.117" x2="301.287" y2="105.882"/>
</g>
</svg>
