<?xml version="1.0" encoding="utf-8"?>
<!-- Generator: Adobe Illustrator 16.0.0, SVG Export Plug-In . SVG Version: 6.00 Build 0)  -->
<!DOCTYPE svg PUBLIC "-//W3C//DTD SVG 1.1//EN" "http://www.w3.org/Graphics/SVG/1.1/DTD/svg11.dtd">
<svg version="1.1" id="Layer_2" xmlns="http://www.w3.org/2000/svg" xmlns:xlink="http://www.w3.org/1999/xlink" x="0px" y="0px"
	 width="400px" height="400px" viewBox="0 0 400 400" enable-background="new 0 0 400 400" xml:space="preserve">
<g>
	<g>
		<polygon fill="#3399CC" points="200.006,200 283.492,250.075 366.94,300.16 283.473,350.244 200.006,400.326 200.006,300.16 		"/>
		<polygon fill="#996699" points="366.94,99.833 283.563,149.918 200.006,200 283.473,250.075 366.94,300.16 366.94,200 		"/>
		<polygon fill="#F89839" points="200.021,-0.326 116.537,49.752 33.063,99.833 116.544,149.918 200.021,200 200.021,99.833 		"/>
		<polygon fill="#EE3968" points="200.006,-0.326 283.466,49.752 366.94,99.833 283.473,149.918 200.006,200 200.006,99.833 		"/>
		<polygon fill="#FFCE09" points="200.021,200 116.537,250.075 33.06,300.16 116.544,350.244 200.021,400.326 200.021,300.16 		"/>
		<polygon fill="#6EC498" points="33.076,99.833 116.534,149.918 200.006,200 116.544,250.075 33.076,300.16 33.076,200 		"/>
	</g>
</g>
</svg>
