<?xml version="1.0" encoding="utf-8"?>
<!-- Generator: Adobe Illustrator 16.0.0, SVG Export Plug-In . SVG Version: 6.00 Build 0)  -->
<!DOCTYPE svg PUBLIC "-//W3C//DTD SVG 1.1//EN" "http://www.w3.org/Graphics/SVG/1.1/DTD/svg11.dtd">
<svg version="1.1" id="Layer_1" xmlns="http://www.w3.org/2000/svg" xmlns:xlink="http://www.w3.org/1999/xlink" x="0px" y="0px"
	 width="400px" height="400px" viewBox="0 0 400 400" enable-background="new 0 0 400 400" xml:space="preserve">
<polygon fill="#020202" points="364.999,300.002 200,400 35.001,300.002 35.001,99.999 200,0 364.999,99.999 "/>
<g>
	<polygon fill="#EC2227" points="200,200 84.501,129.999 200,60 315.5,129.999 	"/>
	<polygon fill="#DEDB24" points="200,200 200,270 200,340.001 142.25,304.999 84.501,270 142.25,235 	"/>
	<polygon fill="#4368B1" points="200.004,200 200.004,270 200,340.001 257.75,304.999 315.5,270 257.75,235 	"/>
	<polygon fill="#16A94A" points="84.501,129.999 142.25,165.001 200,200 142.25,235 84.501,270 84.501,200 	"/>
	<polygon fill="#6E1A45" points="315.5,129.913 257.75,164.911 200,199.913 257.75,234.912 315.5,269.912 315.5,199.913 	"/>
</g>
</svg>
