<?xml version="1.0" encoding="utf-8"?>
<!-- Generator: Adobe Illustrator 16.0.0, SVG Export Plug-In . SVG Version: 6.00 Build 0)  -->
<!DOCTYPE svg PUBLIC "-//W3C//DTD SVG 1.1//EN" "http://www.w3.org/Graphics/SVG/1.1/DTD/svg11.dtd">
<svg version="1.1" id="Layer_1" xmlns="http://www.w3.org/2000/svg" xmlns:xlink="http://www.w3.org/1999/xlink" x="0px" y="0px"
	 width="1687.953px" height="450px" viewBox="0 0 1687.953 450" enable-background="new 0 0 1687.953 450" xml:space="preserve">
<g>
	<g>
		<g>
			<path fill="#1364F0" d="M219.242,388.84c37.5,0.057,75-15.881,112.5-47.812c63.638-75,63.639-149.999,0.003-224.999
				c-37.501-31.931-75.002-47.868-112.503-47.812C219.13,175.091,219.13,281.966,219.242,388.84z"/>
			<path fill="#DCDC00" d="M107.137,341.027c37.327,31.784,74.654,47.722,111.981,47.812c-0.182-106.876-0.182-213.751,0-320.627
				c-37.327,0.091-74.654,16.028-111.981,47.812C43.499,191.026,43.499,266.026,107.137,341.027z"/>
			<path fill="none" stroke="#DEDEDE" stroke-width="30" d="M291.649,309.001"/>
			<path fill="none" stroke="#DEDEDE" stroke-width="30" d="M220.217,234.096"/>
			<path fill="none" stroke="#DEDEDE" stroke-width="30" d="M220.214,136.501"/>
			<path fill="none" stroke="#DEDEDE" stroke-width="30" d="M220.148,136.501"/>
			<path fill="none" stroke="#DEDEDE" stroke-width="30" d="M220.146,234.096"/>
			<path fill="none" stroke="#DEDEDE" stroke-width="30" d="M148.714,309.001"/>
			<path fill="#00A946" d="M107.137,341.027c5.611-5.628,58.946-59.062,112.283-112.498
				c53.337,53.437,106.675,106.878,112.294,112.522C256.854,404.778,181.996,404.77,107.137,341.027z"/>
			<g>
				<path fill="#F50000" d="M107.137,116.025c5.611,5.628,58.946,59.062,112.283,112.5c-0.087-53.438-0.172-106.875-0.178-160.313
					C181.874,68.269,144.505,84.206,107.137,116.025z"/>
			</g>
			<g>
				<path fill="#6D1943" d="M219.309,228.525c0.087-53.438,0.188-106.875,0.223-160.313c37.368,0.026,74.736,15.934,112.104,47.722"
					/>
			</g>
		</g>
	</g>
	<g>
		<g>
			<polygon fill="#CCCCCC" points="230.055,239.125 93.241,354.923 208.825,217.928 			"/>
		</g>
		<g>
			<polygon fill="#CCCCCC" points="230.056,217.93 345.818,355.133 208.823,239.123 			"/>
		</g>
		<g>
			<polygon fill="#CCCCCC" points="204.439,228.526 219.439,51.5 234.439,228.526 			"/>
		</g>
	</g>
	<circle fill="none" stroke="#FFFFFF" stroke-width="26.474" cx="219.439" cy="228.5" r="170"/>
</g>
<rect x="438.136" y="61.276" fill="none" width="1221.864" height="313.447"/>
<text transform="matrix(1 0 0 1 438.1357 371.6709)" fill="#FFFFFF" font-family="'Ubuntu-Light'" font-size="400">Efforia</text>
</svg>
