<?xml version="1.0" encoding="utf-8"?>
<!-- Generator: Adobe Illustrator 16.0.0, SVG Export Plug-In . SVG Version: 6.00 Build 0)  -->
<!DOCTYPE svg PUBLIC "-//W3C//DTD SVG 1.1//EN" "http://www.w3.org/Graphics/SVG/1.1/DTD/svg11.dtd">
<svg version="1.1" id="Layer_1" xmlns="http://www.w3.org/2000/svg" xmlns:xlink="http://www.w3.org/1999/xlink" x="0px" y="0px"
	 width="600px" height="400px" viewBox="0 0 600 400" enable-background="new 0 0 600 400" xml:space="preserve">
<g>
	<g>
		<rect x="225.333" y="137.232" fill="none" width="367.333" height="125.535"/>
		<path d="M256.708,142.46h9.828v43.659h-9.828v-18.521h-16.506v18.521h-9.828V142.46h9.828v16.695h16.506V142.46z"/>
		<path d="M293.688,187.001c-3.066,0-5.713-0.431-7.938-1.292c-2.227-0.859-4.063-2.057-5.513-3.591
			c-1.448-1.533-2.52-3.36-3.213-5.48c-0.692-2.121-1.039-4.463-1.039-7.024V142.46h9.828v26.334c0,1.765,0.198,3.267,0.599,4.505
			c0.398,1.239,0.944,2.247,1.638,3.024c0.693,0.777,1.532,1.333,2.52,1.669c0.986,0.336,2.068,0.504,3.245,0.504
			c2.394,0,4.336-0.733,5.827-2.205c1.49-1.47,2.236-3.969,2.236-7.497V142.46h9.828v27.153c0,2.562-0.356,4.914-1.071,7.056
			c-0.714,2.143-1.806,3.98-3.275,5.514c-1.471,1.533-3.338,2.72-5.606,3.56C299.484,186.581,296.796,187.001,293.688,187.001z"/>
		<path d="M335.708,186.687c-2.394,0-4.778-0.074-7.149-0.221c-2.373-0.147-4.842-0.492-7.402-1.04V143.09
			c2.016-0.378,4.221-0.662,6.615-0.851c2.394-0.189,4.619-0.284,6.678-0.284c2.771,0,5.322,0.2,7.654,0.6
			c2.33,0.398,4.336,1.081,6.017,2.047c1.68,0.967,2.991,2.236,3.938,3.812c0.944,1.575,1.418,3.519,1.418,5.828
			c0,3.487-1.682,6.237-5.041,8.253c2.771,1.05,4.662,2.479,5.67,4.284c1.008,1.806,1.513,3.843,1.513,6.111
			c0,4.577-1.671,8.021-5.009,10.332C347.27,185.531,342.302,186.687,335.708,186.687z M330.73,159.597h4.789
			c3.022,0,5.187-0.389,6.487-1.166c1.302-0.777,1.953-2.026,1.953-3.749c0-1.765-0.672-3.002-2.017-3.718
			c-1.344-0.714-3.317-1.07-5.922-1.07c-0.84,0-1.742,0.011-2.709,0.031c-0.967,0.021-1.826,0.074-2.582,0.157V159.597
			L330.73,159.597z M330.73,167.093v11.277c0.715,0.084,1.49,0.147,2.332,0.189c0.84,0.042,1.764,0.063,2.771,0.063
			c2.938,0,5.313-0.419,7.119-1.26c1.806-0.84,2.709-2.395,2.709-4.662c0-2.016-0.757-3.454-2.269-4.315
			c-1.513-0.859-3.676-1.292-6.488-1.292H330.73L330.73,167.093z"/>
		<path d="M398.52,187.001c-7.1,0-12.506-1.974-16.224-5.922c-3.717-3.947-5.575-9.554-5.575-16.821c0-3.611,0.566-6.835,1.7-9.671
			c1.136-2.835,2.688-5.229,4.662-7.182s4.325-3.434,7.058-4.441c2.729-1.008,5.689-1.512,8.883-1.512
			c1.848,0,3.527,0.137,5.039,0.41c1.513,0.272,2.836,0.588,3.97,0.945c1.134,0.356,2.079,0.725,2.835,1.103
			s1.302,0.672,1.638,0.882l-2.835,7.938c-1.345-0.713-2.908-1.323-4.693-1.827s-3.812-0.756-6.078-0.756
			c-1.512,0-2.992,0.252-4.441,0.756s-2.73,1.313-3.844,2.425c-1.113,1.113-2.006,2.551-2.678,4.315
			c-0.672,1.764-1.008,3.905-1.008,6.426c0,2.016,0.221,3.896,0.661,5.638c0.441,1.744,1.154,3.245,2.142,4.504
			c0.986,1.261,2.278,2.259,3.875,2.993c1.597,0.735,3.527,1.104,5.797,1.104c1.428,0,2.709-0.083,3.843-0.252
			c1.134-0.167,2.144-0.367,3.024-0.6c0.881-0.229,1.657-0.493,2.33-0.788c0.672-0.293,1.28-0.566,1.827-0.818l2.709,7.875
			c-1.387,0.841-3.34,1.597-5.858,2.268C404.755,186.665,401.836,187.001,398.52,187.001z"/>
		<path d="M448.603,177.677v8.442h-29.169V142.46h9.828v35.217H448.603z"/>
		<path d="M495.223,164.258c0,3.738-0.558,7.024-1.67,9.859s-2.636,5.208-4.566,7.119c-1.934,1.912-4.231,3.35-6.898,4.314
			c-2.668,0.966-5.534,1.449-8.6,1.449c-2.982,0-5.796-0.482-8.441-1.449c-2.646-0.966-4.957-2.403-6.931-4.314
			c-1.976-1.911-3.527-4.284-4.662-7.119c-1.134-2.835-1.7-6.121-1.7-9.859c0-3.737,0.587-7.024,1.764-9.859
			c1.176-2.835,2.762-5.218,4.758-7.15c1.993-1.931,4.305-3.38,6.93-4.347c2.624-0.966,5.387-1.449,8.284-1.449
			c2.98,0,5.796,0.483,8.441,1.449c2.646,0.966,4.955,2.416,6.931,4.347c1.974,1.934,3.527,4.315,4.661,7.15
			C494.657,157.233,495.223,160.521,495.223,164.258z M461.896,164.258c0,2.143,0.263,4.074,0.787,5.797
			c0.525,1.723,1.281,3.202,2.27,4.44c0.986,1.239,2.193,2.195,3.622,2.867c1.428,0.672,3.064,1.008,4.914,1.008
			c1.806,0,3.434-0.335,4.883-1.008c1.449-0.671,2.667-1.627,3.654-2.867c0.985-1.238,1.741-2.719,2.268-4.44
			c0.524-1.723,0.787-3.654,0.787-5.797c0-2.142-0.263-4.084-0.787-5.827c-0.525-1.742-1.281-3.234-2.268-4.474
			c-0.987-1.238-2.205-2.193-3.654-2.866c-1.449-0.671-3.077-1.008-4.883-1.008c-1.85,0-3.486,0.348-4.914,1.04
			c-1.429,0.693-2.636,1.66-3.622,2.898c-0.987,1.238-1.743,2.73-2.27,4.473C462.157,160.237,461.896,162.159,461.896,164.258z"/>
		<path d="M520.485,187.001c-3.066,0-5.713-0.431-7.938-1.292c-2.227-0.859-4.063-2.057-5.513-3.591
			c-1.448-1.533-2.521-3.36-3.213-5.48c-0.692-2.121-1.039-4.463-1.039-7.024V142.46h9.828v26.334c0,1.765,0.197,3.267,0.599,4.505
			c0.398,1.239,0.944,2.247,1.638,3.024s1.532,1.333,2.521,1.669c0.985,0.336,2.067,0.504,3.245,0.504
			c2.394,0,4.336-0.733,5.827-2.205c1.489-1.47,2.235-3.969,2.235-7.497V142.46h9.828v27.153c0,2.562-0.356,4.914-1.071,7.056
			c-0.714,2.143-1.806,3.98-3.274,5.514c-1.471,1.533-3.339,2.72-5.607,3.56C526.281,186.581,523.593,187.001,520.485,187.001z"/>
		<path d="M586.193,164.258c0,3.78-0.589,7.078-1.766,9.892c-1.176,2.813-2.846,5.146-5.008,6.993
			c-2.164,1.849-4.799,3.234-7.907,4.157c-3.107,0.924-6.594,1.387-10.458,1.387c-1.764,0-3.821-0.074-6.174-0.221
			c-2.353-0.147-4.662-0.45-6.93-0.914v-42.524c2.268-0.419,4.631-0.703,7.088-0.852c2.457-0.146,4.567-0.221,6.331-0.221
			c3.737,0,7.129,0.42,10.175,1.26c3.044,0.841,5.659,2.164,7.843,3.97c2.185,1.807,3.864,4.116,5.04,6.93
			C585.604,156.931,586.193,160.312,586.193,164.258z M557.78,178.118c0.462,0.042,0.997,0.074,1.605,0.094
			c0.608,0.022,1.333,0.032,2.174,0.032c4.913,0,8.558-1.238,10.931-3.717s3.56-5.9,3.56-10.27c0-4.577-1.134-8.042-3.4-10.395
			c-2.27-2.353-5.859-3.528-10.773-3.528c-0.672,0-1.365,0.012-2.079,0.032c-0.715,0.021-1.386,0.074-2.016,0.157L557.78,178.118
			L557.78,178.118z"/>
		<path d="M242.28,254.223c1.386,0,2.53-0.115,3.434-0.348c0.903-0.23,1.627-0.545,2.174-0.945c0.545-0.397,0.923-0.871,1.134-1.416
			c0.209-0.547,0.315-1.156,0.315-1.828c0-1.428-0.672-2.613-2.016-3.559c-1.344-0.945-3.654-1.963-6.93-3.057
			c-1.428-0.504-2.857-1.08-4.284-1.732c-1.428-0.65-2.709-1.469-3.843-2.457c-1.134-0.986-2.059-2.184-2.772-3.591
			c-0.715-1.406-1.071-3.118-1.071-5.134c0-2.018,0.378-3.832,1.134-5.45c0.756-1.616,1.827-2.992,3.213-4.126
			c1.386-1.135,3.065-2.006,5.04-2.615c1.974-0.607,4.199-0.913,6.678-0.913c2.939,0,5.481,0.315,7.623,0.944
			c2.142,0.631,3.906,1.324,5.292,2.08l-2.835,7.748c-1.219-0.629-2.573-1.186-4.063-1.67c-1.491-0.481-3.287-0.725-5.386-0.725
			c-2.353,0-4.043,0.325-5.072,0.978c-1.03,0.651-1.543,1.649-1.543,2.993c0,0.797,0.189,1.471,0.567,2.016
			c0.378,0.546,0.914,1.039,1.606,1.48c0.693,0.44,1.491,0.84,2.394,1.196c0.903,0.357,1.9,0.726,2.993,1.103
			c2.268,0.842,4.242,1.67,5.922,2.488c1.679,0.819,3.076,1.774,4.189,2.866c1.112,1.093,1.942,2.373,2.489,3.843
			c0.545,1.471,0.819,3.256,0.819,5.354c0,4.075-1.428,7.235-4.284,9.481c-2.856,2.248-7.161,3.371-12.915,3.371
			c-1.932,0-3.675-0.117-5.229-0.348c-1.554-0.23-2.929-0.516-4.126-0.852c-1.197-0.334-2.227-0.691-3.087-1.069
			c-0.861-0.378-1.586-0.733-2.173-1.071l2.772-7.813c1.301,0.715,2.908,1.354,4.819,1.922
			C237.167,253.938,239.508,254.223,242.28,254.223z"/>
		<path d="M264.833,245.402c0-2.939,0.451-5.514,1.354-7.719s2.089-4.041,3.56-5.513c1.47-1.47,3.16-2.583,5.072-3.34
			c1.91-0.756,3.875-1.133,5.891-1.133c4.703,0,8.42,1.438,11.15,4.313c2.73,2.879,4.096,7.109,4.096,12.695
			c0,0.546-0.021,1.145-0.064,1.795c-0.041,0.652-0.084,1.229-0.125,1.732h-21.295c0.211,1.933,1.113,3.465,2.709,4.6
			c1.596,1.134,3.738,1.701,6.428,1.701c1.721,0,3.41-0.158,5.07-0.473c1.658-0.315,3.014-0.703,4.064-1.166l1.26,7.623
			c-0.504,0.252-1.176,0.504-2.016,0.756c-0.842,0.252-1.775,0.473-2.805,0.662c-1.029,0.188-2.131,0.347-3.307,0.473
			c-1.178,0.126-2.354,0.188-3.529,0.188c-2.982,0-5.574-0.439-7.779-1.322c-2.205-0.883-4.032-2.09-5.481-3.623
			c-1.449-1.531-2.52-3.349-3.213-5.449C265.18,250.105,264.833,247.838,264.833,245.402z M286.884,241.811
			c-0.043-0.797-0.18-1.574-0.41-2.33s-0.588-1.428-1.07-2.017c-0.484-0.588-1.094-1.071-1.828-1.448
			c-0.734-0.379-1.648-0.567-2.74-0.567c-1.049,0-1.953,0.18-2.709,0.536s-1.385,0.828-1.889,1.416
			c-0.504,0.59-0.895,1.271-1.166,2.049c-0.273,0.777-0.473,1.564-0.6,2.361H286.884z"/>
		<path d="M323.171,236.896c-0.841-0.209-1.827-0.431-2.961-0.662c-1.134-0.229-2.353-0.346-3.653-0.346
			c-0.589,0-1.291,0.053-2.111,0.157c-0.817,0.104-1.438,0.22-1.857,0.347v25.325H303.2v-31.374
			c1.679-0.588,3.664-1.144,5.952-1.669c2.289-0.524,4.842-0.788,7.654-0.788c0.506,0,1.112,0.032,1.827,0.096
			c0.714,0.063,1.429,0.146,2.144,0.252c0.713,0.104,1.427,0.23,2.142,0.377c0.714,0.147,1.323,0.326,1.827,0.537L323.171,236.896z"
			/>
		<path d="M340.794,261.719c-2.149-4.199-4.332-9.113-6.545-14.742c-2.213-5.627-4.312-11.76-6.291-18.396h9.954
			c0.421,1.64,0.917,3.414,1.486,5.323c0.569,1.912,1.16,3.844,1.772,5.797c0.61,1.953,1.222,3.854,1.834,5.701
			c0.612,1.849,1.214,3.527,1.806,5.039c0.547-1.512,1.138-3.19,1.77-5.039c0.633-1.848,1.255-3.748,1.865-5.701
			c0.611-1.953,1.201-3.885,1.771-5.797c0.569-1.909,1.065-3.686,1.486-5.323h9.708c-1.979,6.637-4.076,12.771-6.287,18.396
			c-2.211,5.629-4.392,10.543-6.539,14.742H340.794z"/>
		<path d="M376.656,219.005c0,1.724-0.557,3.077-1.67,4.063c-1.112,0.986-2.426,1.479-3.938,1.479c-1.513,0-2.824-0.493-3.938-1.479
			s-1.67-2.342-1.67-4.063s0.557-3.075,1.67-4.063c1.111-0.985,2.425-1.479,3.938-1.479c1.512,0,2.824,0.494,3.938,1.479
			C376.1,215.93,376.656,217.283,376.656,219.005z M375.773,261.719h-9.387V228.58h9.387V261.719z"/>
		<path d="M383.02,245.15c0-2.396,0.388-4.652,1.166-6.773c0.775-2.12,1.898-3.969,3.369-5.544s3.254-2.823,5.354-3.748
			c2.1-0.923,4.493-1.386,7.183-1.386c1.764,0,3.381,0.156,4.852,0.473c1.47,0.314,2.897,0.766,4.283,1.354l-1.953,7.498
			c-0.881-0.336-1.849-0.631-2.896-0.883c-1.051-0.252-2.227-0.377-3.527-0.377c-2.772,0-4.842,0.86-6.205,2.582
			c-1.367,1.723-2.049,3.99-2.049,6.805c0,2.982,0.641,5.291,1.922,6.931c1.28,1.638,3.518,2.457,6.709,2.457
			c1.135,0,2.353-0.104,3.654-0.315c1.301-0.209,2.498-0.546,3.592-1.008l1.322,7.686c-1.093,0.463-2.457,0.86-4.096,1.197
			c-1.639,0.336-3.444,0.504-5.418,0.504c-3.023,0-5.629-0.451-7.813-1.354c-2.185-0.902-3.98-2.131-5.387-3.686
			c-1.407-1.554-2.438-3.392-3.087-5.513C383.344,249.928,383.02,247.629,383.02,245.15z"/>
		<path d="M412.943,245.402c0-2.939,0.451-5.514,1.354-7.719c0.902-2.205,2.089-4.041,3.56-5.513c1.471-1.47,3.16-2.583,5.071-3.34
			c1.911-0.756,3.875-1.133,5.892-1.133c4.703,0,8.42,1.438,11.15,4.313c2.729,2.879,4.096,7.109,4.096,12.695
			c0,0.546-0.021,1.145-0.063,1.795c-0.042,0.652-0.084,1.229-0.126,1.732h-21.294c0.21,1.933,1.112,3.465,2.709,4.6
			c1.596,1.134,3.738,1.701,6.427,1.701c1.723,0,3.411-0.158,5.071-0.473c1.658-0.315,3.013-0.703,4.063-1.166l1.261,7.623
			c-0.504,0.252-1.176,0.504-2.017,0.756s-1.774,0.473-2.804,0.662c-1.029,0.188-2.132,0.347-3.308,0.473
			c-1.178,0.126-2.354,0.188-3.528,0.188c-2.982,0-5.575-0.439-7.78-1.322c-2.204-0.883-4.032-2.09-5.479-3.623
			c-1.449-1.531-2.521-3.349-3.215-5.449C413.291,250.105,412.943,247.838,412.943,245.402z M434.994,241.811
			c-0.042-0.797-0.179-1.574-0.409-2.33s-0.589-1.428-1.071-2.017c-0.482-0.588-1.093-1.071-1.827-1.448
			c-0.734-0.379-1.647-0.567-2.739-0.567c-1.05,0-1.953,0.18-2.709,0.536s-1.387,0.828-1.891,1.416
			c-0.504,0.59-0.894,1.271-1.166,2.049s-0.473,1.564-0.599,2.361H434.994z"/>
	</g>
</g>
<g>
	<polygon points="184.008,250 100.931,300 17.854,250 17.854,150 100.931,100 184.008,150 	"/>
	<g>
		<g>
			<rect x="67.747" y="176.201" fill="#0098FF" width="65.752" height="23.707"/>
			<circle fill="#0098FF" cx="67.747" cy="183.702" r="16.206"/>
			<circle fill="#0098FF" cx="133.5" cy="183.702" r="16.206"/>
			<circle fill="#0098FF" cx="80.62" cy="163.7" r="16.207"/>
			<circle fill="#0098FF" cx="120.256" cy="163.7" r="16.207"/>
			<circle fill="#0098FF" cx="100.623" cy="153.975" r="16.207"/>
			<rect x="67.747" y="168.793" fill="#0098FF" width="65.752" height="16.299"/>
		</g>
		<g>
			<rect x="67.747" y="191.019" fill="#29B3FF" width="65.752" height="23.707"/>
			<circle fill="#29B3FF" cx="67.747" cy="198.52" r="16.207"/>
			<circle fill="#29B3FF" cx="133.5" cy="198.52" r="16.207"/>
			<circle fill="#29B3FF" cx="80.62" cy="178.516" r="16.207"/>
			<circle fill="#29B3FF" cx="120.256" cy="178.516" r="16.207"/>
			<circle fill="#29B3FF" cx="100.623" cy="168.792" r="16.207"/>
			<rect x="67.747" y="183.61" fill="#29B3FF" width="65.752" height="16.3"/>
		</g>
		<g>
			<rect x="67.747" y="209.54" fill="#5FCEFF" width="65.752" height="23.707"/>
			<circle fill="#5FCEFF" cx="67.747" cy="217.042" r="16.207"/>
			<circle fill="#5FCEFF" cx="133.5" cy="217.042" r="16.207"/>
			<circle fill="#5FCEFF" cx="80.62" cy="197.038" r="16.207"/>
			<circle fill="#5FCEFF" cx="120.256" cy="197.038" r="16.207"/>
			<circle fill="#5FCEFF" cx="100.623" cy="187.314" r="16.207"/>
			<rect x="67.747" y="202.132" fill="#5FCEFF" width="65.752" height="16.299"/>
		</g>
		<g>
			<rect x="67.747" y="228.062" fill="#FFFFFF" width="65.752" height="23.707"/>
			<circle fill="#FFFFFF" cx="67.747" cy="235.563" r="16.207"/>
			<circle fill="#FFFFFF" cx="133.5" cy="235.563" r="16.207"/>
			<circle fill="#FFFFFF" cx="80.62" cy="215.559" r="16.207"/>
			<circle fill="#FFFFFF" cx="120.256" cy="215.559" r="16.207"/>
			<circle fill="#FFFFFF" cx="100.623" cy="205.836" r="16.206"/>
			<rect x="67.747" y="220.653" fill="#FFFFFF" width="65.752" height="16.299"/>
		</g>
	</g>
</g>
</svg>
