<?xml version="1.0" encoding="utf-8"?>
<!-- Generator: Adobe Illustrator 19.1.0, SVG Export Plug-In . SVG Version: 6.00 Build 0)  -->
<svg version="1.1" id="Camada_1" xmlns="http://www.w3.org/2000/svg" xmlns:xlink="http://www.w3.org/1999/xlink" x="0px" y="0px"
	 viewBox="0 0 640 360" style="enable-background:new 0 0 640 360;" xml:space="preserve">
<style type="text/css">
	.st0{fill:none;stroke:#000000;stroke-width:2;stroke-miterlimit:10;}
	.st1{fill:none;stroke:#000000;stroke-width:2;stroke-miterlimit:10;stroke-dasharray:12.611,12.611;}
	.st2{fill:none;stroke:#000000;stroke-width:2;stroke-miterlimit:10;stroke-dasharray:11.9372,11.9372;}
	.st3{fill:none;stroke:#000000;stroke-width:2;stroke-miterlimit:10;stroke-dasharray:12.2656,12.2656;}
</style>
<g>
	<g>
		<rect x="183.1" y="112.3" class="st0" width="230.8" height="196.5"/>
		<polygon class="st0" points="356.8,30 240.2,30 183.1,112.3 413.9,112.3 		"/>
		<rect x="249.4" y="171.7" class="st0" width="96" height="70.8"/>
		<line class="st0" x1="297" y1="172" x2="297" y2="243"/>
		<line class="st0" x1="249" y1="209" x2="345" y2="209"/>
	</g>
	<line class="st0" x1="97" y1="330" x2="499" y2="330"/>
	<g>
		<g>
			<g>
				<g>
					<g>
						<path class="st0" d="M500.7,79.9c1.4,1.4,2.8,2.9,4.2,4.3"/>
						<path class="st1" d="M513,93.8c41.2,53.4,39.9,128.8-4,180.8"/>
						<path class="st0" d="M504.9,279.3c-1.3,1.5-2.7,2.9-4.2,4.3"/>
					</g>
				</g>
				<g>
					<g>
						<path class="st0" d="M474.1,106.5c1.4,1.4,2.8,2.9,4.1,4.4"/>
						<path class="st2" d="M485.6,120.2c27.3,38.4,26.1,90.7-3.6,127.9"/>
						<path class="st0" d="M478.2,252.7c-1.3,1.5-2.7,2.9-4.1,4.4"/>
					</g>
				</g>
				<g>
					<g>
						<path class="st0" d="M445.3,137.7c1.4,1.4,2.8,2.9,4,4.4"/>
						<path class="st3" d="M456.2,152.3c10.8,20.1,9.8,44.9-3.2,64.1"/>
						<path class="st0" d="M449.4,221.4c-1.3,1.5-2.6,3-4,4.4"/>
					</g>
				</g>
			</g>
		</g>
	</g>
	<rect x="168.6" y="247.5" class="st0" width="14.5" height="12.3"/>
	<rect x="168.6" y="225.2" class="st0" width="14.5" height="12.3"/>
	<rect x="168.6" y="202.9" class="st0" width="14.5" height="12.3"/>
	<rect x="168.6" y="180.6" class="st0" width="14.5" height="12.3"/>
	<line class="st0" x1="168" y1="187" x2="116" y2="187"/>
	<line class="st0" x1="116" y1="187" x2="116" y2="330"/>
	<line class="st0" x1="168" y1="210" x2="116" y2="210"/>
	<line class="st0" x1="168" y1="232" x2="116" y2="232"/>
	<line class="st0" x1="168" y1="254" x2="116" y2="254"/>
	<line class="st0" x1="183.1" y1="308.8" x2="162.5" y2="329.4"/>
	<line class="st0" x1="413.9" y1="308.8" x2="435.1" y2="330"/>
</g>
</svg>
