<?xml version="1.0" encoding="utf-8"?>
<!-- Generator: Adobe Illustrator 16.0.0, SVG Export Plug-In . SVG Version: 6.00 Build 0)  -->
<!DOCTYPE svg PUBLIC "-//W3C//DTD SVG 1.1//EN" "http://www.w3.org/Graphics/SVG/1.1/DTD/svg11.dtd">
<svg version="1.1" id="Layer_1" xmlns="http://www.w3.org/2000/svg" xmlns:xlink="http://www.w3.org/1999/xlink" x="0px" y="0px"
	 width="400px" height="400px" viewBox="0 0 400 400" enable-background="new 0 0 400 400" xml:space="preserve">
<polygon fill="#020202" stroke="#000000" stroke-miterlimit="10" points="364.999,300.002 200,400 35.001,300.002 35.001,99.999 
	200,0 364.999,99.999 "/>
<polygon fill="#6E1A45" stroke="#6E1944" stroke-width="1.0532" stroke-miterlimit="10" points="315.856,270.001 200.001,340 
	84.144,270.001 84.145,130.001 200.001,60 315.856,130.001 "/>
<g>
	<path id="rect3330_6_" fill="#6E1A45" d="M176.659,99.999h46.686c42.334,0,76.655,34.32,76.655,76.661v46.682
		c0,42.338-34.321,76.659-76.655,76.659h-46.686c-42.34,0-76.659-34.321-76.659-76.659V176.66
		C100,134.319,134.319,99.999,176.659,99.999z"/>
	<g>
		<g>
			<path fill="none" stroke="#FFFFFF" stroke-width="9.683" d="M141.487,182.64c32.339-32.336,84.684-32.336,117.023,0"/>
			<path fill="none" stroke="#FFFFFF" stroke-width="9.683" d="M156.792,197.943c23.883-23.873,62.534-23.873,86.42,0"/>
			<path fill="none" stroke="#FFFFFF" stroke-width="9.683" d="M174.712,214.435c13.976-13.984,36.604-13.984,50.58,0"/>
		</g>
		<path fill="#FFFFFF" d="M210.696,230.92c0,5.901-4.792,10.691-10.691,10.691c-5.911,0-10.691-4.79-10.691-10.691
			c0-5.902,4.78-10.691,10.691-10.691C205.904,220.229,210.696,225.018,210.696,230.92z"/>
	</g>
</g>
</svg>
