<?xml version="1.0" encoding="UTF-8" standalone="no"?>
<!-- Generator: Adobe Illustrator 19.1.0, SVG Export Plug-In . SVG Version: 6.00 Build 0)  -->

<svg
   xmlns:dc="http://purl.org/dc/elements/1.1/"
   xmlns:cc="http://creativecommons.org/ns#"
   xmlns:rdf="http://www.w3.org/1999/02/22-rdf-syntax-ns#"
   xmlns:svg="http://www.w3.org/2000/svg"
   xmlns="http://www.w3.org/2000/svg"
   xmlns:sodipodi="http://sodipodi.sourceforge.net/DTD/sodipodi-0.dtd"
   xmlns:inkscape="http://www.inkscape.org/namespaces/inkscape"
   version="1.1"
   id="Camada_1"
   x="0px"
   y="0px"
   viewBox="0 0 270 270"
   xml:space="preserve"
   inkscape:version="0.48.4 r9939"
   sodipodi:docname="hubdev.svg"
   width="270"
   height="270"><metadata
     id="metadata87"><rdf:RDF><cc:Work
         rdf:about=""><dc:format>image/svg+xml</dc:format><dc:type
           rdf:resource="http://purl.org/dc/dcmitype/StillImage" /><dc:title /></cc:Work></rdf:RDF></metadata><defs
     id="defs85" /><sodipodi:namedview
     pagecolor="#ffffff"
     bordercolor="#666666"
     borderopacity="1"
     objecttolerance="10"
     gridtolerance="10"
     guidetolerance="10"
     inkscape:pageopacity="0"
     inkscape:pageshadow="2"
     inkscape:window-width="1680"
     inkscape:window-height="1026"
     id="namedview83"
     showgrid="false"
     inkscape:zoom="0.4578125"
     inkscape:cx="-243.54949"
     inkscape:cy="180"
     inkscape:window-x="0"
     inkscape:window-y="24"
     inkscape:window-maximized="1"
     inkscape:current-layer="Camada_1" /><style
     type="text/css"
     id="style3">
	.st0{fill:#FFFFFF;stroke:#000000;stroke-width:0.875;stroke-miterlimit:10;}
	.st1{stroke:#FFFFFF;stroke-width:0.3606;stroke-miterlimit:10;}
	.st2{fill:#3799CF;}
	.st3{fill:#A06397;}
	.st4{fill:#F4982C;}
	.st5{fill:#E72D60;}
	.st6{fill:#FFCF00;}
	.st7{fill:#78C193;}
	.st8{fill:none;stroke:#FFFFFF;stroke-width:1.0818;stroke-miterlimit:10;}
	.st9{fill:none;stroke:#FFFFFF;stroke-width:1.0818;stroke-miterlimit:10;stroke-dasharray:2.4555,2.4555;}
	.st10{fill:none;stroke:#FFFFFF;stroke-width:1.0818;stroke-miterlimit:10;stroke-dasharray:2.6337,2.6337;}
	.st11{fill:none;stroke:#000000;stroke-width:9.3994;stroke-miterlimit:10;}
	.st12{fill:none;stroke:#000000;stroke-miterlimit:10;}
	.st13{fill:#6D1843;stroke:#6D1843;stroke-width:1.7301;stroke-miterlimit:10;}
	.st14{fill:#8C2764;stroke:#8C2764;stroke-width:1.7301;stroke-miterlimit:10;}
	.st15{fill:#BF5E93;stroke:#BF5E93;stroke-width:1.7301;stroke-miterlimit:10;}
	.st16{fill:#D280B1;stroke:#D280B1;stroke-width:1.7301;stroke-miterlimit:10;}
	.st17{fill:#D1A3C1;stroke:#D1A3C1;stroke-width:1.7301;stroke-miterlimit:10;}
	.st18{fill:#488DCB;}
	.st19{fill:#4FACE0;}
	.st20{fill:#6ACAF3;}
	.st21{fill:#91D9F2;}
	.st22{fill:none;}
	.st23{fill:#12A84B;}
	.st24{fill:#14B14B;}
	.st25{fill:#36B350;}
	.st26{fill:#48B656;}
	.st27{fill:#5DBA55;}
	.st28{fill:#72BF52;}
	.st29{fill:#99BC88;}
	.st30{fill:#EC1C24;}
	.st31{fill:#E94753;}
	.st32{fill:#EE6771;}
	.st33{fill:#ED8D97;}
	.st34{fill:#E4B4BC;}
	.st35{fill:#E2D0D4;}
</style><g
     id="g5"
     transform="translate(-184.6,-45.499992)"><rect
       x="243.3"
       y="82.300003"
       class="st0"
       width="153.10001"
       height="196.2"
       id="rect7"
       style="fill:#ffffff;stroke:#000000;stroke-width:0.875;stroke-miterlimit:10" /><g
       id="g9"><polyline
         class="st2"
         points="364.3,190.1 341.7,203.6 319.2,217.2 319.2,190.1 319.2,163.1   "
         id="polyline11"
         style="fill:#3799cf" /><polyline
         class="st3"
         points="364.3,190.1 364.3,163.1 364.3,136 341.8,149.5 319.2,163.1   "
         id="polyline13"
         style="fill:#a06397" /><polyline
         class="st4"
         points="319.2,109 296.7,122.5 274.1,136 296.7,149.5 319.2,163.1   "
         id="polyline15"
         style="fill:#f4982c" /><polyline
         class="st5"
         points="319.2,109 341.7,122.5 364.3,136 341.7,149.5 319.2,163.1   "
         id="polyline17"
         style="fill:#e72d60" /><polyline
         class="st6"
         points="274.1,190.1 296.7,203.6 319.2,217.2 319.2,190.1 319.2,163.1   "
         id="polyline19"
         style="fill:#ffcf00" /><polyline
         class="st7"
         points="274.1,190.1 274.1,163.1 274.1,136 296.7,149.5 319.2,163.1   "
         id="polyline21"
         style="fill:#78c193" /><g
         id="g23"><g
           id="g25"><g
             id="g27"><line
               class="st8"
               x1="319.20001"
               y1="109"
               x2="319.20001"
               y2="110.2"
               id="line29"
               style="fill:none;stroke:#ffffff;stroke-width:1.08179998;stroke-miterlimit:10" /><line
               class="st9"
               x1="319.20001"
               y1="112.7"
               x2="319.20001"
               y2="160.60001"
               id="line31"
               style="fill:none;stroke:#ffffff;stroke-width:1.08179998;stroke-miterlimit:10;stroke-dasharray:2.4555, 2.4555" /><line
               class="st8"
               x1="319.20001"
               y1="161.8"
               x2="319.20001"
               y2="163.10001"
               id="line33"
               style="fill:none;stroke:#ffffff;stroke-width:1.08179998;stroke-miterlimit:10" /></g></g><g
           id="g35"><g
             id="g37"><line
               class="st8"
               x1="319.20001"
               y1="163.10001"
               x2="320.29999"
               y2="163.7"
               id="line39"
               style="fill:none;stroke:#ffffff;stroke-width:1.08179998;stroke-miterlimit:10" /><line
               class="st10"
               x1="322.5"
               y1="165.10001"
               x2="362.10001"
               y2="188.8"
               id="line41"
               style="fill:none;stroke:#ffffff;stroke-width:1.08179998;stroke-miterlimit:10;stroke-dasharray:2.6337, 2.6337" /><line
               class="st8"
               x1="363.20001"
               y1="189.5"
               x2="364.29999"
               y2="190.10001"
               id="line43"
               style="fill:none;stroke:#ffffff;stroke-width:1.08179998;stroke-miterlimit:10" /></g></g><g
           id="g45"><g
             id="g47"><line
               class="st8"
               x1="319.20001"
               y1="163.10001"
               x2="318.10001"
               y2="163.7"
               id="line49"
               style="fill:none;stroke:#ffffff;stroke-width:1.08179998;stroke-miterlimit:10" /><line
               class="st10"
               x1="315.79999"
               y1="165.10001"
               x2="276.29999"
               y2="188.8"
               id="line51"
               style="fill:none;stroke:#ffffff;stroke-width:1.08179998;stroke-miterlimit:10;stroke-dasharray:2.6337, 2.6337" /><line
               class="st8"
               x1="275.20001"
               y1="189.5"
               x2="274.10001"
               y2="190.10001"
               id="line53"
               style="fill:none;stroke:#ffffff;stroke-width:1.08179998;stroke-miterlimit:10" /></g></g></g><g
         id="g55"><line
           class="st8"
           x1="319.20001"
           y1="217.2"
           x2="319.20001"
           y2="163.10001"
           id="line57"
           style="fill:none;stroke:#ffffff;stroke-width:1.08179998;stroke-miterlimit:10" /><line
           class="st8"
           x1="319.20001"
           y1="163.10001"
           x2="364.29999"
           y2="136"
           id="line59"
           style="fill:none;stroke:#ffffff;stroke-width:1.08179998;stroke-miterlimit:10" /><line
           class="st8"
           x1="319.20001"
           y1="163.10001"
           x2="274.10001"
           y2="136"
           id="line61"
           style="fill:none;stroke:#ffffff;stroke-width:1.08179998;stroke-miterlimit:10" /></g></g><rect
       x="252"
       y="283.79999"
       class="st0"
       width="135"
       height="11"
       id="rect63"
       style="fill:#ffffff;stroke:#000000;stroke-width:0.875;stroke-miterlimit:10" /><rect
       x="252"
       y="66.199997"
       class="st0"
       width="135"
       height="11"
       id="rect65"
       style="fill:#ffffff;stroke:#000000;stroke-width:0.875;stroke-miterlimit:10" /><line
       class="st11"
       x1="240.3"
       y1="77.900002"
       x2="398.89999"
       y2="77.900002"
       id="line67"
       style="fill:none;stroke:#000000;stroke-width:9.39939976;stroke-miterlimit:10" /><line
       class="st11"
       x1="240.3"
       y1="282.89999"
       x2="398.89999"
       y2="282.89999"
       id="line69"
       style="fill:none;stroke:#000000;stroke-width:9.39939976;stroke-miterlimit:10" /><g
       id="g71"><path
         d="m 306.6,228.3 3.5,0 0,15.6 -3.5,0 0,-6.6 -5.9,0 0,6.6 -3.5,0 0,-15.6 3.5,0 0,6 5.9,0 0,-6 z"
         id="path73"
         inkscape:connector-curvature="0" /><path
         d="m 319.8,244.2 c -1.1,0 -2,-0.2 -2.8,-0.5 -0.8,-0.3 -1.5,-0.7 -2,-1.3 -0.5,-0.5 -0.9,-1.2 -1.1,-2 -0.2,-0.8 -0.4,-1.6 -0.4,-2.5 l 0,-9.7 3.5,0 0,9.4 c 0,0.6 0.1,1.2 0.2,1.6 0.1,0.4 0.3,0.8 0.6,1.1 0.3,0.3 0.5,0.5 0.9,0.6 0.4,0.1 0.7,0.2 1.2,0.2 0.9,0 1.5,-0.3 2.1,-0.8 0.5,-0.5 0.8,-1.4 0.8,-2.7 l 0,-9.4 3.5,0 0,9.7 c 0,0.9 -0.1,1.8 -0.4,2.5 -0.3,0.8 -0.6,1.4 -1.2,2 -0.5,0.5 -1.2,1 -2,1.3 -0.8,0.4 -1.8,0.5 -2.9,0.5 z"
         id="path75"
         inkscape:connector-curvature="0" /><path
         d="m 334.8,244.1 c -0.9,0 -1.7,0 -2.6,-0.1 -0.8,-0.1 -1.7,-0.2 -2.6,-0.4 l 0,-15.1 c 0.7,-0.1 1.5,-0.2 2.4,-0.3 0.9,-0.1 1.6,-0.1 2.4,-0.1 1,0 1.9,0.1 2.7,0.2 0.8,0.1 1.5,0.4 2.1,0.7 0.6,0.3 1.1,0.8 1.4,1.4 0.3,0.6 0.5,1.3 0.5,2.1 0,1.2 -0.6,2.2 -1.8,2.9 1,0.4 1.7,0.9 2,1.5 0.4,0.6 0.5,1.4 0.5,2.2 0,1.6 -0.6,2.9 -1.8,3.7 -1,0.9 -2.8,1.3 -5.2,1.3 z m -1.7,-9.7 1.7,0 c 1.1,0 1.9,-0.1 2.3,-0.4 0.5,-0.3 0.7,-0.7 0.7,-1.3 0,-0.6 -0.2,-1.1 -0.7,-1.3 -0.5,-0.3 -1.2,-0.4 -2.1,-0.4 -0.3,0 -0.6,0 -1,0 -0.3,0 -0.7,0 -0.9,0.1 l 0,3.3 z m 0,2.7 0,4 c 0.3,0 0.5,0.1 0.8,0.1 0.3,0 0.6,0 1,0 1.1,0 1.9,-0.1 2.5,-0.4 0.6,-0.3 1,-0.9 1,-1.7 0,-0.7 -0.3,-1.2 -0.8,-1.5 -0.5,-0.3 -1.3,-0.5 -2.3,-0.5 l -2.2,0 z"
         id="path77"
         inkscape:connector-curvature="0" /></g><rect
       x="247.89999"
       y="163.10001"
       width="5.5999999"
       height="30.1"
       id="rect79" /><rect
       x="386.60001"
       y="163.10001"
       width="5.5999999"
       height="30.1"
       id="rect81" /></g></svg>