<?xml version="1.0" encoding="utf-8"?>
<!-- Generator: Adobe Illustrator 19.1.0, SVG Export Plug-In . SVG Version: 6.00 Build 0)  -->
<svg version="1.1" id="Layer_1" xmlns="http://www.w3.org/2000/svg" xmlns:xlink="http://www.w3.org/1999/xlink" x="0px" y="0px"
	 viewBox="-59.4 182 700 430" style="enable-background:new -59.4 182 700 430;" xml:space="preserve">
<style type="text/css">
	.st0{fill:#171617;stroke:#000000;stroke-width:0.7524;stroke-miterlimit:10;}
	.st1{fill:#EE3968;}
	.st2{fill:#EF3B68;}
	.st3{fill:#EF3B68;stroke:#A61E2E;stroke-width:1.0616;stroke-miterlimit:10;}
	.st4{fill:#FFCE09;stroke:#F89839;stroke-width:1.0616;stroke-miterlimit:10;}
	.st5{fill:none;stroke:#A61E2E;stroke-width:1.0751;stroke-miterlimit:10;}
	.st6{fill:none;stroke:#A61E2E;stroke-width:1.1031;stroke-miterlimit:10;}
	.st7{fill:none;stroke:#A61E2E;stroke-width:1.1435;stroke-miterlimit:10;}
	.st8{fill:none;stroke:#A61E2E;stroke-width:1.0816;stroke-miterlimit:10;}
	.st9{fill:#A61E2E;}
	.st10{fill:#FFFFFF;}
	.st11{fill:#171617;stroke:#000000;stroke-width:1.2216;stroke-miterlimit:10;}
	.st12{fill:none;stroke:#000000;stroke-width:0.7524;stroke-miterlimit:10;}
	.st13{fill:#FFCE09;stroke:#F89839;stroke-width:1.0247;stroke-miterlimit:10;}
	.st14{fill:#FFCE09;}
	.st15{fill:none;stroke:#F89839;stroke-width:1.0247;stroke-miterlimit:10;}
	.st16{fill:#6EC498;stroke:#579975;stroke-width:1.2216;stroke-miterlimit:10;}
	.st17{fill:none;stroke:#579975;stroke-width:2.4432;stroke-miterlimit:10;}
	.st18{fill:#FFFFFF;stroke:#000000;stroke-width:0.6108;stroke-miterlimit:10;}
	.st19{fill:#010101;stroke:#FFFFFF;stroke-width:0.2518;stroke-miterlimit:10;}
	.st20{fill:#3399CC;}
	.st21{fill:#996699;}
	.st22{fill:#F89839;}
	.st23{fill:#6EC498;}
	.st24{fill:none;stroke:#FFFFFF;stroke-width:0.7552;stroke-miterlimit:10;}
	.st25{fill:none;stroke:#FFFFFF;stroke-width:0.7552;stroke-miterlimit:10;stroke-dasharray:1.714,1.714;}
	.st26{fill:none;stroke:#FFFFFF;stroke-width:0.7552;stroke-miterlimit:10;stroke-dasharray:1.8385,1.8385;}
	.st27{fill:none;stroke:#FFFFFF;stroke-width:0.7552;stroke-miterlimit:10;stroke-dasharray:1.8384,1.8384;}
	.st28{fill:none;stroke:#000000;stroke-width:6.5613;stroke-miterlimit:10;}
	.st29{fill:none;stroke:#000000;stroke-width:2.4432;stroke-miterlimit:10;}
	.st30{fill:none;stroke:#000000;stroke-width:2.3242;stroke-miterlimit:10;}
</style>
<rect x="-59.4" y="384.3" width="111.1" height="6.1"/>
<g>
	<polygon class="st0" points="41.6,390.5 43.4,391.9 51.3,391.9 51.3,382.9 43.4,382.9 41.6,384.4 	"/>
	<polygon class="st0" points="82.3,398.2 59.8,398.2 51.3,395.8 51.3,379 59.8,376.6 82.3,376.6 	"/>
	<line class="st0" x1="49.5" y1="382.9" x2="49.5" y2="391.9"/>
	<line class="st0" x1="47.7" y1="382.9" x2="47.7" y2="391.9"/>
	<line class="st0" x1="45.8" y1="382.9" x2="45.8" y2="391.9"/>
	<line class="st0" x1="44" y1="382.9" x2="44" y2="391.9"/>
</g>
<g>
	<rect x="106.1" y="481.9" class="st1" width="6.1" height="130.1"/>
</g>
<g>
	<polygon class="st2" points="105.2,489.8 101.5,480.1 116.8,480.1 113.1,489.8 	"/>
	<polygon class="st3" points="100.3,463.7 118,463.7 118,477.6 116.8,480.1 101.5,480.1 100.3,477.6 	"/>
	<path class="st4" d="M100.3,477.7"/>
	<line class="st5" x1="116.8" y1="481.8" x2="101.5" y2="481.8"/>
	<line class="st6" x1="115.9" y1="483.7" x2="102.4" y2="483.7"/>
	<line class="st7" x1="114.9" y1="485.5" x2="103.3" y2="485.5"/>
	<line class="st8" x1="114.3" y1="487.3" x2="104" y2="487.3"/>
	<rect x="104.7" y="488.8" class="st9" width="8.8" height="4.3"/>
</g>
<g>
	<path class="st10" d="M64.2,382.2v1h-4.2v-1h1.8v-1.6h-1.8v-1h4.2v1h-1.6v1.6H64.2z"/>
	<path class="st10" d="M62.1,387.9c-0.4,0-0.7-0.1-1-0.2c-0.3-0.1-0.5-0.3-0.7-0.5c-0.2-0.2-0.3-0.5-0.4-0.8c-0.1-0.3-0.1-0.6-0.1-1
		c0-0.2,0-0.4,0-0.6c0-0.2,0-0.5,0.1-0.7h4.1c0,0.2,0.1,0.4,0.1,0.7c0,0.2,0,0.4,0,0.6c0,0.4,0,0.7-0.1,1s-0.2,0.5-0.4,0.8
		c-0.2,0.2-0.4,0.4-0.7,0.5C62.8,387.8,62.4,387.9,62.1,387.9z M60.7,385.1c0,0,0,0.1,0,0.2c0,0.1,0,0.1,0,0.2
		c0,0.5,0.1,0.8,0.4,1.1c0.2,0.2,0.6,0.3,1,0.3c0.4,0,0.8-0.1,1-0.3c0.2-0.2,0.3-0.6,0.3-1c0-0.1,0-0.1,0-0.2c0-0.1,0-0.1,0-0.2
		H60.7L60.7,385.1z"/>
	<path class="st10" d="M64.2,389.8c-0.1,0.1-0.3,0.2-0.5,0.3c-0.2,0.1-0.4,0.2-0.6,0.3c-0.2,0.1-0.5,0.2-0.7,0.3
		c-0.2,0.1-0.5,0.2-0.7,0.3c0.2,0.1,0.4,0.2,0.7,0.3c0.2,0.1,0.5,0.2,0.7,0.3c0.2,0.1,0.4,0.2,0.6,0.3c0.2,0.1,0.4,0.2,0.5,0.3v0.9
		c-0.3,0-0.6,0.1-0.9,0.1c-0.3,0-0.7,0.1-1.1,0.1c-0.4,0-0.8,0.1-1.1,0.1c-0.4,0-0.7,0-1.1,0.1v-0.9c0.4,0,0.9,0,1.3-0.1
		c0.5,0,1-0.1,1.5-0.1c-0.2-0.1-0.4-0.2-0.6-0.2c-0.2-0.1-0.4-0.2-0.6-0.3c-0.2-0.1-0.4-0.2-0.6-0.3c-0.2-0.1-0.4-0.2-0.5-0.2v-0.7
		c0.1-0.1,0.3-0.1,0.5-0.2c0.2-0.1,0.4-0.2,0.6-0.3c0.2-0.1,0.4-0.2,0.6-0.3c0.2-0.1,0.4-0.2,0.6-0.2c-0.5,0-1-0.1-1.5-0.1
		c-0.5,0-0.9,0-1.3,0v-0.9c0.3,0,0.7,0,1.1,0.1c0.4,0,0.8,0,1.1,0.1c0.4,0,0.7,0.1,1.1,0.1s0.7,0.1,0.9,0.1V389.8z"/>
	<path class="st10" d="M64.2,394.2v1h-4.2v-1H64.2z"/>
</g>
<rect x="115.8" y="285.6" class="st11" width="41.5" height="27.7"/>
<g>
	<path class="st10" d="M125.2,302.1v-7.6h5.1v1.4H127v1.5h3v1.4h-3v1.8h3.7v1.4L125.2,302.1L125.2,302.1z"/>
	<path class="st10" d="M133.9,294.5c0.1,0.2,0.3,0.5,0.5,0.9c0.2,0.4,0.4,0.7,0.5,1.2c0.2,0.4,0.4,0.8,0.6,1.3
		c0.2,0.4,0.4,0.8,0.5,1.2c0.2-0.4,0.3-0.8,0.5-1.2c0.2-0.4,0.4-0.9,0.6-1.3c0.2-0.4,0.4-0.8,0.5-1.2c0.2-0.4,0.3-0.7,0.5-0.9h1.6
		c0.1,0.5,0.1,1.1,0.2,1.7c0.1,0.6,0.1,1.3,0.2,2s0.1,1.4,0.1,2c0,0.7,0.1,1.3,0.1,1.9h-1.7c0-0.7-0.1-1.5-0.1-2.4
		c0-0.9-0.1-1.8-0.2-2.6c-0.1,0.3-0.3,0.6-0.4,1c-0.2,0.4-0.3,0.7-0.5,1.1c-0.2,0.4-0.3,0.7-0.5,1.1c-0.1,0.3-0.3,0.6-0.4,0.9h-1.2
		c-0.1-0.2-0.2-0.5-0.4-0.9c-0.1-0.3-0.3-0.7-0.5-1.1s-0.3-0.7-0.5-1.1c-0.2-0.4-0.3-0.7-0.4-1c-0.1,0.9-0.1,1.8-0.2,2.6
		c0,0.9-0.1,1.7-0.1,2.4h-1.7c0-0.6,0.1-1.2,0.1-1.9c0-0.7,0.1-1.4,0.1-2c0-0.7,0.1-1.3,0.2-2c0.1-0.6,0.1-1.2,0.2-1.7H133.9z"/>
	<path class="st10" d="M145.2,302.2c-1.2,0-2.2-0.3-2.8-1c-0.6-0.7-1-1.7-1-2.9c0-0.6,0.1-1.2,0.3-1.7c0.2-0.5,0.5-0.9,0.8-1.3
		c0.3-0.3,0.8-0.6,1.2-0.8c0.5-0.2,1-0.3,1.6-0.3c0.3,0,0.6,0,0.9,0.1c0.3,0,0.5,0.1,0.7,0.2c0.2,0.1,0.4,0.1,0.5,0.2
		c0.1,0.1,0.2,0.1,0.3,0.2l-0.5,1.4c-0.2-0.1-0.5-0.2-0.8-0.3c-0.3-0.1-0.7-0.1-1.1-0.1c-0.3,0-0.5,0-0.8,0.1
		c-0.3,0.1-0.5,0.2-0.7,0.4c-0.2,0.2-0.4,0.4-0.5,0.8s-0.2,0.7-0.2,1.1c0,0.4,0,0.7,0.1,1c0.1,0.3,0.2,0.6,0.4,0.8
		c0.2,0.2,0.4,0.4,0.7,0.5c0.3,0.1,0.6,0.2,1,0.2c0.2,0,0.5,0,0.7,0c0.2,0,0.4-0.1,0.5-0.1s0.3-0.1,0.4-0.1s0.2-0.1,0.3-0.1l0.5,1.4
		c-0.2,0.1-0.6,0.3-1,0.4S145.8,302.2,145.2,302.2z"/>
</g>
<polygon points="385.4,413.7 185.6,413.7 185.6,410 383.8,410 "/>
<g>
	<polygon class="st0" points="196.2,409.5 196.2,414.3 188.4,415.5 174.9,415.5 174.9,408.2 188.4,408.2 	"/>
	<line class="st12" x1="188.4" y1="408.2" x2="188.4" y2="415.5"/>
	<line class="st12" x1="190" y1="408.5" x2="190" y2="415.2"/>
	<line class="st12" x1="191.5" y1="408.7" x2="191.5" y2="415"/>
	<line class="st12" x1="192.9" y1="408.9" x2="192.9" y2="414.8"/>
	<line class="st12" x1="194.1" y1="409.1" x2="194.1" y2="414.6"/>
	<line class="st12" x1="195.2" y1="409.3" x2="195.2" y2="414.5"/>
</g>
<polygon points="363.6,378.5 185.6,378.5 185.6,372.4 360.9,372.4 "/>
<g>
	<polygon class="st13" points="184.7,370.9 184.7,380 179.5,381.3 172.2,381.3 172.2,369.7 179.6,369.7 	"/>
	<rect x="185.2" y="371.5" class="st14" width="11.4" height="8"/>
	<line class="st15" x1="186.2" y1="370.7" x2="186.2" y2="380.1"/>
	<line class="st15" x1="187.4" y1="370.7" x2="187.4" y2="380.1"/>
	<line class="st15" x1="188.6" y1="370.7" x2="188.6" y2="380.1"/>
	<line class="st15" x1="189.9" y1="370.7" x2="189.9" y2="380.1"/>
	<line class="st15" x1="191.1" y1="370.7" x2="191.1" y2="380.1"/>
	<line class="st15" x1="192.3" y1="370.7" x2="192.3" y2="380.1"/>
	<line class="st15" x1="193.5" y1="370.7" x2="193.5" y2="380.1"/>
	<line class="st15" x1="194.8" y1="370.7" x2="194.8" y2="380.1"/>
</g>
<rect x="97.6" y="182" width="3.7" height="116.7"/>
<g>
	<polygon class="st0" points="97.6,287.3 95.9,297 103,297 101.3,287.3 	"/>
	<polygon class="st0" points="95.3,313.4 103.5,313.4 103.5,299.5 103,297 95.9,297 95.3,299.5 	"/>
	<path class="st0" d="M95.3,299.3"/>
	<line class="st0" x1="103" y1="295.2" x2="95.9" y2="295.2"/>
	<line class="st0" x1="102.5" y1="293.4" x2="96.3" y2="293.4"/>
	<line class="st0" x1="102.1" y1="291.6" x2="96.7" y2="291.6"/>
	<line class="st0" x1="101.8" y1="289.7" x2="97" y2="289.7"/>
	<rect x="97.4" y="284" class="st0" width="4.1" height="4.3"/>
</g>
<g>
	<polygon class="st16" points="155.8,490.8 134.5,490.8 137,467.3 153.4,467.3 	"/>
	<g>
		<g>
			<g>
				<path class="st17" d="M156.8,503.5c-6.5,6.4-16.9,6.4-23.3,0"/>
				<path class="st17" d="M153.8,500.5c-4.8,4.8-12.5,4.8-17.2,0"/>
				<path class="st17" d="M150.2,497.2c-2.8,2.8-7.3,2.8-10.1,0"/>
			</g>
		</g>
	</g>
</g>
<g>
	<rect x="68.9" y="321.7" class="st18" width="106.9" height="136.9"/>
	<g>
		<g>
			<g>
				<path class="st19" d="M121.9,378.9"/>
			</g>
			<g>
				<path class="st19" d="M121.9,378.9"/>
			</g>
			<g>
				<path class="st19" d="M121.9,378.9"/>
			</g>
			<g>
				<path class="st19" d="M121.9,378.9"/>
			</g>
		</g>
		<polyline class="st20" points="153.3,397 137.6,406.4 121.9,415.9 121.9,397 121.9,378.1 		"/>
		<polyline class="st21" points="153.3,397 153.3,378.1 153.3,359.2 137.6,368.7 121.9,378.1 		"/>
		<polyline class="st22" points="121.9,340.4 106.2,349.8 90.4,359.2 106.2,368.7 121.9,378.1 		"/>
		<polyline class="st1" points="121.9,340.4 137.6,349.8 153.3,359.2 137.6,368.7 121.9,378.1 		"/>
		<polyline class="st14" points="90.4,397 106.2,406.4 121.9,415.9 121.9,397 121.9,378.1 		"/>
		<polyline class="st23" points="90.4,397 90.4,378.1 90.4,359.2 106.2,368.7 121.9,378.1 		"/>
		<g>
			<g>
				<g>
					<line class="st24" x1="121.9" y1="340.4" x2="121.9" y2="341.2"/>
					<line class="st25" x1="121.9" y1="343" x2="121.9" y2="376.4"/>
					<line class="st24" x1="121.9" y1="377.2" x2="121.9" y2="378.1"/>
				</g>
			</g>
			<g>
				<g>
					<line class="st24" x1="121.9" y1="378.1" x2="122.6" y2="378.6"/>
					<line class="st26" x1="124.2" y1="379.5" x2="151.8" y2="396.1"/>
					<line class="st24" x1="152.6" y1="396.5" x2="153.3" y2="397"/>
				</g>
			</g>
			<g>
				<g>
					<line class="st24" x1="121.9" y1="378.1" x2="121.1" y2="378.6"/>
					<line class="st27" x1="119.6" y1="379.5" x2="92" y2="396.1"/>
					<line class="st24" x1="91.2" y1="396.5" x2="90.4" y2="397"/>
				</g>
			</g>
		</g>
		<g>
			<line class="st24" x1="121.9" y1="415.9" x2="121.9" y2="378.1"/>
			<line class="st24" x1="121.9" y1="378.1" x2="153.3" y2="359.2"/>
			<line class="st24" x1="121.9" y1="378.1" x2="90.4" y2="359.2"/>
		</g>
	</g>
	<rect x="75" y="462.4" class="st18" width="94.2" height="7.7"/>
	<rect x="75" y="310.5" class="st18" width="94.2" height="7.7"/>
	<line class="st28" x1="66.8" y1="318.6" x2="177.5" y2="318.6"/>
	<line class="st28" x1="66.8" y1="461.8" x2="177.5" y2="461.8"/>
	<g>
		<path d="M113.1,423.7h2.5v10.9h-2.5v-4.6H109v4.6h-2.4v-10.9h2.4v4.2h4.1V423.7z"/>
		<path d="M122.3,434.8c-0.8,0-1.4-0.1-2-0.3c-0.6-0.2-1-0.5-1.4-0.9c-0.4-0.4-0.6-0.8-0.8-1.4c-0.2-0.5-0.3-1.1-0.3-1.8v-6.8h2.5
			v6.6c0,0.4,0.1,0.8,0.1,1.1c0.1,0.3,0.2,0.6,0.4,0.8c0.2,0.2,0.4,0.3,0.6,0.4s0.5,0.1,0.8,0.1c0.6,0,1.1-0.2,1.5-0.5
			c0.4-0.4,0.6-1,0.6-1.9v-6.6h2.5v6.8c0,0.6-0.1,1.2-0.3,1.8c-0.2,0.5-0.5,1-0.8,1.4c-0.4,0.4-0.8,0.7-1.4,0.9
			C123.8,434.7,123.1,434.8,122.3,434.8z"/>
		<path d="M132.8,434.7c-0.6,0-1.2,0-1.8-0.1c-0.6,0-1.2-0.1-1.8-0.3v-10.6c0.5-0.1,1.1-0.2,1.6-0.2c0.6,0,1.2-0.1,1.7-0.1
			c0.7,0,1.3,0.1,1.9,0.1c0.6,0.1,1.1,0.3,1.5,0.5s0.7,0.6,1,1c0.2,0.4,0.4,0.9,0.4,1.5c0,0.9-0.4,1.6-1.3,2.1
			c0.7,0.3,1.2,0.6,1.4,1.1c0.3,0.4,0.4,1,0.4,1.5c0,1.1-0.4,2-1.2,2.6C135.7,434.4,134.5,434.7,132.8,434.7z M131.6,427.9h1.2
			c0.8,0,1.3-0.1,1.6-0.3c0.3-0.2,0.5-0.5,0.5-0.9c0-0.4-0.2-0.7-0.5-0.9s-0.8-0.3-1.5-0.3c-0.2,0-0.4,0-0.7,0c-0.2,0-0.5,0-0.6,0
			L131.6,427.9L131.6,427.9z M131.6,429.8v2.8c0.2,0,0.4,0,0.6,0c0.2,0,0.4,0,0.7,0c0.7,0,1.3-0.1,1.8-0.3c0.4-0.2,0.7-0.6,0.7-1.2
			c0-0.5-0.2-0.9-0.6-1.1c-0.4-0.2-0.9-0.3-1.6-0.3H131.6z"/>
	</g>
	<rect x="72.1" y="378.1" width="3.9" height="21"/>
	<rect x="169" y="378.1" width="3.9" height="21"/>
</g>
<g>
	<path class="st10" d="M141.1,482.2c0,0.2,0.1,0.4,0.2,0.6s0.1,0.4,0.2,0.7c0.1,0.2,0.1,0.4,0.2,0.7s0.1,0.4,0.2,0.6
		c0.1-0.2,0.1-0.4,0.2-0.7c0.1-0.2,0.1-0.5,0.2-0.8c0-0.3,0.1-0.5,0.1-0.8c0-0.3,0.1-0.5,0.1-0.7h1c-0.1,0.7-0.3,1.4-0.5,2.2
		c-0.2,0.7-0.4,1.4-0.6,2.1h-0.9c-0.1-0.4-0.3-0.8-0.4-1.2c-0.1-0.4-0.3-0.9-0.4-1.3c-0.1,0.4-0.3,0.9-0.4,1.3
		c-0.1,0.4-0.3,0.8-0.4,1.2H139c-0.2-0.7-0.4-1.3-0.6-2.1c-0.2-0.7-0.4-1.4-0.5-2.2h1c0,0.2,0.1,0.5,0.1,0.7c0,0.3,0.1,0.5,0.2,0.8
		c0.1,0.3,0.1,0.5,0.2,0.8c0.1,0.2,0.1,0.5,0.2,0.7c0.1-0.2,0.1-0.4,0.2-0.6s0.1-0.4,0.2-0.7c0.1-0.2,0.1-0.4,0.2-0.6
		c0.1-0.2,0.1-0.4,0.2-0.6L141.1,482.2L141.1,482.2z"/>
	<path class="st10" d="M145,481.8c0,0.2-0.1,0.3-0.2,0.4c-0.1,0.1-0.2,0.1-0.4,0.1c-0.1,0-0.3,0-0.4-0.1c-0.1-0.1-0.2-0.2-0.2-0.4
		s0.1-0.3,0.2-0.4c0.1-0.1,0.2-0.1,0.4-0.1c0.1,0,0.3,0,0.4,0.1C145,481.5,145,481.6,145,481.8z M144.9,485.9H144v-3.2h0.9V485.9z"
		/>
	<path class="st10" d="M145.5,483.7h1.8v0.8h-1.8V483.7z"/>
	<path class="st10" d="M147.9,485.9v-4.2h2.8v0.8h-1.9v0.9h1.7v0.8h-1.7v1.7H147.9L147.9,485.9z"/>
	<path class="st10" d="M152.4,481.8c0,0.2-0.1,0.3-0.2,0.4c-0.1,0.1-0.2,0.1-0.4,0.1c-0.1,0-0.3,0-0.4-0.1c-0.1-0.1-0.2-0.2-0.2-0.4
		s0.1-0.3,0.2-0.4c0.1-0.1,0.2-0.1,0.4-0.1c0.1,0,0.3,0,0.4,0.1C152.3,481.5,152.4,481.6,152.4,481.8z M152.3,485.9h-0.9v-3.2h0.9
		V485.9z"/>
</g>
<g>
	<g>
		<path class="st29" d="M520.1,440.1c11.6,8.9,23.3,17.8,34.9,26.8"/>
		<path class="st29" d="M531.6,423c12.7,7.3,25.4,14.5,38.1,21.9"/>
		<path class="st29" d="M540.5,404.6c13.6,5.6,27.1,11.1,40.7,16.7"/>
		<path class="st29" d="M546.8,385.6c14.2,3.8,28.3,7.6,42.5,11.4"/>
		<path class="st29" d="M550.7,366c14.5,2,29.1,3.9,43.6,5.9"/>
		<path class="st29" d="M552.1,346.2c14.7,0.1,29.3,0.1,44,0.2"/>
		<path class="st29" d="M551,326.3c14.5-1.8,29.1-3.5,43.6-5.4"/>
		<path class="st29" d="M547.3,306.7c14.2-3.7,28.5-7.2,42.6-10.9"/>
		<path class="st29" d="M541.1,287.6c13.7-5.4,27.2-10.9,40.9-16.2"/>
		<path class="st29" d="M532.4,269.3c12.8-7.1,25.7-14.3,38.5-21.4"/>
		<path class="st29" d="M521.2,251.9c11.7-8.8,23.5-17.6,35.3-26.3"/>
		<path class="st29" d="M507.4,235.9c10.5-10.3,20.9-20.5,31.4-30.8"/>
	</g>
</g>
<g>
	<g>
		<path class="st30" d="M402.7,485l3.2,7.2c-2.1,1.3-4.3,2.6-5.5,4.6c0.5,2.6,4.9,3.5,5.5,6.1c-1.7,1.6-4.3,2.2-5.9,4.3
			c1.3,1.7,3.3,4.5,5.4,5.5c-2.2,1.1-2.7,2.1-3.9,4.8c1.1,0.9,3.2,3.2,5.3,4.9c2.7,2.6,9.2,9.2,9.2,9.2c0.1,1.6,31.9,3.3,40.8-0.1
			c4.3-3.1,5.6-5.3,9.5-9.4c1.3-1.1,3.3-5.1,4.2-6.4c-1.6-2.3-1.5-2.3-3.2-3.5c1.1-1.6,4.4-2.4,5-5.3l-5-4c0.6-2.4,4.3-3.7,4.9-6.1
			c-0.6-2.1-3.5-3.2-5-4.6l1.8-6.8h-66.2V485z"/>
		<path class="st30" d="M401.9,498c20.6,3.8,48,4.6,67.9-1"/>
		<path class="st30" d="M402.2,516.7c19.4,3.8,45.1,4.6,67.7-0.5"/>
		<path class="st30" d="M402,507.9c19.4,3.8,45.1,4.6,67.7-0.5"/>
	</g>
	<path class="st29" d="M434.8,273.2c-43.2,0-80.7,36.3-78.3,80.9c-1.3,11.6,13.4,39.6,26.4,55.2c17.6,31.8,19.3,35.5,20.5,70.1
		c0.9,4.2,3.1,5.4,5.1,5.9c22.7,4.4,40.3,2,53.9,0.2c3.3-1.1,5.3-3.2,5-6c1.3-47,8.6-44.2,30.1-80.4c12-16.4,16.4-40.4,16.5-51.6
		C515.2,285.4,458.2,273.9,434.8,273.2L434.8,273.2z"/>
	<path class="st29" d="M421.9,435.8l-19.7-85.9c26.5,11.5,47,4.4,65.8-2.3l-23.8,87.8C436.8,436.9,430.1,437.6,421.9,435.8
		L421.9,435.8z"/>
	<path class="st29" d="M415.1,442.9l3.1,42.3c11.7,2.6,24.1,2.1,34.1-0.7l2.7-41.9C441.9,444.7,428.9,445.4,415.1,442.9L415.1,442.9
		z"/>
</g>
</svg>
