<?xml version="1.0" encoding="UTF-8" standalone="no"?>
<!-- Generator: Adobe Illustrator 19.1.0, SVG Export Plug-In . SVG Version: 6.00 Build 0)  -->

<svg
   xmlns:dc="http://purl.org/dc/elements/1.1/"
   xmlns:cc="http://creativecommons.org/ns#"
   xmlns:rdf="http://www.w3.org/1999/02/22-rdf-syntax-ns#"
   xmlns:svg="http://www.w3.org/2000/svg"
   xmlns="http://www.w3.org/2000/svg"
   xmlns:sodipodi="http://sodipodi.sourceforge.net/DTD/sodipodi-0.dtd"
   xmlns:inkscape="http://www.inkscape.org/namespaces/inkscape"
   version="1.1"
   id="Camada_1"
   x="0px"
   y="0px"
   viewBox="0 0 360 360"
   xml:space="preserve"
   inkscape:version="0.91 r13725"
   sodipodi:docname="hubpro.svg"
   width="360"
   height="360"><metadata
     id="metadata93"><rdf:RDF><cc:Work
         rdf:about=""><dc:format>image/svg+xml</dc:format><dc:type
           rdf:resource="http://purl.org/dc/dcmitype/StillImage" /><dc:title></dc:title></cc:Work></rdf:RDF></metadata><defs
     id="defs91" /><sodipodi:namedview
     pagecolor="#ffffff"
     bordercolor="#666666"
     borderopacity="1"
     objecttolerance="10"
     gridtolerance="10"
     guidetolerance="10"
     inkscape:pageopacity="0"
     inkscape:pageshadow="2"
     inkscape:window-width="1215"
     inkscape:window-height="696"
     id="namedview89"
     showgrid="false"
     inkscape:zoom="0.4578125"
     inkscape:cx="60.068259"
     inkscape:cy="180"
     inkscape:window-x="65"
     inkscape:window-y="24"
     inkscape:window-maximized="1"
     inkscape:current-layer="Camada_1" /><style
     type="text/css"
     id="style3">
	.st0{fill:#FFFFFF;stroke:#000000;stroke-width:0.875;stroke-miterlimit:10;}
	.st1{stroke:#FFFFFF;stroke-width:0.3606;stroke-miterlimit:10;}
	.st2{fill:#3799CF;}
	.st3{fill:#A06397;}
	.st4{fill:#F4982C;}
	.st5{fill:#E72D60;}
	.st6{fill:#FFCF00;}
	.st7{fill:#78C193;}
	.st8{fill:none;stroke:#FFFFFF;stroke-width:1.0818;stroke-miterlimit:10;}
	.st9{fill:none;stroke:#FFFFFF;stroke-width:1.0818;stroke-miterlimit:10;stroke-dasharray:2.4555,2.4555;}
	.st10{fill:none;stroke:#FFFFFF;stroke-width:1.0818;stroke-miterlimit:10;stroke-dasharray:2.6337,2.6337;}
	.st11{fill:none;stroke:#000000;stroke-width:9.3994;stroke-miterlimit:10;}
	.st12{fill:none;stroke:#000000;stroke-miterlimit:10;}
	.st13{fill:#6D1843;stroke:#6D1843;stroke-width:1.7301;stroke-miterlimit:10;}
	.st14{fill:#8C2764;stroke:#8C2764;stroke-width:1.7301;stroke-miterlimit:10;}
	.st15{fill:#BF5E93;stroke:#BF5E93;stroke-width:1.7301;stroke-miterlimit:10;}
	.st16{fill:#D280B1;stroke:#D280B1;stroke-width:1.7301;stroke-miterlimit:10;}
	.st17{fill:#D1A3C1;stroke:#D1A3C1;stroke-width:1.7301;stroke-miterlimit:10;}
	.st18{fill:#488DCB;}
	.st19{fill:#4FACE0;}
	.st20{fill:#6ACAF3;}
	.st21{fill:#91D9F2;}
	.st22{fill:none;}
	.st23{fill:#12A84B;}
	.st24{fill:#14B14B;}
	.st25{fill:#36B350;}
	.st26{fill:#48B656;}
	.st27{fill:#5DBA55;}
	.st28{fill:#72BF52;}
	.st29{fill:#99BC88;}
	.st30{fill:#EC1C24;}
	.st31{fill:#E94753;}
	.st32{fill:#EE6771;}
	.st33{fill:#ED8D97;}
	.st34{fill:#E4B4BC;}
	.st35{fill:#E2D0D4;}
</style><g
     id="g3421"
     transform="translate(0,-0.49999237)"><g
       transform="translate(-139.6,0)"
       id="g5"><rect
         style="fill:#ffffff;stroke:#000000;stroke-width:0.875;stroke-miterlimit:10"
         id="rect7"
         height="196.2"
         width="153.10001"
         class="st0"
         y="82.300003"
         x="243.3" /><g
         id="g9"><polyline
           style="fill:#3799cf"
           id="polyline11"
           points="364.3,190.1 341.7,203.6 319.2,217.2 319.2,190.1 319.2,163.1   "
           class="st2" /><polyline
           style="fill:#a06397"
           id="polyline13"
           points="364.3,190.1 364.3,163.1 364.3,136 341.8,149.5 319.2,163.1   "
           class="st3" /><polyline
           style="fill:#f4982c"
           id="polyline15"
           points="319.2,109 296.7,122.5 274.1,136 296.7,149.5 319.2,163.1   "
           class="st4" /><polyline
           style="fill:#e72d60"
           id="polyline17"
           points="319.2,109 341.7,122.5 364.3,136 341.7,149.5 319.2,163.1   "
           class="st5" /><polyline
           style="fill:#ffcf00"
           id="polyline19"
           points="274.1,190.1 296.7,203.6 319.2,217.2 319.2,190.1 319.2,163.1   "
           class="st6" /><polyline
           style="fill:#78c193"
           id="polyline21"
           points="274.1,190.1 274.1,163.1 274.1,136 296.7,149.5 319.2,163.1   "
           class="st7" /><g
           id="g23"><g
             id="g25"><g
               id="g27"><line
                 style="fill:none;stroke:#ffffff;stroke-width:1.08179998;stroke-miterlimit:10"
                 id="line29"
                 y2="110.2"
                 x2="319.20001"
                 y1="109"
                 x1="319.20001"
                 class="st8" /><line
                 style="fill:none;stroke:#ffffff;stroke-width:1.08179998;stroke-miterlimit:10;stroke-dasharray:2.4555, 2.4555"
                 id="line31"
                 y2="160.60001"
                 x2="319.20001"
                 y1="112.7"
                 x1="319.20001"
                 class="st9" /><line
                 style="fill:none;stroke:#ffffff;stroke-width:1.08179998;stroke-miterlimit:10"
                 id="line33"
                 y2="163.10001"
                 x2="319.20001"
                 y1="161.8"
                 x1="319.20001"
                 class="st8" /></g></g><g
             id="g35"><g
               id="g37"><line
                 style="fill:none;stroke:#ffffff;stroke-width:1.08179998;stroke-miterlimit:10"
                 id="line39"
                 y2="163.7"
                 x2="320.29999"
                 y1="163.10001"
                 x1="319.20001"
                 class="st8" /><line
                 style="fill:none;stroke:#ffffff;stroke-width:1.08179998;stroke-miterlimit:10;stroke-dasharray:2.6337, 2.6337"
                 id="line41"
                 y2="188.8"
                 x2="362.10001"
                 y1="165.10001"
                 x1="322.5"
                 class="st10" /><line
                 style="fill:none;stroke:#ffffff;stroke-width:1.08179998;stroke-miterlimit:10"
                 id="line43"
                 y2="190.10001"
                 x2="364.29999"
                 y1="189.5"
                 x1="363.20001"
                 class="st8" /></g></g><g
             id="g45"><g
               id="g47"><line
                 style="fill:none;stroke:#ffffff;stroke-width:1.08179998;stroke-miterlimit:10"
                 id="line49"
                 y2="163.7"
                 x2="318.10001"
                 y1="163.10001"
                 x1="319.20001"
                 class="st8" /><line
                 style="fill:none;stroke:#ffffff;stroke-width:1.08179998;stroke-miterlimit:10;stroke-dasharray:2.6337, 2.6337"
                 id="line51"
                 y2="188.8"
                 x2="276.29999"
                 y1="165.10001"
                 x1="315.79999"
                 class="st10" /><line
                 style="fill:none;stroke:#ffffff;stroke-width:1.08179998;stroke-miterlimit:10"
                 id="line53"
                 y2="190.10001"
                 x2="274.10001"
                 y1="189.5"
                 x1="275.20001"
                 class="st8" /></g></g></g><g
           id="g55"><line
             style="fill:none;stroke:#ffffff;stroke-width:1.08179998;stroke-miterlimit:10"
             id="line57"
             y2="163.10001"
             x2="319.20001"
             y1="217.2"
             x1="319.20001"
             class="st8" /><line
             style="fill:none;stroke:#ffffff;stroke-width:1.08179998;stroke-miterlimit:10"
             id="line59"
             y2="136"
             x2="364.29999"
             y1="163.10001"
             x1="319.20001"
             class="st8" /><line
             style="fill:none;stroke:#ffffff;stroke-width:1.08179998;stroke-miterlimit:10"
             id="line61"
             y2="136"
             x2="274.10001"
             y1="163.10001"
             x1="319.20001"
             class="st8" /></g></g><rect
         style="fill:#ffffff;stroke:#000000;stroke-width:0.875;stroke-miterlimit:10"
         id="rect63"
         height="11"
         width="135"
         class="st0"
         y="283.79999"
         x="252" /><rect
         style="fill:#ffffff;stroke:#000000;stroke-width:0.875;stroke-miterlimit:10"
         id="rect65"
         height="11"
         width="135"
         class="st0"
         y="66.199997"
         x="252" /><line
         style="fill:none;stroke:#000000;stroke-width:9.39939976;stroke-miterlimit:10"
         id="line67"
         y2="77.900002"
         x2="398.89999"
         y1="77.900002"
         x1="240.3"
         class="st11" /><line
         style="fill:none;stroke:#000000;stroke-width:9.39939976;stroke-miterlimit:10"
         id="line69"
         y2="282.89999"
         x2="398.89999"
         y1="282.89999"
         x1="240.3"
         class="st11" /><rect
         id="rect71"
         height="30.1"
         width="5.5999999"
         y="163.10001"
         x="247.89999" /><rect
         id="rect73"
         height="30.1"
         width="5.5999999"
         y="163.10001"
         x="386.60001" /></g><g
       transform="translate(-140,0)"
       id="g75"><path
         inkscape:connector-curvature="0"
         id="path77"
         d="m 285.6,228.2 3.5,0 0,15.6 -3.5,0 0,-6.6 -5.9,0 0,6.6 -3.5,0 0,-15.6 3.5,0 0,6 5.9,0 0,-6 z" /><path
         inkscape:connector-curvature="0"
         id="path79"
         d="m 298.8,244.2 c -1.1,0 -2,-0.2 -2.8,-0.5 -0.8,-0.3 -1.5,-0.7 -2,-1.3 -0.5,-0.5 -0.9,-1.2 -1.1,-2 -0.2,-0.8 -0.4,-1.6 -0.4,-2.5 l 0,-9.7 3.5,0 0,9.4 c 0,0.6 0.1,1.2 0.2,1.6 0.1,0.4 0.3,0.8 0.6,1.1 0.2,0.3 0.5,0.5 0.9,0.6 0.4,0.1 0.7,0.2 1.2,0.2 0.9,0 1.5,-0.3 2.1,-0.8 0.5,-0.5 0.8,-1.4 0.8,-2.7 l 0,-9.4 3.5,0 0,9.7 c 0,0.9 -0.1,1.8 -0.4,2.5 -0.3,0.8 -0.6,1.4 -1.2,2 -0.5,0.5 -1.2,1 -2,1.3 -0.8,0.3 -1.8,0.5 -2.9,0.5 z" /><path
         inkscape:connector-curvature="0"
         id="path81"
         d="m 313.8,244 c -0.9,0 -1.7,0 -2.6,-0.1 -0.8,-0.1 -1.7,-0.2 -2.6,-0.4 l 0,-15.1 c 0.7,-0.1 1.5,-0.2 2.4,-0.3 0.9,-0.1 1.7,-0.1 2.4,-0.1 1,0 1.9,0.1 2.7,0.2 0.8,0.1 1.5,0.4 2.1,0.7 0.6,0.3 1.1,0.8 1.4,1.4 0.3,0.6 0.5,1.3 0.5,2.1 0,1.2 -0.6,2.2 -1.8,2.9 1,0.4 1.7,0.9 2,1.5 0.4,0.6 0.5,1.4 0.5,2.2 0,1.6 -0.6,2.9 -1.8,3.7 -1,0.9 -2.8,1.3 -5.2,1.3 z m -1.7,-9.6 1.7,0 c 1.1,0 1.9,-0.1 2.3,-0.4 0.5,-0.3 0.7,-0.7 0.7,-1.3 0,-0.6 -0.2,-1.1 -0.7,-1.3 -0.5,-0.3 -1.2,-0.4 -2.1,-0.4 -0.3,0 -0.6,0 -1,0 -0.3,0 -0.7,0 -0.9,0.1 l 0,3.3 z m 0,2.6 0,4 c 0.3,0 0.5,0.1 0.8,0.1 0.3,0 0.6,0 1,0 1,0 1.9,-0.2 2.5,-0.5 0.6,-0.3 1,-0.9 1,-1.7 0,-0.7 -0.3,-1.2 -0.8,-1.5 -0.5,-0.3 -1.3,-0.5 -2.3,-0.5 l -2.2,0 z" /><path
         inkscape:connector-curvature="0"
         id="path83"
         d="m 333.8,228.1 c 2.3,0 4.1,0.4 5.4,1.2 1.2,0.8 1.9,2.2 1.9,4 0,1.9 -0.6,3.2 -1.9,4.1 -1.3,0.9 -3.1,1.2 -5.4,1.2 l -1.1,0 0,5.2 -3.5,0 0,-15.4 c 0.8,-0.2 1.6,-0.3 2.4,-0.3 0.9,0 1.6,0 2.2,0 z m 0.3,3 c -0.3,0 -0.5,0 -0.8,0 -0.2,0 -0.5,0 -0.6,0 l 0,4.5 1.1,0 c 1.2,0 2.1,-0.2 2.7,-0.5 0.6,-0.3 0.9,-0.9 0.9,-1.8 0,-0.4 -0.1,-0.8 -0.2,-1.1 -0.2,-0.3 -0.4,-0.5 -0.7,-0.7 -0.3,-0.2 -0.6,-0.3 -1.1,-0.4 -0.4,0 -0.8,0 -1.3,0 z" /><path
         inkscape:connector-curvature="0"
         id="path85"
         d="m 350.6,235 c -0.3,-0.1 -0.7,-0.2 -1.1,-0.2 -0.4,-0.1 -0.8,-0.1 -1.3,-0.1 -0.2,0 -0.5,0 -0.8,0.1 -0.3,0 -0.5,0.1 -0.7,0.1 l 0,9 -3.4,0 0,-11.2 c 0.6,-0.2 1.3,-0.4 2.1,-0.6 0.8,-0.2 1.7,-0.3 2.7,-0.3 0.2,0 0.4,0 0.7,0 0.3,0 0.5,0.1 0.8,0.1 0.3,0 0.5,0.1 0.8,0.1 0.3,0 0.5,0.1 0.7,0.2 l -0.5,2.8 z" /><path
         inkscape:connector-curvature="0"
         id="path87"
         d="m 363.8,237.9 c 0,0.9 -0.1,1.8 -0.4,2.6 -0.3,0.8 -0.7,1.4 -1.2,2 -0.5,0.5 -1.1,1 -1.8,1.3 -0.7,0.3 -1.5,0.5 -2.4,0.5 -0.9,0 -1.7,-0.2 -2.4,-0.5 -0.7,-0.3 -1.3,-0.7 -1.8,-1.3 -0.5,-0.5 -0.9,-1.2 -1.2,-2 -0.3,-0.8 -0.4,-1.6 -0.4,-2.6 0,-0.9 0.1,-1.8 0.4,-2.5 0.3,-0.8 0.7,-1.4 1.2,-2 0.5,-0.5 1.1,-1 1.8,-1.3 0.7,-0.3 1.5,-0.4 2.3,-0.4 0.9,0 1.6,0.2 2.4,0.4 0.7,0.3 1.3,0.7 1.8,1.3 0.5,0.5 0.9,1.2 1.2,2 0.3,0.7 0.5,1.6 0.5,2.5 z m -3.4,0 c 0,-1 -0.2,-1.8 -0.6,-2.4 -0.4,-0.6 -1,-0.9 -1.8,-0.9 -0.8,0 -1.4,0.3 -1.8,0.9 -0.4,0.6 -0.6,1.4 -0.6,2.4 0,1 0.2,1.9 0.6,2.5 0.4,0.6 1,0.9 1.8,0.9 0.8,0 1.4,-0.3 1.8,-0.9 0.3,-0.6 0.6,-1.5 0.6,-2.5 z" /></g></g></svg>