<?xml version="1.0" encoding="utf-8"?>
<!-- Generator: Adobe Illustrator 16.0.0, SVG Export Plug-In . SVG Version: 6.00 Build 0)  -->
<!DOCTYPE svg PUBLIC "-//W3C//DTD SVG 1.1//EN" "http://www.w3.org/Graphics/SVG/1.1/DTD/svg11.dtd">
<svg version="1.1" id="Layer_1" xmlns="http://www.w3.org/2000/svg" xmlns:xlink="http://www.w3.org/1999/xlink" x="0px" y="0px"
	 width="600px" height="400px" viewBox="0 0 600 400" enable-background="new 0 0 600 400" xml:space="preserve">
<line fill="none" stroke="#FFCE0C" stroke-width="2.8274" stroke-linecap="square" stroke-miterlimit="10" x1="493.938" y1="297.803" x2="349.318" y2="297.803"/>
<g>
	<path fill="none" d="M395.226,276.055"/>
</g>
<line fill="none" stroke="#FFCE0C" stroke-width="3.28" stroke-linecap="square" stroke-miterlimit="10" x1="493.938" y1="297.803" x2="493.938" y2="243.916"/>
<rect x="487.223" y="223.961" fill="#FFCE0C" stroke="#F89939" stroke-width="3" stroke-miterlimit="10" width="13.431" height="19.182"/>
<rect x="511.778" y="223.961" fill="#6FC498" stroke="#569975" stroke-width="3" stroke-miterlimit="10" width="13.428" height="19.182"/>
<g>
	<g>
		<path fill="none" stroke="#569975" stroke-width="2" stroke-miterlimit="10" d="M528.046,253.475
			c-5.282,5.281-13.831,5.281-19.112,0"/>
		<path fill="none" stroke="#569975" stroke-width="2" stroke-miterlimit="10" d="M525.547,250.975c-3.9,3.9-10.214,3.9-14.114,0"/>
		<path fill="none" stroke="#569975" stroke-width="2" stroke-miterlimit="10" d="M522.621,248.283
			c-2.282,2.283-5.979,2.283-8.263,0"/>
	</g>
</g>
<g>
	<g>
		
			<rect x="469.172" y="116.793" fill="#FFFFFF" stroke="#9A2748" stroke-width="5.0128" stroke-miterlimit="10" width="76.926" height="104.615"/>
		
			<line fill="none" stroke="#EF3B68" stroke-width="5.0128" stroke-miterlimit="10" x1="465.326" y1="114.102" x2="549.941" y2="114.102"/>
		
			<line fill="none" stroke="#EF3B68" stroke-width="5.0128" stroke-miterlimit="10" x1="465.326" y1="224.102" x2="549.941" y2="224.102"/>
	</g>
	<g>
		<polygon fill="#3499CD" points="507.635,169.102 519.656,176.314 531.672,183.525 519.652,190.736 507.635,197.949 
			507.635,183.525 		"/>
		<polygon fill="#996699" points="531.672,154.679 519.666,161.89 507.635,169.102 519.652,176.314 531.672,183.525 
			531.672,169.102 		"/>
		<polygon fill="#F89939" points="507.637,140.255 495.615,147.467 483.594,154.679 495.615,161.89 507.637,169.102 
			507.637,154.679 		"/>
		<polygon fill="#EF3B68" points="507.635,140.255 519.652,147.467 531.672,154.679 519.652,161.89 507.635,169.102 
			507.635,154.679 		"/>
		<polygon fill="#FFCE0C" points="507.637,169.102 495.615,176.314 483.594,183.525 495.615,190.736 507.637,197.949 
			507.637,183.525 		"/>
		<polygon fill="#6FC498" points="483.597,154.679 495.615,161.89 507.635,169.102 495.615,176.314 483.597,183.525 
			483.597,169.102 		"/>
	</g>
</g>
<g>
	<g>
		<path fill="none" d="M206.752,199.998"/>
	</g>
	<g>
		<rect x="95.683" y="80" stroke="#171718" stroke-width="10.4463" stroke-miterlimit="10" width="222.138" height="160.652"/>
		<polygon stroke="#171718" stroke-width="10.4463" stroke-miterlimit="10" points="128.405,319.9 50.058,319.9 95.683,248.543 
			317.821,248.543 363.447,319.9 285.099,320 		"/>
	</g>
	<g>
		<rect x="162.009" y="120.606" fill="#6FC498" width="39.886" height="39.887"/>
		<rect x="114.146" y="120.606" fill="#3499CD" width="39.886" height="39.887"/>
		<rect x="162.009" y="168.471" fill="#996699" width="39.886" height="39.884"/>
		<rect x="114.146" y="168.471" fill="#EF3B68" width="39.886" height="39.884"/>
		<rect x="217.052" y="120.606" fill="#FFCE0C" width="79.771" height="11.966"/>
		<rect x="217.052" y="138.556" fill="#FFFFFF" width="79.771" height="39.884"/>
		<rect x="114.678" y="99.714" fill="#FFFFFF" width="79.771" height="11.966"/>
	</g>
</g>
</svg>
