<?xml version="1.0" encoding="utf-8"?>
<!-- Generator: Adobe Illustrator 16.0.0, SVG Export Plug-In . SVG Version: 6.00 Build 0)  -->
<!DOCTYPE svg PUBLIC "-//W3C//DTD SVG 1.1//EN" "http://www.w3.org/Graphics/SVG/1.1/DTD/svg11.dtd">
<svg version="1.1" id="Layer_1" xmlns="http://www.w3.org/2000/svg" xmlns:xlink="http://www.w3.org/1999/xlink" x="0px" y="0px"
	 width="600px" height="400px" viewBox="0 426.5 600 400" enable-background="new 0 426.5 600 400" xml:space="preserve">
<line fill="none" stroke="#FFCE0C" stroke-width="2.8274" stroke-linecap="square" stroke-miterlimit="10" x1="493.938" y1="724.303" x2="349.318" y2="724.303"/>
<g>
	<path fill="none" d="M395.226,702.555"/>
</g>
<line fill="none" stroke="#FFCE0C" stroke-width="3.28" stroke-linecap="square" stroke-miterlimit="10" x1="493.938" y1="724.303" x2="493.938" y2="670.416"/>
<rect x="487.223" y="650.461" fill="#FFCE0C" stroke="#F89939" stroke-width="3" stroke-miterlimit="10" width="13.431" height="19.182"/>
<rect x="511.778" y="650.461" fill="#6FC498" stroke="#569975" stroke-width="3" stroke-miterlimit="10" width="13.428" height="19.182"/>
<g>
	<g>
		
			<rect x="469.172" y="543.294" fill="#C0C0C0" stroke="#654566" stroke-width="5.0128" stroke-miterlimit="10" width="76.926" height="104.615"/>
		
			<line fill="none" stroke="#996699" stroke-width="5.0128" stroke-miterlimit="10" x1="465.326" y1="540.603" x2="549.941" y2="540.603"/>
		
			<line fill="none" stroke="#996699" stroke-width="5.0128" stroke-miterlimit="10" x1="465.326" y1="650.603" x2="549.941" y2="650.603"/>
	</g>
	<g>
		<polygon fill="#3499CD" points="507.635,595.603 519.656,602.813 531.672,610.024 519.652,617.237 507.635,624.448 
			507.635,610.024 		"/>
		<polygon fill="#996699" points="531.672,581.179 519.666,588.39 507.635,595.603 519.652,602.813 531.672,610.024 
			531.672,595.603 		"/>
		<polygon fill="#F89939" points="507.637,566.755 495.615,573.968 483.594,581.179 495.615,588.39 507.637,595.603 
			507.637,581.179 		"/>
		<polygon fill="#EF3B68" points="507.635,566.755 519.652,573.968 531.672,581.179 519.652,588.39 507.635,595.603 
			507.635,581.179 		"/>
		<polygon fill="#FFCE0C" points="507.637,595.603 495.615,602.813 483.594,610.024 495.615,617.237 507.637,624.448 
			507.637,610.024 		"/>
		<polygon fill="#6FC498" points="483.597,581.179 495.615,588.39 507.635,595.603 495.615,602.813 483.597,610.024 
			483.597,595.603 		"/>
	</g>
</g>
<g>
	<g>
		<path fill="none" stroke="#569975" stroke-width="2" stroke-miterlimit="10" d="M528.046,679.975
			c-5.282,5.281-13.831,5.281-19.112,0"/>
		<path fill="none" stroke="#569975" stroke-width="2" stroke-miterlimit="10" d="M525.547,677.475c-3.9,3.9-10.214,3.9-14.114,0"/>
		<path fill="none" stroke="#569975" stroke-width="2" stroke-miterlimit="10" d="M522.621,674.783
			c-2.282,2.283-5.979,2.283-8.263,0"/>
	</g>
</g>
<g>
	<g>
		<path fill="none" d="M206.752,626.498"/>
	</g>
	<g>
		
			<rect x="95.683" y="506.5" fill="#FFFFFF" stroke="#E8E8E7" stroke-width="10.4463" stroke-miterlimit="10" width="222.138" height="160.652"/>
		<polygon fill="#FFFFFF" stroke="#E8E8E7" stroke-width="10.4463" stroke-miterlimit="10" points="128.405,746.4 50.058,746.4 
			95.683,675.043 317.821,675.043 363.447,746.4 285.099,746.5 		"/>
	</g>
	<g>
		<rect x="162.009" y="547.105" fill="#6FC498" width="39.886" height="39.888"/>
		<rect x="114.146" y="547.105" fill="#3499CD" width="39.886" height="39.888"/>
		<rect x="162.009" y="594.971" fill="#996699" width="39.886" height="39.885"/>
		<rect x="114.146" y="594.971" fill="#EF3B68" width="39.886" height="39.885"/>
		<rect x="217.052" y="547.105" fill="#FFCE0C" width="79.771" height="11.967"/>
		<rect x="217.052" y="565.057" width="79.771" height="39.883"/>
		<rect x="114.678" y="526.214" width="79.771" height="11.966"/>
	</g>
</g>
</svg>
