<?xml version="1.0" encoding="utf-8"?>
<!-- Generator: Adobe Illustrator 16.0.0, SVG Export Plug-In . SVG Version: 6.00 Build 0)  -->
<!DOCTYPE svg PUBLIC "-//W3C//DTD SVG 1.1//EN" "http://www.w3.org/Graphics/SVG/1.1/DTD/svg11.dtd">
<svg version="1.1" id="Layer_1" xmlns="http://www.w3.org/2000/svg" xmlns:xlink="http://www.w3.org/1999/xlink" x="0px" y="0px"
	 width="1617.016px" height="66.702px" viewBox="0 0 1617.016 66.702" enable-background="new 0 0 1617.016 66.702"
	 xml:space="preserve">
<g>
	<g>
		<g>
			<path fill="#F2F2F2" d="M145.517,63.001h84.789c4.183,0,7.605-3.423,7.605-7.605V7.607c0-4.184-3.422-7.605-7.605-7.605h-84.789
				c-4.183,0-7.606,3.422-7.606,7.605v47.789C137.911,59.579,141.333,63.001,145.517,63.001z"/>
			<path fill="#C4C4C4" d="M230.305,63.001h-84.789c-4.183,0-7.606-3.423-7.606-7.605v3.699c0,4.184,3.423,7.605,7.606,7.605h84.789
				c4.183,0,7.605-3.422,7.605-7.605v-3.699C237.911,59.579,234.488,63.001,230.305,63.001z"/>
		</g>
		<g>
			<path fill="#263C82" d="M178.439,21.803l-9.412,23.03h-6.338l-6.102-23.03h4.025c0,0,2.526-0.146,2.976,2.456
				c0.401,2.322,2.602,13.338,2.602,13.338l5.865-15.794H178.439z"/>
			<path fill="#F89A1C" d="M165.525,34.259c-0.682-3.441-1.68-8.511-1.938-10c-0.382-2.214-2.267-2.438-2.821-2.456h-0.155h-4.025
				h-5.463v0.558C163.078,25.34,165.524,34.258,165.525,34.259z"/>
			<polygon fill="#263C82" points="180.745,21.803 177.056,44.833 182.98,44.833 186.705,21.802 			"/>
			<path fill="#263C82" d="M186.705,43.947l0.887-5.18c0,0,2.625,1.632,5.569,1.632c0,0,2.589,0.189,3.654-0.839
				c1.064-1.029,0.674-2.011,0.674-2.011s-0.284-0.934-1.892-1.69c-1.608-0.757-4.671-1.998-5.913-4.659
				c-1.242-2.66,0.461-5.616,0.461-5.616s1.466-2.507,4.446-3.43c2.98-0.922,6.385-0.614,6.385-0.614s1.987,0.213,3.595,0.852
				l-0.78,5.037c0,0-1.939-1.254-4.919-1.254c-2.98,0-3.571,1.727-3.571,1.727s-0.384,1.053,0.875,1.798
				c1.169,0.691,3.902,2.081,3.902,2.081s3.618,1.632,3.666,5.486s-3.146,5.936-3.146,5.936s-2.412,2.011-7.615,2.011
				C189.058,45.212,186.705,43.947,186.705,43.947z"/>
			<path fill="#263C82" d="M219.873,21.803c0,0-2.785,0-4.877,0c-2.093,0-2.643,1.516-2.643,1.516l-9.028,21.515h6.296l1.206-3.494
				h7.592l0.745,3.494h5.534L219.873,21.803z M212.424,36.728l3.264-8.815l1.844,8.815H212.424z"/>
		</g>
	</g>
	<g>
		<path fill="#F2F2F2" d="M283.426,63.001h84.79c4.184,0,7.605-3.423,7.605-7.605V7.607c0-4.184-3.422-7.605-7.605-7.605h-84.79
			c-4.183,0-7.605,3.422-7.605,7.605v47.789C275.821,59.579,279.244,63.001,283.426,63.001z"/>
		<path fill="#C4C4C4" d="M368.216,63.001h-84.79c-4.183,0-7.605-3.423-7.605-7.605v3.699c0,4.184,3.423,7.605,7.605,7.605h84.79
			c4.184,0,7.605-3.422,7.605-7.605v-3.699C375.821,59.579,372.399,63.001,368.216,63.001z"/>
		<g>
			<circle fill="#FAA840" cx="341.502" cy="31.568" r="23.404"/>
			<path fill="#EF3832" d="M333.501,33.029c0.027-0.462,0.043-0.926,0.043-1.395c0-0.021,0-0.043,0-0.064l-0.051-1.459
				c-0.031-0.49-0.076-0.977-0.137-1.459h-15.072c0.062-0.491,0.139-0.978,0.229-1.459h14.608c-0.096-0.491-0.203-0.979-0.328-1.458
				h-13.957c0.126-0.493,0.271-0.979,0.428-1.459h13.097c-0.164-0.494-0.344-0.98-0.539-1.459h-12.025
				c0.199-0.495,0.415-0.981,0.646-1.459h10.726c-0.242-0.497-0.502-0.983-0.779-1.459h-9.174c0.287-0.498,0.593-0.984,0.914-1.459
				h7.34c-0.344-0.501-0.705-0.987-1.084-1.459h-5.179c0.401-0.504,0.824-0.99,1.266-1.459h2.64
				c-4.265-4.49-10.292-7.29-16.973-7.29c-12.926,0-23.403,10.478-23.403,23.402c0,12.926,10.478,23.402,23.403,23.402
				c6.051,0,11.567-2.297,15.721-6.066c-0.48-0.432-0.944-0.883-1.388-1.354h2.759c0.439-0.469,0.859-0.955,1.258-1.458h-5.282
				c-0.377-0.472-0.736-0.958-1.077-1.459h7.428c0.32-0.474,0.623-0.961,0.908-1.459h-9.25c-0.273-0.476-0.531-0.962-0.773-1.459
				h10.791c0.23-0.478,0.443-0.964,0.641-1.458h-12.078c-0.193-0.479-0.371-0.966-0.533-1.459h13.138
				c0.156-0.48,0.299-0.967,0.424-1.459h-5.09c-0.123-0.48-0.23-0.968-0.322-1.459h5.73c0.09-0.482,0.166-0.969,0.225-1.459h-5.268
				v-1.459H333.501z M320.808,34.488h-2.523c-0.06-0.481-0.104-0.969-0.134-1.459h2.657V34.488z"/>
			<polygon fill="#FFFFFF" points="289,37.479 290.825,27.095 294.579,27.095 294.928,33.067 297.465,27.095 301.432,27.095 
				299.578,37.479 297.359,37.479 298.696,29.861 295.49,37.479 292.967,37.479 292.542,29.754 291.219,37.479 			"/>
			<path fill="#FFFFFF" d="M307.88,29.608c-0.933-0.669-1.682-0.68-1.682-0.68h-2.239c0,0-0.628,0.041-1.074,0.152
				c-0.445,0.111-0.566,0.264-0.566,0.264l-0.558,1.996c0,0,1.013-0.567,2.999-0.567c1.985,0,1.307,1.276,1.307,1.276h-1.429
				c0,0-1.642-0.102-2.806,0.709c-1.166,0.811-1.277,2.319-1.277,2.319s-0.242,2.554,2.351,2.554c0,0,1.632,0.081,2.594-0.933
				l-0.142,0.78h2.076l1.186-6.22C308.62,31.259,308.813,30.276,307.88,29.608z M305.702,34.612c0,0-0.264,1.196-1.863,1.196
				c0,0-0.871,0.04-0.871-0.791c0-0.83,0.871-1.235,0.871-1.235s0.688-0.345,1.539-0.345c0,0,0.567,0,0.537,0.172L305.702,34.612z"
				/>
			<path fill="#FFFFFF" d="M315.147,29.033l-0.402,1.823c0,0-1.026-0.145-1.497-0.145c-0.472,0-1.322-0.007-1.626,0.563
				c0,0-0.502,0.585,1.041,1.117c0,0,2.066,0.372,1.998,2.052c-0.068,1.679-0.737,2.219-0.737,2.219s-0.835,0.889-3.115,0.889
				c-2.279,0-2.766-0.41-2.766-0.41l0.396-1.809c0,0,1.185,0.402,2.37,0.402s1.261-0.623,1.261-0.623s0.138-0.691-0.379-0.873
				c-0.518-0.183-2.805-0.859-2.668-2.492c0.137-1.634,0.844-2.181,0.844-2.181s0.859-0.783,3.101-0.692
				C312.966,28.873,314.417,28.928,315.147,29.033z"/>
			<path fill="#FFFFFF" d="M316.583,27.095l-1.58,8.955c0,0-0.223,1.429,1.357,1.429h1.418c0,0,0.771-0.071,1.064-0.396l0.243-1.438
				c0,0-0.345,0.121-1.095,0.121c-0.749,0-0.668-0.477-0.668-0.477l0.779-4.538c0,0,0.062,0.111,0.346,0.111
				c0.283,0,1.034,0,1.034,0l0.324-1.854h-1.349l0.354-1.915H316.583z"/>
			<path fill="#FFFFFF" d="M323.581,28.873c0,0-3-0.25-4.102,2.743c-1.104,2.993,0.646,4.719,0.646,4.719s0.866,1.178,3.517,1.178
				c0,0,1.422,0.068,2.402-0.479l0.336-2.013c0,0-0.898,0.698-2.357,0.698c0,0-2.675,0.13-2.484-1.898h5.09
				c0,0,0.189-1.437,0.236-1.885C326.909,31.487,326.894,28.873,323.581,28.873z M324.706,32.216h-2.895c0,0,0.235-1.58,1.527-1.58
				C324.805,30.636,324.706,32.216,324.706,32.216z"/>
			<path fill="#FFFFFF" d="M326.522,37.479l1.488-8.459h2.301l-0.254,1.327c0,0,0.912-1.408,1.904-1.408h0.922
				c0,0-0.668,0.892-0.891,2.259c0,0-0.709-0.182-1.51,0.229s-0.963,1.858-0.963,1.858l-0.629,4.194H326.522z"/>
			<path fill="#FFFFFF" d="M339.394,34.739l-0.318,2.128c0,0-0.533,0.648-2.463,0.648s-2.766-0.785-2.766-0.785
				s-2.781-1.869-1.141-6.413c1.643-4.544,6.475-3.465,6.475-3.465s0.813,0.183,1.512,0.509l-0.363,2.211c0,0-0.959-0.6-2.371-0.6
				c-1.414,0-2.082,0.774-2.082,0.774s-1.088,1.284-1.141,3.199s1.559,2.279,1.559,2.279S338.103,35.78,339.394,34.739z"/>
			<path fill="#FFFFFF" d="M346.987,29.608c-0.932-0.669-1.682-0.68-1.682-0.68h-2.24c0,0-0.627,0.041-1.074,0.152
				c-0.445,0.111-0.566,0.264-0.566,0.264l-0.557,1.996c0,0,1.012-0.567,2.998-0.567s1.307,1.276,1.307,1.276h-1.428
				c0,0-1.641-0.102-2.807,0.709s-1.277,2.319-1.277,2.319s-0.242,2.554,2.352,2.554c0,0,1.631,0.081,2.594-0.933l-0.143,0.78h2.078
				l1.184-6.22C347.726,31.259,347.919,30.276,346.987,29.608z M344.81,34.612c0,0-0.264,1.196-1.865,1.196
				c0,0-0.871,0.04-0.871-0.791c0-0.83,0.871-1.235,0.871-1.235s0.689-0.345,1.541-0.345c0,0,0.566,0,0.535,0.172L344.81,34.612z"/>
			<path fill="#FFFFFF" d="M347.351,37.461l1.49-8.459h2.301l-0.254,1.327c0,0,0.881-1.408,2.098-1.408h0.486
				c0,0-0.244,0.706-0.467,2.074c0,0-0.912-0.081-1.607,0.371c-0.754,0.491-1.047,1.9-1.047,1.9l-0.629,4.194H347.351z"/>
			<path fill="#FFFFFF" d="M359.226,27.095l-0.531,3.055c0,0-0.502-1.171-2.197-1.171c-1.693,0-2.955,1.589-2.955,1.589
				s-1.186,1.443-1.186,3.586s1.359,3.009,1.359,3.009s0.615,0.47,1.559,0.47c0.941,0,1.443-0.355,1.443-0.355
				s0.326-0.205,0.76-0.54l-0.129,0.742l2.316-0.018l1.795-10.366H359.226z M357.735,34.526c-0.623,1.103-1.633,1.109-1.633,1.109
				s-0.76,0.068-1.057-0.95c-0.348-1.197,0.373-2.78,0.373-2.78s0.523-1.049,1.549-1.049c1.027,0,1.201,1.216,1.201,1.216
				S358.358,33.424,357.735,34.526z"/>
		</g>
	</g>
	<g>
		<path fill="#F2F2F2" d="M7.605,63.001h84.789c4.184,0,7.605-3.423,7.605-7.605V7.607c0-4.184-3.422-7.605-7.605-7.605H7.605
			C3.423,0.001,0,3.423,0,7.607v47.789C0,59.579,3.423,63.001,7.605,63.001z"/>
		<path fill="#C4C4C4" d="M92.395,63.001H7.605C3.423,63.001,0,59.579,0,55.396v3.699c0,4.184,3.423,7.605,7.605,7.605h84.789
			c4.184,0,7.605-3.422,7.605-7.605v-3.699C100,59.579,96.578,63.001,92.395,63.001z"/>
		<g>
			<path fill="#263A82" d="M20.639,21.765c0,0-6.32,0-7.072,0s-0.894,0.589-0.894,0.589s-2.397,15.2-2.499,15.851
				s0.305,0.671,0.305,0.671h3.353c0.468,0,0.468-0.548,0.468-0.548s0.568-3.537,0.752-4.431c0.183-0.895,0.895-0.752,0.895-0.752
				h3.088c5.833,0,6.057-6.687,6.057-6.687C25.465,21.886,20.639,21.765,20.639,21.765z M20.7,27.109
				c-0.549,2.967-2.987,2.724-2.987,2.724h-1.688c-0.609,0-0.426-0.569-0.426-0.569s0.527-3.17,0.67-3.76
				c0.143-0.589,0.732-0.589,0.732-0.589h1.707C20.984,24.915,20.7,27.109,20.7,27.109z"/>
			<path fill="#263A82" d="M38.127,27.376c-0.824,0-2.592,0-2.592,0s-0.609-0.033-0.731,0.545c-0.122,0.58-0.198,0.9-0.198,0.9
				s-0.717-1.754-3.521-1.754c-2.805,0-4.253,1.54-4.253,1.54s-2.682,2.546-2.682,5.563s1.631,5.014,4.785,5.014
				c3.155,0,4.131-1.66,4.131-1.66s0.023-0.064,0.088-0.058c0.096,0.011,0.095,0.058,0.095,0.058l-0.138,0.716
				c0,0-0.113,0.595,0.442,0.595h2.713c0,0,0.854-0.062,0.976-0.885c0.122-0.822,1.463-9.815,1.463-9.815
				S38.949,27.376,38.127,27.376z M33.303,34.96c-0.935,1.157-2.568,1.232-2.568,1.232c-3.4,0-2.584-3.248-2.584-3.248
				s0.832-2.782,3.445-2.782s2.613,2.301,2.613,2.301S34.238,33.802,33.303,34.96z"/>
			<path fill="#263A82" d="M40.626,27.343h2.851c0,0,0.64-0.076,0.822,0.746c0.184,0.823,1.586,5.289,1.586,5.289
				s0.091,0.32,0.289,0.32s0.365-0.336,0.365-0.336l3.705-5.471c0,0,0.365-0.549,0.762-0.549s2.881,0,2.881,0
				s0.944,0.015,0.396,0.854c-0.548,0.838-9.938,14.357-9.938,14.357s-0.198,0.365-0.716,0.365c-0.519,0-2.805,0-2.805,0
				s-0.442-0.03-0.519-0.441c-0.076-0.412,0.259-0.732,0.259-0.732l2.584-3.764c0,0,0.176-0.178,0.176-0.534
				c0-0.355-3.227-9.241-3.227-9.241S39.732,27.343,40.626,27.343z"/>
			<path fill="#2398D5" d="M64.535,21.765c0,0-6.32,0-7.072,0s-0.895,0.589-0.895,0.589s-2.398,15.2-2.5,15.851
				s0.306,0.671,0.306,0.671h3.353c0.468,0,0.468-0.548,0.468-0.548s0.569-3.537,0.752-4.431c0.183-0.895,0.894-0.752,0.894-0.752
				h3.09c5.832,0,6.056-6.687,6.056-6.687C69.361,21.886,64.535,21.765,64.535,21.765z M64.596,27.109
				c-0.549,2.967-2.987,2.724-2.987,2.724h-1.687c-0.609,0-0.427-0.569-0.427-0.569s0.528-3.17,0.671-3.76
				c0.143-0.589,0.731-0.589,0.731-0.589h1.707C64.881,24.915,64.596,27.109,64.596,27.109z"/>
			<path fill="#2398D5" d="M82.021,27.376c-0.822,0-2.59,0-2.59,0s-0.61-0.033-0.732,0.545c-0.121,0.58-0.197,0.9-0.197,0.9
				s-0.717-1.754-3.521-1.754s-4.252,1.54-4.252,1.54s-2.684,2.546-2.684,5.563s1.631,5.014,4.787,5.014
				c3.154,0,4.13-1.66,4.13-1.66s0.023-0.064,0.089-0.058c0.094,0.011,0.094,0.058,0.094,0.058l-0.137,0.716
				c0,0-0.114,0.595,0.441,0.595h2.713c0,0,0.854-0.062,0.977-0.885c0.121-0.822,1.463-9.815,1.463-9.815
				S82.846,27.376,82.021,27.376z M77.199,34.96c-0.936,1.157-2.568,1.232-2.568,1.232c-3.4,0-2.584-3.248-2.584-3.248
				s0.832-2.782,3.445-2.782s2.613,2.301,2.613,2.301S78.135,33.802,77.199,34.96z"/>
			<path fill="#2398D5" d="M86.971,38.388l2.662-16.075c0,0,0.209-0.579-0.508-0.579s-2.846,0-2.846,0s-0.549-0.03-0.67,0.579
				c-0.123,0.61-2.521,15.953-2.521,15.953s-0.097,0.569,0.509,0.569c0.604,0,2.774,0,2.774,0S86.889,38.878,86.971,38.388z"/>
		</g>
	</g>
	<g>
		<path fill="#2075BC" d="M421.347,63.001h84.789c4.184,0,7.605-3.422,7.605-7.605V7.607c0-4.183-3.422-7.605-7.605-7.605h-84.789
			c-4.183,0-7.605,3.423-7.605,7.605v47.789C413.741,59.58,417.164,63.001,421.347,63.001z"/>
		<path fill="#1560AB" d="M506.136,63.001h-84.789c-4.183,0-7.605-3.422-7.605-7.605v3.699c0,4.184,3.423,7.605,7.605,7.605h84.789
			c4.184,0,7.605-3.422,7.605-7.605v-3.699C513.741,59.58,510.319,63.001,506.136,63.001z"/>
		<g>
			<path fill="#FFFFFF" d="M465.386,21.979v-0.282c0,0,0.017-1.122-1.482-1.122c-1.498,0-3.887,0-3.887,0v2.629h3.93
				C463.946,23.204,465.386,23.177,465.386,21.979z"/>
			<polygon fill="#FFFFFF" points="420.712,20.035 418.759,24.814 422.664,24.814 			"/>
			<polygon fill="#FFFFFF" points="487.104,20.126 485.169,24.819 489.04,24.819 			"/>
			<path fill="#FFFFFF" d="M413.722,32.32h0.002h3.015h1.647l0.631-1.521l0.465-1.121h2.54l0.416,1.07l0.611,1.572h1.688h5.669
				h2.466v-0.016l0.007,0.016h1.604h2.466h1.609h2.433h2.494h0.365h2.102h0.365h8.449h0.502h1.964h0.503h2.291h2.467v-2.466v-1.796
				h0.531v1.796v2.466h2.466h2.121h0.73h1.735h0.73h2.102h2.466v-1.059c1.108,0.653,2.435,1.019,3.931,1.059h0.033h0.032h3.757
				h1.664l0.623-1.543l0.428-1.06h2.508l0.443,1.077l0.629,1.525h1.651h0.456h2.467h0.273h2.49h1.257h1.208v-2.391l0.718,1.194
				l0.718,1.196h1.396h3.962h2.466v-2.466V18.197V15.73h-2.466h-2.843h-2.467v1.744l-0.33-0.549l-0.719-1.195h-1.395h-4.27h-2.467
				v1.521l-0.012-0.029l-0.643-1.492h-1.623h-4.016h-2.467h-3.387c-0.038,0-0.088-0.002-0.148-0.002l0,0
				c-1.105,0-2.546,0.287-3.86,1.069v-1.069h-2.466h-2.832h-2.466v0.529c-0.694-0.289-1.512-0.479-2.468-0.523l-0.059-0.004h-0.057
				h-7.293h-0.503h-1.964h-0.502h-8.449h-0.365h-2.102h-0.365h-4.293h-1.63l-0.639,1.501l-1.182,2.774l-1.315-2.844l-0.662-1.432
				h-1.576h-4.557h-2.466v1.561l-0.029-0.068l-0.642-1.492h-1.624h-4.179h-1.63l-0.639,1.5l-2.7,6.338V32.32z M474.323,24.808V23.46
				c0.208-5.047,4.216-5.266,4.91-5.266c0.065,0,0.102,0.002,0.102,0.002h3.434v2.446c0,0-0.428,0-3.039,0
				c-2.612,0-2.578,2.937-2.578,2.937v0.908c0,2.705,1.864,2.9,2.4,2.9c0.09,0,0.143-0.006,0.143-0.006h1.439l3.922-9.186h4.195
				l4.744,11.021v-0.364V18.197h4.27l4.91,8.152v-8.152h2.843v11.657h-3.962l-5.297-8.825v8.825h-5.687l-1.073-2.603h-5.823
				l-1.05,2.603h-3.757C474.231,29.717,474.323,24.808,474.323,24.808z M470.075,18.195h2.832v11.659h-2.832V18.195z M457.23,18.197
				h7.796c3.416,0.16,3.416,2.737,3.416,2.737v0.505c0,2.235-1.986,3.006-1.986,3.006s0.521,0.061,1.216,0.736
				C468.365,25.858,468.34,27,468.34,27v2.854h-2.852c0,0,0-0.339,0-2.421c0-1.69-1.307-1.85-1.796-1.85
				c-0.113,0-0.182,0.01-0.182,0.01h-3.486v4.261h-2.794V18.197z M445.95,18.197h9.316v2.378h-6.502v2.149h6.336v2.397h-6.336v2.312
				h6.502v2.421h-9.316V18.197z M418.69,18.197h4.179l4.761,11.069V18.197h4.557l3.647,7.884l3.356-7.884h4.658v11.657h-2.859
				v-9.185l-4.042,9.185h-2.466l-4.076-9.168v9.168h-5.669l-1.028-2.644h-5.874l-1.096,2.644h-3.015L418.69,18.197z"/>
			<path fill="#FFFFFF" d="M513.739,35.826h-0.598h-5.745c-1.182,0-2.028,0.352-2.657,0.893v-0.893h-2.467h-5.746
				c-1.053,0-1.95,0.184-2.714,0.486v-0.475h-2.466h-9.317h-2.466v0.539c-0.701-0.297-1.53-0.492-2.502-0.537l-0.059-0.002h-0.057
				h-7.796h-2.466v0.525c-0.766-0.313-1.717-0.525-2.889-0.525h-9.534h-1.073l-0.73,0.785l-1.742,1.869l-1.637-1.832l-0.734-0.822
				h-1.104h-11.235h-2.466v2.465v11.67v2.465h2.466h11.053h1.075l0.731-0.787l1.723-1.855l1.633,1.822l0.734,0.82h1.103h5.458h2.466
				v-2.465v-1.428h1.415c0.044,0.002,0.106,0.002,0.185,0.002c0.647,0,1.861-0.082,3.104-0.596v2.01v2.467h2.466h2.794h2.467V49.96
				v-1.795h0.531v1.795v2.467h2.466h2.852h2.466l0,0h7.9l-0.008,0.01h2.467h5.891c0.994,0,1.822-0.158,2.512-0.402v0.402h2.467
				h5.892c1.78,0,3.036-0.508,3.894-1.096V35.826z M467.849,41.716v0.742c0,3.439-3.521,3.623-4.269,3.623
				c-0.089,0-0.139-0.004-0.139-0.004h-3.927v3.895h-5.458l-3.437-3.836l-3.563,3.836h-11.053v-11.67h11.235l3.437,3.848
				l3.585-3.848c0,0,5.424,0,9.534,0C467.905,38.302,467.849,41.716,467.849,41.716z M480.362,41.546
				c0,2.234-1.986,3.004-1.986,3.004s0.522,0.061,1.216,0.738c0.693,0.676,0.668,1.816,0.668,1.816v2.855h-2.852c0,0,0-0.34,0-2.42
				c0-1.691-1.307-1.85-1.796-1.85c-0.113,0-0.182,0.008-0.182,0.008h-3.486v4.262h-2.794V38.302h7.796
				c3.416,0.16,3.416,2.738,3.416,2.738V41.546z M491.347,40.681h-6.503v2.148h6.337v2.398h-6.337v2.313h6.503v2.42h-9.317V38.302
				h9.317V40.681z M502.838,46.744c0,0,0.034,3.229-3.862,3.229s-5.891,0-5.891,0v-2.51h5.805c0,0,1.033-0.055,1.033-0.838v-0.441
				c0,0-0.107-0.779-0.985-0.779s-1.819,0-1.819,0s-0.057,0.002-0.156,0.002c-0.786,0-4.279-0.178-4.279-3.355v-0.574
				c0,0,0.051-3.184,3.844-3.184c3.794,0,5.746,0,5.746,0v2.482h-5.395c0,0-0.001,0-0.002,0c-0.06,0-1.236,0.012-1.236,0.873v0.4
				c0,0,0.006,0.805,1.152,0.805c1.148,0,2.164,0,2.164,0s0.063-0.004,0.174-0.004c0.756,0,3.708,0.186,3.708,3.107V46.744z
				 M509.846,49.972c-3.026,0-4.899,0-5.589,0c0.646-0.918,0.896-1.863,0.99-2.51h4.513c0,0,1.032-0.055,1.032-0.838v-0.441
				c0,0-0.107-0.779-0.984-0.779c-0.879,0-1.82,0-1.82,0s-0.057,0.002-0.156,0.002c-0.785,0-4.279-0.178-4.279-3.355v-0.574
				c0,0,0.051-3.184,3.845-3.184s5.745,0,5.745,0v2.482h-5.395c0,0,0,0-0.002,0c-0.059,0-1.236,0.012-1.236,0.873v0.4
				c0,0,0.006,0.805,1.153,0.805s2.163,0,2.163,0s0.064-0.004,0.174-0.004c0.756,0,3.709,0.186,3.709,3.107v0.787
				C513.708,46.744,513.741,49.972,509.846,49.972z"/>
			<path fill="#FFFFFF" d="M463.413,40.689c-0.019,0-0.028,0-0.028,0h-3.882v3.025h3.996c0,0,1.393-0.012,1.393-1.553
				C464.892,40.746,463.62,40.689,463.413,40.689z"/>
			<path fill="#FFFFFF" d="M475.823,40.681c-1.498,0-3.887,0-3.887,0v2.629h3.93c0,0,1.439-0.025,1.439-1.225v-0.283
				C477.306,41.802,477.322,40.681,475.823,40.681z"/>
			<polygon fill="#FFFFFF" points="438.769,40.701 438.769,42.871 444.899,42.871 444.899,45.222 438.769,45.222 438.769,47.574 
				445.642,47.574 448.827,44.138 445.802,40.701 			"/>
			<polygon fill="#FFFFFF" points="456.751,49.013 456.751,39.537 452.39,44.138 			"/>
		</g>
	</g>
	<g>
		<g>
			<path fill="#F2F2F2" d="M559.248,63.001h84.788c4.184,0,7.605-3.422,7.605-7.605V7.607c0-4.184-3.422-7.605-7.605-7.605h-84.788
				c-4.184,0-7.605,3.422-7.605,7.605v47.789C551.643,59.58,555.064,63.001,559.248,63.001z"/>
			<path fill="#C4C4C4" d="M644.036,63.001h-84.788c-4.184,0-7.605-3.422-7.605-7.605v3.699c0,4.184,3.422,7.605,7.605,7.605h84.788
				c4.184,0,7.605-3.422,7.605-7.605v-3.699C651.642,59.58,648.22,63.001,644.036,63.001z"/>
		</g>
		<g>
			<path fill-rule="evenodd" clip-rule="evenodd" fill="#241F20" d="M577.474,35.992c0.988-3.003,1.93-6.051,2.641-9.193
				c0.555,0,1.187,0.013,1.741,0.013l-0.21,1.187c1.408-0.912,2.335-1.149,3.258-1.073c3.337,0.272,1.542,4.656-0.221,5.71
				c-1.035,0.618-2.437,0.894-4.373,0.619c-0.229,0.912-0.456,1.826-0.684,2.738C578.908,35.992,578.19,35.992,577.474,35.992
				L577.474,35.992z M584.063,31.143c1.008-0.844,0.996-2.375,0.304-2.815c-0.689-0.44-2.253-0.089-2.763,1.17
				c-0.509,1.259-0.55,2.026-0.828,2.711C581.359,32.166,583.057,31.988,584.063,31.143L584.063,31.143z"/>
			<path fill-rule="evenodd" clip-rule="evenodd" fill="#241F20" d="M593.786,33.417c-0.628,0-1.177,0.014-1.804,0.014l0.116-1.36
				c-1.29,1.22-3.382,2.025-4.341,0.876c-1.314-1.796-0.069-4.131,1.411-5.09c1.646-1.064,3.828-1.01,6.003-1.056
				C594.394,28.965,593.87,31.184,593.786,33.417L593.786,33.417z M590.025,29.054c-0.875,0.844-0.866,2.376-0.264,2.816
				c0.601,0.439,1.961,0.089,2.403-1.17s0.479-2.026,0.721-2.711C592.379,28.033,590.901,28.21,590.025,29.054L590.025,29.054z"/>
			<path fill-rule="evenodd" clip-rule="evenodd" fill="#241F20" d="M594.501,36.042l0.315-1.678
				c1.403,0.453,2.62,0.672,3.534,0.213c0.712-0.356,1.24-1.123,1.531-2.507c-1.291,1.22-3.383,2.025-4.342,0.876
				c-1.313-1.796-0.068-4.131,1.412-5.09c1.645-1.064,3.827-1.01,6.002-1.056c-0.673,1.872-0.686,4.809-1.58,6.899
				c-0.472,1.104-1.266,1.813-2.215,2.217C597.771,36.51,596.047,36.457,594.501,36.042L594.501,36.042z M597.809,29.054
				c-0.876,0.844-0.866,2.376-0.265,2.816c0.601,0.439,1.961,0.089,2.404-1.17c0.442-1.259,0.479-2.026,0.721-2.711
				C600.162,28.033,598.685,28.21,597.809,29.054L597.809,29.054z"/>
			<path fill-rule="evenodd" clip-rule="evenodd" fill="#96C93D" d="M616.051,36.042l0.315-1.678
				c1.402,0.453,2.619,0.672,3.534,0.213c0.712-0.356,1.24-1.123,1.53-2.507c-1.289,1.22-3.382,2.025-4.34,0.876
				c-1.315-1.796-0.07-4.131,1.411-5.09c1.644-1.064,3.827-1.01,6.003-1.056c-0.675,1.872-0.688,4.809-1.581,6.899
				c-0.473,1.104-1.266,1.813-2.216,2.217C619.319,36.51,617.596,36.457,616.051,36.042L616.051,36.042z M640.323,29.611
				c-0.619,1.105-0.541,2.278,0.174,2.619c0.714,0.34,1.795-0.28,2.414-1.386c0.618-1.106,0.541-2.278-0.174-2.619
				C642.022,27.885,640.942,28.505,640.323,29.611L640.323,29.611z M639.771,27.642c-1.915,1.283-2.684,3.446-1.715,4.832
				c0.969,1.384,3.308,1.466,5.223,0.183c1.916-1.283,2.684-3.447,1.716-4.832C644.026,26.44,641.688,26.359,639.771,27.642
				L639.771,27.642z M632.042,33.205c0.839-2.133,1.405-4.856,1.827-6.372h1.515l-0.052,1.357c0.661-0.914,1.863-1.418,3.082-1.357
				l-0.575,1.724c-1.516-0.199-2.583,1.014-3.173,3.018c-0.15,0.51-0.271,1.071-0.359,1.675L632.042,33.205L632.042,33.205z
				 M625.931,26.78c0.626,0.018,1.254,0.035,1.88,0.053c-0.331,1.393-0.871,2.733-1.201,4.126c-0.49,1.694,1.53,1.518,2.401,0.47
				c0.777-1.365,1.125-3.003,1.621-4.648c0.626,0,1.253,0,1.88,0c-0.711,2.177-1.328,4.353-1.619,6.529
				c-0.558-0.035-1.219-0.069-1.776-0.104c0.018-0.349,0.035-0.696,0.053-1.045c-1.885,1.73-4.985,2.188-4.597-0.731
				C624.795,29.878,625.424,28.33,625.931,26.78L625.931,26.78z M615.223,31.899c-0.053,0.435-0.209,0.871-0.261,1.306
				c-2.028,0.279-4.205,0.748-5.328-0.836c-1.163-2.241,0.515-4.295,1.985-5.066c2.58-1.157,4.374-0.568,4.753,0.575
				c0.765,2.004-1.602,3.327-5.015,2.925C611.001,32.544,612.782,32.518,615.223,31.899L615.223,31.899z M611.685,29.575
				c0.314-0.697,0.849-1.403,1.933-1.541c0.853-0.082,0.943,0.817,0.442,1.163C613.148,29.589,613.048,29.051,611.685,29.575
				L611.685,29.575z M603.288,31.769c-0.21,0.452-0.444,0.931-0.653,1.384c2.552,0.555,4.504,0.22,5.275-0.602
				c0.752-0.928,0.626-1.979-0.679-2.741c-0.278-0.193-1.065-0.584-1.045-1.045c0.036-1.05,1.633-0.8,2.612-0.496l0.313-1.437
				c-0.685-0.159-1.554-0.207-2.252-0.139c-0.851,0.083-1.766,0.452-2.475,1.157c-0.551,0.572-0.665,1.343-0.463,1.812
				c0.242,0.563,1.028,0.799,1.429,1.034c0.671,0.313,1.07,0.548,0.956,1.022c-0.095,0.399-0.58,0.726-1.45,0.57
				C604.315,32.193,603.685,32,603.288,31.769L603.288,31.769z M619.358,29.054c-0.876,0.844-0.866,2.376-0.266,2.816
				c0.602,0.439,1.962,0.089,2.404-1.17c0.443-1.259,0.479-2.026,0.722-2.711C621.711,28.033,620.234,28.21,619.358,29.054
				L619.358,29.054z"/>
			<path fill-rule="evenodd" clip-rule="evenodd" fill="#241F20" d="M559.955,24.475c-0.653,0.769-1.146,1.642-1.506,2.597
				c-0.378,0.993-0.58,2.015-0.58,3.103c0,1.233,0.264,2.377,0.715,3.456c0.451,1.072,1.067,1.992,1.879,2.803
				c0.788,0.787,1.713,1.418,2.781,1.878c1.068,0.466,2.229,0.724,3.434,0.724c1.225,0,2.367-0.246,3.456-0.724
				c1.04-0.454,1.979-1.075,2.781-1.878c0.794-0.797,1.408-1.737,1.848-2.803c0.463-1.091,0.726-2.223,0.726-3.456
				c0-1.088-0.204-2.109-0.581-3.103c-0.369-0.955-0.857-1.81-1.506-2.597c-0.649-0.769-1.399-1.405-2.251-1.898
				c-1.337-0.771-2.716-1.232-4.314-1.232c-0.077,0-0.153,0-0.229,0c-1.578,0-3.022,0.451-4.382,1.232
				C561.365,23.066,560.606,23.709,559.955,24.475L559.955,24.475z"/>
			<path fill-rule="evenodd" clip-rule="evenodd" fill="#241F20" d="M639.34,34.975c-0.326,0-0.629,0.052-0.915,0.167
				c-0.284,0.116-0.533,0.275-0.745,0.49c-0.214,0.214-0.382,0.453-0.49,0.729c-0.115,0.277-0.167,0.58-0.167,0.906
				c0,0.311,0.052,0.613,0.167,0.892c0.108,0.263,0.276,0.515,0.49,0.729c0.223,0.202,0.47,0.37,0.756,0.486
				c0.275,0.106,0.586,0.17,0.904,0.17c0.33,0,0.624-0.063,0.919-0.17c0.274-0.116,0.53-0.284,0.745-0.486
				c0.222-0.215,0.382-0.467,0.498-0.74c0.115-0.275,0.169-0.569,0.169-0.881c0-0.326-0.054-0.629-0.169-0.906
				c-0.108-0.275-0.268-0.515-0.49-0.729c-0.211-0.215-0.47-0.374-0.753-0.49C639.973,35.027,639.67,34.975,639.34,34.975
				L639.34,34.975z M639.34,36.431c0.224,0,0.401,0.072,0.533,0.231c0.134,0.151,0.207,0.347,0.207,0.604
				c0,0.24-0.073,0.445-0.207,0.589c-0.132,0.149-0.31,0.221-0.533,0.221c-0.22,0-0.391-0.069-0.522-0.221
				c-0.143-0.144-0.206-0.349-0.206-0.589c0-0.258,0.063-0.453,0.206-0.604C638.949,36.503,639.12,36.431,639.34,36.431
				L639.34,36.431z"/>
			<path fill-rule="evenodd" clip-rule="evenodd" fill="#241F20" d="M636.302,38.203c0.036-0.207,0.052-0.462,0.052-0.775V35.07
				h-1.564v2.377c0,0.266-0.027,0.453-0.099,0.569c-0.071,0.106-0.176,0.158-0.339,0.158c-0.159,0-0.266-0.052-0.335-0.158
				c-0.063-0.1-0.099-0.294-0.099-0.569V35.07h-1.556v2.357c-0.009,0.33,0.019,0.58,0.054,0.775
				c0.033,0.203,0.105,0.363,0.185,0.498c0.18,0.274,0.419,0.479,0.721,0.621c0.295,0.15,0.641,0.223,1.03,0.223
				c0.394,0,0.732-0.072,1.032-0.223c0.302-0.143,0.544-0.347,0.712-0.621C636.183,38.566,636.255,38.398,636.302,38.203
				L636.302,38.203z"/>
			<polygon fill-rule="evenodd" clip-rule="evenodd" fill="#241F20" points="643.894,35.07 642.328,35.07 642.328,39.429 
				645.414,39.429 645.414,38.016 643.894,38.016 643.894,35.07 			"/>
			<path fill-rule="evenodd" clip-rule="evenodd" fill="#FBAA19" d="M572.564,24.548c-1.091-1.326-2.503-2.18-4.246-2.51
				c-1.711-0.322-3.332-0.063-4.866,0.769c-0.788,0.443-1.455,0.996-1.992,1.648c-0.552,0.666-0.976,1.433-1.248,2.294
				c-0.279,0.881-0.351,1.807-0.257,2.709c0.229-0.581,0.58-1.112,0.996-1.62c0.603-0.718,1.348-1.255,2.18-1.649
				c0.83-0.372,1.741-0.581,2.688-0.602c0.952,0,1.878,0.187,2.736,0.56c0.904,0.366,1.693,0.925,2.365,1.671
				c0.252,0.251,0.461,0.551,0.667,0.852c0.301,0,0.603,0.021,0.861,0.094c0.673,0.187,1.205,0.53,1.62,1.047l0.02-0.33
				c0.074-0.904-0.02-1.757-0.27-2.595C573.559,26.053,573.143,25.264,572.564,24.548L572.564,24.548z"/>
			<path fill-rule="evenodd" clip-rule="evenodd" fill="#FBAA19" d="M559.768,32.892c0.114,0.695,0.323,1.361,0.672,1.971
				c0.325,0.602,0.769,1.153,1.32,1.642l0.28,0.229c0.953,0.652,1.97,1.117,3.083,1.348c0.718,0.136,1.44,0.093,2.136-0.072
				c0.737-0.158,1.435-0.457,2.087-0.902c-0.604-0.137-1.141-0.46-1.558-0.946l-0.164-0.187c-0.874,0.093-1.756,0.064-2.638-0.115
				c-1.119-0.257-2.086-0.724-2.989-1.369c-0.861-0.652-1.577-1.484-2.115-2.458l-0.136-0.279
				C559.724,32.125,559.724,32.518,559.768,32.892L559.768,32.892z"/>
			<path fill-rule="evenodd" clip-rule="evenodd" fill="#EC3C24" d="M568.018,27.05c-0.81-0.351-1.692-0.51-2.595-0.51
				c-0.882,0.021-1.714,0.209-2.48,0.58c-0.767,0.345-1.432,0.854-1.991,1.507c-0.396,0.487-0.718,1.018-0.925,1.577
				c0.158,0.694,0.413,1.339,0.788,1.992c0.531,0.902,1.226,1.67,2.086,2.271c0.832,0.602,1.785,0.996,2.802,1.225
				c0.623,0.115,1.276,0.166,1.922,0.137c-0.251-0.414-0.416-0.852-0.487-1.361c-0.086-0.515-0.064-1.024,0.028-1.576
				c0.114-0.675,0.366-1.298,0.715-1.879c0.375-0.58,0.862-1.11,1.435-1.533c0.374-0.272,0.769-0.479,1.163-0.646l-0.209-0.236
				C569.616,27.932,568.878,27.394,568.018,27.05L568.018,27.05z"/>
			<path fill-rule="evenodd" clip-rule="evenodd" fill="#F6891F" d="M574.211,31.013l-0.207-0.351
				c-0.302,1.046-0.861,1.973-1.577,2.811c-0.165,0.694-0.444,1.317-0.81,1.899c-0.373,0.572-0.861,1.089-1.42,1.526
				c0.395,0.021,0.789-0.042,1.184-0.188c0.371-0.136,0.715-0.343,1.067-0.624c0.467-0.436,0.904-0.952,1.276-1.482l0.063-0.093
				c0.165-0.345,0.331-0.694,0.443-1.019c0.116-0.352,0.188-0.695,0.21-1.017c0.021-0.353,0.021-0.654-0.043-0.954
				C574.348,31.337,574.276,31.172,574.211,31.013L574.211,31.013z"/>
			<path fill-rule="evenodd" clip-rule="evenodd" fill="#F26622" d="M558.957,26.934c-0.302,0.834-0.465,1.714-0.508,2.668
				c-0.021,1.225,0.206,2.408,0.674,3.521c0.228,0.529,0.509,1.045,0.852,1.533c0.332,0.459,0.696,0.902,1.111,1.289
				c-0.901-0.996-1.435-2.149-1.597-3.446c-0.044-0.444-0.044-0.86-0.022-1.298c-0.3-0.841-0.466-1.671-0.466-2.531
				c0-0.809,0.143-1.598,0.394-2.409c0.215-0.558,0.487-1.089,0.79-1.575C559.651,25.381,559.26,26.125,558.957,26.934
				L558.957,26.934z"/>
			<path fill-rule="evenodd" clip-rule="evenodd" fill="#F26622" d="M574.785,27.423c-0.209-0.674-0.479-1.327-0.832-1.929
				c-0.344-0.581-0.768-1.112-1.274-1.598c-0.46-0.489-0.997-0.904-1.6-1.256c0.508,0.352,0.974,0.767,1.391,1.233
				c0.651,0.738,1.14,1.526,1.44,2.408c0.301,0.903,0.438,1.836,0.366,2.804c-0.021,0.301-0.065,0.58-0.114,0.881
				c0.114,0.187,0.236,0.415,0.33,0.651c0.228,0.675,0.271,1.392,0.156,2.108c0.352-0.995,0.53-2.044,0.509-3.125
				C575.113,28.857,575,28.119,574.785,27.423L574.785,27.423z"/>
			<path fill-rule="evenodd" clip-rule="evenodd" fill="#F26622" d="M572.053,29.624c0.229,0.487,0.374,1.019,0.438,1.549
				c0.074,0.536,0.094,1.045,0.051,1.555l-0.093,0.509c0.694-0.81,1.161-1.713,1.435-2.761c-0.158-0.156-0.324-0.321-0.511-0.457
				C572.999,29.759,572.564,29.624,572.053,29.624L572.053,29.624z"/>
			<path fill-rule="evenodd" clip-rule="evenodd" fill="#EC3C24" d="M570.664,35.738c0.279-0.396,0.508-0.831,0.674-1.27
				c-0.934,0.667-1.949,1.134-3.061,1.361c0.157,0.258,0.371,0.467,0.601,0.632c0.23,0.157,0.487,0.272,0.788,0.366
				C570.04,36.504,570.383,36.13,570.664,35.738L570.664,35.738z"/>
			<path fill-rule="evenodd" clip-rule="evenodd" fill="#EC3C24" d="M566.002,38.217l1,0.05c0.858-0.021,1.667-0.186,2.457-0.444
				c0.738-0.251,1.461-0.603,2.087-1.04c-0.396,0.188-0.812,0.324-1.255,0.345c-0.137,0.028-0.302,0.028-0.459,0.028
				C568.693,37.896,567.414,38.246,566.002,38.217L566.002,38.217z"/>
			<path fill-rule="evenodd" clip-rule="evenodd" fill="#FDEB03" d="M571.523,31.5c-0.143-0.602-0.352-1.16-0.652-1.69
				c-0.531,0.157-0.996,0.438-1.434,0.809c-0.467,0.395-0.86,0.882-1.16,1.436c-0.26,0.558-0.417,1.088-0.467,1.647
				c-0.064,0.53,0,1.018,0.143,1.483c0.064,0.157,0.115,0.301,0.209,0.438c0.58-0.064,1.109-0.229,1.641-0.459
				c0.559-0.215,1.068-0.508,1.556-0.881l0.043-0.029c0.095-0.345,0.165-0.694,0.216-1.04
				C571.658,32.635,571.638,32.081,571.523,31.5L571.523,31.5z"/>
		</g>
	</g>
	<g>
		<g>
			<path fill="#FCEE23" d="M697.159,63.002h84.788c4.184,0,7.605-3.422,7.605-7.605V7.606c0-4.183-3.422-7.605-7.605-7.605h-84.788
				c-4.184,0-7.605,3.423-7.605,7.605v47.79C689.554,59.58,692.976,63.002,697.159,63.002z"/>
			<path fill="#BFB331" d="M781.947,63.002h-84.788c-4.184,0-7.605-3.422-7.605-7.605v3.699c0,4.184,3.422,7.605,7.605,7.605h84.788
				c4.184,0,7.605-3.422,7.605-7.605v-3.699C789.553,59.58,786.131,63.002,781.947,63.002z"/>
		</g>
		<g>
			<path fill="#0361AA" d="M722.712,45.512l3.509-2.338l3.509,2.338l-7.018,4.678V45.512L722.712,45.512L722.712,45.512z
				 M756.392,21.189l-3.508,2.337l-3.508-2.337l7.016-4.677V21.189L756.392,21.189L756.392,21.189z M756.392,38.963l-16.838,11.227
				l-16.842-11.227l20-13.332l3.509,2.34L730.08,38.73l9.824,6.547l4.561-3.041l-3.509-2.338l8.42-5.615L756.392,38.963
				L756.392,38.963L756.392,38.963z M722.712,27.737l16.842-11.225l16.842,11.225l-20,13.331l-3.509-2.338l16.14-10.76l-9.823-6.549
				l-4.561,3.04l3.507,2.339l-8.42,5.615L722.712,27.737L722.712,27.737L722.712,27.737z"/>
		</g>
	</g>
	<g>
		<g>
			<path fill="#F2F2F2" d="M972.98,63.002h84.788c4.184,0,7.605-3.422,7.605-7.605V7.606c0-4.183-3.422-7.605-7.605-7.605H972.98
				c-4.183,0-7.606,3.423-7.606,7.605v47.79C965.374,59.58,968.798,63.002,972.98,63.002z"/>
			<path fill="#C4C4C4" d="M1057.769,63.002H972.98c-4.183,0-7.606-3.422-7.606-7.605v3.699c0,4.184,3.424,7.605,7.606,7.605h84.788
				c4.184,0,7.605-3.422,7.605-7.605v-3.699C1065.374,59.58,1061.952,63.002,1057.769,63.002z"/>
		</g>
		<g>
			<path fill="#32367F" d="M1018.733,31.975c-0.881-1.102-2.056-1.689-3.561-1.689c-1.139,0-2.277,0.551-3.379,1.579v-6.499
				l-2.496,1.358v17.259h2.496v-1.285c0.881,1.027,1.982,1.578,3.268,1.578c1.432,0,2.645-0.586,3.563-1.652
				c1.028-1.248,1.58-2.973,1.58-5.141C1020.204,35.059,1019.688,33.223,1018.733,31.975L1018.733,31.975z M1011.757,34.436
				c0.918-1.176,1.873-1.727,2.938-1.727c1.983,0,2.938,1.615,2.938,4.883c0,2.791-0.918,4.223-2.827,4.223
				c-1.138,0-2.13-0.586-3.048-1.762V34.436L1011.757,34.436z"/>
			<path fill="#32367F" d="M1023.287,33.479c0.954-0.587,2.093-0.844,3.378-0.844c1.616,0,2.461,0.771,2.461,2.276v0.992
				c-0.735-0.33-1.689-0.514-2.864-0.514c-1.579,0-2.79,0.365-3.709,1.063c-0.991,0.773-1.468,1.838-1.468,3.27
				c0,1.543,0.477,2.68,1.468,3.525c0.809,0.697,1.8,1.027,3.012,1.027c1.358,0,2.534-0.551,3.562-1.615v1.32h2.497v-9.215
				c0-1.47-0.44-2.571-1.359-3.379c-0.845-0.734-2.019-1.102-3.524-1.102c-1.727,0-3.195,0.403-4.443,1.212L1023.287,33.479
				L1023.287,33.479z M1029.126,38.254v1.91c-0.809,1.139-1.873,1.725-3.158,1.725c-1.652,0-2.461-0.734-2.461-2.238
				c0-1.324,0.882-1.984,2.681-1.984C1027.326,37.666,1028.317,37.887,1029.126,38.254L1029.126,38.254z"/>
			<path fill="#32367F" d="M1036.837,30.542h-2.534v13.44h2.534v-7.857c0-2.277,0.881-3.416,2.644-3.416
				c1.799,0,2.681,1.212,2.681,3.672v7.602h2.57v-7.711c0-4.003-1.579-5.985-4.664-5.985c-1.469,0-2.57,0.551-3.23,1.579V30.542
				L1036.837,30.542z"/>
			<polygon fill="#32367F" points="1054.021,30.542 1051.341,34.473 1049.872,36.676 1049.909,25.365 1047.376,26.761 
				1047.376,43.982 1049.909,43.982 1049.909,40.018 1051.892,37.299 1054.757,43.982 1057.51,43.982 1053.617,35.059 
				1056.886,30.542 			"/>
			<polygon fill="#32367F" points="989.506,30.506 986.714,30.506 986.714,43.982 989.506,43.982 			"/>
			<path fill="#32367F" d="M992.003,30.506v2.533h2.35v7.602c0,1.027,0.293,1.91,0.844,2.57c0.551,0.625,1.322,0.955,2.203,0.992
				c0.992,0.037,1.836-0.221,2.461-0.625h0.037l0.037-0.037l0.587-2.387l0.036-0.184l-0.146,0.074
				c-0.771,0.477-1.395,0.697-2.056,0.697c-0.845,0-1.285-0.477-1.285-1.506v-7.197h2.827v-2.533h-2.827v-4.223l-2.681,1.469h-0.037
				v2.754H992.003L992.003,30.506z"/>
			<polygon fill="#32367F" points="1005.405,30.506 1002.577,30.506 1002.577,43.982 1005.405,43.982 			"/>
			<path fill="#32367F" d="M980.325,30.249c-1.982,0-3.635,0.624-4.957,1.836c-1.432,1.285-2.129,3.011-2.129,5.179
				c0,2.129,0.697,3.893,2.129,5.176c1.322,1.213,2.975,1.836,4.957,1.836c1.873,0,3.488-0.77,4.773-2.313l0.037-0.037l-0.037-0.037
				l-1.469-1.799l-0.072-0.072l-0.037,0.072c-0.955,1.029-2.057,1.543-3.305,1.543c-1.212,0-2.203-0.404-3.012-1.248
				c-0.771-0.809-1.174-1.836-1.174-3.121s0.402-2.314,1.174-3.122c0.809-0.845,1.8-1.249,3.012-1.249
				c1.248,0,2.35,0.514,3.305,1.543l0.037,0.072l0.072-0.072l1.469-1.8l0.037-0.037l-0.037-0.037
				C983.813,31.021,982.198,30.249,980.325,30.249L980.325,30.249z"/>
			<path fill="#EA3030" d="M988.11,28.266c2.166-2.276,4.811-3.415,7.895-3.415s5.729,1.139,7.857,3.415l0.074,0.037h3.158
				l-0.111-0.184c-1.248-1.763-2.863-3.158-4.847-4.187c-1.946-1.028-3.966-1.505-6.132-1.505c-2.13,0-4.186,0.477-6.133,1.505
				c-1.945,1.028-3.598,2.424-4.846,4.187l-0.111,0.184h3.158L988.11,28.266L988.11,28.266z"/>
		</g>
	</g>
	<g>
		<g>
			<path fill="#F2F2F2" d="M835.069,63.002h84.789c4.184,0,7.605-3.422,7.605-7.605V7.606c0-4.183-3.422-7.605-7.605-7.605h-84.789
				c-4.183,0-7.605,3.423-7.605,7.605v47.79C827.464,59.58,830.887,63.002,835.069,63.002z"/>
			<path fill="#C4C4C4" d="M919.858,63.002h-84.789c-4.183,0-7.605-3.422-7.605-7.605v3.699c0,4.184,3.423,7.605,7.605,7.605h84.789
				c4.184,0,7.605-3.422,7.605-7.605v-3.699C927.464,59.58,924.042,63.002,919.858,63.002z"/>
		</g>
		<g>
			<polygon fill-rule="evenodd" clip-rule="evenodd" fill="#ED2224" points="904.136,33.514 911.065,26.585 897.207,26.585 
				904.136,33.514 			"/>
			<polygon fill-rule="evenodd" clip-rule="evenodd" fill="#ED2224" points="904.136,33.514 911.065,40.443 897.207,40.443 
				904.136,33.514 			"/>
			<polygon fill-rule="evenodd" clip-rule="evenodd" fill="#FFFFFF" points="904.136,33.514 897.207,26.585 897.207,40.443 
				904.136,33.514 			"/>
			<polygon fill-rule="evenodd" clip-rule="evenodd" fill="#FFFFFF" points="904.136,33.514 911.065,26.585 911.065,40.443 
				904.136,33.514 			"/>
			<polygon fill-rule="evenodd" clip-rule="evenodd" fill="#ED2224" points="917.993,33.514 911.065,26.585 911.065,40.443 
				917.993,33.514 			"/>
			<polygon fill-rule="evenodd" clip-rule="evenodd" fill="#ED2224" points="890.278,33.514 897.207,26.585 897.207,40.443 
				890.278,33.514 			"/>
			<path fill-rule="evenodd" clip-rule="evenodd" fill="#010101" d="M841.083,33.089h6.223v-3.833c0-0.684-0.043-1.135-0.128-1.352
				c-0.067-0.164-0.206-0.308-0.415-0.424c-0.282-0.158-0.582-0.235-0.9-0.235h-0.471v-0.368h5.728v0.368h-0.476
				c-0.313,0-0.613,0.071-0.896,0.225c-0.213,0.104-0.354,0.267-0.432,0.479c-0.074,0.216-0.111,0.65-0.111,1.308v8.646
				c0,0.676,0.04,1.125,0.128,1.342c0.064,0.164,0.199,0.307,0.405,0.422c0.289,0.16,0.593,0.24,0.906,0.24h0.476v0.365h-5.728
				v-0.365h0.471c0.547,0,0.948-0.162,1.197-0.484c0.166-0.209,0.246-0.717,0.246-1.52v-4.081h-6.223v4.081
				c0,0.676,0.043,1.125,0.127,1.342c0.068,0.164,0.206,0.307,0.419,0.422c0.282,0.16,0.579,0.24,0.896,0.24h0.485v0.365h-5.738
				v-0.365h0.473c0.553,0,0.955-0.162,1.207-0.484c0.154-0.209,0.236-0.717,0.236-1.52v-8.646c0-0.684-0.045-1.135-0.129-1.352
				c-0.066-0.164-0.202-0.308-0.404-0.424c-0.289-0.158-0.594-0.235-0.91-0.235h-0.473v-0.368h5.738v0.368h-0.485
				c-0.317,0-0.614,0.071-0.896,0.225c-0.206,0.104-0.348,0.267-0.425,0.479c-0.081,0.216-0.121,0.65-0.121,1.308V33.089
				L841.083,33.089z"/>
			<path fill-rule="evenodd" clip-rule="evenodd" fill="#010101" d="M859.914,26.571v4.635h-0.364
				c-0.121-0.892-0.334-1.599-0.637-2.125c-0.307-0.528-0.746-0.948-1.313-1.254c-0.565-0.311-1.149-0.465-1.756-0.465
				c-0.684,0-1.25,0.208-1.699,0.627s-0.671,0.892-0.671,1.425c0,0.408,0.142,0.783,0.425,1.117
				c0.408,0.495,1.379,1.151,2.914,1.975c1.25,0.671,2.105,1.187,2.561,1.549c0.459,0.357,0.813,0.781,1.059,1.268
				c0.246,0.488,0.371,0.998,0.371,1.531c0,1.014-0.394,1.887-1.18,2.621c-0.789,0.736-1.801,1.104-3.037,1.104
				c-0.391,0-0.756-0.029-1.1-0.092c-0.202-0.031-0.627-0.152-1.268-0.357c-0.641-0.209-1.049-0.313-1.221-0.313
				c-0.165,0-0.293,0.049-0.391,0.148c-0.094,0.096-0.166,0.303-0.213,0.613h-0.363v-4.592h0.363
				c0.172,0.959,0.404,1.678,0.695,2.158c0.289,0.475,0.731,0.873,1.328,1.189c0.593,0.313,1.247,0.471,1.959,0.471
				c0.822,0,1.473-0.215,1.951-0.648c0.476-0.436,0.715-0.949,0.715-1.543c0-0.33-0.091-0.66-0.27-0.998
				c-0.182-0.336-0.465-0.646-0.846-0.936c-0.257-0.199-0.958-0.617-2.104-1.26c-1.147-0.643-1.959-1.154-2.445-1.537
				c-0.485-0.383-0.85-0.805-1.103-1.263c-0.249-0.463-0.374-0.972-0.374-1.524c0-0.961,0.368-1.786,1.105-2.481
				c0.739-0.694,1.677-1.043,2.816-1.043c0.711,0,1.467,0.173,2.262,0.524c0.367,0.165,0.631,0.246,0.778,0.246
				c0.173,0,0.313-0.052,0.421-0.15c0.108-0.106,0.196-0.313,0.264-0.62H859.914L859.914,26.571z"/>
			<path fill-rule="evenodd" clip-rule="evenodd" fill="#010101" d="M870.338,33.438c0.93,0.195,1.624,0.512,2.086,0.947
				c0.638,0.607,0.958,1.344,0.958,2.221c0,0.666-0.213,1.303-0.634,1.912c-0.421,0.611-0.997,1.051-1.733,1.332
				c-0.734,0.279-1.854,0.422-3.361,0.422h-6.32v-0.365h0.502c0.559,0,0.961-0.178,1.203-0.533c0.151-0.232,0.229-0.721,0.229-1.471
				v-8.655c0-0.831-0.094-1.352-0.285-1.567c-0.256-0.292-0.641-0.435-1.146-0.435h-0.502v-0.368h5.785
				c1.082,0,1.948,0.079,2.599,0.239c0.987,0.235,1.743,0.652,2.263,1.257c0.519,0.603,0.778,1.294,0.778,2.08
				c0,0.671-0.202,1.271-0.61,1.804C871.74,32.785,871.136,33.177,870.338,33.438L870.338,33.438z M865.162,32.9
				c0.246,0.048,0.522,0.081,0.836,0.105c0.313,0.023,0.657,0.033,1.032,0.033c0.961,0,1.686-0.102,2.168-0.311
				c0.484-0.205,0.855-0.525,1.112-0.953c0.255-0.427,0.384-0.895,0.384-1.403c0-0.782-0.319-1.449-0.957-2.003
				c-0.641-0.552-1.571-0.829-2.795-0.829c-0.661,0-1.252,0.071-1.78,0.217V32.9L865.162,32.9z M865.162,39.303
				c0.765,0.18,1.521,0.266,2.263,0.266c1.193,0,2.1-0.268,2.727-0.805c0.624-0.535,0.938-1.199,0.938-1.988
				c0-0.52-0.142-1.021-0.426-1.5c-0.282-0.482-0.744-0.861-1.381-1.139c-0.637-0.275-1.43-0.414-2.37-0.414
				c-0.409,0-0.759,0.008-1.049,0.019c-0.29,0.013-0.522,0.036-0.701,0.069V39.303L865.162,39.303z"/>
			<path fill-rule="evenodd" clip-rule="evenodd" fill="#010101" d="M885.771,26.571l0.307,4.553h-0.307
				c-0.408-1.362-0.992-2.344-1.747-2.944c-0.759-0.599-1.665-0.898-2.728-0.898c-0.889,0-1.691,0.226-2.41,0.677
				c-0.719,0.452-1.28,1.171-1.691,2.157c-0.412,0.988-0.618,2.219-0.618,3.686c0,1.211,0.192,2.264,0.583,3.152
				c0.389,0.889,0.971,1.568,1.754,2.043c0.779,0.477,1.669,0.713,2.67,0.713c0.869,0,1.635-0.186,2.303-0.561
				c0.664-0.369,1.396-1.109,2.191-2.213l0.307,0.193c-0.67,1.193-1.457,2.066-2.35,2.619c-0.897,0.553-1.959,0.83-3.192,0.83
				c-2.219,0-3.938-0.822-5.155-2.473c-0.906-1.223-1.361-2.666-1.361-4.325c0-1.334,0.299-2.565,0.896-3.685
				c0.6-1.12,1.426-1.985,2.475-2.603c1.052-0.614,2.197-0.922,3.441-0.922c0.969,0,1.925,0.237,2.865,0.71
				c0.277,0.145,0.477,0.219,0.595,0.219c0.175,0,0.329-0.064,0.462-0.189c0.171-0.175,0.293-0.423,0.367-0.739H885.771
				L885.771,26.571z"/>
			<rect x="836.463" y="25.122" fill="none" width="82.001" height="16.458"/>
		</g>
	</g>
	<g>
		<g>
			<path fill="#E72B2B" d="M1248.801,63.001h84.789c4.184,0,7.605-3.422,7.605-7.605V7.605c0-4.182-3.422-7.605-7.605-7.605h-84.789
				c-4.182,0-7.605,3.424-7.605,7.605v47.79C1241.195,59.579,1244.619,63.001,1248.801,63.001z"/>
			<path fill="#BF242A" d="M1333.59,63.001h-84.789c-4.182,0-7.605-3.422-7.605-7.605v3.699c0,4.184,3.424,7.607,7.605,7.607h84.789
				c4.184,0,7.605-3.424,7.605-7.607v-3.699C1341.195,59.579,1337.773,63.001,1333.59,63.001z"/>
		</g>
		<g>
			<path fill="#FFFFFE" d="M1290.639,17.744c0,4.238,7.21,8.94,7.21,13.78c0,0,0,0.465-0.201,0.966
				c6.735,1.398,11.506,4.703,11.506,8.571c0,5.205-8.508,9.475-19.048,9.512c-0.068,0.031-0.131,0-0.2,0
				c-10.439,0-18.911-4.139-18.911-9.311c0-3.869,5.168-7.005,11.405-8.672c0,2.138,7.11,8.908,7.273,11.639
				c0,0,0.032,0.236,0.032,0.506c0,0.131,0,0.264-0.032,0.396c1.536-0.797,1.536-3.299,1.536-3.299
				c0-5.938-6.909-8.577-6.909-14.414c0-2.265,1.071-3.938,2.038-4.401v1.635c0,4.232,7.473,8.975,7.473,12.841v1.268
				c1.731-0.666,1.731-3.837,1.731-3.837c0-5.336-6.936-8.303-6.936-14.409c0-2.27,1.066-3.937,2.032-4.401V17.744z"/>
		</g>
	</g>
	<g>
		<g>
			<path fill="#F2F2F2" d="M1110.891,63.002h84.789c4.184,0,7.605-3.422,7.605-7.605V7.606c0-4.183-3.422-7.605-7.605-7.605h-84.789
				c-4.182,0-7.605,3.423-7.605,7.605v47.79C1103.285,59.58,1106.709,63.002,1110.891,63.002z"/>
			<path fill="#C4C4C4" d="M1195.68,63.002h-84.789c-4.182,0-7.605-3.422-7.605-7.605v3.699c0,4.184,3.424,7.605,7.605,7.605h84.789
				c4.184,0,7.605-3.422,7.605-7.605v-3.699C1203.285,59.58,1199.863,63.002,1195.68,63.002z"/>
		</g>
		<g>
			<g>
				<path fill-rule="evenodd" clip-rule="evenodd" fill="#127DC2" d="M1124.446,55.622h0.547c2.413,0,5.097-0.939,5.097-3.775
					c0-1.763-1.189-3.085-2.971-3.315v-0.038c1.4-0.44,2.338-1.475,2.338-2.989c0-2.95-2.587-3.448-4.963-3.448h-0.048v2.528h0.009
					c0.939,0,2.013,0.287,2.013,1.419c0,1.092-0.958,1.475-1.878,1.475h-0.144v2.53h0.239c0.979,0,2.414,0.21,2.414,1.494
					c0,1.188-1.055,1.591-1.993,1.591h-0.66V55.622z M1119.436,55.622h5.011v-2.529h-2.022v-3.085l0,0h2.022v-2.53h-2.022v-2.894
					l0,0h2.022v-2.528h-5.011V55.622z"/>
				<path fill-rule="evenodd" clip-rule="evenodd" fill="#127DC2" d="M1137.332,55.622h2.646v-4.733c0-3.104-0.902-4.81-4.256-4.81
					c-0.053,0-0.107,0.001-0.161,0.002v1.953c0.968,0.029,1.771,0.674,1.771,1.666c-0.533,0-1.146,0.003-1.771,0.044v1.854
					c0.397-0.051,0.784-0.058,1.063-0.058h0.707l0,0v0.612c0,1.008-0.809,1.589-1.771,1.716v1.821
					c0.702-0.2,1.325-0.596,1.733-1.238h0.037V55.622z M1135.562,46.081c-1.46,0.035-2.923,0.532-3.938,1.493l1.532,1.571
					c0.614-0.69,1.4-1.112,2.339-1.112c0.023,0,0.045,0.001,0.067,0.001V46.081L1135.562,46.081z M1135.562,49.744
					c-2.175,0.14-4.532,0.733-4.532,3.232c0,1.879,1.57,2.875,3.314,2.875c0.416,0,0.829-0.052,1.218-0.161v-1.821
					c-0.137,0.019-0.273,0.028-0.413,0.028c-0.632,0-1.361-0.326-1.361-1.017c0-0.864,0.914-1.173,1.774-1.282V49.744z"/>
				<path fill-rule="evenodd" clip-rule="evenodd" fill="#127DC2" d="M1141.568,55.622h2.875v-4.638c0-1.208,0.23-2.376,1.725-2.376
					c1.476,0,1.493,1.38,1.493,2.452v4.562h2.875v-5.137c0-2.49-0.536-4.406-3.449-4.406c-1.398,0-2.337,0.767-2.721,1.495h-0.039
					v-1.266h-2.759V55.622z"/>
				<path fill-rule="evenodd" clip-rule="evenodd" fill="#127DC2" d="M1152.152,55.622h2.874v-3.89c0-1.859,0.268-3.124,2.452-3.124
					c0.422,0,0.825,0.076,1.228,0.191v-2.625c-0.27-0.076-0.634-0.096-0.96-0.096c-1.264,0-2.069,0.594-2.681,1.725h-0.039v-1.495
					h-2.874V55.622z"/>
				<path fill-rule="evenodd" clip-rule="evenodd" fill="#127DC2" d="M1160.195,55.622h2.874v-9.313h-2.874V55.622L1160.195,55.622z
					 M1159.966,43.377L1159.966,43.377c0,0.92,0.747,1.667,1.666,1.667c0.921,0,1.668-0.747,1.668-1.667s-0.747-1.667-1.668-1.667
					C1160.713,41.71,1159.966,42.457,1159.966,43.377z"/>
				<path fill-rule="evenodd" clip-rule="evenodd" fill="#127DC2" d="M1171.993,47.306c-0.862-0.92-2.224-1.227-3.449-1.227
					c-1.956,0-3.909,0.958-3.909,3.143c0,3.544,4.848,2.28,4.848,3.774c0,0.498-0.651,0.671-1.303,0.671
					c-0.862,0-1.495-0.364-2.031-1.016l-1.744,1.935c0.921,0.94,2.356,1.266,3.66,1.266c1.993,0,4.293-0.69,4.293-3.066
					c0-3.544-4.849-2.376-4.849-3.756c0-0.555,0.575-0.767,1.055-0.767c0.688,0,1.245,0.269,1.666,0.786L1171.993,47.306z"/>
				<path fill-rule="evenodd" clip-rule="evenodd" fill="#127DC2" d="M1182.608,46.309h-2.875v4.638c0,1.207-0.23,2.376-1.725,2.376
					c-1.477,0-1.494-1.38-1.494-2.452v-4.562h-2.875v5.136c0,2.491,0.536,4.407,3.448,4.407c1.399,0,2.339-0.767,2.722-1.495h0.039
					v1.266h2.76V46.309z"/>
				<rect x="1184.262" y="41.135" fill-rule="evenodd" clip-rule="evenodd" fill="#127DC2" width="2.875" height="14.487"/>
			</g>
			<g>
				<path fill="#127DC2" d="M1153.151,18.617h7.848c0,0.274-0.071,0.547-0.211,0.762l-2,3.091h-4.248
					c-0.62,0-1.009,0.289-1.358,0.858l-0.03,0.051l0.03-0.051l0,0c-0.011,0.015-0.02,0.029-0.03,0.046V18.617L1153.151,18.617z
					 M1153.151,37.985L1153.151,37.985c0.265-0.012,0.717-0.172,0.858-0.426l4.235-6.54c0.137-0.229,0.209-0.462,0.229-0.686h9.478
					l0,0c-0.02,0.256-0.104,0.5-0.238,0.7l-4.24,6.551c-0.176,0.265-0.532,0.4-0.764,0.4H1153.151L1153.151,37.985z
					 M1153.151,31.125l0.069-0.105c0.129-0.198,0.207-0.438,0.226-0.686l0,0h-0.295V31.125z M1153.151,23.379l-0.03,0.047
					l-1.888,2.941h-4.711h-0.142c-0.229,0-0.41-0.055-0.575-0.168c0.248,0.166,0.714,0.129,1.061-0.306l4.415-6.472
					c0.163-0.273,0.237-0.543,0.241-0.805h1.629v4.757c-0.011,0.017-0.02,0.034-0.03,0.052L1153.151,23.379L1153.151,23.379
					L1153.151,23.379L1153.151,23.379z M1153.151,30.334v0.791l-4.189,6.469c-0.185,0.263-0.515,0.392-0.76,0.392h-9.587
					c0.252,0,0.692-0.139,0.886-0.42l4.235-6.538c0.147-0.244,0.221-0.477,0.238-0.693H1153.151L1153.151,30.334z M1153.151,37.984
					l-0.028,0.001L1153.151,37.984L1153.151,37.984z"/>
				<path fill="#18BEF0" d="M1153.316,29.602c0.108,0.228,0.149,0.484,0.13,0.732h-0.13V29.602L1153.316,29.602z M1153.316,23.179
					c0.315-0.271,0.77-0.208,1.048,0.264l3.883,5.993c0.168,0.254,0.257,0.566,0.227,0.898h9.478
					c0.022-0.309-0.05-0.635-0.239-0.918l-4.236-6.541c-0.191-0.271-0.521-0.405-0.767-0.405l0,0h-3.921h-4.248
					c-0.541,0-0.908,0.222-1.224,0.655V23.179L1153.316,23.179z M1153.316,18.617v-7.766h2.44c0.221,0,0.556,0.099,0.775,0.415
					l4.252,6.565c0.144,0.229,0.215,0.509,0.215,0.785l0,0H1153.316z M1138.668,22.472l4.477-0.002
					c1.973,2.905,1.973,2.907,1.973,2.907c0.261,0.396,0.461,0.666,0.688,0.822c0.165,0.113,0.346,0.168,0.575,0.168h0.142h4.711
					l1.992,3.074c0.036,0.051,0.065,0.105,0.091,0.16v0.732h-9.342c0.026-0.337-0.076-0.639-0.23-0.896l-4.256-6.568
					C1139.35,22.646,1138.928,22.491,1138.668,22.472L1138.668,22.472z M1153.316,10.852v7.766h-1.794
					c0.002-0.29-0.085-0.567-0.241-0.82l-4.223-6.523c-0.187-0.281-0.634-0.422-0.884-0.422H1153.316L1153.316,10.852z
					 M1153.316,23.125c-0.046,0.063-0.091,0.132-0.135,0.203c0.041-0.057,0.087-0.107,0.135-0.149V23.125z"/>
			</g>
		</g>
	</g>
	<g>
		<g>
			<path fill="#F58220" d="M1386.713,63.002h84.787c4.184,0,7.605-3.422,7.605-7.605V7.606c0-4.183-3.422-7.605-7.605-7.605h-84.787
				c-4.184,0-7.605,3.423-7.605,7.605v47.79C1379.107,59.58,1382.529,63.002,1386.713,63.002z"/>
			<path fill="#BF6128" d="M1471.5,63.002h-84.787c-4.184,0-7.605-3.422-7.605-7.605v3.699c0,4.184,3.422,7.605,7.605,7.605h84.787
				c4.184,0,7.605-3.422,7.605-7.605v-3.699C1479.105,59.58,1475.684,63.002,1471.5,63.002z"/>
		</g>
		<g>
			<path fill-rule="evenodd" clip-rule="evenodd" fill="#2E3192" d="M1418.428,16.5l21.414,0.014c3.367,0,6.129,2.775,6.115,6.145
				v21.414c0,3.369-2.762,6.13-6.143,6.13l-21.43-0.013c-3.369-0.015-6.129-2.762-6.129-6.145l0.027-21.414
				C1412.283,19.262,1415.045,16.486,1418.428,16.5L1418.428,16.5z"/>
			<path fill-rule="evenodd" clip-rule="evenodd" fill="#FFF200" d="M1441.223,31.867h-2.445l-1.008,1.919h1.713L1441.223,31.867
				L1441.223,31.867z M1442.838,34.987h-2.375v5.137c0,1.573-1.064,2.016-1.838,2.016c-0.744,0-1.559-0.275-1.545-1.644v-5.509
				h-2.389l-0.014,5.854c0,2.264,1.297,3.272,3.092,3.272c1.242,0.014,2.209-0.539,2.748-1.491h0.027v1.242h2.293V34.987
				L1442.838,34.987z"/>
			<path fill-rule="evenodd" clip-rule="evenodd" fill="#FFF200" d="M1432.828,37.335c0-2.195-2.307-2.596-3.59-2.596
				c-1.865,0-3.783,0.4-4.074,3.121h2.305c0.07-0.525,0.291-1.244,1.479-1.244c0.607,0,1.574,0.056,1.574,1.037
				c0,0.496-0.469,0.648-0.855,0.703l-2.141,0.318c-1.52,0.207-2.65,1.104-2.65,2.844c0,1.836,1.408,2.596,2.76,2.596
				c1.631,0,2.404-0.746,2.928-1.284c0.055,0.483,0.098,0.607,0.234,1.035l2.045-0.014c0-0.98-0.014-1.698-0.014-1.712V37.335
				L1432.828,37.335z"/>
			<path fill-rule="evenodd" clip-rule="evenodd" fill="#FFF200" d="M1422.68,31.867h-2.375v3.106h-1.229v1.671h1.215v5.398
				c0,1.146,0.373,1.934,2.43,1.934h0.318c0.371,0,0.758-0.028,1.117-0.042v-1.781c-0.166,0.014-0.346,0.042-0.498,0.042
				c-0.965,0-0.992-0.193-0.992-0.732l0.014-4.818h1.49v-1.671h-1.49V31.867L1422.68,31.867z"/>
			<polygon fill-rule="evenodd" clip-rule="evenodd" fill="#FFF200" points="1417.971,31.854 1415.402,31.854 1415.389,43.852 
				1417.957,43.852 1417.971,31.854 			"/>
			<path fill-rule="evenodd" clip-rule="evenodd" fill="#2E3192" d="M1430.521,40.689v-1.146c-0.248,0.18-0.648,0.332-1.629,0.47
				c-0.898,0.151-1.629,0.386-1.629,1.354c0,0.8,0.662,1.063,1.117,1.063C1429.432,42.43,1430.521,41.767,1430.521,40.689
				L1430.521,40.689z"/>
		</g>
	</g>
	<g>
		<g>
			<path fill="#F2F2F2" d="M1524.623,63.001h84.787c4.184,0,7.605-3.422,7.605-7.605V7.607c0-4.184-3.422-7.605-7.605-7.605h-84.787
				c-4.184,0-7.605,3.422-7.605,7.605v47.789C1517.018,59.58,1520.439,63.001,1524.623,63.001z"/>
			<path fill="#C4C4C4" d="M1609.41,63.001h-84.787c-4.184,0-7.605-3.422-7.605-7.605v3.699c0,4.184,3.422,7.605,7.605,7.605h84.787
				c4.184,0,7.605-3.422,7.605-7.605v-3.699C1617.016,59.58,1613.594,63.001,1609.41,63.001z"/>
		</g>
		<g>
			<path fill="#55565A" d="M1586.951,53.755c0.089,0.232,0.312,0.857,0.797,1.514c-0.116,0.057-0.393,0.185-0.563,0.252
				c0,0-0.783,0.33-1.804,0.328c-2.11,0-3.719-1.427-3.719-3.88c0-2.468,1.608-3.898,3.719-3.898c0.591,0,1.118,0.118,1.585,0.329
				v-0.003c0.309,0.15,0.54,0.296,0.678,0.395c-0.347,0.462-0.623,1.021-0.788,1.609c-0.349-0.236-0.72-0.37-1.251-0.371
				c-0.956-0.001-1.661,0.697-1.661,1.98c0,1.178,0.844,1.907,1.796,1.914c0.496,0.002,0.853-0.146,1.052-0.254
				c0.035-0.01,0.078-0.037,0.103-0.045C1586.907,53.622,1586.917,53.674,1586.951,53.755 M1538.587,55.678h3.811
				c1.533,0,3.338-0.499,3.338-2.881c0-1.214-0.59-1.928-1.729-2.2V50.57c0.957-0.37,1.509-1.068,1.509-2.326
				c0-1.712-1.189-2.525-2.786-2.525h-4.142V55.678z M1540.87,51.455h0.9c0.786,0,1.683,0.1,1.683,1.184
				c0,1.013-0.873,1.157-1.706,1.157h-0.877V51.455z M1540.87,47.602h0.865c0.761,0,1.497,0.085,1.497,0.999
				c0,0.84-0.774,1.055-1.523,1.055h-0.839V47.602z M1566.707,45.692h-2.22V49.2h-0.025c-0.564-0.857-1.313-1.129-2.195-1.129
				c-1.768,0-2.738,1.928-2.738,3.755c0,2.197,1.019,4.025,2.92,4.025c0.941,0,1.767-0.464,2.198-1.29h0.022v1.117h2.038V45.692z
				 M1563.148,53.88c-0.834,0-1.338-0.813-1.338-1.998c0-0.983,0.479-1.838,1.338-1.838c0.81,0,1.351,0.81,1.351,1.937
				C1564.499,53.067,1563.885,53.88,1563.148,53.88 M1588.008,51.969c0,2.453,1.607,3.882,3.72,3.882
				c2.11,0,3.719-1.429,3.719-3.882c0-2.468-1.608-3.898-3.719-3.898C1589.615,48.071,1588.008,49.501,1588.008,51.969
				 M1593.163,51.969c0,1.098-0.419,2.083-1.436,2.083c-1.019,0-1.436-0.985-1.436-2.083c0-1.115,0.417-2.097,1.436-2.097
				C1592.744,49.873,1593.163,50.854,1593.163,51.969 M1556.343,55.678v-0.981c-0.406,0.755-1.127,1.154-1.962,1.154
				c-1.264,0-2.395-0.729-2.395-2.341c0-2.271,2.124-2.542,3.302-2.542c0.357,0,0.749,0.044,1.032,0.102
				c-0.014-1.015-0.663-1.286-1.46-1.286c-0.711,0-1.425,0.159-2.038,0.558v-0.02v-1.738c0.773-0.357,1.584-0.513,2.515-0.513
				c1.633,0,3.046,0.815,3.046,3.084v2.77c0,0.585,0.023,1.167,0.121,1.754H1556.343z M1556.333,52.333
				c-0.283-0.013-0.615-0.042-0.945-0.042c-0.749,0-1.339,0.272-1.339,0.985c0,0.513,0.394,0.813,0.908,0.813
				c0.602,0,1.084-0.262,1.376-0.771V52.333z M1550.91,48.071c-0.959,0-1.511,0.601-1.893,1.541h-0.022v-1.368h-2.013v7.435h2.209
				v-3.14c0-1.454,0.569-2.33,1.6-2.403c0.213-0.016,0.566,0.046,0.757,0.12v-2.07C1551.36,48.119,1551.108,48.071,1550.91,48.071
				 M1574.499,52.71h-4.416c0.122,1.026,0.797,1.427,1.878,1.427c0.602,0,1.288-0.156,1.951-0.569v1.813
				c-0.712,0.325-1.522,0.471-2.346,0.471c-2.109,0-3.718-1.442-3.718-3.897c0-2.452,1.436-3.883,3.425-3.883
				c2.369,0,3.226,1.957,3.226,4.169V52.71z M1572.512,51.255c0-0.856-0.343-1.555-1.227-1.555c-0.797,0-1.178,0.698-1.228,1.555
				H1572.512z M1578.213,48.071c-1.273,0-2.725,0.701-2.725,2.415c0,2.681,3.144,1.797,3.144,3.054c0,0.513-0.442,0.597-0.896,0.597
				c-0.796,0-1.561-0.256-2.074-0.514v1.771c0.584,0.237,1.265,0.457,2.197,0.457c1.448,0,2.983-0.5,2.983-2.484
				c0-2.825-3.292-1.912-3.292-3.068c0-0.414,0.543-0.524,1.021-0.515c0.51,0.014,1.297,0.227,1.764,0.555v-1.824
				C1579.659,48.226,1578.925,48.071,1578.213,48.071"/>
			<g>
				<rect x="1552.075" y="10.851" fill="#CF0A2C" width="29.883" height="29.882"/>
				<rect x="1564.197" y="28.995" fill="#FFFFFF" width="1.471" height="7.538"/>
				<rect x="1567.007" y="26.185" fill="#FFFFFF" width="2.41" height="10.348"/>
				<path fill="#FFFFFF" d="M1562.878,18.978c0,0,2.43-2.375,6.523-1.594c0,0,1.802,0.281,3.184,1.508c0,0,0.205,0.193,0.362,0.035
					c0,0,0.2-0.158-0.022-0.393c0,0-1.188-1.647-3.53-2.375c0,0-3.22-1.152-6.528,0.404c0,0-2.035,0.844-3.165,3.143
					c0,0-1.609,0.521-2.816,1.197c0,0-0.357,0.141-0.222,0.418c0,0,0.115,0.199,0.428,0.051c0,0,1.12-0.386,2.2-0.627
					c0,0-0.868,2.252,0.039,5.049c0.403,1.245,1.14,2.513,2.266,3.531c0,0,0.184,0.192,0.384,0.061c0,0,0.174-0.125,0.051-0.332
					c0,0-0.897-1.351-1.246-3.271c-0.29-1.568-0.153-3.731,0.936-5.447c0,0,4.142-0.577,7.674,0.752c0,0,5.998,1.957,4.487,5.588
					c0,0-0.438,1.262-2.094,2.401c0,0-0.277,0.162-0.127,0.394c0,0,0.125,0.18,0.409,0.064c0,0,2.535-0.825,3.63-2.861
					c0,0,2.22-3.397-3.016-6.169c0,0-1.438-0.77-3.289-1.181C1569.395,19.324,1566.061,18.5,1562.878,18.978"/>
			</g>
		</g>
	</g>
</g>
</svg>
