<?xml version="1.0" encoding="utf-8"?>
<!-- Generator: Adobe Illustrator 16.0.0, SVG Export Plug-In . SVG Version: 6.00 Build 0)  -->
<!DOCTYPE svg PUBLIC "-//W3C//DTD SVG 1.1//EN" "http://www.w3.org/Graphics/SVG/1.1/DTD/svg11.dtd">
<svg version="1.1" id="Layer_1" xmlns="http://www.w3.org/2000/svg" xmlns:xlink="http://www.w3.org/1999/xlink" x="0px" y="0px"
	 width="377.743px" height="336.7px" viewBox="0 0 377.743 336.7" enable-background="new 0 0 377.743 336.7" xml:space="preserve">
<g>
	<g>
		<path fill="#F2F2F2" d="M146.473,63h84.789c4.183,0,7.605-3.423,7.605-7.605V7.605c0-4.184-3.422-7.605-7.605-7.605h-84.789
			c-4.183,0-7.606,3.422-7.606,7.605v47.789C138.867,59.577,142.29,63,146.473,63z"/>
		<path fill="#C4C4C4" d="M231.261,63h-84.789c-4.183,0-7.606-3.423-7.606-7.605v3.699c0,4.184,3.423,7.605,7.606,7.605h84.789
			c4.183,0,7.605-3.422,7.605-7.605v-3.699C238.867,59.577,235.444,63,231.261,63z"/>
	</g>
	<g>
		<path fill="#263C82" d="M179.395,21.802l-9.412,23.03h-6.338l-6.102-23.03h4.025c0,0,2.526-0.146,2.976,2.456
			c0.401,2.322,2.602,13.338,2.602,13.338l5.865-15.794H179.395z"/>
		<path fill="#F89A1C" d="M166.481,34.258c-0.682-3.441-1.68-8.511-1.938-10c-0.382-2.214-2.267-2.438-2.821-2.456h-0.155h-4.025
			h-5.463v0.558C164.034,25.339,166.48,34.257,166.481,34.258z"/>
		<polygon fill="#263C82" points="181.701,21.802 178.012,44.832 183.936,44.832 187.661,21.801 		"/>
		<path fill="#263C82" d="M187.661,43.945l0.887-5.18c0,0,2.625,1.632,5.569,1.632c0,0,2.589,0.189,3.654-0.839
			c1.064-1.029,0.674-2.011,0.674-2.011s-0.284-0.934-1.892-1.69c-1.608-0.757-4.671-1.998-5.913-4.659
			c-1.242-2.66,0.461-5.616,0.461-5.616s1.466-2.507,4.446-3.43c2.98-0.922,6.385-0.614,6.385-0.614s1.987,0.213,3.595,0.852
			l-0.78,5.037c0,0-1.939-1.254-4.919-1.254c-2.98,0-3.571,1.727-3.571,1.727s-0.384,1.053,0.875,1.798
			c1.169,0.691,3.902,2.081,3.902,2.081s3.618,1.632,3.666,5.486s-3.146,5.936-3.146,5.936s-2.412,2.011-7.615,2.011
			C190.014,45.211,187.661,43.945,187.661,43.945z"/>
		<path fill="#263C82" d="M220.829,21.802c0,0-2.785,0-4.877,0c-2.093,0-2.643,1.516-2.643,1.516l-9.028,21.515h6.296l1.206-3.494
			h7.592l0.745,3.494h5.534L220.829,21.802z M213.38,36.727l3.264-8.815l1.844,8.815H213.38z"/>
	</g>
</g>
<g>
	<path fill="#F2F2F2" d="M285.339,63h84.79c4.184,0,7.605-3.423,7.605-7.605V7.605c0-4.184-3.422-7.605-7.605-7.605h-84.79
		c-4.183,0-7.605,3.422-7.605,7.605v47.789C277.733,59.577,281.156,63,285.339,63z"/>
	<path fill="#C4C4C4" d="M370.129,63h-84.79c-4.183,0-7.605-3.423-7.605-7.605v3.699c0,4.184,3.423,7.605,7.605,7.605h84.79
		c4.184,0,7.605-3.422,7.605-7.605v-3.699C377.734,59.577,374.313,63,370.129,63z"/>
	<g>
		<circle fill="#FAA840" cx="343.415" cy="31.566" r="23.404"/>
		<path fill="#EF3832" d="M335.414,33.027c0.027-0.462,0.043-0.926,0.043-1.395c0-0.021,0-0.043,0-0.064l-0.051-1.459
			c-0.031-0.49-0.076-0.977-0.137-1.459h-15.072c0.062-0.491,0.139-0.978,0.229-1.459h14.608c-0.096-0.491-0.203-0.979-0.328-1.458
			H320.75c0.126-0.493,0.271-0.979,0.428-1.459h13.098c-0.164-0.494-0.344-0.98-0.539-1.459h-12.025
			c0.199-0.495,0.415-0.981,0.646-1.459h10.727c-0.242-0.497-0.502-0.983-0.779-1.459h-9.174c0.287-0.498,0.593-0.984,0.914-1.459
			h7.34c-0.344-0.501-0.705-0.987-1.084-1.459h-5.179c0.401-0.504,0.824-0.99,1.266-1.459h2.64c-4.265-4.49-10.292-7.29-16.974-7.29
			c-12.926,0-23.403,10.478-23.403,23.402c0,12.926,10.478,23.402,23.403,23.402c6.051,0,11.567-2.297,15.722-6.066
			c-0.48-0.432-0.944-0.883-1.388-1.354h2.759c0.439-0.469,0.859-0.955,1.258-1.458h-5.282c-0.377-0.472-0.736-0.958-1.077-1.459
			h7.428c0.32-0.474,0.623-0.961,0.908-1.459h-9.25c-0.273-0.476-0.531-0.962-0.773-1.459h10.791
			c0.23-0.478,0.443-0.964,0.641-1.458h-12.078c-0.193-0.479-0.371-0.966-0.533-1.459h13.139c0.156-0.48,0.299-0.967,0.424-1.459
			h-5.09c-0.123-0.48-0.23-0.968-0.322-1.459h5.73c0.09-0.482,0.166-0.969,0.225-1.459h-5.268v-1.459H335.414z M322.721,34.486
			h-2.523c-0.06-0.481-0.104-0.969-0.134-1.459h2.657V34.486z"/>
		<polygon fill="#FFFFFF" points="290.913,37.478 292.737,27.094 296.491,27.094 296.841,33.065 299.378,27.094 303.345,27.094 
			301.49,37.478 299.271,37.478 300.608,29.859 297.402,37.478 294.88,37.478 294.454,29.753 293.132,37.478 		"/>
		<path fill="#FFFFFF" d="M309.793,29.606c-0.933-0.669-1.682-0.68-1.682-0.68h-2.239c0,0-0.628,0.041-1.074,0.152
			c-0.445,0.111-0.566,0.264-0.566,0.264l-0.558,1.996c0,0,1.013-0.567,2.999-0.567c1.985,0,1.307,1.276,1.307,1.276h-1.429
			c0,0-1.642-0.102-2.806,0.709c-1.166,0.811-1.277,2.319-1.277,2.319s-0.242,2.554,2.351,2.554c0,0,1.632,0.081,2.594-0.933
			l-0.142,0.78h2.076l1.186-6.22C310.532,31.258,310.726,30.274,309.793,29.606z M307.614,34.61c0,0-0.264,1.196-1.863,1.196
			c0,0-0.871,0.04-0.871-0.791c0-0.83,0.871-1.235,0.871-1.235s0.688-0.345,1.539-0.345c0,0,0.567,0,0.537,0.172L307.614,34.61z"/>
		<path fill="#FFFFFF" d="M317.06,29.031l-0.402,1.823c0,0-1.026-0.145-1.497-0.145c-0.472,0-1.322-0.007-1.626,0.563
			c0,0-0.502,0.585,1.041,1.117c0,0,2.066,0.372,1.998,2.052c-0.068,1.679-0.737,2.219-0.737,2.219s-0.835,0.889-3.115,0.889
			c-2.279,0-2.766-0.41-2.766-0.41l0.396-1.809c0,0,1.185,0.402,2.37,0.402s1.261-0.623,1.261-0.623s0.138-0.691-0.379-0.873
			c-0.518-0.183-2.805-0.859-2.668-2.492c0.137-1.634,0.844-2.181,0.844-2.181s0.859-0.783,3.101-0.692
			C314.879,28.871,316.33,28.927,317.06,29.031z"/>
		<path fill="#FFFFFF" d="M318.495,27.094l-1.58,8.955c0,0-0.223,1.429,1.357,1.429h1.418c0,0,0.771-0.071,1.064-0.396l0.243-1.438
			c0,0-0.345,0.121-1.095,0.121c-0.749,0-0.668-0.477-0.668-0.477l0.779-4.538c0,0,0.062,0.111,0.346,0.111c0.283,0,1.034,0,1.034,0
			l0.324-1.854h-1.349l0.354-1.915H318.495z"/>
		<path fill="#FFFFFF" d="M325.494,28.871c0,0-3.001-0.25-4.103,2.743c-1.104,2.993,0.646,4.719,0.646,4.719
			s0.866,1.178,3.518,1.178c0,0,1.422,0.068,2.402-0.479l0.336-2.013c0,0-0.898,0.698-2.357,0.698c0,0-2.675,0.13-2.484-1.898h5.09
			c0,0,0.189-1.437,0.236-1.885C328.822,31.485,328.807,28.871,325.494,28.871z M326.619,32.215h-2.895c0,0,0.235-1.58,1.527-1.58
			C326.718,30.635,326.619,32.215,326.619,32.215z"/>
		<path fill="#FFFFFF" d="M328.436,37.478l1.488-8.459h2.301l-0.254,1.327c0,0,0.912-1.408,1.904-1.408h0.922
			c0,0-0.668,0.892-0.891,2.259c0,0-0.709-0.182-1.51,0.229s-0.963,1.858-0.963,1.858l-0.629,4.194H328.436z"/>
		<path fill="#FFFFFF" d="M341.307,34.737l-0.318,2.128c0,0-0.533,0.648-2.463,0.648s-2.766-0.785-2.766-0.785
			s-2.781-1.869-1.141-6.413c1.643-4.544,6.475-3.465,6.475-3.465s0.813,0.183,1.512,0.509l-0.363,2.211c0,0-0.959-0.6-2.371-0.6
			c-1.414,0-2.082,0.774-2.082,0.774s-1.088,1.284-1.141,3.199s1.559,2.279,1.559,2.279S340.016,35.778,341.307,34.737z"/>
		<path fill="#FFFFFF" d="M348.9,29.606c-0.932-0.669-1.682-0.68-1.682-0.68h-2.24c0,0-0.627,0.041-1.074,0.152
			c-0.445,0.111-0.566,0.264-0.566,0.264l-0.557,1.996c0,0,1.012-0.567,2.998-0.567s1.307,1.276,1.307,1.276h-1.428
			c0,0-1.641-0.102-2.807,0.709s-1.277,2.319-1.277,2.319s-0.242,2.554,2.352,2.554c0,0,1.631,0.081,2.594-0.933l-0.143,0.78h2.078
			l1.184-6.22C349.639,31.258,349.832,30.274,348.9,29.606z M346.723,34.61c0,0-0.264,1.196-1.865,1.196c0,0-0.871,0.04-0.871-0.791
			c0-0.83,0.871-1.235,0.871-1.235s0.689-0.345,1.541-0.345c0,0,0.566,0,0.535,0.172L346.723,34.61z"/>
		<path fill="#FFFFFF" d="M349.264,37.46l1.49-8.459h2.301l-0.254,1.327c0,0,0.881-1.408,2.098-1.408h0.486
			c0,0-0.244,0.706-0.467,2.074c0,0-0.912-0.081-1.607,0.371c-0.754,0.491-1.047,1.9-1.047,1.9l-0.629,4.194H349.264z"/>
		<path fill="#FFFFFF" d="M361.139,27.094l-0.531,3.055c0,0-0.502-1.171-2.197-1.171c-1.693,0-2.955,1.589-2.955,1.589
			s-1.186,1.443-1.186,3.586s1.359,3.009,1.359,3.009s0.615,0.47,1.559,0.47c0.941,0,1.443-0.355,1.443-0.355s0.326-0.205,0.76-0.54
			l-0.129,0.742l2.316-0.018l1.795-10.366H361.139z M359.648,34.524c-0.623,1.103-1.633,1.109-1.633,1.109s-0.76,0.068-1.057-0.95
			c-0.348-1.197,0.373-2.78,0.373-2.78s0.523-1.049,1.549-1.049c1.027,0,1.201,1.216,1.201,1.216S360.271,33.423,359.648,34.524z"/>
	</g>
</g>
<g>
	<path fill="#F2F2F2" d="M7.605,63h84.789c4.184,0,7.605-3.423,7.605-7.605V7.605C100,3.422,96.578,0,92.395,0H7.605
		C3.423,0,0,3.422,0,7.605v47.789C0,59.577,3.423,63,7.605,63z"/>
	<path fill="#C4C4C4" d="M92.395,63H7.605C3.423,63,0,59.577,0,55.395v3.699c0,4.184,3.423,7.605,7.605,7.605h84.789
		c4.184,0,7.605-3.422,7.605-7.605v-3.699C100,59.577,96.578,63,92.395,63z"/>
	<g>
		<path fill="#263A82" d="M20.639,21.764c0,0-6.32,0-7.072,0s-0.894,0.589-0.894,0.589s-2.397,15.2-2.499,15.851
			s0.305,0.671,0.305,0.671h3.353c0.468,0,0.468-0.548,0.468-0.548s0.568-3.537,0.752-4.431c0.183-0.895,0.895-0.752,0.895-0.752
			h3.088c5.833,0,6.057-6.687,6.057-6.687C25.465,21.885,20.639,21.764,20.639,21.764z M20.7,27.107
			c-0.549,2.967-2.987,2.724-2.987,2.724h-1.688c-0.609,0-0.426-0.569-0.426-0.569s0.527-3.17,0.67-3.76
			c0.143-0.589,0.732-0.589,0.732-0.589h1.707C20.984,24.913,20.7,27.107,20.7,27.107z"/>
		<path fill="#263A82" d="M38.127,27.375c-0.824,0-2.592,0-2.592,0s-0.609-0.033-0.731,0.545c-0.122,0.58-0.198,0.9-0.198,0.9
			s-0.717-1.754-3.521-1.754c-2.805,0-4.253,1.54-4.253,1.54s-2.682,2.546-2.682,5.563s1.631,5.014,4.785,5.014
			c3.155,0,4.131-1.66,4.131-1.66s0.023-0.064,0.088-0.058c0.096,0.011,0.095,0.058,0.095,0.058l-0.138,0.716
			c0,0-0.113,0.595,0.442,0.595h2.713c0,0,0.854-0.062,0.976-0.885c0.122-0.822,1.463-9.815,1.463-9.815
			S38.949,27.375,38.127,27.375z M33.303,34.959c-0.935,1.157-2.568,1.232-2.568,1.232c-3.4,0-2.584-3.248-2.584-3.248
			s0.832-2.782,3.445-2.782s2.613,2.301,2.613,2.301S34.238,33.801,33.303,34.959z"/>
		<path fill="#263A82" d="M40.626,27.342h2.851c0,0,0.64-0.076,0.822,0.746c0.184,0.823,1.586,5.289,1.586,5.289
			s0.091,0.32,0.289,0.32s0.365-0.336,0.365-0.336l3.705-5.471c0,0,0.365-0.549,0.762-0.549s2.881,0,2.881,0
			s0.944,0.015,0.396,0.854c-0.548,0.838-9.938,14.357-9.938,14.357s-0.198,0.365-0.716,0.365c-0.519,0-2.805,0-2.805,0
			s-0.442-0.03-0.519-0.441c-0.076-0.412,0.259-0.732,0.259-0.732l2.584-3.764c0,0,0.176-0.178,0.176-0.534
			c0-0.355-3.227-9.241-3.227-9.241S39.732,27.342,40.626,27.342z"/>
		<path fill="#2398D5" d="M64.535,21.764c0,0-6.32,0-7.072,0s-0.895,0.589-0.895,0.589s-2.398,15.2-2.5,15.851
			s0.306,0.671,0.306,0.671h3.353c0.468,0,0.468-0.548,0.468-0.548s0.569-3.537,0.752-4.431c0.183-0.895,0.894-0.752,0.894-0.752
			h3.09c5.832,0,6.056-6.687,6.056-6.687C69.361,21.885,64.535,21.764,64.535,21.764z M64.596,27.107
			c-0.549,2.967-2.987,2.724-2.987,2.724h-1.687c-0.609,0-0.427-0.569-0.427-0.569s0.528-3.17,0.671-3.76
			c0.143-0.589,0.731-0.589,0.731-0.589h1.707C64.881,24.913,64.596,27.107,64.596,27.107z"/>
		<path fill="#2398D5" d="M82.021,27.375c-0.822,0-2.59,0-2.59,0s-0.61-0.033-0.732,0.545c-0.121,0.58-0.197,0.9-0.197,0.9
			s-0.717-1.754-3.521-1.754s-4.252,1.54-4.252,1.54s-2.684,2.546-2.684,5.563s1.631,5.014,4.787,5.014c3.154,0,4.13-1.66,4.13-1.66
			s0.023-0.064,0.089-0.058c0.094,0.011,0.094,0.058,0.094,0.058l-0.137,0.716c0,0-0.114,0.595,0.441,0.595h2.713
			c0,0,0.854-0.062,0.977-0.885c0.121-0.822,1.463-9.815,1.463-9.815S82.846,27.375,82.021,27.375z M77.199,34.959
			c-0.936,1.157-2.568,1.232-2.568,1.232c-3.4,0-2.584-3.248-2.584-3.248s0.832-2.782,3.445-2.782s2.613,2.301,2.613,2.301
			S78.135,33.801,77.199,34.959z"/>
		<path fill="#2398D5" d="M86.971,38.387l2.662-16.075c0,0,0.209-0.579-0.508-0.579s-2.846,0-2.846,0s-0.549-0.03-0.67,0.579
			c-0.123,0.61-2.521,15.953-2.521,15.953s-0.097,0.569,0.509,0.569c0.604,0,2.774,0,2.774,0S86.889,38.877,86.971,38.387z"/>
	</g>
</g>
<g>
	<path fill="#2075BC" d="M7.625,243h84.789c4.184,0,7.605-3.422,7.605-7.605v-47.789c0-4.182-3.422-7.605-7.605-7.605H7.625
		c-4.183,0-7.605,3.424-7.605,7.605v47.789C0.02,239.578,3.442,243,7.625,243z"/>
	<path fill="#1560AB" d="M92.414,243H7.625c-4.183,0-7.605-3.422-7.605-7.605v3.699c0,4.184,3.423,7.605,7.605,7.605h84.789
		c4.184,0,7.605-3.422,7.605-7.605v-3.699C100.02,239.578,96.598,243,92.414,243z"/>
	<g>
		<path fill="#FFFFFF" d="M51.664,201.978v-0.283c0,0,0.017-1.121-1.482-1.121c-1.498,0-3.887,0-3.887,0v2.629h3.93
			C50.225,203.203,51.664,203.175,51.664,201.978z"/>
		<polygon fill="#FFFFFF" points="6.99,200.033 5.037,204.812 8.942,204.812 		"/>
		<polygon fill="#FFFFFF" points="73.383,200.125 71.447,204.818 75.318,204.818 		"/>
		<path fill="#FFFFFF" d="M0,212.318h0.002h3.015h1.647l0.631-1.521l0.465-1.121H8.3l0.416,1.07l0.611,1.572h1.688h5.669h2.466
			v-0.016l0.007,0.016h1.604h2.466h1.609h2.433h2.494h0.365h2.102h0.365h8.449h0.502h1.964h0.503h2.291h2.467v-2.465v-1.797h0.531
			v1.797v2.465h2.466h2.121h0.73h1.735h0.73h2.102h2.466v-1.059c1.108,0.654,2.435,1.02,3.931,1.059h0.033h0.032h3.757h1.664
			l0.623-1.543l0.428-1.059h2.508l0.443,1.076l0.629,1.525h1.651h0.456h2.467h0.273h2.49h1.257h1.208v-2.391l0.718,1.195
			l0.718,1.195h1.396h3.962h2.466v-2.465v-11.658v-2.467h-2.466h-2.843h-2.467v1.744l-0.33-0.549l-0.719-1.195h-1.395h-4.27h-2.467
			v1.521l-0.012-0.029l-0.643-1.492h-1.623h-4.016h-2.467H65.66c-0.038,0-0.088-0.002-0.148-0.002l0,0
			c-1.105,0-2.546,0.287-3.86,1.07v-1.07h-2.466h-2.832h-2.466v0.529c-0.694-0.289-1.512-0.479-2.468-0.523l-0.059-0.004h-0.057
			h-7.293h-0.503h-1.964h-0.502h-8.449h-0.365h-2.102h-0.365h-4.293h-1.63L23.2,197.23l-1.182,2.773l-1.315-2.844l-0.662-1.432
			h-1.576h-4.557h-2.466v1.561l-0.029-0.068l-0.642-1.492H9.147H4.969h-1.63l-0.639,1.5L0,203.566V212.318z M60.602,204.806v-1.348
			c0.208-5.047,4.216-5.266,4.91-5.266c0.065,0,0.102,0.002,0.102,0.002h3.434v2.447c0,0-0.428,0-3.039,0
			c-2.612,0-2.578,2.936-2.578,2.936v0.908c0,2.705,1.864,2.9,2.4,2.9c0.09,0,0.143-0.006,0.143-0.006h1.439l3.922-9.186h4.195
			l4.744,11.021v-0.363v-10.658h4.27l4.91,8.152v-8.152h2.843v11.658h-3.962l-5.297-8.826v8.826h-5.687l-1.073-2.604h-5.823
			l-1.05,2.604h-3.757C60.51,209.716,60.602,204.806,60.602,204.806z M56.354,198.193h2.832v11.66h-2.832V198.193z M43.509,198.195
			h7.796c3.416,0.16,3.416,2.738,3.416,2.738v0.504c0,2.236-1.986,3.006-1.986,3.006s0.521,0.061,1.216,0.736
			c0.693,0.678,0.668,1.818,0.668,1.818v2.855h-2.852c0,0,0-0.34,0-2.422c0-1.689-1.307-1.85-1.796-1.85
			c-0.113,0-0.182,0.01-0.182,0.01h-3.486v4.262h-2.794V198.195z M32.229,198.195h9.316v2.379h-6.502v2.148h6.336v2.398h-6.336
			v2.311h6.502v2.422h-9.316V198.195z M4.969,198.195h4.179l4.761,11.07v-11.07h4.557l3.647,7.885l3.356-7.885h4.658v11.658h-2.859
			v-9.186l-4.042,9.186H20.76l-4.076-9.168v9.168h-5.669l-1.028-2.645H4.112l-1.096,2.645H0.002L4.969,198.195z"/>
		<path fill="#FFFFFF" d="M100.018,215.824H99.42h-5.745c-1.182,0-2.028,0.352-2.657,0.893v-0.893h-2.467h-5.746
			c-1.053,0-1.95,0.184-2.714,0.486v-0.475h-2.466h-9.317h-2.466v0.539c-0.701-0.297-1.53-0.492-2.502-0.537l-0.059-0.002h-0.057
			h-7.796h-2.466v0.525c-0.766-0.313-1.717-0.525-2.889-0.525H40.54h-1.073l-0.73,0.785l-1.742,1.869l-1.637-1.832l-0.734-0.822
			h-1.104H22.283h-2.466v2.465v11.67v2.465h2.466h11.053h1.075l0.731-0.787l1.723-1.855l1.633,1.822l0.734,0.82h1.103h5.458h2.466
			v-2.465v-1.428h1.415c0.044,0.002,0.106,0.002,0.185,0.002c0.647,0,1.861-0.082,3.104-0.596v2.01v2.467h2.466h2.794h2.467v-2.467
			v-1.795h0.531v1.795v2.467h2.466h2.852h2.466l0,0h7.9l-0.008,0.01h2.467h5.891c0.994,0,1.822-0.158,2.512-0.402v0.402h2.467h5.892
			c1.78,0,3.036-0.508,3.894-1.096V215.824z M54.127,221.714v0.742c0,3.439-3.521,3.623-4.269,3.623
			c-0.089,0-0.139-0.004-0.139-0.004h-3.927v3.895h-5.458l-3.437-3.836l-3.563,3.836H22.283V218.3h11.235l3.437,3.848l3.585-3.848
			c0,0,5.424,0,9.534,0C54.184,218.3,54.127,221.714,54.127,221.714z M66.641,221.544c0,2.234-1.986,3.004-1.986,3.004
			s0.522,0.061,1.216,0.738c0.693,0.676,0.668,1.816,0.668,1.816v2.855h-2.852c0,0,0-0.34,0-2.42c0-1.691-1.307-1.85-1.796-1.85
			c-0.113,0-0.182,0.008-0.182,0.008h-3.486v4.262h-2.794V218.3h7.796c3.416,0.16,3.416,2.738,3.416,2.738V221.544z M77.625,220.679
			h-6.503v2.148h6.337v2.398h-6.337v2.313h6.503v2.42h-9.317V218.3h9.317V220.679z M89.116,226.742c0,0,0.034,3.229-3.862,3.229
			s-5.891,0-5.891,0v-2.51h5.805c0,0,1.033-0.055,1.033-0.838v-0.441c0,0-0.107-0.779-0.985-0.779s-1.819,0-1.819,0
			s-0.057,0.002-0.156,0.002c-0.786,0-4.279-0.178-4.279-3.355v-0.574c0,0,0.051-3.184,3.844-3.184c3.794,0,5.746,0,5.746,0v2.482
			h-5.395c0,0-0.001,0-0.002,0c-0.06,0-1.236,0.012-1.236,0.873v0.4c0,0,0.006,0.805,1.152,0.805c1.148,0,2.164,0,2.164,0
			s0.063-0.004,0.174-0.004c0.756,0,3.708,0.186,3.708,3.107V226.742z M96.124,229.97c-3.026,0-4.899,0-5.589,0
			c0.646-0.918,0.896-1.863,0.99-2.51h4.513c0,0,1.032-0.055,1.032-0.838v-0.441c0,0-0.107-0.779-0.984-0.779
			c-0.879,0-1.82,0-1.82,0s-0.057,0.002-0.156,0.002c-0.785,0-4.279-0.178-4.279-3.355v-0.574c0,0,0.051-3.184,3.845-3.184
			s5.745,0,5.745,0v2.482h-5.395c0,0,0,0-0.002,0c-0.059,0-1.236,0.012-1.236,0.873v0.4c0,0,0.006,0.805,1.153,0.805
			s2.163,0,2.163,0s0.064-0.004,0.174-0.004c0.756,0,3.709,0.186,3.709,3.107v0.787C99.986,226.742,100.02,229.97,96.124,229.97z"/>
		<path fill="#FFFFFF" d="M49.691,220.687c-0.019,0-0.028,0-0.028,0h-3.882v3.025h3.996c0,0,1.393-0.012,1.393-1.553
			C51.17,220.744,49.898,220.687,49.691,220.687z"/>
		<path fill="#FFFFFF" d="M62.102,220.679c-1.498,0-3.887,0-3.887,0v2.629h3.93c0,0,1.439-0.025,1.439-1.225V221.8
			C63.584,221.8,63.601,220.679,62.102,220.679z"/>
		<polygon fill="#FFFFFF" points="25.047,220.699 25.047,222.869 31.178,222.869 31.178,225.22 25.047,225.22 25.047,227.572 
			31.92,227.572 35.105,224.136 32.08,220.699 		"/>
		<polygon fill="#FFFFFF" points="43.029,229.011 43.029,219.535 38.668,224.136 		"/>
	</g>
</g>
<g>
	<g>
		<path fill="#F2F2F2" d="M146.473,153h84.789c4.183,0,7.605-3.422,7.605-7.605v-47.79c0-4.183-3.422-7.605-7.605-7.605h-84.789
			c-4.183,0-7.606,3.423-7.606,7.605v47.79C138.867,149.579,142.29,153,146.473,153z"/>
		<path fill="#C4C4C4" d="M231.261,153h-84.789c-4.183,0-7.606-3.422-7.606-7.605v3.699c0,4.184,3.423,7.605,7.606,7.605h84.789
			c4.183,0,7.605-3.422,7.605-7.605v-3.699C238.867,149.579,235.444,153,231.261,153z"/>
	</g>
	<g>
		<path fill="#32367F" d="M192.226,121.973c-0.881-1.102-2.056-1.689-3.562-1.689c-1.138,0-2.276,0.551-3.378,1.579v-6.499
			l-2.497,1.358v17.259h2.497v-1.285c0.881,1.027,1.982,1.578,3.268,1.578c1.432,0,2.644-0.586,3.562-1.652
			c1.029-1.248,1.58-2.973,1.58-5.141C193.696,125.057,193.181,123.221,192.226,121.973L192.226,121.973z M185.25,124.434
			c0.918-1.176,1.873-1.727,2.938-1.727c1.983,0,2.938,1.615,2.938,4.883c0,2.791-0.918,4.223-2.828,4.223
			c-1.138,0-2.13-0.586-3.048-1.762L185.25,124.434L185.25,124.434z"/>
		<path fill="#32367F" d="M196.779,123.478c0.955-0.587,2.093-0.844,3.377-0.844c1.617,0,2.461,0.771,2.461,2.276v0.992
			c-0.735-0.33-1.69-0.514-2.864-0.514c-1.579,0-2.791,0.365-3.709,1.063c-0.991,0.773-1.468,1.838-1.468,3.27
			c0,1.543,0.477,2.68,1.468,3.525c0.809,0.697,1.8,1.027,3.012,1.027c1.359,0,2.534-0.551,3.562-1.615v1.32h2.497v-9.215
			c0-1.47-0.441-2.571-1.359-3.379c-0.844-0.734-2.019-1.102-3.524-1.102c-1.727,0-3.195,0.403-4.443,1.212L196.779,123.478
			L196.779,123.478z M202.618,128.252v1.91c-0.808,1.139-1.873,1.725-3.159,1.725c-1.652,0-2.46-0.734-2.46-2.238
			c0-1.324,0.881-1.984,2.68-1.984C200.818,127.665,201.81,127.885,202.618,128.252L202.618,128.252z"/>
		<path fill="#32367F" d="M210.329,120.541h-2.534v13.44h2.534v-7.857c0-2.277,0.882-3.416,2.644-3.416
			c1.799,0,2.681,1.212,2.681,3.672v7.602h2.57v-7.711c0-4.003-1.579-5.985-4.663-5.985c-1.469,0-2.571,0.551-3.231,1.579V120.541
			L210.329,120.541z"/>
		<polygon fill="#32367F" points="227.514,120.541 224.833,124.471 223.364,126.674 223.401,115.364 220.868,116.759 
			220.868,133.981 223.401,133.981 223.401,130.016 225.384,127.297 228.249,133.981 231.002,133.981 227.109,125.057 
			230.378,120.541 		"/>
		<polygon fill="#32367F" points="162.998,120.504 160.207,120.504 160.207,133.981 162.998,133.981 		"/>
		<path fill="#32367F" d="M165.495,120.504v2.533h2.35v7.602c0,1.027,0.294,1.91,0.845,2.57c0.551,0.625,1.322,0.955,2.203,0.992
			c0.991,0.037,1.836-0.221,2.46-0.625h0.037l0.037-0.037l0.587-2.387l0.037-0.184l-0.146,0.074
			c-0.771,0.477-1.396,0.697-2.056,0.697c-0.845,0-1.285-0.477-1.285-1.506v-7.197h2.827v-2.533h-2.827v-4.223l-2.681,1.469h-0.037
			v2.754H165.495L165.495,120.504z"/>
		<polygon fill="#32367F" points="178.897,120.504 176.07,120.504 176.07,133.981 178.897,133.981 		"/>
		<path fill="#32367F" d="M153.818,120.248c-1.983,0-3.636,0.624-4.957,1.836c-1.432,1.285-2.13,3.011-2.13,5.179
			c0,2.129,0.698,3.893,2.13,5.176c1.322,1.213,2.974,1.836,4.957,1.836c1.873,0,3.488-0.77,4.773-2.313l0.037-0.037l-0.037-0.037
			l-1.469-1.799l-0.073-0.072l-0.037,0.072c-0.955,1.029-2.056,1.543-3.304,1.543c-1.212,0-2.204-0.404-3.011-1.248
			c-0.771-0.809-1.175-1.836-1.175-3.121s0.403-2.314,1.175-3.122c0.808-0.845,1.799-1.249,3.011-1.249
			c1.248,0,2.35,0.514,3.304,1.543l0.037,0.072l0.073-0.072l1.469-1.8l0.037-0.037l-0.037-0.037
			C157.306,121.019,155.691,120.248,153.818,120.248L153.818,120.248z"/>
		<path fill="#EA3030" d="M161.602,118.264c2.167-2.276,4.811-3.415,7.895-3.415s5.729,1.139,7.858,3.415l0.073,0.037h3.158
			l-0.11-0.184c-1.248-1.763-2.864-3.158-4.847-4.187c-1.946-1.028-3.966-1.505-6.132-1.505c-2.13,0-4.186,0.477-6.132,1.505
			c-1.946,1.028-3.599,2.424-4.847,4.187l-0.11,0.184h3.158L161.602,118.264L161.602,118.264z"/>
	</g>
</g>
<g>
	<g>
		<path fill="#F2F2F2" d="M7.606,153h84.788c4.184,0,7.605-3.422,7.605-7.605V97.604c0-4.183-3.422-7.605-7.605-7.605H7.606
			C3.423,89.999,0,93.422,0,97.604v47.791C0,149.579,3.423,153,7.606,153z"/>
		<path fill="#C4C4C4" d="M92.394,153H7.606C3.423,153,0,149.579,0,145.395v3.699c0,4.184,3.423,7.605,7.606,7.605h84.788
			c4.184,0,7.605-3.422,7.605-7.605v-3.699C100,149.579,96.578,153,92.394,153z"/>
	</g>
	<g>
		<polygon fill-rule="evenodd" clip-rule="evenodd" fill="#ED2224" points="76.671,123.512 83.601,116.583 69.743,116.583 
			76.671,123.512 		"/>
		<polygon fill-rule="evenodd" clip-rule="evenodd" fill="#ED2224" points="76.671,123.512 83.601,130.442 69.743,130.442 
			76.671,123.512 		"/>
		<polygon fill-rule="evenodd" clip-rule="evenodd" fill="#FFFFFF" points="76.671,123.512 69.743,116.583 69.743,130.442 
			76.671,123.512 		"/>
		<polygon fill-rule="evenodd" clip-rule="evenodd" fill="#FFFFFF" points="76.671,123.512 83.601,116.583 83.601,130.442 
			76.671,123.512 		"/>
		<polygon fill-rule="evenodd" clip-rule="evenodd" fill="#ED2224" points="90.529,123.512 83.601,116.583 83.601,130.442 
			90.529,123.512 		"/>
		<polygon fill-rule="evenodd" clip-rule="evenodd" fill="#ED2224" points="62.814,123.512 69.743,116.583 69.743,130.442 
			62.814,123.512 		"/>
		<path fill-rule="evenodd" clip-rule="evenodd" fill="#010101" d="M13.619,123.087h6.224v-3.833c0-0.684-0.044-1.135-0.128-1.352
			c-0.067-0.164-0.206-0.308-0.415-0.424c-0.283-0.158-0.583-0.235-0.9-0.235h-0.472v-0.368h5.728v0.368H23.18
			c-0.313,0-0.614,0.071-0.897,0.225c-0.212,0.104-0.354,0.267-0.431,0.479c-0.074,0.216-0.111,0.65-0.111,1.308v8.647
			c0,0.676,0.04,1.125,0.128,1.342c0.064,0.164,0.199,0.307,0.405,0.422c0.29,0.16,0.593,0.24,0.907,0.24h0.476v0.365h-5.728v-0.365
			h0.472c0.546,0,0.948-0.162,1.197-0.484c0.166-0.209,0.247-0.717,0.247-1.52v-4.082h-6.224v4.082c0,0.676,0.043,1.125,0.128,1.342
			c0.068,0.164,0.206,0.307,0.418,0.422c0.283,0.16,0.58,0.24,0.896,0.24h0.486v0.365H9.809v-0.365h0.472
			c0.553,0,0.955-0.162,1.207-0.484c0.155-0.209,0.236-0.717,0.236-1.52v-8.647c0-0.684-0.044-1.135-0.128-1.352
			c-0.067-0.164-0.202-0.308-0.404-0.424c-0.29-0.158-0.593-0.235-0.91-0.235H9.809v-0.368h5.738v0.368h-0.486
			c-0.317,0-0.614,0.071-0.896,0.225c-0.206,0.104-0.348,0.267-0.425,0.479c-0.081,0.216-0.122,0.65-0.122,1.308V123.087
			L13.619,123.087z"/>
		<path fill-rule="evenodd" clip-rule="evenodd" fill="#010101" d="M32.45,116.569v4.635h-0.364
			c-0.122-0.892-0.334-1.599-0.638-2.125c-0.307-0.528-0.745-0.948-1.312-1.254c-0.566-0.311-1.15-0.465-1.757-0.465
			c-0.684,0-1.25,0.208-1.698,0.627c-0.449,0.419-0.671,0.892-0.671,1.425c0,0.408,0.142,0.783,0.425,1.117
			c0.408,0.495,1.378,1.151,2.913,1.975c1.25,0.671,2.106,1.187,2.562,1.549c0.459,0.358,0.813,0.782,1.058,1.268
			c0.246,0.488,0.372,0.998,0.372,1.531c0,1.014-0.394,1.887-1.18,2.621c-0.789,0.736-1.8,1.104-3.038,1.104
			c-0.39,0-0.755-0.029-1.099-0.092c-0.202-0.031-0.626-0.152-1.268-0.357c-0.64-0.209-1.048-0.313-1.221-0.313
			c-0.165,0-0.293,0.049-0.391,0.148c-0.094,0.096-0.166,0.303-0.212,0.613h-0.364v-4.592h0.364
			c0.171,0.959,0.404,1.678,0.694,2.158c0.29,0.475,0.732,0.873,1.329,1.189c0.593,0.313,1.247,0.471,1.958,0.471
			c0.823,0,1.473-0.215,1.952-0.648c0.475-0.436,0.714-0.949,0.714-1.543c0-0.33-0.09-0.66-0.269-0.998
			c-0.183-0.336-0.466-0.646-0.847-0.936c-0.256-0.199-0.958-0.617-2.104-1.26c-1.147-0.643-1.959-1.155-2.444-1.538
			c-0.486-0.383-0.85-0.805-1.103-1.263c-0.25-0.463-0.374-0.972-0.374-1.524c0-0.961,0.368-1.786,1.105-2.481
			c0.739-0.694,1.677-1.043,2.816-1.043c0.711,0,1.467,0.173,2.262,0.524c0.367,0.165,0.63,0.246,0.778,0.246
			c0.172,0,0.313-0.052,0.421-0.15c0.108-0.106,0.196-0.313,0.264-0.62H32.45L32.45,116.569z"/>
		<path fill-rule="evenodd" clip-rule="evenodd" fill="#010101" d="M42.874,123.436c0.93,0.195,1.625,0.512,2.086,0.948
			c0.638,0.607,0.958,1.344,0.958,2.221c0,0.666-0.212,1.303-0.633,1.912c-0.421,0.611-0.998,1.051-1.733,1.332
			c-0.735,0.279-1.854,0.422-3.361,0.422h-6.321v-0.365h0.502c0.559,0,0.96-0.178,1.204-0.533c0.151-0.232,0.229-0.721,0.229-1.471
			v-8.656c0-0.831-0.094-1.352-0.286-1.567c-0.256-0.292-0.641-0.435-1.146-0.435h-0.502v-0.368h5.785
			c1.083,0,1.949,0.079,2.599,0.239c0.988,0.235,1.743,0.652,2.262,1.257c0.519,0.603,0.779,1.294,0.779,2.08
			c0,0.671-0.203,1.271-0.61,1.804C44.276,122.783,43.672,123.175,42.874,123.436L42.874,123.436z M37.698,122.898
			c0.246,0.048,0.522,0.081,0.836,0.105c0.314,0.023,0.658,0.033,1.032,0.033c0.961,0,1.686-0.102,2.168-0.311
			c0.484-0.205,0.855-0.525,1.112-0.953c0.255-0.427,0.384-0.895,0.384-1.403c0-0.782-0.319-1.449-0.958-2.003
			c-0.64-0.552-1.571-0.829-2.795-0.829c-0.661,0-1.251,0.071-1.78,0.217V122.898L37.698,122.898z M37.698,129.301
			c0.765,0.18,1.52,0.266,2.263,0.266c1.193,0,2.1-0.268,2.727-0.805c0.624-0.535,0.937-1.199,0.937-1.988
			c0-0.52-0.142-1.021-0.425-1.5c-0.283-0.482-0.745-0.861-1.382-1.139c-0.637-0.275-1.429-0.414-2.37-0.414
			c-0.409,0-0.759,0.008-1.049,0.019c-0.29,0.013-0.522,0.036-0.701,0.069V129.301L37.698,129.301z"/>
		<path fill-rule="evenodd" clip-rule="evenodd" fill="#010101" d="M58.306,116.569l0.307,4.553h-0.307
			c-0.407-1.362-0.991-2.344-1.747-2.944c-0.758-0.599-1.665-0.898-2.727-0.898c-0.89,0-1.692,0.226-2.411,0.677
			c-0.718,0.452-1.28,1.171-1.691,2.157c-0.413,0.988-0.618,2.219-0.618,3.686c0,1.211,0.192,2.264,0.583,3.153
			c0.388,0.889,0.971,1.568,1.753,2.043c0.78,0.477,1.669,0.713,2.67,0.713c0.87,0,1.635-0.186,2.303-0.561
			c0.664-0.369,1.396-1.109,2.191-2.213l0.306,0.193c-0.67,1.193-1.456,2.066-2.35,2.619c-0.897,0.553-1.958,0.83-3.192,0.83
			c-2.219,0-3.938-0.822-5.156-2.473c-0.906-1.223-1.361-2.666-1.361-4.326c0-1.334,0.299-2.565,0.897-3.685
			c0.6-1.12,1.426-1.985,2.475-2.603c1.052-0.614,2.198-0.922,3.442-0.922c0.968,0,1.924,0.237,2.865,0.71
			c0.277,0.145,0.476,0.219,0.594,0.219c0.175,0,0.33-0.064,0.461-0.189c0.171-0.175,0.293-0.423,0.367-0.739H58.306L58.306,116.569
			z"/>
		<rect x="8.999" y="115.12" fill="none" width="82.001" height="16.458"/>
	</g>
</g>
<g>
	<g>
		<path fill="#F2F2F2" d="M146.482,243h84.788c4.184,0,7.605-3.422,7.605-7.605v-47.789c0-4.184-3.422-7.605-7.605-7.605h-84.788
			c-4.184,0-7.605,3.422-7.605,7.605v47.789C138.877,239.578,142.299,243,146.482,243z"/>
		<path fill="#C4C4C4" d="M231.271,243h-84.788c-4.184,0-7.605-3.422-7.605-7.605v3.699c0,4.184,3.422,7.605,7.605,7.605h84.788
			c4.184,0,7.605-3.422,7.605-7.605v-3.699C238.876,239.578,235.454,243,231.271,243z"/>
	</g>
	<g>
		<path fill-rule="evenodd" clip-rule="evenodd" fill="#241F20" d="M164.708,215.99c0.988-3.002,1.93-6.051,2.641-9.193
			c0.555,0,1.187,0.014,1.741,0.014l-0.21,1.186c1.408-0.912,2.335-1.148,3.258-1.072c3.337,0.271,1.542,4.656-0.221,5.709
			c-1.035,0.619-2.437,0.895-4.373,0.619c-0.229,0.912-0.456,1.826-0.684,2.738C166.143,215.99,165.425,215.99,164.708,215.99
			L164.708,215.99z M171.298,211.142c1.008-0.844,0.996-2.375,0.304-2.816c-0.689-0.439-2.253-0.088-2.763,1.17
			c-0.509,1.26-0.55,2.027-0.828,2.711C168.594,212.164,170.291,211.986,171.298,211.142L171.298,211.142z"/>
		<path fill-rule="evenodd" clip-rule="evenodd" fill="#241F20" d="M181.021,213.416c-0.628,0-1.177,0.014-1.804,0.014l0.116-1.359
			c-1.29,1.219-3.382,2.025-4.341,0.875c-1.314-1.795-0.069-4.131,1.411-5.09c1.646-1.064,3.828-1.01,6.003-1.055
			C181.628,208.964,181.104,211.183,181.021,213.416L181.021,213.416z M177.26,209.052c-0.875,0.844-0.866,2.377-0.264,2.816
			c0.601,0.439,1.961,0.09,2.403-1.17c0.442-1.258,0.479-2.025,0.721-2.711C179.613,208.031,178.136,208.208,177.26,209.052
			L177.26,209.052z"/>
		<path fill-rule="evenodd" clip-rule="evenodd" fill="#241F20" d="M181.735,216.041l0.315-1.678
			c1.403,0.453,2.62,0.672,3.534,0.213c0.712-0.355,1.24-1.123,1.531-2.506c-1.291,1.219-3.383,2.025-4.342,0.875
			c-1.313-1.795-0.068-4.131,1.412-5.09c1.645-1.064,3.827-1.01,6.002-1.055c-0.673,1.871-0.686,4.809-1.58,6.898
			c-0.472,1.104-1.266,1.813-2.215,2.217C185.005,216.509,183.281,216.455,181.735,216.041L181.735,216.041z M185.043,209.052
			c-0.876,0.844-0.866,2.377-0.265,2.816c0.601,0.439,1.961,0.09,2.404-1.17c0.442-1.258,0.479-2.025,0.721-2.711
			C187.396,208.031,185.919,208.208,185.043,209.052L185.043,209.052z"/>
		<path fill-rule="evenodd" clip-rule="evenodd" fill="#96C93D" d="M203.285,216.041l0.315-1.678
			c1.402,0.453,2.619,0.672,3.534,0.213c0.712-0.355,1.24-1.123,1.53-2.506c-1.289,1.219-3.382,2.025-4.34,0.875
			c-1.315-1.795-0.07-4.131,1.411-5.09c1.644-1.064,3.827-1.01,6.003-1.055c-0.675,1.871-0.688,4.809-1.581,6.898
			c-0.473,1.104-1.266,1.813-2.216,2.217C206.554,216.509,204.83,216.455,203.285,216.041L203.285,216.041z M227.558,209.609
			c-0.619,1.105-0.541,2.279,0.174,2.619c0.714,0.34,1.795-0.279,2.414-1.385c0.618-1.107,0.541-2.279-0.174-2.619
			S228.177,208.503,227.558,209.609L227.558,209.609z M227.006,207.64c-1.915,1.283-2.684,3.447-1.715,4.832
			s3.308,1.467,5.223,0.184c1.916-1.283,2.684-3.447,1.716-4.832C231.261,206.439,228.922,206.357,227.006,207.64L227.006,207.64z
			 M219.276,213.203c0.839-2.133,1.405-4.855,1.827-6.371h1.515l-0.052,1.357c0.661-0.914,1.863-1.418,3.082-1.357l-0.575,1.723
			c-1.516-0.199-2.583,1.014-3.173,3.018c-0.15,0.51-0.271,1.072-0.359,1.676L219.276,213.203L219.276,213.203z M213.165,206.779
			c0.626,0.018,1.254,0.035,1.88,0.053c-0.331,1.393-0.871,2.732-1.201,4.125c-0.49,1.695,1.53,1.518,2.401,0.471
			c0.777-1.365,1.125-3.004,1.621-4.648c0.626,0,1.253,0,1.88,0c-0.711,2.176-1.328,4.352-1.619,6.529
			c-0.558-0.035-1.219-0.07-1.776-0.105c0.018-0.348,0.035-0.695,0.053-1.045c-1.885,1.73-4.985,2.189-4.597-0.73
			C212.029,209.876,212.658,208.328,213.165,206.779L213.165,206.779z M202.457,211.898c-0.053,0.434-0.209,0.871-0.261,1.305
			c-2.028,0.279-4.205,0.748-5.328-0.836c-1.163-2.24,0.515-4.295,1.985-5.066c2.58-1.156,4.374-0.568,4.753,0.576
			c0.765,2.004-1.602,3.326-5.015,2.924C198.235,212.542,200.017,212.517,202.457,211.898L202.457,211.898z M198.919,209.574
			c0.314-0.697,0.849-1.404,1.933-1.541c0.853-0.082,0.943,0.816,0.442,1.162C200.383,209.587,200.282,209.05,198.919,209.574
			L198.919,209.574z M190.522,211.767c-0.21,0.453-0.444,0.932-0.653,1.385c2.552,0.555,4.504,0.219,5.275-0.602
			c0.752-0.928,0.626-1.979-0.679-2.742c-0.278-0.193-1.065-0.584-1.045-1.045c0.036-1.049,1.633-0.799,2.612-0.496l0.313-1.436
			c-0.685-0.16-1.554-0.207-2.252-0.139c-0.851,0.082-1.766,0.451-2.475,1.156c-0.551,0.572-0.665,1.344-0.463,1.813
			c0.242,0.563,1.028,0.799,1.429,1.033c0.671,0.313,1.07,0.549,0.956,1.023c-0.095,0.398-0.58,0.725-1.45,0.57
			C191.55,212.191,190.919,212,190.522,211.767L190.522,211.767z M206.593,209.052c-0.876,0.844-0.866,2.377-0.266,2.816
			c0.602,0.439,1.962,0.09,2.404-1.17c0.443-1.258,0.479-2.025,0.722-2.711C208.945,208.031,207.469,208.208,206.593,209.052
			L206.593,209.052z"/>
		<path fill-rule="evenodd" clip-rule="evenodd" fill="#241F20" d="M147.189,204.474c-0.653,0.768-1.146,1.641-1.506,2.596
			c-0.378,0.994-0.58,2.016-0.58,3.104c0,1.232,0.264,2.377,0.715,3.455c0.451,1.072,1.067,1.992,1.879,2.803
			c0.788,0.787,1.713,1.418,2.781,1.879c1.068,0.465,2.229,0.723,3.434,0.723c1.225,0,2.367-0.246,3.456-0.723
			c1.04-0.455,1.979-1.076,2.781-1.879c0.794-0.797,1.408-1.736,1.848-2.803c0.463-1.09,0.726-2.223,0.726-3.455
			c0-1.088-0.204-2.109-0.581-3.104c-0.369-0.955-0.857-1.809-1.506-2.596c-0.649-0.77-1.399-1.406-2.251-1.898
			c-1.337-0.771-2.716-1.232-4.314-1.232c-0.077,0-0.153,0-0.229,0c-1.578,0-3.022,0.451-4.382,1.232
			C148.6,203.064,147.841,203.708,147.189,204.474L147.189,204.474z"/>
		<path fill-rule="evenodd" clip-rule="evenodd" fill="#241F20" d="M226.574,214.974c-0.326,0-0.629,0.051-0.915,0.166
			c-0.284,0.117-0.533,0.275-0.745,0.49c-0.214,0.215-0.382,0.453-0.49,0.729c-0.115,0.277-0.167,0.58-0.167,0.906
			c0,0.311,0.052,0.613,0.167,0.893c0.108,0.262,0.276,0.514,0.49,0.729c0.223,0.203,0.47,0.371,0.756,0.486
			c0.275,0.107,0.586,0.17,0.904,0.17c0.33,0,0.624-0.063,0.919-0.17c0.274-0.115,0.53-0.283,0.745-0.486
			c0.222-0.215,0.382-0.467,0.498-0.74c0.115-0.275,0.169-0.568,0.169-0.881c0-0.326-0.054-0.629-0.169-0.906
			c-0.108-0.275-0.268-0.514-0.49-0.729c-0.211-0.215-0.47-0.373-0.753-0.49C227.207,215.025,226.904,214.974,226.574,214.974
			L226.574,214.974z M226.574,216.429c0.224,0,0.401,0.072,0.533,0.232c0.134,0.15,0.207,0.346,0.207,0.604
			c0,0.24-0.073,0.445-0.207,0.59c-0.132,0.148-0.31,0.221-0.533,0.221c-0.22,0-0.391-0.07-0.522-0.221
			c-0.143-0.145-0.206-0.35-0.206-0.59c0-0.258,0.063-0.453,0.206-0.604C226.184,216.501,226.354,216.429,226.574,216.429
			L226.574,216.429z"/>
		<path fill-rule="evenodd" clip-rule="evenodd" fill="#241F20" d="M223.536,218.201c0.036-0.207,0.052-0.461,0.052-0.775v-2.357
			h-1.564v2.377c0,0.266-0.027,0.453-0.099,0.57c-0.071,0.105-0.176,0.158-0.339,0.158c-0.159,0-0.266-0.053-0.335-0.158
			c-0.063-0.1-0.099-0.295-0.099-0.57v-2.377h-1.556v2.357c-0.009,0.33,0.019,0.58,0.054,0.775c0.033,0.203,0.105,0.363,0.185,0.498
			c0.18,0.275,0.419,0.479,0.721,0.621c0.295,0.15,0.641,0.223,1.03,0.223c0.394,0,0.732-0.072,1.032-0.223
			c0.302-0.143,0.544-0.346,0.712-0.621C223.417,218.564,223.489,218.396,223.536,218.201L223.536,218.201z"/>
		<polygon fill-rule="evenodd" clip-rule="evenodd" fill="#241F20" points="231.128,215.068 229.563,215.068 229.563,219.427 
			232.648,219.427 232.648,218.015 231.128,218.015 231.128,215.068 		"/>
		<path fill-rule="evenodd" clip-rule="evenodd" fill="#FBAA19" d="M159.799,204.546c-1.091-1.326-2.503-2.18-4.246-2.51
			c-1.711-0.322-3.332-0.063-4.866,0.77c-0.788,0.443-1.455,0.996-1.992,1.648c-0.552,0.666-0.976,1.432-1.248,2.293
			c-0.279,0.881-0.351,1.807-0.257,2.709c0.229-0.58,0.58-1.111,0.996-1.619c0.603-0.719,1.348-1.256,2.18-1.65
			c0.83-0.371,1.741-0.58,2.688-0.602c0.952,0,1.878,0.188,2.736,0.561c0.904,0.365,1.693,0.924,2.365,1.67
			c0.252,0.252,0.461,0.551,0.667,0.852c0.301,0,0.603,0.021,0.861,0.094c0.673,0.188,1.205,0.531,1.62,1.047l0.02-0.33
			c0.074-0.904-0.02-1.756-0.27-2.594C160.793,206.052,160.377,205.263,159.799,204.546L159.799,204.546z"/>
		<path fill-rule="evenodd" clip-rule="evenodd" fill="#FBAA19" d="M147.002,212.89c0.114,0.695,0.323,1.361,0.672,1.971
			c0.325,0.602,0.769,1.154,1.32,1.643l0.28,0.229c0.953,0.652,1.97,1.117,3.083,1.348c0.718,0.137,1.44,0.094,2.136-0.072
			c0.737-0.158,1.435-0.457,2.087-0.902c-0.604-0.137-1.141-0.459-1.558-0.945l-0.164-0.188c-0.874,0.094-1.756,0.064-2.638-0.115
			c-1.119-0.256-2.086-0.723-2.989-1.369c-0.861-0.652-1.577-1.484-2.115-2.457l-0.136-0.279
			C146.958,212.123,146.958,212.517,147.002,212.89L147.002,212.89z"/>
		<path fill-rule="evenodd" clip-rule="evenodd" fill="#EC3C24" d="M155.252,207.048c-0.81-0.35-1.692-0.51-2.595-0.51
			c-0.882,0.021-1.714,0.209-2.48,0.58c-0.767,0.346-1.432,0.855-1.991,1.508c-0.396,0.486-0.718,1.018-0.925,1.576
			c0.158,0.695,0.413,1.34,0.788,1.992c0.531,0.902,1.226,1.67,2.086,2.271c0.832,0.602,1.785,0.996,2.802,1.225
			c0.623,0.115,1.276,0.166,1.922,0.137c-0.251-0.414-0.416-0.852-0.487-1.361c-0.086-0.514-0.064-1.023,0.028-1.576
			c0.114-0.674,0.366-1.297,0.715-1.879c0.375-0.58,0.862-1.109,1.435-1.533c0.374-0.271,0.769-0.479,1.163-0.645l-0.209-0.236
			C156.851,207.931,156.112,207.392,155.252,207.048L155.252,207.048z"/>
		<path fill-rule="evenodd" clip-rule="evenodd" fill="#F6891F" d="M161.445,211.011l-0.207-0.35
			c-0.302,1.045-0.861,1.973-1.577,2.811c-0.165,0.693-0.444,1.316-0.81,1.898c-0.373,0.572-0.861,1.09-1.42,1.527
			c0.395,0.02,0.789-0.043,1.184-0.188c0.371-0.137,0.715-0.344,1.067-0.625c0.467-0.436,0.904-0.951,1.276-1.482l0.063-0.092
			c0.165-0.346,0.331-0.695,0.443-1.02c0.116-0.352,0.188-0.695,0.21-1.016c0.021-0.354,0.021-0.654-0.043-0.955
			C161.582,211.335,161.511,211.171,161.445,211.011L161.445,211.011z"/>
		<path fill-rule="evenodd" clip-rule="evenodd" fill="#F26622" d="M146.191,206.933c-0.302,0.834-0.465,1.713-0.508,2.668
			c-0.021,1.225,0.206,2.408,0.674,3.52c0.228,0.529,0.509,1.045,0.852,1.533c0.332,0.459,0.696,0.902,1.111,1.289
			c-0.901-0.996-1.435-2.148-1.597-3.445c-0.044-0.445-0.044-0.861-0.022-1.299c-0.3-0.84-0.466-1.67-0.466-2.531
			c0-0.809,0.143-1.598,0.394-2.408c0.215-0.559,0.487-1.09,0.79-1.576C146.886,205.38,146.494,206.125,146.191,206.933
			L146.191,206.933z"/>
		<path fill-rule="evenodd" clip-rule="evenodd" fill="#F26622" d="M162.02,207.421c-0.209-0.674-0.479-1.326-0.832-1.928
			c-0.344-0.582-0.768-1.113-1.274-1.598c-0.46-0.49-0.997-0.904-1.6-1.256c0.508,0.352,0.974,0.766,1.391,1.232
			c0.651,0.738,1.14,1.527,1.44,2.408c0.301,0.904,0.438,1.836,0.366,2.805c-0.021,0.301-0.065,0.58-0.114,0.881
			c0.114,0.186,0.236,0.414,0.33,0.65c0.228,0.676,0.271,1.393,0.156,2.109c0.352-0.996,0.53-2.045,0.509-3.125
			C162.348,208.855,162.234,208.117,162.02,207.421L162.02,207.421z"/>
		<path fill-rule="evenodd" clip-rule="evenodd" fill="#F26622" d="M159.287,209.623c0.229,0.486,0.374,1.018,0.438,1.549
			c0.074,0.535,0.094,1.045,0.051,1.555l-0.093,0.508c0.694-0.809,1.161-1.713,1.435-2.76c-0.158-0.156-0.324-0.322-0.511-0.457
			C160.233,209.757,159.799,209.623,159.287,209.623L159.287,209.623z"/>
		<path fill-rule="evenodd" clip-rule="evenodd" fill="#EC3C24" d="M157.898,215.736c0.279-0.395,0.508-0.83,0.674-1.27
			c-0.934,0.668-1.949,1.135-3.061,1.361c0.157,0.258,0.371,0.467,0.601,0.633c0.23,0.156,0.487,0.271,0.788,0.365
			C157.274,216.503,157.617,216.128,157.898,215.736L157.898,215.736z"/>
		<path fill-rule="evenodd" clip-rule="evenodd" fill="#EC3C24" d="M153.236,218.216l1,0.049c0.858-0.021,1.667-0.186,2.457-0.443
			c0.738-0.252,1.461-0.604,2.087-1.041c-0.396,0.188-0.812,0.324-1.255,0.346c-0.137,0.027-0.302,0.027-0.459,0.027
			C155.928,217.894,154.648,218.244,153.236,218.216L153.236,218.216z"/>
		<path fill-rule="evenodd" clip-rule="evenodd" fill="#FDEB03" d="M158.758,211.5c-0.143-0.602-0.352-1.16-0.652-1.691
			c-0.531,0.158-0.996,0.438-1.434,0.809c-0.467,0.395-0.86,0.883-1.16,1.436c-0.26,0.559-0.417,1.088-0.467,1.648
			c-0.064,0.529,0,1.018,0.143,1.482c0.064,0.158,0.115,0.301,0.209,0.438c0.58-0.064,1.109-0.229,1.641-0.459
			c0.559-0.215,1.068-0.508,1.556-0.881l0.043-0.029c0.095-0.344,0.165-0.693,0.216-1.039
			C158.893,212.634,158.872,212.08,158.758,211.5L158.758,211.5z"/>
	</g>
</g>
<g>
	<g>
		<path fill="#E72B2B" d="M7.615,332.999h84.789c4.184,0,7.605-3.422,7.605-7.605v-47.79c0-4.182-3.422-7.605-7.605-7.605H7.615
			c-4.182,0-7.605,3.424-7.605,7.605v47.79C0.01,329.577,3.434,332.999,7.615,332.999z"/>
		<path fill="#BF242A" d="M92.404,332.999H7.615c-4.182,0-7.605-3.422-7.605-7.605v3.699c0,4.184,3.424,7.607,7.605,7.607h84.789
			c4.184,0,7.605-3.424,7.605-7.607v-3.699C100.01,329.577,96.588,332.999,92.404,332.999z"/>
	</g>
	<g>
		<path fill="#FFFFFE" d="M49.453,287.742c0,4.238,7.21,8.94,7.21,13.78c0,0,0,0.465-0.201,0.966
			c6.735,1.398,11.506,4.703,11.506,8.571c0,5.205-8.508,9.475-19.048,9.512c-0.068,0.031-0.131,0-0.2,0
			c-10.439,0-18.911-4.139-18.911-9.311c0-3.869,5.168-7.005,11.405-8.672c0,2.138,7.11,8.908,7.273,11.639
			c0,0,0.032,0.236,0.032,0.506c0,0.131,0,0.264-0.032,0.396c1.536-0.797,1.536-3.299,1.536-3.299c0-5.938-6.909-8.577-6.909-14.414
			c0-2.265,1.071-3.938,2.038-4.401v1.635c0,4.232,7.473,8.975,7.473,12.841v1.268c1.731-0.666,1.731-3.837,1.731-3.837
			c0-5.336-6.936-8.303-6.936-14.409c0-2.27,1.066-3.937,2.032-4.401V287.742z"/>
	</g>
</g>
<g>
	<g>
		<path fill="#FCEE23" d="M285.35,243h84.788c4.184,0,7.605-3.422,7.605-7.605v-47.79c0-4.183-3.422-7.605-7.605-7.605H285.35
			c-4.184,0-7.605,3.423-7.605,7.605v47.79C277.744,239.579,281.166,243,285.35,243z"/>
		<path fill="#BFB331" d="M370.138,243H285.35c-4.184,0-7.605-3.422-7.605-7.605v3.699c0,4.184,3.422,7.605,7.605,7.605h84.788
			c4.184,0,7.605-3.422,7.605-7.605v-3.699C377.743,239.579,374.321,243,370.138,243z"/>
	</g>
	<g>
		<path fill="#0361AA" d="M310.902,225.51l3.509-2.338l3.509,2.338l-7.018,4.678V225.51L310.902,225.51L310.902,225.51z
			 M344.582,201.188l-3.508,2.337l-3.508-2.337l7.016-4.677V201.188L344.582,201.188L344.582,201.188z M344.582,218.961
			l-16.838,11.227l-16.842-11.227l20-13.332l3.509,2.34l-16.141,10.76l9.824,6.547l4.561-3.041l-3.509-2.338l8.42-5.615
			L344.582,218.961L344.582,218.961L344.582,218.961z M310.902,207.736l16.842-11.225l16.842,11.225l-20,13.331l-3.509-2.338
			l16.14-10.76l-9.823-6.549l-4.561,3.04l3.507,2.339l-8.42,5.615L310.902,207.736L310.902,207.736L310.902,207.736z"/>
	</g>
</g>
<g>
	<g>
		<path fill="#F2F2F2" d="M285.339,153h84.789c4.184,0,7.605-3.422,7.605-7.605v-47.79c0-4.183-3.422-7.605-7.605-7.605h-84.789
			c-4.183,0-7.605,3.423-7.605,7.605v47.79C277.734,149.579,281.157,153,285.339,153z"/>
		<path fill="#C4C4C4" d="M370.128,153h-84.789c-4.183,0-7.605-3.422-7.605-7.605v3.699c0,4.184,3.423,7.605,7.605,7.605h84.789
			c4.184,0,7.605-3.422,7.605-7.605v-3.699C377.733,149.579,374.312,153,370.128,153z"/>
	</g>
	<g>
		<g>
			<path fill-rule="evenodd" clip-rule="evenodd" fill="#127DC2" d="M298.895,145.621h0.547c2.413,0,5.096-0.939,5.096-3.775
				c0-1.763-1.189-3.085-2.971-3.315v-0.038c1.4-0.44,2.339-1.475,2.339-2.989c0-2.95-2.587-3.448-4.963-3.448h-0.048v2.528h0.009
				c0.939,0,2.013,0.287,2.013,1.419c0,1.092-0.958,1.475-1.877,1.475h-0.144v2.53h0.24c0.978,0,2.413,0.21,2.413,1.494
				c0,1.188-1.054,1.591-1.993,1.591h-0.66V145.621z M293.884,145.621h5.011v-2.529h-2.022v-3.085l0,0h2.022v-2.53h-2.022v-2.894
				l0,0h2.022v-2.528h-5.011V145.621z"/>
			<path fill-rule="evenodd" clip-rule="evenodd" fill="#127DC2" d="M311.781,145.621h2.646v-4.733c0-3.104-0.901-4.81-4.255-4.81
				c-0.053,0-0.108,0.001-0.162,0.002v1.953c0.967,0.029,1.771,0.674,1.771,1.666c-0.534,0-1.146,0.003-1.771,0.044v1.854
				c0.397-0.051,0.784-0.058,1.063-0.058h0.708l0,0v0.612c0,1.008-0.809,1.589-1.771,1.716v1.821c0.703-0.2,1.326-0.596,1.734-1.238
				h0.037V145.621z M310.01,136.08c-1.46,0.035-2.922,0.532-3.939,1.493l1.533,1.571c0.614-0.69,1.4-1.112,2.339-1.112
				c0.023,0,0.044,0.001,0.067,0.001V136.08L310.01,136.08z M310.01,139.743c-2.175,0.14-4.532,0.733-4.532,3.232
				c0,1.879,1.57,2.875,3.314,2.875c0.416,0,0.829-0.052,1.217-0.161v-1.821c-0.137,0.019-0.273,0.028-0.414,0.028
				c-0.631,0-1.361-0.326-1.361-1.017c0-0.864,0.914-1.173,1.774-1.282V139.743z"/>
			<path fill-rule="evenodd" clip-rule="evenodd" fill="#127DC2" d="M316.017,145.621h2.875v-4.638c0-1.208,0.23-2.376,1.725-2.376
				c1.476,0,1.494,1.38,1.494,2.452v4.562h2.875v-5.137c0-2.49-0.536-4.406-3.449-4.406c-1.398,0-2.337,0.767-2.721,1.495h-0.039
				v-1.266h-2.759V145.621z"/>
			<path fill-rule="evenodd" clip-rule="evenodd" fill="#127DC2" d="M326.601,145.621h2.874v-3.89c0-1.859,0.268-3.124,2.452-3.124
				c0.422,0,0.825,0.076,1.228,0.191v-2.625c-0.27-0.076-0.634-0.096-0.96-0.096c-1.264,0-2.069,0.594-2.681,1.725h-0.039v-1.495
				h-2.874V145.621z"/>
			<path fill-rule="evenodd" clip-rule="evenodd" fill="#127DC2" d="M334.644,145.621h2.874v-9.313h-2.874V145.621L334.644,145.621z
				 M334.414,133.375L334.414,133.375c0,0.92,0.747,1.667,1.666,1.667c0.921,0,1.668-0.747,1.668-1.667s-0.747-1.667-1.668-1.667
				C335.161,131.708,334.414,132.456,334.414,133.375z"/>
			<path fill-rule="evenodd" clip-rule="evenodd" fill="#127DC2" d="M346.441,137.304c-0.862-0.92-2.224-1.227-3.449-1.227
				c-1.956,0-3.909,0.958-3.909,3.143c0,3.544,4.848,2.28,4.848,3.774c0,0.498-0.651,0.671-1.303,0.671
				c-0.862,0-1.495-0.364-2.031-1.016l-1.744,1.935c0.921,0.94,2.356,1.266,3.66,1.266c1.993,0,4.293-0.69,4.293-3.066
				c0-3.544-4.849-2.376-4.849-3.756c0-0.555,0.575-0.767,1.055-0.767c0.688,0,1.245,0.269,1.666,0.786L346.441,137.304z"/>
			<path fill-rule="evenodd" clip-rule="evenodd" fill="#127DC2" d="M357.057,136.307h-2.875v4.638c0,1.207-0.23,2.376-1.725,2.376
				c-1.477,0-1.494-1.38-1.494-2.452v-4.562h-2.875v5.136c0,2.491,0.536,4.407,3.448,4.407c1.399,0,2.339-0.767,2.722-1.495h0.039
				v1.266h2.76V136.307z"/>
			<rect x="358.71" y="131.133" fill-rule="evenodd" clip-rule="evenodd" fill="#127DC2" width="2.875" height="14.487"/>
		</g>
		<g>
			<path fill="#127DC2" d="M327.6,108.615h7.848c0,0.275-0.071,0.547-0.211,0.763l-2,3.09h-4.248c-0.62,0-1.009,0.289-1.358,0.859
				l-0.03,0.05l0.03-0.05l0,0c-0.011,0.014-0.02,0.029-0.03,0.045V108.615L327.6,108.615z M327.6,127.984L327.6,127.984
				c0.265-0.012,0.717-0.172,0.858-0.426l4.235-6.54c0.137-0.23,0.209-0.462,0.229-0.686h9.478l0,0c-0.02,0.256-0.104,0.5-0.238,0.7
				l-4.24,6.551c-0.176,0.265-0.532,0.4-0.764,0.4H327.6L327.6,127.984z M327.6,121.123l0.069-0.105
				c0.129-0.198,0.207-0.438,0.226-0.685l0,0H327.6V121.123z M327.6,113.378l-0.03,0.046l-1.888,2.942h-4.711h-0.142
				c-0.229,0-0.41-0.054-0.575-0.167c0.248,0.166,0.713,0.128,1.061-0.306l4.415-6.472c0.163-0.272,0.237-0.543,0.241-0.805h1.629
				v4.757c-0.011,0.017-0.02,0.034-0.03,0.051L327.6,113.378L327.6,113.378L327.6,113.378L327.6,113.378z M327.6,120.333v0.791
				l-4.189,6.469c-0.185,0.263-0.515,0.392-0.76,0.392h-9.587c0.252,0,0.692-0.139,0.886-0.42l4.235-6.539
				c0.147-0.244,0.22-0.476,0.238-0.693H327.6L327.6,120.333z M327.6,127.983l-0.028,0.001L327.6,127.983L327.6,127.983z"/>
			<path fill="#18BEF0" d="M327.765,119.6c0.108,0.228,0.149,0.485,0.13,0.733h-0.13V119.6L327.765,119.6z M327.765,113.177
				c0.315-0.271,0.77-0.208,1.048,0.264l3.883,5.994c0.168,0.254,0.257,0.566,0.227,0.898h9.478c0.022-0.309-0.05-0.634-0.239-0.918
				l-4.236-6.541c-0.191-0.271-0.521-0.405-0.767-0.405l0,0h-3.921h-4.248c-0.541,0-0.908,0.221-1.224,0.656V113.177
				L327.765,113.177z M327.765,108.615v-7.765h2.44c0.221,0,0.556,0.099,0.775,0.415l4.252,6.565
				c0.144,0.229,0.215,0.509,0.215,0.785l0,0H327.765z M313.117,112.47l4.476-0.002c1.973,2.906,1.973,2.907,1.973,2.907
				c0.261,0.397,0.461,0.666,0.688,0.823c0.165,0.113,0.346,0.167,0.575,0.167h0.142h4.711l1.992,3.074
				c0.036,0.051,0.065,0.105,0.091,0.16v0.733h-9.342c0.027-0.337-0.076-0.639-0.23-0.896l-4.255-6.569
				C313.798,112.646,313.376,112.49,313.117,112.47L313.117,112.47z M327.765,100.85v7.765h-1.794
				c0.002-0.29-0.085-0.567-0.241-0.82l-4.223-6.523c-0.187-0.281-0.634-0.422-0.884-0.422H327.765L327.765,100.85z
				 M327.765,113.124c-0.046,0.063-0.091,0.131-0.135,0.203c0.041-0.058,0.087-0.107,0.135-0.15V113.124z"/>
		</g>
	</g>
</g>
<g>
	<g>
		<path fill="#F58220" d="M146.483,333h84.787c4.184,0,7.605-3.422,7.605-7.605v-47.79c0-4.183-3.422-7.605-7.605-7.605h-84.787
			c-4.184,0-7.605,3.423-7.605,7.605v47.79C138.878,329.579,142.3,333,146.483,333z"/>
		<path fill="#BF6128" d="M231.271,333h-84.787c-4.184,0-7.605-3.422-7.605-7.605v3.699c0,4.184,3.422,7.605,7.605,7.605h84.787
			c4.184,0,7.605-3.422,7.605-7.605v-3.699C238.876,329.579,235.454,333,231.271,333z"/>
	</g>
	<g>
		<path fill-rule="evenodd" clip-rule="evenodd" fill="#2E3192" d="M178.198,286.499l21.414,0.014c3.367,0,6.129,2.775,6.115,6.145
			v21.414c0,3.369-2.762,6.13-6.143,6.13l-21.43-0.013c-3.369-0.015-6.129-2.762-6.129-6.145l0.027-21.414
			C172.054,289.26,174.815,286.485,178.198,286.499L178.198,286.499z"/>
		<path fill-rule="evenodd" clip-rule="evenodd" fill="#FFF200" d="M200.993,301.866h-2.445l-1.008,1.919h1.713L200.993,301.866
			L200.993,301.866z M202.608,304.986h-2.375v5.137c0,1.573-1.064,2.016-1.838,2.016c-0.744,0-1.559-0.275-1.545-1.644v-5.509
			h-2.389l-0.014,5.854c0,2.264,1.297,3.272,3.092,3.272c1.242,0.014,2.209-0.539,2.748-1.491h0.027v1.242h2.293V304.986
			L202.608,304.986z"/>
		<path fill-rule="evenodd" clip-rule="evenodd" fill="#FFF200" d="M192.599,307.333c0-2.195-2.307-2.596-3.59-2.596
			c-1.865,0-3.783,0.4-4.074,3.121h2.305c0.07-0.525,0.291-1.244,1.479-1.244c0.607,0,1.574,0.056,1.574,1.037
			c0,0.496-0.469,0.648-0.855,0.703l-2.141,0.318c-1.52,0.207-2.65,1.104-2.65,2.844c0,1.836,1.408,2.596,2.76,2.596
			c1.631,0,2.404-0.746,2.928-1.284c0.055,0.483,0.098,0.607,0.234,1.035l2.045-0.014c0-0.98-0.014-1.698-0.014-1.712V307.333
			L192.599,307.333z"/>
		<path fill-rule="evenodd" clip-rule="evenodd" fill="#FFF200" d="M182.45,301.866h-2.375v3.106h-1.229v1.671h1.215v5.398
			c0,1.146,0.373,1.934,2.43,1.934h0.318c0.371,0,0.758-0.028,1.117-0.042v-1.781c-0.166,0.014-0.346,0.042-0.498,0.042
			c-0.965,0-0.992-0.193-0.992-0.732l0.014-4.818h1.49v-1.671h-1.49V301.866L182.45,301.866z"/>
		<polygon fill-rule="evenodd" clip-rule="evenodd" fill="#FFF200" points="177.741,301.852 175.173,301.852 175.159,313.85 
			177.728,313.85 177.741,301.852 		"/>
		<path fill-rule="evenodd" clip-rule="evenodd" fill="#2E3192" d="M190.292,310.688v-1.146c-0.248,0.18-0.648,0.332-1.629,0.47
			c-0.898,0.151-1.629,0.386-1.629,1.354c0,0.8,0.662,1.063,1.117,1.063C189.202,312.428,190.292,311.765,190.292,310.688
			L190.292,310.688z"/>
	</g>
</g>
<g>
	<g>
		<path fill="#F2F2F2" d="M285.351,333h84.787c4.184,0,7.605-3.422,7.605-7.605v-47.789c0-4.184-3.422-7.605-7.605-7.605h-84.787
			c-4.184,0-7.605,3.422-7.605,7.605v47.789C277.745,329.579,281.167,333,285.351,333z"/>
		<path fill="#C4C4C4" d="M370.138,333h-84.787c-4.184,0-7.605-3.422-7.605-7.605v3.699c0,4.184,3.422,7.605,7.605,7.605h84.787
			c4.184,0,7.605-3.422,7.605-7.605v-3.699C377.743,329.579,374.321,333,370.138,333z"/>
	</g>
	<g>
		<path fill="#55565A" d="M347.679,323.754c0.089,0.232,0.312,0.857,0.797,1.514c-0.116,0.057-0.393,0.185-0.563,0.252
			c0,0-0.783,0.33-1.804,0.328c-2.11,0-3.719-1.427-3.719-3.88c0-2.468,1.608-3.898,3.719-3.898c0.591,0,1.118,0.118,1.585,0.329
			v-0.003c0.309,0.15,0.54,0.296,0.678,0.395c-0.347,0.462-0.623,1.021-0.788,1.609c-0.349-0.236-0.72-0.37-1.251-0.371
			c-0.956-0.001-1.661,0.697-1.661,1.98c0,1.178,0.844,1.907,1.796,1.914c0.496,0.002,0.853-0.146,1.052-0.254
			c0.035-0.01,0.078-0.037,0.103-0.045C347.635,323.621,347.645,323.673,347.679,323.754 M299.314,325.677h3.811
			c1.533,0,3.338-0.499,3.338-2.881c0-1.214-0.59-1.928-1.729-2.2v-0.027c0.957-0.37,1.509-1.068,1.509-2.326
			c0-1.712-1.189-2.525-2.786-2.525h-4.142V325.677z M301.598,321.454h0.9c0.786,0,1.683,0.1,1.683,1.184
			c0,1.013-0.873,1.157-1.706,1.157h-0.877V321.454z M301.598,317.601h0.865c0.761,0,1.497,0.085,1.497,0.999
			c0,0.84-0.774,1.055-1.523,1.055h-0.839V317.601z M327.435,315.691h-2.22v3.508h-0.025c-0.564-0.857-1.313-1.129-2.195-1.129
			c-1.768,0-2.738,1.928-2.738,3.755c0,2.197,1.019,4.025,2.92,4.025c0.941,0,1.767-0.464,2.198-1.29h0.022v1.117h2.038V315.691z
			 M323.876,323.879c-0.834,0-1.338-0.813-1.338-1.998c0-0.983,0.479-1.838,1.338-1.838c0.81,0,1.351,0.81,1.351,1.937
			C325.227,323.066,324.612,323.879,323.876,323.879 M348.735,321.968c0,2.453,1.607,3.882,3.72,3.882
			c2.11,0,3.719-1.429,3.719-3.882c0-2.468-1.608-3.898-3.719-3.898C350.343,318.07,348.735,319.5,348.735,321.968 M353.891,321.968
			c0,1.098-0.419,2.083-1.436,2.083c-1.019,0-1.436-0.985-1.436-2.083c0-1.115,0.417-2.097,1.436-2.097
			C353.472,319.872,353.891,320.853,353.891,321.968 M317.07,325.677v-0.981c-0.406,0.755-1.127,1.154-1.962,1.154
			c-1.264,0-2.395-0.729-2.395-2.341c0-2.271,2.124-2.542,3.302-2.542c0.357,0,0.749,0.044,1.032,0.102
			c-0.014-1.015-0.663-1.286-1.46-1.286c-0.711,0-1.425,0.159-2.038,0.558v-0.02v-1.738c0.773-0.357,1.584-0.513,2.515-0.513
			c1.633,0,3.046,0.815,3.046,3.084v2.77c0,0.585,0.023,1.167,0.121,1.754H317.07z M317.061,322.333
			c-0.283-0.013-0.615-0.042-0.945-0.042c-0.749,0-1.339,0.272-1.339,0.985c0,0.513,0.394,0.813,0.908,0.813
			c0.602,0,1.084-0.262,1.376-0.771V322.333z M311.638,318.07c-0.959,0-1.511,0.601-1.893,1.541h-0.022v-1.368h-2.013v7.435h2.209
			v-3.14c0-1.454,0.569-2.33,1.6-2.403c0.213-0.016,0.566,0.046,0.757,0.12v-2.07C312.088,318.118,311.836,318.07,311.638,318.07
			 M335.227,322.709h-4.416c0.122,1.026,0.797,1.427,1.878,1.427c0.602,0,1.288-0.156,1.951-0.569v1.813
			c-0.712,0.325-1.522,0.471-2.346,0.471c-2.109,0-3.718-1.442-3.718-3.897c0-2.452,1.436-3.883,3.425-3.883
			c2.369,0,3.226,1.957,3.226,4.169V322.709z M333.239,321.254c0-0.856-0.343-1.555-1.227-1.555c-0.797,0-1.178,0.698-1.228,1.555
			H333.239z M338.94,318.07c-1.273,0-2.725,0.701-2.725,2.415c0,2.681,3.144,1.797,3.144,3.054c0,0.513-0.442,0.597-0.896,0.597
			c-0.796,0-1.561-0.256-2.074-0.514v1.771c0.584,0.237,1.265,0.457,2.197,0.457c1.448,0,2.983-0.5,2.983-2.484
			c0-2.825-3.292-1.912-3.292-3.068c0-0.414,0.543-0.524,1.021-0.515c0.51,0.014,1.297,0.227,1.764,0.555v-1.824
			C340.387,318.225,339.652,318.07,338.94,318.07"/>
		<g>
			<rect x="312.803" y="280.85" fill="#CF0A2C" width="29.883" height="29.882"/>
			<rect x="324.925" y="298.994" fill="#FFFFFF" width="1.471" height="7.538"/>
			<rect x="327.734" y="296.184" fill="#FFFFFF" width="2.41" height="10.348"/>
			<path fill="#FFFFFF" d="M323.605,288.977c0,0,2.43-2.375,6.523-1.594c0,0,1.802,0.281,3.184,1.508c0,0,0.205,0.193,0.362,0.035
				c0,0,0.2-0.158-0.022-0.393c0,0-1.188-1.647-3.53-2.375c0,0-3.22-1.152-6.528,0.404c0,0-2.035,0.844-3.165,3.143
				c0,0-1.609,0.521-2.816,1.197c0,0-0.357,0.141-0.222,0.418c0,0,0.115,0.199,0.428,0.051c0,0,1.12-0.386,2.2-0.627
				c0,0-0.868,2.252,0.039,5.049c0.403,1.245,1.14,2.513,2.266,3.531c0,0,0.184,0.192,0.384,0.061c0,0,0.174-0.125,0.051-0.332
				c0,0-0.897-1.351-1.246-3.271c-0.29-1.568-0.153-3.731,0.936-5.447c0,0,4.142-0.577,7.674,0.752c0,0,5.998,1.957,4.487,5.588
				c0,0-0.438,1.262-2.094,2.401c0,0-0.277,0.162-0.127,0.394c0,0,0.125,0.18,0.409,0.064c0,0,2.535-0.825,3.63-2.861
				c0,0,2.22-3.397-3.016-6.169c0,0-1.438-0.77-3.289-1.181C330.122,289.323,326.788,288.499,323.605,288.977"/>
		</g>
	</g>
</g>
</svg>
