<?xml version="1.0" encoding="utf-8"?>
<!-- Generator: Adobe Illustrator 16.0.0, SVG Export Plug-In . SVG Version: 6.00 Build 0)  -->
<!DOCTYPE svg PUBLIC "-//W3C//DTD SVG 1.1//EN" "http://www.w3.org/Graphics/SVG/1.1/DTD/svg11.dtd">
<svg version="1.1" id="Layer_1" xmlns="http://www.w3.org/2000/svg" xmlns:xlink="http://www.w3.org/1999/xlink" x="0px" y="0px"
	 width="600px" height="400px" viewBox="0 0 600 400" enable-background="new 0 0 600 400" xml:space="preserve">
<g>
	<path fill="none" d="M395.226,276.055"/>
</g>
<rect x="532.778" y="238.191" fill="#3499CD" stroke="#304E7B" stroke-width="3" stroke-miterlimit="10" width="13.428" height="19.183"/>
<g>
	<g>
		<path fill="none" stroke="#304E7B" stroke-width="2" stroke-miterlimit="10" d="M549.046,267.706
			c-5.282,5.28-13.831,5.28-19.112,0"/>
		<path fill="none" stroke="#304E7B" stroke-width="2" stroke-miterlimit="10" d="M546.547,265.206
			c-3.9,3.899-10.214,3.899-14.114,0"/>
		<path fill="none" stroke="#304E7B" stroke-width="2" stroke-miterlimit="10" d="M543.621,262.516
			c-2.282,2.282-5.979,2.282-8.263,0"/>
	</g>
</g>
<g>
	<polygon stroke="#171718" stroke-width="13.1023" stroke-miterlimit="10" points="128.266,319.875 30,319.875 87.225,230.375 
		365.841,230.375 423.067,319.875 324.8,320 	"/>
	<g>
		<polygon stroke="#171718" stroke-width="6.2712" stroke-linecap="round" stroke-linejoin="round" stroke-miterlimit="10" points="
			191.171,80 215.911,156.143 151.14,127.647 86.369,156.143 111.11,80 		"/>
		<path id="rect3330_19_" fill="#70C599" d="M169.291,107.744l-1.758,1.755c-1.592,1.595-4.174,1.595-5.768,0l-1.758-1.755
			c-1.592-1.594-1.594-4.177,0-5.771l1.758-1.756c1.593-1.592,4.176-1.595,5.771,0l1.755,1.754
			C170.885,103.568,170.882,106.15,169.291,107.744z"/>
		<path id="rect3330_18_" fill="#3499CD" d="M179.326,97.71l-1.756,1.755c-1.594,1.592-4.176,1.594-5.77-0.002l-1.756-1.755
			c-1.594-1.593-1.594-4.175-0.002-5.768l1.757-1.758c1.594-1.593,4.177-1.593,5.771,0l1.756,1.758
			C180.919,93.532,180.917,96.117,179.326,97.71z"/>
		<path id="rect3330_14_" fill="#EF3C68" d="M189.361,107.744l-1.757,1.755c-1.592,1.595-4.175,1.595-5.769,0l-1.757-1.755
			c-1.592-1.594-1.592-4.177,0-5.771l1.757-1.755c1.594-1.594,4.177-1.594,5.771,0l1.756,1.755
			C190.953,103.567,190.953,106.153,189.361,107.744z"/>
		<path id="rect3330_6_" fill="#FFCE0E" d="M179.326,117.778l-1.756,1.757c-1.594,1.592-4.176,1.592-5.77,0l-1.756-1.757
			c-1.594-1.594-1.594-4.176-0.002-5.768l1.758-1.758c1.593-1.593,4.176-1.593,5.77,0l1.756,1.758
			C180.919,113.603,180.919,116.187,179.326,117.778z"/>
		
			<line fill="none" stroke="#FFFFFF" stroke-width="6.2712" stroke-linecap="round" stroke-miterlimit="10" x1="126.369" y1="93.819" x2="126.369" y2="114.048"/>
		
			<line fill="none" stroke="#FFFFFF" stroke-width="6.2712" stroke-linecap="round" stroke-miterlimit="10" x1="136.483" y1="103.934" x2="116.254" y2="103.934"/>
	</g>
	<g>
		<path d="M365.51,117.805c0.485,17.732-9.945,37.67-29.676,38.155c-19.729-0.484-30.162-20.422-29.677-38.155
			c-0.485-17.734,9.948-37.67,29.677-38.155C355.564,80.135,365.995,100.071,365.51,117.805z"/>
		
			<path fill="none" stroke="#171718" stroke-width="5.2344" stroke-linecap="round" stroke-linejoin="round" stroke-miterlimit="10" d="
			M365.51,117.805c0.485,17.732-9.945,37.67-29.676,38.155c-19.729-0.484-30.162-20.422-29.677-38.155
			c-0.485-17.734,9.948-37.67,29.677-38.155C355.564,80.135,365.995,100.071,365.51,117.805z"/>
	</g>
	
		<line fill="none" stroke="#FFFFFF" stroke-width="6.2712" stroke-linecap="round" stroke-miterlimit="10" x1="335.834" y1="91.415" x2="335.834" y2="111.645"/>
</g>
<g>
	<g>
		
			<rect x="489.768" y="131.024" fill="#FFFFFF" stroke="#9A2747" stroke-width="5.0128" stroke-miterlimit="10" width="76.926" height="104.615"/>
		
			<line fill="none" stroke="#EF3C68" stroke-width="5.0128" stroke-miterlimit="10" x1="485.922" y1="128.333" x2="570.537" y2="128.333"/>
		
			<line fill="none" stroke="#EF3C68" stroke-width="5.0128" stroke-miterlimit="10" x1="485.922" y1="238.333" x2="570.537" y2="238.333"/>
	</g>
	<g>
		<polygon fill="#3499CD" points="528.229,183.333 540.252,190.545 552.268,197.756 540.248,204.968 528.229,212.181 
			528.229,197.756 		"/>
		<polygon fill="#996699" points="552.268,168.91 540.262,176.121 528.229,183.333 540.248,190.545 552.268,197.756 
			552.268,183.333 		"/>
		<polygon fill="#F8993A" points="528.231,154.486 516.21,161.698 504.19,168.91 516.211,176.121 528.231,183.333 528.231,168.91 		
			"/>
		<polygon fill="#EF3C68" points="528.229,154.486 540.248,161.698 552.268,168.91 540.248,176.121 528.229,183.333 528.229,168.91 
					"/>
		<polygon fill="#FFCE0E" points="528.231,183.333 516.21,190.545 504.19,197.756 516.211,204.968 528.231,212.181 528.231,197.756 
					"/>
		<polygon fill="#70C599" points="504.192,168.91 516.21,176.121 528.229,183.333 516.212,190.545 504.192,197.756 504.192,183.333 
					"/>
	</g>
</g>
</svg>
