<?xml version="1.0" encoding="utf-8"?>
<!-- Generator: Adobe Illustrator 16.0.0, SVG Export Plug-In . SVG Version: 6.00 Build 0)  -->
<!DOCTYPE svg PUBLIC "-//W3C//DTD SVG 1.1//EN" "http://www.w3.org/Graphics/SVG/1.1/DTD/svg11.dtd">
<svg version="1.1" id="Layer_1" xmlns="http://www.w3.org/2000/svg" xmlns:xlink="http://www.w3.org/1999/xlink" x="0px" y="0px"
	 width="600px" height="400px" viewBox="0 438.318 600 400" enable-background="new 0 438.318 600 400" xml:space="preserve">
<g>
	<path fill="none" d="M395.226,714.373"/>
</g>
<rect x="532.778" y="676.51" fill="#3499CD" stroke="#304E7B" stroke-width="3" stroke-miterlimit="10" width="13.428" height="19.183"/>
<g>
	<g>
		<path fill="none" stroke="#304E7B" stroke-width="2" stroke-miterlimit="10" d="M549.046,706.024
			c-5.282,5.28-13.831,5.28-19.112,0"/>
		<path fill="none" stroke="#304E7B" stroke-width="2" stroke-miterlimit="10" d="M546.547,703.524
			c-3.9,3.899-10.214,3.899-14.114,0"/>
		<path fill="none" stroke="#304E7B" stroke-width="2" stroke-miterlimit="10" d="M543.621,700.834
			c-2.282,2.282-5.979,2.282-8.263,0"/>
	</g>
</g>
<g>
	<g>
		
			<rect x="489.768" y="569.342" fill="#BFBEBE" stroke="#674566" stroke-width="5.0128" stroke-miterlimit="10" width="76.926" height="104.615"/>
		
			<line fill="none" stroke="#996699" stroke-width="5.0128" stroke-miterlimit="10" x1="485.922" y1="566.65" x2="570.537" y2="566.65"/>
		
			<line fill="none" stroke="#996699" stroke-width="5.0128" stroke-miterlimit="10" x1="485.922" y1="676.65" x2="570.537" y2="676.65"/>
	</g>
	<g>
		<polygon fill="#3499CD" points="528.23,621.65 540.252,628.861 552.268,636.072 540.248,643.285 528.23,650.496 528.23,636.072 		
			"/>
		<polygon fill="#996699" points="552.268,607.227 540.262,614.438 528.23,621.65 540.248,628.861 552.268,636.072 552.268,621.65 
					"/>
		<polygon fill="#F8993A" points="528.232,592.803 516.211,600.016 504.189,607.227 516.211,614.438 528.232,621.65 
			528.232,607.227 		"/>
		<polygon fill="#EF3C68" points="528.23,592.803 540.248,600.016 552.268,607.227 540.248,614.438 528.23,621.65 528.23,607.227 		
			"/>
		<polygon fill="#FFCE0E" points="528.232,621.65 516.211,628.861 504.189,636.072 516.211,643.285 528.232,650.496 
			528.232,636.072 		"/>
		<polygon fill="#70C599" points="504.192,607.227 516.211,614.438 528.23,621.65 516.211,628.861 504.192,636.072 504.192,621.65 
					"/>
	</g>
</g>
<g>
	<polygon fill="#FFFFFF" stroke="#E8E8E7" stroke-width="13.1023" stroke-miterlimit="10" points="128.266,758.193 30,758.193 
		87.225,668.693 365.841,668.693 423.067,758.193 324.8,758.318 	"/>
	<g>
		
			<polygon fill="#FFFFFF" stroke="#E8E8E7" stroke-width="6.2712" stroke-linecap="round" stroke-linejoin="round" stroke-miterlimit="10" points="
			191.171,518.318 215.911,594.461 151.14,565.965 86.369,594.461 111.11,518.318 		"/>
		<path id="rect3330_4_" fill="#70C599" d="M169.291,546.063l-1.758,1.755c-1.592,1.595-4.174,1.595-5.768,0l-1.758-1.755
			c-1.592-1.594-1.594-4.178,0-5.771l1.758-1.756c1.593-1.592,4.176-1.595,5.771,0l1.755,1.754
			C170.885,541.887,170.882,544.469,169.291,546.063z"/>
		<path id="rect3330_3_" fill="#3499CD" d="M179.326,536.028l-1.756,1.755c-1.594,1.592-4.176,1.594-5.77-0.002l-1.756-1.755
			c-1.594-1.593-1.594-4.175-0.002-5.769l1.757-1.758c1.594-1.593,4.177-1.593,5.771,0l1.756,1.758
			C180.919,531.851,180.917,534.436,179.326,536.028z"/>
		<path id="rect3330_2_" fill="#EF3C68" d="M189.361,546.063l-1.757,1.755c-1.592,1.595-4.175,1.595-5.769,0l-1.757-1.755
			c-1.592-1.594-1.592-4.178,0-5.771l1.757-1.755c1.594-1.594,4.177-1.594,5.771,0l1.756,1.755
			C190.953,541.885,190.953,544.471,189.361,546.063z"/>
		<path id="rect3330_1_" fill="#FFCE0E" d="M179.326,556.096l-1.756,1.758c-1.594,1.592-4.176,1.592-5.77,0l-1.756-1.758
			c-1.594-1.594-1.594-4.176-0.002-5.768l1.758-1.758c1.593-1.593,4.176-1.593,5.77,0l1.756,1.758
			C180.919,551.922,180.919,554.506,179.326,556.096z"/>
		
			<line fill="none" stroke="#000000" stroke-width="6.2712" stroke-linecap="round" stroke-miterlimit="10" x1="126.369" y1="532.137" x2="126.369" y2="552.366"/>
		
			<line fill="none" stroke="#000000" stroke-width="6.2712" stroke-linecap="round" stroke-miterlimit="10" x1="136.483" y1="542.252" x2="116.254" y2="542.252"/>
	</g>
	<g>
		
			<path fill="#FFFFFF" stroke="#E8E8E7" stroke-width="6.2712" stroke-linecap="round" stroke-linejoin="round" stroke-miterlimit="10" d="
			M365.51,556.123c0.485,17.732-9.945,37.67-29.676,38.155c-19.729-0.483-30.162-20.422-29.677-38.155
			c-0.485-17.734,9.948-37.67,29.677-38.154C355.564,518.453,365.995,538.389,365.51,556.123z"/>
		
			<path fill="#FFFFFF" stroke="#E8E8E7" stroke-width="6.2712" stroke-linecap="round" stroke-linejoin="round" stroke-miterlimit="10" d="
			M365.51,556.123c0.485,17.732-9.945,37.67-29.676,38.155c-19.729-0.483-30.162-20.422-29.677-38.155
			c-0.485-17.734,9.948-37.67,29.677-38.154C355.564,518.453,365.995,538.389,365.51,556.123z"/>
	</g>
	
		<line fill="none" stroke="#000000" stroke-width="6.2712" stroke-linecap="round" stroke-miterlimit="10" x1="335.834" y1="529.733" x2="335.834" y2="549.963"/>
</g>
</svg>
