<?xml version="1.0" encoding="utf-8"?>
<!-- Generator: Adobe Illustrator 16.0.0, SVG Export Plug-In . SVG Version: 6.00 Build 0)  -->
<!DOCTYPE svg PUBLIC "-//W3C//DTD SVG 1.1//EN" "http://www.w3.org/Graphics/SVG/1.1/DTD/svg11.dtd">
<svg version="1.1" id="Layer_1" xmlns="http://www.w3.org/2000/svg" xmlns:xlink="http://www.w3.org/1999/xlink" x="0px" y="0px"
	 width="600px" height="400px" viewBox="0 0 600 400" enable-background="new 0 0 600 400" xml:space="preserve">
<line fill="none" stroke="#FECF10" stroke-width="2.8274" stroke-linecap="square" stroke-miterlimit="10" x1="483.583" y1="307.803" x2="338.963" y2="307.803"/>
<g>
	<path fill="none" d="M384.871,276.055"/>
</g>
<line fill="none" stroke="#FECF10" stroke-width="3.5714" stroke-linecap="square" stroke-miterlimit="10" x1="483.583" y1="307.803" x2="483.583" y2="243.916"/>
<rect x="476.868" y="223.961" fill="#FECF10" stroke="#F8993B" stroke-width="3" stroke-miterlimit="10" width="13.43" height="19.182"/>
<rect x="501.423" y="223.961" fill="#71C59A" stroke="#569975" stroke-width="3" stroke-miterlimit="10" width="13.428" height="19.182"/>
<g>
	<g>
		<path fill="none" stroke="#569975" stroke-width="2" stroke-miterlimit="10" d="M517.692,253.475
			c-5.282,5.281-13.831,5.281-19.112,0"/>
		<path fill="none" stroke="#569975" stroke-width="2" stroke-miterlimit="10" d="M515.193,250.975c-3.9,3.9-10.216,3.9-14.114,0"/>
		<path fill="none" stroke="#569975" stroke-width="2" stroke-miterlimit="10" d="M512.266,248.283c-2.28,2.283-5.979,2.283-8.263,0
			"/>
	</g>
</g>
<rect x="96.496" y="145.055" stroke="#171718" stroke-width="6.7694" stroke-miterlimit="10" width="15" height="151.033"/>
<g>
	<g>
		
			<rect x="458.817" y="116.78" fill="#FFFFFF" stroke="#9A2748" stroke-width="5.0128" stroke-miterlimit="10" width="76.926" height="104.615"/>
		
			<line fill="none" stroke="#EF3D69" stroke-width="5.0128" stroke-miterlimit="10" x1="454.972" y1="114.088" x2="539.587" y2="114.088"/>
		
			<line fill="none" stroke="#EF3D69" stroke-width="5.0128" stroke-miterlimit="10" x1="454.972" y1="224.088" x2="539.587" y2="224.088"/>
	</g>
	<g>
		<polygon fill="#3499CD" points="497.279,169.088 509.302,176.301 521.317,183.512 509.298,190.723 497.279,197.936 
			497.279,183.512 		"/>
		<polygon fill="#9A6799" points="521.317,154.666 509.312,161.876 497.279,169.088 509.298,176.301 521.317,183.512 
			521.317,169.088 		"/>
		<polygon fill="#F8993B" points="497.281,140.242 485.26,147.454 473.24,154.666 485.261,161.876 497.281,169.088 497.281,154.666 
					"/>
		<polygon fill="#EF3D69" points="497.279,140.242 509.298,147.454 521.317,154.666 509.298,161.876 497.279,169.088 
			497.279,154.666 		"/>
		<polygon fill="#FECF10" points="497.281,169.088 485.26,176.301 473.24,183.512 485.261,190.723 497.281,197.936 497.281,183.512 
					"/>
		<polygon fill="#71C59A" points="473.242,154.666 485.26,161.876 497.279,169.088 485.262,176.301 473.242,183.512 
			473.242,169.088 		"/>
	</g>
</g>
<rect x="304.104" y="145.055" stroke="#171718" stroke-width="6.7691" stroke-miterlimit="10" width="15" height="151.033"/>
<g>
	<path fill="none" d="M155.688,299.102"/>
</g>
<rect x="69.674" y="294.088" stroke="#171718" stroke-width="4.6397" stroke-miterlimit="10" width="271.689" height="25.912"/>
<rect x="93.899" y="302.389" fill="#71C59A" width="20.061" height="10.031"/>
<rect x="138.656" y="302.389" fill="#FECF10" width="133.724" height="10.031"/>
<g>
	<g>
		<path fill="none" stroke="#3499CD" stroke-width="6.6869" stroke-miterlimit="10" d="M268.019,98.064
			c24.092-24.086,63.08-24.086,87.167,0"/>
		<path fill="none" stroke="#3499CD" stroke-width="6.6869" stroke-miterlimit="10" d="M279.417,109.466
			c17.788-17.788,46.587-17.788,64.37,0"/>
		<path fill="none" stroke="#3499CD" stroke-width="6.6869" stroke-miterlimit="10" d="M292.765,121.741
			c10.404-10.413,27.266-10.413,37.683,0"/>
	</g>
</g>
<g>
	<g>
		<path fill="none" stroke="#3499CD" stroke-width="6.6869" stroke-miterlimit="10" d="M60.412,98.064
			c24.091-24.086,63.079-24.086,87.166,0"/>
		<path fill="none" stroke="#3499CD" stroke-width="6.6869" stroke-miterlimit="10" d="M71.811,109.466
			c17.788-17.788,46.586-17.788,64.369,0"/>
		<path fill="none" stroke="#3499CD" stroke-width="6.6869" stroke-miterlimit="10" d="M85.158,121.741
			c10.404-10.413,27.265-10.413,37.682,0"/>
	</g>
</g>
</svg>
