<?xml version="1.0" encoding="utf-8"?>
<!-- Generator: Adobe Illustrator 16.0.0, SVG Export Plug-In . SVG Version: 6.00 Build 0)  -->
<!DOCTYPE svg PUBLIC "-//W3C//DTD SVG 1.1//EN" "http://www.w3.org/Graphics/SVG/1.1/DTD/svg11.dtd">
<svg version="1.1" id="Layer_1" xmlns="http://www.w3.org/2000/svg" xmlns:xlink="http://www.w3.org/1999/xlink" x="0px" y="0px"
	 width="600px" height="400px" viewBox="0 428.168 600 400" enable-background="new 0 428.168 600 400" xml:space="preserve">
<line fill="none" stroke="#FECF10" stroke-width="2.8274" stroke-linecap="square" stroke-miterlimit="10" x1="483.583" y1="735.971" x2="338.963" y2="735.971"/>
<g>
	<path fill="none" d="M384.871,704.223"/>
</g>
<line fill="none" stroke="#FECF10" stroke-width="3.5714" stroke-linecap="square" stroke-miterlimit="10" x1="483.583" y1="735.971" x2="483.583" y2="672.084"/>
<rect x="476.868" y="652.129" fill="#FECF10" stroke="#F8993B" stroke-width="3" stroke-miterlimit="10" width="13.43" height="19.182"/>
<rect x="501.423" y="652.129" fill="#71C59A" stroke="#569975" stroke-width="3" stroke-miterlimit="10" width="13.428" height="19.182"/>
<g>
	<g>
		<path fill="none" stroke="#569975" stroke-width="2" stroke-miterlimit="10" d="M517.692,681.643
			c-5.282,5.281-13.831,5.281-19.112,0"/>
		<path fill="none" stroke="#569975" stroke-width="2" stroke-miterlimit="10" d="M515.193,679.143c-3.9,3.9-10.216,3.9-14.114,0"/>
		<path fill="none" stroke="#569975" stroke-width="2" stroke-miterlimit="10" d="M512.266,676.451c-2.28,2.283-5.979,2.283-8.263,0
			"/>
	</g>
</g>
<g>
	<g>
		
			<rect x="458.817" y="544.948" fill="#BFBDBD" stroke="#674566" stroke-width="5.0128" stroke-miterlimit="10" width="76.926" height="104.615"/>
		
			<line fill="none" stroke="#9A6799" stroke-width="5.0128" stroke-miterlimit="10" x1="454.972" y1="542.257" x2="539.587" y2="542.257"/>
		
			<line fill="none" stroke="#9A6799" stroke-width="5.0128" stroke-miterlimit="10" x1="454.972" y1="652.257" x2="539.587" y2="652.257"/>
	</g>
	<g>
		<polygon fill="#3499CD" points="497.28,597.257 509.302,604.468 521.317,611.679 509.298,618.892 497.28,626.103 497.28,611.679 
					"/>
		<polygon fill="#9A6799" points="521.317,582.833 509.312,590.044 497.28,597.257 509.298,604.468 521.317,611.679 
			521.317,597.257 		"/>
		<polygon fill="#F8993B" points="497.282,568.409 485.261,575.622 473.239,582.833 485.261,590.044 497.282,597.257 
			497.282,582.833 		"/>
		<polygon fill="#EF3D69" points="497.28,568.409 509.298,575.622 521.317,582.833 509.298,590.044 497.28,597.257 497.28,582.833 
					"/>
		<polygon fill="#FECF10" points="497.282,597.257 485.261,604.468 473.239,611.679 485.261,618.892 497.282,626.103 
			497.282,611.679 		"/>
		<polygon fill="#71C59A" points="473.242,582.833 485.261,590.044 497.28,597.257 485.261,604.468 473.242,611.679 
			473.242,597.257 		"/>
	</g>
</g>
<rect x="96.496" y="573.223" fill="#FFFFFF" stroke="#E8E9E8" stroke-width="6.7694" stroke-miterlimit="10" width="15" height="151.033"/>
<rect x="304.104" y="573.223" fill="#FFFFFF" stroke="#E8E9E8" stroke-width="6.7691" stroke-miterlimit="10" width="15" height="151.033"/>
<g>
	<path fill="none" d="M155.688,727.27"/>
</g>
<rect x="69.674" y="722.256" fill="#FFFFFF" stroke="#E8E9E8" stroke-width="4.6397" stroke-miterlimit="10" width="271.689" height="25.912"/>
<rect x="93.899" y="730.557" fill="#71C59A" width="20.061" height="10.031"/>
<rect x="138.656" y="730.557" fill="#FECF10" width="133.724" height="10.031"/>
<g>
	<g>
		<path fill="none" stroke="#3499CD" stroke-width="6.6869" stroke-miterlimit="10" d="M268.019,526.232
			c24.092-24.086,63.08-24.086,87.167,0"/>
		<path fill="none" stroke="#3499CD" stroke-width="6.6869" stroke-miterlimit="10" d="M279.417,537.634
			c17.788-17.788,46.587-17.788,64.37,0"/>
		<path fill="none" stroke="#3499CD" stroke-width="6.6869" stroke-miterlimit="10" d="M292.765,549.909
			c10.404-10.413,27.266-10.413,37.683,0"/>
	</g>
</g>
<g>
	<g>
		<path fill="none" stroke="#3499CD" stroke-width="6.6869" stroke-miterlimit="10" d="M60.412,526.232
			c24.091-24.086,63.079-24.086,87.166,0"/>
		<path fill="none" stroke="#3499CD" stroke-width="6.6869" stroke-miterlimit="10" d="M71.811,537.634
			c17.788-17.788,46.586-17.788,64.369,0"/>
		<path fill="none" stroke="#3499CD" stroke-width="6.6869" stroke-miterlimit="10" d="M85.158,549.909
			c10.404-10.413,27.265-10.413,37.682,0"/>
	</g>
</g>
</svg>
