<?xml version="1.0" encoding="utf-8"?>
<!-- Generator: Adobe Illustrator 16.0.0, SVG Export Plug-In . SVG Version: 6.00 Build 0)  -->
<!DOCTYPE svg PUBLIC "-//W3C//DTD SVG 1.1//EN" "http://www.w3.org/Graphics/SVG/1.1/DTD/svg11.dtd">
<svg version="1.1" id="Layer_1" xmlns="http://www.w3.org/2000/svg" xmlns:xlink="http://www.w3.org/1999/xlink" x="0px" y="0px"
	 width="600px" height="400px" viewBox="0 0 600 400" enable-background="new 0 0 600 400" xml:space="preserve">
<line fill="none" stroke="#72C59B" stroke-width="5" stroke-miterlimit="10" stroke-dasharray="5" x1="300.002" y1="145" x2="300.002" y2="69.666"/>
<g>
	<line fill="none" stroke="#FECF11" stroke-width="5" stroke-miterlimit="10" x1="300" y1="399.999" x2="300" y2="274.814"/>
	
		<rect x="293.285" y="254.859" fill="#FECF11" stroke="#F8993C" stroke-width="3" stroke-miterlimit="10" width="13.43" height="19.182"/>
</g>
<g>
	<g>
		
			<rect x="261.637" y="147.825" fill="none" stroke="#31507F" stroke-width="5" stroke-miterlimit="10" width="76.729" height="104.349"/>
		
			<line fill="none" stroke="#3499CE" stroke-width="5" stroke-miterlimit="10" x1="257.801" y1="145.141" x2="342.199" y2="145.141"/>
		
			<line fill="none" stroke="#3499CE" stroke-width="5" stroke-miterlimit="10" x1="257.801" y1="254.859" x2="342.199" y2="254.859"/>
	</g>
	<g>
		<path fill="none" d="M325.572,207.096"/>
	</g>
	<g>
		<path fill="none" d="M277.625,178.326"/>
	</g>
	<g>
		<path fill="none" d="M277.625,207.096"/>
	</g>
	<g>
		<path fill="none" d="M325.572,178.326"/>
	</g>
	<g>
		<polygon fill="#010101" points="323.903,214.386 300,228.771 276.097,214.386 276.098,185.614 300,171.228 323.903,185.614 		"/>
		<g>
			<g>
				<rect x="290.452" y="193.153" fill="#498ECC" width="18.919" height="6.821"/>
				<circle fill="#498ECC" cx="290.453" cy="195.311" r="4.663"/>
				<circle fill="#498ECC" cx="309.37" cy="195.311" r="4.663"/>
				<circle fill="#498ECC" cx="294.156" cy="189.556" r="4.663"/>
				<circle fill="#498ECC" cx="305.561" cy="189.556" r="4.663"/>
				<circle fill="#498ECC" cx="299.912" cy="186.758" r="4.663"/>
				<rect x="290.452" y="191.021" fill="#498ECC" width="18.919" height="4.689"/>
			</g>
			<g>
				<rect x="290.452" y="197.416" fill="#50ADE1" width="18.919" height="6.82"/>
				<circle fill="#50ADE1" cx="290.453" cy="199.574" r="4.663"/>
				<circle fill="#50ADE1" cx="309.37" cy="199.574" r="4.663"/>
				<circle fill="#50ADE1" cx="294.156" cy="193.819" r="4.663"/>
				<circle fill="#50ADE1" cx="305.561" cy="193.819" r="4.663"/>
				<circle fill="#50ADE1" cx="299.912" cy="191.021" r="4.663"/>
				<rect x="290.452" y="195.284" fill="#50ADE1" width="18.919" height="4.689"/>
			</g>
			<g>
				<rect x="290.452" y="202.745" fill="#6CC9F2" width="18.919" height="6.821"/>
				<circle fill="#6CC9F2" cx="290.453" cy="204.903" r="4.663"/>
				<circle fill="#6CC9F2" cx="309.37" cy="204.903" r="4.663"/>
				<circle fill="#6CC9F2" cx="294.156" cy="199.148" r="4.663"/>
				<circle fill="#6CC9F2" cx="305.561" cy="199.148" r="4.663"/>
				<circle fill="#6CC9F2" cx="299.912" cy="196.35" r="4.663"/>
				<rect x="290.452" y="200.613" fill="#6CC9F2" width="18.919" height="4.688"/>
			</g>
			<g>
				<rect x="290.452" y="208.074" fill="#FFFFFF" width="18.919" height="6.82"/>
				<circle fill="#FFFFFF" cx="290.453" cy="210.231" r="4.663"/>
				<circle fill="#FFFFFF" cx="309.37" cy="210.231" r="4.663"/>
				<circle fill="#FFFFFF" cx="294.156" cy="204.477" r="4.663"/>
				<circle fill="#FFFFFF" cx="305.561" cy="204.477" r="4.663"/>
				<circle fill="#FFFFFF" cx="299.912" cy="201.679" r="4.663"/>
				<rect x="290.452" y="205.941" fill="#FFFFFF" width="18.919" height="4.689"/>
			</g>
		</g>
	</g>
</g>
<g>
	<g>
		<rect x="80.015" y="145" fill="none" stroke="#9A6799" stroke-width="5" stroke-linecap="square" width="39.639" height="50"/>
	</g>
	
		<line fill="none" stroke="#9A6799" stroke-width="5" stroke-linecap="square" x1="90.502" y1="154.681" x2="109.167" y2="154.681"/>
	
		<line fill="none" stroke="#9A6799" stroke-width="5" stroke-linecap="square" x1="90.502" y1="164.681" x2="109.167" y2="164.681"/>
	
		<line fill="none" stroke="#9A6799" stroke-width="5" stroke-linecap="square" x1="90.502" y1="174.681" x2="109.167" y2="174.681"/>
	<g>
		<rect x="130.015" y="145" fill="none" stroke="#9A6799" stroke-width="5" stroke-linecap="square" width="39.639" height="50"/>
	</g>
	
		<line fill="none" stroke="#9A6799" stroke-width="5" stroke-linecap="square" x1="140.502" y1="154.681" x2="159.167" y2="154.681"/>
	
		<line fill="none" stroke="#9A6799" stroke-width="5" stroke-linecap="square" x1="140.502" y1="164.681" x2="159.167" y2="164.681"/>
	
		<line fill="none" stroke="#9A6799" stroke-width="5" stroke-linecap="square" x1="140.502" y1="174.681" x2="159.167" y2="174.681"/>
	<g>
		<rect x="130.015" y="205" fill="none" stroke="#9A6799" stroke-width="5" stroke-linecap="square" width="39.639" height="50"/>
	</g>
	
		<line fill="none" stroke="#9A6799" stroke-width="5" stroke-linecap="square" x1="140.502" y1="214.682" x2="159.167" y2="214.682"/>
	
		<line fill="none" stroke="#9A6799" stroke-width="5" stroke-linecap="square" x1="140.502" y1="224.682" x2="159.167" y2="224.682"/>
	
		<line fill="none" stroke="#9A6799" stroke-width="5" stroke-linecap="square" x1="140.502" y1="234.682" x2="159.167" y2="234.682"/>
	<g>
		<rect x="80.015" y="205" fill="none" stroke="#9A6799" stroke-width="5" stroke-linecap="square" width="39.639" height="50"/>
	</g>
	
		<line fill="none" stroke="#9A6799" stroke-width="5" stroke-linecap="square" x1="90.502" y1="214.682" x2="109.167" y2="214.682"/>
	
		<line fill="none" stroke="#9A6799" stroke-width="5" stroke-linecap="square" x1="90.502" y1="224.682" x2="109.167" y2="224.682"/>
	
		<line fill="none" stroke="#9A6799" stroke-width="5" stroke-linecap="square" x1="90.502" y1="234.682" x2="109.167" y2="234.682"/>
</g>
<g>
	
		<rect x="430.211" y="210.764" fill="none" stroke="#EF3E69" stroke-width="5" stroke-miterlimit="10" width="17.107" height="10.687"/>
	
		<rect x="446.946" y="210.764" fill="none" stroke="#EF3E69" stroke-width="5" stroke-miterlimit="10" width="17.106" height="10.687"/>
	
		<rect x="463.682" y="210.764" fill="none" stroke="#EF3E69" stroke-width="5" stroke-miterlimit="10" width="17.106" height="10.687"/>
	
		<rect x="480.416" y="210.764" fill="none" stroke="#EF3E69" stroke-width="5" stroke-miterlimit="10" width="17.107" height="10.687"/>
	
		<rect x="441.368" y="221.92" fill="none" stroke="#EF3E69" stroke-width="5" stroke-miterlimit="10" width="17.106" height="10.686"/>
	
		<rect x="458.104" y="221.92" fill="none" stroke="#EF3E69" stroke-width="5" stroke-miterlimit="10" width="17.106" height="10.686"/>
	
		<rect x="474.838" y="221.92" fill="none" stroke="#EF3E69" stroke-width="5" stroke-miterlimit="10" width="17.107" height="10.686"/>
	
		<rect x="491.573" y="221.92" fill="none" stroke="#EF3E69" stroke-width="5" stroke-miterlimit="10" width="17.106" height="10.686"/>
	
		<rect x="485.995" y="233.076" fill="none" stroke="#EF3E69" stroke-width="5" stroke-miterlimit="10" width="17.105" height="10.686"/>
	
		<rect x="469.26" y="233.076" fill="none" stroke="#EF3E69" stroke-width="5" stroke-miterlimit="10" width="17.107" height="10.686"/>
	
		<rect x="452.524" y="233.076" fill="none" stroke="#EF3E69" stroke-width="5" stroke-miterlimit="10" width="17.106" height="10.686"/>
	
		<rect x="435.79" y="233.076" fill="none" stroke="#EF3E69" stroke-width="5" stroke-miterlimit="10" width="17.106" height="10.686"/>
	
		<rect x="441.368" y="244.232" fill="none" stroke="#EF3E69" stroke-width="5" stroke-miterlimit="10" width="17.106" height="10.688"/>
	
		<rect x="458.104" y="244.232" fill="none" stroke="#EF3E69" stroke-width="5" stroke-miterlimit="10" width="17.106" height="10.688"/>
	
		<rect x="474.838" y="244.232" fill="none" stroke="#EF3E69" stroke-width="5" stroke-miterlimit="10" width="17.107" height="10.688"/>
	
		<rect x="491.573" y="244.232" fill="none" stroke="#EF3E69" stroke-width="5" stroke-miterlimit="10" width="17.106" height="10.688"/>
</g>
<g>
	<path fill="none" stroke="#EF3E69" stroke-width="5" stroke-miterlimit="10" d="M487.97,183.614
		c-7.205,17.394-31.844,17.394-39.049,0c0-12.844,0-25.689,0-38.533c13.017,0,26.032,0,39.049,0
		C487.97,157.925,487.97,170.77,487.97,183.614z"/>
</g>
<line fill="none" stroke="#EF3E69" stroke-width="5" stroke-miterlimit="10" x1="468.445" y1="154.351" x2="468.445" y2="174.343"/>
<line fill="none" stroke="#EF3E69" stroke-width="5" stroke-miterlimit="10" x1="478.441" y1="164.347" x2="458.449" y2="164.347"/>
<line fill="none" stroke="#EF3E69" stroke-width="5" stroke-miterlimit="10" stroke-dasharray="5" x1="421.334" y1="200" x2="346" y2="200"/>
<line fill="none" stroke="#9A6799" stroke-width="5" stroke-miterlimit="10" stroke-dasharray="5" x1="254.334" y1="200" x2="179" y2="200"/>
<g>
	<g>
		<rect x="268" y="35.87" fill="none" stroke="#72C59B" stroke-width="5" stroke-miterlimit="10" width="64" height="24.466"/>
		
			<rect x="279.608" y="9.667" fill="none" stroke="#72C59B" stroke-width="5" stroke-miterlimit="10" width="40.783" height="25.028"/>
		<line fill="none" stroke="#72C59B" stroke-width="5" stroke-miterlimit="10" x1="285.879" y1="18" x2="314.121" y2="18"/>
		<line fill="none" stroke="#72C59B" stroke-width="5" stroke-miterlimit="10" x1="285.879" y1="26" x2="314.121" y2="26"/>
	</g>
	<line fill="none" stroke="#72C59B" stroke-width="5" stroke-miterlimit="10" x1="274.097" y1="43.333" x2="281" y2="43.333"/>
</g>
</svg>
