<?xml version="1.0" encoding="utf-8"?>
<!-- Generator: Adobe Illustrator 16.0.0, SVG Export Plug-In . SVG Version: 6.00 Build 0)  -->
<!DOCTYPE svg PUBLIC "-//W3C//DTD SVG 1.1//EN" "http://www.w3.org/Graphics/SVG/1.1/DTD/svg11.dtd">
<svg version="1.1" id="Layer_1" xmlns="http://www.w3.org/2000/svg" xmlns:xlink="http://www.w3.org/1999/xlink" x="0px" y="0px"
	 width="600px" height="400px" viewBox="0 0 600 400" enable-background="new 0 0 600 400" xml:space="preserve">
<g>
	<g>
		<path fill="none" d="M402.332,267.286"/>
	</g>
	<g>
		
			<rect x="458.885" y="153.192" fill="#16A94A" stroke="#116735" stroke-width="3" stroke-miterlimit="10" width="13.428" height="19.182"/>
		<g>
			
				<rect x="416.278" y="46.024" fill="none" stroke="#A51E29" stroke-width="5.0128" stroke-miterlimit="10" width="76.928" height="104.616"/>
			
				<line fill="none" stroke="#EC2227" stroke-width="5.0128" stroke-miterlimit="10" x1="412.434" y1="43.333" x2="497.049" y2="43.333"/>
			
				<line fill="none" stroke="#EC2227" stroke-width="5.0128" stroke-miterlimit="10" x1="412.434" y1="153.333" x2="497.049" y2="153.333"/>
			<g>
				<path fill="none" d="M479.377,105.446"/>
			</g>
			<g>
				<path fill="none" d="M431.307,76.603"/>
			</g>
			<g>
				<path fill="none" d="M431.307,105.446"/>
			</g>
			<g>
				<path fill="none" d="M479.377,76.603"/>
			</g>
			<polygon points="478.539,112.757 454.74,127.179 430.944,112.757 430.944,83.908 454.74,69.485 478.539,83.908 			"/>
			<g>
				<polygon fill="#EC2227" points="454.74,98.333 438.084,88.235 454.74,78.139 471.401,88.235 				"/>
				<polygon fill="#DEDB24" points="454.74,98.333 454.74,108.427 454.74,118.524 446.41,113.476 438.084,108.427 446.41,103.38 
									"/>
				<polygon fill="#4368B1" points="454.742,98.333 454.742,108.427 454.74,118.524 463.069,113.476 471.401,108.427 
					463.069,103.38 				"/>
				<polygon fill="#16A94A" points="438.084,88.235 446.41,93.285 454.74,98.333 446.41,103.38 438.084,108.427 438.084,98.333 				
					"/>
				<polygon fill="#6E1A45" points="471.401,88.224 463.069,93.273 454.74,98.319 463.069,103.366 471.401,108.415 471.401,98.319 
									"/>
			</g>
		</g>
		<g>
			<g>
				<path fill="none" stroke="#16A94A" stroke-width="2" stroke-miterlimit="10" d="M475.153,182.706
					c-5.281,5.281-13.83,5.281-19.111,0"/>
				<path fill="none" stroke="#16A94A" stroke-width="2" stroke-miterlimit="10" d="M472.655,180.206c-3.9,3.9-10.215,3.9-14.115,0"
					/>
				<path fill="none" stroke="#16A94A" stroke-width="2" stroke-miterlimit="10" d="M469.729,177.515
					c-2.283,2.283-5.979,2.283-8.264,0"/>
			</g>
		</g>
	</g>
	<g>
		<g>
			<g>
				<g>
					
						<rect x="102.951" y="50.414" stroke="#171617" stroke-width="18.1748" stroke-miterlimit="10" width="144.61" height="240.002"/>
				</g>
				<path id="rect3330_17_" fill="#EC2227" d="M168.022,205.017v10.123c0,9.18-7.439,16.627-16.627,16.627h-10.124
					c-9.187,0-16.631-7.447-16.631-16.627v-10.123c0-9.188,7.444-16.635,16.631-16.635h10.124
					C160.582,188.382,168.022,195.829,168.022,205.017z"/>
				<path id="rect3330_16_" fill="#16A94A" d="M168.022,147.169V157.3c0,9.18-7.439,16.62-16.627,16.62h-10.124
					c-9.187,0-16.631-7.438-16.631-16.62v-10.131c0-9.182,7.444-16.631,16.631-16.631h10.124
					C160.582,130.538,168.022,137.987,168.022,147.169z"/>
				<path id="rect3330_15_" fill="#4368B1" d="M168.022,89.323v10.129c0,9.18-7.439,16.625-16.627,16.625h-10.124
					c-9.187,0-16.631-7.446-16.631-16.625V89.323c0-9.182,7.444-16.629,16.631-16.629h10.124
					C160.582,72.694,168.022,80.142,168.022,89.323z"/>
				<path id="rect3330_13_" fill="#6E1A44" d="M225.869,89.323v10.129c0,9.18-7.443,16.625-16.627,16.625h-10.127
					c-9.185,0-16.632-7.446-16.632-16.625V89.323c0-9.182,7.447-16.629,16.632-16.629h10.127
					C218.426,72.694,225.869,80.142,225.869,89.323z"/>
				<path id="rect3330_12_" fill="#DEDB24" d="M225.869,147.169V157.3c0,9.18-7.443,16.62-16.627,16.62h-10.127
					c-9.185,0-16.632-7.438-16.632-16.62v-10.131c0-9.182,7.447-16.631,16.632-16.631h10.127
					C218.426,130.538,225.869,137.987,225.869,147.169z"/>
				<path id="rect3330_11_" fill="#FFFFFF" d="M225.869,205.017v10.123c0,9.18-7.443,16.627-16.627,16.627h-10.127
					c-9.185,0-16.632-7.447-16.632-16.627v-10.123c0-9.188,7.447-16.635,16.632-16.635h10.127
					C218.426,188.382,225.869,195.829,225.869,205.017z"/>
			</g>
			<rect x="110.885" y="245.015" fill="#FFFFFF" width="128.743" height="37.151"/>
		</g>
		<g>
			<g>
				<path fill="none" stroke="#16A94A" stroke-width="7.625" stroke-miterlimit="10" d="M211.691,338.937
					c-20.138,20.135-52.73,20.135-72.868,0"/>
				<path fill="none" stroke="#16A94A" stroke-width="7.625" stroke-miterlimit="10" d="M202.164,329.405
					c-14.874,14.869-38.94,14.869-53.814,0"/>
				<path fill="none" stroke="#16A94A" stroke-width="7.625" stroke-miterlimit="10" d="M191.006,319.146
					c-8.701,8.703-22.797,8.703-31.501,0"/>
			</g>
		</g>
	</g>
	<g>
		
			<rect x="458.885" y="323.192" fill="#16A94A" stroke="#116735" stroke-width="3" stroke-miterlimit="10" width="13.428" height="19.182"/>
		<g>
			
				<rect x="416.278" y="216.024" fill="none" stroke="#A51E29" stroke-width="5.0128" stroke-miterlimit="10" width="76.928" height="104.614"/>
			
				<line fill="none" stroke="#EC2227" stroke-width="5.0128" stroke-miterlimit="10" x1="412.434" y1="213.333" x2="497.049" y2="213.333"/>
			
				<line fill="none" stroke="#EC2227" stroke-width="5.0128" stroke-miterlimit="10" x1="412.434" y1="323.333" x2="497.049" y2="323.333"/>
			<g>
				<path fill="none" d="M479.377,275.446"/>
			</g>
			<g>
				<path fill="none" d="M431.307,246.603"/>
			</g>
			<g>
				<path fill="none" d="M431.307,275.446"/>
			</g>
			<g>
				<path fill="none" d="M479.377,246.603"/>
			</g>
			<polygon points="478.539,282.757 454.74,297.179 430.944,282.757 430.944,253.907 454.74,239.485 478.539,253.907 			"/>
			<g>
				<polygon fill="#EC2227" points="454.74,268.333 438.084,258.235 454.74,248.14 471.401,258.235 				"/>
				<polygon fill="#DEDB24" points="454.74,268.333 454.74,278.427 454.74,288.524 446.41,283.476 438.084,278.427 446.41,273.38 
									"/>
				<polygon fill="#4368B1" points="454.742,268.333 454.742,278.427 454.74,288.524 463.069,283.476 471.401,278.427 
					463.069,273.38 				"/>
				<polygon fill="#16A94A" points="438.084,258.235 446.41,263.284 454.74,268.333 446.41,273.38 438.084,278.427 438.084,268.333 
									"/>
				<polygon fill="#6E1A45" points="471.401,258.224 463.069,263.272 454.74,268.319 463.069,273.366 471.401,278.415 
					471.401,268.319 				"/>
			</g>
		</g>
		<g>
			<g>
				<path fill="none" stroke="#16A94A" stroke-width="2" stroke-miterlimit="10" d="M475.153,352.706
					c-5.281,5.281-13.83,5.281-19.111,0"/>
				<path fill="none" stroke="#16A94A" stroke-width="2" stroke-miterlimit="10" d="M472.655,350.206c-3.9,3.9-10.215,3.9-14.115,0"
					/>
				<path fill="none" stroke="#16A94A" stroke-width="2" stroke-miterlimit="10" d="M469.729,347.515
					c-2.283,2.283-5.979,2.283-8.264,0"/>
			</g>
		</g>
	</g>
</g>
</svg>
