<?xml version="1.0" encoding="utf-8"?>
<!-- Generator: Adobe Illustrator 16.0.0, SVG Export Plug-In . SVG Version: 6.00 Build 0)  -->
<!DOCTYPE svg PUBLIC "-//W3C//DTD SVG 1.1//EN" "http://www.w3.org/Graphics/SVG/1.1/DTD/svg11.dtd">
<svg version="1.1" id="Layer_1" xmlns="http://www.w3.org/2000/svg" xmlns:xlink="http://www.w3.org/1999/xlink" x="0px" y="0px"
	 width="600px" height="400px" viewBox="0 444.318 600 400" enable-background="new 0 444.318 600 400" xml:space="preserve">
<g>
	<path fill="none" d="M402.332,711.604"/>
</g>
<rect x="458.885" y="597.51" fill="#72C59B" stroke="#579975" stroke-width="3" stroke-miterlimit="10" width="13.429" height="19.183"/>
<g>
	<g>
		<path fill="none" stroke="#579975" stroke-width="2" stroke-miterlimit="10" d="M475.153,627.024c-5.281,5.28-13.83,5.28-19.111,0
			"/>
		<path fill="none" stroke="#579975" stroke-width="2" stroke-miterlimit="10" d="M472.655,624.524
			c-3.9,3.899-10.215,3.899-14.115,0"/>
		<path fill="none" stroke="#579975" stroke-width="2" stroke-miterlimit="10" d="M469.729,621.834
			c-2.282,2.282-5.979,2.282-8.264,0"/>
	</g>
</g>
<g>
	<g>
		
			<rect x="416.28" y="490.343" fill="#C0C0C0" stroke="#654566" stroke-width="5.0128" stroke-miterlimit="10" width="76.926" height="104.615"/>
		
			<line fill="none" stroke="#9A6799" stroke-width="5.0128" stroke-miterlimit="10" x1="412.435" y1="487.651" x2="497.05" y2="487.651"/>
		
			<line fill="none" stroke="#9A6799" stroke-width="5.0128" stroke-miterlimit="10" x1="412.435" y1="597.651" x2="497.05" y2="597.651"/>
	</g>
	<g>
		<polygon fill="#3499CE" points="454.743,542.651 466.765,549.862 478.78,557.073 466.761,564.286 454.743,571.497 
			454.743,557.073 		"/>
		<polygon fill="#9A6799" points="478.78,528.228 466.774,535.438 454.743,542.651 466.761,549.862 478.78,557.073 478.78,542.651 
					"/>
		<polygon fill="#F8993C" points="454.745,513.804 442.724,521.017 430.702,528.228 442.724,535.438 454.745,542.651 
			454.745,528.228 		"/>
		<polygon fill="#EF3E69" points="454.743,513.804 466.761,521.017 478.78,528.228 466.761,535.438 454.743,542.651 
			454.743,528.228 		"/>
		<polygon fill="#FECF11" points="454.745,542.651 442.724,549.862 430.702,557.073 442.724,564.286 454.745,571.497 
			454.745,557.073 		"/>
		<polygon fill="#72C59B" points="430.705,528.228 442.724,535.438 454.743,542.651 442.724,549.862 430.705,557.073 
			430.705,542.651 		"/>
	</g>
</g>
<g>
	<g>
		<g>
			<g>
				
					<rect x="102.951" y="494.732" fill="#FFFFFF" stroke="#E8E8E7" stroke-width="18.1748" stroke-miterlimit="10" width="144.61" height="240.002"/>
			</g>
			<path id="rect3330_6_" fill="#EF3E69" d="M168.022,649.336v10.123c0,9.18-7.439,16.627-16.627,16.627h-10.124
				c-9.187,0-16.631-7.447-16.631-16.627v-10.123c0-9.188,7.444-16.636,16.631-16.636h10.124
				C160.582,632.7,168.022,640.147,168.022,649.336z"/>
			<path id="rect3330_5_" fill="#72C59B" d="M168.022,591.487v10.131c0,9.181-7.439,16.62-16.627,16.62h-10.124
				c-9.187,0-16.631-7.438-16.631-16.62v-10.131c0-9.183,7.444-16.631,16.631-16.631h10.124
				C160.582,574.856,168.022,582.305,168.022,591.487z"/>
			<path id="rect3330_4_" fill="#3499CE" d="M168.022,533.642v10.129c0,9.18-7.439,16.625-16.627,16.625h-10.124
				c-9.187,0-16.631-7.446-16.631-16.625v-10.129c0-9.183,7.444-16.63,16.631-16.63h10.124
				C160.582,517.012,168.022,524.461,168.022,533.642z"/>
			<path id="rect3330_3_" fill="#9A6799" d="M225.869,533.642v10.129c0,9.18-7.443,16.625-16.627,16.625h-10.127
				c-9.185,0-16.632-7.446-16.632-16.625v-10.129c0-9.183,7.447-16.63,16.632-16.63h10.127
				C218.426,517.012,225.869,524.461,225.869,533.642z"/>
			<path id="rect3330_2_" fill="#FECF11" d="M225.869,591.487v10.131c0,9.181-7.443,16.62-16.627,16.62h-10.127
				c-9.185,0-16.632-7.438-16.632-16.62v-10.131c0-9.183,7.447-16.631,16.632-16.631h10.127
				C218.426,574.856,225.869,582.305,225.869,591.487z"/>
			<path id="rect3330_1_" fill="#FFFFFF" d="M225.869,649.336v10.123c0,9.18-7.443,16.627-16.627,16.627h-10.127
				c-9.185,0-16.632-7.447-16.632-16.627v-10.123c0-9.188,7.447-16.636,16.632-16.636h10.127
				C218.426,632.7,225.869,640.147,225.869,649.336z"/>
		</g>
		<rect x="110.885" y="689.334" width="128.743" height="37.15"/>
	</g>
	<g>
		<g>
			<path fill="none" stroke="#72C59B" stroke-width="7.625" stroke-miterlimit="10" d="M211.691,783.256
				c-20.138,20.135-52.73,20.135-72.868,0"/>
			<path fill="none" stroke="#72C59B" stroke-width="7.625" stroke-miterlimit="10" d="M202.164,773.723
				c-14.874,14.869-38.94,14.869-53.814,0"/>
			<path fill="none" stroke="#72C59B" stroke-width="7.625" stroke-miterlimit="10" d="M191.006,763.465
				c-8.701,8.703-22.797,8.703-31.501,0"/>
		</g>
	</g>
</g>
<rect x="458.885" y="767.51" fill="#72C59B" stroke="#579975" stroke-width="3" stroke-miterlimit="10" width="13.429" height="19.183"/>
<g>
	<g>
		<path fill="none" stroke="#579975" stroke-width="2" stroke-miterlimit="10" d="M475.153,797.024c-5.281,5.28-13.83,5.28-19.111,0
			"/>
		<path fill="none" stroke="#579975" stroke-width="2" stroke-miterlimit="10" d="M472.655,794.524
			c-3.9,3.899-10.215,3.899-14.115,0"/>
		<path fill="none" stroke="#579975" stroke-width="2" stroke-miterlimit="10" d="M469.729,791.834
			c-2.282,2.282-5.979,2.282-8.264,0"/>
	</g>
</g>
<g>
	<g>
		
			<rect x="416.28" y="660.343" fill="#C0C0C0" stroke="#654566" stroke-width="5.0128" stroke-miterlimit="10" width="76.926" height="104.615"/>
		
			<line fill="none" stroke="#9A6799" stroke-width="5.0128" stroke-miterlimit="10" x1="412.435" y1="657.651" x2="497.05" y2="657.651"/>
		
			<line fill="none" stroke="#9A6799" stroke-width="5.0128" stroke-miterlimit="10" x1="412.435" y1="767.651" x2="497.05" y2="767.651"/>
	</g>
	<g>
		<polygon fill="#3499CE" points="454.743,712.651 466.765,719.862 478.78,727.073 466.761,734.286 454.743,741.497 
			454.743,727.073 		"/>
		<polygon fill="#9A6799" points="478.78,698.228 466.774,705.438 454.743,712.651 466.761,719.862 478.78,727.073 478.78,712.651 
					"/>
		<polygon fill="#F8993C" points="454.745,683.804 442.724,691.017 430.702,698.228 442.724,705.438 454.745,712.651 
			454.745,698.228 		"/>
		<polygon fill="#EF3E69" points="454.743,683.804 466.761,691.017 478.78,698.228 466.761,705.438 454.743,712.651 
			454.743,698.228 		"/>
		<polygon fill="#FECF11" points="454.745,712.651 442.724,719.862 430.702,727.073 442.724,734.286 454.745,741.497 
			454.745,727.073 		"/>
		<polygon fill="#72C59B" points="430.705,698.228 442.724,705.438 454.743,712.651 442.724,719.862 430.705,727.073 
			430.705,712.651 		"/>
	</g>
</g>
</svg>
