<?xml version="1.0" encoding="utf-8"?>
<!-- Generator: Adobe Illustrator 16.0.0, SVG Export Plug-In . SVG Version: 6.00 Build 0)  -->
<!DOCTYPE svg PUBLIC "-//W3C//DTD SVG 1.1//EN" "http://www.w3.org/Graphics/SVG/1.1/DTD/svg11.dtd">
<svg version="1.1" id="Layer_1" xmlns="http://www.w3.org/2000/svg" xmlns:xlink="http://www.w3.org/1999/xlink" x="0px" y="0px"
	 width="600px" height="400px" viewBox="0 0 600 400" enable-background="new 0 0 600 400" xml:space="preserve">
<g>
	<path fill="none" d="M402.332,267.286"/>
</g>
<rect x="458.885" y="153.192" fill="#72C59B" stroke="#579975" stroke-width="3" stroke-miterlimit="10" width="13.429" height="19.182"/>
<g>
	<g>
		<path fill="none" stroke="#579975" stroke-width="2" stroke-miterlimit="10" d="M475.153,182.706
			c-5.281,5.281-13.83,5.281-19.111,0"/>
		<path fill="none" stroke="#579975" stroke-width="2" stroke-miterlimit="10" d="M472.655,180.206c-3.9,3.9-10.215,3.9-14.115,0"/>
		<path fill="none" stroke="#579975" stroke-width="2" stroke-miterlimit="10" d="M469.729,177.515
			c-2.282,2.283-5.979,2.283-8.264,0"/>
	</g>
</g>
<g>
	<g>
		
			<rect x="416.28" y="46.024" fill="#FFFFFF" stroke="#9B2748" stroke-width="5.0128" stroke-miterlimit="10" width="76.926" height="104.615"/>
		
			<line fill="none" stroke="#EF3E69" stroke-width="5.0128" stroke-miterlimit="10" x1="412.435" y1="43.333" x2="497.05" y2="43.333"/>
		
			<line fill="none" stroke="#EF3E69" stroke-width="5.0128" stroke-miterlimit="10" x1="412.435" y1="153.333" x2="497.05" y2="153.333"/>
	</g>
	<g>
		<polygon fill="#3499CE" points="454.742,98.333 466.765,105.545 478.78,112.756 466.761,119.967 454.742,127.18 454.742,112.756 
					"/>
		<polygon fill="#9A6799" points="478.78,83.91 466.774,91.121 454.742,98.333 466.761,105.545 478.78,112.756 478.78,98.333 		"/>
		<polygon fill="#F8993C" points="454.744,69.486 442.723,76.698 430.703,83.91 442.724,91.121 454.744,98.333 454.744,83.91 		"/>
		<polygon fill="#EF3E69" points="454.742,69.486 466.761,76.698 478.78,83.91 466.761,91.121 454.742,98.333 454.742,83.91 		"/>
		<polygon fill="#FECF11" points="454.744,98.333 442.723,105.545 430.703,112.756 442.724,119.967 454.744,127.18 454.744,112.756 
					"/>
		<polygon fill="#72C59B" points="430.705,83.91 442.723,91.121 454.742,98.333 442.725,105.545 430.705,112.756 430.705,98.333 		
			"/>
	</g>
</g>
<g>
	<g>
		<g>
			<g>
				
					<rect x="102.951" y="50.414" stroke="#171718" stroke-width="18.1748" stroke-miterlimit="10" width="144.61" height="240.002"/>
			</g>
			<path id="rect3330_17_" fill="#EF3E69" d="M168.022,205.018v10.123c0,9.18-7.439,16.627-16.627,16.627h-10.124
				c-9.187,0-16.631-7.447-16.631-16.627v-10.123c0-9.188,7.444-16.636,16.631-16.636h10.124
				C160.582,188.382,168.022,195.829,168.022,205.018z"/>
			<path id="rect3330_16_" fill="#72C59B" d="M168.022,147.169V157.3c0,9.18-7.439,16.62-16.627,16.62h-10.124
				c-9.187,0-16.631-7.438-16.631-16.62v-10.131c0-9.182,7.444-16.631,16.631-16.631h10.124
				C160.582,130.538,168.022,137.987,168.022,147.169z"/>
			<path id="rect3330_15_" fill="#3499CE" d="M168.022,89.323v10.129c0,9.18-7.439,16.625-16.627,16.625h-10.124
				c-9.187,0-16.631-7.446-16.631-16.625V89.323c0-9.182,7.444-16.629,16.631-16.629h10.124
				C160.582,72.694,168.022,80.142,168.022,89.323z"/>
			<path id="rect3330_13_" fill="#9A6799" d="M225.869,89.323v10.129c0,9.18-7.443,16.625-16.627,16.625h-10.127
				c-9.185,0-16.632-7.446-16.632-16.625V89.323c0-9.182,7.447-16.629,16.632-16.629h10.127
				C218.426,72.694,225.869,80.142,225.869,89.323z"/>
			<path id="rect3330_12_" fill="#FECF11" d="M225.869,147.169V157.3c0,9.18-7.443,16.62-16.627,16.62h-10.127
				c-9.185,0-16.632-7.438-16.632-16.62v-10.131c0-9.182,7.447-16.631,16.632-16.631h10.127
				C218.426,130.538,225.869,137.987,225.869,147.169z"/>
			<path id="rect3330_11_" fill="#FFFFFF" d="M225.869,205.018v10.123c0,9.18-7.443,16.627-16.627,16.627h-10.127
				c-9.185,0-16.632-7.447-16.632-16.627v-10.123c0-9.188,7.447-16.636,16.632-16.636h10.127
				C218.426,188.382,225.869,195.829,225.869,205.018z"/>
		</g>
		<rect x="110.885" y="245.016" fill="#FFFFFF" width="128.743" height="37.15"/>
	</g>
	<g>
		<g>
			<path fill="none" stroke="#72C59B" stroke-width="7.625" stroke-miterlimit="10" d="M211.691,338.938
				c-20.138,20.135-52.73,20.135-72.868,0"/>
			<path fill="none" stroke="#72C59B" stroke-width="7.625" stroke-miterlimit="10" d="M202.164,329.404
				c-14.874,14.869-38.94,14.869-53.814,0"/>
			<path fill="none" stroke="#72C59B" stroke-width="7.625" stroke-miterlimit="10" d="M191.006,319.146
				c-8.701,8.703-22.797,8.703-31.501,0"/>
		</g>
	</g>
</g>
<rect x="458.885" y="323.191" fill="#72C59B" stroke="#579975" stroke-width="3" stroke-miterlimit="10" width="13.429" height="19.183"/>
<g>
	<g>
		<path fill="none" stroke="#579975" stroke-width="2" stroke-miterlimit="10" d="M475.153,352.706c-5.281,5.28-13.83,5.28-19.111,0
			"/>
		<path fill="none" stroke="#579975" stroke-width="2" stroke-miterlimit="10" d="M472.655,350.206
			c-3.9,3.899-10.215,3.899-14.115,0"/>
		<path fill="none" stroke="#579975" stroke-width="2" stroke-miterlimit="10" d="M469.729,347.516
			c-2.282,2.282-5.979,2.282-8.264,0"/>
	</g>
</g>
<g>
	<g>
		
			<rect x="416.28" y="216.024" fill="#FFFFFF" stroke="#9B2748" stroke-width="5.0128" stroke-miterlimit="10" width="76.926" height="104.614"/>
		
			<line fill="none" stroke="#EF3E69" stroke-width="5.0128" stroke-miterlimit="10" x1="412.435" y1="213.333" x2="497.05" y2="213.333"/>
		
			<line fill="none" stroke="#EF3E69" stroke-width="5.0128" stroke-miterlimit="10" x1="412.435" y1="323.332" x2="497.05" y2="323.332"/>
	</g>
	<g>
		<polygon fill="#3499CE" points="454.742,268.332 466.765,275.545 478.78,282.756 466.761,289.967 454.742,297.18 454.742,282.756 
					"/>
		<polygon fill="#9A6799" points="478.78,253.91 466.774,261.121 454.742,268.332 466.761,275.545 478.78,282.756 478.78,268.332 		
			"/>
		<polygon fill="#F8993C" points="454.744,239.486 442.723,246.698 430.703,253.91 442.724,261.121 454.744,268.332 454.744,253.91 
					"/>
		<polygon fill="#EF3E69" points="454.742,239.486 466.761,246.698 478.78,253.91 466.761,261.121 454.742,268.332 454.742,253.91 
					"/>
		<polygon fill="#FECF11" points="454.744,268.332 442.723,275.545 430.703,282.756 442.724,289.967 454.744,297.18 
			454.744,282.756 		"/>
		<polygon fill="#72C59B" points="430.705,253.91 442.723,261.121 454.742,268.332 442.725,275.545 430.705,282.756 
			430.705,268.332 		"/>
	</g>
</g>
</svg>
