<?xml version="1.0" encoding="utf-8"?>
<!-- Generator: Adobe Illustrator 16.0.0, SVG Export Plug-In . SVG Version: 6.00 Build 0)  -->
<!DOCTYPE svg PUBLIC "-//W3C//DTD SVG 1.1//EN" "http://www.w3.org/Graphics/SVG/1.1/DTD/svg11.dtd">
<svg version="1.1" id="Layer_1" xmlns="http://www.w3.org/2000/svg" xmlns:xlink="http://www.w3.org/1999/xlink" x="0px" y="0px"
	 width="600px" height="400px" viewBox="0 0 600 400" enable-background="new 0 0 600 400" xml:space="preserve">
<g>
	<path fill="none" d="M404.143,267.286"/>
</g>
<rect x="530.696" y="153.192" fill="#72C59B" stroke="#569975" stroke-width="3" stroke-miterlimit="10" width="13.428" height="19.182"/>
<g>
	<g>
		<path fill="none" stroke="#569975" stroke-width="2" stroke-miterlimit="10" d="M546.963,182.706
			c-5.281,5.281-13.83,5.281-19.111,0"/>
		<path fill="none" stroke="#569975" stroke-width="2" stroke-miterlimit="10" d="M544.465,180.206c-3.899,3.9-10.215,3.9-14.115,0"
			/>
		<path fill="none" stroke="#569975" stroke-width="2" stroke-miterlimit="10" d="M541.539,177.515
			c-2.283,2.283-5.979,2.283-8.264,0"/>
	</g>
</g>
<rect x="530.696" y="323.191" fill="#72C59B" stroke="#569975" stroke-width="3" stroke-miterlimit="10" width="13.428" height="19.183"/>
<g>
	<g>
		<path fill="none" stroke="#569975" stroke-width="2" stroke-miterlimit="10" d="M546.963,352.706c-5.281,5.28-13.83,5.28-19.111,0
			"/>
		<path fill="none" stroke="#569975" stroke-width="2" stroke-miterlimit="10" d="M544.465,350.206
			c-3.899,3.899-10.215,3.899-14.115,0"/>
		<path fill="none" stroke="#569975" stroke-width="2" stroke-miterlimit="10" d="M541.539,347.516
			c-2.283,2.282-5.979,2.282-8.264,0"/>
	</g>
</g>
<g>
	<g>
		
			<rect x="488.089" y="45.809" fill="#FFFFFF" stroke="#9A2748" stroke-width="5.0128" stroke-miterlimit="10" width="76.926" height="104.615"/>
		
			<line fill="none" stroke="#EF4069" stroke-width="5.0128" stroke-miterlimit="10" x1="484.243" y1="43.117" x2="568.858" y2="43.117"/>
		
			<line fill="none" stroke="#EF4069" stroke-width="5.0128" stroke-miterlimit="10" x1="484.243" y1="153.117" x2="568.858" y2="153.117"/>
	</g>
	<g>
		<polygon fill="#3499CE" points="526.551,98.117 538.573,105.33 550.589,112.541 538.569,119.752 526.551,126.965 526.551,112.541 
					"/>
		<polygon fill="#9A6799" points="550.589,83.695 538.583,90.906 526.551,98.117 538.569,105.33 550.589,112.541 550.589,98.117 		
			"/>
		<polygon fill="#F8993D" points="526.553,69.271 514.531,76.482 502.512,83.695 514.532,90.906 526.553,98.117 526.553,83.695 		
			"/>
		<polygon fill="#EF4069" points="526.551,69.271 538.569,76.482 550.589,83.695 538.569,90.906 526.551,98.117 526.551,83.695 		
			"/>
		<polygon fill="#FDCF12" points="526.553,98.117 514.531,105.33 502.512,112.541 514.532,119.752 526.553,126.965 526.553,112.541 
					"/>
		<polygon fill="#72C59B" points="502.514,83.695 514.531,90.906 526.551,98.117 514.533,105.33 502.514,112.541 502.514,98.117 		
			"/>
	</g>
</g>
<g>
	<g>
		<path fill="none" stroke="#72C59B" stroke-width="7.625" stroke-miterlimit="10" d="M266.719,338.938
			c-20.139,20.135-52.731,20.135-72.869,0"/>
		<path fill="none" stroke="#72C59B" stroke-width="7.625" stroke-miterlimit="10" d="M257.192,329.404
			c-14.874,14.869-38.94,14.869-53.814,0"/>
		<path fill="none" stroke="#72C59B" stroke-width="7.625" stroke-miterlimit="10" d="M246.033,319.146
			c-8.701,8.703-22.797,8.703-31.501,0"/>
	</g>
</g>
<g>
	<rect x="31.14" y="45.993" stroke="#171718" stroke-width="15.9315" stroke-miterlimit="10" width="398.29" height="240"/>
	<rect x="43.354" y="232.375" fill="#FFFFFF" width="373.859" height="40.932"/>
	<path id="rect3330_3_" fill="#9A6799" d="M89.993,122.015H78.835c-10.111,0-18.314-8.201-18.314-18.32V92.54
		c0-10.119,8.203-18.32,18.314-18.32h11.158c10.116,0,18.321,8.201,18.321,18.32v11.155
		C108.315,113.815,100.109,122.015,89.993,122.015z"/>
	<path id="rect3330_1_" fill="#EF4069" d="M153.72,122.015h-11.159c-10.112,0-18.314-8.201-18.314-18.32V92.54
		c0-10.119,8.202-18.32,18.314-18.32h11.159c10.115,0,18.32,8.201,18.32,18.32v11.155
		C172.041,113.815,163.836,122.015,153.72,122.015z"/>
	<path id="rect3330_2_" fill="#72C59B" d="M217.445,122.015h-11.158c-10.111,0-18.313-8.201-18.313-18.32V92.54
		c0-10.119,8.202-18.32,18.313-18.32h11.158c10.116,0,18.321,8.201,18.321,18.32v11.155
		C235.767,113.815,227.562,122.015,217.445,122.015z"/>
	<path id="rect3330_4_" fill="#3499CE" d="M281.173,122.015h-11.158c-10.113,0-18.315-8.201-18.315-18.32V92.54
		c0-10.119,8.202-18.32,18.315-18.32h11.158c10.115,0,18.32,8.201,18.32,18.32v11.155
		C299.493,113.815,291.288,122.015,281.173,122.015z"/>
	<path id="rect3330_5_" fill="#FDCF12" d="M344.899,122.015H333.74c-10.113,0-18.314-8.201-18.314-18.32V92.54
		c0-10.119,8.201-18.32,18.314-18.32h11.158c10.112,0,18.317,8.201,18.317,18.32v11.155
		C363.217,113.815,355.012,122.015,344.899,122.015z"/>
	<path id="rect3330_7_" fill="#569975" d="M281.173,185.741h-11.158c-10.113,0-18.315-8.201-18.315-18.32v-11.155
		c0-10.119,8.202-18.32,18.315-18.32h11.158c10.115,0,18.32,8.201,18.32,18.32v11.155
		C299.493,177.54,291.288,185.741,281.173,185.741z"/>
	<path id="rect3330_8_" fill="#F8993D" d="M217.445,185.741h-11.158c-10.111,0-18.313-8.201-18.313-18.32v-11.155
		c0-10.119,8.202-18.32,18.313-18.32h11.158c10.116,0,18.321,8.201,18.321,18.32v11.155
		C235.767,177.54,227.562,185.741,217.445,185.741z"/>
	<path id="rect3330_9_" fill="#171718" d="M153.72,185.741h-11.159c-10.112,0-18.314-8.201-18.314-18.32v-11.155
		c0-10.119,8.202-18.32,18.314-18.32h11.159c10.115,0,18.32,8.201,18.32,18.32v11.155
		C172.041,177.54,163.836,185.741,153.72,185.741z"/>
	<path id="rect3330_10_" fill="#FFFFFF" d="M89.993,185.741H78.835c-10.111,0-18.314-8.201-18.314-18.32v-11.155
		c0-10.119,8.203-18.32,18.314-18.32h11.158c10.116,0,18.321,8.201,18.321,18.32v11.155
		C108.315,177.54,100.109,185.741,89.993,185.741z"/>
</g>
<g>
	<g>
		
			<rect x="488.089" y="216.024" fill="#FFFFFF" stroke="#9A2748" stroke-width="5.0128" stroke-miterlimit="10" width="76.926" height="104.615"/>
		
			<line fill="none" stroke="#EF4069" stroke-width="5.0128" stroke-miterlimit="10" x1="484.243" y1="213.333" x2="568.858" y2="213.333"/>
		
			<line fill="none" stroke="#EF4069" stroke-width="5.0128" stroke-miterlimit="10" x1="484.243" y1="323.333" x2="568.858" y2="323.333"/>
	</g>
	<g>
		<polygon fill="#3499CE" points="526.551,268.333 538.573,275.546 550.589,282.757 538.569,289.968 526.551,297.181 
			526.551,282.757 		"/>
		<polygon fill="#9A6799" points="550.589,253.911 538.583,261.122 526.551,268.333 538.569,275.546 550.589,282.757 
			550.589,268.333 		"/>
		<polygon fill="#F8993D" points="526.553,239.487 514.531,246.698 502.512,253.911 514.532,261.122 526.553,268.333 
			526.553,253.911 		"/>
		<polygon fill="#EF4069" points="526.551,239.487 538.569,246.698 550.589,253.911 538.569,261.122 526.551,268.333 
			526.551,253.911 		"/>
		<polygon fill="#FDCF12" points="526.553,268.333 514.531,275.546 502.512,282.757 514.532,289.968 526.553,297.181 
			526.553,282.757 		"/>
		<polygon fill="#72C59B" points="502.514,253.911 514.531,261.122 526.551,268.333 514.533,275.546 502.514,282.757 
			502.514,268.333 		"/>
	</g>
</g>
</svg>
