<?xml version="1.0" encoding="utf-8"?>
<!-- Generator: Adobe Illustrator 16.0.0, SVG Export Plug-In . SVG Version: 6.00 Build 0)  -->
<!DOCTYPE svg PUBLIC "-//W3C//DTD SVG 1.1//EN" "http://www.w3.org/Graphics/SVG/1.1/DTD/svg11.dtd">
<svg version="1.1" id="Layer_1" xmlns="http://www.w3.org/2000/svg" xmlns:xlink="http://www.w3.org/1999/xlink" x="0px" y="0px"
	 width="600px" height="400px" viewBox="0 429.318 600 400" enable-background="new 0 429.318 600 400" xml:space="preserve">
<g>
	<path fill="none" d="M404.143,699.938"/>
</g>
<rect x="530.696" y="585.844" fill="#72C59B" stroke="#569975" stroke-width="3" stroke-miterlimit="10" width="13.428" height="19.183"/>
<g>
	<g>
		<path fill="none" stroke="#569975" stroke-width="2" stroke-miterlimit="10" d="M546.963,615.358c-5.281,5.28-13.83,5.28-19.111,0
			"/>
		<path fill="none" stroke="#569975" stroke-width="2" stroke-miterlimit="10" d="M544.465,612.858
			c-3.899,3.899-10.215,3.899-14.115,0"/>
		<path fill="none" stroke="#569975" stroke-width="2" stroke-miterlimit="10" d="M541.539,610.168
			c-2.283,2.282-5.979,2.282-8.264,0"/>
	</g>
</g>
<rect x="530.696" y="755.844" fill="#72C59B" stroke="#569975" stroke-width="3" stroke-miterlimit="10" width="13.428" height="19.183"/>
<g>
	<g>
		
			<rect x="488.089" y="478.462" fill="#BFBFBF" stroke="#674566" stroke-width="5.0128" stroke-miterlimit="10" width="76.926" height="104.615"/>
		
			<line fill="none" stroke="#9A6799" stroke-width="5.0128" stroke-miterlimit="10" x1="484.243" y1="475.771" x2="568.858" y2="475.771"/>
		
			<line fill="none" stroke="#9A6799" stroke-width="5.0128" stroke-miterlimit="10" x1="484.243" y1="585.771" x2="568.858" y2="585.771"/>
	</g>
	<g>
		<polygon fill="#3499CE" points="526.552,530.771 538.573,537.981 550.589,545.192 538.569,552.405 526.552,559.616 
			526.552,545.192 		"/>
		<polygon fill="#9A6799" points="550.589,516.347 538.583,523.558 526.552,530.771 538.569,537.981 550.589,545.192 
			550.589,530.771 		"/>
		<polygon fill="#F8993D" points="526.554,501.923 514.532,509.136 502.511,516.347 514.532,523.558 526.554,530.771 
			526.554,516.347 		"/>
		<polygon fill="#EF4069" points="526.552,501.923 538.569,509.136 550.589,516.347 538.569,523.558 526.552,530.771 
			526.552,516.347 		"/>
		<polygon fill="#FDCF12" points="526.554,530.771 514.532,537.981 502.511,545.192 514.532,552.405 526.554,559.616 
			526.554,545.192 		"/>
		<polygon fill="#72C59B" points="502.514,516.347 514.532,523.558 526.552,530.771 514.532,537.981 502.514,545.192 
			502.514,530.771 		"/>
	</g>
</g>
<g>
	<g>
		<path fill="none" stroke="#569975" stroke-width="2" stroke-miterlimit="10" d="M546.963,785.358c-5.281,5.28-13.83,5.28-19.111,0
			"/>
		<path fill="none" stroke="#569975" stroke-width="2" stroke-miterlimit="10" d="M544.465,782.858
			c-3.899,3.899-10.215,3.899-14.115,0"/>
		<path fill="none" stroke="#569975" stroke-width="2" stroke-miterlimit="10" d="M541.539,780.168
			c-2.283,2.282-5.979,2.282-8.264,0"/>
	</g>
</g>
<g>
	<g>
		
			<rect x="488.089" y="648.678" fill="#BFBFBF" stroke="#674566" stroke-width="5.0128" stroke-miterlimit="10" width="76.926" height="104.615"/>
		
			<line fill="none" stroke="#9A6799" stroke-width="5.0128" stroke-miterlimit="10" x1="484.243" y1="645.986" x2="568.858" y2="645.986"/>
		
			<line fill="none" stroke="#9A6799" stroke-width="5.0128" stroke-miterlimit="10" x1="484.243" y1="755.986" x2="568.858" y2="755.986"/>
	</g>
	<g>
		<polygon fill="#3499CE" points="526.552,700.986 538.573,708.197 550.589,715.408 538.569,722.621 526.552,729.832 
			526.552,715.408 		"/>
		<polygon fill="#9A6799" points="550.589,686.563 538.583,693.773 526.552,700.986 538.569,708.197 550.589,715.408 
			550.589,700.986 		"/>
		<polygon fill="#F8993D" points="526.554,672.139 514.532,679.352 502.511,686.563 514.532,693.773 526.554,700.986 
			526.554,686.563 		"/>
		<polygon fill="#EF4069" points="526.552,672.139 538.569,679.352 550.589,686.563 538.569,693.773 526.552,700.986 
			526.552,686.563 		"/>
		<polygon fill="#FDCF12" points="526.554,700.986 514.532,708.197 502.511,715.408 514.532,722.621 526.554,729.832 
			526.554,715.408 		"/>
		<polygon fill="#72C59B" points="502.514,686.563 514.532,693.773 526.552,700.986 514.532,708.197 502.514,715.408 
			502.514,700.986 		"/>
	</g>
</g>
<g>
	<g>
		<path fill="none" stroke="#72C59B" stroke-width="7.625" stroke-miterlimit="10" d="M266.719,771.59
			c-20.139,20.135-52.731,20.135-72.869,0"/>
		<path fill="none" stroke="#72C59B" stroke-width="7.625" stroke-miterlimit="10" d="M257.192,762.057
			c-14.874,14.869-38.94,14.869-53.814,0"/>
		<path fill="none" stroke="#72C59B" stroke-width="7.625" stroke-miterlimit="10" d="M246.033,751.799
			c-8.701,8.703-22.797,8.703-31.501,0"/>
	</g>
</g>
<g>
	
		<rect x="31.14" y="478.646" fill="#FFFFFF" stroke="#E8E9E8" stroke-width="15.9315" stroke-miterlimit="10" width="398.29" height="240"/>
	<rect x="43.354" y="665.027" width="373.859" height="40.932"/>
	<path id="rect3330_18_" fill="#9A6799" d="M89.993,554.668H78.835c-10.111,0-18.314-8.201-18.314-18.32v-11.155
		c0-10.119,8.203-18.32,18.314-18.32h11.158c10.116,0,18.321,8.201,18.321,18.32v11.155
		C108.315,546.467,100.109,554.668,89.993,554.668z"/>
	<path id="rect3330_17_" fill="#EF4069" d="M153.72,554.668h-11.159c-10.112,0-18.314-8.201-18.314-18.32v-11.155
		c0-10.119,8.202-18.32,18.314-18.32h11.159c10.115,0,18.32,8.201,18.32,18.32v11.155
		C172.041,546.467,163.836,554.668,153.72,554.668z"/>
	<path id="rect3330_16_" fill="#72C59B" d="M217.445,554.668h-11.158c-10.111,0-18.313-8.201-18.313-18.32v-11.155
		c0-10.119,8.202-18.32,18.313-18.32h11.158c10.116,0,18.321,8.201,18.321,18.32v11.155
		C235.767,546.467,227.562,554.668,217.445,554.668z"/>
	<path id="rect3330_15_" fill="#3499CE" d="M281.173,554.668h-11.158c-10.113,0-18.315-8.201-18.315-18.32v-11.155
		c0-10.119,8.202-18.32,18.315-18.32h11.158c10.115,0,18.32,8.201,18.32,18.32v11.155
		C299.493,546.467,291.288,554.668,281.173,554.668z"/>
	<path id="rect3330_14_" fill="#FDCF12" d="M344.899,554.668H333.74c-10.113,0-18.314-8.201-18.314-18.32v-11.155
		c0-10.119,8.201-18.32,18.314-18.32h11.158c10.112,0,18.317,8.201,18.317,18.32v11.155
		C363.217,546.467,355.012,554.668,344.899,554.668z"/>
	<path id="rect3330_13_" fill="#569975" d="M281.173,618.394h-11.158c-10.113,0-18.315-8.201-18.315-18.32v-11.155
		c0-10.119,8.202-18.32,18.315-18.32h11.158c10.115,0,18.32,8.201,18.32,18.32v11.155
		C299.493,610.192,291.288,618.394,281.173,618.394z"/>
	<path id="rect3330_12_" fill="#F8993D" d="M217.445,618.394h-11.158c-10.111,0-18.313-8.201-18.313-18.32v-11.155
		c0-10.119,8.202-18.32,18.313-18.32h11.158c10.116,0,18.321,8.201,18.321,18.32v11.155
		C235.767,610.192,227.562,618.394,217.445,618.394z"/>
	<path id="rect3330_11_" fill="#171718" d="M153.72,618.394h-11.159c-10.112,0-18.314-8.201-18.314-18.32v-11.155
		c0-10.119,8.202-18.32,18.314-18.32h11.159c10.115,0,18.32,8.201,18.32,18.32v11.155
		C172.041,610.192,163.836,618.394,153.72,618.394z"/>
	<path id="rect3330_6_" fill="#FFFFFF" d="M89.993,618.394H78.835c-10.111,0-18.314-8.201-18.314-18.32v-11.155
		c0-10.119,8.203-18.32,18.314-18.32h11.158c10.116,0,18.321,8.201,18.321,18.32v11.155
		C108.315,610.192,100.109,618.394,89.993,618.394z"/>
</g>
</svg>
