<?xml version="1.0" encoding="utf-8"?>
<!-- Generator: Adobe Illustrator 16.0.0, SVG Export Plug-In . SVG Version: 6.00 Build 0)  -->
<!DOCTYPE svg PUBLIC "-//W3C//DTD SVG 1.1//EN" "http://www.w3.org/Graphics/SVG/1.1/DTD/svg11.dtd">
<svg version="1.1" id="Layer_1" xmlns="http://www.w3.org/2000/svg" xmlns:xlink="http://www.w3.org/1999/xlink" x="0px" y="0px"
	 width="600px" height="400px" viewBox="0 0 600 400" enable-background="new 0 0 600 400" xml:space="preserve">
<line fill="none" stroke="#FECF11" stroke-width="5" stroke-miterlimit="10" x1="538.691" y1="359.07" x2="538.691" y2="233.885"/>
<g>
	
		<line fill="none" stroke="#3499CE" stroke-width="5" stroke-miterlimit="10" x1="334.902" y1="158.442" x2="488.674" y2="158.442"/>
	
		<rect x="488.674" y="150.198" fill="#3499CE" stroke="#1D304B" stroke-width="3" stroke-miterlimit="10" width="25.351" height="17.744"/>
</g>
<rect x="531.976" y="213.93" fill="#FECF11" stroke="#F8993C" stroke-width="3" stroke-miterlimit="10" width="13.431" height="19.182"/>
<rect x="556.531" y="213.93" fill="#16A94A" stroke="#116735" stroke-width="3" stroke-miterlimit="10" width="13.428" height="19.182"/>
<g>
	<g>
		<path fill="none" stroke="#16A94A" stroke-width="2" stroke-miterlimit="10" d="M572.799,243.443
			c-5.281,5.281-13.831,5.281-19.111,0"/>
		<path fill="none" stroke="#16A94A" stroke-width="2" stroke-miterlimit="10" d="M570.3,240.943
			c-3.899,3.899-10.214,3.899-14.114,0"/>
		<path fill="none" stroke="#16A94A" stroke-width="2" stroke-miterlimit="10" d="M567.374,238.252
			c-2.282,2.283-5.979,2.283-8.263,0"/>
	</g>
</g>
<g>
	<rect x="26.706" y="40.929" stroke="#171617" stroke-width="8" stroke-miterlimit="10" width="308.195" height="215.735"/>
	<line fill="none" stroke="#171617" stroke-width="8" stroke-miterlimit="10" x1="5.305" y1="277.211" x2="356.303" y2="277.211"/>
	
		<line fill="none" stroke="#171617" stroke-width="8" stroke-miterlimit="10" x1="180.805" y1="256.666" x2="180.805" y2="277.211"/>
</g>
<rect x="44.391" y="107.856" fill="#3499CE" width="50" height="50"/>
<g>
	<g>
		
			<rect x="513.924" y="106.893" fill="#FFFFFF" stroke="#9A2647" stroke-width="5.0128" stroke-miterlimit="10" width="76.926" height="104.615"/>
		
			<line fill="none" stroke="#EF3E69" stroke-width="5.0128" stroke-miterlimit="10" x1="510.078" y1="104.202" x2="594.693" y2="104.202"/>
		
			<line fill="none" stroke="#EF3E69" stroke-width="5.0128" stroke-miterlimit="10" x1="510.078" y1="214.201" x2="594.693" y2="214.201"/>
	</g>
	<g>
		<polygon fill="#3499CE" points="552.387,159.202 564.408,166.415 576.424,173.625 564.404,180.836 552.387,188.049 
			552.387,173.625 		"/>
		<polygon fill="#9A6799" points="576.424,144.78 564.418,151.991 552.387,159.202 564.404,166.415 576.424,173.625 
			576.424,159.202 		"/>
		<polygon fill="#F8993C" points="552.389,130.356 540.367,137.567 528.346,144.78 540.367,151.991 552.389,159.202 552.389,144.78 
					"/>
		<polygon fill="#EF3E69" points="552.387,130.356 564.404,137.567 576.424,144.78 564.404,151.991 552.387,159.202 552.387,144.78 
					"/>
		<polygon fill="#FECF11" points="552.389,159.202 540.367,166.415 528.346,173.625 540.367,180.836 552.389,188.049 
			552.389,173.625 		"/>
		<polygon fill="#72C59B" points="528.349,144.78 540.367,151.991 552.387,159.202 540.367,166.415 528.349,173.625 
			528.349,159.202 		"/>
	</g>
</g>
<rect x="104.391" y="107.856" fill="#3499CE" width="50" height="50"/>
<rect x="104.391" y="167.856" fill="#3499CE" width="50" height="50"/>
<rect x="44.391" y="167.856" fill="#3499CE" width="50" height="50"/>
<rect x="45.391" y="61.013" fill="none" width="95" height="19.688"/>
<rect x="173.388" y="107.856" fill="#3499CE" width="100" height="15"/>
<rect x="173.388" y="130.356" fill="#FFFFFF" width="100" height="50"/>
<rect x="44.391" y="66.02" fill="#FFFFFF" width="100" height="15"/>
</svg>
