<?xml version="1.0" encoding="utf-8"?>
<!-- Generator: Adobe Illustrator 16.0.0, SVG Export Plug-In . SVG Version: 6.00 Build 0)  -->
<!DOCTYPE svg PUBLIC "-//W3C//DTD SVG 1.1//EN" "http://www.w3.org/Graphics/SVG/1.1/DTD/svg11.dtd">
<svg version="1.1" id="Layer_1" xmlns="http://www.w3.org/2000/svg" xmlns:xlink="http://www.w3.org/1999/xlink" x="0px" y="0px"
	 width="600px" height="400px" viewBox="0 423.5 600 400" enable-background="new 0 423.5 600 400" xml:space="preserve">
<line fill="none" stroke="#FECF11" stroke-width="5" stroke-miterlimit="10" x1="538.691" y1="784.641" x2="538.691" y2="659.455"/>
<g>
	
		<line fill="none" stroke="#3499CE" stroke-width="5" stroke-miterlimit="10" x1="334.902" y1="584.012" x2="488.674" y2="584.012"/>
	
		<rect x="488.674" y="575.769" fill="#3499CE" stroke="#1D304B" stroke-width="3" stroke-miterlimit="10" width="25.351" height="17.743"/>
</g>
<rect x="531.976" y="639.5" fill="#FECF11" stroke="#F8993C" stroke-width="3" stroke-miterlimit="10" width="13.431" height="19.182"/>
<rect x="556.531" y="639.5" fill="#16A94A" stroke="#116735" stroke-width="3" stroke-miterlimit="10" width="13.428" height="19.182"/>
<g>
	<g>
		<path fill="none" stroke="#16A94A" stroke-width="2" stroke-miterlimit="10" d="M572.799,669.014
			c-5.281,5.281-13.831,5.281-19.111,0"/>
		<path fill="none" stroke="#16A94A" stroke-width="2" stroke-miterlimit="10" d="M570.3,666.514
			c-3.899,3.899-10.214,3.899-14.114,0"/>
		<path fill="none" stroke="#16A94A" stroke-width="2" stroke-miterlimit="10" d="M567.374,663.822
			c-2.282,2.283-5.979,2.283-8.263,0"/>
	</g>
</g>
<g>
	
		<rect x="26.706" y="466.5" fill="#FFFFFF" stroke="#E8E9E8" stroke-width="8" stroke-miterlimit="10" width="308.195" height="215.734"/>
	<line fill="none" stroke="#E8E9E8" stroke-width="8" stroke-miterlimit="10" x1="5.305" y1="702.781" x2="356.303" y2="702.781"/>
	
		<line fill="none" stroke="#E8E9E8" stroke-width="8" stroke-miterlimit="10" x1="180.805" y1="682.236" x2="180.805" y2="702.781"/>
</g>
<rect x="44.391" y="533.426" fill="#3499CE" width="50" height="50"/>
<rect x="104.391" y="533.426" fill="#3499CE" width="50" height="50"/>
<g>
	<g>
		
			<rect x="515.226" y="531.117" fill="#BFBFBF" stroke="#664466" stroke-width="5.0128" stroke-miterlimit="10" width="76.926" height="104.615"/>
		
			<line fill="none" stroke="#9A6799" stroke-width="5.0128" stroke-miterlimit="10" x1="511.38" y1="528.426" x2="595.995" y2="528.426"/>
		
			<line fill="none" stroke="#9A6799" stroke-width="5.0128" stroke-miterlimit="10" x1="511.38" y1="638.426" x2="595.995" y2="638.426"/>
	</g>
	<g>
		<polygon fill="#3499CE" points="553.688,583.426 565.71,590.637 577.726,597.848 565.706,605.061 553.688,612.271 
			553.688,597.848 		"/>
		<polygon fill="#9A6799" points="577.726,569.002 565.72,576.213 553.688,583.426 565.706,590.637 577.726,597.848 
			577.726,583.426 		"/>
		<polygon fill="#F8993C" points="553.69,554.578 541.669,561.791 529.647,569.002 541.669,576.213 553.69,583.426 553.69,569.002 
					"/>
		<polygon fill="#EF3E69" points="553.688,554.578 565.706,561.791 577.726,569.002 565.706,576.213 553.688,583.426 
			553.688,569.002 		"/>
		<polygon fill="#FECF11" points="553.69,583.426 541.669,590.637 529.647,597.848 541.669,605.061 553.69,612.271 553.69,597.848 
					"/>
		<polygon fill="#72C59B" points="529.65,569.002 541.669,576.213 553.688,583.426 541.669,590.637 529.65,597.848 529.65,583.426 
					"/>
	</g>
</g>
<rect x="104.391" y="593.426" fill="#3499CE" width="50" height="50"/>
<rect x="44.391" y="593.426" fill="#3499CE" width="50" height="50"/>
<rect x="45.391" y="486.584" fill="none" width="95" height="19.688"/>
<rect x="173.388" y="533.426" fill="#3499CE" width="100" height="15"/>
<rect x="173.388" y="555.926" width="100" height="50"/>
<rect x="44.391" y="491.59" width="100" height="15"/>
</svg>
